G04 Layer_Color=16711935*
%FSLAX44Y44*%
%MOMM*%
G71*
G01*
G75*
%ADD48C,0.5000*%
%ADD52C,0.3000*%
%ADD54C,0.1000*%
%ADD55C,0.2540*%
%ADD56C,0.1524*%
%ADD57R,3.5000X0.8877*%
%ADD58R,0.9819X4.6000*%
%ADD76C,0.2000*%
D48*
X2894243Y714000D02*
G03*
X2894243Y714000I-4243J0D01*
G01*
X2890123Y711000D02*
G03*
X2890123Y711000I-4123J0D01*
G01*
X2297243Y1040000D02*
G03*
X2297243Y1040000I-4243J0D01*
G01*
X2300123Y1036000D02*
G03*
X2300123Y1036000I-4123J0D01*
G01*
D52*
X2145500Y1613000D02*
X2428000D01*
D54*
X1793820Y1406915D02*
X1792487Y1405583D01*
X1789821D01*
X1788488Y1406915D01*
Y1412247D01*
X1789821Y1413580D01*
X1792487D01*
X1793820Y1412247D01*
Y1406915D01*
X1792820Y1436165D02*
X1791487Y1434833D01*
X1788821D01*
X1787488Y1436165D01*
Y1441497D01*
X1788821Y1442830D01*
X1791487D01*
X1792820Y1441497D01*
Y1436165D01*
X1725082Y1538914D02*
X1723749Y1540247D01*
X1721083D01*
X1719750Y1538914D01*
Y1537582D01*
X1721083Y1536249D01*
X1723749D01*
X1725082Y1534916D01*
Y1533583D01*
X1723749Y1532250D01*
X1721083D01*
X1719750Y1533583D01*
X1727747Y1532250D02*
Y1540247D01*
X1730413Y1537582D01*
X1733079Y1540247D01*
Y1532250D01*
X1735745D02*
Y1537582D01*
X1738411Y1540247D01*
X1741077Y1537582D01*
Y1532250D01*
Y1536249D01*
X1735745D01*
X1749074Y1540247D02*
X1746408Y1538914D01*
X1743742Y1536249D01*
Y1533583D01*
X1745075Y1532250D01*
X1747741D01*
X1749074Y1533583D01*
Y1534916D01*
X1747741Y1536249D01*
X1743742D01*
X1757071Y1532250D02*
X1751740D01*
X1757071Y1537582D01*
Y1538914D01*
X1755738Y1540247D01*
X1753073D01*
X1751740Y1538914D01*
X1765069Y1540247D02*
X1759737D01*
Y1536249D01*
X1762403Y1537582D01*
X1763736D01*
X1765069Y1536249D01*
Y1533583D01*
X1763736Y1532250D01*
X1761070D01*
X1759737Y1533583D01*
X1773066Y1532250D02*
X1767735D01*
X1773066Y1537582D01*
Y1538914D01*
X1771733Y1540247D01*
X1769067D01*
X1767735Y1538914D01*
X1775732Y1532250D02*
Y1537582D01*
X1778398Y1540247D01*
X1781064Y1537582D01*
Y1532250D01*
Y1536249D01*
X1775732D01*
X1789061Y1532250D02*
X1783729D01*
X1789061Y1537582D01*
Y1538914D01*
X1787728Y1540247D01*
X1785062D01*
X1783729Y1538914D01*
X1791727Y1536249D02*
X1797058D01*
X1799724Y1538914D02*
X1801057Y1540247D01*
X1803723D01*
X1805056Y1538914D01*
Y1537582D01*
X1803723Y1536249D01*
X1802390D01*
X1803723D01*
X1805056Y1534916D01*
Y1533583D01*
X1803723Y1532250D01*
X1801057D01*
X1799724Y1533583D01*
X1813053Y1538914D02*
X1811720Y1540247D01*
X1809055D01*
X1807722Y1538914D01*
Y1533583D01*
X1809055Y1532250D01*
X1811720D01*
X1813053Y1533583D01*
Y1536249D01*
X1810387D01*
X1815719Y1540247D02*
X1821051D01*
X1818385D01*
Y1532250D01*
X1829048Y1540247D02*
X1823716D01*
Y1536249D01*
X1826382Y1537582D01*
X1827715D01*
X1829048Y1536249D01*
Y1533583D01*
X1827715Y1532250D01*
X1825049D01*
X1823716Y1533583D01*
X1831714Y1538914D02*
X1833047Y1540247D01*
X1835713D01*
X1837045Y1538914D01*
Y1533583D01*
X1835713Y1532250D01*
X1833047D01*
X1831714Y1533583D01*
Y1538914D01*
X1845043D02*
X1843710Y1540247D01*
X1841044D01*
X1839711Y1538914D01*
Y1533583D01*
X1841044Y1532250D01*
X1843710D01*
X1845043Y1533583D01*
Y1536249D01*
X1842377D01*
X1847709D02*
X1853040D01*
X1861038Y1540247D02*
X1855706D01*
Y1536249D01*
X1858372Y1537582D01*
X1859705D01*
X1861038Y1536249D01*
Y1533583D01*
X1859705Y1532250D01*
X1857039D01*
X1855706Y1533583D01*
X1863703Y1538914D02*
X1865036Y1540247D01*
X1867702D01*
X1869035Y1538914D01*
Y1533583D01*
X1867702Y1532250D01*
X1865036D01*
X1863703Y1533583D01*
Y1538914D01*
X1821003Y1499750D02*
X1827667D01*
X1829000Y1501083D01*
Y1503749D01*
X1827667Y1505082D01*
X1821003D01*
X1829000Y1507747D02*
X1827667D01*
Y1509080D01*
X1829000D01*
Y1507747D01*
X1821003Y1519744D02*
Y1514412D01*
X1825001D01*
Y1517078D01*
Y1514412D01*
X1829000D01*
X1821003Y1522409D02*
X1829000D01*
Y1527741D01*
X2828000Y1376000D02*
X2835997D01*
Y1372001D01*
X2834665Y1370668D01*
X2831999D01*
X2830666Y1372001D01*
Y1376000D01*
Y1373334D02*
X2828000Y1370668D01*
X2835997Y1362671D02*
Y1368003D01*
X2828000D01*
Y1362671D01*
X2831999Y1368003D02*
Y1365337D01*
X2835997Y1360005D02*
X2828000D01*
Y1356006D01*
X2829333Y1354673D01*
X2834665D01*
X2835997Y1356006D01*
Y1360005D01*
X2832080Y1421680D02*
Y1424346D01*
Y1423013D01*
X2824083D01*
X2825416Y1421680D01*
X2824083Y1428345D02*
X2832080D01*
X2829414D01*
X2824083Y1433676D01*
X2828081Y1429677D01*
X2832080Y1433676D01*
X2821920Y1343320D02*
Y1340654D01*
Y1341987D01*
X2829917D01*
X2828585Y1343320D01*
X2829917Y1336655D02*
X2821920D01*
X2824586D01*
X2829917Y1331324D01*
X2825919Y1335323D01*
X2821920Y1331324D01*
X2819336Y1395332D02*
X2818003Y1393999D01*
Y1391333D01*
X2819336Y1390000D01*
X2824667D01*
X2826000Y1391333D01*
Y1393999D01*
X2824667Y1395332D01*
X2822001D01*
Y1392666D01*
X2826000Y1397997D02*
X2818003D01*
Y1401996D01*
X2819336Y1403329D01*
X2822001D01*
X2823334Y1401996D01*
Y1397997D01*
Y1400663D02*
X2826000Y1403329D01*
X2818003Y1411326D02*
Y1405995D01*
X2826000D01*
Y1411326D01*
X2822001Y1405995D02*
Y1408661D01*
X2818003Y1419324D02*
Y1413992D01*
X2826000D01*
Y1419324D01*
X2822001Y1413992D02*
Y1416658D01*
X2826000Y1421990D02*
X2818003D01*
X2826000Y1427321D01*
X2818003D01*
X1450085Y1468820D02*
X1451417Y1467487D01*
Y1464821D01*
X1450085Y1463488D01*
X1444753D01*
X1443420Y1464821D01*
Y1467487D01*
X1444753Y1468820D01*
X1450085D01*
X2896000Y756000D02*
X2903997D01*
X2901331Y753334D01*
X2903997Y750668D01*
X2896000D01*
Y748003D02*
X2903997D01*
Y744004D01*
X2902664Y742671D01*
X2899999D01*
X2898666Y744004D01*
Y748003D01*
X2896000Y736006D02*
X2903997D01*
X2899999Y740005D01*
Y734674D01*
X2903997Y726676D02*
Y732008D01*
X2899999D01*
X2901331Y729342D01*
Y728009D01*
X2899999Y726676D01*
X2897333D01*
X2896000Y728009D01*
Y730675D01*
X2897333Y732008D01*
X2903997Y724010D02*
X2896000D01*
Y720012D01*
X2897333Y718679D01*
X2902664D01*
X2903997Y720012D01*
Y724010D01*
Y716013D02*
Y710681D01*
Y713347D01*
X2896000D01*
X2902664Y708016D02*
X2903997Y706683D01*
Y704017D01*
X2902664Y702684D01*
X2897333D01*
X2896000Y704017D01*
Y706683D01*
X2897333Y708016D01*
X2902664D01*
X2896000Y694687D02*
Y700018D01*
X2901331Y694687D01*
X2902664D01*
X2903997Y696019D01*
Y698685D01*
X2902664Y700018D01*
X2916000Y718000D02*
X2913334D01*
X2914667D01*
Y710003D01*
X2916000Y711336D01*
X2889336Y699332D02*
X2888003Y697999D01*
Y695333D01*
X2889336Y694000D01*
X2890668D01*
X2892001Y695333D01*
Y697999D01*
X2893334Y699332D01*
X2894667D01*
X2896000Y697999D01*
Y695333D01*
X2894667Y694000D01*
X2888003Y701997D02*
Y707329D01*
Y704663D01*
X2896000D01*
X2888003Y715326D02*
Y709995D01*
X2896000D01*
Y715326D01*
X2892001Y709995D02*
Y712661D01*
X2888003Y717992D02*
X2893334D01*
X2896000Y720658D01*
X2893334Y723324D01*
X2888003D01*
X2896000Y725990D02*
X2890668D01*
X2888003Y728655D01*
X2890668Y731321D01*
X2896000D01*
X2892001D01*
Y725990D01*
X2888003Y733987D02*
X2896000D01*
Y739319D01*
X2892001Y741984D02*
Y747316D01*
X2896000Y749982D02*
X2888003D01*
X2890668Y752648D01*
X2888003Y755313D01*
X2896000D01*
X2888003Y757979D02*
X2896000D01*
X2893334D01*
X2888003Y763311D01*
X2892001Y759312D01*
X2896000Y763311D01*
X2888003Y765977D02*
Y768643D01*
Y767310D01*
X2896000D01*
Y765977D01*
Y768643D01*
Y772641D02*
Y775307D01*
Y773974D01*
X2888003D01*
X2889336Y772641D01*
X2896000Y784637D02*
Y779306D01*
X2890668Y784637D01*
X2889336D01*
X2888003Y783305D01*
Y780639D01*
X2889336Y779306D01*
X2894667Y787303D02*
X2896000Y788636D01*
Y791302D01*
X2894667Y792635D01*
X2889336D01*
X2888003Y791302D01*
Y788636D01*
X2889336Y787303D01*
X2890668D01*
X2892001Y788636D01*
Y792635D01*
X2888003Y795301D02*
X2893334D01*
X2896000Y797967D01*
X2893334Y800632D01*
X2888003D01*
X2896000Y803298D02*
Y805964D01*
Y804631D01*
X2888003D01*
X2889336Y803298D01*
X2831331Y757664D02*
X2829999Y758997D01*
X2827333D01*
X2826000Y757664D01*
Y752333D01*
X2827333Y751000D01*
X2829999D01*
X2831331Y752333D01*
X2833997Y758997D02*
Y751000D01*
X2839329D01*
X2841995Y758997D02*
Y751000D01*
Y753666D01*
X2847326Y758997D01*
X2843328Y754999D01*
X2847326Y751000D01*
X2830332Y730665D02*
X2828999Y731997D01*
X2826333D01*
X2825000Y730665D01*
Y725333D01*
X2826333Y724000D01*
X2828999D01*
X2830332Y725333D01*
Y727999D01*
X2827666D01*
X2832997Y724000D02*
Y731997D01*
X2838329Y724000D01*
Y731997D01*
X2840995D02*
Y724000D01*
X2844994D01*
X2846326Y725333D01*
Y730665D01*
X2844994Y731997D01*
X2840995D01*
X2817000Y705997D02*
Y698000D01*
X2820999D01*
X2822332Y699333D01*
Y704665D01*
X2820999Y705997D01*
X2817000D01*
X2824997Y698000D02*
Y703332D01*
X2827663Y705997D01*
X2830329Y703332D01*
Y698000D01*
Y701999D01*
X2824997D01*
X2832995Y705997D02*
X2838326D01*
X2835661D01*
Y698000D01*
X2840992D02*
Y703332D01*
X2843658Y705997D01*
X2846324Y703332D01*
Y698000D01*
Y701999D01*
X2840992D01*
X2944000Y702664D02*
X2945333Y703997D01*
X2947999D01*
X2949332Y702664D01*
Y701332D01*
X2947999Y699999D01*
X2946666D01*
X2947999D01*
X2949332Y698666D01*
Y697333D01*
X2947999Y696000D01*
X2945333D01*
X2944000Y697333D01*
X2951997Y703997D02*
Y698666D01*
X2954663Y696000D01*
X2957329Y698666D01*
Y703997D01*
X2959995Y702664D02*
X2961328Y703997D01*
X2963994D01*
X2965327Y702664D01*
Y701332D01*
X2963994Y699999D01*
X2962661D01*
X2963994D01*
X2965327Y698666D01*
Y697333D01*
X2963994Y696000D01*
X2961328D01*
X2959995Y697333D01*
X2948332Y730665D02*
X2946999Y731997D01*
X2944333D01*
X2943000Y730665D01*
Y725333D01*
X2944333Y724000D01*
X2946999D01*
X2948332Y725333D01*
Y727999D01*
X2945666D01*
X2950997Y724000D02*
Y731997D01*
X2956329Y724000D01*
Y731997D01*
X2958995D02*
Y724000D01*
X2962993D01*
X2964326Y725333D01*
Y730665D01*
X2962993Y731997D01*
X2958995D01*
X2970685Y698680D02*
X2969353Y700013D01*
Y702679D01*
X2970685Y704012D01*
X2976017D01*
X2977350Y702679D01*
Y700013D01*
X2976017Y698680D01*
X2970685D01*
X2977350Y706677D02*
X2976017D01*
Y708010D01*
X2977350D01*
Y706677D01*
Y713342D02*
Y716008D01*
Y714675D01*
X2969353D01*
X2970685Y713342D01*
X2972018Y720006D02*
X2976017D01*
X2977350Y721339D01*
Y725338D01*
X2972018D01*
X2969353Y733335D02*
Y728004D01*
X2973351D01*
Y730670D01*
Y728004D01*
X2977350D01*
X2878680Y681650D02*
X2881346D01*
X2880013D01*
Y689647D01*
X2878680Y688315D01*
X2885345D02*
X2886678Y689647D01*
X2889343D01*
X2890676Y688315D01*
Y682983D01*
X2889343Y681650D01*
X2886678D01*
X2885345Y682983D01*
Y688315D01*
X2893342Y686982D02*
Y682983D01*
X2894675Y681650D01*
X2898674D01*
Y686982D01*
X2906671Y689647D02*
X2901339D01*
Y685649D01*
X2904005D01*
X2901339D01*
Y681650D01*
X1868320Y786080D02*
X1865654D01*
X1866987D01*
Y778083D01*
X1868320Y779416D01*
X1861655Y778083D02*
Y786080D01*
Y783414D01*
X1856324Y778083D01*
X1860323Y782081D01*
X1856324Y786080D01*
X1854080Y863680D02*
Y866346D01*
Y865013D01*
X1846083D01*
X1847415Y863680D01*
X1846083Y870344D02*
X1854080D01*
X1851414D01*
X1846083Y875676D01*
X1850081Y871677D01*
X1854080Y875676D01*
X1809000Y817997D02*
Y810000D01*
X1812999D01*
X1814332Y811333D01*
Y812666D01*
X1812999Y813999D01*
X1809000D01*
X1812999D01*
X1814332Y815332D01*
Y816665D01*
X1812999Y817997D01*
X1809000D01*
X1822329Y816665D02*
X1820996Y817997D01*
X1818330D01*
X1816997Y816665D01*
Y811333D01*
X1818330Y810000D01*
X1820996D01*
X1822329Y811333D01*
X1824995Y816665D02*
X1826328Y817997D01*
X1828994D01*
X1830326Y816665D01*
Y815332D01*
X1828994Y813999D01*
X1830326Y812666D01*
Y811333D01*
X1828994Y810000D01*
X1826328D01*
X1824995Y811333D01*
Y812666D01*
X1826328Y813999D01*
X1824995Y815332D01*
Y816665D01*
X1826328Y813999D02*
X1828994D01*
X1832992Y810000D02*
X1835658D01*
X1834325D01*
Y817997D01*
X1832992Y816665D01*
X1839657Y817997D02*
X1844988D01*
Y816665D01*
X1839657Y811333D01*
Y810000D01*
X1653662Y1022917D02*
X1650996D01*
X1652329D01*
Y1016253D01*
X1650996Y1014920D01*
X1649663D01*
X1648330Y1016253D01*
X1656327Y1022917D02*
Y1016253D01*
X1657660Y1014920D01*
X1660326D01*
X1661659Y1016253D01*
Y1022917D01*
X1664325Y1014920D02*
Y1022917D01*
X1666991Y1020252D01*
X1669657Y1022917D01*
Y1014920D01*
X1672322D02*
Y1022917D01*
X1676321D01*
X1677654Y1021584D01*
Y1018919D01*
X1676321Y1017586D01*
X1672322D01*
X1685651Y1022917D02*
X1680320D01*
Y1014920D01*
X1685651D01*
X1680320Y1018919D02*
X1682986D01*
X1688317Y1014920D02*
Y1022917D01*
X1692316D01*
X1693649Y1021584D01*
Y1018919D01*
X1692316Y1017586D01*
X1688317D01*
X1690983D02*
X1693649Y1014920D01*
X1653662Y1049917D02*
X1650996D01*
X1652329D01*
Y1043253D01*
X1650996Y1041920D01*
X1649663D01*
X1648330Y1043253D01*
X1656327Y1049917D02*
Y1043253D01*
X1657660Y1041920D01*
X1660326D01*
X1661659Y1043253D01*
Y1049917D01*
X1664325Y1041920D02*
Y1049917D01*
X1666991Y1047252D01*
X1669657Y1049917D01*
Y1041920D01*
X1672322D02*
Y1049917D01*
X1676321D01*
X1677654Y1048585D01*
Y1045919D01*
X1676321Y1044586D01*
X1672322D01*
X1685651Y1049917D02*
X1680320D01*
Y1041920D01*
X1685651D01*
X1680320Y1045919D02*
X1682986D01*
X1688317Y1041920D02*
Y1049917D01*
X1692316D01*
X1693649Y1048585D01*
Y1045919D01*
X1692316Y1044586D01*
X1688317D01*
X1690983D02*
X1693649Y1041920D01*
X1653662Y1076917D02*
X1650996D01*
X1652329D01*
Y1070253D01*
X1650996Y1068920D01*
X1649663D01*
X1648330Y1070253D01*
X1656327Y1076917D02*
Y1070253D01*
X1657660Y1068920D01*
X1660326D01*
X1661659Y1070253D01*
Y1076917D01*
X1664325Y1068920D02*
Y1076917D01*
X1666991Y1074252D01*
X1669657Y1076917D01*
Y1068920D01*
X1672322D02*
Y1076917D01*
X1676321D01*
X1677654Y1075584D01*
Y1072919D01*
X1676321Y1071586D01*
X1672322D01*
X1685651Y1076917D02*
X1680320D01*
Y1068920D01*
X1685651D01*
X1680320Y1072919D02*
X1682986D01*
X1688317Y1068920D02*
Y1076917D01*
X1692316D01*
X1693649Y1075584D01*
Y1072919D01*
X1692316Y1071586D01*
X1688317D01*
X1690983D02*
X1693649Y1068920D01*
X1846000Y679500D02*
X1848666D01*
X1847333D01*
Y687497D01*
X1846000Y686164D01*
X1857996Y687497D02*
X1855330Y686164D01*
X1852664Y683499D01*
Y680833D01*
X1853997Y679500D01*
X1856663D01*
X1857996Y680833D01*
Y682166D01*
X1856663Y683499D01*
X1852664D01*
X1860662Y679500D02*
Y687497D01*
X1863328Y684832D01*
X1865994Y687497D01*
Y679500D01*
X1873991D02*
X1868659D01*
X1873991Y684832D01*
Y686164D01*
X1872658Y687497D01*
X1869992D01*
X1868659Y686164D01*
X1876657Y687497D02*
X1881988D01*
Y686164D01*
X1876657Y680833D01*
Y679500D01*
X1889986Y687497D02*
X1887320Y686164D01*
X1884654Y683499D01*
Y680833D01*
X1885987Y679500D01*
X1888653D01*
X1889986Y680833D01*
Y682166D01*
X1888653Y683499D01*
X1884654D01*
X1896650Y679500D02*
Y687497D01*
X1892652Y683499D01*
X1897983D01*
X2308000Y1286664D02*
X2309333Y1287997D01*
X2311999D01*
X2313332Y1286664D01*
Y1281333D01*
X2311999Y1280000D01*
X2309333D01*
X2308000Y1281333D01*
Y1286664D01*
X2315997Y1280000D02*
Y1281333D01*
X2317330D01*
Y1280000D01*
X2315997D01*
X2322662D02*
X2325328D01*
X2323995D01*
Y1287997D01*
X2322662Y1286664D01*
X2329326Y1285332D02*
Y1281333D01*
X2330659Y1280000D01*
X2334658D01*
Y1285332D01*
X2342655Y1287997D02*
X2337324D01*
Y1283999D01*
X2339990D01*
X2337324D01*
Y1280000D01*
X2255000Y1286664D02*
X2256333Y1287997D01*
X2258999D01*
X2260332Y1286664D01*
Y1281333D01*
X2258999Y1280000D01*
X2256333D01*
X2255000Y1281333D01*
Y1286664D01*
X2262997Y1280000D02*
Y1281333D01*
X2264330D01*
Y1280000D01*
X2262997D01*
X2269662D02*
X2272328D01*
X2270995D01*
Y1287997D01*
X2269662Y1286664D01*
X2276326Y1285332D02*
Y1281333D01*
X2277659Y1280000D01*
X2281658D01*
Y1285332D01*
X2289655Y1287997D02*
X2284324D01*
Y1283999D01*
X2286990D01*
X2284324D01*
Y1280000D01*
X1547917Y784338D02*
Y787004D01*
Y785671D01*
X1541253D01*
X1539920Y787004D01*
Y788337D01*
X1541253Y789670D01*
X1547917Y781673D02*
X1541253D01*
X1539920Y780340D01*
Y777674D01*
X1541253Y776341D01*
X1547917D01*
X1539920Y773675D02*
X1547917D01*
X1545252Y771009D01*
X1547917Y768344D01*
X1539920D01*
Y765678D02*
X1547917D01*
Y761679D01*
X1546584Y760346D01*
X1543919D01*
X1542586Y761679D01*
Y765678D01*
X1547917Y752349D02*
Y757680D01*
X1539920D01*
Y752349D01*
X1543919Y757680D02*
Y755014D01*
X1539920Y749683D02*
X1547917D01*
Y745684D01*
X1546584Y744351D01*
X1543919D01*
X1542586Y745684D01*
Y749683D01*
Y747017D02*
X1539920Y744351D01*
X2166000Y778664D02*
X2167333Y779997D01*
X2169999D01*
X2171332Y778664D01*
Y773333D01*
X2169999Y772000D01*
X2167333D01*
X2166000Y773333D01*
Y778664D01*
X2173997Y772000D02*
Y773333D01*
X2175330D01*
Y772000D01*
X2173997D01*
X2180662D02*
X2183328D01*
X2181995D01*
Y779997D01*
X2180662Y778664D01*
X2187327Y777332D02*
Y773333D01*
X2188659Y772000D01*
X2192658D01*
Y777332D01*
X2200656Y779997D02*
X2195324D01*
Y775999D01*
X2197990D01*
X2195324D01*
Y772000D01*
X2475336Y1178000D02*
X2474003Y1179333D01*
Y1181999D01*
X2475336Y1183332D01*
X2480667D01*
X2482000Y1181999D01*
Y1179333D01*
X2480667Y1178000D01*
X2475336D01*
X2482000Y1185997D02*
X2480667D01*
Y1187330D01*
X2482000D01*
Y1185997D01*
Y1192662D02*
Y1195328D01*
Y1193995D01*
X2474003D01*
X2475336Y1192662D01*
X2476668Y1199326D02*
X2480667D01*
X2482000Y1200659D01*
Y1204658D01*
X2476668D01*
X2474003Y1212655D02*
Y1207324D01*
X2478001D01*
Y1209990D01*
Y1207324D01*
X2482000D01*
X2474335Y1272000D02*
X2473003Y1273333D01*
Y1275999D01*
X2474335Y1277332D01*
X2479667D01*
X2481000Y1275999D01*
Y1273333D01*
X2479667Y1272000D01*
X2474335D01*
X2481000Y1279997D02*
X2479667D01*
Y1281330D01*
X2481000D01*
Y1279997D01*
Y1286662D02*
Y1289328D01*
Y1287995D01*
X2473003D01*
X2474335Y1286662D01*
X2475668Y1293327D02*
X2479667D01*
X2481000Y1294659D01*
Y1298658D01*
X2475668D01*
X2473003Y1306655D02*
Y1301324D01*
X2477001D01*
Y1303990D01*
Y1301324D01*
X2481000D01*
X2475336Y1363000D02*
X2474003Y1364333D01*
Y1366999D01*
X2475336Y1368332D01*
X2480667D01*
X2482000Y1366999D01*
Y1364333D01*
X2480667Y1363000D01*
X2475336D01*
X2482000Y1370997D02*
X2480667D01*
Y1372330D01*
X2482000D01*
Y1370997D01*
Y1377662D02*
Y1380328D01*
Y1378995D01*
X2474003D01*
X2475336Y1377662D01*
X2476668Y1384326D02*
X2480667D01*
X2482000Y1385659D01*
Y1389658D01*
X2476668D01*
X2474003Y1397655D02*
Y1392324D01*
X2478001D01*
Y1394990D01*
Y1392324D01*
X2482000D01*
X1830150Y1082820D02*
Y1080154D01*
Y1081487D01*
X1838147D01*
X1836815Y1082820D01*
Y1076155D02*
X1838147Y1074822D01*
Y1072157D01*
X1836815Y1070824D01*
X1835482D01*
X1834149Y1072157D01*
X1832816Y1070824D01*
X1831483D01*
X1830150Y1072157D01*
Y1074822D01*
X1831483Y1076155D01*
X1832816D01*
X1834149Y1074822D01*
X1835482Y1076155D01*
X1836815D01*
X1834149Y1074822D02*
Y1072157D01*
X1827484Y1068158D02*
X1835482D01*
Y1064159D01*
X1834149Y1062826D01*
X1831483D01*
X1830150Y1064159D01*
Y1068158D01*
X1838147Y1054829D02*
Y1060161D01*
X1834149D01*
Y1057495D01*
Y1060161D01*
X1830150D01*
X1842850Y962180D02*
Y964846D01*
Y963513D01*
X1834853D01*
X1836185Y962180D01*
Y968845D02*
X1834853Y970177D01*
Y972843D01*
X1836185Y974176D01*
X1837518D01*
X1838851Y972843D01*
X1840184Y974176D01*
X1841517D01*
X1842850Y972843D01*
Y970177D01*
X1841517Y968845D01*
X1840184D01*
X1838851Y970177D01*
X1837518Y968845D01*
X1836185D01*
X1838851Y970177D02*
Y972843D01*
X1845516Y976842D02*
X1837518D01*
Y980841D01*
X1838851Y982173D01*
X1841517D01*
X1842850Y980841D01*
Y976842D01*
X1834853Y990171D02*
Y984839D01*
X1838851D01*
Y987505D01*
Y984839D01*
X1842850D01*
X1879000Y1103664D02*
X1880333Y1104997D01*
X1882999D01*
X1884332Y1103664D01*
Y1098333D01*
X1882999Y1097000D01*
X1880333D01*
X1879000Y1098333D01*
Y1103664D01*
X1886997Y1097000D02*
Y1098333D01*
X1888330D01*
Y1097000D01*
X1886997D01*
X1893662D02*
X1896328D01*
X1894995D01*
Y1104997D01*
X1893662Y1103664D01*
X1900327Y1102332D02*
Y1098333D01*
X1901659Y1097000D01*
X1905658D01*
Y1102332D01*
X1913656Y1104997D02*
X1908324D01*
Y1100999D01*
X1910990D01*
X1908324D01*
Y1097000D01*
X2161335Y962000D02*
X2160003Y963333D01*
Y965999D01*
X2161335Y967332D01*
X2166667D01*
X2168000Y965999D01*
Y963333D01*
X2166667Y962000D01*
X2161335D01*
X2168000Y969997D02*
X2166667D01*
Y971330D01*
X2168000D01*
Y969997D01*
Y976662D02*
Y979328D01*
Y977995D01*
X2160003D01*
X2161335Y976662D01*
X2162668Y983326D02*
X2166667D01*
X2168000Y984659D01*
Y988658D01*
X2162668D01*
X2160003Y996656D02*
Y991324D01*
X2164001D01*
Y993990D01*
Y991324D01*
X2168000D01*
X2182686Y1160680D02*
X2181353Y1162013D01*
Y1164679D01*
X2182686Y1166012D01*
X2188017D01*
X2189350Y1164679D01*
Y1162013D01*
X2188017Y1160680D01*
X2182686D01*
X2189350Y1168677D02*
X2188017D01*
Y1170010D01*
X2189350D01*
Y1168677D01*
Y1175342D02*
Y1178008D01*
Y1176675D01*
X2181353D01*
X2182686Y1175342D01*
X2184018Y1182007D02*
X2188017D01*
X2189350Y1183339D01*
Y1187338D01*
X2184018D01*
X2181353Y1195335D02*
Y1190004D01*
X2185351D01*
Y1192670D01*
Y1190004D01*
X2189350D01*
X2025685Y1210680D02*
X2024353Y1212013D01*
Y1214679D01*
X2025685Y1216012D01*
X2031017D01*
X2032350Y1214679D01*
Y1212013D01*
X2031017Y1210680D01*
X2025685D01*
X2032350Y1218677D02*
X2031017D01*
Y1220010D01*
X2032350D01*
Y1218677D01*
Y1225342D02*
Y1228008D01*
Y1226675D01*
X2024353D01*
X2025685Y1225342D01*
X2027018Y1232007D02*
X2031017D01*
X2032350Y1233339D01*
Y1237338D01*
X2027018D01*
X2024353Y1245335D02*
Y1240004D01*
X2028351D01*
Y1242670D01*
Y1240004D01*
X2032350D01*
X2054335Y948000D02*
X2053003Y949333D01*
Y951999D01*
X2054335Y953332D01*
X2059667D01*
X2061000Y951999D01*
Y949333D01*
X2059667Y948000D01*
X2054335D01*
X2061000Y955997D02*
X2059667D01*
Y957330D01*
X2061000D01*
Y955997D01*
Y962662D02*
Y965328D01*
Y963995D01*
X2053003D01*
X2054335Y962662D01*
X2055668Y969326D02*
X2059667D01*
X2061000Y970659D01*
Y974658D01*
X2055668D01*
X2053003Y982655D02*
Y977324D01*
X2057001D01*
Y979990D01*
Y977324D01*
X2061000D01*
X1992680Y1002315D02*
X1994013Y1003647D01*
X1996679D01*
X1998012Y1002315D01*
Y996983D01*
X1996679Y995650D01*
X1994013D01*
X1992680Y996983D01*
Y1002315D01*
X2000677Y995650D02*
Y996983D01*
X2002010D01*
Y995650D01*
X2000677D01*
X2007342D02*
X2010008D01*
X2008675D01*
Y1003647D01*
X2007342Y1002315D01*
X2014007Y1000982D02*
Y996983D01*
X2015339Y995650D01*
X2019338D01*
Y1000982D01*
X2027336Y1003647D02*
X2022004D01*
Y999649D01*
X2024670D01*
X2022004D01*
Y995650D01*
X2053685Y1210680D02*
X2052353Y1212013D01*
Y1214679D01*
X2053685Y1216012D01*
X2059017D01*
X2060350Y1214679D01*
Y1212013D01*
X2059017Y1210680D01*
X2053685D01*
X2060350Y1218677D02*
X2059017D01*
Y1220010D01*
X2060350D01*
Y1218677D01*
Y1225342D02*
Y1228008D01*
Y1226675D01*
X2052353D01*
X2053685Y1225342D01*
X2055018Y1232007D02*
X2059017D01*
X2060350Y1233339D01*
Y1237338D01*
X2055018D01*
X2052353Y1245335D02*
Y1240004D01*
X2056351D01*
Y1242670D01*
Y1240004D01*
X2060350D01*
X2146685Y1213680D02*
X2145353Y1215013D01*
Y1217679D01*
X2146685Y1219012D01*
X2152017D01*
X2153350Y1217679D01*
Y1215013D01*
X2152017Y1213680D01*
X2146685D01*
X2153350Y1221677D02*
X2152017D01*
Y1223010D01*
X2153350D01*
Y1221677D01*
Y1228342D02*
Y1231008D01*
Y1229675D01*
X2145353D01*
X2146685Y1228342D01*
X2148018Y1235006D02*
X2152017D01*
X2153350Y1236339D01*
Y1240338D01*
X2148018D01*
X2145353Y1248335D02*
Y1243004D01*
X2149351D01*
Y1245670D01*
Y1243004D01*
X2153350D01*
X1924000Y981000D02*
X1926666D01*
X1925333D01*
Y988997D01*
X1924000Y987664D01*
X1930665Y986332D02*
Y982333D01*
X1931997Y981000D01*
X1935996D01*
Y986332D01*
X1943994Y988997D02*
X1938662D01*
Y984999D01*
X1941328D01*
X1938662D01*
Y981000D01*
X1918000Y1013664D02*
X1919333Y1014997D01*
X1921999D01*
X1923332Y1013664D01*
Y1008333D01*
X1921999Y1007000D01*
X1919333D01*
X1918000Y1008333D01*
Y1013664D01*
X1925997Y1007000D02*
Y1008333D01*
X1927330D01*
Y1007000D01*
X1925997D01*
X1932662D02*
X1935328D01*
X1933995D01*
Y1014997D01*
X1932662Y1013664D01*
X1939326Y1012332D02*
Y1008333D01*
X1940659Y1007000D01*
X1944658D01*
Y1012332D01*
X1952655Y1014997D02*
X1947324D01*
Y1010999D01*
X1949990D01*
X1947324D01*
Y1007000D01*
X2185350Y1219012D02*
Y1213680D01*
X2180018Y1219012D01*
X2178685D01*
X2177353Y1217679D01*
Y1215013D01*
X2178685Y1213680D01*
X2185350Y1221677D02*
X2184017D01*
Y1223010D01*
X2185350D01*
Y1221677D01*
Y1233674D02*
Y1228342D01*
X2180018Y1233674D01*
X2178685D01*
X2177353Y1232341D01*
Y1229675D01*
X2178685Y1228342D01*
X2180018Y1236339D02*
X2184017D01*
X2185350Y1237672D01*
Y1241671D01*
X2180018D01*
X2177353Y1249668D02*
Y1244337D01*
X2181351D01*
Y1247003D01*
Y1244337D01*
X2185350D01*
X2141000Y968332D02*
Y963000D01*
X2135668Y968332D01*
X2134335D01*
X2133003Y966999D01*
Y964333D01*
X2134335Y963000D01*
X2141000Y970997D02*
X2139667D01*
Y972330D01*
X2141000D01*
Y970997D01*
Y982993D02*
Y977662D01*
X2135668Y982993D01*
X2134335D01*
X2133003Y981661D01*
Y978995D01*
X2134335Y977662D01*
X2135668Y985659D02*
X2139667D01*
X2141000Y986992D01*
Y990991D01*
X2135668D01*
X2133003Y998988D02*
Y993657D01*
X2137001D01*
Y996323D01*
Y993657D01*
X2141000D01*
X2010350Y943680D02*
Y946346D01*
Y945013D01*
X2002353D01*
X2003685Y943680D01*
X2005018Y950344D02*
X2009017D01*
X2010350Y951677D01*
Y955676D01*
X2005018D01*
X2002353Y963674D02*
Y958342D01*
X2006351D01*
Y961008D01*
Y958342D01*
X2010350D01*
X2031685Y943680D02*
X2030353Y945013D01*
Y947679D01*
X2031685Y949012D01*
X2037017D01*
X2038350Y947679D01*
Y945013D01*
X2037017Y943680D01*
X2031685D01*
X2038350Y951677D02*
X2037017D01*
Y953010D01*
X2038350D01*
Y951677D01*
Y958342D02*
Y961008D01*
Y959675D01*
X2030353D01*
X2031685Y958342D01*
X2033018Y965006D02*
X2037017D01*
X2038350Y966339D01*
Y970338D01*
X2033018D01*
X2030353Y978335D02*
Y973004D01*
X2034351D01*
Y975670D01*
Y973004D01*
X2038350D01*
X1950000Y1224000D02*
X1947334D01*
X1948667D01*
Y1216003D01*
X1950000Y1217336D01*
X1943336Y1218668D02*
Y1222667D01*
X1942003Y1224000D01*
X1938004D01*
Y1218668D01*
X1930007Y1216003D02*
X1935338D01*
Y1220001D01*
X1932672D01*
X1935338D01*
Y1224000D01*
X1928332Y1190997D02*
X1925666Y1189665D01*
X1923000Y1186999D01*
Y1184333D01*
X1924333Y1183000D01*
X1926999D01*
X1928332Y1184333D01*
Y1185666D01*
X1926999Y1186999D01*
X1923000D01*
X1930997Y1183000D02*
Y1184333D01*
X1932330D01*
Y1183000D01*
X1930997D01*
X1937662Y1189665D02*
X1938995Y1190997D01*
X1941661D01*
X1942993Y1189665D01*
Y1188332D01*
X1941661Y1186999D01*
X1942993Y1185666D01*
Y1184333D01*
X1941661Y1183000D01*
X1938995D01*
X1937662Y1184333D01*
Y1185666D01*
X1938995Y1186999D01*
X1937662Y1188332D01*
Y1189665D01*
X1938995Y1186999D02*
X1941661D01*
X1945659Y1183000D02*
Y1190997D01*
X1949658D01*
X1950991Y1189665D01*
Y1186999D01*
X1949658Y1185666D01*
X1945659D01*
X1958988Y1190997D02*
X1953657D01*
Y1186999D01*
X1956323D01*
X1953657D01*
Y1183000D01*
X1930332Y1104997D02*
X1927666Y1103664D01*
X1925000Y1100999D01*
Y1098333D01*
X1926333Y1097000D01*
X1928999D01*
X1930332Y1098333D01*
Y1099666D01*
X1928999Y1100999D01*
X1925000D01*
X1932997Y1097000D02*
Y1098333D01*
X1934330D01*
Y1097000D01*
X1932997D01*
X1939662Y1103664D02*
X1940995Y1104997D01*
X1943661D01*
X1944993Y1103664D01*
Y1102332D01*
X1943661Y1100999D01*
X1944993Y1099666D01*
Y1098333D01*
X1943661Y1097000D01*
X1940995D01*
X1939662Y1098333D01*
Y1099666D01*
X1940995Y1100999D01*
X1939662Y1102332D01*
Y1103664D01*
X1940995Y1100999D02*
X1943661D01*
X1947659Y1097000D02*
Y1104997D01*
X1951658D01*
X1952991Y1103664D01*
Y1100999D01*
X1951658Y1099666D01*
X1947659D01*
X1960988Y1104997D02*
X1955657D01*
Y1100999D01*
X1958323D01*
X1955657D01*
Y1097000D01*
X2364315Y1078320D02*
X2365647Y1076987D01*
Y1074321D01*
X2364315Y1072988D01*
X2358983D01*
X2357650Y1074321D01*
Y1076987D01*
X2358983Y1078320D01*
X2364315D01*
X2357650Y1070323D02*
X2358983D01*
Y1068990D01*
X2357650D01*
Y1070323D01*
Y1063658D02*
Y1060992D01*
Y1062325D01*
X2365647D01*
X2364315Y1063658D01*
X2362982Y1056993D02*
X2358983D01*
X2357650Y1055661D01*
Y1051662D01*
X2362982D01*
X2365647Y1043664D02*
Y1048996D01*
X2361649D01*
Y1046330D01*
Y1048996D01*
X2357650D01*
X2394315Y1078320D02*
X2395647Y1076987D01*
Y1074321D01*
X2394315Y1072988D01*
X2388983D01*
X2387650Y1074321D01*
Y1076987D01*
X2388983Y1078320D01*
X2394315D01*
X2387650Y1070323D02*
X2388983D01*
Y1068990D01*
X2387650D01*
Y1070323D01*
Y1063658D02*
Y1060992D01*
Y1062325D01*
X2395647D01*
X2394315Y1063658D01*
X2392982Y1056993D02*
X2388983D01*
X2387650Y1055661D01*
Y1051662D01*
X2392982D01*
X2395647Y1043664D02*
Y1048996D01*
X2391649D01*
Y1046330D01*
Y1048996D01*
X2387650D01*
X2445650Y1078320D02*
Y1075654D01*
Y1076987D01*
X2453647D01*
X2452314Y1078320D01*
Y1071656D02*
X2453647Y1070322D01*
Y1067657D01*
X2452314Y1066324D01*
X2446983D01*
X2445650Y1067657D01*
Y1070322D01*
X2446983Y1071656D01*
X2452314D01*
X2450982Y1063658D02*
X2446983D01*
X2445650Y1062325D01*
Y1058326D01*
X2450982D01*
X2453647Y1050329D02*
Y1055661D01*
X2449649D01*
Y1052995D01*
Y1055661D01*
X2445650D01*
X2416650Y1078320D02*
Y1075654D01*
Y1076987D01*
X2424647D01*
X2423315Y1078320D01*
Y1071656D02*
X2424647Y1070322D01*
Y1067657D01*
X2423315Y1066324D01*
X2417983D01*
X2416650Y1067657D01*
Y1070322D01*
X2417983Y1071656D01*
X2423315D01*
X2421982Y1063658D02*
X2417983D01*
X2416650Y1062325D01*
Y1058326D01*
X2421982D01*
X2424647Y1050329D02*
Y1055661D01*
X2420649D01*
Y1052995D01*
Y1055661D01*
X2416650D01*
X1579920Y859640D02*
Y856974D01*
Y858307D01*
X1587917D01*
X1586584Y859640D01*
Y852975D02*
X1587917Y851643D01*
Y848977D01*
X1586584Y847644D01*
X1581253D01*
X1579920Y848977D01*
Y851643D01*
X1581253Y852975D01*
X1586584D01*
Y844978D02*
X1587917Y843645D01*
Y840979D01*
X1586584Y839646D01*
X1581253D01*
X1579920Y840979D01*
Y843645D01*
X1581253Y844978D01*
X1586584D01*
X1587917Y836981D02*
X1581253D01*
X1579920Y835648D01*
Y832982D01*
X1581253Y831649D01*
X1587917D01*
Y823652D02*
Y828983D01*
X1583919D01*
Y826317D01*
Y828983D01*
X1579920D01*
X1587917Y807657D02*
X1586584Y810323D01*
X1583919Y812988D01*
X1581253D01*
X1579920Y811656D01*
Y808990D01*
X1581253Y807657D01*
X1582586D01*
X1583919Y808990D01*
Y812988D01*
X1579920Y804991D02*
X1581253D01*
Y803658D01*
X1579920D01*
Y804991D01*
X1586584Y798326D02*
X1587917Y796993D01*
Y794328D01*
X1586584Y792995D01*
X1585252D01*
X1583919Y794328D01*
Y795661D01*
Y794328D01*
X1582586Y792995D01*
X1581253D01*
X1579920Y794328D01*
Y796993D01*
X1581253Y798326D01*
X1587917Y790329D02*
X1582586D01*
X1579920Y787663D01*
X1582586Y784997D01*
X1587917D01*
X1748822Y662460D02*
X1743490D01*
X1748822Y667792D01*
Y669125D01*
X1747489Y670457D01*
X1744823D01*
X1743490Y669125D01*
X1756819Y662460D02*
X1751487D01*
X1756819Y667792D01*
Y669125D01*
X1755486Y670457D01*
X1752820D01*
X1751487Y669125D01*
X1759485Y667792D02*
Y663793D01*
X1760818Y662460D01*
X1764816D01*
Y667792D01*
X1772814Y670457D02*
X1767482D01*
Y666459D01*
X1770148D01*
X1767482D01*
Y662460D01*
X1631650Y705988D02*
Y711320D01*
X1636982Y705988D01*
X1638315D01*
X1639647Y707321D01*
Y709987D01*
X1638315Y711320D01*
X1631650Y697991D02*
Y703323D01*
X1636982Y697991D01*
X1638315D01*
X1639647Y699324D01*
Y701990D01*
X1638315Y703323D01*
X1631650Y695325D02*
X1636982D01*
Y691327D01*
X1635649Y689994D01*
X1631650D01*
X1639647Y681996D02*
Y687328D01*
X1635649D01*
Y684662D01*
Y687328D01*
X1631650D01*
X1604650Y705988D02*
Y711320D01*
X1609982Y705988D01*
X1611315D01*
X1612647Y707321D01*
Y709987D01*
X1611315Y711320D01*
X1604650Y697991D02*
Y703323D01*
X1609982Y697991D01*
X1611315D01*
X1612647Y699324D01*
Y701990D01*
X1611315Y703323D01*
Y695325D02*
X1612647Y693992D01*
Y691326D01*
X1611315Y689994D01*
X1605983D01*
X1604650Y691326D01*
Y693992D01*
X1605983Y695325D01*
X1611315D01*
X1601984Y687328D02*
X1609982D01*
Y683329D01*
X1608649Y681996D01*
X1605983D01*
X1604650Y683329D01*
Y687328D01*
X1612647Y673999D02*
Y679330D01*
X1608649D01*
Y676665D01*
Y679330D01*
X1604650D01*
X1623000Y929000D02*
Y931666D01*
Y930333D01*
X1615003D01*
X1616335Y929000D01*
Y935665D02*
X1615003Y936997D01*
Y939663D01*
X1616335Y940996D01*
X1621667D01*
X1623000Y939663D01*
Y936997D01*
X1621667Y935665D01*
X1616335D01*
X1617668Y943662D02*
X1621667D01*
X1623000Y944995D01*
Y948994D01*
X1617668D01*
X1615003Y956991D02*
Y951659D01*
X1619001D01*
Y954325D01*
Y951659D01*
X1623000D01*
X1651000Y928000D02*
Y930666D01*
Y929333D01*
X1643003D01*
X1644335Y928000D01*
Y934665D02*
X1643003Y935997D01*
Y938663D01*
X1644335Y939996D01*
X1649667D01*
X1651000Y938663D01*
Y935997D01*
X1649667Y934665D01*
X1644335D01*
X1645668Y942662D02*
X1649667D01*
X1651000Y943995D01*
Y947994D01*
X1645668D01*
X1643003Y955991D02*
Y950659D01*
X1647001D01*
Y953325D01*
Y950659D01*
X1651000D01*
X1773680Y862650D02*
X1776346D01*
X1775013D01*
Y870647D01*
X1773680Y869314D01*
X1780345D02*
X1781677Y870647D01*
X1784343D01*
X1785676Y869314D01*
Y863983D01*
X1784343Y862650D01*
X1781677D01*
X1780345Y863983D01*
Y869314D01*
X1788342Y867982D02*
Y863983D01*
X1789675Y862650D01*
X1793674D01*
Y867982D01*
X1801671Y870647D02*
X1796339D01*
Y866649D01*
X1799005D01*
X1796339D01*
Y862650D01*
X1773680Y898315D02*
X1775013Y899647D01*
X1777679D01*
X1779012Y898315D01*
Y892983D01*
X1777679Y891650D01*
X1775013D01*
X1773680Y892983D01*
Y898315D01*
X1781677Y891650D02*
Y892983D01*
X1783010D01*
Y891650D01*
X1781677D01*
X1788342D02*
X1791008D01*
X1789675D01*
Y899647D01*
X1788342Y898315D01*
X1795007Y896982D02*
Y892983D01*
X1796339Y891650D01*
X1800338D01*
Y896982D01*
X1808336Y899647D02*
X1803004D01*
Y895649D01*
X1805670D01*
X1803004D01*
Y891650D01*
X1773680Y920650D02*
X1776346D01*
X1775013D01*
Y928647D01*
X1773680Y927315D01*
X1780345Y925982D02*
Y921983D01*
X1781677Y920650D01*
X1785676D01*
Y925982D01*
X1793674Y928647D02*
X1788342D01*
Y924649D01*
X1791008D01*
X1788342D01*
Y920650D01*
X2689332Y1272664D02*
X2687999Y1273997D01*
X2685333D01*
X2684000Y1272664D01*
Y1267333D01*
X2685333Y1266000D01*
X2687999D01*
X2689332Y1267333D01*
Y1269999D01*
X2686666D01*
X2691997Y1266000D02*
Y1273997D01*
X2695996D01*
X2697329Y1272664D01*
Y1269999D01*
X2695996Y1268666D01*
X2691997D01*
X2694663D02*
X2697329Y1266000D01*
X2705327Y1273997D02*
X2699995D01*
Y1266000D01*
X2705327D01*
X2699995Y1269999D02*
X2702661D01*
X2713324Y1273997D02*
X2707992D01*
Y1266000D01*
X2713324D01*
X2707992Y1269999D02*
X2710658D01*
X2715990Y1266000D02*
Y1273997D01*
X2721321Y1266000D01*
Y1273997D01*
X2684000Y1307997D02*
Y1306664D01*
X2686666Y1303999D01*
X2689332Y1306664D01*
Y1307997D01*
X2686666Y1303999D02*
Y1300000D01*
X2697329Y1307997D02*
X2691997D01*
Y1300000D01*
X2697329D01*
X2691997Y1303999D02*
X2694663D01*
X2699995Y1307997D02*
Y1300000D01*
X2705327D01*
X2707992Y1307997D02*
Y1300000D01*
X2713324D01*
X2719988Y1307997D02*
X2717323D01*
X2715990Y1306664D01*
Y1301333D01*
X2717323Y1300000D01*
X2719988D01*
X2721321Y1301333D01*
Y1306664D01*
X2719988Y1307997D01*
X2723987D02*
Y1300000D01*
X2726653Y1302666D01*
X2729319Y1300000D01*
Y1307997D01*
X2690000Y1338997D02*
Y1331000D01*
X2693999D01*
X2695332Y1332333D01*
Y1333666D01*
X2693999Y1334999D01*
X2690000D01*
X2693999D01*
X2695332Y1336332D01*
Y1337664D01*
X2693999Y1338997D01*
X2690000D01*
X2697997D02*
Y1331000D01*
X2703329D01*
X2705995Y1338997D02*
Y1332333D01*
X2707328Y1331000D01*
X2709994D01*
X2711327Y1332333D01*
Y1338997D01*
X2719324D02*
X2713992D01*
Y1331000D01*
X2719324D01*
X2713992Y1334999D02*
X2716658D01*
X2691000Y1364000D02*
Y1371997D01*
X2694999D01*
X2696331Y1370665D01*
Y1367999D01*
X2694999Y1366666D01*
X2691000D01*
X2693666D02*
X2696331Y1364000D01*
X2704329Y1371997D02*
X2698997D01*
Y1364000D01*
X2704329D01*
X2698997Y1367999D02*
X2701663D01*
X2706995Y1371997D02*
Y1364000D01*
X2710994D01*
X2712326Y1365333D01*
Y1370665D01*
X2710994Y1371997D01*
X2706995D01*
X1736332Y752664D02*
X1734999Y753997D01*
X1732333D01*
X1731000Y752664D01*
Y751332D01*
X1732333Y749999D01*
X1734999D01*
X1736332Y748666D01*
Y747333D01*
X1734999Y746000D01*
X1732333D01*
X1731000Y747333D01*
X1738997Y753997D02*
X1744329D01*
X1741663D01*
Y746000D01*
X1746995D02*
Y753997D01*
X1750994D01*
X1752326Y752664D01*
Y749999D01*
X1750994Y748666D01*
X1746995D01*
X1760324Y752664D02*
X1758991Y753997D01*
X1756325D01*
X1754992Y752664D01*
Y751332D01*
X1756325Y749999D01*
X1758991D01*
X1760324Y748666D01*
Y747333D01*
X1758991Y746000D01*
X1756325D01*
X1754992Y747333D01*
X1762990Y752664D02*
X1764323Y753997D01*
X1766988D01*
X1768321Y752664D01*
Y751332D01*
X1766988Y749999D01*
X1765656D01*
X1766988D01*
X1768321Y748666D01*
Y747333D01*
X1766988Y746000D01*
X1764323D01*
X1762990Y747333D01*
X1774986Y746000D02*
Y753997D01*
X1770987Y749999D01*
X1776319D01*
X1778985Y752664D02*
X1780317Y753997D01*
X1782983D01*
X1784316Y752664D01*
Y747333D01*
X1782983Y746000D01*
X1780317D01*
X1778985Y747333D01*
Y752664D01*
X1786982Y753997D02*
Y747333D01*
X1788315Y746000D01*
X1790981D01*
X1792314Y747333D01*
Y753997D01*
X1708665Y968668D02*
X1709997Y970001D01*
Y972667D01*
X1708665Y974000D01*
X1703333D01*
X1702000Y972667D01*
Y970001D01*
X1703333Y968668D01*
X1705999D01*
Y971334D01*
X1702000Y966003D02*
X1709997D01*
Y962004D01*
X1708665Y960671D01*
X1705999D01*
X1704666Y962004D01*
Y966003D01*
Y963337D02*
X1702000Y960671D01*
X1709997Y952673D02*
Y958005D01*
X1702000D01*
Y952673D01*
X1705999Y958005D02*
Y955339D01*
X1709997Y944676D02*
Y950008D01*
X1702000D01*
Y944676D01*
X1705999Y950008D02*
Y947342D01*
X1702000Y942010D02*
X1709997D01*
X1702000Y936679D01*
X1709997D01*
X1962003Y870000D02*
X1970000D01*
Y873999D01*
X1968667Y875332D01*
X1967334D01*
X1966001Y873999D01*
Y870000D01*
Y873999D01*
X1964668Y875332D01*
X1963336D01*
X1962003Y873999D01*
Y870000D01*
Y877997D02*
X1970000D01*
Y883329D01*
Y885995D02*
X1962003D01*
X1964668Y888661D01*
X1962003Y891326D01*
X1970000D01*
Y899324D02*
Y893992D01*
X1964668Y899324D01*
X1963336D01*
X1962003Y897991D01*
Y895325D01*
X1963336Y893992D01*
X1970000Y901990D02*
Y904656D01*
Y903323D01*
X1962003D01*
X1963336Y901990D01*
X1970000Y908654D02*
X1962003D01*
Y912653D01*
X1963336Y913986D01*
X1966001D01*
X1967334Y912653D01*
Y908654D01*
Y911320D02*
X1970000Y913986D01*
X1962003Y916652D02*
X1970000D01*
X1967334D01*
X1962003Y921983D01*
X1966001Y917984D01*
X1970000Y921983D01*
Y924649D02*
Y927315D01*
Y925982D01*
X1962003D01*
X1963336Y924649D01*
Y931314D02*
X1962003Y932646D01*
Y935312D01*
X1963336Y936645D01*
X1968667D01*
X1970000Y935312D01*
Y932646D01*
X1968667Y931314D01*
X1963336D01*
X1970000Y944643D02*
Y939311D01*
X1964668Y944643D01*
X1963336D01*
X1962003Y943310D01*
Y940644D01*
X1963336Y939311D01*
Y952640D02*
X1962003Y951307D01*
Y948641D01*
X1963336Y947308D01*
X1964668D01*
X1966001Y948641D01*
Y951307D01*
X1967334Y952640D01*
X1968667D01*
X1970000Y951307D01*
Y948641D01*
X1968667Y947308D01*
X1970000Y955306D02*
X1962003D01*
X1970000Y960637D01*
X1962003D01*
X1970000Y963303D02*
Y965969D01*
Y964636D01*
X1962003D01*
X1963336Y963303D01*
X1962003Y969968D02*
X1970000D01*
Y973967D01*
X1968667Y975299D01*
X1963336D01*
X1962003Y973967D01*
Y969968D01*
X1637332Y845665D02*
X1635999Y846997D01*
X1633333D01*
X1632000Y845665D01*
Y840333D01*
X1633333Y839000D01*
X1635999D01*
X1637332Y840333D01*
X1639997Y846997D02*
Y839000D01*
X1643996D01*
X1645329Y840333D01*
Y845665D01*
X1643996Y846997D01*
X1639997D01*
X1647995Y839000D02*
Y846997D01*
X1651994D01*
X1653326Y845665D01*
Y842999D01*
X1651994Y841666D01*
X1647995D01*
X1650661D02*
X1653326Y839000D01*
X1655992Y846997D02*
Y839000D01*
Y842999D01*
X1661324D01*
Y846997D01*
Y839000D01*
X1663990D02*
X1666655D01*
X1665323D01*
Y846997D01*
X1663990Y845665D01*
X1675986Y839000D02*
X1670654D01*
X1675986Y844332D01*
Y845665D01*
X1674653Y846997D01*
X1671987D01*
X1670654Y845665D01*
X1683983Y846997D02*
X1678652D01*
Y842999D01*
X1681317Y844332D01*
X1682650D01*
X1683983Y842999D01*
Y840333D01*
X1682650Y839000D01*
X1679984D01*
X1678652Y840333D01*
X1686649Y839000D02*
Y846997D01*
X1691981Y839000D01*
Y846997D01*
X1694646Y839000D02*
Y846997D01*
X1698645D01*
X1699978Y845665D01*
Y842999D01*
X1698645Y841666D01*
X1694646D01*
X1702644Y842999D02*
X1707975D01*
X1710641Y839000D02*
X1713307D01*
X1711974D01*
Y846997D01*
X1710641Y845665D01*
X1722637Y846997D02*
X1717306D01*
Y842999D01*
X1719972Y844332D01*
X1721304D01*
X1722637Y842999D01*
Y840333D01*
X1721304Y839000D01*
X1718639D01*
X1717306Y840333D01*
X1725303Y845665D02*
X1726636Y846997D01*
X1729302D01*
X1730635Y845665D01*
Y840333D01*
X1729302Y839000D01*
X1726636D01*
X1725303Y840333D01*
Y845665D01*
X1733301Y839000D02*
Y846997D01*
X1735966Y844332D01*
X1738632Y846997D01*
Y839000D01*
X1746630Y845665D02*
X1745297Y846997D01*
X1742631D01*
X1741298Y845665D01*
Y840333D01*
X1742631Y839000D01*
X1745297D01*
X1746630Y840333D01*
X2098332Y766997D02*
X2093000D01*
Y762999D01*
X2095666Y764332D01*
X2096999D01*
X2098332Y762999D01*
Y760333D01*
X2096999Y759000D01*
X2094333D01*
X2093000Y760333D01*
X2100997Y759000D02*
X2103663D01*
X2102330D01*
Y766997D01*
X2100997Y765665D01*
X2107662D02*
X2108995Y766997D01*
X2111661D01*
X2112994Y765665D01*
Y760333D01*
X2111661Y759000D01*
X2108995D01*
X2107662Y760333D01*
Y765665D01*
X2115659Y759000D02*
Y766997D01*
X2119658D01*
X2120991Y765665D01*
Y762999D01*
X2119658Y761666D01*
X2115659D01*
X2118325D02*
X2120991Y759000D01*
X2452000Y1183000D02*
Y1185666D01*
Y1184333D01*
X2444003D01*
X2445336Y1183000D01*
X2444003Y1189665D02*
X2452000D01*
X2449334D01*
X2444003Y1194996D01*
X2448001Y1190997D01*
X2452000Y1194996D01*
X1938000Y1068335D02*
X1936667Y1067003D01*
X1934001D01*
X1932668Y1068335D01*
Y1073667D01*
X1934001Y1075000D01*
X1936667D01*
X1938000Y1073667D01*
Y1068335D01*
X1928000Y1048664D02*
X1929333Y1049997D01*
X1931999D01*
X1933332Y1048664D01*
Y1047332D01*
X1931999Y1045999D01*
X1930666D01*
X1931999D01*
X1933332Y1044666D01*
Y1043333D01*
X1931999Y1042000D01*
X1929333D01*
X1928000Y1043333D01*
X1935997Y1048664D02*
X1937330Y1049997D01*
X1939996D01*
X1941329Y1048664D01*
Y1047332D01*
X1939996Y1045999D01*
X1938663D01*
X1939996D01*
X1941329Y1044666D01*
Y1043333D01*
X1939996Y1042000D01*
X1937330D01*
X1935997Y1043333D01*
X1943995Y1042000D02*
Y1049997D01*
X1947994D01*
X1949326Y1048664D01*
Y1045999D01*
X1947994Y1044666D01*
X1943995D01*
X1946661D02*
X1949326Y1042000D01*
X2002000Y1219999D02*
X1994003D01*
X1998001Y1216000D01*
Y1221332D01*
X2002000Y1223997D02*
X2000667D01*
Y1225330D01*
X2002000D01*
Y1223997D01*
X1994003Y1230662D02*
Y1235993D01*
X1995336D01*
X2000667Y1230662D01*
X2002000D01*
X1994003Y1238659D02*
X2002000D01*
X1999334D01*
X1994003Y1243991D01*
X1998001Y1239992D01*
X2002000Y1243991D01*
X2444000Y1282000D02*
X2446666D01*
X2445333D01*
Y1289997D01*
X2444000Y1288665D01*
X2450665Y1289997D02*
Y1282000D01*
Y1284666D01*
X2455996Y1289997D01*
X2451997Y1285999D01*
X2455996Y1282000D01*
X2166000Y796000D02*
X2168666D01*
X2167333D01*
Y803997D01*
X2166000Y802664D01*
X2172664D02*
X2173997Y803997D01*
X2176663D01*
X2177996Y802664D01*
Y797333D01*
X2176663Y796000D01*
X2173997D01*
X2172664Y797333D01*
Y802664D01*
X2180662Y803997D02*
Y796000D01*
Y798666D01*
X2185993Y803997D01*
X2181995Y799999D01*
X2185993Y796000D01*
X2445000Y1373000D02*
X2447666D01*
X2446333D01*
Y1380997D01*
X2445000Y1379664D01*
X2451664Y1380997D02*
Y1373000D01*
Y1375666D01*
X2456996Y1380997D01*
X2452997Y1376999D01*
X2456996Y1373000D01*
X2632680Y1268920D02*
X2635346D01*
X2634013D01*
Y1276917D01*
X2632680Y1275584D01*
X2639344Y1276917D02*
Y1268920D01*
Y1271586D01*
X2644676Y1276917D01*
X2640677Y1272919D01*
X2644676Y1268920D01*
X2632680Y1301920D02*
X2635346D01*
X2634013D01*
Y1309917D01*
X2632680Y1308584D01*
X2639344Y1309917D02*
Y1301920D01*
Y1304586D01*
X2644676Y1309917D01*
X2640677Y1305919D01*
X2644676Y1301920D01*
X2633680Y1333920D02*
X2636346D01*
X2635013D01*
Y1341917D01*
X2633680Y1340585D01*
X2640345Y1341917D02*
Y1333920D01*
Y1336586D01*
X2645676Y1341917D01*
X2641678Y1337919D01*
X2645676Y1333920D01*
X1974080Y1005680D02*
Y1008346D01*
Y1007013D01*
X1966083D01*
X1967415Y1005680D01*
Y1012345D02*
X1966083Y1013677D01*
Y1016343D01*
X1967415Y1017676D01*
X1972747D01*
X1974080Y1016343D01*
Y1013677D01*
X1972747Y1012345D01*
X1967415D01*
X1974080Y1020342D02*
X1966083D01*
Y1024341D01*
X1967415Y1025674D01*
X1970081D01*
X1971414Y1024341D01*
Y1020342D01*
Y1023008D02*
X1974080Y1025674D01*
X2634680Y1365920D02*
X2637346D01*
X2636013D01*
Y1373917D01*
X2634680Y1372585D01*
X2641345Y1373917D02*
Y1365920D01*
Y1368586D01*
X2646676Y1373917D01*
X2642677Y1369919D01*
X2646676Y1365920D01*
X2099003Y964332D02*
Y959000D01*
X2103001D01*
X2101668Y961666D01*
Y962999D01*
X2103001Y964332D01*
X2105667D01*
X2107000Y962999D01*
Y960333D01*
X2105667Y959000D01*
X2107000Y966997D02*
Y969663D01*
Y968330D01*
X2099003D01*
X2100336Y966997D01*
Y973662D02*
X2099003Y974995D01*
Y977661D01*
X2100336Y978994D01*
X2105667D01*
X2107000Y977661D01*
Y974995D01*
X2105667Y973662D01*
X2100336D01*
X2107000Y981659D02*
X2099003D01*
Y985658D01*
X2100336Y986991D01*
X2103001D01*
X2104334Y985658D01*
Y981659D01*
Y984325D02*
X2107000Y986991D01*
X1669000Y938000D02*
X1671666D01*
X1670333D01*
Y945997D01*
X1669000Y944665D01*
X1675665Y945997D02*
Y938000D01*
Y940666D01*
X1680996Y945997D01*
X1676997Y941999D01*
X1680996Y938000D01*
X1616000Y734000D02*
Y736666D01*
Y735333D01*
X1608003D01*
X1609335Y734000D01*
Y740665D02*
X1608003Y741997D01*
Y744663D01*
X1609335Y745996D01*
X1610668D01*
X1612001Y744663D01*
X1613334Y745996D01*
X1614667D01*
X1616000Y744663D01*
Y741997D01*
X1614667Y740665D01*
X1613334D01*
X1612001Y741997D01*
X1610668Y740665D01*
X1609335D01*
X1612001Y741997D02*
Y744663D01*
X1608003Y748662D02*
X1616000D01*
X1613334D01*
X1608003Y753994D01*
X1612001Y749995D01*
X1616000Y753994D01*
X1640000Y729999D02*
X1632003D01*
X1636001Y726000D01*
Y731332D01*
X1632003Y733997D02*
Y739329D01*
X1633336D01*
X1638667Y733997D01*
X1640000D01*
X1632003Y741995D02*
X1640000D01*
X1637334D01*
X1632003Y747326D01*
X1636001Y743328D01*
X1640000Y747326D01*
X1660679Y670920D02*
Y678917D01*
X1656680Y674919D01*
X1662012D01*
X1664677Y670920D02*
Y672253D01*
X1666010D01*
Y670920D01*
X1664677D01*
X1671342Y678917D02*
X1676674D01*
Y677585D01*
X1671342Y672253D01*
Y670920D01*
X1679339Y678917D02*
Y670920D01*
Y673586D01*
X1684671Y678917D01*
X1680672Y674919D01*
X1684671Y670920D01*
X2050332Y1122664D02*
X2048999Y1123997D01*
X2046333D01*
X2045000Y1122664D01*
Y1121332D01*
X2046333Y1119999D01*
X2048999D01*
X2050332Y1118666D01*
Y1117333D01*
X2048999Y1116000D01*
X2046333D01*
X2045000Y1117333D01*
X2052997Y1123997D02*
X2058329D01*
X2055663D01*
Y1116000D01*
X2060995D02*
Y1123997D01*
X2063661Y1121332D01*
X2066326Y1123997D01*
Y1116000D01*
X2068992Y1122664D02*
X2070325Y1123997D01*
X2072991D01*
X2074324Y1122664D01*
Y1121332D01*
X2072991Y1119999D01*
X2071658D01*
X2072991D01*
X2074324Y1118666D01*
Y1117333D01*
X2072991Y1116000D01*
X2070325D01*
X2068992Y1117333D01*
X2082321Y1116000D02*
X2076990D01*
X2082321Y1121332D01*
Y1122664D01*
X2080988Y1123997D01*
X2078323D01*
X2076990Y1122664D01*
X2090319Y1123997D02*
X2084987D01*
Y1119999D01*
X2087653D01*
X2084987D01*
Y1116000D01*
X2096983D02*
Y1123997D01*
X2092984Y1119999D01*
X2098316D01*
X2100982Y1122664D02*
X2102315Y1123997D01*
X2104981D01*
X2106313Y1122664D01*
Y1117333D01*
X2104981Y1116000D01*
X2102315D01*
X2100982Y1117333D01*
Y1122664D01*
X2108979Y1123997D02*
X2114311D01*
Y1122664D01*
X2108979Y1117333D01*
Y1116000D01*
X2116977Y1123997D02*
Y1118666D01*
X2119642Y1116000D01*
X2122308Y1118666D01*
Y1123997D01*
X2130306Y1122664D02*
X2128973Y1123997D01*
X2126307D01*
X2124974Y1122664D01*
Y1117333D01*
X2126307Y1116000D01*
X2128973D01*
X2130306Y1117333D01*
Y1119999D01*
X2127640D01*
X2132972Y1123997D02*
X2138303D01*
X2135637D01*
Y1116000D01*
X2146301Y1123997D02*
X2143635Y1122664D01*
X2140969Y1119999D01*
Y1117333D01*
X2142302Y1116000D01*
X2144968D01*
X2146301Y1117333D01*
Y1118666D01*
X2144968Y1119999D01*
X2140969D01*
X2438332Y859665D02*
X2436999Y860997D01*
X2434333D01*
X2433000Y859665D01*
Y858332D01*
X2434333Y856999D01*
X2436999D01*
X2438332Y855666D01*
Y854333D01*
X2436999Y853000D01*
X2434333D01*
X2433000Y854333D01*
X2440997Y860997D02*
Y853000D01*
X2446329D01*
X2448995Y859665D02*
X2450328Y860997D01*
X2452993D01*
X2454326Y859665D01*
Y858332D01*
X2452993Y856999D01*
X2454326Y855666D01*
Y854333D01*
X2452993Y853000D01*
X2450328D01*
X2448995Y854333D01*
Y855666D01*
X2450328Y856999D01*
X2448995Y858332D01*
Y859665D01*
X2450328Y856999D02*
X2452993D01*
X2462324Y860997D02*
X2459658Y859665D01*
X2456992Y856999D01*
Y854333D01*
X2458325Y853000D01*
X2460991D01*
X2462324Y854333D01*
Y855666D01*
X2460991Y856999D01*
X2456992D01*
X2464990Y854333D02*
X2466323Y853000D01*
X2468988D01*
X2470321Y854333D01*
Y859665D01*
X2468988Y860997D01*
X2466323D01*
X2464990Y859665D01*
Y858332D01*
X2466323Y856999D01*
X2470321D01*
X2472987Y860997D02*
Y855666D01*
X2475653Y853000D01*
X2478319Y855666D01*
Y860997D01*
X2486316Y853000D02*
X2480984D01*
X2486316Y858332D01*
Y859665D01*
X2484983Y860997D01*
X2482317D01*
X2480984Y859665D01*
X2304668Y1042336D02*
X2306001Y1041003D01*
X2308667D01*
X2310000Y1042336D01*
Y1043668D01*
X2308667Y1045001D01*
X2306001D01*
X2304668Y1046334D01*
Y1047667D01*
X2306001Y1049000D01*
X2308667D01*
X2310000Y1047667D01*
X2302003Y1041003D02*
X2296671D01*
X2299337D01*
Y1049000D01*
X2288674Y1041003D02*
X2294005D01*
Y1049000D01*
X2288674D01*
X2294005Y1045001D02*
X2291339D01*
X2286008Y1041003D02*
Y1046334D01*
X2283342Y1049000D01*
X2280676Y1046334D01*
Y1041003D01*
X2278010Y1049000D02*
Y1043668D01*
X2275345Y1041003D01*
X2272679Y1043668D01*
Y1049000D01*
Y1045001D01*
X2278010D01*
X2270013Y1041003D02*
Y1049000D01*
X2264681D01*
X2262016Y1045001D02*
X2256684D01*
X2254018Y1049000D02*
Y1041003D01*
X2251352Y1043668D01*
X2248687Y1041003D01*
Y1049000D01*
X2246021Y1041003D02*
Y1049000D01*
Y1046334D01*
X2240689Y1041003D01*
X2244688Y1045001D01*
X2240689Y1049000D01*
X2238023Y1041003D02*
X2235357D01*
X2236690D01*
Y1049000D01*
X2238023D01*
X2235357D01*
X2231359D02*
X2228693D01*
X2230026D01*
Y1041003D01*
X2231359Y1042336D01*
X2219363Y1049000D02*
X2224694D01*
X2219363Y1043668D01*
Y1042336D01*
X2220695Y1041003D01*
X2223361D01*
X2224694Y1042336D01*
X2216697Y1047667D02*
X2215364Y1049000D01*
X2212698D01*
X2211365Y1047667D01*
Y1042336D01*
X2212698Y1041003D01*
X2215364D01*
X2216697Y1042336D01*
Y1043668D01*
X2215364Y1045001D01*
X2211365D01*
X2208699Y1041003D02*
Y1046334D01*
X2206033Y1049000D01*
X2203368Y1046334D01*
Y1041003D01*
X2200702Y1049000D02*
X2198036D01*
X2199369D01*
Y1041003D01*
X2200702Y1042336D01*
X2246335Y984332D02*
X2245003Y982999D01*
Y980333D01*
X2246335Y979000D01*
X2251667D01*
X2253000Y980333D01*
Y982999D01*
X2251667Y984332D01*
X2245003Y986997D02*
X2253000D01*
Y992329D01*
X2245003Y994995D02*
X2253000D01*
X2250334D01*
X2245003Y1000326D01*
X2249001Y996328D01*
X2253000Y1000326D01*
X2273336Y983332D02*
X2272003Y981999D01*
Y979333D01*
X2273336Y978000D01*
X2278667D01*
X2280000Y979333D01*
Y981999D01*
X2278667Y983332D01*
X2276001D01*
Y980666D01*
X2280000Y985997D02*
X2272003D01*
X2280000Y991329D01*
X2272003D01*
Y993995D02*
X2280000D01*
Y997993D01*
X2278667Y999326D01*
X2273336D01*
X2272003Y997993D01*
Y993995D01*
X2298003Y970000D02*
X2306000D01*
Y973999D01*
X2304667Y975332D01*
X2299335D01*
X2298003Y973999D01*
Y970000D01*
X2306000Y977997D02*
X2300668D01*
X2298003Y980663D01*
X2300668Y983329D01*
X2306000D01*
X2302001D01*
Y977997D01*
X2298003Y985995D02*
Y991326D01*
Y988661D01*
X2306000D01*
Y993992D02*
X2300668D01*
X2298003Y996658D01*
X2300668Y999324D01*
X2306000D01*
X2302001D01*
Y993992D01*
X2301335Y1097000D02*
X2300003Y1098333D01*
Y1100999D01*
X2301335Y1102332D01*
X2302668D01*
X2304001Y1100999D01*
Y1099666D01*
Y1100999D01*
X2305334Y1102332D01*
X2306667D01*
X2308000Y1100999D01*
Y1098333D01*
X2306667Y1097000D01*
X2300003Y1104997D02*
X2305334D01*
X2308000Y1107663D01*
X2305334Y1110329D01*
X2300003D01*
X2301335Y1112995D02*
X2300003Y1114328D01*
Y1116993D01*
X2301335Y1118326D01*
X2302668D01*
X2304001Y1116993D01*
Y1115661D01*
Y1116993D01*
X2305334Y1118326D01*
X2306667D01*
X2308000Y1116993D01*
Y1114328D01*
X2306667Y1112995D01*
X2273336Y1101332D02*
X2272003Y1099999D01*
Y1097333D01*
X2273336Y1096000D01*
X2278667D01*
X2280000Y1097333D01*
Y1099999D01*
X2278667Y1101332D01*
X2276001D01*
Y1098666D01*
X2280000Y1103997D02*
X2272003D01*
X2280000Y1109329D01*
X2272003D01*
Y1111995D02*
X2280000D01*
Y1115994D01*
X2278667Y1117326D01*
X2273336D01*
X2272003Y1115994D01*
Y1111995D01*
X2251000Y1046000D02*
Y1053997D01*
X2253666Y1051332D01*
X2256332Y1053997D01*
Y1046000D01*
X2258997D02*
Y1053997D01*
X2262996D01*
X2264329Y1052664D01*
Y1049999D01*
X2262996Y1048666D01*
X2258997D01*
X2270994Y1046000D02*
Y1053997D01*
X2266995Y1049999D01*
X2272326D01*
X2280324Y1053997D02*
X2274992D01*
Y1049999D01*
X2277658Y1051332D01*
X2278991D01*
X2280324Y1049999D01*
Y1047333D01*
X2278991Y1046000D01*
X2276325D01*
X2274992Y1047333D01*
X2282990Y1053997D02*
Y1046000D01*
X2286988D01*
X2288321Y1047333D01*
Y1052664D01*
X2286988Y1053997D01*
X2282990D01*
X2290987D02*
X2296319D01*
X2293653D01*
Y1046000D01*
X2298985Y1052664D02*
X2300317Y1053997D01*
X2302983D01*
X2304316Y1052664D01*
Y1047333D01*
X2302983Y1046000D01*
X2300317D01*
X2298985Y1047333D01*
Y1052664D01*
X2312314Y1046000D02*
X2306982D01*
X2312314Y1051332D01*
Y1052664D01*
X2310981Y1053997D01*
X2308315D01*
X2306982Y1052664D01*
X2289000Y1066000D02*
Y1063334D01*
Y1064667D01*
X2296997D01*
X2295665Y1066000D01*
X1657000Y737997D02*
Y730000D01*
X1662332D01*
X1670329Y737997D02*
X1664997D01*
Y733999D01*
X1667663Y735332D01*
X1668996D01*
X1670329Y733999D01*
Y731333D01*
X1668996Y730000D01*
X1666330D01*
X1664997Y731333D01*
X1672995D02*
X1674328Y730000D01*
X1676994D01*
X1678326Y731333D01*
Y736665D01*
X1676994Y737997D01*
X1674328D01*
X1672995Y736665D01*
Y735332D01*
X1674328Y733999D01*
X1678326D01*
X1680992Y737997D02*
X1686324D01*
Y736665D01*
X1680992Y731333D01*
Y730000D01*
X1688990Y736665D02*
X1690323Y737997D01*
X1692988D01*
X1694321Y736665D01*
Y735332D01*
X1692988Y733999D01*
X1691655D01*
X1692988D01*
X1694321Y732666D01*
Y731333D01*
X1692988Y730000D01*
X1690323D01*
X1688990Y731333D01*
X1696987Y737997D02*
Y730000D01*
X1700986D01*
X1702319Y731333D01*
Y736665D01*
X1700986Y737997D01*
X1696987D01*
X1704984Y736665D02*
X1706317Y737997D01*
X1708983D01*
X1710316Y736665D01*
Y731333D01*
X1708983Y730000D01*
X1706317D01*
X1704984Y731333D01*
Y736665D01*
X1712982Y730000D02*
X1715648D01*
X1714315D01*
Y737997D01*
X1712982Y736665D01*
X1719646D02*
X1720979Y737997D01*
X1723645D01*
X1724978Y736665D01*
Y735332D01*
X1723645Y733999D01*
X1722312D01*
X1723645D01*
X1724978Y732666D01*
Y731333D01*
X1723645Y730000D01*
X1720979D01*
X1719646Y731333D01*
X1727644Y737997D02*
X1732975D01*
X1730310D01*
Y730000D01*
X1735641D02*
Y737997D01*
X1739640D01*
X1740973Y736665D01*
Y733999D01*
X1739640Y732666D01*
X1735641D01*
X1738307D02*
X1740973Y730000D01*
X1716000Y953997D02*
X1721332D01*
X1718666D01*
Y946000D01*
X1723997Y953997D02*
Y946000D01*
X1729329D01*
X1731995Y953997D02*
Y948666D01*
X1734661Y946000D01*
X1737326Y948666D01*
Y953997D01*
X1739992D02*
X1745324D01*
Y952664D01*
X1739992Y947333D01*
Y946000D01*
X1747990Y952664D02*
X1749323Y953997D01*
X1751988D01*
X1753321Y952664D01*
Y947333D01*
X1751988Y946000D01*
X1749323D01*
X1747990Y947333D01*
Y952664D01*
X1761319Y946000D02*
X1755987D01*
X1761319Y951332D01*
Y952664D01*
X1759986Y953997D01*
X1757320D01*
X1755987Y952664D01*
X1763985D02*
X1765317Y953997D01*
X1767983D01*
X1769316Y952664D01*
Y951332D01*
X1767983Y949999D01*
X1766650D01*
X1767983D01*
X1769316Y948666D01*
Y947333D01*
X1767983Y946000D01*
X1765317D01*
X1763985Y947333D01*
X1771982Y952664D02*
X1773315Y953997D01*
X1775981D01*
X1777314Y952664D01*
Y951332D01*
X1775981Y949999D01*
X1774648D01*
X1775981D01*
X1777314Y948666D01*
Y947333D01*
X1775981Y946000D01*
X1773315D01*
X1771982Y947333D01*
X1779979Y953997D02*
Y946000D01*
X1783978D01*
X1785311Y947333D01*
Y952664D01*
X1783978Y953997D01*
X1779979D01*
X1787977D02*
Y946000D01*
X1791976D01*
X1793308Y947333D01*
Y948666D01*
X1791976Y949999D01*
X1787977D01*
X1791976D01*
X1793308Y951332D01*
Y952664D01*
X1791976Y953997D01*
X1787977D01*
X1795974D02*
Y948666D01*
X1798640Y946000D01*
X1801306Y948666D01*
Y953997D01*
X1803972D02*
X1809303D01*
X1806637D01*
Y946000D01*
X1563332Y1023664D02*
X1561999Y1024997D01*
X1559333D01*
X1558000Y1023664D01*
Y1018333D01*
X1559333Y1017000D01*
X1561999D01*
X1563332Y1018333D01*
X1565997Y1024997D02*
Y1023664D01*
X1568663Y1020999D01*
X1571329Y1023664D01*
Y1024997D01*
X1568663Y1020999D02*
Y1017000D01*
X1573995Y1024997D02*
X1579326D01*
Y1023664D01*
X1573995Y1018333D01*
Y1017000D01*
X1587324Y1023664D02*
X1585991Y1024997D01*
X1583325D01*
X1581992Y1023664D01*
Y1018333D01*
X1583325Y1017000D01*
X1585991D01*
X1587324Y1018333D01*
X1595321Y1024997D02*
X1592655Y1023664D01*
X1589990Y1020999D01*
Y1018333D01*
X1591323Y1017000D01*
X1593988D01*
X1595321Y1018333D01*
Y1019666D01*
X1593988Y1020999D01*
X1589990D01*
X1603319Y1024997D02*
X1597987D01*
Y1020999D01*
X1600653Y1022332D01*
X1601986D01*
X1603319Y1020999D01*
Y1018333D01*
X1601986Y1017000D01*
X1599320D01*
X1597987Y1018333D01*
X1611316Y1017000D02*
X1605984D01*
X1611316Y1022332D01*
Y1023664D01*
X1609983Y1024997D01*
X1607317D01*
X1605984Y1023664D01*
X1613982Y1017000D02*
X1616648D01*
X1615315D01*
Y1024997D01*
X1613982Y1023664D01*
X1620647D02*
X1621979Y1024997D01*
X1624645D01*
X1625978Y1023664D01*
Y1022332D01*
X1624645Y1020999D01*
X1623312D01*
X1624645D01*
X1625978Y1019666D01*
Y1018333D01*
X1624645Y1017000D01*
X1621979D01*
X1620647Y1018333D01*
X2063000Y692000D02*
Y699997D01*
X2066999D01*
X2068332Y698664D01*
Y695999D01*
X2066999Y694666D01*
X2063000D01*
X2070997Y699997D02*
Y693333D01*
X2072330Y692000D01*
X2074996D01*
X2076329Y693333D01*
Y699997D01*
X2084326Y698664D02*
X2082993Y699997D01*
X2080328D01*
X2078995Y698664D01*
Y697332D01*
X2080328Y695999D01*
X2082993D01*
X2084326Y694666D01*
Y693333D01*
X2082993Y692000D01*
X2080328D01*
X2078995Y693333D01*
X2086992Y699997D02*
Y692000D01*
Y695999D01*
X2092324D01*
Y699997D01*
Y692000D01*
X2102987Y699997D02*
Y692000D01*
X2106986D01*
X2108319Y693333D01*
Y694666D01*
X2106986Y695999D01*
X2102987D01*
X2106986D01*
X2108319Y697332D01*
Y698664D01*
X2106986Y699997D01*
X2102987D01*
X2110984D02*
X2116316D01*
X2113650D01*
Y692000D01*
X2118982D02*
Y699997D01*
X2124314Y692000D01*
Y699997D01*
X2185000Y691000D02*
Y698997D01*
X2188999D01*
X2190332Y697664D01*
Y694999D01*
X2188999Y693666D01*
X2185000D01*
X2192997Y698997D02*
Y692333D01*
X2194330Y691000D01*
X2196996D01*
X2198329Y692333D01*
Y698997D01*
X2206326Y697664D02*
X2204994Y698997D01*
X2202328D01*
X2200995Y697664D01*
Y696332D01*
X2202328Y694999D01*
X2204994D01*
X2206326Y693666D01*
Y692333D01*
X2204994Y691000D01*
X2202328D01*
X2200995Y692333D01*
X2208992Y698997D02*
Y691000D01*
Y694999D01*
X2214324D01*
Y698997D01*
Y691000D01*
X2224987Y698997D02*
Y691000D01*
X2228986D01*
X2230319Y692333D01*
Y693666D01*
X2228986Y694999D01*
X2224987D01*
X2228986D01*
X2230319Y696332D01*
Y697664D01*
X2228986Y698997D01*
X2224987D01*
X2232984D02*
X2238316D01*
X2235650D01*
Y691000D01*
X2240982D02*
Y698997D01*
X2246313Y691000D01*
Y698997D01*
X2547170Y1162820D02*
X2539173D01*
Y1166818D01*
X2540506Y1168151D01*
X2543171D01*
X2544504Y1166818D01*
Y1162820D01*
X2539173Y1170817D02*
X2545837D01*
X2547170Y1172150D01*
Y1174816D01*
X2545837Y1176149D01*
X2539173D01*
X2540506Y1184146D02*
X2539173Y1182813D01*
Y1180148D01*
X2540506Y1178815D01*
X2541838D01*
X2543171Y1180148D01*
Y1182813D01*
X2544504Y1184146D01*
X2545837D01*
X2547170Y1182813D01*
Y1180148D01*
X2545837Y1178815D01*
X2539173Y1186812D02*
X2547170D01*
X2543171D01*
Y1192144D01*
X2539173D01*
X2547170D01*
X2539173Y1202807D02*
X2547170D01*
Y1206806D01*
X2545837Y1208139D01*
X2544504D01*
X2543171Y1206806D01*
Y1202807D01*
Y1206806D01*
X2541838Y1208139D01*
X2540506D01*
X2539173Y1206806D01*
Y1202807D01*
Y1210804D02*
Y1216136D01*
Y1213470D01*
X2547170D01*
Y1218802D02*
X2539173D01*
X2547170Y1224133D01*
X2539173D01*
X2548170Y1256070D02*
X2540173D01*
Y1260069D01*
X2541505Y1261402D01*
X2544171D01*
X2545504Y1260069D01*
Y1256070D01*
X2540173Y1264067D02*
X2546837D01*
X2548170Y1265400D01*
Y1268066D01*
X2546837Y1269399D01*
X2540173D01*
X2541505Y1277396D02*
X2540173Y1276064D01*
Y1273398D01*
X2541505Y1272065D01*
X2542838D01*
X2544171Y1273398D01*
Y1276064D01*
X2545504Y1277396D01*
X2546837D01*
X2548170Y1276064D01*
Y1273398D01*
X2546837Y1272065D01*
X2540173Y1280062D02*
X2548170D01*
X2544171D01*
Y1285394D01*
X2540173D01*
X2548170D01*
X2540173Y1296057D02*
X2548170D01*
Y1300056D01*
X2546837Y1301389D01*
X2545504D01*
X2544171Y1300056D01*
Y1296057D01*
Y1300056D01*
X2542838Y1301389D01*
X2541505D01*
X2540173Y1300056D01*
Y1296057D01*
Y1304055D02*
Y1309386D01*
Y1306720D01*
X2548170D01*
Y1312052D02*
X2540173D01*
X2548170Y1317384D01*
X2540173D01*
X2548000Y1349000D02*
X2540002D01*
Y1352999D01*
X2541335Y1354332D01*
X2544001D01*
X2545334Y1352999D01*
Y1349000D01*
X2540002Y1356997D02*
X2546667D01*
X2548000Y1358330D01*
Y1360996D01*
X2546667Y1362329D01*
X2540002D01*
X2541335Y1370327D02*
X2540002Y1368994D01*
Y1366328D01*
X2541335Y1364995D01*
X2542668D01*
X2544001Y1366328D01*
Y1368994D01*
X2545334Y1370327D01*
X2546667D01*
X2548000Y1368994D01*
Y1366328D01*
X2546667Y1364995D01*
X2540002Y1372992D02*
X2548000D01*
X2544001D01*
Y1378324D01*
X2540002D01*
X2548000D01*
X2540002Y1388987D02*
X2548000D01*
Y1392986D01*
X2546667Y1394319D01*
X2545334D01*
X2544001Y1392986D01*
Y1388987D01*
Y1392986D01*
X2542668Y1394319D01*
X2541335D01*
X2540002Y1392986D01*
Y1388987D01*
Y1396985D02*
Y1402316D01*
Y1399650D01*
X2548000D01*
Y1404982D02*
X2540002D01*
X2548000Y1410314D01*
X2540002D01*
X1867000Y996332D02*
Y991000D01*
X1861668Y996332D01*
X1860336D01*
X1859003Y994999D01*
Y992333D01*
X1860336Y991000D01*
X1859003Y1004329D02*
Y998997D01*
X1863001D01*
X1861668Y1001663D01*
Y1002996D01*
X1863001Y1004329D01*
X1865667D01*
X1867000Y1002996D01*
Y1000330D01*
X1865667Y998997D01*
X1867000Y1006995D02*
X1865667D01*
Y1008328D01*
X1867000D01*
Y1006995D01*
X1860336Y1013659D02*
X1859003Y1014992D01*
Y1017658D01*
X1860336Y1018991D01*
X1865667D01*
X1867000Y1017658D01*
Y1014992D01*
X1865667Y1013659D01*
X1860336D01*
Y1021657D02*
X1859003Y1022990D01*
Y1025656D01*
X1860336Y1026988D01*
X1865667D01*
X1867000Y1025656D01*
Y1022990D01*
X1865667Y1021657D01*
X1860336D01*
Y1029654D02*
X1859003Y1030987D01*
Y1033653D01*
X1860336Y1034986D01*
X1865667D01*
X1867000Y1033653D01*
Y1030987D01*
X1865667Y1029654D01*
X1860336D01*
X1867000Y1037652D02*
X1859003D01*
X1861668Y1040317D01*
X1859003Y1042983D01*
X1867000D01*
X1859003Y1045649D02*
X1867000D01*
X1863001D01*
X1861668Y1046982D01*
Y1049648D01*
X1863001Y1050981D01*
X1867000D01*
X1861668Y1053646D02*
Y1058978D01*
X1867000Y1053646D01*
Y1058978D01*
X2364500Y652500D02*
X2367166D01*
X2365833D01*
Y660497D01*
X2364500Y659165D01*
X2394500Y657500D02*
Y665497D01*
X2398499D01*
X2399832Y664165D01*
Y661499D01*
X2398499Y660166D01*
X2394500D01*
X2402497Y665497D02*
Y657500D01*
X2407829D01*
X2415827Y664165D02*
X2414494Y665497D01*
X2411828D01*
X2410495Y664165D01*
Y662832D01*
X2411828Y661499D01*
X2414494D01*
X2415827Y660166D01*
Y658833D01*
X2414494Y657500D01*
X2411828D01*
X2410495Y658833D01*
X2423824Y665497D02*
X2421158Y664165D01*
X2418492Y661499D01*
Y658833D01*
X2419825Y657500D01*
X2422491D01*
X2423824Y658833D01*
Y660166D01*
X2422491Y661499D01*
X2418492D01*
X1468500Y945000D02*
X1476497D01*
Y941001D01*
X1475164Y939668D01*
X1472499D01*
X1471166Y941001D01*
Y945000D01*
X1476497Y933004D02*
Y935670D01*
X1475164Y937003D01*
X1469833D01*
X1468500Y935670D01*
Y933004D01*
X1469833Y931671D01*
X1475164D01*
X1476497Y933004D01*
Y929005D02*
X1468500D01*
X1471166Y926339D01*
X1468500Y923673D01*
X1476497D01*
Y915676D02*
Y921008D01*
X1468500D01*
Y915676D01*
X1472499Y921008D02*
Y918342D01*
X1468500Y913010D02*
X1476497D01*
Y909012D01*
X1475164Y907679D01*
X1472499D01*
X1471166Y909012D01*
Y913010D01*
Y910344D02*
X1468500Y907679D01*
X1467167Y905013D02*
Y899681D01*
X1476497Y897016D02*
Y891684D01*
Y894350D01*
X1468500D01*
X1476497Y883686D02*
Y889018D01*
X1468500D01*
Y883686D01*
X1472499Y889018D02*
Y886352D01*
X1468500Y881021D02*
X1476497D01*
Y877022D01*
X1475164Y875689D01*
X1472499D01*
X1471166Y877022D01*
Y881021D01*
Y878355D02*
X1468500Y875689D01*
Y873023D02*
X1476497D01*
X1473832Y870357D01*
X1476497Y867692D01*
X1468500D01*
X2234000Y1455000D02*
X2236666D01*
X2235333D01*
Y1462997D01*
X2234000Y1461664D01*
X2240665D02*
X2241997Y1462997D01*
X2244663D01*
X2245996Y1461664D01*
Y1456333D01*
X2244663Y1455000D01*
X2241997D01*
X2240665Y1456333D01*
Y1461664D01*
X2252661Y1455000D02*
Y1462997D01*
X2248662Y1458999D01*
X2253994D01*
X2256659Y1462997D02*
Y1455000D01*
Y1458999D01*
X2261991D01*
Y1462997D01*
Y1455000D01*
X2264657Y1458999D02*
X2269988D01*
X2272654Y1462997D02*
X2277986D01*
X2275320D01*
Y1455000D01*
X2280652Y1462997D02*
Y1455000D01*
X2284650D01*
X2285983Y1456333D01*
Y1461664D01*
X2284650Y1462997D01*
X2280652D01*
X2288649Y1455000D02*
Y1460332D01*
X2291315Y1462997D01*
X2293981Y1460332D01*
Y1455000D01*
Y1458999D01*
X2288649D01*
X2296647Y1461664D02*
X2297979Y1462997D01*
X2300645D01*
X2301978Y1461664D01*
Y1456333D01*
X2300645Y1455000D01*
X2297979D01*
X2296647Y1456333D01*
Y1461664D01*
X2304644Y1458999D02*
X2309975D01*
X2312641Y1455000D02*
Y1462997D01*
X2316640D01*
X2317973Y1461664D01*
Y1458999D01*
X2316640Y1457666D01*
X2312641D01*
X2315307D02*
X2317973Y1455000D01*
X2320639Y1461664D02*
X2321972Y1462997D01*
X2324637D01*
X2325970Y1461664D01*
Y1456333D01*
X2324637Y1455000D01*
X2321972D01*
X2320639Y1456333D01*
Y1461664D01*
X2328636Y1455000D02*
X2331302D01*
X2329969D01*
Y1462997D01*
X2328636Y1461664D01*
X1447500Y1065000D02*
Y1062334D01*
Y1063667D01*
X1455497D01*
X1454164Y1065000D01*
X1455497Y1053004D02*
X1454164Y1055670D01*
X1451499Y1058335D01*
X1448833D01*
X1447500Y1057003D01*
Y1054337D01*
X1448833Y1053004D01*
X1450166D01*
X1451499Y1054337D01*
Y1058335D01*
X1447500Y1050338D02*
X1455497D01*
X1452832Y1047672D01*
X1455497Y1045006D01*
X1447500D01*
Y1037009D02*
Y1042341D01*
X1452832Y1037009D01*
X1454164D01*
X1455497Y1038342D01*
Y1041008D01*
X1454164Y1042341D01*
X1455497Y1034343D02*
Y1029012D01*
X1454164D01*
X1448833Y1034343D01*
X1447500D01*
X1455497Y1021014D02*
X1454164Y1023680D01*
X1451499Y1026346D01*
X1448833D01*
X1447500Y1025013D01*
Y1022347D01*
X1448833Y1021014D01*
X1450166D01*
X1451499Y1022347D01*
Y1026346D01*
X1447500Y1014350D02*
X1455497D01*
X1451499Y1018348D01*
Y1013017D01*
X1884500Y1148165D02*
X1885833Y1149497D01*
X1888499D01*
X1889832Y1148165D01*
Y1146832D01*
X1888499Y1145499D01*
X1887166D01*
X1888499D01*
X1889832Y1144166D01*
Y1142833D01*
X1888499Y1141500D01*
X1885833D01*
X1884500Y1142833D01*
X1897829Y1141500D02*
X1892497D01*
X1897829Y1146832D01*
Y1148165D01*
X1896496Y1149497D01*
X1893830D01*
X1892497Y1148165D01*
X1900495Y1141500D02*
Y1142833D01*
X1901828D01*
Y1141500D01*
X1900495D01*
X1907159Y1149497D02*
X1912491D01*
Y1148165D01*
X1907159Y1142833D01*
Y1141500D01*
X1920488Y1149497D02*
X1917823Y1148165D01*
X1915157Y1145499D01*
Y1142833D01*
X1916490Y1141500D01*
X1919155D01*
X1920488Y1142833D01*
Y1144166D01*
X1919155Y1145499D01*
X1915157D01*
X1923154Y1148165D02*
X1924487Y1149497D01*
X1927153D01*
X1928486Y1148165D01*
Y1146832D01*
X1927153Y1145499D01*
X1928486Y1144166D01*
Y1142833D01*
X1927153Y1141500D01*
X1924487D01*
X1923154Y1142833D01*
Y1144166D01*
X1924487Y1145499D01*
X1923154Y1146832D01*
Y1148165D01*
X1924487Y1145499D02*
X1927153D01*
X1931152Y1149497D02*
Y1141500D01*
Y1144166D01*
X1936483Y1149497D01*
X1932484Y1145499D01*
X1936483Y1141500D01*
X1939149Y1149497D02*
Y1141500D01*
Y1145499D01*
X1944481D01*
Y1149497D01*
Y1141500D01*
X1947146Y1149497D02*
X1952478D01*
Y1148165D01*
X1947146Y1142833D01*
Y1141500D01*
X1952478D01*
X1721680Y709314D02*
X1723013Y710647D01*
X1725679D01*
X1727012Y709314D01*
Y703983D01*
X1725679Y702650D01*
X1723013D01*
X1721680Y703983D01*
Y709314D01*
X1729677Y702650D02*
Y703983D01*
X1731010D01*
Y702650D01*
X1729677D01*
X1736342D02*
X1739008D01*
X1737675D01*
Y710647D01*
X1736342Y709314D01*
X1743006Y707982D02*
Y703983D01*
X1744339Y702650D01*
X1748338D01*
Y707982D01*
X1756335Y710647D02*
X1751004D01*
Y706649D01*
X1753670D01*
X1751004D01*
Y702650D01*
X2038999Y758000D02*
Y765997D01*
X2035000Y761999D01*
X2040332D01*
X2042997Y758000D02*
Y759333D01*
X2044330D01*
Y758000D01*
X2042997D01*
X2049662Y765997D02*
X2054994D01*
Y764665D01*
X2049662Y759333D01*
Y758000D01*
X2057659Y765997D02*
Y758000D01*
Y760666D01*
X2062991Y765997D01*
X2058992Y761999D01*
X2062991Y758000D01*
X1565350Y1077680D02*
Y1080346D01*
Y1079013D01*
X1557353D01*
X1558685Y1077680D01*
X1560018Y1084344D02*
X1564017D01*
X1565350Y1085677D01*
Y1089676D01*
X1560018D01*
X1557353Y1097673D02*
Y1092342D01*
X1561351D01*
Y1095008D01*
Y1092342D01*
X1565350D01*
X2341000Y795000D02*
X2343666D01*
X2342333D01*
Y802997D01*
X2341000Y801665D01*
X2347664D02*
X2348997Y802997D01*
X2351663D01*
X2352996Y801665D01*
Y796333D01*
X2351663Y795000D01*
X2348997D01*
X2347664Y796333D01*
Y801665D01*
X2355662Y800332D02*
Y796333D01*
X2356995Y795000D01*
X2360994D01*
Y800332D01*
X2368991Y802997D02*
X2363659D01*
Y798999D01*
X2366325D01*
X2363659D01*
Y795000D01*
X2341000Y776665D02*
X2342333Y777997D01*
X2344999D01*
X2346332Y776665D01*
Y771333D01*
X2344999Y770000D01*
X2342333D01*
X2341000Y771333D01*
Y776665D01*
X2348997Y770000D02*
Y771333D01*
X2350330D01*
Y770000D01*
X2348997D01*
X2355662D02*
X2358328D01*
X2356995D01*
Y777997D01*
X2355662Y776665D01*
X2362327Y775332D02*
Y771333D01*
X2363659Y770000D01*
X2367658D01*
Y775332D01*
X2375656Y777997D02*
X2370324D01*
Y773999D01*
X2372990D01*
X2370324D01*
Y770000D01*
X2558665Y905000D02*
X2559997Y903667D01*
Y901001D01*
X2558665Y899668D01*
X2553333D01*
X2552000Y901001D01*
Y903667D01*
X2553333Y905000D01*
X2558665D01*
X2552000Y897003D02*
X2553333D01*
Y895670D01*
X2552000D01*
Y897003D01*
Y890338D02*
Y887672D01*
Y889005D01*
X2559997D01*
X2558665Y890338D01*
X2557332Y883673D02*
X2553333D01*
X2552000Y882341D01*
Y878342D01*
X2557332D01*
X2559997Y870344D02*
Y875676D01*
X2555999D01*
Y873010D01*
Y875676D01*
X2552000D01*
X1715820Y1266830D02*
X1713154D01*
X1714487D01*
Y1258833D01*
X1715820Y1260165D01*
X1709155D02*
X1707823Y1258833D01*
X1705157D01*
X1703824Y1260165D01*
Y1265497D01*
X1705157Y1266830D01*
X1707823D01*
X1709155Y1265497D01*
Y1260165D01*
X1701158Y1258833D02*
Y1266830D01*
Y1264164D01*
X1695826Y1258833D01*
X1699825Y1262831D01*
X1695826Y1266830D01*
X1805070Y1339350D02*
X1802404D01*
X1803737D01*
Y1331353D01*
X1805070Y1332686D01*
X1798405D02*
X1797073Y1331353D01*
X1794407D01*
X1793074Y1332686D01*
Y1338017D01*
X1794407Y1339350D01*
X1797073D01*
X1798405Y1338017D01*
Y1332686D01*
X1790408Y1334018D02*
Y1338017D01*
X1789075Y1339350D01*
X1785076D01*
Y1334018D01*
X1777079Y1331353D02*
X1782411D01*
Y1335351D01*
X1779745D01*
X1782411D01*
Y1339350D01*
X1804820Y1369350D02*
X1802154D01*
X1803487D01*
Y1361353D01*
X1804820Y1362686D01*
X1798156D02*
X1796823Y1361353D01*
X1794157D01*
X1792824Y1362686D01*
Y1368017D01*
X1794157Y1369350D01*
X1796823D01*
X1798156Y1368017D01*
Y1362686D01*
X1790158Y1364018D02*
Y1368017D01*
X1788825Y1369350D01*
X1784826D01*
Y1364018D01*
X1776829Y1361353D02*
X1782161D01*
Y1365351D01*
X1779495D01*
X1782161D01*
Y1369350D01*
X1891900Y1364820D02*
Y1362154D01*
Y1363487D01*
X1899897D01*
X1898565Y1364820D01*
Y1358155D02*
X1899897Y1356823D01*
Y1354157D01*
X1898565Y1352824D01*
X1893233D01*
X1891900Y1354157D01*
Y1356823D01*
X1893233Y1358155D01*
X1898565D01*
X1897232Y1350158D02*
X1893233D01*
X1891900Y1348825D01*
Y1344826D01*
X1897232D01*
X1899897Y1336829D02*
Y1342161D01*
X1895899D01*
Y1339495D01*
Y1342161D01*
X1891900D01*
X1926564Y1364820D02*
X1927897Y1363487D01*
Y1360821D01*
X1926564Y1359488D01*
X1921233D01*
X1919900Y1360821D01*
Y1363487D01*
X1921233Y1364820D01*
X1926564D01*
X1919900Y1356823D02*
X1921233D01*
Y1355490D01*
X1919900D01*
Y1356823D01*
Y1350158D02*
Y1347492D01*
Y1348825D01*
X1927897D01*
X1926564Y1350158D01*
X1925232Y1343493D02*
X1921233D01*
X1919900Y1342161D01*
Y1338162D01*
X1925232D01*
X1927897Y1330164D02*
Y1335496D01*
X1923899D01*
Y1332830D01*
Y1335496D01*
X1919900D01*
X1947900Y1364820D02*
Y1362154D01*
Y1363487D01*
X1955898D01*
X1954565Y1364820D01*
X1953232Y1358155D02*
X1949233D01*
X1947900Y1356823D01*
Y1352824D01*
X1953232D01*
X1955898Y1344826D02*
Y1350158D01*
X1951899D01*
Y1347492D01*
Y1350158D01*
X1947900D01*
X1975900Y1364820D02*
Y1362154D01*
Y1363487D01*
X1983898D01*
X1982565Y1364820D01*
X1981232Y1358155D02*
X1977233D01*
X1975900Y1356823D01*
Y1352824D01*
X1981232D01*
X1983898Y1344826D02*
Y1350158D01*
X1979899D01*
Y1347492D01*
Y1350158D01*
X1975900D01*
X2986350Y1429680D02*
Y1432346D01*
Y1431013D01*
X2978353D01*
X2979685Y1429680D01*
X2981018Y1436344D02*
X2985017D01*
X2986350Y1437677D01*
Y1441676D01*
X2981018D01*
X2978353Y1449674D02*
Y1444342D01*
X2982351D01*
Y1447008D01*
Y1444342D01*
X2986350D01*
Y1474680D02*
Y1477346D01*
Y1476013D01*
X2978353D01*
X2979685Y1474680D01*
X2981018Y1481344D02*
X2985017D01*
X2986350Y1482677D01*
Y1486676D01*
X2981018D01*
X2978353Y1494673D02*
Y1489342D01*
X2982351D01*
Y1492008D01*
Y1489342D01*
X2986350D01*
X2872917Y1269988D02*
Y1275320D01*
X2868919D01*
X2870251Y1272654D01*
Y1271321D01*
X2868919Y1269988D01*
X2866253D01*
X2864920Y1271321D01*
Y1273987D01*
X2866253Y1275320D01*
X2864920Y1267323D02*
Y1264657D01*
Y1265990D01*
X2872917D01*
X2871584Y1267323D01*
Y1260658D02*
X2872917Y1259325D01*
Y1256659D01*
X2871584Y1255326D01*
X2866253D01*
X2864920Y1256659D01*
Y1259325D01*
X2866253Y1260658D01*
X2871584D01*
X2864920Y1252661D02*
X2872917D01*
Y1248662D01*
X2871584Y1247329D01*
X2868919D01*
X2867586Y1248662D01*
Y1252661D01*
Y1249995D02*
X2864920Y1247329D01*
X1621417Y1197738D02*
Y1203070D01*
X1617419D01*
X1618752Y1200404D01*
Y1199071D01*
X1617419Y1197738D01*
X1614753D01*
X1613420Y1199071D01*
Y1201737D01*
X1614753Y1203070D01*
X1613420Y1195073D02*
Y1192407D01*
Y1193740D01*
X1621417D01*
X1620085Y1195073D01*
Y1188408D02*
X1621417Y1187075D01*
Y1184409D01*
X1620085Y1183076D01*
X1614753D01*
X1613420Y1184409D01*
Y1187075D01*
X1614753Y1188408D01*
X1620085D01*
X1613420Y1180411D02*
X1621417D01*
Y1176412D01*
X1620085Y1175079D01*
X1617419D01*
X1616086Y1176412D01*
Y1180411D01*
Y1177745D02*
X1613420Y1175079D01*
X2964920Y1296320D02*
Y1293654D01*
Y1294987D01*
X2972917D01*
X2971584Y1296320D01*
Y1289655D02*
X2972917Y1288322D01*
Y1285657D01*
X2971584Y1284324D01*
X2966253D01*
X2964920Y1285657D01*
Y1288322D01*
X2966253Y1289655D01*
X2971584D01*
X2972917Y1281658D02*
X2964920D01*
X2967586D01*
X2972917Y1276326D01*
X2968919Y1280325D01*
X2964920Y1276326D01*
Y1388320D02*
Y1385654D01*
Y1386987D01*
X2972917D01*
X2971584Y1388320D01*
Y1381655D02*
X2972917Y1380323D01*
Y1377657D01*
X2971584Y1376324D01*
X2966253D01*
X2964920Y1377657D01*
Y1380323D01*
X2966253Y1381655D01*
X2971584D01*
X2972917Y1373658D02*
X2964920D01*
X2967586D01*
X2972917Y1368326D01*
X2968919Y1372325D01*
X2964920Y1368326D01*
X1822250Y1347497D02*
X1827582D01*
X1824916D01*
Y1339500D01*
X1830247Y1347497D02*
Y1339500D01*
X1835579D01*
X1838245Y1347497D02*
Y1342166D01*
X1840911Y1339500D01*
X1843577Y1342166D01*
Y1347497D01*
X1846242D02*
X1851574D01*
Y1346165D01*
X1846242Y1340833D01*
Y1339500D01*
X1854240Y1346165D02*
X1855573Y1347497D01*
X1858238D01*
X1859571Y1346165D01*
Y1340833D01*
X1858238Y1339500D01*
X1855573D01*
X1854240Y1340833D01*
Y1346165D01*
X1867569Y1339500D02*
X1862237D01*
X1867569Y1344832D01*
Y1346165D01*
X1866236Y1347497D01*
X1863570D01*
X1862237Y1346165D01*
X1870235D02*
X1871568Y1347497D01*
X1874233D01*
X1875566Y1346165D01*
Y1344832D01*
X1874233Y1343499D01*
X1872900D01*
X1874233D01*
X1875566Y1342166D01*
Y1340833D01*
X1874233Y1339500D01*
X1871568D01*
X1870235Y1340833D01*
X1878232Y1346165D02*
X1879565Y1347497D01*
X1882231D01*
X1883564Y1346165D01*
Y1344832D01*
X1882231Y1343499D01*
X1880898D01*
X1882231D01*
X1883564Y1342166D01*
Y1340833D01*
X1882231Y1339500D01*
X1879565D01*
X1878232Y1340833D01*
X1886229Y1347497D02*
Y1339500D01*
X1890228D01*
X1891561Y1340833D01*
Y1346165D01*
X1890228Y1347497D01*
X1886229D01*
X1894227D02*
Y1339500D01*
X1898226D01*
X1899558Y1340833D01*
Y1342166D01*
X1898226Y1343499D01*
X1894227D01*
X1898226D01*
X1899558Y1344832D01*
Y1346165D01*
X1898226Y1347497D01*
X1894227D01*
X1902224D02*
Y1342166D01*
X1904890Y1339500D01*
X1907556Y1342166D01*
Y1347497D01*
X1910222D02*
X1915553D01*
X1912887D01*
Y1339500D01*
X2924668Y1452336D02*
X2926001Y1451003D01*
X2928667D01*
X2930000Y1452336D01*
Y1457667D01*
X2928667Y1459000D01*
X2926001D01*
X2924668Y1457667D01*
X2922003Y1451003D02*
Y1452336D01*
X2919337Y1455001D01*
X2916671Y1452336D01*
Y1451003D01*
X2919337Y1455001D02*
Y1459000D01*
X2914005Y1451003D02*
X2908673D01*
Y1452336D01*
X2914005Y1457667D01*
Y1459000D01*
X2900676Y1452336D02*
X2902009Y1451003D01*
X2904675D01*
X2906008Y1452336D01*
Y1457667D01*
X2904675Y1459000D01*
X2902009D01*
X2900676Y1457667D01*
X2892679Y1451003D02*
X2895345Y1452336D01*
X2898010Y1455001D01*
Y1457667D01*
X2896678Y1459000D01*
X2894012D01*
X2892679Y1457667D01*
Y1456334D01*
X2894012Y1455001D01*
X2898010D01*
X2884681Y1451003D02*
X2890013D01*
Y1455001D01*
X2887347Y1453668D01*
X2886014D01*
X2884681Y1455001D01*
Y1457667D01*
X2886014Y1459000D01*
X2888680D01*
X2890013Y1457667D01*
X2876684Y1459000D02*
X2882015D01*
X2876684Y1453668D01*
Y1452336D01*
X2878017Y1451003D01*
X2880683D01*
X2882015Y1452336D01*
X2874018Y1459000D02*
X2871352D01*
X2872685D01*
Y1451003D01*
X2874018Y1452336D01*
X2867354D02*
X2866021Y1451003D01*
X2863355D01*
X2862022Y1452336D01*
Y1453668D01*
X2863355Y1455001D01*
X2864688D01*
X2863355D01*
X2862022Y1456334D01*
Y1457667D01*
X2863355Y1459000D01*
X2866021D01*
X2867354Y1457667D01*
X1535665Y1622668D02*
X1536997Y1624001D01*
Y1626667D01*
X1535665Y1628000D01*
X1534332D01*
X1532999Y1626667D01*
Y1624001D01*
X1531666Y1622668D01*
X1530333D01*
X1529000Y1624001D01*
Y1626667D01*
X1530333Y1628000D01*
X1529000Y1620003D02*
X1536997D01*
X1534332Y1617337D01*
X1536997Y1614671D01*
X1529000D01*
Y1612005D02*
X1534332D01*
X1536997Y1609339D01*
X1534332Y1606673D01*
X1529000D01*
X1532999D01*
Y1612005D01*
X1536997Y1598676D02*
X1535665Y1601342D01*
X1532999Y1604008D01*
X1530333D01*
X1529000Y1602675D01*
Y1600009D01*
X1530333Y1598676D01*
X1531666D01*
X1532999Y1600009D01*
Y1604008D01*
X1529000Y1590679D02*
Y1596010D01*
X1534332Y1590679D01*
X1535665D01*
X1536997Y1592012D01*
Y1594677D01*
X1535665Y1596010D01*
X1536997Y1582681D02*
Y1588013D01*
X1532999D01*
X1534332Y1585347D01*
Y1584014D01*
X1532999Y1582681D01*
X1530333D01*
X1529000Y1584014D01*
Y1586680D01*
X1530333Y1588013D01*
X1529000Y1574684D02*
Y1580016D01*
X1534332Y1574684D01*
X1535665D01*
X1536997Y1576017D01*
Y1578683D01*
X1535665Y1580016D01*
X1529000Y1572018D02*
X1534332D01*
X1536997Y1569352D01*
X1534332Y1566687D01*
X1529000D01*
X1532999D01*
Y1572018D01*
X1529000Y1558689D02*
Y1564021D01*
X1534332Y1558689D01*
X1535665D01*
X1536997Y1560022D01*
Y1562688D01*
X1535665Y1564021D01*
X1532999Y1556023D02*
Y1550692D01*
X1535665Y1548026D02*
X1536997Y1546693D01*
Y1544027D01*
X1535665Y1542694D01*
X1534332D01*
X1532999Y1544027D01*
Y1545360D01*
Y1544027D01*
X1531666Y1542694D01*
X1530333D01*
X1529000Y1544027D01*
Y1546693D01*
X1530333Y1548026D01*
X1535665Y1534697D02*
X1536997Y1536030D01*
Y1538696D01*
X1535665Y1540028D01*
X1530333D01*
X1529000Y1538696D01*
Y1536030D01*
X1530333Y1534697D01*
X1532999D01*
Y1537363D01*
X1536997Y1532031D02*
Y1526699D01*
Y1529365D01*
X1529000D01*
X1536997Y1518702D02*
Y1524034D01*
X1532999D01*
X1534332Y1521368D01*
Y1520035D01*
X1532999Y1518702D01*
X1530333D01*
X1529000Y1520035D01*
Y1522701D01*
X1530333Y1524034D01*
X1535665Y1516036D02*
X1536997Y1514703D01*
Y1512037D01*
X1535665Y1510704D01*
X1530333D01*
X1529000Y1512037D01*
Y1514703D01*
X1530333Y1516036D01*
X1535665D01*
Y1502707D02*
X1536997Y1504040D01*
Y1506706D01*
X1535665Y1508039D01*
X1530333D01*
X1529000Y1506706D01*
Y1504040D01*
X1530333Y1502707D01*
X1532999D01*
Y1505373D01*
Y1500041D02*
Y1494710D01*
X1536997Y1486712D02*
Y1492044D01*
X1532999D01*
X1534332Y1489378D01*
Y1488045D01*
X1532999Y1486712D01*
X1530333D01*
X1529000Y1488045D01*
Y1490711D01*
X1530333Y1492044D01*
X1535665Y1484046D02*
X1536997Y1482713D01*
Y1480048D01*
X1535665Y1478715D01*
X1530333D01*
X1529000Y1480048D01*
Y1482713D01*
X1530333Y1484046D01*
X1535665D01*
X2935000Y1587500D02*
X2932334D01*
X2933667D01*
Y1579503D01*
X2935000Y1580836D01*
X2923004Y1579503D02*
X2925670Y1580836D01*
X2928336Y1583501D01*
Y1586167D01*
X2927003Y1587500D01*
X2924337D01*
X2923004Y1586167D01*
Y1584834D01*
X2924337Y1583501D01*
X2928336D01*
X2920338Y1587500D02*
Y1579503D01*
X2917672Y1582168D01*
X2915006Y1579503D01*
Y1587500D01*
X2907009D02*
X2912341D01*
X2907009Y1582168D01*
Y1580836D01*
X2908342Y1579503D01*
X2911008D01*
X2912341Y1580836D01*
X2904343Y1579503D02*
X2899012D01*
Y1580836D01*
X2904343Y1586167D01*
Y1587500D01*
X2891014Y1579503D02*
X2893680Y1580836D01*
X2896346Y1583501D01*
Y1586167D01*
X2895013Y1587500D01*
X2892347D01*
X2891014Y1586167D01*
Y1584834D01*
X2892347Y1583501D01*
X2896346D01*
X2884350Y1587500D02*
Y1579503D01*
X2888348Y1583501D01*
X2883017D01*
X2975080Y1302680D02*
Y1305346D01*
Y1304013D01*
X2967083D01*
X2968416Y1302680D01*
Y1309344D02*
X2967083Y1310677D01*
Y1313343D01*
X2968416Y1314676D01*
X2973747D01*
X2975080Y1313343D01*
Y1310677D01*
X2973747Y1309344D01*
X2968416D01*
X2967083Y1317342D02*
X2975080D01*
X2972414D01*
X2967083Y1322674D01*
X2971081Y1318675D01*
X2975080Y1322674D01*
X1480070Y1499185D02*
X1478737Y1497853D01*
X1476071D01*
X1474738Y1499185D01*
Y1504517D01*
X1476071Y1505850D01*
X1478737D01*
X1480070Y1504517D01*
Y1499185D01*
X1472073Y1505850D02*
Y1504517D01*
X1470740D01*
Y1505850D01*
X1472073D01*
X1465408D02*
X1462742D01*
X1464075D01*
Y1497853D01*
X1465408Y1499185D01*
X1458743Y1500518D02*
Y1504517D01*
X1457411Y1505850D01*
X1453412D01*
Y1500518D01*
X1445414Y1497853D02*
X1450746D01*
Y1501851D01*
X1448080D01*
X1450746D01*
Y1505850D01*
X1586664Y1010000D02*
X1587997Y1008667D01*
Y1006001D01*
X1586664Y1004668D01*
X1581333D01*
X1580000Y1006001D01*
Y1008667D01*
X1581333Y1010000D01*
X1586664D01*
X1580000Y992672D02*
Y990006D01*
X1581333Y988673D01*
X1583999D01*
X1585332Y990006D01*
Y992672D01*
X1583999Y994005D01*
X1581333D01*
X1580000Y992672D01*
X1587997Y986008D02*
X1580000D01*
X1583999D01*
X1585332Y984675D01*
Y982009D01*
X1583999Y980676D01*
X1580000D01*
Y978010D02*
X1585332D01*
Y976677D01*
X1583999Y975344D01*
X1580000D01*
X1583999D01*
X1585332Y974012D01*
X1583999Y972679D01*
X1580000D01*
X1510000Y1106665D02*
X1511333Y1107997D01*
X1513999D01*
X1515332Y1106665D01*
Y1101333D01*
X1513999Y1100000D01*
X1511333D01*
X1510000Y1101333D01*
Y1106665D01*
X1527328Y1100000D02*
X1529994D01*
X1531326Y1101333D01*
Y1103999D01*
X1529994Y1105332D01*
X1527328D01*
X1525995Y1103999D01*
Y1101333D01*
X1527328Y1100000D01*
X1533992Y1107997D02*
Y1100000D01*
Y1103999D01*
X1535325Y1105332D01*
X1537991D01*
X1539324Y1103999D01*
Y1100000D01*
X1541990D02*
Y1105332D01*
X1543323D01*
X1544655Y1103999D01*
Y1100000D01*
Y1103999D01*
X1545988Y1105332D01*
X1547321Y1103999D01*
Y1100000D01*
X1420000Y1647997D02*
X1425332D01*
X1422666D01*
Y1640000D01*
X1431996Y1647997D02*
X1429330D01*
X1427997Y1646664D01*
Y1641333D01*
X1429330Y1640000D01*
X1431996D01*
X1433329Y1641333D01*
Y1646664D01*
X1431996Y1647997D01*
X1435995Y1640000D02*
Y1647997D01*
X1439994D01*
X1441326Y1646664D01*
Y1643999D01*
X1439994Y1642666D01*
X1435995D01*
X1451990Y1640000D02*
Y1645332D01*
X1454655Y1647997D01*
X1457321Y1645332D01*
Y1640000D01*
Y1643999D01*
X1451990D01*
X1465319Y1646664D02*
X1463986Y1647997D01*
X1461320D01*
X1459987Y1646664D01*
Y1645332D01*
X1461320Y1643999D01*
X1463986D01*
X1465319Y1642666D01*
Y1641333D01*
X1463986Y1640000D01*
X1461320D01*
X1459987Y1641333D01*
X1473316Y1646664D02*
X1471983Y1647997D01*
X1469317D01*
X1467984Y1646664D01*
Y1645332D01*
X1469317Y1643999D01*
X1471983D01*
X1473316Y1642666D01*
Y1641333D01*
X1471983Y1640000D01*
X1469317D01*
X1467984Y1641333D01*
X1481313Y1647997D02*
X1475982D01*
Y1640000D01*
X1481313D01*
X1475982Y1643999D02*
X1478648D01*
X1483979Y1640000D02*
Y1647997D01*
X1486645Y1645332D01*
X1489311Y1647997D01*
Y1640000D01*
X1491977Y1647997D02*
Y1640000D01*
X1495975D01*
X1497308Y1641333D01*
Y1642666D01*
X1495975Y1643999D01*
X1491977D01*
X1495975D01*
X1497308Y1645332D01*
Y1646664D01*
X1495975Y1647997D01*
X1491977D01*
X1499974D02*
Y1640000D01*
X1505306D01*
X1507972Y1647997D02*
Y1646664D01*
X1510637Y1643999D01*
X1513303Y1646664D01*
Y1647997D01*
X1510637Y1643999D02*
Y1640000D01*
X1552666D02*
X1550000D01*
Y1647997D01*
X1552666D01*
X1556664Y1640000D02*
Y1647997D01*
X1561996Y1640000D01*
Y1647997D01*
X1565995Y1640000D02*
X1568661D01*
X1569994Y1641333D01*
Y1643999D01*
X1568661Y1645332D01*
X1565995D01*
X1564662Y1643999D01*
Y1641333D01*
X1565995Y1640000D01*
X1580657Y1647997D02*
Y1642666D01*
X1583323Y1640000D01*
X1585988Y1642666D01*
Y1647997D01*
X1589987Y1645332D02*
X1592653D01*
X1593986Y1643999D01*
Y1640000D01*
X1589987D01*
X1588654Y1641333D01*
X1589987Y1642666D01*
X1593986D01*
X1596652Y1645332D02*
Y1640000D01*
Y1642666D01*
X1597984Y1643999D01*
X1599317Y1645332D01*
X1600650D01*
X1604649Y1640000D02*
X1607315D01*
X1605982D01*
Y1645332D01*
X1604649D01*
X1612646D02*
X1615312D01*
X1616645Y1643999D01*
Y1640000D01*
X1612646D01*
X1611314Y1641333D01*
X1612646Y1642666D01*
X1616645D01*
X1620644Y1646664D02*
Y1645332D01*
X1619311D01*
X1621977D01*
X1620644D01*
Y1641333D01*
X1621977Y1640000D01*
X1625975D02*
X1628641D01*
X1627308D01*
Y1645332D01*
X1625975D01*
X1633973Y1640000D02*
X1636639D01*
X1637972Y1641333D01*
Y1643999D01*
X1636639Y1645332D01*
X1633973D01*
X1632640Y1643999D01*
Y1641333D01*
X1633973Y1640000D01*
X1640638D02*
Y1645332D01*
X1644636D01*
X1645969Y1643999D01*
Y1640000D01*
X1648635D02*
X1652634D01*
X1653967Y1641333D01*
X1652634Y1642666D01*
X1649968D01*
X1648635Y1643999D01*
X1649968Y1645332D01*
X1653967D01*
X1656632Y1640000D02*
X1659298D01*
Y1647997D01*
X1656632D01*
X2022000Y1170000D02*
G03*
X2022000Y1170000I-5000J0D01*
G01*
X1702000Y738000D02*
G03*
X1702000Y738000I-5000J0D01*
G01*
X1636500Y1045000D02*
G03*
X1636500Y1045000I-5000J0D01*
G01*
X1953500Y1151500D02*
G03*
X1953500Y1151500I-5000J0D01*
G01*
X1702500Y1163750D02*
G03*
X1702500Y1163750I-5000J0D01*
G01*
X2861500Y1431000D02*
G03*
X2861500Y1431000I-5000J0D01*
G01*
X2940000Y1341000D02*
G03*
X2940000Y1341000I-5000J0D01*
G01*
X1762100Y1414850D02*
X1784900D01*
X1762100Y1402150D02*
X1784900D01*
X1762100D02*
Y1414850D01*
X1784900Y1402150D02*
Y1414850D01*
X1761100Y1444100D02*
X1783900D01*
X1761100Y1431400D02*
X1783900D01*
X1761100D02*
Y1444100D01*
X1783900Y1431400D02*
Y1444100D01*
X2820750Y1354000D02*
Y1374000D01*
X2833250Y1354000D02*
Y1374000D01*
X2820750Y1354000D02*
X2833250D01*
X2820750Y1374000D02*
X2833250D01*
X2833350Y1430600D02*
Y1453400D01*
X2820650Y1430600D02*
Y1453400D01*
X2833350D01*
X2820650Y1430600D02*
X2833350D01*
X2820650Y1311600D02*
Y1334400D01*
X2833350Y1311600D02*
Y1334400D01*
X2820650Y1311600D02*
X2833350D01*
X2820650Y1334400D02*
X2833350D01*
X2833250Y1392000D02*
Y1412000D01*
X2820750Y1392000D02*
Y1412000D01*
X2833250D01*
X2820750Y1392000D02*
X2833250D01*
X1442150Y1437100D02*
Y1459900D01*
X1454850Y1437100D02*
Y1459900D01*
X1442150Y1437100D02*
X1454850D01*
X1442150Y1459900D02*
X1454850D01*
X2880200Y753600D02*
X2917800D01*
X2880200Y706400D02*
X2917800D01*
X2880200D02*
Y753600D01*
X2917800Y706400D02*
Y753600D01*
X2963750Y707950D02*
X2978250D01*
X2963750Y730050D02*
X2978250D01*
X2963750Y707950D02*
Y730050D01*
X2978250Y707950D02*
Y730050D01*
X2887950Y680750D02*
Y695250D01*
X2910050Y680750D02*
Y695250D01*
X2887950D02*
X2910050D01*
X2887950Y680750D02*
X2910050D01*
X1836600Y787350D02*
X1859400D01*
X1836600Y774650D02*
X1859400D01*
X1836600D02*
Y787350D01*
X1859400Y774650D02*
Y787350D01*
X1855350Y872600D02*
Y895400D01*
X1842650Y872600D02*
Y895400D01*
X1855350D01*
X1842650Y872600D02*
X1855350D01*
X1844200Y808000D02*
Y822000D01*
X1813800Y808000D02*
Y822000D01*
X1844200D01*
X1813800Y808000D02*
X1844200D01*
X1663600Y1013650D02*
X1686400D01*
X1663600Y1026350D02*
X1686400D01*
Y1013650D02*
Y1026350D01*
X1663600Y1013650D02*
Y1026350D01*
Y1040650D02*
X1686400D01*
X1663600Y1053350D02*
X1686400D01*
Y1040650D02*
Y1053350D01*
X1663600Y1040650D02*
Y1053350D01*
Y1067650D02*
X1686400D01*
X1663600Y1080350D02*
X1686400D01*
Y1067650D02*
Y1080350D01*
X1663600Y1067650D02*
Y1080350D01*
X2316950Y1275750D02*
Y1290250D01*
X2339050Y1275750D02*
Y1290250D01*
X2316950D02*
X2339050D01*
X2316950Y1275750D02*
X2339050D01*
X2283050D02*
Y1290250D01*
X2260950Y1275750D02*
Y1290250D01*
Y1275750D02*
X2283050D01*
X2260950Y1290250D02*
X2283050D01*
X1538650Y774400D02*
X1551350D01*
X1538650Y751600D02*
X1551350D01*
Y774400D01*
X1538650Y751600D02*
Y774400D01*
X2168950Y782250D02*
X2191050D01*
X2168950Y767750D02*
X2191050D01*
X2168950D02*
Y782250D01*
X2191050Y767750D02*
Y782250D01*
X2468750Y1181950D02*
Y1204050D01*
X2483250Y1181950D02*
Y1204050D01*
X2468750Y1181950D02*
X2483250D01*
X2468750Y1204050D02*
X2483250D01*
X2470750Y1276950D02*
Y1299050D01*
X2485250Y1276950D02*
Y1299050D01*
X2470750Y1276950D02*
X2485250D01*
X2470750Y1299050D02*
X2485250D01*
X2470750Y1366950D02*
Y1389050D01*
X2485250Y1366950D02*
Y1389050D01*
X2470750Y1366950D02*
X2485250D01*
X2470750Y1389050D02*
X2485250D01*
X1829250Y1051450D02*
Y1073550D01*
X1843750Y1051450D02*
Y1073550D01*
X1829250Y1051450D02*
X1843750D01*
X1829250Y1073550D02*
X1843750D01*
Y971450D02*
Y993550D01*
X1829250Y971450D02*
Y993550D01*
X1843750D01*
X1829250Y971450D02*
X1843750D01*
X1883950Y1109250D02*
X1906050D01*
X1883950Y1094750D02*
X1906050D01*
X1883950D02*
Y1109250D01*
X1906050Y1094750D02*
Y1109250D01*
X2157750Y966950D02*
Y989050D01*
X2172250Y966950D02*
Y989050D01*
X2157750Y966950D02*
X2172250D01*
X2157750Y989050D02*
X2172250D01*
X2190250Y1169950D02*
Y1192050D01*
X2175750Y1169950D02*
Y1192050D01*
X2190250D01*
X2175750Y1169950D02*
X2190250D01*
X2033250Y1219950D02*
Y1242050D01*
X2018750Y1219950D02*
Y1242050D01*
X2033250D01*
X2018750Y1219950D02*
X2033250D01*
X2050750Y952950D02*
Y975050D01*
X2065250Y952950D02*
Y975050D01*
X2050750Y952950D02*
X2065250D01*
X2050750Y975050D02*
X2065250D01*
X2001950Y994750D02*
X2024050D01*
X2001950Y1009250D02*
X2024050D01*
Y994750D02*
Y1009250D01*
X2001950Y994750D02*
Y1009250D01*
X2061250Y1219950D02*
Y1242050D01*
X2046750Y1219950D02*
Y1242050D01*
X2061250D01*
X2046750Y1219950D02*
X2061250D01*
X2154250Y1222950D02*
Y1245050D01*
X2139750Y1222950D02*
Y1245050D01*
X2154250D01*
X2139750Y1222950D02*
X2154250D01*
X1921950Y990250D02*
X1944050D01*
X1921950Y975750D02*
X1944050D01*
X1921950D02*
Y990250D01*
X1944050Y975750D02*
Y990250D01*
X1921950Y1017250D02*
X1944050D01*
X1921950Y1002750D02*
X1944050D01*
X1921950D02*
Y1017250D01*
X1944050Y1002750D02*
Y1017250D01*
X2186250Y1222950D02*
Y1245050D01*
X2171750Y1222950D02*
Y1245050D01*
X2186250D01*
X2171750Y1222950D02*
X2186250D01*
X2130750Y966950D02*
Y989050D01*
X2145250Y966950D02*
Y989050D01*
X2130750Y966950D02*
X2145250D01*
X2130750Y989050D02*
X2145250D01*
X2011250Y952950D02*
Y975050D01*
X1996750Y952950D02*
Y975050D01*
X2011250D01*
X1996750Y952950D02*
X2011250D01*
X2039250Y952950D02*
Y975050D01*
X2024750Y952950D02*
Y975050D01*
X2039250D01*
X2024750Y952950D02*
X2039250D01*
X1928950Y1227250D02*
X1951050D01*
X1928950Y1212750D02*
X1951050D01*
X1928950D02*
Y1227250D01*
X1951050Y1212750D02*
Y1227250D01*
X1928950Y1194250D02*
X1951050D01*
X1928950Y1179750D02*
X1951050D01*
X1928950D02*
Y1194250D01*
X1951050Y1179750D02*
Y1194250D01*
X1928950Y1109250D02*
X1951050D01*
X1928950Y1094750D02*
X1951050D01*
X1928950D02*
Y1109250D01*
X1951050Y1094750D02*
Y1109250D01*
X2356750Y1046950D02*
Y1069050D01*
X2371250Y1046950D02*
Y1069050D01*
X2356750Y1046950D02*
X2371250D01*
X2356750Y1069050D02*
X2371250D01*
X2386750Y1046950D02*
Y1069050D01*
X2401250Y1046950D02*
Y1069050D01*
X2386750Y1046950D02*
X2401250D01*
X2386750Y1069050D02*
X2401250D01*
X2444750Y1046950D02*
Y1069050D01*
X2459250Y1046950D02*
Y1069050D01*
X2444750Y1046950D02*
X2459250D01*
X2444750Y1069050D02*
X2459250D01*
X2415750Y1046950D02*
Y1069050D01*
X2430250Y1046950D02*
Y1069050D01*
X2415750Y1046950D02*
X2430250D01*
X2415750Y1069050D02*
X2430250D01*
X1567500Y852000D02*
X1602500D01*
X1567500Y786000D02*
X1602500D01*
Y852000D01*
X1567500Y786000D02*
Y852000D01*
X1723500Y642000D02*
X1796500D01*
X1723500Y688000D02*
X1796500D01*
Y642000D02*
Y688000D01*
X1723500Y642000D02*
Y688000D01*
X1630750Y679950D02*
Y702050D01*
X1645250Y679950D02*
Y702050D01*
X1630750Y679950D02*
X1645250D01*
X1630750Y702050D02*
X1645250D01*
X1603750Y679950D02*
Y702050D01*
X1618250Y679950D02*
Y702050D01*
X1603750Y679950D02*
X1618250D01*
X1603750Y702050D02*
X1618250D01*
X1626250Y931950D02*
Y954050D01*
X1611750Y931950D02*
Y954050D01*
X1626250D01*
X1611750Y931950D02*
X1626250D01*
X1654250D02*
Y954050D01*
X1639750Y931950D02*
Y954050D01*
X1654250D01*
X1639750Y931950D02*
X1654250D01*
X1782950Y861750D02*
X1805050D01*
X1782950Y876250D02*
X1805050D01*
Y861750D02*
Y876250D01*
X1782950Y861750D02*
Y876250D01*
Y890750D02*
X1805050D01*
X1782950Y905250D02*
X1805050D01*
Y890750D02*
Y905250D01*
X1782950Y890750D02*
Y905250D01*
Y919750D02*
X1805050D01*
X1782950Y934250D02*
X1805050D01*
Y919750D02*
Y934250D01*
X1782950Y919750D02*
Y934250D01*
X2689000Y1280250D02*
X2709000D01*
X2689000Y1267750D02*
X2709000D01*
X2689000D02*
Y1280250D01*
X2709000Y1267750D02*
Y1280250D01*
X2709000Y1301750D02*
Y1314250D01*
X2689000Y1301750D02*
Y1314250D01*
Y1301750D02*
X2709000D01*
X2689000Y1314250D02*
X2709000D01*
X2690000Y1346250D02*
X2710000D01*
X2690000Y1333750D02*
X2710000D01*
X2690000D02*
Y1346250D01*
X2710000Y1333750D02*
Y1346250D01*
X2711000Y1365750D02*
Y1378250D01*
X2691000Y1365750D02*
Y1378250D01*
Y1365750D02*
X2711000D01*
X2691000Y1378250D02*
X2711000D01*
X1738000Y728250D02*
X1784000D01*
X1738000Y767750D02*
X1784000D01*
Y728250D02*
Y767750D01*
X1738000Y728250D02*
Y767750D01*
X1695750Y947000D02*
Y967000D01*
X1708250Y947000D02*
Y967000D01*
X1695750Y947000D02*
X1708250D01*
X1695750Y967000D02*
X1708250D01*
X1962750Y968000D02*
X1975250D01*
X1962750Y988000D02*
X1975250D01*
X1962750Y968000D02*
Y988000D01*
X1975250Y968000D02*
Y988000D01*
X1626500Y907500D02*
X1751500D01*
X1626500Y782500D02*
X1751500D01*
X1626500D02*
Y907500D01*
X1751500Y782500D02*
Y907500D01*
X2095600Y757650D02*
Y770350D01*
X2118400Y757650D02*
Y770350D01*
X2095600D02*
X2118400D01*
X2095600Y757650D02*
X2118400D01*
X2455350Y1181600D02*
Y1204400D01*
X2442650Y1181600D02*
Y1204400D01*
X2455350D01*
X2442650Y1181600D02*
X2455350D01*
X1944400Y1064150D02*
Y1076850D01*
X1921600Y1064150D02*
Y1076850D01*
Y1064150D02*
X1944400D01*
X1921600Y1076850D02*
X1944400D01*
X1921600Y1051350D02*
X1944400D01*
X1921600Y1038650D02*
X1944400D01*
X1921600D02*
Y1051350D01*
X1944400Y1038650D02*
Y1051350D01*
X1990650Y1242400D02*
X2003350D01*
X1990650Y1219600D02*
X2003350D01*
Y1242400D01*
X1990650Y1219600D02*
Y1242400D01*
X2457350Y1276600D02*
Y1299400D01*
X2444650Y1276600D02*
Y1299400D01*
X2457350D01*
X2444650Y1276600D02*
X2457350D01*
X2168600Y794650D02*
Y807350D01*
X2191400Y794650D02*
Y807350D01*
X2168600D02*
X2191400D01*
X2168600Y794650D02*
X2191400D01*
X2457350Y1366600D02*
Y1389400D01*
X2444650Y1366600D02*
Y1389400D01*
X2457350D01*
X2444650Y1366600D02*
X2457350D01*
X2641600Y1267650D02*
Y1280350D01*
X2664400Y1267650D02*
Y1280350D01*
X2641600D02*
X2664400D01*
X2641600Y1267650D02*
X2664400D01*
X2641600Y1300650D02*
X2664400D01*
X2641600Y1313350D02*
X2664400D01*
Y1300650D02*
Y1313350D01*
X2641600Y1300650D02*
Y1313350D01*
X2642600Y1332650D02*
Y1345350D01*
X2665400Y1332650D02*
Y1345350D01*
X2642600D02*
X2665400D01*
X2642600Y1332650D02*
X2665400D01*
X1975350Y1014600D02*
Y1037400D01*
X1962650Y1014600D02*
Y1037400D01*
X1975350D01*
X1962650Y1014600D02*
X1975350D01*
X2643600Y1364650D02*
Y1377350D01*
X2666400Y1364650D02*
Y1377350D01*
X2643600D02*
X2666400D01*
X2643600Y1364650D02*
X2666400D01*
X2110350Y960600D02*
Y983400D01*
X2097650Y960600D02*
Y983400D01*
X2110350D01*
X2097650Y960600D02*
X2110350D01*
X1667650Y954400D02*
X1680350D01*
X1667650Y931600D02*
X1680350D01*
Y954400D01*
X1667650Y931600D02*
Y954400D01*
X1617350Y732600D02*
Y755400D01*
X1604650Y732600D02*
Y755400D01*
X1617350D01*
X1604650Y732600D02*
X1617350D01*
X1630650Y755400D02*
X1643350D01*
X1630650Y732600D02*
X1643350D01*
Y755400D01*
X1630650Y732600D02*
Y755400D01*
X1665600Y669650D02*
X1688400D01*
X1665600Y682350D02*
X1688400D01*
Y669650D02*
Y682350D01*
X1665600Y669650D02*
Y682350D01*
X2008000Y1039000D02*
X2148000D01*
X2008000Y1179000D02*
X2148000D01*
Y1039000D02*
Y1179000D01*
X2008000Y1039000D02*
Y1179000D01*
X2253400Y1030200D02*
Y1067800D01*
X2300600Y1030200D02*
Y1067800D01*
X2253400Y1030200D02*
X2300600D01*
X2253400Y1067800D02*
X2300600D01*
X1656000Y747000D02*
X1706000D01*
X1656000Y707000D02*
X1706000D01*
Y747000D01*
X1656000Y707000D02*
Y747000D01*
X1732250Y920750D02*
X1749750D01*
X1732250Y951250D02*
X1749750D01*
Y920750D02*
Y951250D01*
X1732250Y920750D02*
Y951250D01*
X1535500Y1054000D02*
X1640500D01*
X1535500Y998000D02*
X1640500D01*
Y1054000D01*
X1535500Y998000D02*
Y1054000D01*
X1900000Y965750D02*
Y1079250D01*
X1853000Y965750D02*
Y1079250D01*
X1900000D01*
X1853000Y965750D02*
X1900000D01*
X1877500Y1160500D02*
X1957500D01*
X1877500Y1128500D02*
X1957500D01*
Y1160500D01*
X1877500Y1128500D02*
Y1160500D01*
X1730950Y701750D02*
X1753050D01*
X1730950Y716250D02*
X1753050D01*
Y701750D02*
Y716250D01*
X1730950Y701750D02*
Y716250D01*
X2038600Y756650D02*
Y769350D01*
X2061400Y756650D02*
Y769350D01*
X2038600D02*
X2061400D01*
X2038600Y756650D02*
X2061400D01*
X1566250Y1086950D02*
Y1109050D01*
X1551750Y1086950D02*
Y1109050D01*
X1566250D01*
X1551750Y1086950D02*
X1566250D01*
X2343950Y805250D02*
X2366050D01*
X2343950Y790750D02*
X2366050D01*
X2343950D02*
Y805250D01*
X2366050Y790750D02*
Y805250D01*
X2343950Y782250D02*
X2366050D01*
X2343950Y767750D02*
X2366050D01*
X2343950D02*
Y782250D01*
X2366050Y767750D02*
Y782250D01*
X2545750Y876950D02*
Y899050D01*
X2560250Y876950D02*
Y899050D01*
X2545750Y876950D02*
X2560250D01*
X2545750Y899050D02*
X2560250D01*
X1706900Y1255400D02*
Y1268100D01*
X1684100Y1255400D02*
Y1268100D01*
Y1255400D02*
X1706900D01*
X1684100Y1268100D02*
X1706900D01*
X1666500Y1242750D02*
X1706500D01*
X1666500Y1154750D02*
X1706500D01*
X1666500D02*
Y1242750D01*
X1706500Y1154750D02*
Y1242750D01*
X1773700Y1340250D02*
X1795800D01*
X1773700Y1325750D02*
X1795800D01*
X1773700D02*
Y1340250D01*
X1795800Y1325750D02*
Y1340250D01*
X1773450Y1370250D02*
X1795550D01*
X1773450Y1355750D02*
X1795550D01*
X1773450D02*
Y1370250D01*
X1795550Y1355750D02*
Y1370250D01*
X1891000Y1333450D02*
Y1355550D01*
X1905500Y1333450D02*
Y1355550D01*
X1891000Y1333450D02*
X1905500D01*
X1891000Y1355550D02*
X1905500D01*
X1919000Y1333450D02*
Y1355550D01*
X1933500Y1333450D02*
Y1355550D01*
X1919000Y1333450D02*
X1933500D01*
X1919000Y1355550D02*
X1933500D01*
X1947000Y1333450D02*
Y1355550D01*
X1961500Y1333450D02*
Y1355550D01*
X1947000Y1333450D02*
X1961500D01*
X1947000Y1355550D02*
X1961500D01*
X1975000Y1333450D02*
Y1355550D01*
X1989500Y1333450D02*
Y1355550D01*
X1975000Y1333450D02*
X1989500D01*
X1975000Y1355550D02*
X1989500D01*
X2987250Y1438950D02*
Y1461050D01*
X2972750Y1438950D02*
Y1461050D01*
X2987250D01*
X2972750Y1438950D02*
X2987250D01*
Y1483950D02*
Y1506050D01*
X2972750Y1483950D02*
Y1506050D01*
X2987250D01*
X2972750Y1483950D02*
X2987250D01*
X2863650Y1266400D02*
X2876350D01*
X2863650Y1243600D02*
X2876350D01*
Y1266400D01*
X2863650Y1243600D02*
Y1266400D01*
X1612150Y1194150D02*
X1624850D01*
X1612150Y1171350D02*
X1624850D01*
Y1194150D01*
X1612150Y1171350D02*
Y1194150D01*
X2963650Y1287400D02*
X2976350D01*
X2963650Y1264600D02*
X2976350D01*
Y1287400D01*
X2963650Y1264600D02*
Y1287400D01*
Y1379400D02*
X2976350D01*
X2963650Y1356600D02*
X2976350D01*
Y1379400D01*
X2963650Y1356600D02*
Y1379400D01*
X1838500Y1329250D02*
X1856000D01*
X1838500Y1359750D02*
X1856000D01*
Y1329250D02*
Y1359750D01*
X1838500Y1329250D02*
Y1359750D01*
X2847500Y1422000D02*
X2952500D01*
X2847500Y1478000D02*
X2952500D01*
X2847500Y1422000D02*
Y1478000D01*
X2952500Y1422000D02*
Y1478000D01*
X2856000Y1350000D02*
X2944000D01*
X2856000Y1310000D02*
X2944000D01*
Y1350000D01*
X2856000Y1310000D02*
Y1350000D01*
X2963650Y1311600D02*
X2976350D01*
X2963650Y1334400D02*
X2976350D01*
X2963650Y1311600D02*
Y1334400D01*
X2976350Y1311600D02*
Y1334400D01*
X1448700Y1506750D02*
X1470800D01*
X1448700Y1492250D02*
X1470800D01*
X1448700D02*
Y1506750D01*
X1470800Y1492250D02*
Y1506750D01*
D55*
X2956587Y728000D02*
G03*
X2956587Y728000I-61587J0D01*
G01*
X2337587Y1048000D02*
G03*
X2337587Y1048000I-61587J0D01*
G01*
X3000000Y632540D02*
Y1680540D01*
X1400000Y1633810D02*
Y1680540D01*
X2258107Y1678000D02*
X3000000D01*
X1400000D02*
X2166186D01*
X2984760Y1683080D02*
X3000000Y1678000D01*
X2984760Y1672920D02*
X3000000Y1678000D01*
X1400000D02*
X1415240Y1672920D01*
X1400000Y1678000D02*
X1415240Y1683080D01*
X2803810Y1630000D02*
X3109790D01*
X2803810Y630000D02*
X3109790D01*
X3107250Y1171896D02*
Y1630000D01*
Y630000D02*
Y1079976D01*
X3102170Y1614760D02*
X3107250Y1630000D01*
X3112330Y1614760D01*
X3107250Y630000D02*
X3112330Y645240D01*
X3102170D02*
X3107250Y630000D01*
X2800000D02*
X3000000D01*
Y1630000D01*
X2800000D02*
X3000000D01*
X1400000Y630000D02*
Y1630000D01*
Y630000D02*
X2800000D01*
Y1630000D01*
X1400000D02*
X2800000D01*
D56*
X2170250Y1677750D02*
X2175328D01*
X2172789D01*
Y1692985D01*
X2170250Y1690446D01*
X2193103Y1692985D02*
X2188024Y1690446D01*
X2182946Y1685367D01*
Y1680289D01*
X2185485Y1677750D01*
X2190563D01*
X2193103Y1680289D01*
Y1682828D01*
X2190563Y1685367D01*
X2182946D01*
X2198181Y1690446D02*
X2200720Y1692985D01*
X2205798D01*
X2208338Y1690446D01*
Y1680289D01*
X2205798Y1677750D01*
X2200720D01*
X2198181Y1680289D01*
Y1690446D01*
X2215955Y1675211D02*
X2218494Y1677750D01*
Y1680289D01*
X2215955D01*
Y1677750D01*
X2218494D01*
X2215955Y1675211D01*
X2213416Y1672672D01*
X2228651Y1690446D02*
X2231190Y1692985D01*
X2236269D01*
X2238808Y1690446D01*
Y1680289D01*
X2236269Y1677750D01*
X2231190D01*
X2228651Y1680289D01*
Y1690446D01*
X2243886D02*
X2246425Y1692985D01*
X2251504D01*
X2254043Y1690446D01*
Y1680289D01*
X2251504Y1677750D01*
X2246425D01*
X2243886Y1680289D01*
Y1690446D01*
X3118931Y1084040D02*
Y1089118D01*
Y1086579D01*
X3103696D01*
X3106235Y1084040D01*
Y1096735D02*
X3103696Y1099275D01*
Y1104353D01*
X3106235Y1106892D01*
X3116392D01*
X3118931Y1104353D01*
Y1099275D01*
X3116392Y1096735D01*
X3106235D01*
Y1111971D02*
X3103696Y1114510D01*
Y1119588D01*
X3106235Y1122127D01*
X3116392D01*
X3118931Y1119588D01*
Y1114510D01*
X3116392Y1111971D01*
X3106235D01*
X3121470Y1129745D02*
X3118931Y1132284D01*
X3116392D01*
Y1129745D01*
X3118931D01*
Y1132284D01*
X3121470Y1129745D01*
X3124009Y1127206D01*
X3106235Y1142441D02*
X3103696Y1144980D01*
Y1150058D01*
X3106235Y1152597D01*
X3116392D01*
X3118931Y1150058D01*
Y1144980D01*
X3116392Y1142441D01*
X3106235D01*
Y1157676D02*
X3103696Y1160215D01*
Y1165293D01*
X3106235Y1167832D01*
X3116392D01*
X3118931Y1165293D01*
Y1160215D01*
X3116392Y1157676D01*
X3106235D01*
D57*
X1585000Y847561D02*
D03*
D58*
X1728409Y665000D02*
D03*
D76*
X1751910Y1421200D02*
X1796360D01*
X1751910Y1395800D02*
Y1421200D01*
Y1395800D02*
X1796360D01*
Y1421200D01*
X1750910Y1450450D02*
X1795360D01*
X1750910Y1425050D02*
Y1450450D01*
Y1425050D02*
X1795360D01*
Y1450450D01*
X1717250Y1479750D02*
Y1579750D01*
X1719750Y1582250D01*
X1807250D01*
Y1479750D02*
Y1582250D01*
X1717250Y1479750D02*
X1807250D01*
X1807000Y1504750D02*
X1848000D01*
X1807000D02*
Y1554750D01*
X1848000D01*
Y1504750D02*
Y1554750D01*
X2817000Y1381000D02*
X2837000D01*
Y1347000D02*
Y1381000D01*
X2817000Y1347000D02*
X2837000D01*
X2817000D02*
Y1381000D01*
X2819000Y1367000D02*
X2825000D01*
X2822000D02*
X2825000Y1362000D01*
X2819000D02*
X2822000Y1367000D01*
X2819000Y1362000D02*
X2825000D01*
X2822000Y1354000D02*
Y1362000D01*
Y1367000D02*
Y1373000D01*
X2839700Y1419140D02*
Y1463590D01*
X2814300D02*
X2839700D01*
X2814300Y1419140D02*
Y1463590D01*
Y1419140D02*
X2839700D01*
X2814300Y1301410D02*
Y1345860D01*
Y1301410D02*
X2839700D01*
Y1345860D01*
X2814300D02*
X2839700D01*
X2817000Y1385000D02*
X2837000D01*
X2817000D02*
Y1419000D01*
X2837000D01*
Y1385000D02*
Y1419000D01*
X2829000Y1399000D02*
X2835000D01*
X2829000Y1404000D02*
X2832000Y1399000D01*
X2835000Y1404000D01*
X2829000D02*
X2835000D01*
X2832000D02*
Y1412000D01*
Y1393000D02*
Y1399000D01*
X1435800Y1426910D02*
Y1471360D01*
Y1426910D02*
X1461200D01*
Y1471360D01*
X1435800D02*
X1461200D01*
X2877000Y756000D02*
X2921000D01*
X2877000Y704000D02*
Y756000D01*
Y704000D02*
X2921000D01*
Y756000D01*
X2919000Y690000D02*
Y768000D01*
X2940000D01*
X2919000Y690000D02*
X2940000D01*
Y768000D01*
X2849000Y689000D02*
Y768000D01*
X2871000D01*
Y689000D02*
Y768000D01*
X2849000Y689000D02*
X2871000D01*
X2983700Y696140D02*
Y740590D01*
X2958300D02*
X2983700D01*
X2958300Y696140D02*
Y740590D01*
Y696140D02*
X2983700D01*
X2876140Y675300D02*
X2920590D01*
Y700700D01*
X2876140D02*
X2920590D01*
X2876140Y675300D02*
Y700700D01*
X1826410Y793700D02*
X1870860D01*
X1826410Y768300D02*
Y793700D01*
Y768300D02*
X1870860D01*
Y793700D01*
X1861700Y861140D02*
Y905590D01*
X1836300D02*
X1861700D01*
X1836300Y861140D02*
Y905590D01*
Y861140D02*
X1861700D01*
X1809000Y795000D02*
X1849000D01*
X1809000D02*
Y835000D01*
X1849000D01*
Y795000D02*
Y835000D01*
X1643250Y1006030D02*
X1705480D01*
Y1033970D01*
X1643250D02*
X1705480D01*
X1643250Y1006030D02*
Y1033970D01*
Y1033030D02*
X1705480D01*
Y1060970D01*
X1643250D02*
X1705480D01*
X1643250Y1033030D02*
Y1060970D01*
Y1060030D02*
X1705480D01*
Y1087970D01*
X1643250D02*
X1705480D01*
X1643250Y1060030D02*
Y1087970D01*
X1821000Y639500D02*
X1941000D01*
Y752000D01*
X1821000D02*
X1941000D01*
X1821000Y639500D02*
Y752000D01*
X2305140Y1270300D02*
X2349590D01*
Y1295700D01*
X2305140D02*
X2349590D01*
X2305140Y1270300D02*
Y1295700D01*
X2250410D02*
X2294860D01*
X2250410Y1270300D02*
Y1295700D01*
Y1270300D02*
X2294860D01*
Y1295700D01*
X1531030Y794750D02*
X1558970D01*
Y732520D02*
Y794750D01*
X1531030Y732520D02*
X1558970D01*
X1531030D02*
Y794750D01*
X2202860Y762300D02*
Y787700D01*
X2158410Y762300D02*
X2202860D01*
X2158410D02*
Y787700D01*
X2202860D01*
X2463300Y1215860D02*
X2488700D01*
Y1171410D02*
Y1215860D01*
X2463300Y1171410D02*
X2488700D01*
X2463300D02*
Y1215860D01*
X2465300Y1310860D02*
X2490700D01*
Y1266410D02*
Y1310860D01*
X2465300Y1266410D02*
X2490700D01*
X2465300D02*
Y1310860D01*
X2465300Y1400860D02*
X2490700D01*
Y1356410D02*
Y1400860D01*
X2465300Y1356410D02*
X2490700D01*
X2465300D02*
Y1400860D01*
X1823800Y1085360D02*
X1849200D01*
Y1040910D02*
Y1085360D01*
X1823800Y1040910D02*
X1849200D01*
X1823800D02*
Y1085360D01*
Y959640D02*
X1849200D01*
X1823800D02*
Y1004090D01*
X1849200D01*
Y959640D02*
Y1004090D01*
X1917860Y1089300D02*
Y1114700D01*
X1873410Y1089300D02*
X1917860D01*
X1873410D02*
Y1114700D01*
X1917860D01*
X2152300Y1000860D02*
X2177700D01*
Y956410D02*
Y1000860D01*
X2152300Y956410D02*
X2177700D01*
X2152300D02*
Y1000860D01*
X2170300Y1158140D02*
X2195700D01*
X2170300D02*
Y1202590D01*
X2195700D01*
Y1158140D02*
Y1202590D01*
X2013300Y1208140D02*
X2038700D01*
X2013300D02*
Y1252590D01*
X2038700D01*
Y1208140D02*
Y1252590D01*
X2045300Y986860D02*
X2070700D01*
Y942410D02*
Y986860D01*
X2045300Y942410D02*
X2070700D01*
X2045300D02*
Y986860D01*
X1990140Y989300D02*
Y1014700D01*
X2034590D01*
Y989300D02*
Y1014700D01*
X1990140Y989300D02*
X2034590D01*
X2041300Y1208140D02*
X2066700D01*
X2041300D02*
Y1252590D01*
X2066700D01*
Y1208140D02*
Y1252590D01*
X2134300Y1211140D02*
X2159700D01*
X2134300D02*
Y1255590D01*
X2159700D01*
Y1211140D02*
Y1255590D01*
X1955860Y970300D02*
Y995700D01*
X1911410Y970300D02*
X1955860D01*
X1911410D02*
Y995700D01*
X1955860D01*
Y997300D02*
Y1022700D01*
X1911410Y997300D02*
X1955860D01*
X1911410D02*
Y1022700D01*
X1955860D01*
X2166300Y1211140D02*
X2191700D01*
X2166300D02*
Y1255590D01*
X2191700D01*
Y1211140D02*
Y1255590D01*
X2125300Y1000860D02*
X2150700D01*
Y956410D02*
Y1000860D01*
X2125300Y956410D02*
X2150700D01*
X2125300D02*
Y1000860D01*
X1991300Y941140D02*
X2016700D01*
X1991300D02*
Y985590D01*
X2016700D01*
Y941140D02*
Y985590D01*
X2019300Y941140D02*
X2044700D01*
X2019300D02*
Y985590D01*
X2044700D01*
Y941140D02*
Y985590D01*
X1962860Y1207300D02*
Y1232700D01*
X1918410Y1207300D02*
X1962860D01*
X1918410D02*
Y1232700D01*
X1962860D01*
Y1174300D02*
Y1199700D01*
X1918410Y1174300D02*
X1962860D01*
X1918410D02*
Y1199700D01*
X1962860D01*
Y1089300D02*
Y1114700D01*
X1918410Y1089300D02*
X1962860D01*
X1918410D02*
Y1114700D01*
X1962860D01*
X2351300Y1080860D02*
X2376700D01*
Y1036410D02*
Y1080860D01*
X2351300Y1036410D02*
X2376700D01*
X2351300D02*
Y1080860D01*
X2381300D02*
X2406700D01*
Y1036410D02*
Y1080860D01*
X2381300Y1036410D02*
X2406700D01*
X2381300D02*
Y1080860D01*
X2439300D02*
X2464700D01*
Y1036410D02*
Y1080860D01*
X2439300Y1036410D02*
X2464700D01*
X2439300D02*
Y1080860D01*
X2410300D02*
X2435700D01*
Y1036410D02*
Y1080860D01*
X2410300Y1036410D02*
X2435700D01*
X2410300D02*
Y1080860D01*
X1564680Y863450D02*
X1605320D01*
Y778360D02*
Y863450D01*
X1564680Y778360D02*
X1605320D01*
X1564680D02*
Y863450D01*
X1713010Y639600D02*
X1804450D01*
Y690400D01*
X1711740D02*
X1804450D01*
X1711740Y640870D02*
Y690400D01*
Y640870D02*
X1713010Y639600D01*
X1724440Y691670D02*
Y698020D01*
X1719360Y694210D02*
X1729520D01*
X1625300Y713860D02*
X1650700D01*
Y669410D02*
Y713860D01*
X1625300Y669410D02*
X1650700D01*
X1625300D02*
Y713860D01*
X1598300Y713860D02*
X1623700D01*
Y669410D02*
Y713860D01*
X1598300Y669410D02*
X1623700D01*
X1598300D02*
Y713860D01*
X1606300Y920140D02*
X1631700D01*
X1606300D02*
Y964590D01*
X1631700D01*
Y920140D02*
Y964590D01*
X1634300Y920140D02*
X1659700D01*
X1634300D02*
Y964590D01*
X1659700D01*
Y920140D02*
Y964590D01*
X1771140Y856300D02*
Y881700D01*
X1815590D01*
Y856300D02*
Y881700D01*
X1771140Y856300D02*
X1815590D01*
X1771140Y885300D02*
Y910700D01*
X1815590D01*
Y885300D02*
Y910700D01*
X1771140Y885300D02*
X1815590D01*
X1771140Y914300D02*
Y939700D01*
X1815590D01*
Y914300D02*
Y939700D01*
X1771140Y914300D02*
X1815590D01*
X2716000Y1264000D02*
Y1284000D01*
X2682000Y1264000D02*
X2716000D01*
X2682000D02*
Y1284000D01*
X2716000D01*
X2702000Y1276000D02*
Y1282000D01*
X2697000Y1276000D02*
X2702000Y1279000D01*
X2697000Y1282000D02*
X2702000Y1279000D01*
X2697000Y1276000D02*
Y1282000D01*
X2689000Y1279000D02*
X2697000D01*
X2702000D02*
X2708000D01*
X2702000Y1313000D02*
X2708000D01*
X2689000D02*
X2697000D01*
Y1310000D02*
Y1316000D01*
X2702000Y1313000D01*
X2697000Y1310000D02*
X2702000Y1313000D01*
Y1310000D02*
Y1316000D01*
X2682000Y1318000D02*
X2716000D01*
X2682000Y1298000D02*
Y1318000D01*
Y1298000D02*
X2716000D01*
Y1318000D01*
X2717000Y1330000D02*
Y1350000D01*
X2683000Y1330000D02*
X2717000D01*
X2683000D02*
Y1350000D01*
X2717000D01*
X2703000Y1342000D02*
Y1348000D01*
X2698000Y1342000D02*
X2703000Y1345000D01*
X2698000Y1348000D02*
X2703000Y1345000D01*
X2698000Y1342000D02*
Y1348000D01*
X2690000Y1345000D02*
X2698000D01*
X2703000D02*
X2709000D01*
X2704000Y1377000D02*
X2710000D01*
X2691000D02*
X2699000D01*
Y1374000D02*
Y1380000D01*
X2704000Y1377000D01*
X2699000Y1374000D02*
X2704000Y1377000D01*
Y1374000D02*
Y1380000D01*
X2684000Y1382000D02*
X2718000D01*
X2684000Y1362000D02*
Y1382000D01*
Y1362000D02*
X2718000D01*
Y1382000D01*
X1726000Y727000D02*
Y770000D01*
X1793000D01*
Y727000D02*
Y770000D01*
X1726000Y727000D02*
X1793000D01*
X1692000Y974000D02*
X1712000D01*
Y940000D02*
Y974000D01*
X1692000Y940000D02*
X1712000D01*
X1692000D02*
Y974000D01*
X1694000Y960000D02*
X1700000D01*
X1697000D02*
X1700000Y955000D01*
X1694000D02*
X1697000Y960000D01*
X1694000Y955000D02*
X1700000D01*
X1697000Y947000D02*
Y955000D01*
Y960000D02*
Y966000D01*
X1974000Y969000D02*
Y975000D01*
Y980000D02*
Y988000D01*
X1971000Y980000D02*
X1977000D01*
X1974000Y975000D02*
X1977000Y980000D01*
X1971000D02*
X1974000Y975000D01*
X1971000D02*
X1977000D01*
X1979000Y961000D02*
Y995000D01*
X1959000D02*
X1979000D01*
X1959000Y961000D02*
Y995000D01*
Y961000D02*
X1979000D01*
X1764000Y780000D02*
Y910000D01*
X1614000Y780000D02*
X1764000D01*
X1614000D02*
Y910000D01*
X1764000D01*
X2084140Y751300D02*
Y776700D01*
X2128590D01*
Y751300D02*
Y776700D01*
X2084140Y751300D02*
X2128590D01*
X2461700Y1170140D02*
Y1214590D01*
X2436300D02*
X2461700D01*
X2436300Y1170140D02*
Y1214590D01*
Y1170140D02*
X2461700D01*
X1955860Y1057800D02*
Y1083200D01*
X1911410Y1057800D02*
X1955860D01*
X1911410D02*
Y1083200D01*
X1955860D01*
X1911410Y1057700D02*
X1955860D01*
X1911410Y1032300D02*
Y1057700D01*
Y1032300D02*
X1955860D01*
Y1057700D01*
X1984300Y1253860D02*
X2009700D01*
Y1209410D02*
Y1253860D01*
X1984300Y1209410D02*
X2009700D01*
X1984300D02*
Y1253860D01*
X2463700Y1265140D02*
Y1309590D01*
X2438300D02*
X2463700D01*
X2438300Y1265140D02*
Y1309590D01*
Y1265140D02*
X2463700D01*
X2157140Y788300D02*
Y813700D01*
X2201590D01*
Y788300D02*
Y813700D01*
X2157140Y788300D02*
X2201590D01*
X2463700Y1355140D02*
Y1399590D01*
X2438300D02*
X2463700D01*
X2438300Y1355140D02*
Y1399590D01*
Y1355140D02*
X2463700D01*
X2630140Y1261300D02*
Y1286700D01*
X2674590D01*
Y1261300D02*
Y1286700D01*
X2630140Y1261300D02*
X2674590D01*
X2630140Y1294300D02*
X2674590D01*
Y1319700D01*
X2630140D02*
X2674590D01*
X2630140Y1294300D02*
Y1319700D01*
X2631140Y1326300D02*
Y1351700D01*
X2675590D01*
Y1326300D02*
Y1351700D01*
X2631140Y1326300D02*
X2675590D01*
X1981700Y1003140D02*
Y1047590D01*
X1956300D02*
X1981700D01*
X1956300Y1003140D02*
Y1047590D01*
Y1003140D02*
X1981700D01*
X2632140Y1358300D02*
Y1383700D01*
X2676590D01*
Y1358300D02*
Y1383700D01*
X2632140Y1358300D02*
X2676590D01*
X2116700Y949140D02*
Y993590D01*
X2091300D02*
X2116700D01*
X2091300Y949140D02*
Y993590D01*
Y949140D02*
X2116700D01*
X1661300Y965860D02*
X1686700D01*
Y921410D02*
Y965860D01*
X1661300Y921410D02*
X1686700D01*
X1661300D02*
Y965860D01*
X1623700Y721140D02*
Y765590D01*
X1598300D02*
X1623700D01*
X1598300Y721140D02*
Y765590D01*
Y721140D02*
X1623700D01*
X1624300Y766860D02*
X1649700D01*
Y722410D02*
Y766860D01*
X1624300Y722410D02*
X1649700D01*
X1624300D02*
Y766860D01*
X1654140Y663300D02*
X1698590D01*
Y688700D01*
X1654140D02*
X1698590D01*
X1654140Y663300D02*
Y688700D01*
X1986000Y1018000D02*
X1987000Y1200000D01*
X2170000D01*
X2169000Y1018000D02*
X2170000Y1200000D01*
X1986000Y1018000D02*
X2169000D01*
X2542000Y779000D02*
Y949000D01*
X2392000Y779000D02*
X2542000D01*
X2392000D02*
Y951500D01*
X2542000D01*
Y949000D02*
Y951500D01*
X2236000Y1072000D02*
X2314000D01*
X2236000D02*
Y1093000D01*
X2314000Y1072000D02*
Y1093000D01*
X2236000D02*
X2314000D01*
X2236000Y1002000D02*
X2315000D01*
X2236000D02*
Y1024000D01*
X2315000D01*
Y1002000D02*
Y1024000D01*
X2251000Y1027000D02*
Y1071000D01*
Y1027000D02*
X2303000D01*
Y1071000D01*
X2251000D02*
X2303000D01*
X1653500Y689500D02*
Y764500D01*
Y689500D02*
X1713500D01*
Y764500D01*
X1653500D02*
X1713500D01*
X1716000Y916000D02*
Y956000D01*
X1766000D01*
Y916000D02*
Y956000D01*
X1716000Y916000D02*
X1766000D01*
X1531000Y1077000D02*
X1645000D01*
X1531000Y975000D02*
Y1077000D01*
X1645000Y975000D02*
Y1077000D01*
X1531000Y975000D02*
X1645000D01*
X2049000Y744000D02*
X2133000D01*
X2049000Y640000D02*
Y744000D01*
Y640000D02*
X2133000D01*
Y744000D01*
X2100000Y681000D02*
X2122000D01*
X2064000D02*
X2088000D01*
X2082000Y672000D02*
X2105000D01*
X2093000Y658000D02*
Y672000D01*
X2098000Y668000D01*
X2089000D02*
X2093000Y672000D01*
X2211000Y668000D02*
X2215000Y672000D01*
X2220000Y668000D01*
X2215000Y658000D02*
Y672000D01*
X2204000D02*
X2227000D01*
X2186000Y681000D02*
X2210000D01*
X2222000D02*
X2244000D01*
X2255000Y640000D02*
Y744000D01*
X2171000Y640000D02*
X2255000D01*
X2171000D02*
Y744000D01*
X2255000D01*
X2596170Y1150820D02*
Y1234820D01*
X2492170D02*
X2596170D01*
X2492170Y1150820D02*
Y1234820D01*
Y1150820D02*
X2596170D01*
X2533170Y1161820D02*
Y1183820D01*
Y1195820D02*
Y1219820D01*
X2524170Y1178820D02*
Y1201820D01*
X2510170Y1190820D02*
X2524170D01*
X2520170Y1185820D02*
X2524170Y1190820D01*
X2520170Y1194820D02*
X2524170Y1190820D01*
X2521170Y1288070D02*
X2525170Y1284070D01*
X2521170Y1279070D02*
X2525170Y1284070D01*
X2511170D02*
X2525170D01*
Y1272070D02*
Y1295070D01*
X2534170Y1289070D02*
Y1313070D01*
Y1255070D02*
Y1277070D01*
X2493170Y1244070D02*
X2597170D01*
X2493170D02*
Y1328070D01*
X2597170D01*
Y1244070D02*
Y1328070D01*
X2597000Y1337000D02*
Y1421000D01*
X2493000D02*
X2597000D01*
X2493000Y1337000D02*
Y1421000D01*
Y1337000D02*
X2597000D01*
X2534000Y1348000D02*
Y1370000D01*
Y1382000D02*
Y1406000D01*
X2525000Y1365000D02*
Y1388000D01*
X2511000Y1377000D02*
X2525000D01*
X2521000Y1372000D02*
X2525000Y1377000D01*
X2521000Y1381000D02*
X2525000Y1377000D01*
X1852500Y956500D02*
X1901500D01*
X1852500D02*
Y1088500D01*
X1900500D01*
X1901500Y956500D01*
X2372000Y647500D02*
Y672500D01*
X2529500D01*
Y647500D02*
Y672500D01*
X2372000Y647500D02*
X2529500D01*
X1403500Y842500D02*
Y952500D01*
Y842500D02*
X1503500D01*
Y952500D01*
X1403500D02*
X1503500D01*
X2145500Y1305500D02*
Y1613000D01*
X2428000Y1305500D02*
Y1613000D01*
X2145500Y1305500D02*
X2428000D01*
X1407500Y1090000D02*
X1520000D01*
Y970000D02*
Y1090000D01*
X1407500Y970000D02*
X1520000D01*
X1407500D02*
Y1090000D01*
X1872500Y1116500D02*
Y1172500D01*
Y1116500D02*
X1962500D01*
Y1172500D01*
X1872500D02*
X1962500D01*
X1719140Y696300D02*
Y721700D01*
X1763590D01*
Y696300D02*
Y721700D01*
X1719140Y696300D02*
X1763590D01*
X2027140Y750300D02*
Y775700D01*
X2071590D01*
Y750300D02*
Y775700D01*
X2027140Y750300D02*
X2071590D01*
X1546300Y1075140D02*
X1571700D01*
X1546300D02*
Y1119590D01*
X1571700D01*
Y1075140D02*
Y1119590D01*
X2377860Y785300D02*
Y810700D01*
X2333410Y785300D02*
X2377860D01*
X2333410D02*
Y810700D01*
X2377860D01*
Y762300D02*
Y787700D01*
X2333410Y762300D02*
X2377860D01*
X2333410D02*
Y787700D01*
X2377860D01*
X2540300Y910860D02*
X2565700D01*
Y866410D02*
Y910860D01*
X2540300Y866410D02*
X2565700D01*
X2540300D02*
Y910860D01*
X1718360Y1249050D02*
Y1274450D01*
X1673910Y1249050D02*
X1718360D01*
X1673910D02*
Y1274450D01*
X1718360D01*
X1807610Y1320300D02*
Y1345700D01*
X1763160Y1320300D02*
X1807610D01*
X1763160D02*
Y1345700D01*
X1807610D01*
X1807360Y1350300D02*
Y1375700D01*
X1762910Y1350300D02*
X1807360D01*
X1762910D02*
Y1375700D01*
X1807360D01*
X1885550Y1367360D02*
X1910950D01*
Y1322910D02*
Y1367360D01*
X1885550Y1322910D02*
X1910950D01*
X1885550D02*
Y1367360D01*
X1913550D02*
X1938950D01*
Y1322910D02*
Y1367360D01*
X1913550Y1322910D02*
X1938950D01*
X1913550D02*
Y1367360D01*
X1941550D02*
X1966950D01*
Y1322910D02*
Y1367360D01*
X1941550Y1322910D02*
X1966950D01*
X1941550D02*
Y1367360D01*
X1969550D02*
X1994950D01*
Y1322910D02*
Y1367360D01*
X1969550Y1322910D02*
X1994950D01*
X1969550D02*
Y1367360D01*
X2967300Y1427140D02*
X2992700D01*
X2967300D02*
Y1471590D01*
X2992700D01*
Y1427140D02*
Y1471590D01*
X2967300Y1472140D02*
X2992700D01*
X2967300D02*
Y1516590D01*
X2992700D01*
Y1472140D02*
Y1516590D01*
X2857300Y1277860D02*
X2882700D01*
Y1233410D02*
Y1277860D01*
X2857300Y1233410D02*
X2882700D01*
X2857300D02*
Y1277860D01*
X1605800Y1205610D02*
X1631200D01*
Y1161160D02*
Y1205610D01*
X1605800Y1161160D02*
X1631200D01*
X1605800D02*
Y1205610D01*
X2957300Y1298860D02*
X2982700D01*
Y1254410D02*
Y1298860D01*
X2957300Y1254410D02*
X2982700D01*
X2957300D02*
Y1298860D01*
Y1390860D02*
X2982700D01*
Y1346410D02*
Y1390860D01*
X2957300Y1346410D02*
X2982700D01*
X2957300D02*
Y1390860D01*
X1822250Y1324500D02*
Y1364500D01*
X1872250D01*
Y1324500D02*
Y1364500D01*
X1822250Y1324500D02*
X1872250D01*
X2843000Y1399000D02*
X2957000D01*
Y1501000D01*
X2843000Y1399000D02*
Y1501000D01*
X2957000D01*
X1476500Y1540500D02*
Y1630500D01*
Y1540500D02*
X1579000D01*
Y1628000D01*
X1576500Y1630500D02*
X1579000Y1628000D01*
X1476500Y1630500D02*
X1576500D01*
X2960000Y1515000D02*
Y1627500D01*
X2840000Y1515000D02*
X2960000D01*
X2840000D02*
Y1627500D01*
X2960000D01*
X2957300Y1300140D02*
X2982700D01*
X2957300D02*
Y1344590D01*
X2982700D01*
Y1300140D02*
Y1344590D01*
X1482610Y1486800D02*
Y1512200D01*
X1438160Y1486800D02*
X1482610D01*
X1438160D02*
Y1512200D01*
X1482610D01*
X1529000Y1030000D02*
X1592480Y1056970D01*
X1530000Y1060000D02*
X1590000Y1030000D01*
X1530250Y1062030D02*
X1590000Y1090000D01*
X1530000D02*
X1600000Y1060000D01*
X1400000Y1630000D02*
X2800000D01*
Y630000D02*
Y1630000D01*
X1400000Y630000D02*
X2800000D01*
X1400000D02*
Y1630000D01*
M02*
