G04 Layer_Physical_Order=2*
G04 Layer_Color=16711680*
%FSLAX44Y44*%
%MOMM*%
G71*
G01*
G75*
G04:AMPARAMS|DCode=45|XSize=1.1mm|YSize=1.1mm|CornerRadius=0.11mm|HoleSize=0mm|Usage=FLASHONLY|Rotation=90.000|XOffset=0mm|YOffset=0mm|HoleType=Round|Shape=RoundedRectangle|*
%AMROUNDEDRECTD45*
21,1,1.1000,0.8800,0,0,90.0*
21,1,0.8800,1.1000,0,0,90.0*
1,1,0.2200,0.4400,0.4400*
1,1,0.2200,0.4400,-0.4400*
1,1,0.2200,-0.4400,-0.4400*
1,1,0.2200,-0.4400,0.4400*
%
%ADD45ROUNDEDRECTD45*%
G04:AMPARAMS|DCode=46|XSize=1.05mm|YSize=2.2mm|CornerRadius=0.0525mm|HoleSize=0mm|Usage=FLASHONLY|Rotation=90.000|XOffset=0mm|YOffset=0mm|HoleType=Round|Shape=RoundedRectangle|*
%AMROUNDEDRECTD46*
21,1,1.0500,2.0950,0,0,90.0*
21,1,0.9450,2.2000,0,0,90.0*
1,1,0.1050,1.0475,0.4725*
1,1,0.1050,1.0475,-0.4725*
1,1,0.1050,-1.0475,-0.4725*
1,1,0.1050,-1.0475,0.4725*
%
%ADD46ROUNDEDRECTD46*%
%ADD47C,0.2500*%
%ADD48C,0.4000*%
%ADD50C,0.3000*%
%ADD51C,0.5000*%
%ADD53C,0.9000*%
%ADD54C,0.1000*%
%ADD55C,0.2540*%
%ADD56C,0.1524*%
%ADD57R,0.9819X4.6000*%
%ADD58R,3.5000X0.8877*%
%ADD59C,2.5000*%
%ADD60C,3.8000*%
%ADD61C,1.5000*%
%ADD62R,1.5000X1.5000*%
%ADD63R,1.5000X1.5000*%
%ADD64C,1.5000*%
%ADD65R,1.5000X1.5000*%
%ADD66C,1.4000*%
%ADD67C,1.0000*%
%ADD68C,3.2000*%
%ADD69C,2.4000*%
%ADD70C,1.9000*%
%ADD71C,1.8000*%
%ADD72C,1.7000*%
%ADD73R,1.4000X1.4000*%
%ADD74R,1.8000X1.8000*%
%ADD75R,1.8000X1.8000*%
G36*
X2990000Y1174054D02*
X2988730Y1173459D01*
X2986039Y1174276D01*
X2984500Y1174427D01*
Y1159000D01*
X2983000D01*
Y1157500D01*
X2967573D01*
X2967724Y1155962D01*
X2968291Y1154094D01*
X2967272Y1153076D01*
X2966855Y1153203D01*
X2962150Y1153666D01*
X2957445Y1153203D01*
X2952921Y1151830D01*
X2948752Y1149602D01*
X2945097Y1146603D01*
X2942098Y1142948D01*
X2939870Y1138779D01*
X2938497Y1134255D01*
X2938034Y1129550D01*
X2938497Y1124845D01*
X2939870Y1120321D01*
X2942098Y1116152D01*
X2945097Y1112497D01*
X2948752Y1109498D01*
X2952921Y1107270D01*
X2957445Y1105897D01*
X2962150Y1105434D01*
X2966855Y1105897D01*
X2971379Y1107270D01*
X2975548Y1109498D01*
X2979203Y1112497D01*
X2982202Y1116152D01*
X2984431Y1120321D01*
X2985803Y1124845D01*
X2986266Y1129550D01*
X2985803Y1134255D01*
X2984431Y1138779D01*
X2982609Y1142187D01*
X2982753Y1142646D01*
X2983368Y1143461D01*
X2986039Y1143724D01*
X2988730Y1144541D01*
X2990000Y1143946D01*
Y1065000D01*
X2980655D01*
X2980000Y1065086D01*
X2979345Y1065000D01*
X2965655D01*
X2965000Y1065086D01*
X2964345Y1065000D01*
X2950655D01*
X2950000Y1065086D01*
X2949345Y1065000D01*
X2935655D01*
X2935000Y1065086D01*
X2934345Y1065000D01*
X2920655D01*
X2920000Y1065086D01*
X2919345Y1065000D01*
X2905655D01*
X2905000Y1065086D01*
X2904345Y1065000D01*
X2890655D01*
X2890000Y1065086D01*
X2889345Y1065000D01*
X2875655D01*
X2875000Y1065086D01*
X2874345Y1065000D01*
X2860655D01*
X2860000Y1065086D01*
X2859345Y1065000D01*
X2845655D01*
X2845000Y1065086D01*
X2844345Y1065000D01*
X2830655D01*
X2830000Y1065086D01*
X2829345Y1065000D01*
X2815655D01*
X2815000Y1065086D01*
X2814345Y1065000D01*
X2810000D01*
Y1069345D01*
X2810086Y1070000D01*
X2810000Y1070655D01*
Y1084345D01*
X2810086Y1085000D01*
X2810000Y1085655D01*
Y1099345D01*
X2810086Y1100000D01*
X2810000Y1100655D01*
Y1114345D01*
X2810086Y1115000D01*
X2810000Y1115655D01*
Y1129345D01*
X2810086Y1130000D01*
X2810000Y1130655D01*
Y1144345D01*
X2810086Y1145000D01*
X2810000Y1145655D01*
Y1159345D01*
X2810086Y1160000D01*
X2810000Y1160655D01*
Y1174345D01*
X2810086Y1175000D01*
X2810000Y1175655D01*
Y1189345D01*
X2810086Y1190000D01*
X2810000Y1190655D01*
Y1204345D01*
X2810086Y1205000D01*
X2810000Y1205655D01*
Y1219345D01*
X2810086Y1220000D01*
X2810000Y1220655D01*
Y1234345D01*
X2810086Y1235000D01*
X2810000Y1235655D01*
Y1249345D01*
X2810086Y1250000D01*
X2810000Y1250655D01*
Y1264345D01*
X2810086Y1265000D01*
X2810000Y1265655D01*
Y1279345D01*
X2810086Y1280000D01*
X2810000Y1280655D01*
Y1294345D01*
X2810086Y1295000D01*
X2810000Y1295655D01*
Y1309345D01*
X2810086Y1310000D01*
X2810000Y1310655D01*
Y1324345D01*
X2810086Y1325000D01*
X2810000Y1325655D01*
Y1339345D01*
X2810086Y1340000D01*
X2810000Y1340655D01*
Y1354345D01*
X2810086Y1355000D01*
X2810000Y1355655D01*
Y1369345D01*
X2810086Y1370000D01*
X2810000Y1370655D01*
Y1384345D01*
X2810086Y1385000D01*
X2810000Y1385655D01*
Y1399345D01*
X2810086Y1400000D01*
X2810000Y1400655D01*
Y1414345D01*
X2810086Y1415000D01*
X2810000Y1415655D01*
Y1429345D01*
X2810086Y1430000D01*
X2810000Y1430655D01*
Y1444345D01*
X2810086Y1445000D01*
X2810000Y1445655D01*
Y1459345D01*
X2810086Y1460000D01*
X2810000Y1460655D01*
Y1474345D01*
X2810086Y1475000D01*
X2810000Y1475655D01*
Y1489345D01*
X2810086Y1490000D01*
X2810000Y1490655D01*
Y1504345D01*
X2810086Y1505000D01*
X2810000Y1505655D01*
Y1519345D01*
X2810086Y1520000D01*
X2810000Y1520655D01*
Y1535345D01*
X2810086Y1536000D01*
X2810000Y1536655D01*
Y1550345D01*
X2810086Y1551000D01*
X2810000Y1551655D01*
Y1565345D01*
X2810086Y1566000D01*
X2810000Y1566655D01*
Y1580345D01*
X2810086Y1581000D01*
X2810000Y1581655D01*
Y1594345D01*
X2810086Y1595000D01*
X2810000Y1595655D01*
Y1609345D01*
X2810086Y1610000D01*
X2810000Y1610655D01*
Y1620000D01*
X2990000D01*
Y1174054D01*
D02*
G37*
G36*
X2790000Y1610655D02*
X2789914Y1610000D01*
X2790000Y1609345D01*
Y1595655D01*
X2789914Y1595000D01*
X2790000Y1594345D01*
Y1581655D01*
X2789914Y1581000D01*
X2790000Y1580345D01*
Y1566655D01*
X2789914Y1566000D01*
X2790000Y1565345D01*
Y1551655D01*
X2789914Y1551000D01*
X2790000Y1550345D01*
Y1536655D01*
X2789914Y1536000D01*
X2790000Y1535345D01*
Y1520655D01*
X2789914Y1520000D01*
X2790000Y1519345D01*
Y1505655D01*
X2789914Y1505000D01*
X2790000Y1504345D01*
Y1490655D01*
X2789914Y1490000D01*
X2790000Y1489345D01*
Y1475655D01*
X2789914Y1475000D01*
X2790000Y1474345D01*
Y1460655D01*
X2789914Y1460000D01*
X2790000Y1459345D01*
Y1445655D01*
X2789914Y1445000D01*
X2790000Y1444345D01*
Y1430655D01*
X2789914Y1430000D01*
X2790000Y1429345D01*
Y1415655D01*
X2789914Y1415000D01*
X2790000Y1414345D01*
Y1400655D01*
X2789914Y1400000D01*
X2790000Y1399345D01*
Y1385655D01*
X2789914Y1385000D01*
X2790000Y1384345D01*
Y1370655D01*
X2789914Y1370000D01*
X2790000Y1369345D01*
Y1355655D01*
X2789914Y1355000D01*
X2790000Y1354345D01*
Y1340655D01*
X2789914Y1340000D01*
X2790000Y1339345D01*
Y1325655D01*
X2789914Y1325000D01*
X2790000Y1324345D01*
Y1310655D01*
X2789914Y1310000D01*
X2790000Y1309345D01*
Y1295655D01*
X2789914Y1295000D01*
X2790000Y1294345D01*
Y1280655D01*
X2789914Y1280000D01*
X2790000Y1279345D01*
Y1265655D01*
X2789914Y1265000D01*
X2790000Y1264345D01*
Y1250655D01*
X2789914Y1250000D01*
X2790000Y1249345D01*
Y1235655D01*
X2789914Y1235000D01*
X2790000Y1234345D01*
Y1220655D01*
X2789914Y1220000D01*
X2790000Y1219345D01*
Y1205655D01*
X2789914Y1205000D01*
X2790000Y1204345D01*
Y1190655D01*
X2789914Y1190000D01*
X2790000Y1189345D01*
Y1175655D01*
X2789914Y1175000D01*
X2790000Y1174345D01*
Y1160655D01*
X2789914Y1160000D01*
X2790000Y1159345D01*
Y1145655D01*
X2789914Y1145000D01*
X2790000Y1144345D01*
Y1130655D01*
X2789914Y1130000D01*
X2790000Y1129345D01*
Y1115655D01*
X2789914Y1115000D01*
X2790000Y1114345D01*
Y1100655D01*
X2789914Y1100000D01*
X2790000Y1099345D01*
Y1085655D01*
X2789914Y1085000D01*
X2790000Y1084345D01*
Y1070655D01*
X2789914Y1070000D01*
X2790000Y1069345D01*
Y1055655D01*
X2789914Y1055000D01*
X2790000Y1054345D01*
Y1040655D01*
X2789914Y1040000D01*
X2790000Y1039345D01*
Y1025655D01*
X2789914Y1025000D01*
X2790000Y1024345D01*
Y1010655D01*
X2789914Y1010000D01*
X2790000Y1009345D01*
Y995655D01*
X2789914Y995000D01*
X2790000Y994345D01*
Y980655D01*
X2789914Y980000D01*
X2790000Y979345D01*
Y965655D01*
X2789914Y965000D01*
X2790000Y964345D01*
Y950655D01*
X2789914Y950000D01*
X2790000Y949345D01*
Y935655D01*
X2789914Y935000D01*
X2790000Y934345D01*
Y920655D01*
X2789914Y920000D01*
X2790000Y919345D01*
Y905655D01*
X2789914Y905000D01*
X2790000Y904345D01*
Y890655D01*
X2789914Y890000D01*
X2790000Y889345D01*
Y875655D01*
X2789914Y875000D01*
X2790000Y874345D01*
Y860655D01*
X2789914Y860000D01*
X2790000Y859345D01*
Y845655D01*
X2789914Y845000D01*
X2790000Y844345D01*
Y830655D01*
X2789914Y830000D01*
X2790000Y829345D01*
Y815655D01*
X2789914Y815000D01*
X2790000Y814345D01*
Y800655D01*
X2789914Y800000D01*
X2790000Y799345D01*
Y785655D01*
X2789914Y785000D01*
X2790000Y784345D01*
Y770655D01*
X2789914Y770000D01*
X2790000Y769345D01*
Y755655D01*
X2789914Y755000D01*
X2790000Y754345D01*
Y740655D01*
X2789914Y740000D01*
X2790000Y739345D01*
Y725655D01*
X2789914Y725000D01*
X2790000Y724345D01*
Y710655D01*
X2789914Y710000D01*
X2790000Y709345D01*
Y695655D01*
X2789914Y695000D01*
X2790000Y694345D01*
Y680655D01*
X2789914Y680000D01*
X2790000Y679345D01*
Y665655D01*
X2789914Y665000D01*
X2790000Y664345D01*
Y650655D01*
X2789914Y650000D01*
X2790000Y649345D01*
Y640000D01*
X2193786D01*
X2193534Y641270D01*
X2194260Y641571D01*
X2197185Y643815D01*
X2199429Y646740D01*
X2200840Y650145D01*
X2201321Y653800D01*
X2200840Y657455D01*
X2199429Y660860D01*
X2197185Y663785D01*
X2194260Y666029D01*
X2190855Y667440D01*
X2187200Y667921D01*
X2183545Y667440D01*
X2180140Y666029D01*
X2177215Y663785D01*
X2174971Y660860D01*
X2173560Y657455D01*
X2173079Y653800D01*
X2173560Y650145D01*
X2174971Y646740D01*
X2177215Y643815D01*
X2180140Y641571D01*
X2180866Y641270D01*
X2180614Y640000D01*
X2122586D01*
X2122334Y641270D01*
X2123060Y641571D01*
X2125985Y643815D01*
X2128229Y646740D01*
X2129640Y650145D01*
X2130121Y653800D01*
X2129640Y657455D01*
X2128229Y660860D01*
X2125985Y663785D01*
X2123060Y666029D01*
X2119655Y667440D01*
X2116000Y667921D01*
X2112345Y667440D01*
X2108940Y666029D01*
X2106015Y663785D01*
X2103771Y660860D01*
X2102360Y657455D01*
X2101879Y653800D01*
X2102360Y650145D01*
X2103771Y646740D01*
X2106015Y643815D01*
X2108940Y641571D01*
X2109666Y641270D01*
X2109414Y640000D01*
X2071786D01*
X2071534Y641270D01*
X2072260Y641571D01*
X2075185Y643815D01*
X2077429Y646740D01*
X2078840Y650145D01*
X2079321Y653800D01*
X2078840Y657455D01*
X2077429Y660860D01*
X2075185Y663785D01*
X2072260Y666029D01*
X2068855Y667440D01*
X2065200Y667921D01*
X2061545Y667440D01*
X2058140Y666029D01*
X2055215Y663785D01*
X2052971Y660860D01*
X2051560Y657455D01*
X2051079Y653800D01*
X2051560Y650145D01*
X2052971Y646740D01*
X2055215Y643815D01*
X2058140Y641571D01*
X2058866Y641270D01*
X2058614Y640000D01*
X1410000D01*
Y1620000D01*
X2790000D01*
Y1610655D01*
D02*
G37*
%LPC*%
G36*
X2879500Y1575393D02*
Y1566500D01*
X2888393D01*
X2888230Y1567741D01*
X2887172Y1570295D01*
X2885489Y1572489D01*
X2883295Y1574172D01*
X2880741Y1575230D01*
X2879500Y1575393D01*
D02*
G37*
G36*
X2923500Y1575393D02*
Y1566500D01*
X2932393D01*
X2932230Y1567741D01*
X2931172Y1570295D01*
X2929489Y1572489D01*
X2927295Y1574172D01*
X2924741Y1575230D01*
X2923500Y1575393D01*
D02*
G37*
G36*
X2920500Y1575393D02*
X2919259Y1575230D01*
X2916705Y1574172D01*
X2914511Y1572489D01*
X2912828Y1570295D01*
X2911770Y1567741D01*
X2911607Y1566500D01*
X2920500D01*
Y1575393D01*
D02*
G37*
G36*
X2876500Y1575393D02*
X2875259Y1575230D01*
X2872705Y1574172D01*
X2870511Y1572489D01*
X2868828Y1570295D01*
X2867770Y1567741D01*
X2867607Y1566500D01*
X2876500D01*
Y1575393D01*
D02*
G37*
G36*
X2888393Y1563500D02*
X2879500D01*
Y1554607D01*
X2880741Y1554770D01*
X2883295Y1555828D01*
X2885489Y1557511D01*
X2887172Y1559705D01*
X2888230Y1562259D01*
X2888393Y1563500D01*
D02*
G37*
G36*
X2920500D02*
X2911607D01*
X2911770Y1562259D01*
X2912828Y1559705D01*
X2914511Y1557511D01*
X2916705Y1555828D01*
X2919259Y1554770D01*
X2920500Y1554607D01*
Y1563500D01*
D02*
G37*
G36*
X2932393D02*
X2923500D01*
Y1554607D01*
X2924741Y1554770D01*
X2927295Y1555828D01*
X2929489Y1557511D01*
X2931172Y1559705D01*
X2932230Y1562259D01*
X2932393Y1563500D01*
D02*
G37*
G36*
X2876500D02*
X2867607D01*
X2867770Y1562259D01*
X2868828Y1559705D01*
X2870511Y1557511D01*
X2872705Y1555828D01*
X2875259Y1554770D01*
X2876500Y1554607D01*
Y1563500D01*
D02*
G37*
G36*
X2900500Y1508833D02*
X2898842Y1508503D01*
X2897436Y1507564D01*
X2896936Y1507064D01*
X2895997Y1505658D01*
X2895667Y1504000D01*
X2895997Y1502342D01*
X2896936Y1500936D01*
X2898342Y1499997D01*
X2900000Y1499667D01*
X2901658Y1499997D01*
X2903064Y1500936D01*
X2903564Y1501436D01*
X2904503Y1502842D01*
X2904833Y1504500D01*
X2904503Y1506158D01*
X2903564Y1507564D01*
X2902158Y1508503D01*
X2900500Y1508833D01*
D02*
G37*
G36*
X2922997Y1469334D02*
X2921339Y1469004D01*
X2919933Y1468064D01*
X2918994Y1466659D01*
X2918664Y1465000D01*
Y1464003D01*
X2918994Y1462345D01*
X2919933Y1460939D01*
X2921339Y1460000D01*
X2922997Y1459670D01*
X2924655Y1460000D01*
X2926061Y1460939D01*
X2927000Y1462345D01*
X2927330Y1464003D01*
Y1465000D01*
X2927000Y1466659D01*
X2926061Y1468064D01*
X2924655Y1469004D01*
X2922997Y1469334D01*
D02*
G37*
G36*
X2891000Y1394069D02*
X2888912Y1393794D01*
X2886966Y1392988D01*
X2885294Y1391706D01*
X2884012Y1390034D01*
X2883206Y1388088D01*
X2882931Y1386000D01*
X2883157Y1384285D01*
X2878205Y1379333D01*
X2871759D01*
X2870706Y1380706D01*
X2869034Y1381988D01*
X2867088Y1382794D01*
X2865000Y1383069D01*
X2862912Y1382794D01*
X2860966Y1381988D01*
X2859294Y1380706D01*
X2858012Y1379034D01*
X2857206Y1377088D01*
X2856931Y1375000D01*
X2857206Y1372912D01*
X2858012Y1370966D01*
X2859294Y1369294D01*
X2860966Y1368012D01*
X2862912Y1367206D01*
X2865000Y1366931D01*
X2867088Y1367206D01*
X2869034Y1368012D01*
X2870706Y1369294D01*
X2871759Y1370667D01*
X2880000D01*
X2881658Y1370997D01*
X2883064Y1371936D01*
X2889285Y1378157D01*
X2891000Y1377931D01*
X2893088Y1378206D01*
X2895034Y1379012D01*
X2895528Y1379391D01*
X2895753Y1379321D01*
X2896482Y1377762D01*
X2896203Y1377089D01*
X2895928Y1375000D01*
X2896203Y1372912D01*
X2897009Y1370966D01*
X2898291Y1369295D01*
X2899962Y1368013D01*
X2901909Y1367206D01*
X2903997Y1366931D01*
X2906086Y1367206D01*
X2907397Y1367750D01*
X2908647Y1367000D01*
X2908667Y1366968D01*
Y1352798D01*
X2894933Y1339065D01*
X2893994Y1337659D01*
X2893664Y1336001D01*
Y1316003D01*
X2893994Y1314345D01*
X2894933Y1312939D01*
X2940657Y1267215D01*
X2940431Y1265500D01*
X2940706Y1263412D01*
X2941512Y1261466D01*
X2942794Y1259794D01*
X2944466Y1258512D01*
X2946412Y1257706D01*
X2948500Y1257431D01*
X2950588Y1257706D01*
X2952534Y1258512D01*
X2954206Y1259794D01*
X2955488Y1261466D01*
X2956294Y1263412D01*
X2956569Y1265500D01*
X2956294Y1267588D01*
X2955488Y1269535D01*
X2954206Y1271206D01*
X2952534Y1272488D01*
X2950588Y1273294D01*
X2948500Y1273569D01*
X2946785Y1273343D01*
X2902330Y1317798D01*
Y1334206D01*
X2916064Y1347939D01*
X2917003Y1349345D01*
X2917333Y1351004D01*
Y1370000D01*
X2917003Y1371658D01*
X2916064Y1373064D01*
X2911616Y1377513D01*
X2910985Y1379035D01*
X2909702Y1380706D01*
X2908032Y1381989D01*
X2906086Y1382795D01*
X2903997Y1383069D01*
X2901909Y1382795D01*
X2899962Y1381989D01*
X2899469Y1381610D01*
X2899244Y1381680D01*
X2898515Y1383239D01*
X2898794Y1383912D01*
X2899069Y1386000D01*
X2898794Y1388088D01*
X2897988Y1390034D01*
X2896706Y1391706D01*
X2895034Y1392988D01*
X2893088Y1393794D01*
X2891000Y1394069D01*
D02*
G37*
G36*
X2924050Y1231058D02*
X2920787Y1230628D01*
X2917746Y1229369D01*
X2915135Y1227365D01*
X2913131Y1224754D01*
X2912002Y1222027D01*
X2912000Y1222027D01*
X2910700D01*
X2910698Y1222027D01*
X2909569Y1224754D01*
X2907565Y1227365D01*
X2904954Y1229369D01*
X2901913Y1230628D01*
X2898650Y1231058D01*
X2895387Y1230628D01*
X2892346Y1229369D01*
X2889735Y1227365D01*
X2887731Y1224754D01*
X2886602Y1222027D01*
X2886600Y1222027D01*
X2885300D01*
X2885298Y1222027D01*
X2884169Y1224754D01*
X2882165Y1227365D01*
X2879554Y1229369D01*
X2876513Y1230628D01*
X2873250Y1231058D01*
X2869987Y1230628D01*
X2866946Y1229369D01*
X2864335Y1227365D01*
X2862331Y1224754D01*
X2861072Y1221713D01*
X2860642Y1218450D01*
X2861072Y1215187D01*
X2862331Y1212146D01*
X2864335Y1209535D01*
X2866946Y1207531D01*
X2868663Y1206820D01*
X2868411Y1205550D01*
X2848050D01*
Y1180550D01*
X2873050D01*
Y1188211D01*
X2874320Y1188463D01*
X2875031Y1186746D01*
X2877035Y1184135D01*
X2879646Y1182131D01*
X2882687Y1180872D01*
X2885950Y1180442D01*
X2889213Y1180872D01*
X2892254Y1182131D01*
X2894865Y1184135D01*
X2896869Y1186746D01*
X2897998Y1189473D01*
X2898000Y1189473D01*
X2899300D01*
X2899302Y1189473D01*
X2900431Y1186746D01*
X2902435Y1184135D01*
X2905046Y1182131D01*
X2908087Y1180872D01*
X2911350Y1180442D01*
X2914613Y1180872D01*
X2917654Y1182131D01*
X2920265Y1184135D01*
X2922269Y1186746D01*
X2923528Y1189787D01*
X2923958Y1193050D01*
X2923528Y1196313D01*
X2922269Y1199354D01*
X2920265Y1201965D01*
X2917654Y1203969D01*
X2914613Y1205228D01*
X2911350Y1205658D01*
X2908087Y1205228D01*
X2905046Y1203969D01*
X2902435Y1201965D01*
X2900431Y1199354D01*
X2899302Y1196627D01*
X2899300Y1196627D01*
X2898000D01*
X2897998Y1196627D01*
X2896869Y1199354D01*
X2894865Y1201965D01*
X2892254Y1203969D01*
X2889213Y1205228D01*
X2885950Y1205658D01*
X2882687Y1205228D01*
X2879646Y1203969D01*
X2877035Y1201965D01*
X2875031Y1199354D01*
X2874320Y1197637D01*
X2873050Y1197889D01*
Y1204587D01*
X2873213Y1205611D01*
X2874150Y1205961D01*
X2876513Y1206272D01*
X2879554Y1207531D01*
X2882165Y1209535D01*
X2884169Y1212146D01*
X2885298Y1214873D01*
X2885300Y1214873D01*
X2886600D01*
X2886602Y1214873D01*
X2887731Y1212146D01*
X2889735Y1209535D01*
X2892346Y1207531D01*
X2895387Y1206272D01*
X2898650Y1205842D01*
X2901913Y1206272D01*
X2904954Y1207531D01*
X2907565Y1209535D01*
X2909569Y1212146D01*
X2910698Y1214873D01*
X2910700Y1214873D01*
X2912000D01*
X2912002Y1214873D01*
X2913131Y1212146D01*
X2915135Y1209535D01*
X2917746Y1207531D01*
X2920787Y1206272D01*
X2924050Y1205842D01*
X2927313Y1206272D01*
X2930354Y1207531D01*
X2932965Y1209535D01*
X2934969Y1212146D01*
X2936228Y1215187D01*
X2936658Y1218450D01*
X2936228Y1221713D01*
X2934969Y1224754D01*
X2932965Y1227365D01*
X2930354Y1229369D01*
X2927313Y1230628D01*
X2924050Y1231058D01*
D02*
G37*
G36*
X2950950Y1228843D02*
Y1219950D01*
X2959843D01*
X2959680Y1221191D01*
X2958622Y1223745D01*
X2956939Y1225939D01*
X2954745Y1227622D01*
X2952191Y1228680D01*
X2950950Y1228843D01*
D02*
G37*
G36*
X2947950Y1228843D02*
X2946709Y1228680D01*
X2944155Y1227622D01*
X2941961Y1225939D01*
X2940278Y1223745D01*
X2939220Y1221191D01*
X2939057Y1219950D01*
X2947950D01*
Y1228843D01*
D02*
G37*
G36*
X2959843Y1216950D02*
X2950950D01*
Y1208057D01*
X2952191Y1208220D01*
X2954745Y1209278D01*
X2956939Y1210961D01*
X2958622Y1213155D01*
X2959680Y1215709D01*
X2959843Y1216950D01*
D02*
G37*
G36*
X2947950D02*
X2939057D01*
X2939220Y1215709D01*
X2940278Y1213155D01*
X2941961Y1210961D01*
X2944155Y1209278D01*
X2946709Y1208220D01*
X2947950Y1208057D01*
Y1216950D01*
D02*
G37*
G36*
X2938250Y1203443D02*
Y1194550D01*
X2947143D01*
X2946980Y1195791D01*
X2945922Y1198345D01*
X2944239Y1200539D01*
X2942045Y1202222D01*
X2939491Y1203280D01*
X2938250Y1203443D01*
D02*
G37*
G36*
X2935250Y1203443D02*
X2934009Y1203280D01*
X2931455Y1202222D01*
X2929261Y1200539D01*
X2927578Y1198345D01*
X2926520Y1195791D01*
X2926357Y1194550D01*
X2935250D01*
Y1203443D01*
D02*
G37*
G36*
X2947143Y1191550D02*
X2938250D01*
Y1182657D01*
X2939491Y1182820D01*
X2942045Y1183878D01*
X2944239Y1185561D01*
X2945922Y1187755D01*
X2946980Y1190309D01*
X2947143Y1191550D01*
D02*
G37*
G36*
X2935250D02*
X2926357D01*
X2926520Y1190309D01*
X2927578Y1187755D01*
X2929261Y1185561D01*
X2931455Y1183878D01*
X2934009Y1182820D01*
X2935250Y1182657D01*
Y1191550D01*
D02*
G37*
G36*
X2828500Y1174427D02*
Y1160500D01*
X2842427D01*
X2842276Y1162038D01*
X2841389Y1164960D01*
X2839950Y1167653D01*
X2838013Y1170013D01*
X2835653Y1171950D01*
X2832960Y1173389D01*
X2830038Y1174276D01*
X2828500Y1174427D01*
D02*
G37*
G36*
X2825500D02*
X2823961Y1174276D01*
X2821040Y1173389D01*
X2818347Y1171950D01*
X2815987Y1170013D01*
X2814050Y1167653D01*
X2812610Y1164960D01*
X2811724Y1162038D01*
X2811573Y1160500D01*
X2825500D01*
Y1174427D01*
D02*
G37*
G36*
X2981500D02*
X2979962Y1174276D01*
X2977040Y1173389D01*
X2974347Y1171950D01*
X2971987Y1170013D01*
X2970050Y1167653D01*
X2968611Y1164960D01*
X2967724Y1162038D01*
X2967573Y1160500D01*
X2981500D01*
Y1174427D01*
D02*
G37*
G36*
X2842427Y1157500D02*
X2811573D01*
X2811724Y1155962D01*
X2812610Y1153040D01*
X2814050Y1150347D01*
X2815987Y1147987D01*
X2818347Y1146050D01*
X2821040Y1144611D01*
X2823961Y1143724D01*
X2826632Y1143461D01*
X2827247Y1142646D01*
X2827392Y1142187D01*
X2825569Y1138779D01*
X2824197Y1134255D01*
X2823734Y1129550D01*
X2824197Y1124845D01*
X2825569Y1120321D01*
X2827798Y1116152D01*
X2830797Y1112497D01*
X2834452Y1109498D01*
X2838621Y1107270D01*
X2843145Y1105897D01*
X2847850Y1105434D01*
X2852555Y1105897D01*
X2857079Y1107270D01*
X2861248Y1109498D01*
X2864903Y1112497D01*
X2867902Y1116152D01*
X2870130Y1120321D01*
X2871503Y1124845D01*
X2871966Y1129550D01*
X2871503Y1134255D01*
X2870130Y1138779D01*
X2867902Y1142948D01*
X2864903Y1146603D01*
X2861248Y1149602D01*
X2857079Y1151830D01*
X2852555Y1153203D01*
X2847850Y1153666D01*
X2843145Y1153203D01*
X2842728Y1153076D01*
X2841709Y1154094D01*
X2842276Y1155962D01*
X2842427Y1157500D01*
D02*
G37*
G36*
X1553400Y1618325D02*
Y1604900D01*
X1566825D01*
X1566683Y1606340D01*
X1565825Y1609168D01*
X1564432Y1611774D01*
X1562558Y1614058D01*
X1560274Y1615932D01*
X1557668Y1617325D01*
X1554841Y1618183D01*
X1553400Y1618325D01*
D02*
G37*
G36*
X1502600D02*
Y1604900D01*
X1516025D01*
X1515883Y1606340D01*
X1515025Y1609168D01*
X1513632Y1611774D01*
X1511758Y1614058D01*
X1509474Y1615932D01*
X1506868Y1617325D01*
X1504041Y1618183D01*
X1502600Y1618325D01*
D02*
G37*
G36*
X1550400D02*
X1548960Y1618183D01*
X1546132Y1617325D01*
X1543526Y1615932D01*
X1541242Y1614058D01*
X1539368Y1611774D01*
X1537975Y1609168D01*
X1537117Y1606340D01*
X1536975Y1604900D01*
X1550400D01*
Y1618325D01*
D02*
G37*
G36*
X1499600D02*
X1498159Y1618183D01*
X1495332Y1617325D01*
X1492726Y1615932D01*
X1490442Y1614058D01*
X1488568Y1611774D01*
X1487175Y1609168D01*
X1486317Y1606340D01*
X1486175Y1604900D01*
X1499600D01*
Y1618325D01*
D02*
G37*
G36*
X1550400Y1601900D02*
X1536975D01*
X1537117Y1600459D01*
X1537975Y1597632D01*
X1539368Y1595026D01*
X1541242Y1592742D01*
X1543526Y1590868D01*
X1546132Y1589475D01*
X1548960Y1588617D01*
X1550400Y1588475D01*
Y1601900D01*
D02*
G37*
G36*
X1499600D02*
X1486175D01*
X1486317Y1600459D01*
X1487175Y1597632D01*
X1488568Y1595026D01*
X1490442Y1592742D01*
X1492726Y1590868D01*
X1495332Y1589475D01*
X1498159Y1588617D01*
X1499600Y1588475D01*
Y1601900D01*
D02*
G37*
G36*
X1566825D02*
X1553400D01*
Y1588475D01*
X1554841Y1588617D01*
X1557668Y1589475D01*
X1560274Y1590868D01*
X1562558Y1592742D01*
X1564432Y1595026D01*
X1565825Y1597632D01*
X1566683Y1600459D01*
X1566825Y1601900D01*
D02*
G37*
G36*
X1516025D02*
X1502600D01*
Y1588475D01*
X1504041Y1588617D01*
X1506868Y1589475D01*
X1509474Y1590868D01*
X1511758Y1592742D01*
X1513632Y1595026D01*
X1515025Y1597632D01*
X1515883Y1600459D01*
X1516025Y1601900D01*
D02*
G37*
G36*
X2055750Y1594569D02*
X2053662Y1594294D01*
X2051716Y1593488D01*
X2050044Y1592206D01*
X2048762Y1590535D01*
X2048575Y1590083D01*
X2034000D01*
X2032342Y1589753D01*
X2030936Y1588814D01*
X2024186Y1582064D01*
X2023247Y1580658D01*
X2022917Y1579000D01*
Y1531000D01*
X2023247Y1529342D01*
X2024186Y1527936D01*
X2083917Y1468205D01*
Y1463545D01*
X2066205Y1445833D01*
X2033250D01*
X2031592Y1445503D01*
X2030186Y1444564D01*
X1976955Y1391333D01*
X1947259D01*
X1946206Y1392706D01*
X1944534Y1393988D01*
X1942588Y1394794D01*
X1940500Y1395069D01*
X1938412Y1394794D01*
X1936465Y1393988D01*
X1934794Y1392706D01*
X1933512Y1391035D01*
X1932706Y1389088D01*
X1932431Y1387000D01*
X1932706Y1384912D01*
X1933512Y1382966D01*
X1934794Y1381294D01*
X1936465Y1380012D01*
X1938412Y1379206D01*
X1940500Y1378931D01*
X1942588Y1379206D01*
X1944534Y1380012D01*
X1946206Y1381294D01*
X1947259Y1382667D01*
X1978750D01*
X1980408Y1382997D01*
X1981814Y1383936D01*
X2035045Y1437167D01*
X2068000D01*
X2069658Y1437497D01*
X2071064Y1438436D01*
X2091314Y1458686D01*
X2092253Y1460092D01*
X2092583Y1461750D01*
Y1465667D01*
X2303241D01*
X2304294Y1464294D01*
X2305966Y1463012D01*
X2307912Y1462206D01*
X2310000Y1461931D01*
X2312088Y1462206D01*
X2314034Y1463012D01*
X2315706Y1464294D01*
X2316988Y1465966D01*
X2317794Y1467912D01*
X2318069Y1470000D01*
X2317794Y1472088D01*
X2316988Y1474034D01*
X2315706Y1475706D01*
X2314034Y1476988D01*
X2313251Y1477313D01*
Y1478687D01*
X2314034Y1479012D01*
X2315706Y1480294D01*
X2316988Y1481965D01*
X2317794Y1483912D01*
X2318069Y1486000D01*
X2317794Y1488088D01*
X2316988Y1490034D01*
X2315706Y1491706D01*
X2314034Y1492988D01*
X2312088Y1493794D01*
X2310000Y1494069D01*
X2307912Y1493794D01*
X2305966Y1492988D01*
X2304294Y1491706D01*
X2303241Y1490333D01*
X2106295D01*
X2045833Y1550795D01*
Y1568241D01*
X2047206Y1569294D01*
X2048488Y1570966D01*
X2049294Y1572912D01*
X2049569Y1575000D01*
X2049294Y1577088D01*
X2048488Y1579034D01*
X2047634Y1580147D01*
X2048261Y1581417D01*
X2049567D01*
X2050044Y1580794D01*
X2051716Y1579512D01*
X2053662Y1578706D01*
X2055750Y1578431D01*
X2057838Y1578706D01*
X2059785Y1579512D01*
X2061456Y1580794D01*
X2062738Y1582466D01*
X2063544Y1584412D01*
X2063819Y1586500D01*
X2063544Y1588588D01*
X2062738Y1590535D01*
X2061456Y1592206D01*
X2059785Y1593488D01*
X2057838Y1594294D01*
X2055750Y1594569D01*
D02*
G37*
G36*
X2759000Y1606102D02*
X2754883Y1605696D01*
X2750924Y1604495D01*
X2747276Y1602545D01*
X2744078Y1599921D01*
X2741454Y1596723D01*
X2739504Y1593075D01*
X2738304Y1589117D01*
X2737898Y1585000D01*
X2738304Y1580883D01*
X2739504Y1576925D01*
X2741454Y1573277D01*
X2744078Y1570079D01*
X2747276Y1567455D01*
X2750924Y1565505D01*
X2754883Y1564304D01*
X2759000Y1563898D01*
X2763116Y1564304D01*
X2767075Y1565505D01*
X2770723Y1567455D01*
X2773921Y1570079D01*
X2776545Y1573277D01*
X2778495Y1576925D01*
X2779696Y1580883D01*
X2780101Y1585000D01*
X2779696Y1589117D01*
X2778495Y1593075D01*
X2776545Y1596723D01*
X2773921Y1599921D01*
X2770723Y1602545D01*
X2767075Y1604495D01*
X2763116Y1605696D01*
X2759000Y1606102D01*
D02*
G37*
G36*
X2659000D02*
X2654883Y1605696D01*
X2650924Y1604495D01*
X2647276Y1602545D01*
X2644078Y1599921D01*
X2641454Y1596723D01*
X2639504Y1593075D01*
X2638304Y1589117D01*
X2637898Y1585000D01*
X2638304Y1580883D01*
X2639504Y1576925D01*
X2641454Y1573277D01*
X2644078Y1570079D01*
X2647276Y1567455D01*
X2650924Y1565505D01*
X2654883Y1564304D01*
X2659000Y1563898D01*
X2663116Y1564304D01*
X2667075Y1565505D01*
X2670723Y1567455D01*
X2673921Y1570079D01*
X2676545Y1573277D01*
X2678495Y1576925D01*
X2679696Y1580883D01*
X2680101Y1585000D01*
X2679696Y1589117D01*
X2678495Y1593075D01*
X2676545Y1596723D01*
X2673921Y1599921D01*
X2670723Y1602545D01*
X2667075Y1604495D01*
X2663116Y1605696D01*
X2659000Y1606102D01*
D02*
G37*
G36*
X1441000D02*
X1436883Y1605696D01*
X1432924Y1604495D01*
X1429276Y1602545D01*
X1426079Y1599921D01*
X1423454Y1596723D01*
X1421504Y1593075D01*
X1420304Y1589117D01*
X1419898Y1585000D01*
X1420304Y1580883D01*
X1421504Y1576925D01*
X1423454Y1573277D01*
X1426079Y1570079D01*
X1429276Y1567455D01*
X1432924Y1565505D01*
X1436883Y1564304D01*
X1441000Y1563898D01*
X1445116Y1564304D01*
X1449075Y1565505D01*
X1452723Y1567455D01*
X1455921Y1570079D01*
X1458545Y1573277D01*
X1460495Y1576925D01*
X1461696Y1580883D01*
X1462101Y1585000D01*
X1461696Y1589117D01*
X1460495Y1593075D01*
X1458545Y1596723D01*
X1455921Y1599921D01*
X1452723Y1602545D01*
X1449075Y1604495D01*
X1445116Y1605696D01*
X1441000Y1606102D01*
D02*
G37*
G36*
X1526500Y1592625D02*
X1522715Y1592127D01*
X1519187Y1590666D01*
X1516158Y1588342D01*
X1513834Y1585312D01*
X1512373Y1581785D01*
X1511875Y1578000D01*
X1512373Y1574215D01*
X1513834Y1570688D01*
X1516158Y1567659D01*
X1519187Y1565334D01*
X1522715Y1563873D01*
X1526500Y1563375D01*
X1530285Y1563873D01*
X1533813Y1565334D01*
X1536841Y1567659D01*
X1539166Y1570688D01*
X1540627Y1574215D01*
X1541125Y1578000D01*
X1540627Y1581785D01*
X1539166Y1585312D01*
X1536841Y1588342D01*
X1533813Y1590666D01*
X1530285Y1592127D01*
X1526500Y1592625D01*
D02*
G37*
G36*
X2428500Y1571906D02*
Y1561500D01*
X2438906D01*
X2438691Y1563133D01*
X2437482Y1566052D01*
X2435558Y1568559D01*
X2433052Y1570482D01*
X2430133Y1571691D01*
X2428500Y1571906D01*
D02*
G37*
G36*
X2148500Y1571402D02*
Y1561500D01*
X2158402D01*
X2158204Y1563002D01*
X2157045Y1565800D01*
X2155202Y1568202D01*
X2152800Y1570045D01*
X2150002Y1571204D01*
X2148500Y1571402D01*
D02*
G37*
G36*
X2145500Y1571402D02*
X2143998Y1571204D01*
X2141200Y1570045D01*
X2138798Y1568202D01*
X2136955Y1565800D01*
X2135796Y1563002D01*
X2135598Y1561500D01*
X2145500D01*
Y1571402D01*
D02*
G37*
G36*
X2425500Y1571906D02*
X2423867Y1571691D01*
X2420948Y1570482D01*
X2418441Y1568559D01*
X2416518Y1566052D01*
X2415309Y1563133D01*
X2415094Y1561500D01*
X2425500D01*
Y1571906D01*
D02*
G37*
G36*
X1796650Y1570075D02*
Y1556650D01*
X1810075D01*
X1809933Y1558091D01*
X1809075Y1560918D01*
X1807682Y1563524D01*
X1805808Y1565808D01*
X1803524Y1567682D01*
X1800918Y1569075D01*
X1798091Y1569933D01*
X1796650Y1570075D01*
D02*
G37*
G36*
X1793650D02*
X1792209Y1569933D01*
X1789382Y1569075D01*
X1786776Y1567682D01*
X1784492Y1565808D01*
X1782618Y1563524D01*
X1781225Y1560918D01*
X1780367Y1558091D01*
X1780225Y1556650D01*
X1793650D01*
Y1570075D01*
D02*
G37*
G36*
X1745850D02*
Y1556650D01*
X1759275D01*
X1759133Y1558091D01*
X1758275Y1560918D01*
X1756882Y1563524D01*
X1755008Y1565808D01*
X1752724Y1567682D01*
X1750118Y1569075D01*
X1747290Y1569933D01*
X1745850Y1570075D01*
D02*
G37*
G36*
X1742850D02*
X1741409Y1569933D01*
X1738582Y1569075D01*
X1735976Y1567682D01*
X1733692Y1565808D01*
X1731818Y1563524D01*
X1730425Y1560918D01*
X1729567Y1558091D01*
X1729425Y1556650D01*
X1742850D01*
Y1570075D01*
D02*
G37*
G36*
X1553400Y1567525D02*
Y1554100D01*
X1566825D01*
X1566683Y1555540D01*
X1565825Y1558368D01*
X1564432Y1560974D01*
X1562558Y1563258D01*
X1560274Y1565132D01*
X1557668Y1566525D01*
X1554841Y1567383D01*
X1553400Y1567525D01*
D02*
G37*
G36*
X1502600D02*
Y1554100D01*
X1516025D01*
X1515883Y1555540D01*
X1515025Y1558368D01*
X1513632Y1560974D01*
X1511758Y1563258D01*
X1509474Y1565132D01*
X1506868Y1566525D01*
X1504041Y1567383D01*
X1502600Y1567525D01*
D02*
G37*
G36*
X1550400D02*
X1548960Y1567383D01*
X1546132Y1566525D01*
X1543526Y1565132D01*
X1541242Y1563258D01*
X1539368Y1560974D01*
X1537975Y1558368D01*
X1537117Y1555540D01*
X1536975Y1554100D01*
X1550400D01*
Y1567525D01*
D02*
G37*
G36*
X1499600D02*
X1498159Y1567383D01*
X1495332Y1566525D01*
X1492726Y1565132D01*
X1490442Y1563258D01*
X1488568Y1560974D01*
X1487175Y1558368D01*
X1486317Y1555540D01*
X1486175Y1554100D01*
X1499600D01*
Y1567525D01*
D02*
G37*
G36*
X2158402Y1558500D02*
X2148500D01*
Y1548598D01*
X2150002Y1548796D01*
X2152800Y1549955D01*
X2155202Y1551798D01*
X2157045Y1554200D01*
X2158204Y1556998D01*
X2158402Y1558500D01*
D02*
G37*
G36*
X2145500D02*
X2135598D01*
X2135796Y1556998D01*
X2136955Y1554200D01*
X2138798Y1551798D01*
X2141200Y1549955D01*
X2143998Y1548796D01*
X2145500Y1548598D01*
Y1558500D01*
D02*
G37*
G36*
X2438906D02*
X2428500D01*
Y1548094D01*
X2430133Y1548309D01*
X2433052Y1549518D01*
X2435558Y1551441D01*
X2437482Y1553948D01*
X2438691Y1556867D01*
X2438906Y1558500D01*
D02*
G37*
G36*
X2425500D02*
X2415094D01*
X2415309Y1556867D01*
X2416518Y1553948D01*
X2418441Y1551441D01*
X2420948Y1549518D01*
X2423867Y1548309D01*
X2425500Y1548094D01*
Y1558500D01*
D02*
G37*
G36*
X1810075Y1553650D02*
X1796650D01*
Y1540225D01*
X1798091Y1540367D01*
X1800918Y1541225D01*
X1803524Y1542618D01*
X1805808Y1544492D01*
X1807682Y1546776D01*
X1809075Y1549382D01*
X1809933Y1552209D01*
X1810075Y1553650D01*
D02*
G37*
G36*
X1793650D02*
X1780225D01*
X1780367Y1552209D01*
X1781225Y1549382D01*
X1782618Y1546776D01*
X1784492Y1544492D01*
X1786776Y1542618D01*
X1789382Y1541225D01*
X1792209Y1540367D01*
X1793650Y1540225D01*
Y1553650D01*
D02*
G37*
G36*
X1759275D02*
X1745850D01*
Y1540225D01*
X1747290Y1540367D01*
X1750118Y1541225D01*
X1752724Y1542618D01*
X1755008Y1544492D01*
X1756882Y1546776D01*
X1758275Y1549382D01*
X1759133Y1552209D01*
X1759275Y1553650D01*
D02*
G37*
G36*
X1742850D02*
X1729425D01*
X1729567Y1552209D01*
X1730425Y1549382D01*
X1731818Y1546776D01*
X1733692Y1544492D01*
X1735976Y1542618D01*
X1738582Y1541225D01*
X1741409Y1540367D01*
X1742850Y1540225D01*
Y1553650D01*
D02*
G37*
G36*
X1550400Y1551100D02*
X1536975D01*
X1537117Y1549659D01*
X1537975Y1546832D01*
X1539368Y1544226D01*
X1541242Y1541942D01*
X1543526Y1540068D01*
X1546132Y1538675D01*
X1548960Y1537817D01*
X1550400Y1537675D01*
Y1551100D01*
D02*
G37*
G36*
X1499600D02*
X1486175D01*
X1486317Y1549659D01*
X1487175Y1546832D01*
X1488568Y1544226D01*
X1490442Y1541942D01*
X1492726Y1540068D01*
X1495332Y1538675D01*
X1498159Y1537817D01*
X1499600Y1537675D01*
Y1551100D01*
D02*
G37*
G36*
X1566825D02*
X1553400D01*
Y1537675D01*
X1554841Y1537817D01*
X1557668Y1538675D01*
X1560274Y1540068D01*
X1562558Y1541942D01*
X1564432Y1544226D01*
X1565825Y1546832D01*
X1566683Y1549659D01*
X1566825Y1551100D01*
D02*
G37*
G36*
X1516025D02*
X1502600D01*
Y1537675D01*
X1504041Y1537817D01*
X1506868Y1538675D01*
X1509474Y1540068D01*
X1511758Y1541942D01*
X1513632Y1544226D01*
X1515025Y1546832D01*
X1515883Y1549659D01*
X1516025Y1551100D01*
D02*
G37*
G36*
X1577975Y1533319D02*
X1569000D01*
Y1526500D01*
X1581569D01*
Y1529725D01*
X1581295Y1531100D01*
X1580516Y1532266D01*
X1579350Y1533045D01*
X1577975Y1533319D01*
D02*
G37*
G36*
X1566000D02*
X1557025D01*
X1555650Y1533045D01*
X1554484Y1532266D01*
X1553705Y1531100D01*
X1553431Y1529725D01*
Y1526500D01*
X1566000D01*
Y1533319D01*
D02*
G37*
G36*
X1769750Y1544375D02*
X1765965Y1543877D01*
X1762437Y1542416D01*
X1759409Y1540092D01*
X1757084Y1537063D01*
X1755623Y1533535D01*
X1755125Y1529750D01*
X1755623Y1525965D01*
X1757084Y1522437D01*
X1756052Y1521757D01*
X1754145Y1523664D01*
X1752739Y1524603D01*
X1751081Y1524933D01*
X1707712D01*
X1697081Y1535564D01*
X1695675Y1536503D01*
X1694017Y1536833D01*
X1654500D01*
X1652842Y1536503D01*
X1651436Y1535564D01*
X1594205Y1478333D01*
X1582009D01*
X1580956Y1479706D01*
X1579285Y1480988D01*
X1577338Y1481794D01*
X1575250Y1482069D01*
X1573162Y1481794D01*
X1571216Y1480988D01*
X1569544Y1479706D01*
X1568262Y1478035D01*
X1567456Y1476088D01*
X1567181Y1474000D01*
X1567456Y1471912D01*
X1568262Y1469966D01*
X1569544Y1468294D01*
X1571216Y1467012D01*
X1573162Y1466206D01*
X1575250Y1465931D01*
X1577338Y1466206D01*
X1579285Y1467012D01*
X1580956Y1468294D01*
X1582009Y1469667D01*
X1596000D01*
X1597658Y1469997D01*
X1599064Y1470936D01*
X1656295Y1528167D01*
X1677682D01*
X1677693Y1528147D01*
X1678166Y1526897D01*
X1676972Y1524013D01*
X1676542Y1520750D01*
X1676972Y1517487D01*
X1678231Y1514446D01*
X1680235Y1511835D01*
X1682846Y1509831D01*
X1685004Y1508937D01*
Y1507563D01*
X1682846Y1506669D01*
X1680235Y1504665D01*
X1678231Y1502054D01*
X1677415Y1500083D01*
X1672250D01*
X1670592Y1499753D01*
X1669186Y1498814D01*
X1663436Y1493064D01*
X1662497Y1491658D01*
X1662167Y1490000D01*
Y1398015D01*
X1660897Y1397399D01*
X1659338Y1398044D01*
X1658182Y1398196D01*
X1641343Y1415035D01*
X1641569Y1416750D01*
X1641294Y1418838D01*
X1640488Y1420784D01*
X1639206Y1422456D01*
X1637534Y1423738D01*
X1635588Y1424544D01*
X1633500Y1424819D01*
X1631412Y1424544D01*
X1629465Y1423738D01*
X1627794Y1422456D01*
X1626512Y1420784D01*
X1625706Y1418838D01*
X1625431Y1416750D01*
X1625706Y1414662D01*
X1626512Y1412715D01*
X1627794Y1411044D01*
X1629465Y1409762D01*
X1631412Y1408956D01*
X1633500Y1408681D01*
X1635215Y1408907D01*
X1650138Y1393984D01*
X1649456Y1392338D01*
X1649181Y1390250D01*
X1649456Y1388162D01*
X1650262Y1386216D01*
X1651544Y1384544D01*
X1653215Y1383262D01*
X1655162Y1382456D01*
X1657250Y1382181D01*
X1659338Y1382456D01*
X1660897Y1383101D01*
X1662167Y1382485D01*
Y1338500D01*
X1662497Y1336842D01*
X1663436Y1335436D01*
X1681341Y1317531D01*
X1680855Y1316358D01*
X1678823D01*
X1644108Y1351073D01*
Y1382500D01*
X1643681Y1384646D01*
X1642465Y1386465D01*
X1554215Y1474715D01*
X1552396Y1475931D01*
X1550250Y1476358D01*
X1537457D01*
X1537169Y1477054D01*
X1535165Y1479665D01*
X1532554Y1481669D01*
X1529513Y1482928D01*
X1526250Y1483358D01*
X1522987Y1482928D01*
X1522291Y1482640D01*
X1512250Y1492681D01*
Y1510500D01*
X1487250D01*
Y1485500D01*
X1488313D01*
X1488875Y1484361D01*
X1488831Y1484304D01*
X1487572Y1481263D01*
X1487142Y1478000D01*
X1487572Y1474737D01*
X1488831Y1471696D01*
X1490835Y1469085D01*
X1491421Y1468635D01*
Y1467365D01*
X1490835Y1466915D01*
X1488831Y1464304D01*
X1487572Y1461263D01*
X1487142Y1458000D01*
X1487572Y1454737D01*
X1488831Y1451696D01*
X1490835Y1449085D01*
X1491421Y1448635D01*
Y1447365D01*
X1490835Y1446915D01*
X1488831Y1444304D01*
X1487572Y1441263D01*
X1487142Y1438000D01*
X1487572Y1434737D01*
X1488831Y1431696D01*
X1490835Y1429085D01*
X1491421Y1428635D01*
Y1427365D01*
X1490835Y1426915D01*
X1490500Y1426478D01*
X1489233Y1426396D01*
X1476093Y1439535D01*
X1476319Y1441250D01*
X1476044Y1443338D01*
X1475238Y1445284D01*
X1473956Y1446956D01*
X1472285Y1448238D01*
X1470338Y1449044D01*
X1468250Y1449319D01*
X1466162Y1449044D01*
X1464216Y1448238D01*
X1462544Y1446956D01*
X1461262Y1445284D01*
X1460456Y1443338D01*
X1460181Y1441250D01*
X1460456Y1439162D01*
X1461262Y1437216D01*
X1462544Y1435544D01*
X1464216Y1434262D01*
X1466162Y1433456D01*
X1468250Y1433181D01*
X1469965Y1433407D01*
X1487410Y1415961D01*
X1487572Y1414737D01*
X1488831Y1411696D01*
X1490835Y1409085D01*
X1491421Y1408635D01*
Y1407365D01*
X1490835Y1406915D01*
X1488831Y1404304D01*
X1487572Y1401263D01*
X1487142Y1398000D01*
X1487572Y1394737D01*
X1488831Y1391696D01*
X1490835Y1389085D01*
X1491421Y1388635D01*
Y1387365D01*
X1490835Y1386915D01*
X1488831Y1384304D01*
X1487572Y1381263D01*
X1487142Y1378000D01*
X1487572Y1374737D01*
X1488831Y1371696D01*
X1490835Y1369085D01*
X1491421Y1368635D01*
Y1367365D01*
X1490835Y1366915D01*
X1488831Y1364304D01*
X1487572Y1361263D01*
X1487142Y1358000D01*
X1487572Y1354737D01*
X1488831Y1351696D01*
X1490835Y1349085D01*
X1491421Y1348635D01*
Y1347365D01*
X1490835Y1346915D01*
X1488831Y1344304D01*
X1487572Y1341263D01*
X1487142Y1338000D01*
X1487572Y1334737D01*
X1488831Y1331696D01*
X1490835Y1329085D01*
X1492848Y1327540D01*
X1492933Y1326004D01*
X1492261Y1325489D01*
X1490578Y1323295D01*
X1489520Y1320741D01*
X1489357Y1319500D01*
X1510143D01*
X1509980Y1320741D01*
X1508922Y1323295D01*
X1507239Y1325489D01*
X1506567Y1326004D01*
X1506652Y1327540D01*
X1508665Y1329085D01*
X1510669Y1331696D01*
X1511928Y1334737D01*
X1512358Y1338000D01*
X1511928Y1341263D01*
X1510669Y1344304D01*
X1508665Y1346915D01*
X1508079Y1347365D01*
Y1348635D01*
X1508665Y1349085D01*
X1510669Y1351696D01*
X1511928Y1354737D01*
X1512358Y1358000D01*
X1511928Y1361263D01*
X1510669Y1364304D01*
X1508665Y1366915D01*
X1508079Y1367365D01*
Y1368635D01*
X1508665Y1369085D01*
X1510669Y1371696D01*
X1511928Y1374737D01*
X1512358Y1378000D01*
X1511928Y1381263D01*
X1510669Y1384304D01*
X1508665Y1386915D01*
X1508079Y1387365D01*
Y1388635D01*
X1508665Y1389085D01*
X1510669Y1391696D01*
X1511928Y1394737D01*
X1512358Y1398000D01*
X1511928Y1401263D01*
X1510669Y1404304D01*
X1508665Y1406915D01*
X1508079Y1407365D01*
Y1408635D01*
X1508665Y1409085D01*
X1509892Y1410684D01*
X1511578Y1410794D01*
X1516436Y1405936D01*
X1516687Y1405768D01*
X1516805Y1405567D01*
X1516981Y1404372D01*
X1516900Y1404098D01*
X1515331Y1402054D01*
X1514072Y1399013D01*
X1513642Y1395750D01*
X1514072Y1392487D01*
X1515331Y1389446D01*
X1517335Y1386835D01*
X1519946Y1384831D01*
X1522104Y1383937D01*
Y1382563D01*
X1519946Y1381669D01*
X1517335Y1379665D01*
X1515331Y1377054D01*
X1514072Y1374013D01*
X1513642Y1370750D01*
X1514072Y1367487D01*
X1515331Y1364446D01*
X1517335Y1361835D01*
X1519946Y1359831D01*
X1522104Y1358937D01*
Y1357563D01*
X1519946Y1356669D01*
X1517335Y1354665D01*
X1515331Y1352054D01*
X1514072Y1349013D01*
X1513642Y1345750D01*
X1514072Y1342487D01*
X1515331Y1339446D01*
X1517335Y1336835D01*
X1519946Y1334831D01*
X1522987Y1333572D01*
X1526250Y1333142D01*
X1529513Y1333572D01*
X1532554Y1334831D01*
X1535165Y1336835D01*
X1537169Y1339446D01*
X1538428Y1342487D01*
X1538858Y1345750D01*
X1538428Y1349013D01*
X1537169Y1352054D01*
X1535165Y1354665D01*
X1532554Y1356669D01*
X1530396Y1357563D01*
Y1358937D01*
X1532554Y1359831D01*
X1535165Y1361835D01*
X1537169Y1364446D01*
X1538428Y1367487D01*
X1538858Y1370750D01*
X1538428Y1374013D01*
X1537169Y1377054D01*
X1535165Y1379665D01*
X1532554Y1381669D01*
X1530396Y1382563D01*
Y1383937D01*
X1532554Y1384831D01*
X1535165Y1386835D01*
X1537169Y1389446D01*
X1538428Y1392487D01*
X1538858Y1395750D01*
X1538428Y1399013D01*
X1537169Y1402054D01*
X1536138Y1403397D01*
X1536765Y1404667D01*
X1548455D01*
X1601417Y1351705D01*
Y1141000D01*
X1601747Y1139342D01*
X1602686Y1137936D01*
X1611436Y1129186D01*
X1612842Y1128247D01*
X1614500Y1127917D01*
X1621750D01*
X1623408Y1128247D01*
X1624814Y1129186D01*
X1636795Y1141167D01*
X1738699D01*
X1738811Y1141021D01*
X1740482Y1139738D01*
X1742428Y1138932D01*
X1744517Y1138657D01*
X1746605Y1138932D01*
X1748551Y1139738D01*
X1750222Y1141021D01*
X1751505Y1142692D01*
X1752311Y1144638D01*
X1752586Y1146726D01*
X1752311Y1148815D01*
X1751505Y1150761D01*
X1750222Y1152432D01*
X1748551Y1153714D01*
X1746605Y1154520D01*
X1744517Y1154795D01*
X1742428Y1154520D01*
X1740482Y1153714D01*
X1738811Y1152432D01*
X1737529Y1150761D01*
X1737145Y1149833D01*
X1635000D01*
X1633342Y1149503D01*
X1631936Y1148564D01*
X1627236Y1143865D01*
X1626135Y1144379D01*
X1626053Y1144477D01*
X1626319Y1146500D01*
X1626044Y1148588D01*
X1625238Y1150535D01*
X1623956Y1152206D01*
X1622583Y1153259D01*
Y1374250D01*
X1622253Y1375908D01*
X1621314Y1377314D01*
X1574814Y1423814D01*
X1573408Y1424753D01*
X1571750Y1425083D01*
X1537985D01*
X1537169Y1427054D01*
X1535165Y1429665D01*
X1532554Y1431669D01*
X1530396Y1432563D01*
Y1433937D01*
X1532554Y1434831D01*
X1535165Y1436835D01*
X1537169Y1439446D01*
X1538428Y1442487D01*
X1538858Y1445750D01*
X1538428Y1449013D01*
X1537169Y1452054D01*
X1535165Y1454665D01*
X1532554Y1456669D01*
X1530396Y1457563D01*
Y1458937D01*
X1532554Y1459831D01*
X1535165Y1461835D01*
X1537169Y1464446D01*
X1537457Y1465142D01*
X1547927D01*
X1632892Y1380177D01*
Y1348750D01*
X1633319Y1346604D01*
X1634535Y1344785D01*
X1671548Y1307771D01*
X1670829Y1306694D01*
X1670588Y1306794D01*
X1668500Y1307069D01*
X1666785Y1306843D01*
X1647564Y1326064D01*
X1646158Y1327003D01*
X1644500Y1327333D01*
X1640259D01*
X1639206Y1328706D01*
X1637534Y1329988D01*
X1635588Y1330794D01*
X1633500Y1331069D01*
X1631412Y1330794D01*
X1629465Y1329988D01*
X1627794Y1328706D01*
X1626512Y1327034D01*
X1625706Y1325088D01*
X1625431Y1323000D01*
X1625706Y1320912D01*
X1626512Y1318965D01*
X1627794Y1317294D01*
X1629465Y1316012D01*
X1631412Y1315206D01*
X1633500Y1314931D01*
X1635588Y1315206D01*
X1637534Y1316012D01*
X1639206Y1317294D01*
X1640259Y1318667D01*
X1642705D01*
X1660657Y1300715D01*
X1660431Y1299000D01*
X1660706Y1296912D01*
X1661512Y1294966D01*
X1662794Y1293294D01*
X1664465Y1292012D01*
X1666412Y1291206D01*
X1668500Y1290931D01*
X1670588Y1291206D01*
X1672534Y1292012D01*
X1674206Y1293294D01*
X1675488Y1294966D01*
X1676294Y1296912D01*
X1676569Y1299000D01*
X1676294Y1301088D01*
X1675488Y1303035D01*
X1674570Y1304231D01*
X1675286Y1305384D01*
X1676500Y1305142D01*
X1706292D01*
X1709490Y1301944D01*
X1709704Y1300676D01*
X1709619Y1300579D01*
X1708561Y1300892D01*
X1707784Y1301488D01*
X1705838Y1302294D01*
X1703750Y1302569D01*
X1701662Y1302294D01*
X1699716Y1301488D01*
X1698044Y1300206D01*
X1696762Y1298535D01*
X1695956Y1296588D01*
X1695681Y1294500D01*
X1695956Y1292412D01*
X1696762Y1290466D01*
X1698044Y1288794D01*
X1699716Y1287512D01*
X1701662Y1286706D01*
X1703750Y1286431D01*
X1705465Y1286657D01*
X1718686Y1273436D01*
X1720092Y1272497D01*
X1721750Y1272167D01*
X1741741D01*
X1742794Y1270794D01*
X1744465Y1269512D01*
X1746412Y1268706D01*
X1748500Y1268431D01*
X1750588Y1268706D01*
X1752534Y1269512D01*
X1754206Y1270794D01*
X1755488Y1272466D01*
X1756294Y1274412D01*
X1756569Y1276500D01*
X1756341Y1278235D01*
X1757456Y1278902D01*
X1757467Y1278904D01*
X1759167Y1277205D01*
Y1189009D01*
X1757794Y1187956D01*
X1756512Y1186284D01*
X1755706Y1184338D01*
X1755431Y1182250D01*
X1755706Y1180162D01*
X1756512Y1178215D01*
X1757794Y1176544D01*
X1759465Y1175262D01*
X1761412Y1174456D01*
X1763500Y1174181D01*
X1765588Y1174456D01*
X1767534Y1175262D01*
X1769206Y1176544D01*
X1770488Y1178215D01*
X1771294Y1180162D01*
X1771569Y1182250D01*
X1771294Y1184338D01*
X1770488Y1186284D01*
X1769206Y1187956D01*
X1767833Y1189009D01*
Y1279000D01*
X1767503Y1280658D01*
X1766564Y1282064D01*
X1732157Y1316472D01*
X1732358Y1318000D01*
X1731928Y1321263D01*
X1730669Y1324304D01*
X1728665Y1326915D01*
X1728079Y1327365D01*
Y1328635D01*
X1728665Y1329085D01*
X1730669Y1331696D01*
X1731928Y1334737D01*
X1732358Y1338000D01*
X1731928Y1341263D01*
X1730669Y1344304D01*
X1728665Y1346915D01*
X1728079Y1347365D01*
Y1348635D01*
X1728665Y1349085D01*
X1730669Y1351696D01*
X1731928Y1354737D01*
X1732358Y1358000D01*
X1731928Y1361263D01*
X1730669Y1364304D01*
X1728665Y1366915D01*
X1728079Y1367365D01*
Y1368635D01*
X1728665Y1369085D01*
X1730669Y1371696D01*
X1731928Y1374737D01*
X1732358Y1378000D01*
X1731928Y1381263D01*
X1730669Y1384304D01*
X1728665Y1386915D01*
X1728079Y1387365D01*
Y1388635D01*
X1728665Y1389085D01*
X1730669Y1391696D01*
X1731928Y1394737D01*
X1732358Y1398000D01*
X1731928Y1401263D01*
X1730669Y1404304D01*
X1728665Y1406915D01*
X1728079Y1407365D01*
Y1408635D01*
X1728665Y1409085D01*
X1730669Y1411696D01*
X1731928Y1414737D01*
X1732358Y1418000D01*
X1731928Y1421263D01*
X1730669Y1424304D01*
X1728665Y1426915D01*
X1728079Y1427365D01*
Y1428635D01*
X1728665Y1429085D01*
X1730669Y1431696D01*
X1731928Y1434737D01*
X1732358Y1438000D01*
X1731928Y1441263D01*
X1730669Y1444304D01*
X1728665Y1446915D01*
X1728079Y1447365D01*
Y1448635D01*
X1728665Y1449085D01*
X1730669Y1451696D01*
X1731928Y1454737D01*
X1732358Y1458000D01*
X1731928Y1461263D01*
X1730669Y1464304D01*
X1728665Y1466915D01*
X1728079Y1467365D01*
Y1468635D01*
X1728665Y1469085D01*
X1730669Y1471696D01*
X1731928Y1474737D01*
X1732358Y1478000D01*
X1731928Y1481263D01*
X1730669Y1484304D01*
X1728665Y1486915D01*
X1728079Y1487365D01*
Y1488635D01*
X1728665Y1489085D01*
X1730669Y1491696D01*
X1731681Y1494140D01*
X1733102Y1494412D01*
X1733692Y1493692D01*
X1735976Y1491818D01*
X1738582Y1490425D01*
X1741409Y1489567D01*
X1744336Y1489279D01*
X1744612Y1488942D01*
X1744992Y1488139D01*
X1741436Y1484583D01*
X1740497Y1483177D01*
X1740167Y1481519D01*
Y1415259D01*
X1738794Y1414206D01*
X1737512Y1412534D01*
X1736706Y1410588D01*
X1736431Y1408500D01*
X1736706Y1406412D01*
X1737512Y1404465D01*
X1738794Y1402794D01*
X1740466Y1401512D01*
X1742412Y1400706D01*
X1744500Y1400431D01*
X1746588Y1400706D01*
X1748535Y1401512D01*
X1750206Y1402794D01*
X1751488Y1404465D01*
X1752294Y1406412D01*
X1752569Y1408500D01*
X1752294Y1410588D01*
X1751488Y1412534D01*
X1750206Y1414206D01*
X1748833Y1415259D01*
Y1479724D01*
X1763664Y1494555D01*
X1764603Y1495961D01*
X1764933Y1497619D01*
Y1511081D01*
X1764603Y1512739D01*
X1763664Y1514145D01*
X1761757Y1516052D01*
X1762437Y1517084D01*
X1765965Y1515623D01*
X1769750Y1515125D01*
X1773535Y1515623D01*
X1777063Y1517084D01*
X1780092Y1519409D01*
X1782416Y1522437D01*
X1783877Y1525965D01*
X1784375Y1529750D01*
X1783877Y1533535D01*
X1782416Y1537063D01*
X1780092Y1540092D01*
X1777063Y1542416D01*
X1773535Y1543877D01*
X1769750Y1544375D01*
D02*
G37*
G36*
X1581569Y1523500D02*
X1569000D01*
Y1516681D01*
X1577975D01*
X1579350Y1516954D01*
X1580516Y1517734D01*
X1581295Y1518900D01*
X1581569Y1520275D01*
Y1523500D01*
D02*
G37*
G36*
X1538750Y1533250D02*
X1513750D01*
Y1508250D01*
X1528052D01*
X1529049Y1507253D01*
X1528456Y1506050D01*
X1527750Y1506143D01*
Y1497250D01*
X1536643D01*
X1536480Y1498491D01*
X1535639Y1500520D01*
X1535697Y1500689D01*
X1536493Y1501634D01*
X1538000Y1501435D01*
X1538000Y1501435D01*
X1541878D01*
X1542702Y1500202D01*
X1544720Y1498854D01*
X1547100Y1498380D01*
X1552893D01*
X1553431Y1497725D01*
Y1494500D01*
X1566000D01*
Y1501319D01*
X1562455D01*
X1561720Y1502589D01*
X1562119Y1504600D01*
Y1513400D01*
X1561720Y1515411D01*
X1562455Y1516681D01*
X1566000D01*
Y1523500D01*
X1553431D01*
Y1520275D01*
X1552893Y1519619D01*
X1547100D01*
X1544720Y1519146D01*
X1542702Y1517798D01*
X1542202Y1517050D01*
X1540757Y1516941D01*
X1538750Y1518948D01*
Y1533250D01*
D02*
G37*
G36*
X1796650Y1519275D02*
Y1505850D01*
X1810075D01*
X1809933Y1507290D01*
X1809075Y1510118D01*
X1807682Y1512724D01*
X1805808Y1515008D01*
X1803524Y1516882D01*
X1800918Y1518275D01*
X1798091Y1519133D01*
X1796650Y1519275D01*
D02*
G37*
G36*
X1793650D02*
X1792209Y1519133D01*
X1789382Y1518275D01*
X1786776Y1516882D01*
X1784492Y1515008D01*
X1782618Y1512724D01*
X1781225Y1510118D01*
X1780367Y1507290D01*
X1780225Y1505850D01*
X1793650D01*
Y1519275D01*
D02*
G37*
G36*
X1524750Y1506143D02*
X1523509Y1505980D01*
X1520955Y1504922D01*
X1518761Y1503239D01*
X1517078Y1501045D01*
X1516020Y1498491D01*
X1515857Y1497250D01*
X1524750D01*
Y1506143D01*
D02*
G37*
G36*
X1577975Y1501319D02*
X1569000D01*
Y1494500D01*
X1581569D01*
Y1497725D01*
X1581295Y1499100D01*
X1580516Y1500266D01*
X1579350Y1501046D01*
X1577975Y1501319D01*
D02*
G37*
G36*
X1810075Y1502850D02*
X1796650D01*
Y1489425D01*
X1798091Y1489567D01*
X1800918Y1490425D01*
X1803524Y1491818D01*
X1805808Y1493692D01*
X1807682Y1495976D01*
X1809075Y1498582D01*
X1809933Y1501409D01*
X1810075Y1502850D01*
D02*
G37*
G36*
X1793650D02*
X1780225D01*
X1780367Y1501409D01*
X1781225Y1498582D01*
X1782618Y1495976D01*
X1784492Y1493692D01*
X1786776Y1491818D01*
X1789382Y1490425D01*
X1792209Y1489567D01*
X1793650Y1489425D01*
Y1502850D01*
D02*
G37*
G36*
X1536643Y1494250D02*
X1527750D01*
Y1485357D01*
X1528991Y1485520D01*
X1531545Y1486578D01*
X1533739Y1488261D01*
X1535422Y1490455D01*
X1536480Y1493009D01*
X1536643Y1494250D01*
D02*
G37*
G36*
X1524750D02*
X1515857D01*
X1516020Y1493009D01*
X1517078Y1490455D01*
X1518761Y1488261D01*
X1520955Y1486578D01*
X1523509Y1485520D01*
X1524750Y1485357D01*
Y1494250D01*
D02*
G37*
G36*
X1581569Y1491500D02*
X1569000D01*
Y1484681D01*
X1577975D01*
X1579350Y1484955D01*
X1580516Y1485734D01*
X1581295Y1486900D01*
X1581569Y1488275D01*
Y1491500D01*
D02*
G37*
G36*
X1566000D02*
X1553431D01*
Y1488275D01*
X1553705Y1486900D01*
X1554484Y1485734D01*
X1555650Y1484955D01*
X1557025Y1484681D01*
X1566000D01*
Y1491500D01*
D02*
G37*
G36*
X2051750Y1488069D02*
X2049662Y1487794D01*
X2047715Y1486988D01*
X2046044Y1485706D01*
X2044762Y1484034D01*
X2043956Y1482088D01*
X2043681Y1480000D01*
X2043907Y1478285D01*
X1979205Y1413583D01*
X1905009D01*
X1903956Y1414956D01*
X1902285Y1416238D01*
X1900338Y1417044D01*
X1898250Y1417319D01*
X1896162Y1417044D01*
X1894216Y1416238D01*
X1892544Y1414956D01*
X1891262Y1413284D01*
X1890456Y1411338D01*
X1890181Y1409250D01*
X1890456Y1407162D01*
X1891262Y1405215D01*
X1892544Y1403544D01*
X1894216Y1402262D01*
X1896162Y1401456D01*
X1898250Y1401181D01*
X1900338Y1401456D01*
X1902285Y1402262D01*
X1903956Y1403544D01*
X1905009Y1404917D01*
X1919340D01*
X1919771Y1403647D01*
X1918544Y1402706D01*
X1917262Y1401035D01*
X1916456Y1399088D01*
X1916181Y1397000D01*
X1916456Y1394912D01*
X1917262Y1392966D01*
X1918544Y1391294D01*
X1920215Y1390012D01*
X1922162Y1389206D01*
X1922167Y1389205D01*
Y1319014D01*
X1922070Y1318940D01*
X1920788Y1317269D01*
X1919982Y1315323D01*
X1919707Y1313235D01*
X1919982Y1311146D01*
X1920788Y1309200D01*
X1922070Y1307529D01*
X1923443Y1306476D01*
Y1285974D01*
X1923772Y1284316D01*
X1924712Y1282910D01*
X1938907Y1268715D01*
X1938681Y1267000D01*
X1938956Y1264912D01*
X1939762Y1262965D01*
X1941044Y1261294D01*
X1942715Y1260012D01*
X1944662Y1259206D01*
X1946750Y1258931D01*
X1948838Y1259206D01*
X1950784Y1260012D01*
X1952456Y1261294D01*
X1953738Y1262965D01*
X1954544Y1264912D01*
X1954819Y1267000D01*
X1954544Y1269088D01*
X1953738Y1271034D01*
X1952456Y1272706D01*
X1950784Y1273988D01*
X1948838Y1274794D01*
X1946750Y1275069D01*
X1945035Y1274843D01*
X1932109Y1287769D01*
Y1306476D01*
X1933481Y1307529D01*
X1934764Y1309200D01*
X1935570Y1311146D01*
X1935845Y1313235D01*
X1935570Y1315323D01*
X1934764Y1317269D01*
X1933481Y1318940D01*
X1931810Y1320222D01*
X1930833Y1320627D01*
Y1392438D01*
X1931238Y1392966D01*
X1932044Y1394912D01*
X1932319Y1397000D01*
X1932044Y1399088D01*
X1931238Y1401035D01*
X1929956Y1402706D01*
X1928729Y1403647D01*
X1929160Y1404917D01*
X1981000D01*
X1982658Y1405247D01*
X1984064Y1406186D01*
X2050035Y1472157D01*
X2051750Y1471931D01*
X2053838Y1472206D01*
X2055784Y1473012D01*
X2057456Y1474294D01*
X2058738Y1475966D01*
X2059544Y1477912D01*
X2059819Y1480000D01*
X2059544Y1482088D01*
X2058738Y1484034D01*
X2057456Y1485706D01*
X2055784Y1486988D01*
X2053838Y1487794D01*
X2051750Y1488069D01*
D02*
G37*
G36*
X2309000Y1458069D02*
X2306912Y1457794D01*
X2304966Y1456988D01*
X2303294Y1455706D01*
X2302241Y1454333D01*
X2260759D01*
X2259706Y1455706D01*
X2258035Y1456988D01*
X2256088Y1457794D01*
X2254000Y1458069D01*
X2251912Y1457794D01*
X2249966Y1456988D01*
X2248294Y1455706D01*
X2247012Y1454034D01*
X2246206Y1452088D01*
X2245931Y1450000D01*
X2246206Y1447912D01*
X2247012Y1445966D01*
X2248294Y1444294D01*
X2249966Y1443012D01*
X2251912Y1442206D01*
X2254000Y1441931D01*
X2256088Y1442206D01*
X2256418Y1442343D01*
X2257138Y1441266D01*
X2256205Y1440333D01*
X2249759D01*
X2248706Y1441706D01*
X2247034Y1442988D01*
X2245088Y1443794D01*
X2243000Y1444069D01*
X2240912Y1443794D01*
X2238965Y1442988D01*
X2237294Y1441706D01*
X2236012Y1440034D01*
X2235206Y1438088D01*
X2234931Y1436000D01*
X2235206Y1433912D01*
X2236012Y1431965D01*
X2237294Y1430294D01*
X2238965Y1429012D01*
X2240912Y1428206D01*
X2243000Y1427931D01*
X2245088Y1428206D01*
X2247034Y1429012D01*
X2248706Y1430294D01*
X2249759Y1431667D01*
X2256743D01*
X2257269Y1430397D01*
X2250715Y1423843D01*
X2249000Y1424069D01*
X2246912Y1423794D01*
X2244966Y1422988D01*
X2243294Y1421706D01*
X2242012Y1420034D01*
X2241206Y1418088D01*
X2240931Y1416000D01*
X2241206Y1413912D01*
X2242012Y1411965D01*
X2243294Y1410294D01*
X2244966Y1409012D01*
X2246912Y1408206D01*
X2249000Y1407931D01*
X2251088Y1408206D01*
X2253035Y1409012D01*
X2254706Y1410294D01*
X2255988Y1411965D01*
X2256794Y1413912D01*
X2257069Y1416000D01*
X2256843Y1417715D01*
X2264795Y1425667D01*
X2292241D01*
X2293294Y1424294D01*
X2294966Y1423012D01*
X2296912Y1422206D01*
X2299000Y1421931D01*
X2301088Y1422206D01*
X2303035Y1423012D01*
X2304706Y1424294D01*
X2305988Y1425966D01*
X2306694Y1427669D01*
X2307622Y1427709D01*
X2307981Y1427621D01*
X2308206Y1425912D01*
X2309012Y1423965D01*
X2310294Y1422294D01*
X2311965Y1421012D01*
X2313912Y1420206D01*
X2316000Y1419931D01*
X2318088Y1420206D01*
X2320034Y1421012D01*
X2321706Y1422294D01*
X2322988Y1423965D01*
X2323794Y1425912D01*
X2324069Y1428000D01*
X2323794Y1430088D01*
X2322988Y1432034D01*
X2321706Y1433706D01*
X2320034Y1434988D01*
X2318088Y1435794D01*
X2316000Y1436069D01*
X2314285Y1435843D01*
X2309422Y1440706D01*
X2309878Y1442047D01*
X2311088Y1442206D01*
X2313035Y1443012D01*
X2314706Y1444294D01*
X2315988Y1445966D01*
X2316794Y1447912D01*
X2317069Y1450000D01*
X2316794Y1452088D01*
X2315988Y1454034D01*
X2314706Y1455706D01*
X2313035Y1456988D01*
X2311088Y1457794D01*
X2309000Y1458069D01*
D02*
G37*
G36*
X2376000Y1438069D02*
X2373912Y1437794D01*
X2371965Y1436988D01*
X2370294Y1435706D01*
X2369012Y1434034D01*
X2368206Y1432088D01*
X2367931Y1430000D01*
X2368040Y1429169D01*
X2338715Y1399843D01*
X2337000Y1400069D01*
X2334912Y1399794D01*
X2332966Y1398988D01*
X2331294Y1397706D01*
X2330012Y1396035D01*
X2329206Y1394088D01*
X2328931Y1392000D01*
X2329206Y1389912D01*
X2330012Y1387966D01*
X2331294Y1386294D01*
X2332966Y1385012D01*
X2334912Y1384206D01*
X2337000Y1383931D01*
X2339088Y1384206D01*
X2341035Y1385012D01*
X2342706Y1386294D01*
X2343988Y1387966D01*
X2344794Y1389912D01*
X2345069Y1392000D01*
X2344843Y1393715D01*
X2373503Y1422375D01*
X2373912Y1422206D01*
X2376000Y1421931D01*
X2378088Y1422206D01*
X2380034Y1423012D01*
X2381706Y1424294D01*
X2382988Y1425966D01*
X2383794Y1427912D01*
X2384069Y1430000D01*
X2383794Y1432088D01*
X2382988Y1434034D01*
X2381706Y1435706D01*
X2380034Y1436988D01*
X2378088Y1437794D01*
X2376000Y1438069D01*
D02*
G37*
G36*
X2583000Y1418921D02*
X2579345Y1418440D01*
X2575940Y1417029D01*
X2573015Y1414785D01*
X2570771Y1411860D01*
X2569360Y1408455D01*
X2568879Y1404800D01*
X2569360Y1401145D01*
X2570771Y1397740D01*
X2573015Y1394815D01*
X2575940Y1392571D01*
X2579345Y1391160D01*
X2583000Y1390679D01*
X2586655Y1391160D01*
X2590060Y1392571D01*
X2592985Y1394815D01*
X2595229Y1397740D01*
X2596640Y1401145D01*
X2597121Y1404800D01*
X2596640Y1408455D01*
X2595229Y1411860D01*
X2592985Y1414785D01*
X2590060Y1417029D01*
X2586655Y1418440D01*
X2583000Y1418921D01*
D02*
G37*
G36*
X2506800D02*
X2503145Y1418440D01*
X2499740Y1417029D01*
X2496815Y1414785D01*
X2494571Y1411860D01*
X2493160Y1408455D01*
X2492679Y1404800D01*
X2493160Y1401145D01*
X2494571Y1397740D01*
X2496815Y1394815D01*
X2499740Y1392571D01*
X2503145Y1391160D01*
X2506800Y1390679D01*
X2510455Y1391160D01*
X2513860Y1392571D01*
X2516785Y1394815D01*
X2519029Y1397740D01*
X2520440Y1401145D01*
X2520921Y1404800D01*
X2520440Y1408455D01*
X2519029Y1411860D01*
X2516785Y1414785D01*
X2513860Y1417029D01*
X2510455Y1418440D01*
X2506800Y1418921D01*
D02*
G37*
G36*
X2287998Y1419070D02*
X2285910Y1418795D01*
X2283964Y1417988D01*
X2282293Y1416706D01*
X2281010Y1415035D01*
X2280204Y1413089D01*
X2279929Y1411000D01*
X2280204Y1408912D01*
X2281010Y1406966D01*
X2282293Y1405295D01*
X2283964Y1404012D01*
X2285910Y1403206D01*
X2287932Y1402940D01*
X2292667Y1398205D01*
Y1373759D01*
X2291294Y1372706D01*
X2290012Y1371035D01*
X2289206Y1369088D01*
X2288931Y1367000D01*
X2289206Y1364912D01*
X2290012Y1362966D01*
X2291294Y1361294D01*
X2292966Y1360012D01*
X2293952Y1359603D01*
X2293700Y1358333D01*
X2286795D01*
X2243064Y1402064D01*
X2241658Y1403003D01*
X2240000Y1403333D01*
X2184759D01*
X2183706Y1404706D01*
X2182034Y1405988D01*
X2180088Y1406794D01*
X2178000Y1407069D01*
X2175912Y1406794D01*
X2173965Y1405988D01*
X2172294Y1404706D01*
X2171012Y1403035D01*
X2170206Y1401088D01*
X2169931Y1399000D01*
X2170206Y1396912D01*
X2171012Y1394966D01*
X2172294Y1393294D01*
X2173965Y1392012D01*
X2175912Y1391206D01*
X2178000Y1390931D01*
X2180088Y1391206D01*
X2182034Y1392012D01*
X2183706Y1393294D01*
X2184759Y1394667D01*
X2238205D01*
X2281269Y1351603D01*
X2280743Y1350333D01*
X2274991D01*
X2274706Y1350706D01*
X2273035Y1351988D01*
X2271088Y1352794D01*
X2269000Y1353069D01*
X2266912Y1352794D01*
X2264966Y1351988D01*
X2263294Y1350706D01*
X2262012Y1349034D01*
X2261206Y1347088D01*
X2260931Y1345000D01*
X2261206Y1342912D01*
X2262012Y1340966D01*
X2263294Y1339294D01*
X2264966Y1338012D01*
X2266912Y1337206D01*
X2269000Y1336931D01*
X2271088Y1337206D01*
X2273035Y1338012D01*
X2274706Y1339294D01*
X2275988Y1340966D01*
X2276278Y1341667D01*
X2305241D01*
X2306294Y1340294D01*
X2307966Y1339012D01*
X2309912Y1338206D01*
X2312000Y1337931D01*
X2314088Y1338206D01*
X2316035Y1339012D01*
X2317706Y1340294D01*
X2318988Y1341965D01*
X2319794Y1343912D01*
X2320069Y1346000D01*
X2319794Y1348088D01*
X2318988Y1350034D01*
X2317706Y1351706D01*
X2316035Y1352988D01*
X2314088Y1353794D01*
X2313238Y1353906D01*
X2312592Y1355272D01*
X2312651Y1355367D01*
X2317541D01*
X2318594Y1353994D01*
X2320266Y1352712D01*
X2322212Y1351906D01*
X2324300Y1351631D01*
X2326388Y1351906D01*
X2328335Y1352712D01*
X2330006Y1353994D01*
X2331288Y1355665D01*
X2332094Y1357612D01*
X2332369Y1359700D01*
X2332094Y1361788D01*
X2331288Y1363734D01*
X2330006Y1365406D01*
X2328335Y1366688D01*
X2326388Y1367494D01*
X2324300Y1367769D01*
X2322212Y1367494D01*
X2320266Y1366688D01*
X2318594Y1365406D01*
X2317541Y1364033D01*
X2309700D01*
X2308042Y1363703D01*
X2306636Y1362764D01*
X2302205Y1358333D01*
X2300300D01*
X2300048Y1359603D01*
X2301035Y1360012D01*
X2302706Y1361294D01*
X2303988Y1362966D01*
X2304794Y1364912D01*
X2305069Y1367000D01*
X2304794Y1369088D01*
X2303988Y1371035D01*
X2302706Y1372706D01*
X2301333Y1373759D01*
Y1400000D01*
X2301003Y1401658D01*
X2300064Y1403064D01*
X2295331Y1407798D01*
X2295792Y1408912D01*
X2296067Y1411000D01*
X2295792Y1413089D01*
X2294986Y1415035D01*
X2293704Y1416706D01*
X2292033Y1417988D01*
X2290087Y1418795D01*
X2287998Y1419070D01*
D02*
G37*
G36*
X2595000Y1366000D02*
X2584500D01*
Y1355500D01*
X2595000D01*
Y1366000D01*
D02*
G37*
G36*
X2508300Y1365906D02*
Y1355500D01*
X2518706D01*
X2518491Y1357133D01*
X2517282Y1360052D01*
X2515358Y1362558D01*
X2512852Y1364482D01*
X2509933Y1365691D01*
X2508300Y1365906D01*
D02*
G37*
G36*
X2505300D02*
X2503667Y1365691D01*
X2500748Y1364482D01*
X2498241Y1362558D01*
X2496318Y1360052D01*
X2495109Y1357133D01*
X2494894Y1355500D01*
X2505300D01*
Y1365906D01*
D02*
G37*
G36*
X2581500Y1366000D02*
X2571000D01*
Y1355500D01*
X2581500D01*
Y1366000D01*
D02*
G37*
G36*
X2239000Y1360069D02*
X2236912Y1359794D01*
X2234966Y1358988D01*
X2233294Y1357706D01*
X2232105Y1356155D01*
X2231342Y1356003D01*
X2229936Y1355064D01*
X2220205Y1345333D01*
X2108201D01*
X2107088Y1345794D01*
X2105000Y1346069D01*
X2102912Y1345794D01*
X2100966Y1344988D01*
X2099294Y1343706D01*
X2098012Y1342034D01*
X2097206Y1340088D01*
X2096931Y1338000D01*
X2097206Y1335912D01*
X2098012Y1333965D01*
X2099294Y1332294D01*
X2100966Y1331012D01*
X2102912Y1330206D01*
X2105000Y1329931D01*
X2107088Y1330206D01*
X2109034Y1331012D01*
X2110706Y1332294D01*
X2111988Y1333965D01*
X2112794Y1335912D01*
X2112894Y1336667D01*
X2222000D01*
X2223658Y1336997D01*
X2225064Y1337936D01*
X2227266Y1340138D01*
X2228343Y1339418D01*
X2228206Y1339088D01*
X2227931Y1337000D01*
X2228206Y1334912D01*
X2229012Y1332966D01*
X2230294Y1331294D01*
X2231667Y1330241D01*
Y1308795D01*
X2224205Y1301333D01*
X2207759D01*
X2206706Y1302706D01*
X2205034Y1303988D01*
X2203088Y1304794D01*
X2201000Y1305069D01*
X2198912Y1304794D01*
X2196965Y1303988D01*
X2195294Y1302706D01*
X2194012Y1301035D01*
X2193206Y1299088D01*
X2192931Y1297000D01*
X2193206Y1294912D01*
X2194012Y1292966D01*
X2195294Y1291294D01*
X2196965Y1290012D01*
X2198912Y1289206D01*
X2201000Y1288931D01*
X2203088Y1289206D01*
X2205034Y1290012D01*
X2206706Y1291294D01*
X2207759Y1292667D01*
X2226000D01*
X2227658Y1292997D01*
X2229064Y1293936D01*
X2239064Y1303936D01*
X2240003Y1305342D01*
X2240333Y1307000D01*
Y1330241D01*
X2241706Y1331294D01*
X2242988Y1332966D01*
X2243794Y1334912D01*
X2244069Y1337000D01*
X2243794Y1339088D01*
X2242988Y1341035D01*
X2241706Y1342706D01*
X2241333Y1342992D01*
X2241303Y1343140D01*
X2241574Y1344407D01*
X2243035Y1345012D01*
X2244706Y1346294D01*
X2245988Y1347966D01*
X2246794Y1349912D01*
X2247069Y1352000D01*
X2246794Y1354088D01*
X2245988Y1356035D01*
X2244706Y1357706D01*
X2243035Y1358988D01*
X2241088Y1359794D01*
X2239000Y1360069D01*
D02*
G37*
G36*
X2518706Y1352500D02*
X2508300D01*
Y1342094D01*
X2509933Y1342309D01*
X2512852Y1343518D01*
X2515358Y1345441D01*
X2517282Y1347948D01*
X2518491Y1350867D01*
X2518706Y1352500D01*
D02*
G37*
G36*
X2505300D02*
X2494894D01*
X2495109Y1350867D01*
X2496318Y1347948D01*
X2498241Y1345441D01*
X2500748Y1343518D01*
X2503667Y1342309D01*
X2505300Y1342094D01*
Y1352500D01*
D02*
G37*
G36*
X2595000D02*
X2584500D01*
Y1342000D01*
X2595000D01*
Y1352500D01*
D02*
G37*
G36*
X2581500D02*
X2571000D01*
Y1342000D01*
X2581500D01*
Y1352500D01*
D02*
G37*
G36*
X1510143Y1316500D02*
X1501250D01*
Y1307607D01*
X1502491Y1307770D01*
X1505045Y1308828D01*
X1507239Y1310511D01*
X1508922Y1312705D01*
X1509980Y1315259D01*
X1510143Y1316500D01*
D02*
G37*
G36*
X1498250D02*
X1489357D01*
X1489520Y1315259D01*
X1490578Y1312705D01*
X1492261Y1310511D01*
X1494455Y1308828D01*
X1497009Y1307770D01*
X1498250Y1307607D01*
Y1316500D01*
D02*
G37*
G36*
X2583170Y1325991D02*
X2579515Y1325510D01*
X2576110Y1324099D01*
X2573185Y1321855D01*
X2570941Y1318930D01*
X2569530Y1315525D01*
X2569049Y1311870D01*
X2569530Y1308215D01*
X2570941Y1304810D01*
X2573185Y1301885D01*
X2576110Y1299641D01*
X2579515Y1298230D01*
X2583170Y1297749D01*
X2586825Y1298230D01*
X2590230Y1299641D01*
X2593155Y1301885D01*
X2595399Y1304810D01*
X2596810Y1308215D01*
X2597291Y1311870D01*
X2596810Y1315525D01*
X2595399Y1318930D01*
X2593155Y1321855D01*
X2590230Y1324099D01*
X2586825Y1325510D01*
X2583170Y1325991D01*
D02*
G37*
G36*
X2506970D02*
X2503315Y1325510D01*
X2499910Y1324099D01*
X2496985Y1321855D01*
X2494741Y1318930D01*
X2493330Y1315525D01*
X2492849Y1311870D01*
X2493330Y1308215D01*
X2494741Y1304810D01*
X2496985Y1301885D01*
X2499910Y1299641D01*
X2503315Y1298230D01*
X2506970Y1297749D01*
X2510625Y1298230D01*
X2514030Y1299641D01*
X2516955Y1301885D01*
X2519199Y1304810D01*
X2520610Y1308215D01*
X2521091Y1311870D01*
X2520610Y1315525D01*
X2519199Y1318930D01*
X2516955Y1321855D01*
X2514030Y1324099D01*
X2510625Y1325510D01*
X2506970Y1325991D01*
D02*
G37*
G36*
X2449000Y1355069D02*
X2446912Y1354794D01*
X2444966Y1353988D01*
X2443294Y1352706D01*
X2442012Y1351035D01*
X2441206Y1349088D01*
X2440931Y1347000D01*
X2441206Y1344912D01*
X2442012Y1342966D01*
X2443294Y1341294D01*
X2443902Y1340828D01*
Y1292098D01*
X2304194D01*
X2303035Y1292988D01*
X2301088Y1293794D01*
X2299000Y1294069D01*
X2296912Y1293794D01*
X2294966Y1292988D01*
X2293294Y1291706D01*
X2292828Y1291098D01*
X2251000D01*
X2249049Y1290710D01*
X2247395Y1289605D01*
X2159760Y1201969D01*
X2159000Y1202069D01*
X2156912Y1201794D01*
X2154966Y1200988D01*
X2153294Y1199706D01*
X2152828Y1199098D01*
X2133000D01*
X2131049Y1198710D01*
X2129395Y1197605D01*
X2122888Y1191098D01*
X2064112D01*
X2048021Y1207188D01*
X2048044Y1207243D01*
X2048319Y1209331D01*
X2048044Y1211420D01*
X2047238Y1213366D01*
X2045956Y1215037D01*
X2044285Y1216319D01*
X2042338Y1217125D01*
X2040250Y1217400D01*
X2038162Y1217125D01*
X2036216Y1216319D01*
X2034544Y1215037D01*
X2033262Y1213366D01*
X2032456Y1211420D01*
X2032181Y1209331D01*
X2032456Y1207243D01*
X2033262Y1205297D01*
X2034544Y1203626D01*
X2036216Y1202343D01*
X2038162Y1201537D01*
X2039419Y1201372D01*
X2058395Y1182395D01*
X2060049Y1181290D01*
X2062000Y1180902D01*
X2125000D01*
X2126951Y1181290D01*
X2128605Y1182395D01*
X2135112Y1188902D01*
X2152828D01*
X2153294Y1188294D01*
X2154966Y1187012D01*
X2156912Y1186206D01*
X2159000Y1185931D01*
X2161088Y1186206D01*
X2163035Y1187012D01*
X2164706Y1188294D01*
X2165988Y1189966D01*
X2166794Y1191912D01*
X2167069Y1194000D01*
X2166969Y1194760D01*
X2253112Y1280902D01*
X2292828D01*
X2293294Y1280294D01*
X2294966Y1279012D01*
X2296912Y1278206D01*
X2299000Y1277931D01*
X2301088Y1278206D01*
X2303035Y1279012D01*
X2304706Y1280294D01*
X2305939Y1281902D01*
X2443902D01*
Y1262769D01*
X2443206Y1261088D01*
X2442931Y1259000D01*
X2443031Y1258241D01*
X2425895Y1241105D01*
X2424790Y1239451D01*
X2424402Y1237500D01*
Y1188672D01*
X2423794Y1188206D01*
X2422512Y1186535D01*
X2421706Y1184588D01*
X2421431Y1182500D01*
X2421706Y1180412D01*
X2422512Y1178465D01*
X2423794Y1176794D01*
X2424402Y1176328D01*
Y1094556D01*
X2423294Y1093706D01*
X2422012Y1092035D01*
X2421206Y1090088D01*
X2420931Y1088000D01*
X2421206Y1085912D01*
X2422012Y1083966D01*
X2423294Y1082294D01*
X2424966Y1081012D01*
X2426912Y1080206D01*
X2429000Y1079931D01*
X2431088Y1080206D01*
X2433035Y1081012D01*
X2434706Y1082294D01*
X2435988Y1083966D01*
X2436794Y1085912D01*
X2437069Y1088000D01*
X2436794Y1090088D01*
X2435988Y1092035D01*
X2434706Y1093706D01*
X2434598Y1093788D01*
Y1176328D01*
X2435206Y1176794D01*
X2436488Y1178465D01*
X2437294Y1180412D01*
X2437569Y1182500D01*
X2437294Y1184588D01*
X2436488Y1186535D01*
X2435206Y1188206D01*
X2434598Y1188672D01*
Y1235388D01*
X2450241Y1251031D01*
X2451000Y1250931D01*
X2453088Y1251206D01*
X2455034Y1252012D01*
X2456706Y1253294D01*
X2457988Y1254966D01*
X2458794Y1256912D01*
X2459069Y1259000D01*
X2458794Y1261088D01*
X2457988Y1263035D01*
X2456706Y1264706D01*
X2455034Y1265988D01*
X2454098Y1266376D01*
Y1287000D01*
Y1340828D01*
X2454706Y1341294D01*
X2455988Y1342966D01*
X2456794Y1344912D01*
X2457069Y1347000D01*
X2456794Y1349088D01*
X2455988Y1351035D01*
X2454706Y1352706D01*
X2453035Y1353988D01*
X2451088Y1354794D01*
X2449000Y1355069D01*
D02*
G37*
G36*
X1499000Y1294177D02*
Y1280250D01*
X1512927D01*
X1512776Y1281788D01*
X1511889Y1284710D01*
X1510450Y1287403D01*
X1508513Y1289763D01*
X1506153Y1291700D01*
X1503460Y1293139D01*
X1500538Y1294026D01*
X1499000Y1294177D01*
D02*
G37*
G36*
X1496000D02*
X1494462Y1294026D01*
X1491540Y1293139D01*
X1488847Y1291700D01*
X1486487Y1289763D01*
X1484550Y1287403D01*
X1483111Y1284710D01*
X1482224Y1281788D01*
X1481961Y1279118D01*
X1481146Y1278503D01*
X1480687Y1278359D01*
X1477279Y1280180D01*
X1472755Y1281553D01*
X1468050Y1282016D01*
X1463345Y1281553D01*
X1458821Y1280180D01*
X1454652Y1277952D01*
X1450997Y1274953D01*
X1447998Y1271298D01*
X1445770Y1267129D01*
X1444397Y1262605D01*
X1443934Y1257900D01*
X1444397Y1253195D01*
X1445770Y1248671D01*
X1447998Y1244502D01*
X1450997Y1240847D01*
X1454652Y1237848D01*
X1458821Y1235620D01*
X1463345Y1234247D01*
X1468050Y1233784D01*
X1472755Y1234247D01*
X1477279Y1235620D01*
X1481448Y1237848D01*
X1485103Y1240847D01*
X1488102Y1244502D01*
X1490330Y1248671D01*
X1491703Y1253195D01*
X1492166Y1257900D01*
X1491703Y1262605D01*
X1491576Y1263022D01*
X1492594Y1264041D01*
X1494462Y1263474D01*
X1496000Y1263323D01*
Y1278750D01*
Y1294177D01*
D02*
G37*
G36*
X1512927Y1277250D02*
X1499000D01*
Y1263323D01*
X1500538Y1263474D01*
X1503460Y1264361D01*
X1506153Y1265800D01*
X1508513Y1267737D01*
X1510450Y1270097D01*
X1511889Y1272790D01*
X1512776Y1275712D01*
X1512927Y1277250D01*
D02*
G37*
G36*
X2595170Y1273070D02*
X2584670D01*
Y1262570D01*
X2595170D01*
Y1273070D01*
D02*
G37*
G36*
X2508470Y1272976D02*
Y1262570D01*
X2518876D01*
X2518661Y1264203D01*
X2517452Y1267122D01*
X2515529Y1269628D01*
X2513022Y1271552D01*
X2510103Y1272761D01*
X2508470Y1272976D01*
D02*
G37*
G36*
X2505470Y1272976D02*
X2503837Y1272761D01*
X2500918Y1271552D01*
X2498412Y1269628D01*
X2496488Y1267122D01*
X2495279Y1264203D01*
X2495064Y1262570D01*
X2505470D01*
Y1272976D01*
D02*
G37*
G36*
X2581670Y1273070D02*
X2571170D01*
Y1262570D01*
X2581670D01*
Y1273070D01*
D02*
G37*
G36*
X2088000Y1350069D02*
X2085912Y1349794D01*
X2083965Y1348988D01*
X2082294Y1347706D01*
X2081012Y1346035D01*
X2080206Y1344088D01*
X2079931Y1342000D01*
X2080206Y1339912D01*
X2081012Y1337966D01*
X2082294Y1336294D01*
X2083667Y1335241D01*
Y1267796D01*
X2074203Y1258333D01*
X2073087Y1258795D01*
X2070999Y1259070D01*
X2068910Y1258795D01*
X2066964Y1257989D01*
X2065293Y1256706D01*
X2064011Y1255035D01*
X2063205Y1253089D01*
X2062930Y1251001D01*
X2063205Y1248912D01*
X2064011Y1246966D01*
X2065293Y1245295D01*
X2066964Y1244013D01*
X2068910Y1243207D01*
X2070999Y1242932D01*
X2073087Y1243207D01*
X2075033Y1244013D01*
X2076704Y1245295D01*
X2077987Y1246966D01*
X2078793Y1248912D01*
X2079059Y1250932D01*
X2091064Y1262937D01*
X2092003Y1264343D01*
X2092333Y1266002D01*
Y1335241D01*
X2093706Y1336294D01*
X2094988Y1337966D01*
X2095794Y1339912D01*
X2096069Y1342000D01*
X2095794Y1344088D01*
X2094988Y1346035D01*
X2093706Y1347706D01*
X2092034Y1348988D01*
X2090088Y1349794D01*
X2088000Y1350069D01*
D02*
G37*
G36*
X2518876Y1259570D02*
X2508470D01*
Y1249164D01*
X2510103Y1249379D01*
X2513022Y1250588D01*
X2515529Y1252512D01*
X2517452Y1255018D01*
X2518661Y1257937D01*
X2518876Y1259570D01*
D02*
G37*
G36*
X2505470D02*
X2495064D01*
X2495279Y1257937D01*
X2496488Y1255018D01*
X2498412Y1252512D01*
X2500918Y1250588D01*
X2503837Y1249379D01*
X2505470Y1249164D01*
Y1259570D01*
D02*
G37*
G36*
X2595170D02*
X2584670D01*
Y1249070D01*
X2595170D01*
Y1259570D01*
D02*
G37*
G36*
X2581670D02*
X2571170D01*
Y1249070D01*
X2581670D01*
Y1259570D01*
D02*
G37*
G36*
X2294000Y1253333D02*
X2260000D01*
X2258342Y1253003D01*
X2256936Y1252064D01*
X2205936Y1201064D01*
X2204997Y1199658D01*
X2204667Y1198000D01*
Y1162876D01*
X2189384Y1147593D01*
X2187669Y1147819D01*
X2185580Y1147544D01*
X2183634Y1146738D01*
X2181963Y1145456D01*
X2180681Y1143785D01*
X2179875Y1141839D01*
X2179600Y1139750D01*
X2179875Y1137662D01*
X2180681Y1135715D01*
X2181963Y1134044D01*
X2183634Y1132762D01*
X2185580Y1131956D01*
X2187669Y1131681D01*
X2189757Y1131956D01*
X2191703Y1132762D01*
X2193374Y1134044D01*
X2194657Y1135715D01*
X2195463Y1137662D01*
X2195738Y1139750D01*
X2195512Y1141465D01*
X2212064Y1158017D01*
X2213003Y1159423D01*
X2213333Y1161081D01*
Y1196205D01*
X2214395Y1197267D01*
X2215665Y1196741D01*
Y1157760D01*
X2214293Y1156707D01*
X2213010Y1155035D01*
X2212204Y1153089D01*
X2211929Y1151001D01*
X2212204Y1148913D01*
X2213010Y1146966D01*
X2214293Y1145295D01*
X2215964Y1144013D01*
X2217910Y1143207D01*
X2219998Y1142932D01*
X2222087Y1143207D01*
X2224033Y1144013D01*
X2225704Y1145295D01*
X2226986Y1146966D01*
X2227792Y1148913D01*
X2228067Y1151001D01*
X2227792Y1153089D01*
X2226986Y1155035D01*
X2225704Y1156707D01*
X2224332Y1157760D01*
Y1196204D01*
X2261795Y1233667D01*
X2280241D01*
X2281294Y1232294D01*
X2282966Y1231012D01*
X2284912Y1230206D01*
X2287000Y1229931D01*
X2289088Y1230206D01*
X2291035Y1231012D01*
X2292706Y1232294D01*
X2293988Y1233966D01*
X2294794Y1235912D01*
X2295069Y1238000D01*
X2294794Y1240088D01*
X2294657Y1240418D01*
X2295734Y1241138D01*
X2297157Y1239715D01*
X2296931Y1238000D01*
X2297206Y1235912D01*
X2298012Y1233966D01*
X2299294Y1232294D01*
X2300966Y1231012D01*
X2302912Y1230206D01*
X2305000Y1229931D01*
X2307088Y1230206D01*
X2309034Y1231012D01*
X2310706Y1232294D01*
X2311988Y1233966D01*
X2312794Y1235912D01*
X2313069Y1238000D01*
X2312794Y1240088D01*
X2311988Y1242035D01*
X2310706Y1243706D01*
X2309034Y1244988D01*
X2307088Y1245794D01*
X2305000Y1246069D01*
X2303285Y1245843D01*
X2297064Y1252064D01*
X2295658Y1253003D01*
X2294000Y1253333D01*
D02*
G37*
G36*
X1759250Y1311819D02*
X1757162Y1311544D01*
X1755215Y1310738D01*
X1753544Y1309456D01*
X1752262Y1307784D01*
X1751456Y1305838D01*
X1751181Y1303750D01*
X1751456Y1301662D01*
X1752262Y1299716D01*
X1753544Y1298044D01*
X1755215Y1296762D01*
X1757162Y1295956D01*
X1759250Y1295681D01*
X1760965Y1295907D01*
X1774167Y1282705D01*
Y1234999D01*
X1774497Y1233341D01*
X1775436Y1231935D01*
X1780426Y1226945D01*
X1780200Y1225230D01*
X1780475Y1223142D01*
X1781281Y1221196D01*
X1782563Y1219525D01*
X1784234Y1218242D01*
X1786181Y1217436D01*
X1788269Y1217161D01*
X1790357Y1217436D01*
X1792303Y1218242D01*
X1793975Y1219525D01*
X1795257Y1221196D01*
X1796063Y1223142D01*
X1796338Y1225230D01*
X1796063Y1227319D01*
X1795257Y1229265D01*
X1793975Y1230936D01*
X1792303Y1232218D01*
X1790357Y1233024D01*
X1788269Y1233299D01*
X1786554Y1233074D01*
X1782833Y1236794D01*
Y1284500D01*
X1782503Y1286158D01*
X1781564Y1287564D01*
X1767093Y1302035D01*
X1767319Y1303750D01*
X1767044Y1305838D01*
X1766238Y1307784D01*
X1764956Y1309456D01*
X1763284Y1310738D01*
X1761338Y1311544D01*
X1759250Y1311819D01*
D02*
G37*
G36*
X2267000Y1231069D02*
X2264912Y1230794D01*
X2262966Y1229988D01*
X2261294Y1228706D01*
X2260012Y1227035D01*
X2259206Y1225088D01*
X2258931Y1223000D01*
X2259206Y1220912D01*
X2260012Y1218966D01*
X2261294Y1217294D01*
X2261406Y1217209D01*
X2260765Y1216099D01*
X2259088Y1216794D01*
X2257000Y1217069D01*
X2254912Y1216794D01*
X2252966Y1215988D01*
X2251294Y1214706D01*
X2250012Y1213035D01*
X2249206Y1211088D01*
X2248931Y1209000D01*
X2249014Y1208371D01*
X2247850Y1207478D01*
X2247088Y1207794D01*
X2245000Y1208069D01*
X2242912Y1207794D01*
X2240966Y1206988D01*
X2239294Y1205706D01*
X2238012Y1204035D01*
X2237206Y1202088D01*
X2236931Y1200000D01*
X2237206Y1197912D01*
X2238012Y1195965D01*
X2238404Y1195455D01*
X2238334Y1195238D01*
X2236767Y1194513D01*
X2236088Y1194794D01*
X2234000Y1195069D01*
X2231912Y1194794D01*
X2229966Y1193988D01*
X2228294Y1192706D01*
X2227012Y1191034D01*
X2226206Y1189088D01*
X2225931Y1187000D01*
X2226206Y1184912D01*
X2227012Y1182965D01*
X2228294Y1181294D01*
X2229966Y1180012D01*
X2231912Y1179206D01*
X2234000Y1178931D01*
X2235715Y1179157D01*
X2262667Y1152205D01*
Y1108759D01*
X2261294Y1107706D01*
X2260240Y1106331D01*
X2259765Y1106219D01*
X2259235D01*
X2258760Y1106331D01*
X2257706Y1107706D01*
X2256035Y1108988D01*
X2254088Y1109794D01*
X2252379Y1110019D01*
X2252291Y1110378D01*
X2252331Y1111306D01*
X2254034Y1112012D01*
X2255706Y1113294D01*
X2256988Y1114966D01*
X2257794Y1116912D01*
X2258069Y1119000D01*
X2257794Y1121088D01*
X2256988Y1123035D01*
X2255706Y1124706D01*
X2254113Y1125928D01*
X2254076Y1126605D01*
X2254251Y1127273D01*
X2256035Y1128012D01*
X2257706Y1129294D01*
X2258988Y1130965D01*
X2259794Y1132912D01*
X2260069Y1135000D01*
X2259794Y1137088D01*
X2258988Y1139035D01*
X2257706Y1140706D01*
X2256035Y1141988D01*
X2254088Y1142794D01*
X2252000Y1143069D01*
X2249912Y1142794D01*
X2247966Y1141988D01*
X2246294Y1140706D01*
X2245012Y1139035D01*
X2244206Y1137088D01*
X2243931Y1135000D01*
X2244082Y1133853D01*
X2243041Y1132583D01*
X2221169D01*
X2219510Y1132253D01*
X2218105Y1131314D01*
X2202686Y1115895D01*
X2201747Y1114490D01*
X2201417Y1112831D01*
Y1096545D01*
X2197715Y1092843D01*
X2196000Y1093069D01*
X2193912Y1092794D01*
X2191965Y1091988D01*
X2190294Y1090706D01*
X2189012Y1089035D01*
X2188206Y1087088D01*
X2187931Y1085000D01*
X2188206Y1082912D01*
X2189012Y1080965D01*
X2190294Y1079294D01*
X2191965Y1078012D01*
X2193912Y1077206D01*
X2196000Y1076931D01*
X2198088Y1077206D01*
X2200034Y1078012D01*
X2201706Y1079294D01*
X2202988Y1080965D01*
X2203794Y1082912D01*
X2204069Y1085000D01*
X2203843Y1086715D01*
X2208814Y1091686D01*
X2209422Y1092596D01*
X2210891Y1093019D01*
X2211027Y1092986D01*
X2212912Y1092206D01*
X2215000Y1091931D01*
X2217088Y1092206D01*
X2219034Y1093012D01*
X2220706Y1094294D01*
X2221988Y1095965D01*
X2222693Y1097667D01*
X2245241D01*
X2246294Y1096294D01*
X2246581Y1096074D01*
X2246390Y1094620D01*
X2244696Y1093919D01*
X2242085Y1091915D01*
X2240081Y1089304D01*
X2238822Y1086263D01*
X2238392Y1083000D01*
X2238822Y1079737D01*
X2240081Y1076696D01*
X2242085Y1074085D01*
X2244696Y1072081D01*
X2247737Y1070822D01*
X2251000Y1070392D01*
X2254263Y1070822D01*
X2257304Y1072081D01*
X2259915Y1074085D01*
X2261919Y1076696D01*
X2263178Y1079737D01*
X2263608Y1083000D01*
X2263178Y1086263D01*
X2261919Y1089304D01*
X2259915Y1091915D01*
X2257304Y1093919D01*
X2256909Y1094082D01*
X2256718Y1095536D01*
X2257706Y1096294D01*
X2258760Y1097669D01*
X2259235Y1097781D01*
X2259765D01*
X2260240Y1097669D01*
X2261294Y1096294D01*
X2262966Y1095012D01*
X2264912Y1094206D01*
X2267000Y1093931D01*
X2269088Y1094206D01*
X2271035Y1095012D01*
X2272706Y1096294D01*
X2273988Y1097965D01*
X2274794Y1099912D01*
X2275069Y1102000D01*
X2274794Y1104088D01*
X2274099Y1105765D01*
X2275209Y1106406D01*
X2275294Y1106294D01*
X2276965Y1105012D01*
X2278912Y1104206D01*
X2281000Y1103931D01*
X2283088Y1104206D01*
X2285034Y1105012D01*
X2286706Y1106294D01*
X2287988Y1107965D01*
X2288794Y1109912D01*
X2289069Y1112000D01*
X2288794Y1114088D01*
X2287988Y1116034D01*
X2286706Y1117706D01*
X2285333Y1118759D01*
Y1164000D01*
X2285003Y1165658D01*
X2284064Y1167064D01*
X2252843Y1198285D01*
X2253069Y1200000D01*
X2252986Y1200629D01*
X2254150Y1201522D01*
X2254912Y1201206D01*
X2257000Y1200931D01*
X2258715Y1201157D01*
X2292667Y1167205D01*
Y1129759D01*
X2291294Y1128706D01*
X2290012Y1127035D01*
X2289206Y1125088D01*
X2288931Y1123000D01*
X2289206Y1120912D01*
X2290012Y1118966D01*
X2291294Y1117294D01*
X2292966Y1116012D01*
X2294912Y1115206D01*
X2297000Y1114931D01*
X2299088Y1115206D01*
X2301035Y1116012D01*
X2302706Y1117294D01*
X2303988Y1118966D01*
X2304794Y1120912D01*
X2305069Y1123000D01*
X2304794Y1125088D01*
X2304659Y1125413D01*
X2305703Y1126214D01*
X2305966Y1126012D01*
X2307912Y1125206D01*
X2310000Y1124931D01*
X2312088Y1125206D01*
X2314034Y1126012D01*
X2315706Y1127294D01*
X2316988Y1128966D01*
X2317794Y1130912D01*
X2318069Y1133000D01*
X2317794Y1135088D01*
X2316988Y1137035D01*
X2315706Y1138706D01*
X2314333Y1139759D01*
Y1180000D01*
X2314003Y1181658D01*
X2313064Y1183064D01*
X2274843Y1221285D01*
X2275069Y1223000D01*
X2274794Y1225088D01*
X2273988Y1227035D01*
X2272706Y1228706D01*
X2271035Y1229988D01*
X2269088Y1230794D01*
X2267000Y1231069D01*
D02*
G37*
G36*
X2582170Y1232741D02*
X2578515Y1232259D01*
X2575110Y1230849D01*
X2572185Y1228605D01*
X2569941Y1225680D01*
X2568530Y1222274D01*
X2568049Y1218620D01*
X2568530Y1214965D01*
X2569941Y1211559D01*
X2572185Y1208635D01*
X2575110Y1206391D01*
X2578515Y1204980D01*
X2582170Y1204499D01*
X2585825Y1204980D01*
X2589230Y1206391D01*
X2592155Y1208635D01*
X2594399Y1211559D01*
X2595810Y1214965D01*
X2596291Y1218620D01*
X2595810Y1222274D01*
X2594399Y1225680D01*
X2592155Y1228605D01*
X2589230Y1230849D01*
X2585825Y1232259D01*
X2582170Y1232741D01*
D02*
G37*
G36*
X2505970D02*
X2502315Y1232259D01*
X2498910Y1230849D01*
X2495985Y1228605D01*
X2493741Y1225680D01*
X2492330Y1222274D01*
X2491849Y1218620D01*
X2492330Y1214965D01*
X2493741Y1211559D01*
X2495985Y1208635D01*
X2498910Y1206391D01*
X2502315Y1204980D01*
X2505970Y1204499D01*
X2509625Y1204980D01*
X2513030Y1206391D01*
X2515955Y1208635D01*
X2518199Y1211559D01*
X2519610Y1214965D01*
X2520091Y1218620D01*
X2519610Y1222274D01*
X2518199Y1225680D01*
X2515955Y1228605D01*
X2513030Y1230849D01*
X2509625Y1232259D01*
X2505970Y1232741D01*
D02*
G37*
G36*
X2183998Y1207335D02*
X2182340Y1207005D01*
X2180934Y1206066D01*
X2179995Y1204660D01*
X2179665Y1203002D01*
Y1203001D01*
X2179995Y1201343D01*
X2180934Y1199937D01*
X2182340Y1198997D01*
X2183998Y1198668D01*
X2185657Y1198997D01*
X2187063Y1199937D01*
X2188002Y1201343D01*
X2188332Y1203001D01*
Y1203002D01*
X2188002Y1204660D01*
X2187063Y1206066D01*
X2185657Y1207005D01*
X2183998Y1207335D01*
D02*
G37*
G36*
X1533050Y1179393D02*
Y1170500D01*
X1541943D01*
X1541780Y1171741D01*
X1540722Y1174295D01*
X1539039Y1176489D01*
X1536845Y1178172D01*
X1534291Y1179230D01*
X1533050Y1179393D01*
D02*
G37*
G36*
X1530050Y1179393D02*
X1528809Y1179230D01*
X1526255Y1178172D01*
X1524061Y1176489D01*
X1522378Y1174295D01*
X1521320Y1171741D01*
X1521157Y1170500D01*
X1530050D01*
Y1179393D01*
D02*
G37*
G36*
X2594170Y1179820D02*
X2583670D01*
Y1169320D01*
X2594170D01*
Y1179820D01*
D02*
G37*
G36*
X2507470Y1179726D02*
Y1169320D01*
X2517876D01*
X2517661Y1170952D01*
X2516452Y1173872D01*
X2514529Y1176378D01*
X2512022Y1178302D01*
X2509103Y1179511D01*
X2507470Y1179726D01*
D02*
G37*
G36*
X2504470Y1179726D02*
X2502837Y1179511D01*
X2499918Y1178302D01*
X2497411Y1176378D01*
X2495488Y1173872D01*
X2494279Y1170952D01*
X2494064Y1169320D01*
X2504470D01*
Y1179726D01*
D02*
G37*
G36*
X2580670Y1179820D02*
X2570170D01*
Y1169320D01*
X2580670D01*
Y1179820D01*
D02*
G37*
G36*
X1544050Y1257700D02*
X1519050D01*
Y1232700D01*
X1526711D01*
X1526963Y1231430D01*
X1525246Y1230719D01*
X1522635Y1228715D01*
X1520631Y1226104D01*
X1519372Y1223063D01*
X1518942Y1219800D01*
X1519372Y1216537D01*
X1520631Y1213496D01*
X1522635Y1210885D01*
X1525246Y1208881D01*
X1527973Y1207752D01*
X1527973Y1207750D01*
Y1206450D01*
X1527973Y1206448D01*
X1525246Y1205319D01*
X1522635Y1203315D01*
X1520631Y1200704D01*
X1519372Y1197663D01*
X1518942Y1194400D01*
X1519372Y1191137D01*
X1520631Y1188096D01*
X1522635Y1185485D01*
X1525246Y1183481D01*
X1528287Y1182222D01*
X1531550Y1181792D01*
X1534813Y1182222D01*
X1537854Y1183481D01*
X1540465Y1185485D01*
X1542469Y1188096D01*
X1543728Y1191137D01*
X1544158Y1194400D01*
X1543728Y1197663D01*
X1542469Y1200704D01*
X1540465Y1203315D01*
X1537854Y1205319D01*
X1535127Y1206448D01*
X1535127Y1206450D01*
Y1207750D01*
X1535127Y1207752D01*
X1537854Y1208881D01*
X1540465Y1210885D01*
X1542469Y1213496D01*
X1543728Y1216537D01*
X1544158Y1219800D01*
X1543728Y1223063D01*
X1542469Y1226104D01*
X1540465Y1228715D01*
X1537854Y1230719D01*
X1536137Y1231430D01*
X1536389Y1232700D01*
X1543087D01*
X1544111Y1232537D01*
X1544461Y1231600D01*
X1544772Y1229237D01*
X1546031Y1226196D01*
X1548035Y1223585D01*
X1550646Y1221581D01*
X1553373Y1220452D01*
X1553373Y1220450D01*
Y1219150D01*
X1553373Y1219148D01*
X1550646Y1218019D01*
X1548035Y1216015D01*
X1546031Y1213404D01*
X1544772Y1210363D01*
X1544342Y1207100D01*
X1544772Y1203837D01*
X1546031Y1200796D01*
X1548035Y1198185D01*
X1550646Y1196181D01*
X1553373Y1195052D01*
X1553373Y1195050D01*
Y1193750D01*
X1553373Y1193748D01*
X1550646Y1192619D01*
X1548035Y1190615D01*
X1546031Y1188004D01*
X1544772Y1184963D01*
X1544342Y1181700D01*
X1544772Y1178437D01*
X1546031Y1175396D01*
X1548035Y1172785D01*
X1550646Y1170781D01*
X1553687Y1169522D01*
X1556950Y1169092D01*
X1560213Y1169522D01*
X1563254Y1170781D01*
X1565865Y1172785D01*
X1567869Y1175396D01*
X1569128Y1178437D01*
X1569558Y1181700D01*
X1569128Y1184963D01*
X1567869Y1188004D01*
X1565865Y1190615D01*
X1563254Y1192619D01*
X1560527Y1193748D01*
X1560527Y1193750D01*
Y1195050D01*
X1560527Y1195052D01*
X1563254Y1196181D01*
X1565865Y1198185D01*
X1567869Y1200796D01*
X1569128Y1203837D01*
X1569558Y1207100D01*
X1569128Y1210363D01*
X1567869Y1213404D01*
X1565865Y1216015D01*
X1563254Y1218019D01*
X1560527Y1219148D01*
X1560527Y1219150D01*
Y1220450D01*
X1560527Y1220452D01*
X1563254Y1221581D01*
X1565865Y1223585D01*
X1567869Y1226196D01*
X1569128Y1229237D01*
X1569558Y1232500D01*
X1569128Y1235763D01*
X1567869Y1238804D01*
X1565865Y1241415D01*
X1563254Y1243419D01*
X1560213Y1244678D01*
X1556950Y1245108D01*
X1553687Y1244678D01*
X1550646Y1243419D01*
X1548035Y1241415D01*
X1546031Y1238804D01*
X1545320Y1237087D01*
X1544050Y1237339D01*
Y1257700D01*
D02*
G37*
G36*
X1541943Y1167500D02*
X1533050D01*
Y1158607D01*
X1534291Y1158770D01*
X1536845Y1159828D01*
X1539039Y1161511D01*
X1540722Y1163705D01*
X1541780Y1166259D01*
X1541943Y1167500D01*
D02*
G37*
G36*
X1530050D02*
X1521157D01*
X1521320Y1166259D01*
X1522378Y1163705D01*
X1524061Y1161511D01*
X1526255Y1159828D01*
X1528809Y1158770D01*
X1530050Y1158607D01*
Y1167500D01*
D02*
G37*
G36*
X1558450Y1166693D02*
Y1157800D01*
X1567343D01*
X1567180Y1159041D01*
X1566122Y1161595D01*
X1564439Y1163789D01*
X1562245Y1165472D01*
X1559691Y1166530D01*
X1558450Y1166693D01*
D02*
G37*
G36*
X1555450Y1166693D02*
X1554209Y1166530D01*
X1551655Y1165472D01*
X1549461Y1163789D01*
X1547778Y1161595D01*
X1546720Y1159041D01*
X1546557Y1157800D01*
X1555450D01*
Y1166693D01*
D02*
G37*
G36*
X2517876Y1166320D02*
X2507470D01*
Y1155914D01*
X2509103Y1156129D01*
X2512022Y1157338D01*
X2514529Y1159261D01*
X2516452Y1161768D01*
X2517661Y1164687D01*
X2517876Y1166320D01*
D02*
G37*
G36*
X2504470D02*
X2494064D01*
X2494279Y1164687D01*
X2495488Y1161768D01*
X2497411Y1159261D01*
X2499918Y1157338D01*
X2502837Y1156129D01*
X2504470Y1155914D01*
Y1166320D01*
D02*
G37*
G36*
X2594170D02*
X2583670D01*
Y1155820D01*
X2594170D01*
Y1166320D01*
D02*
G37*
G36*
X2580670D02*
X2570170D01*
Y1155820D01*
X2580670D01*
Y1166320D01*
D02*
G37*
G36*
X1887250Y1267819D02*
X1885162Y1267544D01*
X1883215Y1266738D01*
X1881544Y1265456D01*
X1880262Y1263784D01*
X1879456Y1261838D01*
X1879181Y1259750D01*
X1879456Y1257662D01*
X1880262Y1255715D01*
X1881544Y1254044D01*
X1883215Y1252762D01*
X1885162Y1251956D01*
X1887250Y1251681D01*
X1888965Y1251907D01*
X1896936Y1243936D01*
X1898342Y1242997D01*
X1900000Y1242667D01*
X1954205D01*
X1969917Y1226955D01*
Y1192500D01*
X1970247Y1190842D01*
X1971186Y1189436D01*
X1994186Y1166436D01*
X1995592Y1165497D01*
X1997250Y1165167D01*
X2028455D01*
X2030907Y1162715D01*
X2030681Y1161000D01*
X2030956Y1158912D01*
X2031762Y1156965D01*
X2033044Y1155294D01*
X2034716Y1154012D01*
X2036662Y1153206D01*
X2038750Y1152931D01*
X2040838Y1153206D01*
X2042784Y1154012D01*
X2044456Y1155294D01*
X2045738Y1156965D01*
X2046544Y1158912D01*
X2046819Y1161000D01*
X2046544Y1163088D01*
X2045738Y1165034D01*
X2044456Y1166706D01*
X2042784Y1167988D01*
X2040838Y1168794D01*
X2038750Y1169069D01*
X2037035Y1168843D01*
X2033314Y1172564D01*
X2031908Y1173503D01*
X2030250Y1173833D01*
X1999045D01*
X1978583Y1194295D01*
Y1228750D01*
X1978253Y1230408D01*
X1977314Y1231814D01*
X1959064Y1250064D01*
X1957658Y1251003D01*
X1956000Y1251333D01*
X1901795D01*
X1895093Y1258035D01*
X1895319Y1259750D01*
X1895044Y1261838D01*
X1894238Y1263784D01*
X1892956Y1265456D01*
X1891284Y1266738D01*
X1889338Y1267544D01*
X1887250Y1267819D01*
D02*
G37*
G36*
X1933500Y1173108D02*
X1930237Y1172678D01*
X1927196Y1171419D01*
X1924585Y1169415D01*
X1922581Y1166804D01*
X1921322Y1163763D01*
X1920892Y1160500D01*
X1921322Y1157237D01*
X1922581Y1154196D01*
X1924585Y1151585D01*
X1927196Y1149581D01*
X1930237Y1148322D01*
X1933500Y1147892D01*
X1936763Y1148322D01*
X1939804Y1149581D01*
X1942415Y1151585D01*
X1944419Y1154196D01*
X1945678Y1157237D01*
X1946108Y1160500D01*
X1945678Y1163763D01*
X1944419Y1166804D01*
X1942415Y1169415D01*
X1939804Y1171419D01*
X1936763Y1172678D01*
X1933500Y1173108D01*
D02*
G37*
G36*
X1567343Y1154800D02*
X1558450D01*
Y1145907D01*
X1559691Y1146070D01*
X1562245Y1147128D01*
X1564439Y1148811D01*
X1566122Y1151005D01*
X1567180Y1153559D01*
X1567343Y1154800D01*
D02*
G37*
G36*
X1555450D02*
X1546557D01*
X1546720Y1153559D01*
X1547778Y1151005D01*
X1549461Y1148811D01*
X1551655Y1147128D01*
X1554209Y1146070D01*
X1555450Y1145907D01*
Y1154800D01*
D02*
G37*
G36*
X2106000Y1162069D02*
X2103912Y1161794D01*
X2101965Y1160988D01*
X2100294Y1159706D01*
X2099012Y1158035D01*
X2098206Y1156088D01*
X2097931Y1154000D01*
X2098157Y1152285D01*
X2087936Y1142064D01*
X2086997Y1140658D01*
X2086667Y1139000D01*
Y1064000D01*
X2086997Y1062342D01*
X2087936Y1060936D01*
X2162667Y986205D01*
Y966000D01*
X2162997Y964342D01*
X2163936Y962936D01*
X2192237Y934635D01*
X2192154Y933368D01*
X2191293Y932707D01*
X2190010Y931036D01*
X2189204Y929090D01*
X2188929Y927001D01*
X2189204Y924913D01*
X2190010Y922967D01*
X2191293Y921296D01*
X2192964Y920013D01*
X2194910Y919207D01*
X2196998Y918932D01*
X2199087Y919207D01*
X2201033Y920013D01*
X2202704Y921296D01*
X2203986Y922967D01*
X2204792Y924913D01*
X2205067Y927001D01*
X2204792Y929090D01*
X2203986Y931036D01*
X2202704Y932707D01*
X2202333Y932992D01*
Y935000D01*
X2202003Y936658D01*
X2201064Y938064D01*
X2171333Y967795D01*
Y984879D01*
X2172507Y985365D01*
X2199157Y958715D01*
X2198931Y957000D01*
X2199206Y954912D01*
X2200012Y952965D01*
X2201294Y951294D01*
X2202966Y950012D01*
X2204912Y949206D01*
X2207000Y948931D01*
X2209088Y949206D01*
X2211035Y950012D01*
X2212706Y951294D01*
X2213988Y952965D01*
X2214794Y954912D01*
X2215069Y957000D01*
X2214794Y959088D01*
X2213988Y961034D01*
X2212706Y962706D01*
X2211035Y963988D01*
X2209088Y964794D01*
X2207000Y965069D01*
X2205285Y964843D01*
X2103333Y1066795D01*
Y1096404D01*
X2104603Y1097110D01*
X2104667Y1097070D01*
Y1079000D01*
X2104997Y1077342D01*
X2105936Y1075936D01*
X2210380Y971492D01*
X2211012Y969966D01*
X2212294Y968294D01*
X2213965Y967012D01*
X2215912Y966206D01*
X2218000Y965931D01*
X2220088Y966206D01*
X2222034Y967012D01*
X2223706Y968294D01*
X2224988Y969966D01*
X2225573Y971378D01*
X2226807Y971736D01*
X2227667Y971038D01*
Y951759D01*
X2226294Y950706D01*
X2225012Y949035D01*
X2224206Y947088D01*
X2223931Y945000D01*
X2224206Y942912D01*
X2225012Y940965D01*
X2226294Y939294D01*
X2227966Y938012D01*
X2229912Y937206D01*
X2232000Y936931D01*
X2234088Y937206D01*
X2236035Y938012D01*
X2237706Y939294D01*
X2238397Y940195D01*
X2239667Y939764D01*
Y906759D01*
X2238294Y905706D01*
X2237012Y904035D01*
X2236206Y902088D01*
X2235931Y900000D01*
X2236206Y897912D01*
X2237012Y895965D01*
X2238294Y894294D01*
X2239966Y893012D01*
X2241912Y892206D01*
X2244000Y891931D01*
X2246088Y892206D01*
X2248035Y893012D01*
X2249706Y894294D01*
X2250988Y895965D01*
X2251794Y897912D01*
X2252069Y900000D01*
X2251794Y902088D01*
X2250988Y904035D01*
X2249706Y905706D01*
X2248333Y906759D01*
Y980000D01*
X2248003Y981658D01*
X2247064Y983064D01*
X2142843Y1087285D01*
X2143069Y1089000D01*
X2142794Y1091088D01*
X2141988Y1093035D01*
X2140706Y1094706D01*
X2139034Y1095988D01*
X2137088Y1096794D01*
X2135000Y1097069D01*
X2132912Y1096794D01*
X2131082Y1096036D01*
X2130822Y1096047D01*
X2129605Y1096545D01*
X2128988Y1098035D01*
X2127706Y1099706D01*
X2126035Y1100988D01*
X2124088Y1101794D01*
X2122000Y1102069D01*
X2119912Y1101794D01*
X2117966Y1100988D01*
X2117455Y1100596D01*
X2117238Y1100666D01*
X2116513Y1102233D01*
X2116794Y1102912D01*
X2117069Y1105000D01*
X2116794Y1107088D01*
X2115988Y1109035D01*
X2114706Y1110706D01*
X2113035Y1111988D01*
X2111088Y1112794D01*
X2109000Y1113069D01*
X2106912Y1112794D01*
X2104966Y1111988D01*
X2104472Y1111609D01*
X2103333Y1112171D01*
Y1122205D01*
X2120795Y1139667D01*
X2124241D01*
X2125294Y1138294D01*
X2126965Y1137012D01*
X2128912Y1136206D01*
X2131000Y1135931D01*
X2133088Y1136206D01*
X2135034Y1137012D01*
X2136706Y1138294D01*
X2137988Y1139966D01*
X2138794Y1141912D01*
X2139069Y1144000D01*
X2138794Y1146088D01*
X2137988Y1148035D01*
X2136706Y1149706D01*
X2135034Y1150988D01*
X2133088Y1151794D01*
X2131000Y1152069D01*
X2128912Y1151794D01*
X2126965Y1150988D01*
X2125294Y1149706D01*
X2124241Y1148333D01*
X2119000D01*
X2117342Y1148003D01*
X2115936Y1147064D01*
X2096603Y1127731D01*
X2095333Y1128257D01*
Y1137205D01*
X2104285Y1146157D01*
X2106000Y1145931D01*
X2108088Y1146206D01*
X2110034Y1147012D01*
X2111706Y1148294D01*
X2112988Y1149966D01*
X2113794Y1151912D01*
X2114069Y1154000D01*
X2113794Y1156088D01*
X2112988Y1158035D01*
X2111706Y1159706D01*
X2110034Y1160988D01*
X2108088Y1161794D01*
X2106000Y1162069D01*
D02*
G37*
G36*
X1499000Y1138177D02*
Y1124250D01*
X1512927D01*
X1512776Y1125788D01*
X1511889Y1128710D01*
X1510450Y1131403D01*
X1508513Y1133763D01*
X1506153Y1135700D01*
X1503460Y1137139D01*
X1500538Y1138026D01*
X1499000Y1138177D01*
D02*
G37*
G36*
X2037000Y1135069D02*
X2034912Y1134794D01*
X2032966Y1133988D01*
X2031294Y1132706D01*
X2030012Y1131034D01*
X2029206Y1129088D01*
X2028931Y1127000D01*
X2029206Y1124912D01*
X2030012Y1122965D01*
X2031294Y1121294D01*
X2032966Y1120012D01*
X2034912Y1119206D01*
X2037000Y1118931D01*
X2039088Y1119206D01*
X2041035Y1120012D01*
X2042706Y1121294D01*
X2043759Y1122667D01*
X2067106D01*
X2067206Y1121912D01*
X2068012Y1119966D01*
X2069294Y1118294D01*
X2070966Y1117012D01*
X2072912Y1116206D01*
X2075000Y1115931D01*
X2077088Y1116206D01*
X2079034Y1117012D01*
X2080706Y1118294D01*
X2081988Y1119966D01*
X2082794Y1121912D01*
X2083069Y1124000D01*
X2082794Y1126088D01*
X2081988Y1128035D01*
X2080706Y1129706D01*
X2079034Y1130988D01*
X2077088Y1131794D01*
X2075000Y1132069D01*
X2072912Y1131794D01*
X2071799Y1131333D01*
X2043759D01*
X2042706Y1132706D01*
X2041035Y1133988D01*
X2039088Y1134794D01*
X2037000Y1135069D01*
D02*
G37*
G36*
X1934500Y1141108D02*
X1931237Y1140678D01*
X1928196Y1139419D01*
X1925585Y1137415D01*
X1923581Y1134804D01*
X1922322Y1131763D01*
X1921892Y1128500D01*
X1922322Y1125237D01*
X1923581Y1122196D01*
X1925585Y1119585D01*
X1928196Y1117581D01*
X1931237Y1116322D01*
X1934500Y1115892D01*
X1937763Y1116322D01*
X1940804Y1117581D01*
X1943415Y1119585D01*
X1945419Y1122196D01*
X1946678Y1125237D01*
X1947108Y1128500D01*
X1946678Y1131763D01*
X1945419Y1134804D01*
X1943415Y1137415D01*
X1940804Y1139419D01*
X1937763Y1140678D01*
X1934500Y1141108D01*
D02*
G37*
G36*
X1468050Y1167716D02*
X1463345Y1167253D01*
X1458821Y1165880D01*
X1454652Y1163652D01*
X1450997Y1160653D01*
X1447998Y1156998D01*
X1445770Y1152829D01*
X1444397Y1148305D01*
X1443934Y1143600D01*
X1444397Y1138895D01*
X1445770Y1134371D01*
X1447998Y1130202D01*
X1450997Y1126547D01*
X1454652Y1123548D01*
X1458821Y1121320D01*
X1463345Y1119947D01*
X1468050Y1119484D01*
X1472755Y1119947D01*
X1477279Y1121320D01*
X1480687Y1123141D01*
X1481146Y1122997D01*
X1481961Y1122382D01*
X1482224Y1119712D01*
X1483111Y1116790D01*
X1484550Y1114097D01*
X1486487Y1111737D01*
X1488847Y1109800D01*
X1491540Y1108361D01*
X1494462Y1107474D01*
X1496000Y1107323D01*
Y1122750D01*
Y1138177D01*
X1494462Y1138026D01*
X1492594Y1137459D01*
X1491576Y1138478D01*
X1491703Y1138895D01*
X1492166Y1143600D01*
X1491703Y1148305D01*
X1490330Y1152829D01*
X1488102Y1156998D01*
X1485103Y1160653D01*
X1481448Y1163652D01*
X1477279Y1165880D01*
X1472755Y1167253D01*
X1468050Y1167716D01*
D02*
G37*
G36*
X1512927Y1121250D02*
X1499000D01*
Y1107323D01*
X1500538Y1107474D01*
X1503460Y1108361D01*
X1506153Y1109800D01*
X1508513Y1111737D01*
X1510450Y1114097D01*
X1511889Y1116790D01*
X1512776Y1119712D01*
X1512927Y1121250D01*
D02*
G37*
G36*
X2077000Y1107069D02*
X2074912Y1106794D01*
X2072966Y1105988D01*
X2071294Y1104706D01*
X2070241Y1103333D01*
X2043759D01*
X2042706Y1104706D01*
X2041035Y1105988D01*
X2039088Y1106794D01*
X2037000Y1107069D01*
X2034912Y1106794D01*
X2032966Y1105988D01*
X2031294Y1104706D01*
X2030012Y1103035D01*
X2029206Y1101088D01*
X2028931Y1099000D01*
X2029206Y1096912D01*
X2030012Y1094966D01*
X2031294Y1093294D01*
X2032966Y1092012D01*
X2034912Y1091206D01*
X2037000Y1090931D01*
X2039088Y1091206D01*
X2041035Y1092012D01*
X2042706Y1093294D01*
X2043759Y1094667D01*
X2070241D01*
X2071294Y1093294D01*
X2072966Y1092012D01*
X2074912Y1091206D01*
X2077000Y1090931D01*
X2079088Y1091206D01*
X2081035Y1092012D01*
X2082706Y1093294D01*
X2083988Y1094966D01*
X2084794Y1096912D01*
X2085069Y1099000D01*
X2084794Y1101088D01*
X2083988Y1103035D01*
X2082706Y1104706D01*
X2081035Y1105988D01*
X2079088Y1106794D01*
X2077000Y1107069D01*
D02*
G37*
G36*
X2277900Y1093393D02*
Y1084500D01*
X2286793D01*
X2286630Y1085741D01*
X2285572Y1088295D01*
X2283889Y1090489D01*
X2281695Y1092172D01*
X2279141Y1093230D01*
X2277900Y1093393D01*
D02*
G37*
G36*
X2274900Y1093393D02*
X2273659Y1093230D01*
X2271105Y1092172D01*
X2268911Y1090489D01*
X2267228Y1088295D01*
X2266170Y1085741D01*
X2266007Y1084500D01*
X2274900D01*
Y1093393D01*
D02*
G37*
G36*
X1930526Y1095057D02*
X1928868Y1094727D01*
X1927462Y1093788D01*
X1926523Y1092382D01*
X1926193Y1090724D01*
Y1086776D01*
X1926523Y1085118D01*
X1927462Y1083712D01*
X1928868Y1082773D01*
X1930526Y1082443D01*
X1932184Y1082773D01*
X1933590Y1083712D01*
X1934529Y1085118D01*
X1934859Y1086776D01*
Y1090724D01*
X1934529Y1092382D01*
X1933590Y1093788D01*
X1932184Y1094727D01*
X1930526Y1095057D01*
D02*
G37*
G36*
X2286793Y1081500D02*
X2277900D01*
Y1072607D01*
X2279141Y1072770D01*
X2281695Y1073828D01*
X2283889Y1075511D01*
X2285572Y1077705D01*
X2286630Y1080259D01*
X2286793Y1081500D01*
D02*
G37*
G36*
X2274900D02*
X2266007D01*
X2266170Y1080259D01*
X2267228Y1077705D01*
X2268911Y1075511D01*
X2271105Y1073828D01*
X2273659Y1072770D01*
X2274900Y1072607D01*
Y1081500D01*
D02*
G37*
G36*
X2301800Y1095608D02*
X2298537Y1095178D01*
X2295496Y1093919D01*
X2292885Y1091915D01*
X2290881Y1089304D01*
X2289622Y1086263D01*
X2289192Y1083000D01*
X2289622Y1079737D01*
X2290881Y1076696D01*
X2292885Y1074085D01*
X2295496Y1072081D01*
X2298537Y1070822D01*
X2301800Y1070392D01*
X2305063Y1070822D01*
X2308104Y1072081D01*
X2310715Y1074085D01*
X2312719Y1076696D01*
X2313978Y1079737D01*
X2314408Y1083000D01*
X2313978Y1086263D01*
X2312719Y1089304D01*
X2310715Y1091915D01*
X2308104Y1093919D01*
X2305063Y1095178D01*
X2301800Y1095608D01*
D02*
G37*
G36*
X1687700Y1077718D02*
X1684437Y1077288D01*
X1681396Y1076029D01*
X1678785Y1074025D01*
X1676781Y1071414D01*
X1675652Y1068687D01*
X1675650Y1068687D01*
X1674350D01*
X1674348Y1068687D01*
X1673219Y1071414D01*
X1671215Y1074025D01*
X1668604Y1076029D01*
X1665563Y1077288D01*
X1662300Y1077718D01*
X1659037Y1077288D01*
X1655996Y1076029D01*
X1653385Y1074025D01*
X1651381Y1071414D01*
X1650122Y1068373D01*
X1649692Y1065110D01*
X1650122Y1061847D01*
X1651381Y1058806D01*
X1653385Y1056195D01*
X1655996Y1054191D01*
X1659037Y1052932D01*
X1662300Y1052502D01*
X1665563Y1052932D01*
X1668604Y1054191D01*
X1671215Y1056195D01*
X1673219Y1058806D01*
X1674348Y1061533D01*
X1674350Y1061533D01*
X1675650D01*
X1675652Y1061533D01*
X1676781Y1058806D01*
X1678785Y1056195D01*
X1681396Y1054191D01*
X1684437Y1052932D01*
X1687700Y1052502D01*
X1690963Y1052932D01*
X1694004Y1054191D01*
X1696615Y1056195D01*
X1698619Y1058806D01*
X1699878Y1061847D01*
X1700308Y1065110D01*
X1699878Y1068373D01*
X1698619Y1071414D01*
X1696615Y1074025D01*
X1694004Y1076029D01*
X1690963Y1077288D01*
X1687700Y1077718D01*
D02*
G37*
G36*
X1780999Y1084070D02*
X1778911Y1083795D01*
X1776965Y1082989D01*
X1775294Y1081707D01*
X1774011Y1080036D01*
X1773205Y1078090D01*
X1772930Y1076001D01*
X1773205Y1073913D01*
X1774011Y1071967D01*
X1775294Y1070295D01*
X1776965Y1069013D01*
X1778911Y1068207D01*
X1780999Y1067932D01*
X1783088Y1068207D01*
X1785034Y1069013D01*
X1786705Y1070295D01*
X1787757Y1071667D01*
X1809241D01*
X1810294Y1070294D01*
X1811965Y1069012D01*
X1813912Y1068206D01*
X1816000Y1067931D01*
X1818088Y1068206D01*
X1820034Y1069012D01*
X1821706Y1070294D01*
X1822988Y1071965D01*
X1823794Y1073912D01*
X1824069Y1076000D01*
X1823794Y1078088D01*
X1822988Y1080034D01*
X1821706Y1081706D01*
X1820034Y1082988D01*
X1818088Y1083794D01*
X1816000Y1084069D01*
X1813912Y1083794D01*
X1811965Y1082988D01*
X1810294Y1081706D01*
X1809241Y1080333D01*
X1787759D01*
X1786705Y1081707D01*
X1785034Y1082989D01*
X1783088Y1083795D01*
X1780999Y1084070D01*
D02*
G37*
G36*
X1471500Y1062393D02*
Y1053500D01*
X1480393D01*
X1480230Y1054741D01*
X1479172Y1057295D01*
X1477489Y1059489D01*
X1475295Y1061172D01*
X1472741Y1062230D01*
X1471500Y1062393D01*
D02*
G37*
G36*
X1468500D02*
X1467259Y1062230D01*
X1464705Y1061172D01*
X1462511Y1059489D01*
X1460828Y1057295D01*
X1459770Y1054741D01*
X1459607Y1053500D01*
X1468500D01*
Y1062393D01*
D02*
G37*
G36*
X1687700Y1050718D02*
X1684437Y1050288D01*
X1681396Y1049029D01*
X1678785Y1047025D01*
X1676781Y1044414D01*
X1675652Y1041687D01*
X1675650Y1041687D01*
X1674350D01*
X1674348Y1041687D01*
X1673219Y1044414D01*
X1671215Y1047025D01*
X1668604Y1049029D01*
X1665563Y1050288D01*
X1662300Y1050718D01*
X1659037Y1050288D01*
X1655996Y1049029D01*
X1653385Y1047025D01*
X1651381Y1044414D01*
X1650122Y1041373D01*
X1649692Y1038110D01*
X1650122Y1034847D01*
X1651381Y1031806D01*
X1653385Y1029195D01*
X1655996Y1027191D01*
X1659037Y1025932D01*
X1662300Y1025502D01*
X1665563Y1025932D01*
X1668604Y1027191D01*
X1671215Y1029195D01*
X1673219Y1031806D01*
X1674348Y1034533D01*
X1674350Y1034533D01*
X1675650D01*
X1675652Y1034533D01*
X1676781Y1031806D01*
X1678785Y1029195D01*
X1681396Y1027191D01*
X1684437Y1025932D01*
X1687700Y1025502D01*
X1690963Y1025932D01*
X1694004Y1027191D01*
X1696615Y1029195D01*
X1698619Y1031806D01*
X1699878Y1034847D01*
X1700308Y1038110D01*
X1699878Y1041373D01*
X1698619Y1044414D01*
X1696615Y1047025D01*
X1694004Y1049029D01*
X1690963Y1050288D01*
X1687700Y1050718D01*
D02*
G37*
G36*
X1480393Y1050500D02*
X1471500D01*
Y1041607D01*
X1472741Y1041770D01*
X1475295Y1042828D01*
X1477489Y1044511D01*
X1479172Y1046705D01*
X1480230Y1049259D01*
X1480393Y1050500D01*
D02*
G37*
G36*
X1468500D02*
X1459607D01*
X1459770Y1049259D01*
X1460828Y1046705D01*
X1462511Y1044511D01*
X1464705Y1042828D01*
X1467259Y1041770D01*
X1468500Y1041607D01*
Y1050500D01*
D02*
G37*
G36*
X1876500Y1059608D02*
X1873237Y1059178D01*
X1870196Y1057919D01*
X1867585Y1055915D01*
X1865581Y1053304D01*
X1864322Y1050263D01*
X1863892Y1047000D01*
X1864322Y1043737D01*
X1865581Y1040696D01*
X1867585Y1038085D01*
X1870196Y1036081D01*
X1873237Y1034822D01*
X1876500Y1034392D01*
X1879763Y1034822D01*
X1882804Y1036081D01*
X1885415Y1038085D01*
X1887419Y1040696D01*
X1888678Y1043737D01*
X1889108Y1047000D01*
X1888678Y1050263D01*
X1887419Y1053304D01*
X1885415Y1055915D01*
X1882804Y1057919D01*
X1879763Y1059178D01*
X1876500Y1059608D01*
D02*
G37*
G36*
X2277900Y1023393D02*
Y1014500D01*
X2286793D01*
X2286630Y1015741D01*
X2285572Y1018295D01*
X2283889Y1020489D01*
X2281695Y1022172D01*
X2279141Y1023230D01*
X2277900Y1023393D01*
D02*
G37*
G36*
X2274900D02*
X2273659Y1023230D01*
X2271105Y1022172D01*
X2268911Y1020489D01*
X2267228Y1018295D01*
X2266170Y1015741D01*
X2266007Y1014500D01*
X2274900D01*
Y1023393D01*
D02*
G37*
G36*
X1689200Y1021503D02*
Y1012610D01*
X1698093D01*
X1697930Y1013851D01*
X1696872Y1016405D01*
X1695189Y1018599D01*
X1692995Y1020282D01*
X1690441Y1021340D01*
X1689200Y1021503D01*
D02*
G37*
G36*
X1686200D02*
X1684959Y1021340D01*
X1682405Y1020282D01*
X1680211Y1018599D01*
X1678528Y1016405D01*
X1677470Y1013851D01*
X1677307Y1012610D01*
X1686200D01*
Y1021503D01*
D02*
G37*
G36*
X1663800D02*
Y1012610D01*
X1672693D01*
X1672530Y1013851D01*
X1671472Y1016405D01*
X1669789Y1018599D01*
X1667595Y1020282D01*
X1665041Y1021340D01*
X1663800Y1021503D01*
D02*
G37*
G36*
X1660800D02*
X1659559Y1021340D01*
X1657005Y1020282D01*
X1654811Y1018599D01*
X1653128Y1016405D01*
X1652070Y1013851D01*
X1651907Y1012610D01*
X1660800D01*
Y1021503D01*
D02*
G37*
G36*
X1471500Y1018393D02*
Y1009500D01*
X1480393D01*
X1480230Y1010741D01*
X1479172Y1013295D01*
X1477489Y1015489D01*
X1475295Y1017172D01*
X1472741Y1018230D01*
X1471500Y1018393D01*
D02*
G37*
G36*
X1468500D02*
X1467259Y1018230D01*
X1464705Y1017172D01*
X1462511Y1015489D01*
X1460828Y1013295D01*
X1459770Y1010741D01*
X1459607Y1009500D01*
X1468500D01*
Y1018393D01*
D02*
G37*
G36*
X2286793Y1011500D02*
X2277900D01*
Y1002607D01*
X2279141Y1002770D01*
X2281695Y1003828D01*
X2283889Y1005511D01*
X2285572Y1007705D01*
X2286630Y1010259D01*
X2286793Y1011500D01*
D02*
G37*
G36*
X2274900D02*
X2266007D01*
X2266170Y1010259D01*
X2267228Y1007705D01*
X2268911Y1005511D01*
X2271105Y1003828D01*
X2273659Y1002770D01*
X2274900Y1002607D01*
Y1011500D01*
D02*
G37*
G36*
X1698093Y1009610D02*
X1689200D01*
Y1000717D01*
X1690441Y1000880D01*
X1692995Y1001938D01*
X1695189Y1003621D01*
X1696872Y1005815D01*
X1697930Y1008369D01*
X1698093Y1009610D01*
D02*
G37*
G36*
X1686200D02*
X1677307D01*
X1677470Y1008369D01*
X1678528Y1005815D01*
X1680211Y1003621D01*
X1682405Y1001938D01*
X1684959Y1000880D01*
X1686200Y1000717D01*
Y1009610D01*
D02*
G37*
G36*
X1672693D02*
X1663800D01*
Y1000717D01*
X1665041Y1000880D01*
X1667595Y1001938D01*
X1669789Y1003621D01*
X1671472Y1005815D01*
X1672530Y1008369D01*
X1672693Y1009610D01*
D02*
G37*
G36*
X1660800D02*
X1651907D01*
X1652070Y1008369D01*
X1653128Y1005815D01*
X1654811Y1003621D01*
X1657005Y1001938D01*
X1659559Y1000880D01*
X1660800Y1000717D01*
Y1009610D01*
D02*
G37*
G36*
X2301800Y1025608D02*
X2298537Y1025178D01*
X2295496Y1023919D01*
X2292885Y1021915D01*
X2290881Y1019304D01*
X2289622Y1016263D01*
X2289192Y1013000D01*
X2289622Y1009737D01*
X2290881Y1006696D01*
X2292885Y1004085D01*
X2295496Y1002081D01*
X2298537Y1000822D01*
X2301800Y1000392D01*
X2305063Y1000822D01*
X2308104Y1002081D01*
X2310715Y1004085D01*
X2312719Y1006696D01*
X2313978Y1009737D01*
X2314408Y1013000D01*
X2313978Y1016263D01*
X2312719Y1019304D01*
X2310715Y1021915D01*
X2308104Y1023919D01*
X2305063Y1025178D01*
X2301800Y1025608D01*
D02*
G37*
G36*
X2251000D02*
X2247737Y1025178D01*
X2244696Y1023919D01*
X2242085Y1021915D01*
X2240081Y1019304D01*
X2238822Y1016263D01*
X2238392Y1013000D01*
X2238822Y1009737D01*
X2240081Y1006696D01*
X2242085Y1004085D01*
X2244696Y1002081D01*
X2247737Y1000822D01*
X2251000Y1000392D01*
X2254263Y1000822D01*
X2257304Y1002081D01*
X2259915Y1004085D01*
X2261919Y1006696D01*
X2263178Y1009737D01*
X2263608Y1013000D01*
X2263178Y1016263D01*
X2261919Y1019304D01*
X2259915Y1021915D01*
X2257304Y1023919D01*
X2254263Y1025178D01*
X2251000Y1025608D01*
D02*
G37*
G36*
X1480393Y1006500D02*
X1471500D01*
Y997607D01*
X1472741Y997770D01*
X1475295Y998828D01*
X1477489Y1000511D01*
X1479172Y1002705D01*
X1480230Y1005259D01*
X1480393Y1006500D01*
D02*
G37*
G36*
X1468500D02*
X1459607D01*
X1459770Y1005259D01*
X1460828Y1002705D01*
X1462511Y1000511D01*
X1464705Y998828D01*
X1467259Y997770D01*
X1468500Y997607D01*
Y1006500D01*
D02*
G37*
G36*
X1876500Y1010608D02*
X1873237Y1010178D01*
X1870196Y1008919D01*
X1867585Y1006915D01*
X1865581Y1004304D01*
X1864322Y1001263D01*
X1863892Y998000D01*
X1864322Y994737D01*
X1865581Y991696D01*
X1867585Y989085D01*
X1870196Y987081D01*
X1873237Y985822D01*
X1876500Y985392D01*
X1879763Y985822D01*
X1882804Y987081D01*
X1885415Y989085D01*
X1887419Y991696D01*
X1888678Y994737D01*
X1889108Y998000D01*
X1888678Y1001263D01*
X1887419Y1004304D01*
X1885415Y1006915D01*
X1882804Y1008919D01*
X1879763Y1010178D01*
X1876500Y1010608D01*
D02*
G37*
G36*
X1816250Y1352569D02*
X1814162Y1352294D01*
X1812216Y1351488D01*
X1810544Y1350206D01*
X1809262Y1348535D01*
X1808456Y1346588D01*
X1808181Y1344500D01*
X1808456Y1342412D01*
X1809262Y1340466D01*
X1810544Y1338794D01*
X1810642Y1338719D01*
Y1324750D01*
X1811069Y1322604D01*
X1812285Y1320785D01*
X1834392Y1298677D01*
Y1176323D01*
X1761035Y1102965D01*
X1759819Y1101146D01*
X1759392Y1099000D01*
Y1014323D01*
X1727122Y982053D01*
X1727000Y982069D01*
X1724912Y981794D01*
X1722966Y980988D01*
X1721294Y979706D01*
X1720012Y978035D01*
X1719206Y976088D01*
X1718931Y974000D01*
X1719206Y971912D01*
X1720012Y969966D01*
X1721294Y968294D01*
X1722966Y967012D01*
X1724912Y966206D01*
X1727000Y965931D01*
X1729088Y966206D01*
X1731035Y967012D01*
X1732706Y968294D01*
X1733988Y969966D01*
X1734794Y971912D01*
X1735069Y974000D01*
X1735053Y974122D01*
X1768965Y1008035D01*
X1770181Y1009854D01*
X1770608Y1012000D01*
Y1096677D01*
X1843965Y1170035D01*
X1845181Y1171854D01*
X1845608Y1174000D01*
Y1301000D01*
X1845181Y1303146D01*
X1843965Y1304965D01*
X1821858Y1327073D01*
Y1338719D01*
X1821956Y1338794D01*
X1823238Y1340466D01*
X1824044Y1342412D01*
X1824319Y1344500D01*
X1824044Y1346588D01*
X1823238Y1348535D01*
X1821956Y1350206D01*
X1820284Y1351488D01*
X1818338Y1352294D01*
X1816250Y1352569D01*
D02*
G37*
G36*
X2548000Y940104D02*
X2544867Y939691D01*
X2541948Y938482D01*
X2539442Y936559D01*
X2537518Y934052D01*
X2536309Y931133D01*
X2535896Y928000D01*
X2536309Y924867D01*
X2537518Y921948D01*
X2539442Y919442D01*
X2541948Y917518D01*
X2544867Y916309D01*
X2548000Y915896D01*
X2551133Y916309D01*
X2554052Y917518D01*
X2556559Y919442D01*
X2558482Y921948D01*
X2559691Y924867D01*
X2560103Y928000D01*
X2559691Y931133D01*
X2558482Y934052D01*
X2556559Y936559D01*
X2554052Y938482D01*
X2551133Y939691D01*
X2548000Y940104D01*
D02*
G37*
G36*
X2102000Y1009069D02*
X2099912Y1008794D01*
X2097966Y1007988D01*
X2096294Y1006706D01*
X2095012Y1005034D01*
X2094206Y1003088D01*
X2093931Y1001000D01*
X2094206Y998912D01*
X2095012Y996965D01*
X2096294Y995294D01*
X2097966Y994012D01*
X2099912Y993206D01*
X2102000Y992931D01*
X2103396Y993115D01*
X2116412Y980099D01*
Y937900D01*
X2085397Y906885D01*
X2084000Y907069D01*
X2081912Y906794D01*
X2079966Y905988D01*
X2078294Y904706D01*
X2077012Y903035D01*
X2076206Y901088D01*
X2075931Y899000D01*
X2076206Y896912D01*
X2077012Y894966D01*
X2078294Y893294D01*
X2079966Y892012D01*
X2081912Y891206D01*
X2084000Y890931D01*
X2086088Y891206D01*
X2088035Y892012D01*
X2089706Y893294D01*
X2090988Y894966D01*
X2091794Y896912D01*
X2092069Y899000D01*
X2091885Y900396D01*
X2124244Y932756D01*
X2125239Y934244D01*
X2125588Y936000D01*
Y982000D01*
X2125239Y983756D01*
X2124244Y985244D01*
X2109885Y999604D01*
X2110069Y1001000D01*
X2109794Y1003088D01*
X2108988Y1005034D01*
X2107706Y1006706D01*
X2106035Y1007988D01*
X2104088Y1008794D01*
X2102000Y1009069D01*
D02*
G37*
G36*
X1451000Y934121D02*
X1447345Y933640D01*
X1443940Y932229D01*
X1441015Y929985D01*
X1438771Y927060D01*
X1437360Y923655D01*
X1436879Y920000D01*
X1437360Y916345D01*
X1438771Y912940D01*
X1441015Y910015D01*
X1443940Y907771D01*
X1447345Y906360D01*
X1451000Y905879D01*
X1454655Y906360D01*
X1458060Y907771D01*
X1460985Y910015D01*
X1463229Y912940D01*
X1464640Y916345D01*
X1465121Y920000D01*
X1464640Y923655D01*
X1463229Y927060D01*
X1460985Y929985D01*
X1458060Y932229D01*
X1454655Y933640D01*
X1451000Y934121D01*
D02*
G37*
G36*
X1452500Y881106D02*
Y870700D01*
X1462906D01*
X1462691Y872333D01*
X1461482Y875252D01*
X1459559Y877758D01*
X1457052Y879682D01*
X1454133Y880891D01*
X1452500Y881106D01*
D02*
G37*
G36*
X1449500D02*
X1447867Y880891D01*
X1444948Y879682D01*
X1442442Y877758D01*
X1440518Y875252D01*
X1439309Y872333D01*
X1439094Y870700D01*
X1449500D01*
Y881106D01*
D02*
G37*
G36*
X1462906Y867700D02*
X1452500D01*
Y857294D01*
X1454133Y857509D01*
X1457052Y858718D01*
X1459559Y860641D01*
X1461482Y863148D01*
X1462691Y866067D01*
X1462906Y867700D01*
D02*
G37*
G36*
X1449500D02*
X1439094D01*
X1439309Y866067D01*
X1440518Y863148D01*
X1442442Y860641D01*
X1444948Y858718D01*
X1447867Y857509D01*
X1449500Y857294D01*
Y867700D01*
D02*
G37*
G36*
X1983000Y863103D02*
X1979867Y862691D01*
X1976948Y861482D01*
X1974442Y859558D01*
X1972518Y857052D01*
X1971309Y854133D01*
X1970896Y851000D01*
X1971309Y847867D01*
X1972518Y844948D01*
X1974442Y842441D01*
X1976948Y840518D01*
X1979867Y839309D01*
X1983000Y838896D01*
X1986133Y839309D01*
X1989052Y840518D01*
X1991559Y842441D01*
X1993482Y844948D01*
X1994691Y847867D01*
X1995103Y851000D01*
X1994691Y854133D01*
X1993482Y857052D01*
X1991559Y859558D01*
X1989052Y861482D01*
X1986133Y862691D01*
X1983000Y863103D01*
D02*
G37*
G36*
X1918000D02*
X1914867Y862691D01*
X1911948Y861482D01*
X1909442Y859558D01*
X1907518Y857052D01*
X1906309Y854133D01*
X1905896Y851000D01*
X1906309Y847867D01*
X1907518Y844948D01*
X1909442Y842441D01*
X1911948Y840518D01*
X1914867Y839309D01*
X1918000Y838896D01*
X1921133Y839309D01*
X1924052Y840518D01*
X1926559Y842441D01*
X1928482Y844948D01*
X1929691Y847867D01*
X1930103Y851000D01*
X1929691Y854133D01*
X1928482Y857052D01*
X1926559Y859558D01*
X1924052Y861482D01*
X1921133Y862691D01*
X1918000Y863103D01*
D02*
G37*
G36*
X2021000Y1123069D02*
X2018912Y1122794D01*
X2016965Y1121988D01*
X2015294Y1120706D01*
X2014012Y1119035D01*
X2013206Y1117088D01*
X2012931Y1115000D01*
X2013206Y1112912D01*
X2014012Y1110965D01*
X2015294Y1109294D01*
X2016667Y1108241D01*
Y1070000D01*
X2016997Y1068342D01*
X2017936Y1066936D01*
X2025936Y1058936D01*
X2027008Y1058219D01*
X2026791Y1056910D01*
X2025912Y1056794D01*
X2023965Y1055988D01*
X2022294Y1054706D01*
X2021012Y1053035D01*
X2020206Y1051088D01*
X2019931Y1049000D01*
X2020206Y1046912D01*
X2021012Y1044966D01*
X2022294Y1043294D01*
X2023667Y1042241D01*
Y1035098D01*
X2011000D01*
X2009049Y1034710D01*
X2007395Y1033605D01*
X1983838Y1010048D01*
X1981912Y1009794D01*
X1979966Y1008988D01*
X1978294Y1007706D01*
X1977012Y1006034D01*
X1976206Y1004088D01*
X1975952Y1002162D01*
X1966395Y992605D01*
X1965290Y990951D01*
X1964902Y989000D01*
Y958939D01*
X1963294Y957706D01*
X1962012Y956034D01*
X1961206Y954088D01*
X1960931Y952000D01*
X1961206Y949912D01*
X1961351Y949561D01*
X1959890Y948099D01*
X1817183D01*
X1816000Y948335D01*
X1814817Y948099D01*
X1775171D01*
X1774705Y948707D01*
X1773034Y949989D01*
X1771088Y950795D01*
X1768999Y951070D01*
X1766911Y950795D01*
X1764965Y949989D01*
X1763294Y948707D01*
X1762011Y947036D01*
X1761205Y945090D01*
X1760930Y943001D01*
X1761205Y940913D01*
X1762011Y938967D01*
X1763294Y937296D01*
X1764965Y936013D01*
X1766911Y935207D01*
X1768999Y934932D01*
X1771088Y935207D01*
X1773034Y936013D01*
X1774705Y937296D01*
X1775171Y937903D01*
X1962001D01*
X1963952Y938291D01*
X1965606Y939397D01*
X1970314Y944104D01*
X1971088Y944206D01*
X1973035Y945012D01*
X1974706Y946294D01*
X1975988Y947965D01*
X1976794Y949912D01*
X1977069Y952000D01*
X1976794Y954088D01*
X1975988Y956034D01*
X1975098Y957194D01*
Y986888D01*
X1982357Y994147D01*
X1984000Y993931D01*
X1986088Y994206D01*
X1988035Y995012D01*
X1989706Y996294D01*
X1990988Y997965D01*
X1991794Y999912D01*
X1992069Y1002000D01*
X1991853Y1003643D01*
X2013112Y1024902D01*
X2038000D01*
X2039951Y1025290D01*
X2041397Y1026256D01*
X2042667Y1025872D01*
Y991000D01*
X2042997Y989342D01*
X2043936Y987936D01*
X2053667Y978205D01*
Y878082D01*
X2053997Y876423D01*
X2054936Y875017D01*
X2065986Y863967D01*
X2065524Y862634D01*
X2063965Y861988D01*
X2062294Y860706D01*
X2061012Y859035D01*
X2060206Y857088D01*
X2059931Y855000D01*
X2059950Y854858D01*
X2058836Y853588D01*
X2038563D01*
X2037706Y854706D01*
X2036035Y855988D01*
X2034088Y856794D01*
X2032000Y857069D01*
X2029912Y856794D01*
X2027966Y855988D01*
X2026294Y854706D01*
X2025012Y853035D01*
X2024206Y851088D01*
X2023931Y849000D01*
X2024206Y846912D01*
X2025012Y844966D01*
X2026294Y843294D01*
X2027966Y842012D01*
X2029912Y841206D01*
X2032000Y840931D01*
X2034088Y841206D01*
X2036035Y842012D01*
X2037706Y843294D01*
X2038563Y844412D01*
X2062000D01*
X2063756Y844761D01*
X2065244Y845756D01*
X2066604Y847115D01*
X2068000Y846931D01*
X2070088Y847206D01*
X2071647Y847851D01*
X2072917Y847235D01*
Y840045D01*
X2043492Y810620D01*
X2041965Y809988D01*
X2040294Y808706D01*
X2039012Y807035D01*
X2038206Y805088D01*
X2037931Y803000D01*
X2038206Y800912D01*
X2039012Y798966D01*
X2040294Y797294D01*
X2041965Y796012D01*
X2043912Y795206D01*
X2046000Y794931D01*
X2048088Y795206D01*
X2050034Y796012D01*
X2051706Y797294D01*
X2052988Y798966D01*
X2053794Y800912D01*
X2054069Y803000D01*
X2053794Y805088D01*
X2052988Y807035D01*
X2052630Y807502D01*
X2080314Y835186D01*
X2081253Y836592D01*
X2081583Y838250D01*
Y858831D01*
X2081253Y860490D01*
X2080314Y861896D01*
X2062333Y879876D01*
Y980000D01*
X2062003Y981658D01*
X2061064Y983064D01*
X2051333Y992795D01*
Y1048241D01*
X2052706Y1049294D01*
X2053988Y1050965D01*
X2054794Y1052912D01*
X2055069Y1055000D01*
X2054794Y1057088D01*
X2053988Y1059035D01*
X2052706Y1060706D01*
X2051035Y1061988D01*
X2049088Y1062794D01*
X2047000Y1063069D01*
X2044912Y1062794D01*
X2043368Y1062155D01*
X2042343Y1062659D01*
X2042098Y1062923D01*
Y1063888D01*
X2043112Y1064902D01*
X2052888D01*
X2134395Y983395D01*
X2136049Y982290D01*
X2138000Y981902D01*
X2146902D01*
Y955172D01*
X2146294Y954706D01*
X2145012Y953035D01*
X2144206Y951088D01*
X2143931Y949000D01*
X2144206Y946912D01*
X2145012Y944966D01*
X2146294Y943294D01*
X2146902Y942828D01*
Y822112D01*
X2145395Y820605D01*
X2144290Y818951D01*
X2143902Y817000D01*
Y811172D01*
X2143294Y810706D01*
X2142012Y809035D01*
X2141206Y807088D01*
X2140931Y805000D01*
X2141206Y802912D01*
X2142012Y800965D01*
X2143294Y799294D01*
X2144966Y798012D01*
X2146912Y797206D01*
X2149000Y796931D01*
X2151088Y797206D01*
X2153035Y798012D01*
X2154706Y799294D01*
X2155172Y799902D01*
X2160888D01*
X2163395Y797395D01*
X2165049Y796290D01*
X2167000Y795902D01*
X2222902D01*
Y778194D01*
X2222012Y777035D01*
X2221206Y775088D01*
X2220931Y773000D01*
X2221206Y770912D01*
X2222012Y768966D01*
X2223294Y767294D01*
X2224966Y766012D01*
X2226912Y765206D01*
X2229000Y764931D01*
X2231088Y765206D01*
X2233035Y766012D01*
X2234706Y767294D01*
X2235988Y768966D01*
X2236794Y770912D01*
X2237069Y773000D01*
X2236794Y775088D01*
X2235988Y777035D01*
X2234706Y778706D01*
X2233098Y779939D01*
Y795902D01*
X2264828D01*
X2265294Y795294D01*
X2266965Y794012D01*
X2268912Y793206D01*
X2271000Y792931D01*
X2273088Y793206D01*
X2275034Y794012D01*
X2276706Y795294D01*
X2277988Y796965D01*
X2278794Y798912D01*
X2279069Y801000D01*
X2278794Y803088D01*
X2277988Y805034D01*
X2276706Y806706D01*
X2275034Y807988D01*
X2273088Y808794D01*
X2271000Y809069D01*
X2268912Y808794D01*
X2266965Y807988D01*
X2265294Y806706D01*
X2264828Y806098D01*
X2169112D01*
X2166605Y808605D01*
X2164951Y809710D01*
X2163000Y810098D01*
X2155172D01*
X2154706Y810706D01*
X2154098Y811172D01*
Y814888D01*
X2155605Y816395D01*
X2156710Y818049D01*
X2157098Y820000D01*
Y942828D01*
X2157706Y943294D01*
X2158988Y944966D01*
X2159794Y946912D01*
X2160069Y949000D01*
X2159794Y951088D01*
X2158988Y953035D01*
X2157706Y954706D01*
X2157098Y955172D01*
Y987000D01*
X2156710Y988951D01*
X2155605Y990605D01*
X2153951Y991710D01*
X2152000Y992098D01*
X2140112D01*
X2058605Y1073605D01*
X2056951Y1074710D01*
X2055000Y1075098D01*
X2041000D01*
X2039049Y1074710D01*
X2037395Y1073605D01*
X2033395Y1069605D01*
X2032290Y1067951D01*
X2032000Y1066491D01*
X2030766Y1066362D01*
X2025333Y1071795D01*
Y1108241D01*
X2026706Y1109294D01*
X2027988Y1110965D01*
X2028794Y1112912D01*
X2029069Y1115000D01*
X2028794Y1117088D01*
X2027988Y1119035D01*
X2026706Y1120706D01*
X2025034Y1121988D01*
X2023088Y1122794D01*
X2021000Y1123069D01*
D02*
G37*
G36*
X1536110Y788308D02*
X1532847Y787878D01*
X1529806Y786619D01*
X1527195Y784615D01*
X1525191Y782004D01*
X1523932Y778963D01*
X1523502Y775700D01*
X1523932Y772437D01*
X1525191Y769396D01*
X1527195Y766785D01*
X1529806Y764781D01*
X1532533Y763652D01*
X1532533Y763650D01*
Y762350D01*
X1532533Y762348D01*
X1529806Y761219D01*
X1527195Y759215D01*
X1525191Y756604D01*
X1523932Y753563D01*
X1523502Y750300D01*
X1523932Y747037D01*
X1525191Y743996D01*
X1527195Y741385D01*
X1529806Y739381D01*
X1532847Y738122D01*
X1536110Y737692D01*
X1539373Y738122D01*
X1542414Y739381D01*
X1545025Y741385D01*
X1547029Y743996D01*
X1548288Y747037D01*
X1548718Y750300D01*
X1548288Y753563D01*
X1547029Y756604D01*
X1545025Y759215D01*
X1542414Y761219D01*
X1539687Y762348D01*
X1539687Y762350D01*
Y763650D01*
X1539687Y763652D01*
X1542414Y764781D01*
X1545025Y766785D01*
X1547029Y769396D01*
X1548288Y772437D01*
X1548718Y775700D01*
X1548288Y778963D01*
X1547029Y782004D01*
X1545025Y784615D01*
X1542414Y786619D01*
X1539373Y787878D01*
X1536110Y788308D01*
D02*
G37*
G36*
X2250000Y742000D02*
X2239500D01*
Y731500D01*
X2250000D01*
Y742000D01*
D02*
G37*
G36*
X2236500D02*
X2226000D01*
Y731500D01*
X2236500D01*
Y742000D01*
D02*
G37*
G36*
X2250000Y728500D02*
X2239500D01*
Y718000D01*
X2250000D01*
Y728500D01*
D02*
G37*
G36*
X2236500D02*
X2226000D01*
Y718000D01*
X2236500D01*
Y728500D01*
D02*
G37*
G36*
X2130000Y744000D02*
X2102000D01*
Y716000D01*
X2130000D01*
Y744000D01*
D02*
G37*
G36*
X2187200Y744121D02*
X2183545Y743640D01*
X2180140Y742229D01*
X2177215Y739985D01*
X2174971Y737060D01*
X2173560Y733655D01*
X2173079Y730000D01*
X2173560Y726345D01*
X2174971Y722940D01*
X2177215Y720015D01*
X2180140Y717771D01*
X2183545Y716360D01*
X2187200Y715879D01*
X2190855Y716360D01*
X2194260Y717771D01*
X2197185Y720015D01*
X2199429Y722940D01*
X2200840Y726345D01*
X2201321Y730000D01*
X2200840Y733655D01*
X2199429Y737060D01*
X2197185Y739985D01*
X2194260Y742229D01*
X2190855Y743640D01*
X2187200Y744121D01*
D02*
G37*
G36*
X2065200D02*
X2061545Y743640D01*
X2058140Y742229D01*
X2055215Y739985D01*
X2052971Y737060D01*
X2051560Y733655D01*
X2051079Y730000D01*
X2051560Y726345D01*
X2052971Y722940D01*
X2055215Y720015D01*
X2058140Y717771D01*
X2061545Y716360D01*
X2065200Y715879D01*
X2068855Y716360D01*
X2072260Y717771D01*
X2075185Y720015D01*
X2077429Y722940D01*
X2078840Y726345D01*
X2079321Y730000D01*
X2078840Y733655D01*
X2077429Y737060D01*
X2075185Y739985D01*
X2072260Y742229D01*
X2068855Y743640D01*
X2065200Y744121D01*
D02*
G37*
G36*
X1624000Y726069D02*
X1621912Y725794D01*
X1619966Y724988D01*
X1618294Y723706D01*
X1617012Y722035D01*
X1616206Y720088D01*
X1615931Y718000D01*
X1616206Y715912D01*
X1617012Y713966D01*
X1618294Y712294D01*
X1619966Y711012D01*
X1621912Y710206D01*
X1624000Y709931D01*
X1626088Y710206D01*
X1627201Y710667D01*
X1647241D01*
X1648294Y709294D01*
X1649966Y708012D01*
X1651912Y707206D01*
X1654000Y706931D01*
X1656088Y707206D01*
X1658035Y708012D01*
X1659706Y709294D01*
X1660988Y710965D01*
X1661794Y712912D01*
X1662069Y715000D01*
X1661794Y717088D01*
X1660988Y719035D01*
X1659706Y720706D01*
X1658035Y721988D01*
X1656088Y722794D01*
X1654000Y723069D01*
X1651912Y722794D01*
X1649966Y721988D01*
X1648294Y720706D01*
X1647241Y719333D01*
X1631893D01*
X1631794Y720088D01*
X1630988Y722035D01*
X1629706Y723706D01*
X1628035Y724988D01*
X1626088Y725794D01*
X1624000Y726069D01*
D02*
G37*
G36*
X1904500Y712393D02*
Y703500D01*
X1913393D01*
X1913230Y704741D01*
X1912172Y707295D01*
X1910489Y709489D01*
X1908295Y711172D01*
X1905741Y712230D01*
X1904500Y712393D01*
D02*
G37*
G36*
X1901500D02*
X1900259Y712230D01*
X1897705Y711172D01*
X1895511Y709489D01*
X1893828Y707295D01*
X1892770Y704741D01*
X1892607Y703500D01*
X1901500D01*
Y712393D01*
D02*
G37*
G36*
X1860500D02*
Y703500D01*
X1869393D01*
X1869230Y704741D01*
X1868172Y707295D01*
X1866489Y709489D01*
X1864295Y711172D01*
X1861741Y712230D01*
X1860500Y712393D01*
D02*
G37*
G36*
X1857500D02*
X1856259Y712230D01*
X1853705Y711172D01*
X1851511Y709489D01*
X1849828Y707295D01*
X1848770Y704741D01*
X1848607Y703500D01*
X1857500D01*
Y712393D01*
D02*
G37*
G36*
X1913393Y700500D02*
X1904500D01*
Y691607D01*
X1905741Y691770D01*
X1908295Y692828D01*
X1910489Y694511D01*
X1912172Y696705D01*
X1913230Y699259D01*
X1913393Y700500D01*
D02*
G37*
G36*
X1901500D02*
X1892607D01*
X1892770Y699259D01*
X1893828Y696705D01*
X1895511Y694511D01*
X1897705Y692828D01*
X1900259Y691770D01*
X1901500Y691607D01*
Y700500D01*
D02*
G37*
G36*
X1869393D02*
X1860500D01*
Y691607D01*
X1861741Y691770D01*
X1864295Y692828D01*
X1866489Y694511D01*
X1868172Y696705D01*
X1869230Y699259D01*
X1869393Y700500D01*
D02*
G37*
G36*
X1857500D02*
X1848607D01*
X1848770Y699259D01*
X1849828Y696705D01*
X1851511Y694511D01*
X1853705Y692828D01*
X1856259Y691770D01*
X1857500Y691607D01*
Y700500D01*
D02*
G37*
G36*
X2439300Y669889D02*
Y661500D01*
X2447689D01*
X2447543Y662610D01*
X2446535Y665043D01*
X2444932Y667132D01*
X2442843Y668735D01*
X2440410Y669743D01*
X2439300Y669889D01*
D02*
G37*
G36*
X2436300D02*
X2435190Y669743D01*
X2432757Y668735D01*
X2430668Y667132D01*
X2429065Y665043D01*
X2428057Y662610D01*
X2427911Y661500D01*
X2436300D01*
Y669889D01*
D02*
G37*
G36*
X2514000Y672104D02*
X2510867Y671691D01*
X2507948Y670482D01*
X2505441Y668559D01*
X2503518Y666052D01*
X2502309Y663133D01*
X2502016Y660905D01*
X2501940Y660334D01*
X2500660D01*
X2500584Y660905D01*
X2500291Y663133D01*
X2499082Y666052D01*
X2497159Y668559D01*
X2494652Y670482D01*
X2491733Y671691D01*
X2488600Y672104D01*
X2485467Y671691D01*
X2482548Y670482D01*
X2480042Y668559D01*
X2478118Y666052D01*
X2476909Y663133D01*
X2476616Y660905D01*
X2476540Y660334D01*
X2475260D01*
X2475184Y660905D01*
X2474891Y663133D01*
X2473682Y666052D01*
X2471759Y668559D01*
X2469252Y670482D01*
X2466333Y671691D01*
X2463200Y672104D01*
X2460067Y671691D01*
X2457148Y670482D01*
X2454642Y668559D01*
X2452718Y666052D01*
X2451509Y663133D01*
X2451096Y660000D01*
X2451509Y656867D01*
X2452718Y653948D01*
X2454642Y651441D01*
X2457148Y649518D01*
X2460067Y648309D01*
X2463200Y647896D01*
X2466333Y648309D01*
X2469252Y649518D01*
X2471759Y651441D01*
X2473682Y653948D01*
X2474891Y656867D01*
X2475184Y659095D01*
X2475260Y659666D01*
X2476540D01*
X2476616Y659095D01*
X2476909Y656867D01*
X2478118Y653948D01*
X2480042Y651441D01*
X2482548Y649518D01*
X2485467Y648309D01*
X2488600Y647896D01*
X2491733Y648309D01*
X2494652Y649518D01*
X2497159Y651441D01*
X2499082Y653948D01*
X2500291Y656867D01*
X2500584Y659095D01*
X2500660Y659666D01*
X2501940D01*
X2502016Y659095D01*
X2502309Y656867D01*
X2503518Y653948D01*
X2505441Y651441D01*
X2507948Y649518D01*
X2510867Y648309D01*
X2514000Y647896D01*
X2517133Y648309D01*
X2520052Y649518D01*
X2522558Y651441D01*
X2524482Y653948D01*
X2525691Y656867D01*
X2526104Y660000D01*
X2525691Y663133D01*
X2524482Y666052D01*
X2522558Y668559D01*
X2520052Y670482D01*
X2517133Y671691D01*
X2514000Y672104D01*
D02*
G37*
G36*
X2239500Y665706D02*
Y655300D01*
X2249906D01*
X2249691Y656933D01*
X2248482Y659852D01*
X2246559Y662358D01*
X2244052Y664282D01*
X2241133Y665491D01*
X2239500Y665706D01*
D02*
G37*
G36*
X2236500Y665706D02*
X2234867Y665491D01*
X2231948Y664282D01*
X2229442Y662358D01*
X2227518Y659852D01*
X2226309Y656933D01*
X2226094Y655300D01*
X2236500D01*
Y665706D01*
D02*
G37*
G36*
X2759000Y696102D02*
X2754883Y695696D01*
X2750924Y694495D01*
X2747276Y692545D01*
X2744078Y689921D01*
X2741454Y686723D01*
X2739504Y683075D01*
X2738304Y679117D01*
X2737898Y675000D01*
X2738304Y670883D01*
X2739504Y666925D01*
X2741454Y663277D01*
X2744078Y660079D01*
X2747276Y657455D01*
X2750924Y655505D01*
X2754883Y654304D01*
X2759000Y653898D01*
X2763116Y654304D01*
X2767075Y655505D01*
X2770723Y657455D01*
X2773921Y660079D01*
X2776545Y663277D01*
X2778495Y666925D01*
X2779696Y670883D01*
X2780101Y675000D01*
X2779696Y679117D01*
X2778495Y683075D01*
X2776545Y686723D01*
X2773921Y689921D01*
X2770723Y692545D01*
X2767075Y694495D01*
X2763116Y695696D01*
X2759000Y696102D01*
D02*
G37*
G36*
X2659000D02*
X2654883Y695696D01*
X2650924Y694495D01*
X2647276Y692545D01*
X2644078Y689921D01*
X2641454Y686723D01*
X2639504Y683075D01*
X2638304Y679117D01*
X2637898Y675000D01*
X2638304Y670883D01*
X2639504Y666925D01*
X2641454Y663277D01*
X2644078Y660079D01*
X2647276Y657455D01*
X2650924Y655505D01*
X2654883Y654304D01*
X2659000Y653898D01*
X2663116Y654304D01*
X2667075Y655505D01*
X2670723Y657455D01*
X2673921Y660079D01*
X2676545Y663277D01*
X2678495Y666925D01*
X2679696Y670883D01*
X2680101Y675000D01*
X2679696Y679117D01*
X2678495Y683075D01*
X2676545Y686723D01*
X2673921Y689921D01*
X2670723Y692545D01*
X2667075Y694495D01*
X2663116Y695696D01*
X2659000Y696102D01*
D02*
G37*
G36*
X1441000D02*
X1436883Y695696D01*
X1432924Y694495D01*
X1429276Y692545D01*
X1426079Y689921D01*
X1423454Y686723D01*
X1421504Y683075D01*
X1420304Y679117D01*
X1419898Y675000D01*
X1420304Y670883D01*
X1421504Y666925D01*
X1423454Y663277D01*
X1426079Y660079D01*
X1429276Y657455D01*
X1432924Y655505D01*
X1436883Y654304D01*
X1441000Y653898D01*
X1445116Y654304D01*
X1449075Y655505D01*
X1452723Y657455D01*
X1455921Y660079D01*
X1458545Y663277D01*
X1460495Y666925D01*
X1461696Y670883D01*
X1462101Y675000D01*
X1461696Y679117D01*
X1460495Y683075D01*
X1458545Y686723D01*
X1455921Y689921D01*
X1452723Y692545D01*
X1449075Y694495D01*
X1445116Y695696D01*
X1441000Y696102D01*
D02*
G37*
G36*
X2447689Y658500D02*
X2439300D01*
Y650111D01*
X2440410Y650257D01*
X2442843Y651265D01*
X2444932Y652868D01*
X2446535Y654957D01*
X2447543Y657390D01*
X2447689Y658500D01*
D02*
G37*
G36*
X2436300D02*
X2427911D01*
X2428057Y657390D01*
X2429065Y654957D01*
X2430668Y652868D01*
X2432757Y651265D01*
X2435190Y650257D01*
X2436300Y650111D01*
Y658500D01*
D02*
G37*
G36*
X2399000Y672000D02*
X2375000D01*
Y648000D01*
X2399000D01*
Y672000D01*
D02*
G37*
G36*
X2412400Y672104D02*
X2409267Y671691D01*
X2406348Y670482D01*
X2403842Y668559D01*
X2401918Y666052D01*
X2400709Y663133D01*
X2400296Y660000D01*
X2400709Y656867D01*
X2401918Y653948D01*
X2403842Y651441D01*
X2406348Y649518D01*
X2409267Y648309D01*
X2412400Y647896D01*
X2415533Y648309D01*
X2418452Y649518D01*
X2420959Y651441D01*
X2422882Y653948D01*
X2424091Y656867D01*
X2424503Y660000D01*
X2424091Y663133D01*
X2422882Y666052D01*
X2420959Y668559D01*
X2418452Y670482D01*
X2415533Y671691D01*
X2412400Y672104D01*
D02*
G37*
G36*
X2249906Y652300D02*
X2239500D01*
Y641894D01*
X2241133Y642109D01*
X2244052Y643318D01*
X2246559Y645241D01*
X2248482Y647748D01*
X2249691Y650667D01*
X2249906Y652300D01*
D02*
G37*
G36*
X2236500D02*
X2226094D01*
X2226309Y650667D01*
X2227518Y647748D01*
X2229442Y645241D01*
X2231948Y643318D01*
X2234867Y642109D01*
X2236500Y641894D01*
Y652300D01*
D02*
G37*
%LPD*%
D45*
X1551500Y1509000D02*
D03*
D46*
X1567500Y1525000D02*
D03*
Y1493000D02*
D03*
D47*
X1816000Y944001D02*
X1817000Y943001D01*
X2105000Y1338000D02*
X2108000Y1341000D01*
X2047000Y991000D02*
Y1055000D01*
X2070999Y1251001D02*
X2072999D01*
X2088000Y1266002D01*
Y1342000D01*
X2037000Y1127000D02*
X2072000D01*
X2075000Y1124000D01*
X2037000Y1099000D02*
X2077000D01*
X2109000Y1079000D02*
Y1105000D01*
Y1079000D02*
X2214000Y974000D01*
X2218000D01*
X2122000Y1082000D02*
Y1094000D01*
Y1082000D02*
X2220750Y983250D01*
X2221831D01*
X2232000Y973081D01*
Y945000D02*
Y973081D01*
X2135000Y1089000D02*
X2244000Y980000D01*
Y900000D02*
Y980000D01*
X2099000Y1065000D02*
X2207000Y957000D01*
X2099000Y1065000D02*
Y1124000D01*
X2091000Y1139000D02*
X2106000Y1154000D01*
X2091000Y1064000D02*
Y1139000D01*
Y1064000D02*
X2167000Y988000D01*
Y966000D02*
Y988000D01*
X2198000Y928003D02*
Y935000D01*
X2196998Y927001D02*
X2198000Y928003D01*
X2167000Y966000D02*
X2198000Y935000D01*
X2099000Y1124000D02*
X2119000Y1144000D01*
X2131000D01*
X2215000Y1100000D02*
X2217000Y1102000D01*
X2252000D01*
X2220000Y1114000D02*
X2245000D01*
X2250000Y1119000D01*
X2205750Y1112831D02*
X2221169Y1128250D01*
X2247250D01*
X2252000Y1135000D02*
X2253000Y1134000D01*
X2247250Y1128250D02*
X2253000Y1134000D01*
X2234000Y1187000D02*
X2267000Y1154000D01*
Y1102000D02*
Y1154000D01*
X2245000Y1200000D02*
X2281000Y1164000D01*
Y1112000D02*
Y1164000D01*
X2257000Y1209000D02*
X2297000Y1169000D01*
Y1123000D02*
Y1169000D01*
X2267000Y1223000D02*
X2310000Y1180000D01*
Y1133000D02*
Y1180000D01*
X1627000Y715000D02*
X1654000D01*
X1624000Y718000D02*
X1627000Y715000D01*
X2028000Y1030000D02*
Y1049000D01*
X1983500Y1002500D02*
X1984000Y1002000D01*
X2021000Y1070000D02*
Y1115000D01*
Y1070000D02*
X2029000Y1062000D01*
X2037000D01*
X2287998Y1409002D02*
Y1411000D01*
Y1409002D02*
X2297000Y1400000D01*
Y1367000D02*
Y1400000D01*
X2263000Y1430000D02*
X2299000D01*
X2249000Y1416000D02*
X2263000Y1430000D01*
X2254000Y1450000D02*
X2309000D01*
X2243000Y1436000D02*
X2258000D01*
X2264000Y1442000D01*
X2302000D01*
X2316000Y1428000D01*
X2236000Y1307000D02*
Y1337000D01*
X2226000Y1297000D02*
X2236000Y1307000D01*
X2201000Y1297000D02*
X2226000D01*
X2337000Y1392000D02*
X2375000Y1430000D01*
X2376000D01*
X2269000Y1345000D02*
X2270000Y1346000D01*
X2312000D01*
X2108000Y1341000D02*
X2222000D01*
X2233000Y1352000D01*
X2239000D01*
X2178000Y1399000D02*
X2240000D01*
X2285000Y1354000D01*
X2304000D01*
X2309700Y1359700D01*
X2324300D01*
X2897997Y1336001D02*
X2913000Y1351004D01*
Y1370000D01*
X2908000Y1375000D02*
X2913000Y1370000D01*
X2903997Y1375000D02*
X2908000D01*
X2897997Y1316003D02*
X2948500Y1265500D01*
X2897997Y1316003D02*
Y1336001D01*
X2865000Y1375000D02*
X2880000D01*
X2891000Y1386000D01*
X2219998Y1151001D02*
Y1197998D01*
X2260000Y1238000D01*
X2287000D01*
X2187669Y1139750D02*
X2209000Y1161081D01*
Y1198000D01*
X2260000Y1249000D01*
X2294000D01*
X2305000Y1238000D01*
X2196000Y1085000D02*
X2205750Y1094750D01*
Y1112831D01*
X1780999Y1076001D02*
X1782000Y1077002D01*
X1781000Y1076000D02*
X1816000D01*
X1780999Y1076001D02*
X1781000Y1076000D01*
X2047000Y991000D02*
X2058000Y980000D01*
Y878082D02*
Y980000D01*
Y878082D02*
X2077250Y858831D01*
Y838250D02*
Y858831D01*
X2046000Y807000D02*
X2077250Y838250D01*
X2046000Y803000D02*
Y807000D01*
X2183998Y1203001D02*
Y1203002D01*
X2900000Y1504000D02*
X2900500Y1504500D01*
X2922997Y1464003D02*
Y1465000D01*
X1703750Y1454000D02*
X1719750Y1438000D01*
X1703750Y1454000D02*
Y1506150D01*
X1689150Y1520750D02*
X1703750Y1506150D01*
X1763500Y1182250D02*
Y1279000D01*
X1724500Y1318000D02*
X1763500Y1279000D01*
X1719750Y1318000D02*
X1724500D01*
X1687000D02*
X1719750D01*
X1666500Y1338500D02*
X1687000Y1318000D01*
X1618250Y1146500D02*
Y1374250D01*
X1571750Y1420750D02*
X1618250Y1374250D01*
X1526250Y1420750D02*
X1571750D01*
X1744517Y1146726D02*
X1745743Y1145500D01*
X1621750Y1132250D02*
X1635000Y1145500D01*
X1614500Y1132250D02*
X1621750D01*
X1605750Y1141000D02*
X1614500Y1132250D01*
X1605750Y1141000D02*
Y1353500D01*
X1550250Y1409000D02*
X1605750Y1353500D01*
X1519500Y1409000D02*
X1550250D01*
X1512250Y1416250D02*
X1519500Y1409000D01*
X1512250Y1416250D02*
Y1431750D01*
X1526250Y1445750D01*
X1635000Y1145500D02*
X1745743D01*
X2030250Y1169500D02*
X2038750Y1161000D01*
X1997250Y1169500D02*
X2030250D01*
X1974250Y1192500D02*
X1997250Y1169500D01*
X1974250Y1192500D02*
Y1228750D01*
X1956000Y1247000D02*
X1974250Y1228750D01*
X1900000Y1247000D02*
X1956000D01*
X1887250Y1259750D02*
X1900000Y1247000D01*
X1778500Y1234999D02*
X1788269Y1225230D01*
X1778500Y1234999D02*
Y1284500D01*
X1759250Y1303750D02*
X1778500Y1284500D01*
X1644500Y1323000D02*
X1668500Y1299000D01*
X1633500Y1323000D02*
X1644500D01*
X1491500Y1418000D02*
X1499750D01*
X1468250Y1441250D02*
X1491500Y1418000D01*
X2041500Y1549000D02*
X2104500Y1486000D01*
X2041500Y1549000D02*
Y1575000D01*
X2104500Y1486000D02*
X2310000D01*
X2027250Y1531000D02*
X2088250Y1470000D01*
X2027250Y1531000D02*
Y1579000D01*
X2034000Y1585750D01*
X2055750D02*
Y1586500D01*
X2088250Y1470000D02*
X2310000D01*
X2034000Y1585750D02*
X2055750D01*
X1703750Y1330500D02*
Y1397767D01*
X1694017Y1407500D02*
X1703750Y1397767D01*
X1681750Y1407500D02*
X1694017D01*
X1676250Y1413000D02*
X1681750Y1407500D01*
X1666500Y1338500D02*
Y1490000D01*
X1672250Y1495750D01*
X1689150D01*
X1676250Y1413000D02*
Y1481506D01*
X1675764Y1481993D02*
X1676250Y1481506D01*
X1744500Y1408500D02*
Y1481519D01*
X1760600Y1497619D01*
Y1511081D01*
X1751081Y1520600D02*
X1760600Y1511081D01*
X1705917Y1520600D02*
X1751081D01*
X1694017Y1532500D02*
X1705917Y1520600D01*
X1654500Y1532500D02*
X1694017D01*
X1596000Y1474000D02*
X1654500Y1532500D01*
X1575250Y1474000D02*
X1596000D01*
X1633500Y1416750D02*
X1658500Y1391750D01*
Y1391500D02*
Y1391750D01*
X1657250Y1390250D02*
X1658500Y1391500D01*
X1703750Y1294500D02*
X1721750Y1276500D01*
X1748500D01*
X1926500Y1311959D02*
X1927776Y1313235D01*
X1925250Y1397000D02*
X1926500Y1398250D01*
X1924250Y1397000D02*
X1925250D01*
X1927776Y1285974D02*
Y1313235D01*
Y1285974D02*
X1946750Y1267000D01*
X1926500Y1311959D02*
Y1398250D01*
X1898250Y1409250D02*
X1981000D01*
X2051750Y1480000D01*
X1940500Y1387000D02*
X1978750D01*
X2033250Y1441500D01*
X2068000D01*
X2088250Y1461750D01*
Y1470000D01*
X1930526Y1086776D02*
Y1090724D01*
D48*
X2011000Y1030000D02*
X2028000D01*
X1983500Y1002500D02*
X2011000Y1030000D01*
X2037000Y1031000D02*
X2038000Y1030000D01*
X2037000Y1066000D02*
X2041000Y1070000D01*
X2055000D01*
X2138000Y987000D01*
X2152000D01*
X2300000Y1287000D02*
X2449000D01*
X2299000Y1286000D02*
X2300000Y1287000D01*
X2152000Y949000D02*
Y987000D01*
X2028000Y1030000D02*
X2038000D01*
X1970000Y989000D02*
X1983500Y1002500D01*
X1969000Y952000D02*
X1970000Y951000D01*
Y989000D01*
X1962001Y943001D02*
X1970000Y951000D01*
X2037000Y1031000D02*
Y1062000D01*
Y1066000D01*
X2251000Y1286000D02*
X2299000D01*
X2159000Y1194000D02*
X2251000Y1286000D01*
X2133000Y1194000D02*
X2159000D01*
X2125000Y1186000D02*
X2133000Y1194000D01*
X2062000Y1186000D02*
X2125000D01*
X2040250Y1207750D02*
X2062000Y1186000D01*
X2040250Y1207750D02*
Y1209331D01*
X1768999Y943001D02*
X1817000D01*
X1962001D01*
X2163000Y805000D02*
X2167000Y801000D01*
X2152000Y805000D02*
X2163000D01*
X2149000D02*
Y817000D01*
X2152000Y820000D01*
Y949000D01*
X2228000Y774000D02*
X2229000Y773000D01*
X2228000Y774000D02*
Y801000D01*
X2167000D02*
X2228000D01*
X2271000D01*
X2449000Y1287000D02*
Y1347000D01*
Y1261000D02*
X2451000Y1259000D01*
X2449000Y1261000D02*
Y1287000D01*
X2429500Y1182500D02*
Y1237500D01*
X2451000Y1259000D01*
X2429500Y1088500D02*
Y1182500D01*
X2429000Y1088000D02*
X2429500Y1088500D01*
D50*
X2102000Y1001000D02*
X2121000Y982000D01*
Y936000D02*
Y982000D01*
X2084000Y899000D02*
X2121000Y936000D01*
X2062000Y849000D02*
X2068000Y855000D01*
X2032000Y849000D02*
X2062000D01*
D51*
X1727000Y974000D02*
X1765000Y1012000D01*
Y1099000D01*
X1840000Y1174000D01*
Y1301000D01*
X1816250Y1324750D02*
X1840000Y1301000D01*
X1816250Y1324750D02*
Y1344500D01*
X1638500Y1348750D02*
Y1382500D01*
X1550250Y1470750D02*
X1638500Y1382500D01*
X1526250Y1470750D02*
X1550250D01*
X1499750Y1497250D02*
X1526250Y1470750D01*
X1499750Y1497250D02*
Y1498000D01*
X1638500Y1348750D02*
X1676500Y1310750D01*
X1708615D01*
X1714365Y1305000D01*
X1717000D01*
X1727250Y1294750D01*
D53*
X1538000Y1509000D02*
X1551500D01*
X1526250Y1520750D02*
X1538000Y1509000D01*
D54*
X1702500Y1163750D02*
G03*
X1702500Y1163750I-5000J0D01*
G01*
X2940000Y1341000D02*
G03*
X2940000Y1341000I-5000J0D01*
G01*
X2861500Y1431000D02*
G03*
X2861500Y1431000I-5000J0D01*
G01*
X1953500Y1151500D02*
G03*
X1953500Y1151500I-5000J0D01*
G01*
X1636500Y1045000D02*
G03*
X1636500Y1045000I-5000J0D01*
G01*
X1702000Y738000D02*
G03*
X1702000Y738000I-5000J0D01*
G01*
X2022000Y1170000D02*
G03*
X2022000Y1170000I-5000J0D01*
G01*
X1666500Y1242750D02*
X1706500D01*
X1666500Y1154750D02*
X1706500D01*
X1666500D02*
Y1242750D01*
X1706500Y1154750D02*
Y1242750D01*
X2856000Y1350000D02*
X2944000D01*
X2856000Y1310000D02*
X2944000D01*
Y1350000D01*
X2856000Y1310000D02*
Y1350000D01*
X1470800Y1492250D02*
Y1506750D01*
X1448700Y1492250D02*
Y1506750D01*
Y1492250D02*
X1470800D01*
X1448700Y1506750D02*
X1470800D01*
X2976350Y1311600D02*
Y1334400D01*
X2963650Y1311600D02*
Y1334400D01*
X2976350D01*
X2963650Y1311600D02*
X2976350D01*
X2952500Y1422000D02*
Y1478000D01*
X2847500Y1422000D02*
Y1478000D01*
X2952500D01*
X2847500Y1422000D02*
X2952500D01*
X1838500Y1329250D02*
Y1359750D01*
X1856000Y1329250D02*
Y1359750D01*
X1838500D02*
X1856000D01*
X1838500Y1329250D02*
X1856000D01*
X2963650Y1356600D02*
Y1379400D01*
X2976350Y1356600D02*
Y1379400D01*
X2963650Y1356600D02*
X2976350D01*
X2963650Y1379400D02*
X2976350D01*
X2963650Y1264600D02*
Y1287400D01*
X2976350Y1264600D02*
Y1287400D01*
X2963650Y1264600D02*
X2976350D01*
X2963650Y1287400D02*
X2976350D01*
X1612150Y1171350D02*
Y1194150D01*
X1624850Y1171350D02*
Y1194150D01*
X1612150Y1171350D02*
X1624850D01*
X1612150Y1194150D02*
X1624850D01*
X2863650Y1243600D02*
Y1266400D01*
X2876350Y1243600D02*
Y1266400D01*
X2863650Y1243600D02*
X2876350D01*
X2863650Y1266400D02*
X2876350D01*
X2972750Y1483950D02*
X2987250D01*
X2972750Y1506050D02*
X2987250D01*
X2972750Y1483950D02*
Y1506050D01*
X2987250Y1483950D02*
Y1506050D01*
X2972750Y1438950D02*
X2987250D01*
X2972750Y1461050D02*
X2987250D01*
X2972750Y1438950D02*
Y1461050D01*
X2987250Y1438950D02*
Y1461050D01*
X1975000Y1355550D02*
X1989500D01*
X1975000Y1333450D02*
X1989500D01*
Y1355550D01*
X1975000Y1333450D02*
Y1355550D01*
X1947000D02*
X1961500D01*
X1947000Y1333450D02*
X1961500D01*
Y1355550D01*
X1947000Y1333450D02*
Y1355550D01*
X1919000D02*
X1933500D01*
X1919000Y1333450D02*
X1933500D01*
Y1355550D01*
X1919000Y1333450D02*
Y1355550D01*
X1891000D02*
X1905500D01*
X1891000Y1333450D02*
X1905500D01*
Y1355550D01*
X1891000Y1333450D02*
Y1355550D01*
X1795550Y1355750D02*
Y1370250D01*
X1773450Y1355750D02*
Y1370250D01*
Y1355750D02*
X1795550D01*
X1773450Y1370250D02*
X1795550D01*
X1795800Y1325750D02*
Y1340250D01*
X1773700Y1325750D02*
Y1340250D01*
Y1325750D02*
X1795800D01*
X1773700Y1340250D02*
X1795800D01*
X1684100Y1268100D02*
X1706900D01*
X1684100Y1255400D02*
X1706900D01*
X1684100D02*
Y1268100D01*
X1706900Y1255400D02*
Y1268100D01*
X2545750Y899050D02*
X2560250D01*
X2545750Y876950D02*
X2560250D01*
Y899050D01*
X2545750Y876950D02*
Y899050D01*
X2366050Y767750D02*
Y782250D01*
X2343950Y767750D02*
Y782250D01*
Y767750D02*
X2366050D01*
X2343950Y782250D02*
X2366050D01*
Y790750D02*
Y805250D01*
X2343950Y790750D02*
Y805250D01*
Y790750D02*
X2366050D01*
X2343950Y805250D02*
X2366050D01*
X1551750Y1086950D02*
X1566250D01*
X1551750Y1109050D02*
X1566250D01*
X1551750Y1086950D02*
Y1109050D01*
X1566250Y1086950D02*
Y1109050D01*
X2038600Y756650D02*
X2061400D01*
X2038600Y769350D02*
X2061400D01*
Y756650D02*
Y769350D01*
X2038600Y756650D02*
Y769350D01*
X1730950Y701750D02*
Y716250D01*
X1753050Y701750D02*
Y716250D01*
X1730950D02*
X1753050D01*
X1730950Y701750D02*
X1753050D01*
X1877500Y1128500D02*
Y1160500D01*
X1957500Y1128500D02*
Y1160500D01*
X1877500Y1128500D02*
X1957500D01*
X1877500Y1160500D02*
X1957500D01*
X1853000Y965750D02*
X1900000D01*
X1853000Y1079250D02*
X1900000D01*
X1853000Y965750D02*
Y1079250D01*
X1900000Y965750D02*
Y1079250D01*
X1535500Y998000D02*
Y1054000D01*
X1640500Y998000D02*
Y1054000D01*
X1535500Y998000D02*
X1640500D01*
X1535500Y1054000D02*
X1640500D01*
X1732250Y920750D02*
Y951250D01*
X1749750Y920750D02*
Y951250D01*
X1732250D02*
X1749750D01*
X1732250Y920750D02*
X1749750D01*
X1656000Y707000D02*
Y747000D01*
X1706000Y707000D02*
Y747000D01*
X1656000Y707000D02*
X1706000D01*
X1656000Y747000D02*
X1706000D01*
X2253400Y1067800D02*
X2300600D01*
X2253400Y1030200D02*
X2300600D01*
Y1067800D01*
X2253400Y1030200D02*
Y1067800D01*
X2008000Y1039000D02*
Y1179000D01*
X2148000Y1039000D02*
Y1179000D01*
X2008000D02*
X2148000D01*
X2008000Y1039000D02*
X2148000D01*
X1665600Y669650D02*
Y682350D01*
X1688400Y669650D02*
Y682350D01*
X1665600D02*
X1688400D01*
X1665600Y669650D02*
X1688400D01*
X1630650Y732600D02*
Y755400D01*
X1643350Y732600D02*
Y755400D01*
X1630650Y732600D02*
X1643350D01*
X1630650Y755400D02*
X1643350D01*
X1604650Y732600D02*
X1617350D01*
X1604650Y755400D02*
X1617350D01*
X1604650Y732600D02*
Y755400D01*
X1617350Y732600D02*
Y755400D01*
X1667650Y931600D02*
Y954400D01*
X1680350Y931600D02*
Y954400D01*
X1667650Y931600D02*
X1680350D01*
X1667650Y954400D02*
X1680350D01*
X2097650Y960600D02*
X2110350D01*
X2097650Y983400D02*
X2110350D01*
X2097650Y960600D02*
Y983400D01*
X2110350Y960600D02*
Y983400D01*
X2643600Y1364650D02*
X2666400D01*
X2643600Y1377350D02*
X2666400D01*
Y1364650D02*
Y1377350D01*
X2643600Y1364650D02*
Y1377350D01*
X1962650Y1014600D02*
X1975350D01*
X1962650Y1037400D02*
X1975350D01*
X1962650Y1014600D02*
Y1037400D01*
X1975350Y1014600D02*
Y1037400D01*
X2642600Y1332650D02*
X2665400D01*
X2642600Y1345350D02*
X2665400D01*
Y1332650D02*
Y1345350D01*
X2642600Y1332650D02*
Y1345350D01*
X2641600Y1300650D02*
Y1313350D01*
X2664400Y1300650D02*
Y1313350D01*
X2641600D02*
X2664400D01*
X2641600Y1300650D02*
X2664400D01*
X2641600Y1267650D02*
X2664400D01*
X2641600Y1280350D02*
X2664400D01*
Y1267650D02*
Y1280350D01*
X2641600Y1267650D02*
Y1280350D01*
X2444650Y1366600D02*
X2457350D01*
X2444650Y1389400D02*
X2457350D01*
X2444650Y1366600D02*
Y1389400D01*
X2457350Y1366600D02*
Y1389400D01*
X2168600Y794650D02*
X2191400D01*
X2168600Y807350D02*
X2191400D01*
Y794650D02*
Y807350D01*
X2168600Y794650D02*
Y807350D01*
X2444650Y1276600D02*
X2457350D01*
X2444650Y1299400D02*
X2457350D01*
X2444650Y1276600D02*
Y1299400D01*
X2457350Y1276600D02*
Y1299400D01*
X1990650Y1219600D02*
Y1242400D01*
X2003350Y1219600D02*
Y1242400D01*
X1990650Y1219600D02*
X2003350D01*
X1990650Y1242400D02*
X2003350D01*
X1944400Y1038650D02*
Y1051350D01*
X1921600Y1038650D02*
Y1051350D01*
Y1038650D02*
X1944400D01*
X1921600Y1051350D02*
X1944400D01*
X1921600Y1076850D02*
X1944400D01*
X1921600Y1064150D02*
X1944400D01*
X1921600D02*
Y1076850D01*
X1944400Y1064150D02*
Y1076850D01*
X2442650Y1181600D02*
X2455350D01*
X2442650Y1204400D02*
X2455350D01*
X2442650Y1181600D02*
Y1204400D01*
X2455350Y1181600D02*
Y1204400D01*
X2095600Y757650D02*
X2118400D01*
X2095600Y770350D02*
X2118400D01*
Y757650D02*
Y770350D01*
X2095600Y757650D02*
Y770350D01*
X1751500Y782500D02*
Y907500D01*
X1626500Y782500D02*
Y907500D01*
Y782500D02*
X1751500D01*
X1626500Y907500D02*
X1751500D01*
X1975250Y968000D02*
Y988000D01*
X1962750Y968000D02*
Y988000D01*
X1975250D01*
X1962750Y968000D02*
X1975250D01*
X1695750Y967000D02*
X1708250D01*
X1695750Y947000D02*
X1708250D01*
Y967000D01*
X1695750Y947000D02*
Y967000D01*
X1738000Y728250D02*
Y767750D01*
X1784000Y728250D02*
Y767750D01*
X1738000D02*
X1784000D01*
X1738000Y728250D02*
X1784000D01*
X2691000Y1378250D02*
X2711000D01*
X2691000Y1365750D02*
X2711000D01*
X2691000D02*
Y1378250D01*
X2711000Y1365750D02*
Y1378250D01*
X2710000Y1333750D02*
Y1346250D01*
X2690000Y1333750D02*
Y1346250D01*
Y1333750D02*
X2710000D01*
X2690000Y1346250D02*
X2710000D01*
X2689000Y1314250D02*
X2709000D01*
X2689000Y1301750D02*
X2709000D01*
X2689000D02*
Y1314250D01*
X2709000Y1301750D02*
Y1314250D01*
X2709000Y1267750D02*
Y1280250D01*
X2689000Y1267750D02*
Y1280250D01*
Y1267750D02*
X2709000D01*
X2689000Y1280250D02*
X2709000D01*
X1782950Y919750D02*
Y934250D01*
X1805050Y919750D02*
Y934250D01*
X1782950D02*
X1805050D01*
X1782950Y919750D02*
X1805050D01*
X1782950Y890750D02*
Y905250D01*
X1805050Y890750D02*
Y905250D01*
X1782950D02*
X1805050D01*
X1782950Y890750D02*
X1805050D01*
X1782950Y861750D02*
Y876250D01*
X1805050Y861750D02*
Y876250D01*
X1782950D02*
X1805050D01*
X1782950Y861750D02*
X1805050D01*
X1639750Y931950D02*
X1654250D01*
X1639750Y954050D02*
X1654250D01*
X1639750Y931950D02*
Y954050D01*
X1654250Y931950D02*
Y954050D01*
X1611750Y931950D02*
X1626250D01*
X1611750Y954050D02*
X1626250D01*
X1611750Y931950D02*
Y954050D01*
X1626250Y931950D02*
Y954050D01*
X1603750Y702050D02*
X1618250D01*
X1603750Y679950D02*
X1618250D01*
Y702050D01*
X1603750Y679950D02*
Y702050D01*
X1630750Y702050D02*
X1645250D01*
X1630750Y679950D02*
X1645250D01*
Y702050D01*
X1630750Y679950D02*
Y702050D01*
X1723500Y642000D02*
Y688000D01*
X1796500Y642000D02*
Y688000D01*
X1723500D02*
X1796500D01*
X1723500Y642000D02*
X1796500D01*
X1567500Y786000D02*
Y852000D01*
X1602500Y786000D02*
Y852000D01*
X1567500Y786000D02*
X1602500D01*
X1567500Y852000D02*
X1602500D01*
X2415750Y1069050D02*
X2430250D01*
X2415750Y1046950D02*
X2430250D01*
Y1069050D01*
X2415750Y1046950D02*
Y1069050D01*
X2444750D02*
X2459250D01*
X2444750Y1046950D02*
X2459250D01*
Y1069050D01*
X2444750Y1046950D02*
Y1069050D01*
X2386750D02*
X2401250D01*
X2386750Y1046950D02*
X2401250D01*
Y1069050D01*
X2386750Y1046950D02*
Y1069050D01*
X2356750D02*
X2371250D01*
X2356750Y1046950D02*
X2371250D01*
Y1069050D01*
X2356750Y1046950D02*
Y1069050D01*
X1951050Y1094750D02*
Y1109250D01*
X1928950Y1094750D02*
Y1109250D01*
Y1094750D02*
X1951050D01*
X1928950Y1109250D02*
X1951050D01*
Y1179750D02*
Y1194250D01*
X1928950Y1179750D02*
Y1194250D01*
Y1179750D02*
X1951050D01*
X1928950Y1194250D02*
X1951050D01*
Y1212750D02*
Y1227250D01*
X1928950Y1212750D02*
Y1227250D01*
Y1212750D02*
X1951050D01*
X1928950Y1227250D02*
X1951050D01*
X2024750Y952950D02*
X2039250D01*
X2024750Y975050D02*
X2039250D01*
X2024750Y952950D02*
Y975050D01*
X2039250Y952950D02*
Y975050D01*
X1996750Y952950D02*
X2011250D01*
X1996750Y975050D02*
X2011250D01*
X1996750Y952950D02*
Y975050D01*
X2011250Y952950D02*
Y975050D01*
X2130750Y989050D02*
X2145250D01*
X2130750Y966950D02*
X2145250D01*
Y989050D01*
X2130750Y966950D02*
Y989050D01*
X2171750Y1222950D02*
X2186250D01*
X2171750Y1245050D02*
X2186250D01*
X2171750Y1222950D02*
Y1245050D01*
X2186250Y1222950D02*
Y1245050D01*
X1944050Y1002750D02*
Y1017250D01*
X1921950Y1002750D02*
Y1017250D01*
Y1002750D02*
X1944050D01*
X1921950Y1017250D02*
X1944050D01*
Y975750D02*
Y990250D01*
X1921950Y975750D02*
Y990250D01*
Y975750D02*
X1944050D01*
X1921950Y990250D02*
X1944050D01*
X2139750Y1222950D02*
X2154250D01*
X2139750Y1245050D02*
X2154250D01*
X2139750Y1222950D02*
Y1245050D01*
X2154250Y1222950D02*
Y1245050D01*
X2046750Y1219950D02*
X2061250D01*
X2046750Y1242050D02*
X2061250D01*
X2046750Y1219950D02*
Y1242050D01*
X2061250Y1219950D02*
Y1242050D01*
X2001950Y994750D02*
Y1009250D01*
X2024050Y994750D02*
Y1009250D01*
X2001950D02*
X2024050D01*
X2001950Y994750D02*
X2024050D01*
X2050750Y975050D02*
X2065250D01*
X2050750Y952950D02*
X2065250D01*
Y975050D01*
X2050750Y952950D02*
Y975050D01*
X2018750Y1219950D02*
X2033250D01*
X2018750Y1242050D02*
X2033250D01*
X2018750Y1219950D02*
Y1242050D01*
X2033250Y1219950D02*
Y1242050D01*
X2175750Y1169950D02*
X2190250D01*
X2175750Y1192050D02*
X2190250D01*
X2175750Y1169950D02*
Y1192050D01*
X2190250Y1169950D02*
Y1192050D01*
X2157750Y989050D02*
X2172250D01*
X2157750Y966950D02*
X2172250D01*
Y989050D01*
X2157750Y966950D02*
Y989050D01*
X1906050Y1094750D02*
Y1109250D01*
X1883950Y1094750D02*
Y1109250D01*
Y1094750D02*
X1906050D01*
X1883950Y1109250D02*
X1906050D01*
X1829250Y971450D02*
X1843750D01*
X1829250Y993550D02*
X1843750D01*
X1829250Y971450D02*
Y993550D01*
X1843750Y971450D02*
Y993550D01*
X1829250Y1073550D02*
X1843750D01*
X1829250Y1051450D02*
X1843750D01*
Y1073550D01*
X1829250Y1051450D02*
Y1073550D01*
X2470750Y1389050D02*
X2485250D01*
X2470750Y1366950D02*
X2485250D01*
Y1389050D01*
X2470750Y1366950D02*
Y1389050D01*
X2470750Y1299050D02*
X2485250D01*
X2470750Y1276950D02*
X2485250D01*
Y1299050D01*
X2470750Y1276950D02*
Y1299050D01*
X2468750Y1204050D02*
X2483250D01*
X2468750Y1181950D02*
X2483250D01*
Y1204050D01*
X2468750Y1181950D02*
Y1204050D01*
X2191050Y767750D02*
Y782250D01*
X2168950Y767750D02*
Y782250D01*
Y767750D02*
X2191050D01*
X2168950Y782250D02*
X2191050D01*
X1538650Y751600D02*
Y774400D01*
X1551350Y751600D02*
Y774400D01*
X1538650Y751600D02*
X1551350D01*
X1538650Y774400D02*
X1551350D01*
X2260950Y1290250D02*
X2283050D01*
X2260950Y1275750D02*
X2283050D01*
X2260950D02*
Y1290250D01*
X2283050Y1275750D02*
Y1290250D01*
X2316950Y1275750D02*
X2339050D01*
X2316950Y1290250D02*
X2339050D01*
Y1275750D02*
Y1290250D01*
X2316950Y1275750D02*
Y1290250D01*
X1663600Y1067650D02*
Y1080350D01*
X1686400Y1067650D02*
Y1080350D01*
X1663600D02*
X1686400D01*
X1663600Y1067650D02*
X1686400D01*
X1663600Y1040650D02*
Y1053350D01*
X1686400Y1040650D02*
Y1053350D01*
X1663600D02*
X1686400D01*
X1663600Y1040650D02*
X1686400D01*
X1663600Y1013650D02*
Y1026350D01*
X1686400Y1013650D02*
Y1026350D01*
X1663600D02*
X1686400D01*
X1663600Y1013650D02*
X1686400D01*
X1813800Y808000D02*
X1844200D01*
X1813800Y822000D02*
X1844200D01*
X1813800Y808000D02*
Y822000D01*
X1844200Y808000D02*
Y822000D01*
X1842650Y872600D02*
X1855350D01*
X1842650Y895400D02*
X1855350D01*
X1842650Y872600D02*
Y895400D01*
X1855350Y872600D02*
Y895400D01*
X1859400Y774650D02*
Y787350D01*
X1836600Y774650D02*
Y787350D01*
Y774650D02*
X1859400D01*
X1836600Y787350D02*
X1859400D01*
X2887950Y680750D02*
X2910050D01*
X2887950Y695250D02*
X2910050D01*
Y680750D02*
Y695250D01*
X2887950Y680750D02*
Y695250D01*
X2978250Y707950D02*
Y730050D01*
X2963750Y707950D02*
Y730050D01*
X2978250D01*
X2963750Y707950D02*
X2978250D01*
X2917800Y706400D02*
Y753600D01*
X2880200Y706400D02*
Y753600D01*
Y706400D02*
X2917800D01*
X2880200Y753600D02*
X2917800D01*
X1442150Y1459900D02*
X1454850D01*
X1442150Y1437100D02*
X1454850D01*
Y1459900D01*
X1442150Y1437100D02*
Y1459900D01*
X2820750Y1392000D02*
X2833250D01*
X2820750Y1412000D02*
X2833250D01*
X2820750Y1392000D02*
Y1412000D01*
X2833250Y1392000D02*
Y1412000D01*
X2820650Y1334400D02*
X2833350D01*
X2820650Y1311600D02*
X2833350D01*
Y1334400D01*
X2820650Y1311600D02*
Y1334400D01*
Y1430600D02*
X2833350D01*
X2820650Y1453400D02*
X2833350D01*
X2820650Y1430600D02*
Y1453400D01*
X2833350Y1430600D02*
Y1453400D01*
X2820750Y1374000D02*
X2833250D01*
X2820750Y1354000D02*
X2833250D01*
Y1374000D01*
X2820750Y1354000D02*
Y1374000D01*
X1783900Y1431400D02*
Y1444100D01*
X1761100Y1431400D02*
Y1444100D01*
Y1431400D02*
X1783900D01*
X1761100Y1444100D02*
X1783900D01*
X1784900Y1402150D02*
Y1414850D01*
X1762100Y1402150D02*
Y1414850D01*
Y1402150D02*
X1784900D01*
X1762100Y1414850D02*
X1784900D01*
D55*
X2803810Y1630000D02*
X3109790D01*
X2803810Y630000D02*
X3109790D01*
X3107250Y1171896D02*
Y1630000D01*
Y630000D02*
Y1079976D01*
X3102170Y1614760D02*
X3107250Y1630000D01*
X3112330Y1614760D01*
X3107250Y630000D02*
X3112330Y645240D01*
X3102170D02*
X3107250Y630000D01*
X3000000Y632540D02*
Y1680540D01*
X1400000Y1633810D02*
Y1680540D01*
X2258107Y1678000D02*
X3000000D01*
X1400000D02*
X2166186D01*
X2984760Y1683080D02*
X3000000Y1678000D01*
X2984760Y1672920D02*
X3000000Y1678000D01*
X1400000D02*
X1415240Y1672920D01*
X1400000Y1678000D02*
X1415240Y1683080D01*
X1400000Y1630000D02*
X2800000D01*
Y630000D02*
Y1630000D01*
X1400000Y630000D02*
X2800000D01*
X1400000D02*
Y1630000D01*
X2800000D02*
X3000000D01*
Y630000D02*
Y1630000D01*
X2800000Y630000D02*
X3000000D01*
D56*
X3118931Y1084040D02*
Y1089118D01*
Y1086579D01*
X3103696D01*
X3106235Y1084040D01*
Y1096735D02*
X3103696Y1099275D01*
Y1104353D01*
X3106235Y1106892D01*
X3116392D01*
X3118931Y1104353D01*
Y1099275D01*
X3116392Y1096735D01*
X3106235D01*
Y1111971D02*
X3103696Y1114510D01*
Y1119588D01*
X3106235Y1122127D01*
X3116392D01*
X3118931Y1119588D01*
Y1114510D01*
X3116392Y1111971D01*
X3106235D01*
X3121470Y1129745D02*
X3118931Y1132284D01*
X3116392D01*
Y1129745D01*
X3118931D01*
Y1132284D01*
X3121470Y1129745D01*
X3124009Y1127206D01*
X3106235Y1142441D02*
X3103696Y1144980D01*
Y1150058D01*
X3106235Y1152597D01*
X3116392D01*
X3118931Y1150058D01*
Y1144980D01*
X3116392Y1142441D01*
X3106235D01*
Y1157676D02*
X3103696Y1160215D01*
Y1165293D01*
X3106235Y1167832D01*
X3116392D01*
X3118931Y1165293D01*
Y1160215D01*
X3116392Y1157676D01*
X3106235D01*
X2170250Y1677750D02*
X2175328D01*
X2172789D01*
Y1692985D01*
X2170250Y1690446D01*
X2193103Y1692985D02*
X2188024Y1690446D01*
X2182946Y1685367D01*
Y1680289D01*
X2185485Y1677750D01*
X2190563D01*
X2193103Y1680289D01*
Y1682828D01*
X2190563Y1685367D01*
X2182946D01*
X2198181Y1690446D02*
X2200720Y1692985D01*
X2205798D01*
X2208338Y1690446D01*
Y1680289D01*
X2205798Y1677750D01*
X2200720D01*
X2198181Y1680289D01*
Y1690446D01*
X2215955Y1675211D02*
X2218494Y1677750D01*
Y1680289D01*
X2215955D01*
Y1677750D01*
X2218494D01*
X2215955Y1675211D01*
X2213416Y1672672D01*
X2228651Y1690446D02*
X2231190Y1692985D01*
X2236269D01*
X2238808Y1690446D01*
Y1680289D01*
X2236269Y1677750D01*
X2231190D01*
X2228651Y1680289D01*
Y1690446D01*
X2243886D02*
X2246425Y1692985D01*
X2251504D01*
X2254043Y1690446D01*
Y1680289D01*
X2251504Y1677750D01*
X2246425D01*
X2243886Y1680289D01*
Y1690446D01*
D57*
X1728409Y665000D02*
D03*
D58*
X1585000Y847561D02*
D03*
D59*
X1497500Y1278750D02*
D03*
Y1122750D02*
D03*
X2983000Y1159000D02*
D03*
X2827000D02*
D03*
D60*
X1468050Y1143600D02*
D03*
Y1257900D02*
D03*
X2847850Y1129550D02*
D03*
X2962150D02*
D03*
D61*
X1531550Y1219800D02*
D03*
Y1194400D02*
D03*
X1556950Y1207100D02*
D03*
Y1181700D02*
D03*
X1531550Y1169000D02*
D03*
X1556950Y1232500D02*
D03*
Y1156300D02*
D03*
X2949450Y1218450D02*
D03*
X2873250D02*
D03*
X2936750Y1193050D02*
D03*
X2924050Y1218450D02*
D03*
X2898650D02*
D03*
X2911350Y1193050D02*
D03*
X2885950D02*
D03*
D62*
X1531550Y1245200D02*
D03*
D63*
X2860550Y1193050D02*
D03*
D64*
X1719750Y1318000D02*
D03*
Y1338000D02*
D03*
Y1358000D02*
D03*
Y1378000D02*
D03*
Y1398000D02*
D03*
Y1418000D02*
D03*
Y1438000D02*
D03*
Y1458000D02*
D03*
Y1478000D02*
D03*
Y1498000D02*
D03*
X1499750Y1318000D02*
D03*
Y1338000D02*
D03*
Y1358000D02*
D03*
Y1378000D02*
D03*
Y1398000D02*
D03*
Y1418000D02*
D03*
Y1438000D02*
D03*
Y1458000D02*
D03*
Y1478000D02*
D03*
X1689150Y1345750D02*
D03*
Y1370750D02*
D03*
Y1395750D02*
D03*
Y1420750D02*
D03*
Y1445750D02*
D03*
Y1470750D02*
D03*
Y1495750D02*
D03*
Y1520750D02*
D03*
X1526250Y1345750D02*
D03*
Y1370750D02*
D03*
Y1395750D02*
D03*
Y1420750D02*
D03*
Y1445750D02*
D03*
Y1470750D02*
D03*
Y1495750D02*
D03*
X2878000Y1565000D02*
D03*
X2922000D02*
D03*
X1934500Y1128500D02*
D03*
X1933500Y1160500D02*
D03*
X1470000Y1008000D02*
D03*
Y1052000D02*
D03*
X1876500Y1047000D02*
D03*
Y998000D02*
D03*
X2251000Y1013000D02*
D03*
X2276400D02*
D03*
X2301800D02*
D03*
Y1083000D02*
D03*
X2276400D02*
D03*
X2251000D02*
D03*
X1536110Y750300D02*
D03*
Y775700D02*
D03*
X1859000Y702000D02*
D03*
X1903000D02*
D03*
X1662300Y1065110D02*
D03*
X1687700D02*
D03*
X1662300Y1038110D02*
D03*
X1687700D02*
D03*
X1662300Y1011110D02*
D03*
X1687700D02*
D03*
X2860000Y753000D02*
D03*
Y727600D02*
D03*
Y702200D02*
D03*
X2930000D02*
D03*
Y727600D02*
D03*
Y753000D02*
D03*
D65*
X1499750Y1498000D02*
D03*
X1526250Y1520750D02*
D03*
D66*
X1983000Y851000D02*
D03*
X1918000D02*
D03*
X2514000Y660000D02*
D03*
X2488600D02*
D03*
X2463200D02*
D03*
X2412400D02*
D03*
X2437800D02*
D03*
X2548000Y928000D02*
D03*
D67*
X2980000Y830000D02*
D03*
X2965000D02*
D03*
X2950000D02*
D03*
X2935000D02*
D03*
X2920000D02*
D03*
X2905000D02*
D03*
X2890000D02*
D03*
X2875000D02*
D03*
X2860000D02*
D03*
X2845000D02*
D03*
X2830000D02*
D03*
X2815000D02*
D03*
X2800000Y755000D02*
D03*
Y770000D02*
D03*
Y800000D02*
D03*
Y785000D02*
D03*
Y845000D02*
D03*
Y860000D02*
D03*
Y830000D02*
D03*
Y815000D02*
D03*
Y695000D02*
D03*
Y710000D02*
D03*
Y740000D02*
D03*
Y725000D02*
D03*
Y665000D02*
D03*
Y680000D02*
D03*
Y650000D02*
D03*
X2800000Y875000D02*
D03*
Y890000D02*
D03*
Y920000D02*
D03*
Y905000D02*
D03*
Y935000D02*
D03*
Y950000D02*
D03*
Y980000D02*
D03*
Y965000D02*
D03*
Y995000D02*
D03*
Y1010000D02*
D03*
Y1040000D02*
D03*
Y1025000D02*
D03*
Y1055000D02*
D03*
Y1070000D02*
D03*
Y1100000D02*
D03*
Y1085000D02*
D03*
Y1115000D02*
D03*
Y1130000D02*
D03*
Y1160000D02*
D03*
Y1145000D02*
D03*
Y1175000D02*
D03*
Y1190000D02*
D03*
Y1220000D02*
D03*
Y1205000D02*
D03*
Y1235000D02*
D03*
Y1250000D02*
D03*
Y1280000D02*
D03*
Y1265000D02*
D03*
Y1295000D02*
D03*
Y1310000D02*
D03*
Y1340000D02*
D03*
Y1325000D02*
D03*
Y1355000D02*
D03*
Y1370000D02*
D03*
Y1400000D02*
D03*
Y1385000D02*
D03*
Y1415000D02*
D03*
Y1430000D02*
D03*
Y1460000D02*
D03*
Y1445000D02*
D03*
Y1475000D02*
D03*
Y1490000D02*
D03*
Y1520000D02*
D03*
Y1505000D02*
D03*
Y1536000D02*
D03*
Y1551000D02*
D03*
Y1581000D02*
D03*
Y1566000D02*
D03*
Y1595000D02*
D03*
Y1610000D02*
D03*
X2815000Y1055000D02*
D03*
X2830000D02*
D03*
X2845000D02*
D03*
X2860000D02*
D03*
X2875000D02*
D03*
X2890000D02*
D03*
X2905000D02*
D03*
X2920000D02*
D03*
X2935000D02*
D03*
X2950000D02*
D03*
X2965000D02*
D03*
X2980000D02*
D03*
X2102000Y1001000D02*
D03*
X2084000Y899000D02*
D03*
X2068000Y855000D02*
D03*
X2032000Y849000D02*
D03*
X1713064Y935500D02*
D03*
X1590935Y1048250D02*
D03*
X1567625Y968375D02*
D03*
X2105000Y1338000D02*
D03*
X2047000Y1055000D02*
D03*
X2070999Y1251001D02*
D03*
X2088000Y1342000D02*
D03*
X2037000Y1127000D02*
D03*
X2075000Y1124000D02*
D03*
X2037000Y1099000D02*
D03*
X2077000D02*
D03*
X2109000Y1105000D02*
D03*
X2218000Y974000D02*
D03*
X2122000Y1094000D02*
D03*
X2232000Y945000D02*
D03*
X2135000Y1089000D02*
D03*
X2244000Y900000D02*
D03*
X2207000Y957000D02*
D03*
X2106000Y1154000D02*
D03*
X2196998Y927001D02*
D03*
X2131000Y1144000D02*
D03*
X2215000Y1100000D02*
D03*
X2252000Y1102000D02*
D03*
X2220000Y1114000D02*
D03*
X2250000Y1119000D02*
D03*
X2252000Y1135000D02*
D03*
X2234000Y1187000D02*
D03*
X2267000Y1102000D02*
D03*
X2245000Y1200000D02*
D03*
X2281000Y1112000D02*
D03*
X2257000Y1209000D02*
D03*
X2297000Y1123000D02*
D03*
X2267000Y1223000D02*
D03*
X2310000Y1133000D02*
D03*
X1654000Y715000D02*
D03*
X1624000Y718000D02*
D03*
X1768999Y943001D02*
D03*
X2271000Y801000D02*
D03*
X2299000Y1286000D02*
D03*
X2152000Y949000D02*
D03*
X2028000Y1049000D02*
D03*
X1984000Y1002000D02*
D03*
X1969000Y952000D02*
D03*
X2021000Y1115000D02*
D03*
X2159000Y1194000D02*
D03*
X2040250Y1209331D02*
D03*
X2149000Y805000D02*
D03*
X2229000Y773000D02*
D03*
X2449000Y1347000D02*
D03*
X2451000Y1259000D02*
D03*
X2429500Y1182500D02*
D03*
X2104000Y946000D02*
D03*
X2018999Y1014001D02*
D03*
X1983250Y1079000D02*
D03*
X2020999Y1129001D02*
D03*
Y1206001D02*
D03*
X2139000Y1160000D02*
D03*
X2287998Y1411000D02*
D03*
X2297000Y1367000D02*
D03*
X2299000Y1430000D02*
D03*
X2249000Y1416000D02*
D03*
X2254000Y1450000D02*
D03*
X2309000D02*
D03*
X2243000Y1436000D02*
D03*
X2316000Y1428000D02*
D03*
X2236000Y1337000D02*
D03*
X2201000Y1297000D02*
D03*
X2337000Y1392000D02*
D03*
X2376000Y1430000D02*
D03*
X2312000Y1346000D02*
D03*
X2269000Y1345000D02*
D03*
X2239000Y1352000D02*
D03*
X2178000Y1399000D02*
D03*
X2324300Y1359700D02*
D03*
X2903997Y1375000D02*
D03*
X2948500Y1265500D02*
D03*
X2865000Y1375000D02*
D03*
X2891000Y1386000D02*
D03*
X2046000Y941000D02*
D03*
X2196000Y1085000D02*
D03*
X2219998Y1151001D02*
D03*
X2187669Y1139750D02*
D03*
X2287000Y1238000D02*
D03*
X2305000D02*
D03*
X2310000Y1470000D02*
D03*
X2310000Y1486000D02*
D03*
X1780999Y1076001D02*
D03*
X1816000Y1076000D02*
D03*
X2429000Y1088000D02*
D03*
X2046000Y803000D02*
D03*
X1727000Y974000D02*
D03*
X1822000Y912000D02*
D03*
X2148000Y775000D02*
D03*
X2183998Y1203001D02*
D03*
X2026000Y1273000D02*
D03*
X1836500Y1020500D02*
D03*
X1729500Y1261750D02*
D03*
X1739400Y1236850D02*
D03*
X2345500Y817500D02*
D03*
X2427000Y799000D02*
D03*
X2900500Y1504500D02*
D03*
X2959997Y1501000D02*
D03*
X2959500Y1459500D02*
D03*
X2948500Y1286500D02*
D03*
X2970000Y1396000D02*
D03*
X2874600Y1337600D02*
D03*
X2896750Y1436250D02*
D03*
X2922997Y1465000D02*
D03*
X1763500Y1182250D02*
D03*
X1618250Y1146500D02*
D03*
X1744517Y1146726D02*
D03*
X2038750Y1161000D02*
D03*
X1887250Y1259750D02*
D03*
X1788269Y1225230D02*
D03*
X1759250Y1303750D02*
D03*
X1668500Y1299000D02*
D03*
X1633500Y1323000D02*
D03*
X1468250Y1441250D02*
D03*
X1816250Y1344500D02*
D03*
X1727250Y1294750D02*
D03*
X2041500Y1575000D02*
D03*
X2055750Y1586500D02*
D03*
X1703750Y1330500D02*
D03*
X1675764Y1481993D02*
D03*
X1744500Y1408500D02*
D03*
X1575250Y1474000D02*
D03*
X1633500Y1416750D02*
D03*
X1657250Y1390250D02*
D03*
X1703750Y1294500D02*
D03*
X1748500Y1276500D02*
D03*
X1927776Y1313235D02*
D03*
X1924250Y1397000D02*
D03*
X1946750Y1267000D02*
D03*
X1898250Y1409250D02*
D03*
X2051750Y1480000D02*
D03*
X1940500Y1387000D02*
D03*
X1846750Y1344500D02*
D03*
X1681000Y732500D02*
D03*
X1672000Y722000D02*
D03*
X1690000D02*
D03*
X1858750Y1102000D02*
D03*
X1447800Y711200D02*
D03*
X1422400Y762000D02*
D03*
X1447800Y812800D02*
D03*
X1422400Y863600D02*
D03*
Y965200D02*
D03*
X1447800Y1117600D02*
D03*
X1422400Y1168400D02*
D03*
X1447800Y1320800D02*
D03*
X1422400Y1473200D02*
D03*
X1447800Y1524000D02*
D03*
X1473200Y660400D02*
D03*
X1498600Y711200D02*
D03*
Y812800D02*
D03*
Y914400D02*
D03*
X1473200Y1371600D02*
D03*
Y1473200D02*
D03*
X1498600Y1524000D02*
D03*
X1473200Y1574800D02*
D03*
X1524000Y660400D02*
D03*
Y863600D02*
D03*
Y965200D02*
D03*
X1574800Y762000D02*
D03*
X1600200Y914400D02*
D03*
Y1016000D02*
D03*
Y1524000D02*
D03*
X1574800Y1574800D02*
D03*
X1651000Y914400D02*
D03*
X1625600Y1574800D02*
D03*
X1701800Y812800D02*
D03*
X1676400Y863600D02*
D03*
Y1574800D02*
D03*
X1727200Y1066800D02*
D03*
Y1574800D02*
D03*
X1803400Y711200D02*
D03*
Y812800D02*
D03*
X1778000Y1168400D02*
D03*
Y1473200D02*
D03*
Y1574800D02*
D03*
X1828800Y762000D02*
D03*
X1854200Y812800D02*
D03*
X1828800Y863600D02*
D03*
X1854200Y1016000D02*
D03*
Y1117600D02*
D03*
X1828800Y1371600D02*
D03*
Y1473200D02*
D03*
Y1574800D02*
D03*
X1879600Y660400D02*
D03*
Y762000D02*
D03*
X1905000Y812800D02*
D03*
X1879600Y1371600D02*
D03*
X1905000Y1524000D02*
D03*
X1879600Y1574800D02*
D03*
X1955800Y711200D02*
D03*
X1930400Y762000D02*
D03*
X1955800Y812800D02*
D03*
X1930400Y863600D02*
D03*
Y1270000D02*
D03*
Y1473200D02*
D03*
Y1574800D02*
D03*
X1981200Y660400D02*
D03*
X2006600Y711200D02*
D03*
X1981200Y762000D02*
D03*
X2006600Y812800D02*
D03*
X1981200Y1270000D02*
D03*
X2006600Y1320800D02*
D03*
X1981200Y1371600D02*
D03*
Y1473200D02*
D03*
X2006600Y1524000D02*
D03*
X2032000Y660400D02*
D03*
Y863600D02*
D03*
X2057400Y1320800D02*
D03*
X2032000Y1371600D02*
D03*
X2082800D02*
D03*
X2108200Y1524000D02*
D03*
X2082800Y1574800D02*
D03*
X2159000Y711200D02*
D03*
X2133600Y863600D02*
D03*
X2159000Y1320800D02*
D03*
Y1524000D02*
D03*
X2133600Y1574800D02*
D03*
X2209800Y711200D02*
D03*
X2184400Y1371600D02*
D03*
X2209800Y1422400D02*
D03*
X2184400Y1574800D02*
D03*
X2260600Y812800D02*
D03*
X2235200Y1066800D02*
D03*
Y1371600D02*
D03*
X2311400Y812800D02*
D03*
X2286000Y863600D02*
D03*
X2311400Y914400D02*
D03*
X2286000Y965200D02*
D03*
Y1574800D02*
D03*
X2362200Y914400D02*
D03*
X2336800Y965200D02*
D03*
X2362200Y1016000D02*
D03*
X2336800Y1473200D02*
D03*
X2387600Y762000D02*
D03*
Y965200D02*
D03*
X2413000Y1016000D02*
D03*
X2387600Y1473200D02*
D03*
Y1574800D02*
D03*
X2438400Y762000D02*
D03*
X2463800Y812800D02*
D03*
X2438400Y863600D02*
D03*
X2463800Y1016000D02*
D03*
Y1320800D02*
D03*
Y1422400D02*
D03*
X2438400Y1473200D02*
D03*
X2463800Y1524000D02*
D03*
X2438400Y1574800D02*
D03*
X2514600Y711200D02*
D03*
X2489200Y762000D02*
D03*
Y863600D02*
D03*
X2514600Y1016000D02*
D03*
Y1422400D02*
D03*
X2489200Y1473200D02*
D03*
X2514600Y1524000D02*
D03*
X2489200Y1574800D02*
D03*
X2540000Y660400D02*
D03*
X2565400Y711200D02*
D03*
X2540000Y762000D02*
D03*
Y965200D02*
D03*
X2565400Y1016000D02*
D03*
X2540000Y1066800D02*
D03*
Y1168400D02*
D03*
Y1270000D02*
D03*
Y1371600D02*
D03*
X2565400Y1422400D02*
D03*
X2540000Y1473200D02*
D03*
X2565400Y1524000D02*
D03*
X2540000Y1574800D02*
D03*
X2590800Y660400D02*
D03*
X2616200Y711200D02*
D03*
X2590800Y762000D02*
D03*
X2616200Y812800D02*
D03*
X2590800Y863600D02*
D03*
X2616200Y914400D02*
D03*
X2590800Y965200D02*
D03*
X2616200Y1016000D02*
D03*
X2590800Y1066800D02*
D03*
Y1371600D02*
D03*
X2616200Y1422400D02*
D03*
X2590800Y1473200D02*
D03*
X2616200Y1524000D02*
D03*
X2590800Y1574800D02*
D03*
X2667000Y711200D02*
D03*
X2641600Y762000D02*
D03*
X2667000Y812800D02*
D03*
X2641600Y863600D02*
D03*
X2667000Y914400D02*
D03*
X2641600Y965200D02*
D03*
X2667000Y1016000D02*
D03*
X2641600Y1066800D02*
D03*
X2667000Y1117600D02*
D03*
Y1219200D02*
D03*
Y1422400D02*
D03*
X2641600Y1473200D02*
D03*
X2667000Y1524000D02*
D03*
X2692400Y660400D02*
D03*
X2717800Y711200D02*
D03*
X2692400Y762000D02*
D03*
X2717800Y812800D02*
D03*
X2692400Y863600D02*
D03*
X2717800Y914400D02*
D03*
X2692400Y965200D02*
D03*
X2717800Y1016000D02*
D03*
X2692400Y1066800D02*
D03*
X2717800Y1117600D02*
D03*
X2692400Y1168400D02*
D03*
X2717800Y1219200D02*
D03*
Y1422400D02*
D03*
X2692400Y1473200D02*
D03*
X2717800Y1524000D02*
D03*
X2692400Y1574800D02*
D03*
X2768600Y711200D02*
D03*
X2743200Y762000D02*
D03*
X2768600Y812800D02*
D03*
X2743200Y863600D02*
D03*
X2768600Y914400D02*
D03*
X2743200Y965200D02*
D03*
X2768600Y1016000D02*
D03*
X2743200Y1066800D02*
D03*
X2768600Y1117600D02*
D03*
X2743200Y1168400D02*
D03*
X2768600Y1219200D02*
D03*
X2743200Y1270000D02*
D03*
X2768600Y1320800D02*
D03*
X2743200Y1371600D02*
D03*
X2768600Y1422400D02*
D03*
X2743200Y1473200D02*
D03*
X2768600Y1524000D02*
D03*
D68*
X1441000Y1585000D02*
D03*
X2759000D02*
D03*
Y675000D02*
D03*
X1441000D02*
D03*
X2659000Y1585000D02*
D03*
Y675000D02*
D03*
D69*
X1551900Y1603400D02*
D03*
X1501100D02*
D03*
Y1552600D02*
D03*
X1551900D02*
D03*
X1795150Y1555150D02*
D03*
Y1504350D02*
D03*
X1744350D02*
D03*
Y1555150D02*
D03*
D70*
X1526500Y1578000D02*
D03*
X1769750Y1529750D02*
D03*
D71*
X2427000Y1560000D02*
D03*
X1451000Y920000D02*
D03*
Y869200D02*
D03*
X2583000Y1404800D02*
D03*
X2506800D02*
D03*
Y1354000D02*
D03*
X2506970Y1261070D02*
D03*
Y1311870D02*
D03*
X2583170D02*
D03*
X2582170Y1218620D02*
D03*
X2505970D02*
D03*
Y1167820D02*
D03*
X2238000Y653800D02*
D03*
X2187200D02*
D03*
Y730000D02*
D03*
X2065200D02*
D03*
Y653800D02*
D03*
X2116000D02*
D03*
D72*
X2147000Y1560000D02*
D03*
D73*
X2387000Y660000D02*
D03*
D74*
X2583000Y1354000D02*
D03*
X2583170Y1261070D02*
D03*
X2582170Y1167820D02*
D03*
D75*
X2238000Y730000D02*
D03*
X2116000D02*
D03*
M02*
