M48
;Layer_Color=9474304
;FILE_FORMAT=4:4
METRIC,LZ
;TYPE=PLATED
T1F00S00C0.5000
T2F00S00C0.9000
T3F00S00C1.0000
T4F00S00C1.1000
T5F00S00C1.3000
T6F00S00C1.5000
T7F00S00C1.7000
T8F00S00C1.8000
T9F00S00C3.2000
%
T01
X023876Y00762
X024384
X024892
X0254
X025908
X026416
X026924
X027432
X027686Y007112
X027178
X02667
X026162
X025654
X025146
X0254Y006604
X025908
X026924
X022098Y007112
X02159
X02148Y00775
X02229Y00773
X020066Y007112
X02032Y006604
X019812
X019558Y007112
X019812Y00762
X019304
X018796
X018288
X018034Y007112
X0169Y00722
X01672
X01681Y007325
X01654Y00715
X01624Y00718
X018796Y006604
X01524
X014732
X014986Y007112
X014478
X014224Y00762
X015748
X014986Y008128
X014478
X014224Y008636
X01524
X014986Y009144
X01524Y009652
X01567625Y00968375
X014224Y009652
X014478Y011176
X014224Y011684
X0161825Y011465
X01590935Y0104825
X016002Y01016
Y009144
X01651
X016764Y008636
X017018Y008128
X018034
X018542
X01905
X019558
X019304Y008636
X018288
X01822Y00912
X01768999Y00943001
X01713064Y009355
X01727Y00974
X017272Y010668
X01780999Y01076001
X01816Y01076
X0185875Y01102
X018542Y011176
Y01016
X018365Y010205
X01984Y01002
X01969Y00952
X0198325Y01079
X01778Y011684
X017635Y0118225
X01744517Y01146726
X02020999Y01129001
X02021Y01115
X02037Y01127
Y01099
X02077
X02075Y01124
X02109Y01105
X02122Y01094
X02135Y01089
X02131Y01144
X02139Y0116
X02106Y01154
X0203875Y01161
X02047Y01055
X02028Y01049
X02018999Y01014001
X02102Y01001
X02104Y00946
X02152Y00949
X02207Y00957
X02218Y00974
X02232Y00945
X02196998Y00927001
X02244Y009
X02286Y008636
X023114Y009144
X023622
X023368Y009652
X02286
X023622Y01016
X0231Y01133
X02297Y01123
X02281Y01112
X02267Y01102
X02252
X0225Y01119
X02252Y01135
X02219998Y01151001
X0222Y01114
X02215Y011
X02196Y01085
X022352Y010668
X02187669Y0113975
X02234Y01187
X022606Y008128
X02271Y00801
X023114Y008128
X023455Y008175
X02149Y00805
X021336Y008636
X02068Y00855
X02032Y00849
Y008636
X02046Y00803
X020066Y008128
X02084Y00899
X02046Y00941
X023876Y009652
X02413Y01016
X024638
X025146
X025654
X026162
X02667
X027178
X027686
X027432Y010668
X026924
X026416
X025908
X0254
Y011684
X024295Y011825
X02429Y01088
X0254Y009652
X025908
X026416
X026924
X027432
X027686Y009144
X027178
X02667
X026162
X026416Y008636
X026924
X027432
X027686Y008128
X027178
X02667
X026162
X025908Y008636
X024892
X024384
X02427Y00799
X024638Y008128
X02667Y011176
X027178
X027686
X027432Y011684
X026924
X028746Y013376
X02865Y01375
X02891Y01386
X02903997Y01375
X0289675Y0143625
X02922997Y01465
X029595Y014595
X02959997Y01501
X029005Y015045
X0297Y01396
X029485Y012865
Y012655
X027432Y0127
X027686Y013208
X027432Y013716
X027686Y014224
X027178
X02667
X026162
X025654
X025146
X024638
X024892Y014732
X0254
X025908
X026416
X026924
X027432
X027686Y01524
X027178
X02667
X026162
X025654
X025146
X024638
X024892Y015748
X0254
X025908
X026924
X024384
X023876
Y014732
X024384
X02449Y01347
X024638Y013208
X02451Y01259
X0254Y0127
Y013716
X025908
X02667Y012192
X027178
X027686
X02305Y01238
X02287
X02267Y01223
X02257Y01209
X02245Y012
X02183998Y01203001
X02159Y01194
Y013208
X02201Y01297
X02236Y01337
X02239Y01352
X022352Y013716
X021844
X02178Y01399
X022098Y014224
X02249Y01416
X02243Y01436
X02254Y0145
X02309
X0231Y0147
X0231Y01486
X023368Y014732
X02316Y01428
X02299Y0143
X02287998Y01411
X02297Y01367
X023243Y013597
X02312Y01346
X02269Y01345
X02299Y01286
X02337Y01392
X02376Y0143
X02286Y015748
X021844
X021336
X020828
X0205575Y015865
X020415Y01575
X020066Y01524
X0205175Y0148
X021082Y01524
X02159
X020828Y013716
X02088Y01342
X02105Y01338
X020574Y013208
X020066
X02026Y01273
X02070999Y01251001
X0204025Y01209331
X02020999Y01206001
X02032Y013716
X019812
X019405Y01387
X0192425Y01397
X0189825Y0140925
X018796Y013716
X018288
X0181625Y013445
X0184675Y013445
X01927776Y01313235
X019304Y0127
X0194675Y01267
X019812Y0127
X0188725Y0125975
X01788269Y0122523
X017394Y0123685
X017295Y0126175
X017485Y012765
X0175925Y0130375
X0172725Y0129475
X0170375Y012945
Y013305
X016685Y01299
X016335Y01323
X0165725Y0139025
X016335Y0141675
X01675764Y01481993
X016764Y015748
X017272
X01778
X018288
X018796
X019304
X01905Y01524
X019304Y014732
X019812
X018288
X01778
X017445Y014085
X016002Y01524
X016256Y015748
X015748
X0157525Y01474
X014732Y014732
X0146825Y0144125
X014732Y013716
X014478Y013208
X014224Y014732
X014478Y01524
X014986
X014732Y015748
T02
X0286Y007022
Y007276
Y00753
X0293
Y007276
Y007022
X0155695Y011563
Y011817
X0153155Y01169
X019335Y011605
X019345Y011285
X018765Y01047
Y00998
X02251Y01013
X022764
X023018
Y01083
X022764
X02251
X0286055Y0119305
X0288595
X0291135
X0293675
X0294945Y0121845
X0292405
X0289865
X0287325
X0171975Y01318
Y01338
Y01358
Y01378
Y01398
Y01418
Y01438
Y01458
Y01478
Y01498
X0168915Y0149575
Y0152075
Y0147075
Y0144575
Y0142075
Y0139575
Y0137075
Y0134575
X0152625
Y0137075
Y0139575
Y0142075
Y0144575
Y0147075
Y0149575
Y0152075
X0149975Y01498
Y01478
Y01458
Y01438
Y01418
Y01398
Y01378
Y01358
Y01338
Y01318
X0153155Y012452
Y012198
Y011944
X0155695Y012071
Y012325
T03
X028Y0065
Y00665
Y0068
Y00695
Y0071
Y00725
Y0074
Y00755
Y0077
Y00785
X02514Y0066
X024886
X024632
X024378
X024124
X02387
X01903Y00702
X01859
X0153611Y007503
Y007757
X0147Y01008
Y01052
X016623Y0106511
X016877
Y0103811
X016623
Y0101111
X016877
X01918Y00851
X01983
X02548Y00928
X028Y00935
Y0092
Y00905
Y0089
Y00875
X028Y0086
Y00845
Y0083
X02815
X0283
X02845
X0286
X02875
X0289
X02905
X0292
X02935
X0295
X02965
X0298
X028Y00815
Y008
X028Y0095
Y00965
Y0098
Y00995
Y0101
Y01025
Y0104
Y01055
Y0107
Y01085
Y011
Y01115
Y0113
Y01145
Y0116
Y01175
Y0119
X02815Y01055
X0283
X02845
X0286
X02875
X0289
X02905
X0292
X02935
X0295
X02965
X0298
X028Y01205
Y0122
Y01235
Y0125
Y01265
Y0128
Y01295
Y0131
Y01325
Y0134
Y01355
Y0137
Y01385
Y014
Y01415
Y0143
Y01445
Y0146
Y01475
Y0149
Y01505
Y0152
Y01536
Y01551
Y01566
Y01581
X02878Y01565
X02922
X028Y01595
Y0161
T04
X020652Y006538
X02116
X021872
X02238
Y0073
X021872
X02116
X020652
X0250597Y0116782
X0258217
Y0121862
X0258317Y0126107
Y0131187
X02583Y01354
Y014048
X025068
Y01354
X0250697Y0131187
Y0126107
X0250597Y0121862
T05
X01451Y008692
Y0092
X02427Y0156
X02147
T06
X0176975Y0152975
X015265Y01578
T07
X014975Y0112275
X02827Y01159
X02983
X014975Y0127875
T08
X0174435Y0150435
Y0155515
X0179515
Y0150435
X015519Y015526
X015011
Y016034
X015519
T09
X02659Y00675
X02759
X01441
X0146805Y011436
X0284785Y0112955
X0296215
X02759Y01585
X02659
X01441
X0146805Y012579
M30
