G04 Layer_Color=32768*
%FSLAX44Y44*%
%MOMM*%
G71*
G01*
G75*
%ADD54C,0.1000*%
%ADD55C,0.2540*%
%ADD56C,0.1524*%
%ADD57R,3.5000X0.8877*%
%ADD58R,0.9819X4.6000*%
%ADD132C,0.0500*%
D54*
X1773500Y1403500D02*
Y1413500D01*
X1768500Y1408500D02*
X1778500D01*
X1772500Y1432750D02*
Y1442750D01*
X1767500Y1437750D02*
X1777500D01*
X2822000Y1364000D02*
X2832000D01*
X2827000Y1359000D02*
Y1369000D01*
X2822000Y1442000D02*
X2832000D01*
X2827000Y1437000D02*
Y1447000D01*
X2822000Y1323000D02*
X2832000D01*
X2827000Y1318000D02*
Y1328000D01*
X2822000Y1402000D02*
X2832000D01*
X2827000Y1397000D02*
Y1407000D01*
X1443500Y1448500D02*
X1453500D01*
X1448500Y1443500D02*
Y1453500D01*
X2899000Y725000D02*
Y735000D01*
X2894000Y730000D02*
X2904000D01*
X2971000Y714000D02*
Y724000D01*
X2966000Y719000D02*
X2976000D01*
X2894000Y688000D02*
X2904000D01*
X2899000Y683000D02*
Y693000D01*
X1848000Y776000D02*
Y786000D01*
X1843000Y781000D02*
X1853000D01*
X1844000Y884000D02*
X1854000D01*
X1849000Y879000D02*
Y889000D01*
X1824000Y815000D02*
X1834000D01*
X1829000Y810000D02*
Y820000D01*
X1675000Y1015000D02*
Y1025000D01*
X1670000Y1020000D02*
X1680000D01*
X1675000Y1042000D02*
Y1052000D01*
X1670000Y1047000D02*
X1680000D01*
X1675000Y1069000D02*
Y1079000D01*
X1670000Y1074000D02*
X1680000D01*
X2323000Y1283000D02*
X2333000D01*
X2328000Y1278000D02*
Y1288000D01*
X2267000Y1283000D02*
X2277000D01*
X2272000Y1278000D02*
Y1288000D01*
X1545000Y758000D02*
Y768000D01*
X1540000Y763000D02*
X1550000D01*
X2180000Y770000D02*
Y780000D01*
X2175000Y775000D02*
X2185000D01*
X2471000Y1193000D02*
X2481000D01*
X2476000Y1188000D02*
Y1198000D01*
X2473000Y1288000D02*
X2483000D01*
X2478000Y1283000D02*
Y1293000D01*
X2473000Y1378000D02*
X2483000D01*
X2478000Y1373000D02*
Y1383000D01*
X1831500Y1062500D02*
X1841500D01*
X1836500Y1057500D02*
Y1067500D01*
X1831500Y982500D02*
X1841500D01*
X1836500Y977500D02*
Y987500D01*
X1895000Y1097000D02*
Y1107000D01*
X1890000Y1102000D02*
X1900000D01*
X2160000Y978000D02*
X2170000D01*
X2165000Y973000D02*
Y983000D01*
X2178000Y1181000D02*
X2188000D01*
X2183000Y1176000D02*
Y1186000D01*
X2021000Y1231000D02*
X2031000D01*
X2026000Y1226000D02*
Y1236000D01*
X2053000Y964000D02*
X2063000D01*
X2058000Y959000D02*
Y969000D01*
X2013000Y997000D02*
Y1007000D01*
X2008000Y1002000D02*
X2018000D01*
X2049000Y1231000D02*
X2059000D01*
X2054000Y1226000D02*
Y1236000D01*
X2142000Y1234000D02*
X2152000D01*
X2147000Y1229000D02*
Y1239000D01*
X1933000Y978000D02*
Y988000D01*
X1928000Y983000D02*
X1938000D01*
X1933000Y1005000D02*
Y1015000D01*
X1928000Y1010000D02*
X1938000D01*
X2174000Y1234000D02*
X2184000D01*
X2179000Y1229000D02*
Y1239000D01*
X2133000Y978000D02*
X2143000D01*
X2138000Y973000D02*
Y983000D01*
X1999000Y964000D02*
X2009000D01*
X2004000Y959000D02*
Y969000D01*
X2027000Y964000D02*
X2037000D01*
X2032000Y959000D02*
Y969000D01*
X1940000Y1215000D02*
Y1225000D01*
X1935000Y1220000D02*
X1945000D01*
X1940000Y1182000D02*
Y1192000D01*
X1935000Y1187000D02*
X1945000D01*
X1940000Y1097000D02*
Y1107000D01*
X1935000Y1102000D02*
X1945000D01*
X2359000Y1058000D02*
X2369000D01*
X2364000Y1053000D02*
Y1063000D01*
X2389000Y1058000D02*
X2399000D01*
X2394000Y1053000D02*
Y1063000D01*
X2447000Y1058000D02*
X2457000D01*
X2452000Y1053000D02*
Y1063000D01*
X2418000Y1058000D02*
X2428000D01*
X2423000Y1053000D02*
Y1063000D01*
X1585000Y814000D02*
Y824000D01*
X1580000Y819000D02*
X1590000D01*
X1760000Y660000D02*
Y670000D01*
X1755000Y665000D02*
X1765000D01*
X1633000Y691000D02*
X1643000D01*
X1638000Y686000D02*
Y696000D01*
X1606000Y691000D02*
X1616000D01*
X1611000Y686000D02*
Y696000D01*
X1614000Y943000D02*
X1624000D01*
X1619000Y938000D02*
Y948000D01*
X1642000Y943000D02*
X1652000D01*
X1647000Y938000D02*
Y948000D01*
X1794000Y864000D02*
Y874000D01*
X1789000Y869000D02*
X1799000D01*
X1794000Y893000D02*
Y903000D01*
X1789000Y898000D02*
X1799000D01*
X1794000Y922000D02*
Y932000D01*
X1789000Y927000D02*
X1799000D01*
X2699000Y1269000D02*
Y1279000D01*
X2694000Y1274000D02*
X2704000D01*
X2694000Y1308000D02*
X2704000D01*
X2699000Y1303000D02*
Y1313000D01*
X2700000Y1335000D02*
Y1345000D01*
X2695000Y1340000D02*
X2705000D01*
X2696000Y1372000D02*
X2706000D01*
X2701000Y1367000D02*
Y1377000D01*
X1761000Y743000D02*
Y753000D01*
X1756000Y748000D02*
X1766000D01*
X1697000Y957000D02*
X1707000D01*
X1702000Y952000D02*
Y962000D01*
X1969000Y973000D02*
Y983000D01*
X1964000Y978000D02*
X1974000D01*
X1689000Y840000D02*
Y850000D01*
X1684000Y845000D02*
X1694000D01*
X2102000Y764000D02*
X2112000D01*
X2107000Y759000D02*
Y769000D01*
X2444000Y1193000D02*
X2454000D01*
X2449000Y1188000D02*
Y1198000D01*
X1928000Y1070500D02*
X1938000D01*
X1933000Y1065500D02*
Y1075500D01*
Y1040000D02*
Y1050000D01*
X1928000Y1045000D02*
X1938000D01*
X1997000Y1226000D02*
Y1236000D01*
X1992000Y1231000D02*
X2002000D01*
X2446000Y1288000D02*
X2456000D01*
X2451000Y1283000D02*
Y1293000D01*
X2175000Y801000D02*
X2185000D01*
X2180000Y796000D02*
Y806000D01*
X2446000Y1378000D02*
X2456000D01*
X2451000Y1373000D02*
Y1383000D01*
X2648000Y1274000D02*
X2658000D01*
X2653000Y1269000D02*
Y1279000D01*
X2653000Y1302000D02*
Y1312000D01*
X2648000Y1307000D02*
X2658000D01*
X2649000Y1339000D02*
X2659000D01*
X2654000Y1334000D02*
Y1344000D01*
X1964000Y1026000D02*
X1974000D01*
X1969000Y1021000D02*
Y1031000D01*
X2650000Y1371000D02*
X2660000D01*
X2655000Y1366000D02*
Y1376000D01*
X2099000Y972000D02*
X2109000D01*
X2104000Y967000D02*
Y977000D01*
X1674000Y938000D02*
Y948000D01*
X1669000Y943000D02*
X1679000D01*
X1606000Y744000D02*
X1616000D01*
X1611000Y739000D02*
Y749000D01*
X1637000Y739000D02*
Y749000D01*
X1632000Y744000D02*
X1642000D01*
X1677000Y671000D02*
Y681000D01*
X1672000Y676000D02*
X1682000D01*
X2078000Y1104000D02*
Y1114000D01*
X2073000Y1109000D02*
X2083000D01*
X2272000Y1049000D02*
X2282000D01*
X2277000Y1044000D02*
Y1054000D01*
X1681000Y722000D02*
Y732000D01*
X1676000Y727000D02*
X1686000D01*
X1741000Y931000D02*
Y941000D01*
X1736000Y936000D02*
X1746000D01*
X1588000Y1021000D02*
Y1031000D01*
X1583000Y1026000D02*
X1593000D01*
X1871500Y1022500D02*
X1881500D01*
X1876500Y1017500D02*
Y1027500D01*
X1917500Y1139500D02*
Y1149500D01*
X1912500Y1144500D02*
X1922500D01*
X1742000Y704000D02*
Y714000D01*
X1737000Y709000D02*
X1747000D01*
X2045000Y763000D02*
X2055000D01*
X2050000Y758000D02*
Y768000D01*
X1554000Y1098000D02*
X1564000D01*
X1559000Y1093000D02*
Y1103000D01*
X2355000Y793000D02*
Y803000D01*
X2350000Y798000D02*
X2360000D01*
X2355000Y770000D02*
Y780000D01*
X2350000Y775000D02*
X2360000D01*
X2548000Y888000D02*
X2558000D01*
X2553000Y883000D02*
Y893000D01*
X1690500Y1261750D02*
X1700500D01*
X1695500Y1256750D02*
Y1266750D01*
X1686500Y1193750D02*
Y1203750D01*
X1681500Y1198750D02*
X1691500D01*
X1784750Y1328000D02*
Y1338000D01*
X1779750Y1333000D02*
X1789750D01*
X1784500Y1358000D02*
Y1368000D01*
X1779500Y1363000D02*
X1789500D01*
X1893250Y1344500D02*
X1903250D01*
X1898250Y1339500D02*
Y1349500D01*
X1921250Y1344500D02*
X1931250D01*
X1926250Y1339500D02*
Y1349500D01*
X1949250Y1344500D02*
X1959250D01*
X1954250Y1339500D02*
Y1349500D01*
X1977250Y1344500D02*
X1987250D01*
X1982250Y1339500D02*
Y1349500D01*
X2975000Y1450000D02*
X2985000D01*
X2980000Y1445000D02*
Y1455000D01*
X2975000Y1495000D02*
X2985000D01*
X2980000Y1490000D02*
Y1500000D01*
X2870000Y1250000D02*
Y1260000D01*
X2865000Y1255000D02*
X2875000D01*
X1618500Y1177750D02*
Y1187750D01*
X1613500Y1182750D02*
X1623500D01*
X2970000Y1271000D02*
Y1281000D01*
X2965000Y1276000D02*
X2975000D01*
X2970000Y1363000D02*
Y1373000D01*
X2965000Y1368000D02*
X2975000D01*
X1847250Y1339500D02*
Y1349500D01*
X1842250Y1344500D02*
X1852250D01*
X2900000Y1445000D02*
Y1455000D01*
X2895000Y1450000D02*
X2905000D01*
X2900000Y1325000D02*
Y1335000D01*
X2895000Y1330000D02*
X2905000D01*
X2970000Y1318000D02*
Y1328000D01*
X2965000Y1323000D02*
X2975000D01*
X1459750Y1494500D02*
Y1504500D01*
X1454750Y1499500D02*
X1464750D01*
X2022000Y1170000D02*
G03*
X2022000Y1170000I-5000J0D01*
G01*
X1702000Y738000D02*
G03*
X1702000Y738000I-5000J0D01*
G01*
X1636500Y1045000D02*
G03*
X1636500Y1045000I-5000J0D01*
G01*
X1953500Y1151500D02*
G03*
X1953500Y1151500I-5000J0D01*
G01*
X1702500Y1163750D02*
G03*
X1702500Y1163750I-5000J0D01*
G01*
X2861500Y1431000D02*
G03*
X2861500Y1431000I-5000J0D01*
G01*
X2940000Y1341000D02*
G03*
X2940000Y1341000I-5000J0D01*
G01*
X1762100Y1414850D02*
X1784900D01*
X1762100Y1402150D02*
X1784900D01*
X1762100D02*
Y1414850D01*
X1784900Y1402150D02*
Y1414850D01*
X1761100Y1444100D02*
X1783900D01*
X1761100Y1431400D02*
X1783900D01*
X1761100D02*
Y1444100D01*
X1783900Y1431400D02*
Y1444100D01*
X2820750Y1354000D02*
Y1374000D01*
X2833250Y1354000D02*
Y1374000D01*
X2820750Y1354000D02*
X2833250D01*
X2820750Y1374000D02*
X2833250D01*
X2833350Y1430600D02*
Y1453400D01*
X2820650Y1430600D02*
Y1453400D01*
X2833350D01*
X2820650Y1430600D02*
X2833350D01*
X2820650Y1311600D02*
Y1334400D01*
X2833350Y1311600D02*
Y1334400D01*
X2820650Y1311600D02*
X2833350D01*
X2820650Y1334400D02*
X2833350D01*
X2833250Y1392000D02*
Y1412000D01*
X2820750Y1392000D02*
Y1412000D01*
X2833250D01*
X2820750Y1392000D02*
X2833250D01*
X1442150Y1437100D02*
Y1459900D01*
X1454850Y1437100D02*
Y1459900D01*
X1442150Y1437100D02*
X1454850D01*
X1442150Y1459900D02*
X1454850D01*
X2880200Y753600D02*
X2917800D01*
X2880200Y706400D02*
X2917800D01*
X2880200D02*
Y753600D01*
X2917800Y706400D02*
Y753600D01*
X2963750Y707950D02*
X2978250D01*
X2963750Y730050D02*
X2978250D01*
X2963750Y707950D02*
Y730050D01*
X2978250Y707950D02*
Y730050D01*
X2887950Y680750D02*
Y695250D01*
X2910050Y680750D02*
Y695250D01*
X2887950D02*
X2910050D01*
X2887950Y680750D02*
X2910050D01*
X1836600Y787350D02*
X1859400D01*
X1836600Y774650D02*
X1859400D01*
X1836600D02*
Y787350D01*
X1859400Y774650D02*
Y787350D01*
X1855350Y872600D02*
Y895400D01*
X1842650Y872600D02*
Y895400D01*
X1855350D01*
X1842650Y872600D02*
X1855350D01*
X1844200Y808000D02*
Y822000D01*
X1813800Y808000D02*
Y822000D01*
X1844200D01*
X1813800Y808000D02*
X1844200D01*
X1663600Y1013650D02*
X1686400D01*
X1663600Y1026350D02*
X1686400D01*
Y1013650D02*
Y1026350D01*
X1663600Y1013650D02*
Y1026350D01*
Y1040650D02*
X1686400D01*
X1663600Y1053350D02*
X1686400D01*
Y1040650D02*
Y1053350D01*
X1663600Y1040650D02*
Y1053350D01*
Y1067650D02*
X1686400D01*
X1663600Y1080350D02*
X1686400D01*
Y1067650D02*
Y1080350D01*
X1663600Y1067650D02*
Y1080350D01*
X2316950Y1275750D02*
Y1290250D01*
X2339050Y1275750D02*
Y1290250D01*
X2316950D02*
X2339050D01*
X2316950Y1275750D02*
X2339050D01*
X2283050D02*
Y1290250D01*
X2260950Y1275750D02*
Y1290250D01*
Y1275750D02*
X2283050D01*
X2260950Y1290250D02*
X2283050D01*
X1538650Y774400D02*
X1551350D01*
X1538650Y751600D02*
X1551350D01*
Y774400D01*
X1538650Y751600D02*
Y774400D01*
X2168950Y782250D02*
X2191050D01*
X2168950Y767750D02*
X2191050D01*
X2168950D02*
Y782250D01*
X2191050Y767750D02*
Y782250D01*
X2468750Y1181950D02*
Y1204050D01*
X2483250Y1181950D02*
Y1204050D01*
X2468750Y1181950D02*
X2483250D01*
X2468750Y1204050D02*
X2483250D01*
X2470750Y1276950D02*
Y1299050D01*
X2485250Y1276950D02*
Y1299050D01*
X2470750Y1276950D02*
X2485250D01*
X2470750Y1299050D02*
X2485250D01*
X2470750Y1366950D02*
Y1389050D01*
X2485250Y1366950D02*
Y1389050D01*
X2470750Y1366950D02*
X2485250D01*
X2470750Y1389050D02*
X2485250D01*
X1829250Y1051450D02*
Y1073550D01*
X1843750Y1051450D02*
Y1073550D01*
X1829250Y1051450D02*
X1843750D01*
X1829250Y1073550D02*
X1843750D01*
Y971450D02*
Y993550D01*
X1829250Y971450D02*
Y993550D01*
X1843750D01*
X1829250Y971450D02*
X1843750D01*
X1883950Y1109250D02*
X1906050D01*
X1883950Y1094750D02*
X1906050D01*
X1883950D02*
Y1109250D01*
X1906050Y1094750D02*
Y1109250D01*
X2157750Y966950D02*
Y989050D01*
X2172250Y966950D02*
Y989050D01*
X2157750Y966950D02*
X2172250D01*
X2157750Y989050D02*
X2172250D01*
X2190250Y1169950D02*
Y1192050D01*
X2175750Y1169950D02*
Y1192050D01*
X2190250D01*
X2175750Y1169950D02*
X2190250D01*
X2033250Y1219950D02*
Y1242050D01*
X2018750Y1219950D02*
Y1242050D01*
X2033250D01*
X2018750Y1219950D02*
X2033250D01*
X2050750Y952950D02*
Y975050D01*
X2065250Y952950D02*
Y975050D01*
X2050750Y952950D02*
X2065250D01*
X2050750Y975050D02*
X2065250D01*
X2001950Y994750D02*
X2024050D01*
X2001950Y1009250D02*
X2024050D01*
Y994750D02*
Y1009250D01*
X2001950Y994750D02*
Y1009250D01*
X2061250Y1219950D02*
Y1242050D01*
X2046750Y1219950D02*
Y1242050D01*
X2061250D01*
X2046750Y1219950D02*
X2061250D01*
X2154250Y1222950D02*
Y1245050D01*
X2139750Y1222950D02*
Y1245050D01*
X2154250D01*
X2139750Y1222950D02*
X2154250D01*
X1921950Y990250D02*
X1944050D01*
X1921950Y975750D02*
X1944050D01*
X1921950D02*
Y990250D01*
X1944050Y975750D02*
Y990250D01*
X1921950Y1017250D02*
X1944050D01*
X1921950Y1002750D02*
X1944050D01*
X1921950D02*
Y1017250D01*
X1944050Y1002750D02*
Y1017250D01*
X2186250Y1222950D02*
Y1245050D01*
X2171750Y1222950D02*
Y1245050D01*
X2186250D01*
X2171750Y1222950D02*
X2186250D01*
X2130750Y966950D02*
Y989050D01*
X2145250Y966950D02*
Y989050D01*
X2130750Y966950D02*
X2145250D01*
X2130750Y989050D02*
X2145250D01*
X2011250Y952950D02*
Y975050D01*
X1996750Y952950D02*
Y975050D01*
X2011250D01*
X1996750Y952950D02*
X2011250D01*
X2039250Y952950D02*
Y975050D01*
X2024750Y952950D02*
Y975050D01*
X2039250D01*
X2024750Y952950D02*
X2039250D01*
X1928950Y1227250D02*
X1951050D01*
X1928950Y1212750D02*
X1951050D01*
X1928950D02*
Y1227250D01*
X1951050Y1212750D02*
Y1227250D01*
X1928950Y1194250D02*
X1951050D01*
X1928950Y1179750D02*
X1951050D01*
X1928950D02*
Y1194250D01*
X1951050Y1179750D02*
Y1194250D01*
X1928950Y1109250D02*
X1951050D01*
X1928950Y1094750D02*
X1951050D01*
X1928950D02*
Y1109250D01*
X1951050Y1094750D02*
Y1109250D01*
X2356750Y1046950D02*
Y1069050D01*
X2371250Y1046950D02*
Y1069050D01*
X2356750Y1046950D02*
X2371250D01*
X2356750Y1069050D02*
X2371250D01*
X2386750Y1046950D02*
Y1069050D01*
X2401250Y1046950D02*
Y1069050D01*
X2386750Y1046950D02*
X2401250D01*
X2386750Y1069050D02*
X2401250D01*
X2444750Y1046950D02*
Y1069050D01*
X2459250Y1046950D02*
Y1069050D01*
X2444750Y1046950D02*
X2459250D01*
X2444750Y1069050D02*
X2459250D01*
X2415750Y1046950D02*
Y1069050D01*
X2430250Y1046950D02*
Y1069050D01*
X2415750Y1046950D02*
X2430250D01*
X2415750Y1069050D02*
X2430250D01*
X1567500Y852000D02*
X1602500D01*
X1567500Y786000D02*
X1602500D01*
Y852000D01*
X1567500Y786000D02*
Y852000D01*
X1723500Y642000D02*
X1796500D01*
X1723500Y688000D02*
X1796500D01*
Y642000D02*
Y688000D01*
X1723500Y642000D02*
Y688000D01*
X1630750Y679950D02*
Y702050D01*
X1645250Y679950D02*
Y702050D01*
X1630750Y679950D02*
X1645250D01*
X1630750Y702050D02*
X1645250D01*
X1603750Y679950D02*
Y702050D01*
X1618250Y679950D02*
Y702050D01*
X1603750Y679950D02*
X1618250D01*
X1603750Y702050D02*
X1618250D01*
X1626250Y931950D02*
Y954050D01*
X1611750Y931950D02*
Y954050D01*
X1626250D01*
X1611750Y931950D02*
X1626250D01*
X1654250D02*
Y954050D01*
X1639750Y931950D02*
Y954050D01*
X1654250D01*
X1639750Y931950D02*
X1654250D01*
X1782950Y861750D02*
X1805050D01*
X1782950Y876250D02*
X1805050D01*
Y861750D02*
Y876250D01*
X1782950Y861750D02*
Y876250D01*
Y890750D02*
X1805050D01*
X1782950Y905250D02*
X1805050D01*
Y890750D02*
Y905250D01*
X1782950Y890750D02*
Y905250D01*
Y919750D02*
X1805050D01*
X1782950Y934250D02*
X1805050D01*
Y919750D02*
Y934250D01*
X1782950Y919750D02*
Y934250D01*
X2689000Y1280250D02*
X2709000D01*
X2689000Y1267750D02*
X2709000D01*
X2689000D02*
Y1280250D01*
X2709000Y1267750D02*
Y1280250D01*
X2709000Y1301750D02*
Y1314250D01*
X2689000Y1301750D02*
Y1314250D01*
Y1301750D02*
X2709000D01*
X2689000Y1314250D02*
X2709000D01*
X2690000Y1346250D02*
X2710000D01*
X2690000Y1333750D02*
X2710000D01*
X2690000D02*
Y1346250D01*
X2710000Y1333750D02*
Y1346250D01*
X2711000Y1365750D02*
Y1378250D01*
X2691000Y1365750D02*
Y1378250D01*
Y1365750D02*
X2711000D01*
X2691000Y1378250D02*
X2711000D01*
X1738000Y728250D02*
X1784000D01*
X1738000Y767750D02*
X1784000D01*
Y728250D02*
Y767750D01*
X1738000Y728250D02*
Y767750D01*
X1695750Y947000D02*
Y967000D01*
X1708250Y947000D02*
Y967000D01*
X1695750Y947000D02*
X1708250D01*
X1695750Y967000D02*
X1708250D01*
X1962750Y968000D02*
X1975250D01*
X1962750Y988000D02*
X1975250D01*
X1962750Y968000D02*
Y988000D01*
X1975250Y968000D02*
Y988000D01*
X1626500Y907500D02*
X1751500D01*
X1626500Y782500D02*
X1751500D01*
X1626500D02*
Y907500D01*
X1751500Y782500D02*
Y907500D01*
X2095600Y757650D02*
Y770350D01*
X2118400Y757650D02*
Y770350D01*
X2095600D02*
X2118400D01*
X2095600Y757650D02*
X2118400D01*
X2455350Y1181600D02*
Y1204400D01*
X2442650Y1181600D02*
Y1204400D01*
X2455350D01*
X2442650Y1181600D02*
X2455350D01*
X1944400Y1064150D02*
Y1076850D01*
X1921600Y1064150D02*
Y1076850D01*
Y1064150D02*
X1944400D01*
X1921600Y1076850D02*
X1944400D01*
X1921600Y1051350D02*
X1944400D01*
X1921600Y1038650D02*
X1944400D01*
X1921600D02*
Y1051350D01*
X1944400Y1038650D02*
Y1051350D01*
X1990650Y1242400D02*
X2003350D01*
X1990650Y1219600D02*
X2003350D01*
Y1242400D01*
X1990650Y1219600D02*
Y1242400D01*
X2457350Y1276600D02*
Y1299400D01*
X2444650Y1276600D02*
Y1299400D01*
X2457350D01*
X2444650Y1276600D02*
X2457350D01*
X2168600Y794650D02*
Y807350D01*
X2191400Y794650D02*
Y807350D01*
X2168600D02*
X2191400D01*
X2168600Y794650D02*
X2191400D01*
X2457350Y1366600D02*
Y1389400D01*
X2444650Y1366600D02*
Y1389400D01*
X2457350D01*
X2444650Y1366600D02*
X2457350D01*
X2641600Y1267650D02*
Y1280350D01*
X2664400Y1267650D02*
Y1280350D01*
X2641600D02*
X2664400D01*
X2641600Y1267650D02*
X2664400D01*
X2641600Y1300650D02*
X2664400D01*
X2641600Y1313350D02*
X2664400D01*
Y1300650D02*
Y1313350D01*
X2641600Y1300650D02*
Y1313350D01*
X2642600Y1332650D02*
Y1345350D01*
X2665400Y1332650D02*
Y1345350D01*
X2642600D02*
X2665400D01*
X2642600Y1332650D02*
X2665400D01*
X1975350Y1014600D02*
Y1037400D01*
X1962650Y1014600D02*
Y1037400D01*
X1975350D01*
X1962650Y1014600D02*
X1975350D01*
X2643600Y1364650D02*
Y1377350D01*
X2666400Y1364650D02*
Y1377350D01*
X2643600D02*
X2666400D01*
X2643600Y1364650D02*
X2666400D01*
X2110350Y960600D02*
Y983400D01*
X2097650Y960600D02*
Y983400D01*
X2110350D01*
X2097650Y960600D02*
X2110350D01*
X1667650Y954400D02*
X1680350D01*
X1667650Y931600D02*
X1680350D01*
Y954400D01*
X1667650Y931600D02*
Y954400D01*
X1617350Y732600D02*
Y755400D01*
X1604650Y732600D02*
Y755400D01*
X1617350D01*
X1604650Y732600D02*
X1617350D01*
X1630650Y755400D02*
X1643350D01*
X1630650Y732600D02*
X1643350D01*
Y755400D01*
X1630650Y732600D02*
Y755400D01*
X1665600Y669650D02*
X1688400D01*
X1665600Y682350D02*
X1688400D01*
Y669650D02*
Y682350D01*
X1665600Y669650D02*
Y682350D01*
X2008000Y1039000D02*
X2148000D01*
X2008000Y1179000D02*
X2148000D01*
Y1039000D02*
Y1179000D01*
X2008000Y1039000D02*
Y1179000D01*
X2253400Y1030200D02*
Y1067800D01*
X2300600Y1030200D02*
Y1067800D01*
X2253400Y1030200D02*
X2300600D01*
X2253400Y1067800D02*
X2300600D01*
X1656000Y747000D02*
X1706000D01*
X1656000Y707000D02*
X1706000D01*
Y747000D01*
X1656000Y707000D02*
Y747000D01*
X1732250Y920750D02*
X1749750D01*
X1732250Y951250D02*
X1749750D01*
Y920750D02*
Y951250D01*
X1732250Y920750D02*
Y951250D01*
X1535500Y1054000D02*
X1640500D01*
X1535500Y998000D02*
X1640500D01*
Y1054000D01*
X1535500Y998000D02*
Y1054000D01*
X1900000Y965750D02*
Y1079250D01*
X1853000Y965750D02*
Y1079250D01*
X1900000D01*
X1853000Y965750D02*
X1900000D01*
X1877500Y1160500D02*
X1957500D01*
X1877500Y1128500D02*
X1957500D01*
Y1160500D01*
X1877500Y1128500D02*
Y1160500D01*
X1730950Y701750D02*
X1753050D01*
X1730950Y716250D02*
X1753050D01*
Y701750D02*
Y716250D01*
X1730950Y701750D02*
Y716250D01*
X2038600Y756650D02*
Y769350D01*
X2061400Y756650D02*
Y769350D01*
X2038600D02*
X2061400D01*
X2038600Y756650D02*
X2061400D01*
X1566250Y1086950D02*
Y1109050D01*
X1551750Y1086950D02*
Y1109050D01*
X1566250D01*
X1551750Y1086950D02*
X1566250D01*
X2343950Y805250D02*
X2366050D01*
X2343950Y790750D02*
X2366050D01*
X2343950D02*
Y805250D01*
X2366050Y790750D02*
Y805250D01*
X2343950Y782250D02*
X2366050D01*
X2343950Y767750D02*
X2366050D01*
X2343950D02*
Y782250D01*
X2366050Y767750D02*
Y782250D01*
X2545750Y876950D02*
Y899050D01*
X2560250Y876950D02*
Y899050D01*
X2545750Y876950D02*
X2560250D01*
X2545750Y899050D02*
X2560250D01*
X1706900Y1255400D02*
Y1268100D01*
X1684100Y1255400D02*
Y1268100D01*
Y1255400D02*
X1706900D01*
X1684100Y1268100D02*
X1706900D01*
X1666500Y1242750D02*
X1706500D01*
X1666500Y1154750D02*
X1706500D01*
X1666500D02*
Y1242750D01*
X1706500Y1154750D02*
Y1242750D01*
X1773700Y1340250D02*
X1795800D01*
X1773700Y1325750D02*
X1795800D01*
X1773700D02*
Y1340250D01*
X1795800Y1325750D02*
Y1340250D01*
X1773450Y1370250D02*
X1795550D01*
X1773450Y1355750D02*
X1795550D01*
X1773450D02*
Y1370250D01*
X1795550Y1355750D02*
Y1370250D01*
X1891000Y1333450D02*
Y1355550D01*
X1905500Y1333450D02*
Y1355550D01*
X1891000Y1333450D02*
X1905500D01*
X1891000Y1355550D02*
X1905500D01*
X1919000Y1333450D02*
Y1355550D01*
X1933500Y1333450D02*
Y1355550D01*
X1919000Y1333450D02*
X1933500D01*
X1919000Y1355550D02*
X1933500D01*
X1947000Y1333450D02*
Y1355550D01*
X1961500Y1333450D02*
Y1355550D01*
X1947000Y1333450D02*
X1961500D01*
X1947000Y1355550D02*
X1961500D01*
X1975000Y1333450D02*
Y1355550D01*
X1989500Y1333450D02*
Y1355550D01*
X1975000Y1333450D02*
X1989500D01*
X1975000Y1355550D02*
X1989500D01*
X2987250Y1438950D02*
Y1461050D01*
X2972750Y1438950D02*
Y1461050D01*
X2987250D01*
X2972750Y1438950D02*
X2987250D01*
Y1483950D02*
Y1506050D01*
X2972750Y1483950D02*
Y1506050D01*
X2987250D01*
X2972750Y1483950D02*
X2987250D01*
X2863650Y1266400D02*
X2876350D01*
X2863650Y1243600D02*
X2876350D01*
Y1266400D01*
X2863650Y1243600D02*
Y1266400D01*
X1612150Y1194150D02*
X1624850D01*
X1612150Y1171350D02*
X1624850D01*
Y1194150D01*
X1612150Y1171350D02*
Y1194150D01*
X2963650Y1287400D02*
X2976350D01*
X2963650Y1264600D02*
X2976350D01*
Y1287400D01*
X2963650Y1264600D02*
Y1287400D01*
Y1379400D02*
X2976350D01*
X2963650Y1356600D02*
X2976350D01*
Y1379400D01*
X2963650Y1356600D02*
Y1379400D01*
X1838500Y1329250D02*
X1856000D01*
X1838500Y1359750D02*
X1856000D01*
Y1329250D02*
Y1359750D01*
X1838500Y1329250D02*
Y1359750D01*
X2847500Y1422000D02*
X2952500D01*
X2847500Y1478000D02*
X2952500D01*
X2847500Y1422000D02*
Y1478000D01*
X2952500Y1422000D02*
Y1478000D01*
X2856000Y1350000D02*
X2944000D01*
X2856000Y1310000D02*
X2944000D01*
Y1350000D01*
X2856000Y1310000D02*
Y1350000D01*
X2963650Y1311600D02*
X2976350D01*
X2963650Y1334400D02*
X2976350D01*
X2963650Y1311600D02*
Y1334400D01*
X2976350Y1311600D02*
Y1334400D01*
X1448700Y1506750D02*
X1470800D01*
X1448700Y1492250D02*
X1470800D01*
X1448700D02*
Y1506750D01*
X1470800Y1492250D02*
Y1506750D01*
D55*
X3000000Y632540D02*
Y1680540D01*
X1400000Y1633810D02*
Y1680540D01*
X2258107Y1678000D02*
X3000000D01*
X1400000D02*
X2166186D01*
X2984760Y1683080D02*
X3000000Y1678000D01*
X2984760Y1672920D02*
X3000000Y1678000D01*
X1400000D02*
X1415240Y1672920D01*
X1400000Y1678000D02*
X1415240Y1683080D01*
X2803810Y1630000D02*
X3109790D01*
X2803810Y630000D02*
X3109790D01*
X3107250Y1171896D02*
Y1630000D01*
Y630000D02*
Y1079976D01*
X3102170Y1614760D02*
X3107250Y1630000D01*
X3112330Y1614760D01*
X3107250Y630000D02*
X3112330Y645240D01*
X3102170D02*
X3107250Y630000D01*
X2800000D02*
X3000000D01*
Y1630000D01*
X2800000D02*
X3000000D01*
X1400000Y630000D02*
Y1630000D01*
Y630000D02*
X2800000D01*
Y1630000D01*
X1400000D02*
X2800000D01*
D56*
X2170250Y1677750D02*
X2175328D01*
X2172789D01*
Y1692985D01*
X2170250Y1690446D01*
X2193103Y1692985D02*
X2188024Y1690446D01*
X2182946Y1685367D01*
Y1680289D01*
X2185485Y1677750D01*
X2190563D01*
X2193103Y1680289D01*
Y1682828D01*
X2190563Y1685367D01*
X2182946D01*
X2198181Y1690446D02*
X2200720Y1692985D01*
X2205798D01*
X2208338Y1690446D01*
Y1680289D01*
X2205798Y1677750D01*
X2200720D01*
X2198181Y1680289D01*
Y1690446D01*
X2215955Y1675211D02*
X2218494Y1677750D01*
Y1680289D01*
X2215955D01*
Y1677750D01*
X2218494D01*
X2215955Y1675211D01*
X2213416Y1672672D01*
X2228651Y1690446D02*
X2231190Y1692985D01*
X2236269D01*
X2238808Y1690446D01*
Y1680289D01*
X2236269Y1677750D01*
X2231190D01*
X2228651Y1680289D01*
Y1690446D01*
X2243886D02*
X2246425Y1692985D01*
X2251504D01*
X2254043Y1690446D01*
Y1680289D01*
X2251504Y1677750D01*
X2246425D01*
X2243886Y1680289D01*
Y1690446D01*
X3118931Y1084040D02*
Y1089118D01*
Y1086579D01*
X3103696D01*
X3106235Y1084040D01*
Y1096735D02*
X3103696Y1099275D01*
Y1104353D01*
X3106235Y1106892D01*
X3116392D01*
X3118931Y1104353D01*
Y1099275D01*
X3116392Y1096735D01*
X3106235D01*
Y1111971D02*
X3103696Y1114510D01*
Y1119588D01*
X3106235Y1122127D01*
X3116392D01*
X3118931Y1119588D01*
Y1114510D01*
X3116392Y1111971D01*
X3106235D01*
X3121470Y1129745D02*
X3118931Y1132284D01*
X3116392D01*
Y1129745D01*
X3118931D01*
Y1132284D01*
X3121470Y1129745D01*
X3124009Y1127206D01*
X3106235Y1142441D02*
X3103696Y1144980D01*
Y1150058D01*
X3106235Y1152597D01*
X3116392D01*
X3118931Y1150058D01*
Y1144980D01*
X3116392Y1142441D01*
X3106235D01*
Y1157676D02*
X3103696Y1160215D01*
Y1165293D01*
X3106235Y1167832D01*
X3116392D01*
X3118931Y1165293D01*
Y1160215D01*
X3116392Y1157676D01*
X3106235D01*
D57*
X1585000Y847561D02*
D03*
D58*
X1728409Y665000D02*
D03*
D132*
X1751500Y1421000D02*
X1795500D01*
X1751500Y1396000D02*
X1795500D01*
X1751500D02*
Y1421000D01*
X1795500Y1396000D02*
Y1421000D01*
X1750500Y1450250D02*
X1794500D01*
X1750500Y1425250D02*
X1794500D01*
X1750500D02*
Y1450250D01*
X1794500Y1425250D02*
Y1450250D01*
X2817500Y1347000D02*
Y1381000D01*
X2836500Y1347000D02*
Y1381000D01*
X2817500Y1347000D02*
X2836500D01*
X2817500Y1381000D02*
X2836500D01*
X2839500Y1420000D02*
Y1464000D01*
X2814500Y1420000D02*
Y1464000D01*
X2839500D01*
X2814500Y1420000D02*
X2839500D01*
X2814500Y1301000D02*
Y1345000D01*
X2839500Y1301000D02*
Y1345000D01*
X2814500Y1301000D02*
X2839500D01*
X2814500Y1345000D02*
X2839500D01*
X2836500Y1385000D02*
Y1419000D01*
X2817500Y1385000D02*
Y1419000D01*
X2836500D01*
X2817500Y1385000D02*
X2836500D01*
X1436000Y1426500D02*
Y1470500D01*
X1461000Y1426500D02*
Y1470500D01*
X1436000Y1426500D02*
X1461000D01*
X1436000Y1470500D02*
X1461000D01*
X2877500Y756250D02*
X2920500D01*
X2877500Y703750D02*
X2920500D01*
X2877500D02*
Y756250D01*
X2920500Y703750D02*
Y756250D01*
X2958000Y697000D02*
X2984000D01*
X2958000Y741000D02*
X2984000D01*
X2958000Y697000D02*
Y741000D01*
X2984000Y697000D02*
Y741000D01*
X2877000Y675000D02*
Y701000D01*
X2921000Y675000D02*
Y701000D01*
X2877000D02*
X2921000D01*
X2877000Y675000D02*
X2921000D01*
X1826000Y793500D02*
X1870000D01*
X1826000Y768500D02*
X1870000D01*
X1826000D02*
Y793500D01*
X1870000Y768500D02*
Y793500D01*
X1861500Y862000D02*
Y906000D01*
X1836500Y862000D02*
Y906000D01*
X1861500D01*
X1836500Y862000D02*
X1861500D01*
X1846500Y795750D02*
Y834250D01*
X1811500Y795750D02*
Y834250D01*
X1846500D01*
X1811500Y795750D02*
X1846500D01*
X1653000Y1007500D02*
X1697000D01*
X1653000Y1032500D02*
X1697000D01*
Y1007500D02*
Y1032500D01*
X1653000Y1007500D02*
Y1032500D01*
Y1034500D02*
X1697000D01*
X1653000Y1059500D02*
X1697000D01*
Y1034500D02*
Y1059500D01*
X1653000Y1034500D02*
Y1059500D01*
Y1061500D02*
X1697000D01*
X1653000Y1086500D02*
X1697000D01*
Y1061500D02*
Y1086500D01*
X1653000Y1061500D02*
Y1086500D01*
X2306000Y1270000D02*
Y1296000D01*
X2350000Y1270000D02*
Y1296000D01*
X2306000D02*
X2350000D01*
X2306000Y1270000D02*
X2350000D01*
X2294000D02*
Y1296000D01*
X2250000Y1270000D02*
Y1296000D01*
Y1270000D02*
X2294000D01*
X2250000Y1296000D02*
X2294000D01*
X1532500Y785000D02*
X1557500D01*
X1532500Y741000D02*
X1557500D01*
Y785000D01*
X1532500Y741000D02*
Y785000D01*
X2158000Y788000D02*
X2202000D01*
X2158000Y762000D02*
X2202000D01*
X2158000D02*
Y788000D01*
X2202000Y762000D02*
Y788000D01*
X2463000Y1171000D02*
Y1215000D01*
X2489000Y1171000D02*
Y1215000D01*
X2463000Y1171000D02*
X2489000D01*
X2463000Y1215000D02*
X2489000D01*
X2465000Y1266000D02*
Y1310000D01*
X2491000Y1266000D02*
Y1310000D01*
X2465000Y1266000D02*
X2491000D01*
X2465000Y1310000D02*
X2491000D01*
X2465000Y1356000D02*
Y1400000D01*
X2491000Y1356000D02*
Y1400000D01*
X2465000Y1356000D02*
X2491000D01*
X2465000Y1400000D02*
X2491000D01*
X1823500Y1040500D02*
Y1084500D01*
X1849500Y1040500D02*
Y1084500D01*
X1823500Y1040500D02*
X1849500D01*
X1823500Y1084500D02*
X1849500D01*
Y960500D02*
Y1004500D01*
X1823500Y960500D02*
Y1004500D01*
X1849500D01*
X1823500Y960500D02*
X1849500D01*
X1873000Y1115000D02*
X1917000D01*
X1873000Y1089000D02*
X1917000D01*
X1873000D02*
Y1115000D01*
X1917000Y1089000D02*
Y1115000D01*
X2152000Y956000D02*
Y1000000D01*
X2178000Y956000D02*
Y1000000D01*
X2152000Y956000D02*
X2178000D01*
X2152000Y1000000D02*
X2178000D01*
X2196000Y1159000D02*
Y1203000D01*
X2170000Y1159000D02*
Y1203000D01*
X2196000D01*
X2170000Y1159000D02*
X2196000D01*
X2039000Y1209000D02*
Y1253000D01*
X2013000Y1209000D02*
Y1253000D01*
X2039000D01*
X2013000Y1209000D02*
X2039000D01*
X2045000Y942000D02*
Y986000D01*
X2071000Y942000D02*
Y986000D01*
X2045000Y942000D02*
X2071000D01*
X2045000Y986000D02*
X2071000D01*
X1991000Y989000D02*
X2035000D01*
X1991000Y1015000D02*
X2035000D01*
Y989000D02*
Y1015000D01*
X1991000Y989000D02*
Y1015000D01*
X2067000Y1209000D02*
Y1253000D01*
X2041000Y1209000D02*
Y1253000D01*
X2067000D01*
X2041000Y1209000D02*
X2067000D01*
X2160000Y1212000D02*
Y1256000D01*
X2134000Y1212000D02*
Y1256000D01*
X2160000D01*
X2134000Y1212000D02*
X2160000D01*
X1911000Y996000D02*
X1955000D01*
X1911000Y970000D02*
X1955000D01*
X1911000D02*
Y996000D01*
X1955000Y970000D02*
Y996000D01*
X1911000Y1023000D02*
X1955000D01*
X1911000Y997000D02*
X1955000D01*
X1911000D02*
Y1023000D01*
X1955000Y997000D02*
Y1023000D01*
X2192000Y1212000D02*
Y1256000D01*
X2166000Y1212000D02*
Y1256000D01*
X2192000D01*
X2166000Y1212000D02*
X2192000D01*
X2125000Y956000D02*
Y1000000D01*
X2151000Y956000D02*
Y1000000D01*
X2125000Y956000D02*
X2151000D01*
X2125000Y1000000D02*
X2151000D01*
X2017000Y942000D02*
Y986000D01*
X1991000Y942000D02*
Y986000D01*
X2017000D01*
X1991000Y942000D02*
X2017000D01*
X2045000Y942000D02*
Y986000D01*
X2019000Y942000D02*
Y986000D01*
X2045000D01*
X2019000Y942000D02*
X2045000D01*
X1918000Y1233000D02*
X1962000D01*
X1918000Y1207000D02*
X1962000D01*
X1918000D02*
Y1233000D01*
X1962000Y1207000D02*
Y1233000D01*
X1918000Y1200000D02*
X1962000D01*
X1918000Y1174000D02*
X1962000D01*
X1918000D02*
Y1200000D01*
X1962000Y1174000D02*
Y1200000D01*
X1918000Y1115000D02*
X1962000D01*
X1918000Y1089000D02*
X1962000D01*
X1918000D02*
Y1115000D01*
X1962000Y1089000D02*
Y1115000D01*
X2351000Y1036000D02*
Y1080000D01*
X2377000Y1036000D02*
Y1080000D01*
X2351000Y1036000D02*
X2377000D01*
X2351000Y1080000D02*
X2377000D01*
X2381000Y1036000D02*
Y1080000D01*
X2407000Y1036000D02*
Y1080000D01*
X2381000Y1036000D02*
X2407000D01*
X2381000Y1080000D02*
X2407000D01*
X2439000Y1036000D02*
Y1080000D01*
X2465000Y1036000D02*
Y1080000D01*
X2439000Y1036000D02*
X2465000D01*
X2439000Y1080000D02*
X2465000D01*
X2410000Y1036000D02*
Y1080000D01*
X2436000Y1036000D02*
Y1080000D01*
X2410000Y1036000D02*
X2436000D01*
X2410000Y1080000D02*
X2436000D01*
X1565000Y859500D02*
X1605000D01*
X1565000Y778500D02*
X1605000D01*
Y859500D01*
X1565000Y778500D02*
Y859500D01*
X1715750Y639500D02*
X1804250D01*
X1715750Y690500D02*
X1804250D01*
Y639500D02*
Y690500D01*
X1715750Y639500D02*
Y690500D01*
X1625000Y669000D02*
Y713000D01*
X1651000Y669000D02*
Y713000D01*
X1625000Y669000D02*
X1651000D01*
X1625000Y713000D02*
X1651000D01*
X1598000Y669000D02*
Y713000D01*
X1624000Y669000D02*
Y713000D01*
X1598000Y669000D02*
X1624000D01*
X1598000Y713000D02*
X1624000D01*
X1632000Y921000D02*
Y965000D01*
X1606000Y921000D02*
Y965000D01*
X1632000D01*
X1606000Y921000D02*
X1632000D01*
X1660000D02*
Y965000D01*
X1634000Y921000D02*
Y965000D01*
X1660000D01*
X1634000Y921000D02*
X1660000D01*
X1772000Y856000D02*
X1816000D01*
X1772000Y882000D02*
X1816000D01*
Y856000D02*
Y882000D01*
X1772000Y856000D02*
Y882000D01*
Y885000D02*
X1816000D01*
X1772000Y911000D02*
X1816000D01*
Y885000D02*
Y911000D01*
X1772000Y885000D02*
Y911000D01*
Y914000D02*
X1816000D01*
X1772000Y940000D02*
X1816000D01*
Y914000D02*
Y940000D01*
X1772000Y914000D02*
Y940000D01*
X2682000Y1283500D02*
X2716000D01*
X2682000Y1264500D02*
X2716000D01*
X2682000D02*
Y1283500D01*
X2716000Y1264500D02*
Y1283500D01*
X2716000Y1298500D02*
Y1317500D01*
X2682000Y1298500D02*
Y1317500D01*
Y1298500D02*
X2716000D01*
X2682000Y1317500D02*
X2716000D01*
X2683000Y1349500D02*
X2717000D01*
X2683000Y1330500D02*
X2717000D01*
X2683000D02*
Y1349500D01*
X2717000Y1330500D02*
Y1349500D01*
X2718000Y1362500D02*
Y1381500D01*
X2684000Y1362500D02*
Y1381500D01*
Y1362500D02*
X2718000D01*
X2684000Y1381500D02*
X2718000D01*
X1729500Y726500D02*
X1792500D01*
X1729500Y769500D02*
X1792500D01*
Y726500D02*
Y769500D01*
X1729500Y726500D02*
Y769500D01*
X1692500Y940000D02*
Y974000D01*
X1711500Y940000D02*
Y974000D01*
X1692500Y940000D02*
X1711500D01*
X1692500Y974000D02*
X1711500D01*
X1959500Y961000D02*
X1978500D01*
X1959500Y995000D02*
X1978500D01*
X1959500Y961000D02*
Y995000D01*
X1978500Y961000D02*
Y995000D01*
X1618250Y910000D02*
X1759750D01*
X1618250Y780000D02*
X1759750D01*
X1618250D02*
Y910000D01*
X1759750Y780000D02*
Y910000D01*
X2085000Y751500D02*
Y776500D01*
X2129000Y751500D02*
Y776500D01*
X2085000D02*
X2129000D01*
X2085000Y751500D02*
X2129000D01*
X2461500Y1171000D02*
Y1215000D01*
X2436500Y1171000D02*
Y1215000D01*
X2461500D01*
X2436500Y1171000D02*
X2461500D01*
X1955000Y1058000D02*
Y1083000D01*
X1911000Y1058000D02*
Y1083000D01*
Y1058000D02*
X1955000D01*
X1911000Y1083000D02*
X1955000D01*
X1911000Y1057500D02*
X1955000D01*
X1911000Y1032500D02*
X1955000D01*
X1911000D02*
Y1057500D01*
X1955000Y1032500D02*
Y1057500D01*
X1984500Y1253000D02*
X2009500D01*
X1984500Y1209000D02*
X2009500D01*
Y1253000D01*
X1984500Y1209000D02*
Y1253000D01*
X2463500Y1266000D02*
Y1310000D01*
X2438500Y1266000D02*
Y1310000D01*
X2463500D01*
X2438500Y1266000D02*
X2463500D01*
X2158000Y788500D02*
Y813500D01*
X2202000Y788500D02*
Y813500D01*
X2158000D02*
X2202000D01*
X2158000Y788500D02*
X2202000D01*
X2463500Y1356000D02*
Y1400000D01*
X2438500Y1356000D02*
Y1400000D01*
X2463500D01*
X2438500Y1356000D02*
X2463500D01*
X2631000Y1261500D02*
Y1286500D01*
X2675000Y1261500D02*
Y1286500D01*
X2631000D02*
X2675000D01*
X2631000Y1261500D02*
X2675000D01*
X2631000Y1294500D02*
X2675000D01*
X2631000Y1319500D02*
X2675000D01*
Y1294500D02*
Y1319500D01*
X2631000Y1294500D02*
Y1319500D01*
X2632000Y1326500D02*
Y1351500D01*
X2676000Y1326500D02*
Y1351500D01*
X2632000D02*
X2676000D01*
X2632000Y1326500D02*
X2676000D01*
X1981500Y1004000D02*
Y1048000D01*
X1956500Y1004000D02*
Y1048000D01*
X1981500D01*
X1956500Y1004000D02*
X1981500D01*
X2633000Y1358500D02*
Y1383500D01*
X2677000Y1358500D02*
Y1383500D01*
X2633000D02*
X2677000D01*
X2633000Y1358500D02*
X2677000D01*
X2116500Y950000D02*
Y994000D01*
X2091500Y950000D02*
Y994000D01*
X2116500D01*
X2091500Y950000D02*
X2116500D01*
X1661500Y965000D02*
X1686500D01*
X1661500Y921000D02*
X1686500D01*
Y965000D01*
X1661500Y921000D02*
Y965000D01*
X1623500Y722000D02*
Y766000D01*
X1598500Y722000D02*
Y766000D01*
X1623500D01*
X1598500Y722000D02*
X1623500D01*
X1624500Y766000D02*
X1649500D01*
X1624500Y722000D02*
X1649500D01*
Y766000D01*
X1624500Y722000D02*
Y766000D01*
X1655000Y663500D02*
X1699000D01*
X1655000Y688500D02*
X1699000D01*
Y663500D02*
Y688500D01*
X1655000Y663500D02*
Y688500D01*
X1986500Y1017500D02*
X2169500D01*
X1986500Y1200500D02*
X2169500D01*
Y1017500D02*
Y1200500D01*
X1986500Y1017500D02*
Y1200500D01*
X2250750Y1027500D02*
Y1070500D01*
X2303250Y1027500D02*
Y1070500D01*
X2250750Y1027500D02*
X2303250D01*
X2250750Y1070500D02*
X2303250D01*
X1653500Y764000D02*
X1708500D01*
X1653500Y690000D02*
X1708500D01*
Y764000D01*
X1653500Y690000D02*
Y764000D01*
X1715500Y915500D02*
X1766500D01*
X1715500Y956500D02*
X1766500D01*
Y915500D02*
Y956500D01*
X1715500Y915500D02*
Y956500D01*
X1530500Y1077500D02*
X1645500D01*
X1530500Y974500D02*
X1645500D01*
Y1077500D01*
X1530500Y974500D02*
Y1077500D01*
X1901000Y956250D02*
Y1088750D01*
X1852000Y956250D02*
Y1088750D01*
X1901000D01*
X1852000Y956250D02*
X1901000D01*
X1872500Y1172500D02*
X1962500D01*
X1872500Y1116500D02*
X1962500D01*
Y1172500D01*
X1872500Y1116500D02*
Y1172500D01*
X1720000Y696000D02*
X1764000D01*
X1720000Y722000D02*
X1764000D01*
Y696000D02*
Y722000D01*
X1720000Y696000D02*
Y722000D01*
X2028000Y750500D02*
Y775500D01*
X2072000Y750500D02*
Y775500D01*
X2028000D02*
X2072000D01*
X2028000Y750500D02*
X2072000D01*
X1572000Y1076000D02*
Y1120000D01*
X1546000Y1076000D02*
Y1120000D01*
X1572000D01*
X1546000Y1076000D02*
X1572000D01*
X2333000Y811000D02*
X2377000D01*
X2333000Y785000D02*
X2377000D01*
X2333000D02*
Y811000D01*
X2377000Y785000D02*
Y811000D01*
X2333000Y788000D02*
X2377000D01*
X2333000Y762000D02*
X2377000D01*
X2333000D02*
Y788000D01*
X2377000Y762000D02*
Y788000D01*
X2540000Y866000D02*
Y910000D01*
X2566000Y866000D02*
Y910000D01*
X2540000Y866000D02*
X2566000D01*
X2540000Y910000D02*
X2566000D01*
X1717500Y1249250D02*
Y1274250D01*
X1673500Y1249250D02*
Y1274250D01*
Y1249250D02*
X1717500D01*
X1673500Y1274250D02*
X1717500D01*
X1649500Y1245250D02*
X1723500D01*
X1649500Y1152250D02*
X1723500D01*
X1649500D02*
Y1245250D01*
X1723500Y1152250D02*
Y1245250D01*
X1762750Y1346000D02*
X1806750D01*
X1762750Y1320000D02*
X1806750D01*
X1762750D02*
Y1346000D01*
X1806750Y1320000D02*
Y1346000D01*
X1762500Y1376000D02*
X1806500D01*
X1762500Y1350000D02*
X1806500D01*
X1762500D02*
Y1376000D01*
X1806500Y1350000D02*
Y1376000D01*
X1885250Y1322500D02*
Y1366500D01*
X1911250Y1322500D02*
Y1366500D01*
X1885250Y1322500D02*
X1911250D01*
X1885250Y1366500D02*
X1911250D01*
X1913250Y1322500D02*
Y1366500D01*
X1939250Y1322500D02*
Y1366500D01*
X1913250Y1322500D02*
X1939250D01*
X1913250Y1366500D02*
X1939250D01*
X1941250Y1322500D02*
Y1366500D01*
X1967250Y1322500D02*
Y1366500D01*
X1941250Y1322500D02*
X1967250D01*
X1941250Y1366500D02*
X1967250D01*
X1969250Y1322500D02*
Y1366500D01*
X1995250Y1322500D02*
Y1366500D01*
X1969250Y1322500D02*
X1995250D01*
X1969250Y1366500D02*
X1995250D01*
X2993000Y1428000D02*
Y1472000D01*
X2967000Y1428000D02*
Y1472000D01*
X2993000D01*
X2967000Y1428000D02*
X2993000D01*
Y1473000D02*
Y1517000D01*
X2967000Y1473000D02*
Y1517000D01*
X2993000D01*
X2967000Y1473000D02*
X2993000D01*
X2857500Y1277000D02*
X2882500D01*
X2857500Y1233000D02*
X2882500D01*
Y1277000D01*
X2857500Y1233000D02*
Y1277000D01*
X1606000Y1204750D02*
X1631000D01*
X1606000Y1160750D02*
X1631000D01*
Y1204750D01*
X1606000Y1160750D02*
Y1204750D01*
X2957500Y1298000D02*
X2982500D01*
X2957500Y1254000D02*
X2982500D01*
Y1298000D01*
X2957500Y1254000D02*
Y1298000D01*
Y1390000D02*
X2982500D01*
X2957500Y1346000D02*
X2982500D01*
Y1390000D01*
X2957500Y1346000D02*
Y1390000D01*
X1821750Y1324000D02*
X1872750D01*
X1821750Y1365000D02*
X1872750D01*
Y1324000D02*
Y1365000D01*
X1821750Y1324000D02*
Y1365000D01*
X2842500Y1398500D02*
X2957500D01*
X2842500Y1501500D02*
X2957500D01*
X2842500Y1398500D02*
Y1501500D01*
X2957500Y1398500D02*
Y1501500D01*
X2853500Y1367000D02*
X2946500D01*
X2853500Y1293000D02*
X2946500D01*
Y1367000D01*
X2853500Y1293000D02*
Y1367000D01*
X2957500Y1301000D02*
X2982500D01*
X2957500Y1345000D02*
X2982500D01*
X2957500Y1301000D02*
Y1345000D01*
X2982500Y1301000D02*
Y1345000D01*
X1437750Y1512500D02*
X1481750D01*
X1437750Y1486500D02*
X1481750D01*
X1437750D02*
Y1512500D01*
X1481750Y1486500D02*
Y1512500D01*
M02*
