G04 Layer_Color=12632256*
%FSLAX44Y44*%
%MOMM*%
G71*
G01*
G75*
%ADD54C,0.1000*%
%ADD55C,0.2540*%
%ADD56C,0.1524*%
%ADD57R,3.5000X0.8877*%
%ADD58R,0.9819X4.6000*%
%ADD59R,1.5000X1.5000*%
%ADD60C,1.5000*%
%ADD61C,1.4000*%
%ADD62C,2.4000*%
%ADD63C,1.9000*%
%ADD64C,1.8000*%
%ADD65R,1.8000X1.8000*%
%ADD66R,1.8000X1.8000*%
%ADD67R,1.4000X1.4000*%
%ADD68C,1.7000*%
%ADD69C,2.5000*%
%ADD70C,3.8000*%
%ADD71C,1.5000*%
%ADD72R,1.5000X1.5000*%
%ADD73R,1.5000X1.5000*%
%ADD74C,1.0000*%
%ADD75C,3.2000*%
D54*
X2022000Y1170000D02*
G03*
X2022000Y1170000I-5000J0D01*
G01*
X1702000Y738000D02*
G03*
X1702000Y738000I-5000J0D01*
G01*
X1636500Y1045000D02*
G03*
X1636500Y1045000I-5000J0D01*
G01*
X1953500Y1151500D02*
G03*
X1953500Y1151500I-5000J0D01*
G01*
X1702500Y1163750D02*
G03*
X1702500Y1163750I-5000J0D01*
G01*
X2861500Y1431000D02*
G03*
X2861500Y1431000I-5000J0D01*
G01*
X2940000Y1341000D02*
G03*
X2940000Y1341000I-5000J0D01*
G01*
X1762100Y1414850D02*
X1784900D01*
X1762100Y1402150D02*
X1784900D01*
X1762100D02*
Y1414850D01*
X1784900Y1402150D02*
Y1414850D01*
X1761100Y1444100D02*
X1783900D01*
X1761100Y1431400D02*
X1783900D01*
X1761100D02*
Y1444100D01*
X1783900Y1431400D02*
Y1444100D01*
X2820750Y1354000D02*
Y1374000D01*
X2833250Y1354000D02*
Y1374000D01*
X2820750Y1354000D02*
X2833250D01*
X2820750Y1374000D02*
X2833250D01*
X2833350Y1430600D02*
Y1453400D01*
X2820650Y1430600D02*
Y1453400D01*
X2833350D01*
X2820650Y1430600D02*
X2833350D01*
X2820650Y1311600D02*
Y1334400D01*
X2833350Y1311600D02*
Y1334400D01*
X2820650Y1311600D02*
X2833350D01*
X2820650Y1334400D02*
X2833350D01*
X2833250Y1392000D02*
Y1412000D01*
X2820750Y1392000D02*
Y1412000D01*
X2833250D01*
X2820750Y1392000D02*
X2833250D01*
X1442150Y1437100D02*
Y1459900D01*
X1454850Y1437100D02*
Y1459900D01*
X1442150Y1437100D02*
X1454850D01*
X1442150Y1459900D02*
X1454850D01*
X2880200Y753600D02*
X2917800D01*
X2880200Y706400D02*
X2917800D01*
X2880200D02*
Y753600D01*
X2917800Y706400D02*
Y753600D01*
X2963750Y707950D02*
X2978250D01*
X2963750Y730050D02*
X2978250D01*
X2963750Y707950D02*
Y730050D01*
X2978250Y707950D02*
Y730050D01*
X2887950Y680750D02*
Y695250D01*
X2910050Y680750D02*
Y695250D01*
X2887950D02*
X2910050D01*
X2887950Y680750D02*
X2910050D01*
X1836600Y787350D02*
X1859400D01*
X1836600Y774650D02*
X1859400D01*
X1836600D02*
Y787350D01*
X1859400Y774650D02*
Y787350D01*
X1855350Y872600D02*
Y895400D01*
X1842650Y872600D02*
Y895400D01*
X1855350D01*
X1842650Y872600D02*
X1855350D01*
X1844200Y808000D02*
Y822000D01*
X1813800Y808000D02*
Y822000D01*
X1844200D01*
X1813800Y808000D02*
X1844200D01*
X1663600Y1013650D02*
X1686400D01*
X1663600Y1026350D02*
X1686400D01*
Y1013650D02*
Y1026350D01*
X1663600Y1013650D02*
Y1026350D01*
Y1040650D02*
X1686400D01*
X1663600Y1053350D02*
X1686400D01*
Y1040650D02*
Y1053350D01*
X1663600Y1040650D02*
Y1053350D01*
Y1067650D02*
X1686400D01*
X1663600Y1080350D02*
X1686400D01*
Y1067650D02*
Y1080350D01*
X1663600Y1067650D02*
Y1080350D01*
X2316950Y1275750D02*
Y1290250D01*
X2339050Y1275750D02*
Y1290250D01*
X2316950D02*
X2339050D01*
X2316950Y1275750D02*
X2339050D01*
X2283050D02*
Y1290250D01*
X2260950Y1275750D02*
Y1290250D01*
Y1275750D02*
X2283050D01*
X2260950Y1290250D02*
X2283050D01*
X1538650Y774400D02*
X1551350D01*
X1538650Y751600D02*
X1551350D01*
Y774400D01*
X1538650Y751600D02*
Y774400D01*
X2168950Y782250D02*
X2191050D01*
X2168950Y767750D02*
X2191050D01*
X2168950D02*
Y782250D01*
X2191050Y767750D02*
Y782250D01*
X2468750Y1181950D02*
Y1204050D01*
X2483250Y1181950D02*
Y1204050D01*
X2468750Y1181950D02*
X2483250D01*
X2468750Y1204050D02*
X2483250D01*
X2470750Y1276950D02*
Y1299050D01*
X2485250Y1276950D02*
Y1299050D01*
X2470750Y1276950D02*
X2485250D01*
X2470750Y1299050D02*
X2485250D01*
X2470750Y1366950D02*
Y1389050D01*
X2485250Y1366950D02*
Y1389050D01*
X2470750Y1366950D02*
X2485250D01*
X2470750Y1389050D02*
X2485250D01*
X1829250Y1051450D02*
Y1073550D01*
X1843750Y1051450D02*
Y1073550D01*
X1829250Y1051450D02*
X1843750D01*
X1829250Y1073550D02*
X1843750D01*
Y971450D02*
Y993550D01*
X1829250Y971450D02*
Y993550D01*
X1843750D01*
X1829250Y971450D02*
X1843750D01*
X1883950Y1109250D02*
X1906050D01*
X1883950Y1094750D02*
X1906050D01*
X1883950D02*
Y1109250D01*
X1906050Y1094750D02*
Y1109250D01*
X2157750Y966950D02*
Y989050D01*
X2172250Y966950D02*
Y989050D01*
X2157750Y966950D02*
X2172250D01*
X2157750Y989050D02*
X2172250D01*
X2190250Y1169950D02*
Y1192050D01*
X2175750Y1169950D02*
Y1192050D01*
X2190250D01*
X2175750Y1169950D02*
X2190250D01*
X2033250Y1219950D02*
Y1242050D01*
X2018750Y1219950D02*
Y1242050D01*
X2033250D01*
X2018750Y1219950D02*
X2033250D01*
X2050750Y952950D02*
Y975050D01*
X2065250Y952950D02*
Y975050D01*
X2050750Y952950D02*
X2065250D01*
X2050750Y975050D02*
X2065250D01*
X2001950Y994750D02*
X2024050D01*
X2001950Y1009250D02*
X2024050D01*
Y994750D02*
Y1009250D01*
X2001950Y994750D02*
Y1009250D01*
X2061250Y1219950D02*
Y1242050D01*
X2046750Y1219950D02*
Y1242050D01*
X2061250D01*
X2046750Y1219950D02*
X2061250D01*
X2154250Y1222950D02*
Y1245050D01*
X2139750Y1222950D02*
Y1245050D01*
X2154250D01*
X2139750Y1222950D02*
X2154250D01*
X1921950Y990250D02*
X1944050D01*
X1921950Y975750D02*
X1944050D01*
X1921950D02*
Y990250D01*
X1944050Y975750D02*
Y990250D01*
X1921950Y1017250D02*
X1944050D01*
X1921950Y1002750D02*
X1944050D01*
X1921950D02*
Y1017250D01*
X1944050Y1002750D02*
Y1017250D01*
X2186250Y1222950D02*
Y1245050D01*
X2171750Y1222950D02*
Y1245050D01*
X2186250D01*
X2171750Y1222950D02*
X2186250D01*
X2130750Y966950D02*
Y989050D01*
X2145250Y966950D02*
Y989050D01*
X2130750Y966950D02*
X2145250D01*
X2130750Y989050D02*
X2145250D01*
X2011250Y952950D02*
Y975050D01*
X1996750Y952950D02*
Y975050D01*
X2011250D01*
X1996750Y952950D02*
X2011250D01*
X2039250Y952950D02*
Y975050D01*
X2024750Y952950D02*
Y975050D01*
X2039250D01*
X2024750Y952950D02*
X2039250D01*
X1928950Y1227250D02*
X1951050D01*
X1928950Y1212750D02*
X1951050D01*
X1928950D02*
Y1227250D01*
X1951050Y1212750D02*
Y1227250D01*
X1928950Y1194250D02*
X1951050D01*
X1928950Y1179750D02*
X1951050D01*
X1928950D02*
Y1194250D01*
X1951050Y1179750D02*
Y1194250D01*
X1928950Y1109250D02*
X1951050D01*
X1928950Y1094750D02*
X1951050D01*
X1928950D02*
Y1109250D01*
X1951050Y1094750D02*
Y1109250D01*
X2356750Y1046950D02*
Y1069050D01*
X2371250Y1046950D02*
Y1069050D01*
X2356750Y1046950D02*
X2371250D01*
X2356750Y1069050D02*
X2371250D01*
X2386750Y1046950D02*
Y1069050D01*
X2401250Y1046950D02*
Y1069050D01*
X2386750Y1046950D02*
X2401250D01*
X2386750Y1069050D02*
X2401250D01*
X2444750Y1046950D02*
Y1069050D01*
X2459250Y1046950D02*
Y1069050D01*
X2444750Y1046950D02*
X2459250D01*
X2444750Y1069050D02*
X2459250D01*
X2415750Y1046950D02*
Y1069050D01*
X2430250Y1046950D02*
Y1069050D01*
X2415750Y1046950D02*
X2430250D01*
X2415750Y1069050D02*
X2430250D01*
X1567500Y852000D02*
X1602500D01*
X1567500Y786000D02*
X1602500D01*
Y852000D01*
X1567500Y786000D02*
Y852000D01*
X1723500Y642000D02*
X1796500D01*
X1723500Y688000D02*
X1796500D01*
Y642000D02*
Y688000D01*
X1723500Y642000D02*
Y688000D01*
X1630750Y679950D02*
Y702050D01*
X1645250Y679950D02*
Y702050D01*
X1630750Y679950D02*
X1645250D01*
X1630750Y702050D02*
X1645250D01*
X1603750Y679950D02*
Y702050D01*
X1618250Y679950D02*
Y702050D01*
X1603750Y679950D02*
X1618250D01*
X1603750Y702050D02*
X1618250D01*
X1626250Y931950D02*
Y954050D01*
X1611750Y931950D02*
Y954050D01*
X1626250D01*
X1611750Y931950D02*
X1626250D01*
X1654250D02*
Y954050D01*
X1639750Y931950D02*
Y954050D01*
X1654250D01*
X1639750Y931950D02*
X1654250D01*
X1782950Y861750D02*
X1805050D01*
X1782950Y876250D02*
X1805050D01*
Y861750D02*
Y876250D01*
X1782950Y861750D02*
Y876250D01*
Y890750D02*
X1805050D01*
X1782950Y905250D02*
X1805050D01*
Y890750D02*
Y905250D01*
X1782950Y890750D02*
Y905250D01*
Y919750D02*
X1805050D01*
X1782950Y934250D02*
X1805050D01*
Y919750D02*
Y934250D01*
X1782950Y919750D02*
Y934250D01*
X2689000Y1280250D02*
X2709000D01*
X2689000Y1267750D02*
X2709000D01*
X2689000D02*
Y1280250D01*
X2709000Y1267750D02*
Y1280250D01*
X2709000Y1301750D02*
Y1314250D01*
X2689000Y1301750D02*
Y1314250D01*
Y1301750D02*
X2709000D01*
X2689000Y1314250D02*
X2709000D01*
X2690000Y1346250D02*
X2710000D01*
X2690000Y1333750D02*
X2710000D01*
X2690000D02*
Y1346250D01*
X2710000Y1333750D02*
Y1346250D01*
X2711000Y1365750D02*
Y1378250D01*
X2691000Y1365750D02*
Y1378250D01*
Y1365750D02*
X2711000D01*
X2691000Y1378250D02*
X2711000D01*
X1738000Y728250D02*
X1784000D01*
X1738000Y767750D02*
X1784000D01*
Y728250D02*
Y767750D01*
X1738000Y728250D02*
Y767750D01*
X1695750Y947000D02*
Y967000D01*
X1708250Y947000D02*
Y967000D01*
X1695750Y947000D02*
X1708250D01*
X1695750Y967000D02*
X1708250D01*
X1962750Y968000D02*
X1975250D01*
X1962750Y988000D02*
X1975250D01*
X1962750Y968000D02*
Y988000D01*
X1975250Y968000D02*
Y988000D01*
X1626500Y907500D02*
X1751500D01*
X1626500Y782500D02*
X1751500D01*
X1626500D02*
Y907500D01*
X1751500Y782500D02*
Y907500D01*
X2095600Y757650D02*
Y770350D01*
X2118400Y757650D02*
Y770350D01*
X2095600D02*
X2118400D01*
X2095600Y757650D02*
X2118400D01*
X2455350Y1181600D02*
Y1204400D01*
X2442650Y1181600D02*
Y1204400D01*
X2455350D01*
X2442650Y1181600D02*
X2455350D01*
X1944400Y1064150D02*
Y1076850D01*
X1921600Y1064150D02*
Y1076850D01*
Y1064150D02*
X1944400D01*
X1921600Y1076850D02*
X1944400D01*
X1921600Y1051350D02*
X1944400D01*
X1921600Y1038650D02*
X1944400D01*
X1921600D02*
Y1051350D01*
X1944400Y1038650D02*
Y1051350D01*
X1990650Y1242400D02*
X2003350D01*
X1990650Y1219600D02*
X2003350D01*
Y1242400D01*
X1990650Y1219600D02*
Y1242400D01*
X2457350Y1276600D02*
Y1299400D01*
X2444650Y1276600D02*
Y1299400D01*
X2457350D01*
X2444650Y1276600D02*
X2457350D01*
X2168600Y794650D02*
Y807350D01*
X2191400Y794650D02*
Y807350D01*
X2168600D02*
X2191400D01*
X2168600Y794650D02*
X2191400D01*
X2457350Y1366600D02*
Y1389400D01*
X2444650Y1366600D02*
Y1389400D01*
X2457350D01*
X2444650Y1366600D02*
X2457350D01*
X2641600Y1267650D02*
Y1280350D01*
X2664400Y1267650D02*
Y1280350D01*
X2641600D02*
X2664400D01*
X2641600Y1267650D02*
X2664400D01*
X2641600Y1300650D02*
X2664400D01*
X2641600Y1313350D02*
X2664400D01*
Y1300650D02*
Y1313350D01*
X2641600Y1300650D02*
Y1313350D01*
X2642600Y1332650D02*
Y1345350D01*
X2665400Y1332650D02*
Y1345350D01*
X2642600D02*
X2665400D01*
X2642600Y1332650D02*
X2665400D01*
X1975350Y1014600D02*
Y1037400D01*
X1962650Y1014600D02*
Y1037400D01*
X1975350D01*
X1962650Y1014600D02*
X1975350D01*
X2643600Y1364650D02*
Y1377350D01*
X2666400Y1364650D02*
Y1377350D01*
X2643600D02*
X2666400D01*
X2643600Y1364650D02*
X2666400D01*
X2110350Y960600D02*
Y983400D01*
X2097650Y960600D02*
Y983400D01*
X2110350D01*
X2097650Y960600D02*
X2110350D01*
X1667650Y954400D02*
X1680350D01*
X1667650Y931600D02*
X1680350D01*
Y954400D01*
X1667650Y931600D02*
Y954400D01*
X1617350Y732600D02*
Y755400D01*
X1604650Y732600D02*
Y755400D01*
X1617350D01*
X1604650Y732600D02*
X1617350D01*
X1630650Y755400D02*
X1643350D01*
X1630650Y732600D02*
X1643350D01*
Y755400D01*
X1630650Y732600D02*
Y755400D01*
X1665600Y669650D02*
X1688400D01*
X1665600Y682350D02*
X1688400D01*
Y669650D02*
Y682350D01*
X1665600Y669650D02*
Y682350D01*
X2008000Y1039000D02*
X2148000D01*
X2008000Y1179000D02*
X2148000D01*
Y1039000D02*
Y1179000D01*
X2008000Y1039000D02*
Y1179000D01*
X2253400Y1030200D02*
Y1067800D01*
X2300600Y1030200D02*
Y1067800D01*
X2253400Y1030200D02*
X2300600D01*
X2253400Y1067800D02*
X2300600D01*
X1656000Y747000D02*
X1706000D01*
X1656000Y707000D02*
X1706000D01*
Y747000D01*
X1656000Y707000D02*
Y747000D01*
X1732250Y920750D02*
X1749750D01*
X1732250Y951250D02*
X1749750D01*
Y920750D02*
Y951250D01*
X1732250Y920750D02*
Y951250D01*
X1535500Y1054000D02*
X1640500D01*
X1535500Y998000D02*
X1640500D01*
Y1054000D01*
X1535500Y998000D02*
Y1054000D01*
X1900000Y965750D02*
Y1079250D01*
X1853000Y965750D02*
Y1079250D01*
X1900000D01*
X1853000Y965750D02*
X1900000D01*
X1877500Y1160500D02*
X1957500D01*
X1877500Y1128500D02*
X1957500D01*
Y1160500D01*
X1877500Y1128500D02*
Y1160500D01*
X1730950Y701750D02*
X1753050D01*
X1730950Y716250D02*
X1753050D01*
Y701750D02*
Y716250D01*
X1730950Y701750D02*
Y716250D01*
X2038600Y756650D02*
Y769350D01*
X2061400Y756650D02*
Y769350D01*
X2038600D02*
X2061400D01*
X2038600Y756650D02*
X2061400D01*
X1566250Y1086950D02*
Y1109050D01*
X1551750Y1086950D02*
Y1109050D01*
X1566250D01*
X1551750Y1086950D02*
X1566250D01*
X2343950Y805250D02*
X2366050D01*
X2343950Y790750D02*
X2366050D01*
X2343950D02*
Y805250D01*
X2366050Y790750D02*
Y805250D01*
X2343950Y782250D02*
X2366050D01*
X2343950Y767750D02*
X2366050D01*
X2343950D02*
Y782250D01*
X2366050Y767750D02*
Y782250D01*
X2545750Y876950D02*
Y899050D01*
X2560250Y876950D02*
Y899050D01*
X2545750Y876950D02*
X2560250D01*
X2545750Y899050D02*
X2560250D01*
X1706900Y1255400D02*
Y1268100D01*
X1684100Y1255400D02*
Y1268100D01*
Y1255400D02*
X1706900D01*
X1684100Y1268100D02*
X1706900D01*
X1666500Y1242750D02*
X1706500D01*
X1666500Y1154750D02*
X1706500D01*
X1666500D02*
Y1242750D01*
X1706500Y1154750D02*
Y1242750D01*
X1773700Y1340250D02*
X1795800D01*
X1773700Y1325750D02*
X1795800D01*
X1773700D02*
Y1340250D01*
X1795800Y1325750D02*
Y1340250D01*
X1773450Y1370250D02*
X1795550D01*
X1773450Y1355750D02*
X1795550D01*
X1773450D02*
Y1370250D01*
X1795550Y1355750D02*
Y1370250D01*
X1891000Y1333450D02*
Y1355550D01*
X1905500Y1333450D02*
Y1355550D01*
X1891000Y1333450D02*
X1905500D01*
X1891000Y1355550D02*
X1905500D01*
X1919000Y1333450D02*
Y1355550D01*
X1933500Y1333450D02*
Y1355550D01*
X1919000Y1333450D02*
X1933500D01*
X1919000Y1355550D02*
X1933500D01*
X1947000Y1333450D02*
Y1355550D01*
X1961500Y1333450D02*
Y1355550D01*
X1947000Y1333450D02*
X1961500D01*
X1947000Y1355550D02*
X1961500D01*
X1975000Y1333450D02*
Y1355550D01*
X1989500Y1333450D02*
Y1355550D01*
X1975000Y1333450D02*
X1989500D01*
X1975000Y1355550D02*
X1989500D01*
X2987250Y1438950D02*
Y1461050D01*
X2972750Y1438950D02*
Y1461050D01*
X2987250D01*
X2972750Y1438950D02*
X2987250D01*
Y1483950D02*
Y1506050D01*
X2972750Y1483950D02*
Y1506050D01*
X2987250D01*
X2972750Y1483950D02*
X2987250D01*
X2863650Y1266400D02*
X2876350D01*
X2863650Y1243600D02*
X2876350D01*
Y1266400D01*
X2863650Y1243600D02*
Y1266400D01*
X1612150Y1194150D02*
X1624850D01*
X1612150Y1171350D02*
X1624850D01*
Y1194150D01*
X1612150Y1171350D02*
Y1194150D01*
X2963650Y1287400D02*
X2976350D01*
X2963650Y1264600D02*
X2976350D01*
Y1287400D01*
X2963650Y1264600D02*
Y1287400D01*
Y1379400D02*
X2976350D01*
X2963650Y1356600D02*
X2976350D01*
Y1379400D01*
X2963650Y1356600D02*
Y1379400D01*
X1838500Y1329250D02*
X1856000D01*
X1838500Y1359750D02*
X1856000D01*
Y1329250D02*
Y1359750D01*
X1838500Y1329250D02*
Y1359750D01*
X2847500Y1422000D02*
X2952500D01*
X2847500Y1478000D02*
X2952500D01*
X2847500Y1422000D02*
Y1478000D01*
X2952500Y1422000D02*
Y1478000D01*
X2856000Y1350000D02*
X2944000D01*
X2856000Y1310000D02*
X2944000D01*
Y1350000D01*
X2856000Y1310000D02*
Y1350000D01*
X2963650Y1311600D02*
X2976350D01*
X2963650Y1334400D02*
X2976350D01*
X2963650Y1311600D02*
Y1334400D01*
X2976350Y1311600D02*
Y1334400D01*
X1448700Y1506750D02*
X1470800D01*
X1448700Y1492250D02*
X1470800D01*
X1448700D02*
Y1506750D01*
X1470800Y1492250D02*
Y1506750D01*
D55*
X3000000Y632540D02*
Y1680540D01*
X1400000Y1633810D02*
Y1680540D01*
X2258107Y1678000D02*
X3000000D01*
X1400000D02*
X2166186D01*
X2984760Y1683080D02*
X3000000Y1678000D01*
X2984760Y1672920D02*
X3000000Y1678000D01*
X1400000D02*
X1415240Y1672920D01*
X1400000Y1678000D02*
X1415240Y1683080D01*
X2803810Y1630000D02*
X3109790D01*
X2803810Y630000D02*
X3109790D01*
X3107250Y1171896D02*
Y1630000D01*
Y630000D02*
Y1079976D01*
X3102170Y1614760D02*
X3107250Y1630000D01*
X3112330Y1614760D01*
X3107250Y630000D02*
X3112330Y645240D01*
X3102170D02*
X3107250Y630000D01*
X2800000D02*
X3000000D01*
Y1630000D01*
X2800000D02*
X3000000D01*
X1400000Y630000D02*
Y1630000D01*
Y630000D02*
X2800000D01*
Y1630000D01*
X1400000D02*
X2800000D01*
D56*
X2170250Y1677750D02*
X2175328D01*
X2172789D01*
Y1692985D01*
X2170250Y1690446D01*
X2193103Y1692985D02*
X2188024Y1690446D01*
X2182946Y1685367D01*
Y1680289D01*
X2185485Y1677750D01*
X2190563D01*
X2193103Y1680289D01*
Y1682828D01*
X2190563Y1685367D01*
X2182946D01*
X2198181Y1690446D02*
X2200720Y1692985D01*
X2205798D01*
X2208338Y1690446D01*
Y1680289D01*
X2205798Y1677750D01*
X2200720D01*
X2198181Y1680289D01*
Y1690446D01*
X2215955Y1675211D02*
X2218494Y1677750D01*
Y1680289D01*
X2215955D01*
Y1677750D01*
X2218494D01*
X2215955Y1675211D01*
X2213416Y1672672D01*
X2228651Y1690446D02*
X2231190Y1692985D01*
X2236269D01*
X2238808Y1690446D01*
Y1680289D01*
X2236269Y1677750D01*
X2231190D01*
X2228651Y1680289D01*
Y1690446D01*
X2243886D02*
X2246425Y1692985D01*
X2251504D01*
X2254043Y1690446D01*
Y1680289D01*
X2251504Y1677750D01*
X2246425D01*
X2243886Y1680289D01*
Y1690446D01*
X3118931Y1084040D02*
Y1089118D01*
Y1086579D01*
X3103696D01*
X3106235Y1084040D01*
Y1096735D02*
X3103696Y1099275D01*
Y1104353D01*
X3106235Y1106892D01*
X3116392D01*
X3118931Y1104353D01*
Y1099275D01*
X3116392Y1096735D01*
X3106235D01*
Y1111971D02*
X3103696Y1114510D01*
Y1119588D01*
X3106235Y1122127D01*
X3116392D01*
X3118931Y1119588D01*
Y1114510D01*
X3116392Y1111971D01*
X3106235D01*
X3121470Y1129745D02*
X3118931Y1132284D01*
X3116392D01*
Y1129745D01*
X3118931D01*
Y1132284D01*
X3121470Y1129745D01*
X3124009Y1127206D01*
X3106235Y1142441D02*
X3103696Y1144980D01*
Y1150058D01*
X3106235Y1152597D01*
X3116392D01*
X3118931Y1150058D01*
Y1144980D01*
X3116392Y1142441D01*
X3106235D01*
Y1157676D02*
X3103696Y1160215D01*
Y1165293D01*
X3106235Y1167832D01*
X3116392D01*
X3118931Y1165293D01*
Y1160215D01*
X3116392Y1157676D01*
X3106235D01*
D57*
X1585000Y847561D02*
D03*
D58*
X1728409Y665000D02*
D03*
D59*
X1526250Y1520750D02*
D03*
X1499750Y1498000D02*
D03*
D60*
X1526250Y1495750D02*
D03*
Y1470750D02*
D03*
Y1445750D02*
D03*
Y1420750D02*
D03*
Y1395750D02*
D03*
Y1370750D02*
D03*
Y1345750D02*
D03*
X1689150Y1520750D02*
D03*
Y1495750D02*
D03*
Y1470750D02*
D03*
Y1445750D02*
D03*
Y1420750D02*
D03*
Y1395750D02*
D03*
Y1370750D02*
D03*
Y1345750D02*
D03*
X2930000Y753000D02*
D03*
Y727600D02*
D03*
Y702200D02*
D03*
X2860000D02*
D03*
Y727600D02*
D03*
Y753000D02*
D03*
X1687700Y1011110D02*
D03*
X1662300D02*
D03*
X1687700Y1038110D02*
D03*
X1662300D02*
D03*
X1687700Y1065110D02*
D03*
X1662300D02*
D03*
X1903000Y702000D02*
D03*
X1859000D02*
D03*
X1536110Y775700D02*
D03*
Y750300D02*
D03*
X2251000Y1083000D02*
D03*
X2276400D02*
D03*
X2301800D02*
D03*
Y1013000D02*
D03*
X2276400D02*
D03*
X2251000D02*
D03*
X1876500Y998000D02*
D03*
Y1047000D02*
D03*
X1470000Y1052000D02*
D03*
Y1008000D02*
D03*
X1933500Y1160500D02*
D03*
X1934500Y1128500D02*
D03*
X1719750Y1318000D02*
D03*
Y1338000D02*
D03*
Y1358000D02*
D03*
Y1378000D02*
D03*
Y1398000D02*
D03*
Y1418000D02*
D03*
Y1438000D02*
D03*
Y1458000D02*
D03*
Y1478000D02*
D03*
Y1498000D02*
D03*
X1499750Y1318000D02*
D03*
Y1338000D02*
D03*
Y1358000D02*
D03*
Y1378000D02*
D03*
Y1398000D02*
D03*
Y1418000D02*
D03*
Y1438000D02*
D03*
Y1458000D02*
D03*
Y1478000D02*
D03*
X2922000Y1565000D02*
D03*
X2878000D02*
D03*
D61*
X2548000Y928000D02*
D03*
X1983000Y851000D02*
D03*
X1918000D02*
D03*
X2437800Y660000D02*
D03*
X2412400D02*
D03*
X2463200D02*
D03*
X2488600D02*
D03*
X2514000D02*
D03*
D62*
X1744350Y1555150D02*
D03*
Y1504350D02*
D03*
X1795150D02*
D03*
Y1555150D02*
D03*
X1551900Y1552600D02*
D03*
X1501100D02*
D03*
Y1603400D02*
D03*
X1551900D02*
D03*
D63*
X1769750Y1529750D02*
D03*
X1526500Y1578000D02*
D03*
D64*
X2116000Y653800D02*
D03*
X2065200D02*
D03*
Y730000D02*
D03*
X2187200D02*
D03*
Y653800D02*
D03*
X2238000D02*
D03*
X2505970Y1167820D02*
D03*
Y1218620D02*
D03*
X2582170D02*
D03*
X2583170Y1311870D02*
D03*
X2506970D02*
D03*
Y1261070D02*
D03*
X2506800Y1354000D02*
D03*
Y1404800D02*
D03*
X2583000D02*
D03*
X1451000Y869200D02*
D03*
Y920000D02*
D03*
X2427000Y1560000D02*
D03*
D65*
X2116000Y730000D02*
D03*
X2238000D02*
D03*
D66*
X2582170Y1167820D02*
D03*
X2583170Y1261070D02*
D03*
X2583000Y1354000D02*
D03*
D67*
X2387000Y660000D02*
D03*
D68*
X2147000Y1560000D02*
D03*
D69*
X1497500Y1278750D02*
D03*
Y1122750D02*
D03*
X2983000Y1159000D02*
D03*
X2827000D02*
D03*
D70*
X1468050Y1143600D02*
D03*
Y1257900D02*
D03*
X2847850Y1129550D02*
D03*
X2962150D02*
D03*
D71*
X1531550Y1219800D02*
D03*
Y1194400D02*
D03*
X1556950Y1207100D02*
D03*
Y1181700D02*
D03*
X1531550Y1169000D02*
D03*
X1556950Y1232500D02*
D03*
Y1156300D02*
D03*
X2949450Y1218450D02*
D03*
X2873250D02*
D03*
X2936750Y1193050D02*
D03*
X2924050Y1218450D02*
D03*
X2898650D02*
D03*
X2911350Y1193050D02*
D03*
X2885950D02*
D03*
D72*
X1531550Y1245200D02*
D03*
D73*
X2860550Y1193050D02*
D03*
D74*
X2980000Y1055000D02*
D03*
X2965000D02*
D03*
X2950000D02*
D03*
X2935000D02*
D03*
X2920000D02*
D03*
X2905000D02*
D03*
X2890000D02*
D03*
X2875000D02*
D03*
X2860000D02*
D03*
X2845000D02*
D03*
X2830000D02*
D03*
X2815000D02*
D03*
X2800000Y1610000D02*
D03*
Y1595000D02*
D03*
Y1566000D02*
D03*
Y1581000D02*
D03*
Y1551000D02*
D03*
Y1536000D02*
D03*
Y1505000D02*
D03*
Y1520000D02*
D03*
Y1490000D02*
D03*
Y1475000D02*
D03*
Y1445000D02*
D03*
Y1460000D02*
D03*
Y1430000D02*
D03*
Y1415000D02*
D03*
Y1385000D02*
D03*
Y1400000D02*
D03*
Y1370000D02*
D03*
Y1355000D02*
D03*
Y1325000D02*
D03*
Y1340000D02*
D03*
Y1310000D02*
D03*
Y1295000D02*
D03*
Y1265000D02*
D03*
Y1280000D02*
D03*
Y1250000D02*
D03*
Y1235000D02*
D03*
Y1205000D02*
D03*
Y1220000D02*
D03*
Y1190000D02*
D03*
Y1175000D02*
D03*
Y1145000D02*
D03*
Y1160000D02*
D03*
Y1130000D02*
D03*
Y1115000D02*
D03*
Y1085000D02*
D03*
Y1100000D02*
D03*
Y1070000D02*
D03*
Y1055000D02*
D03*
Y1025000D02*
D03*
Y1040000D02*
D03*
Y1010000D02*
D03*
Y995000D02*
D03*
Y965000D02*
D03*
Y980000D02*
D03*
Y950000D02*
D03*
Y935000D02*
D03*
Y905000D02*
D03*
Y920000D02*
D03*
Y890000D02*
D03*
Y875000D02*
D03*
X2800000Y650000D02*
D03*
Y680000D02*
D03*
Y665000D02*
D03*
Y725000D02*
D03*
Y740000D02*
D03*
Y710000D02*
D03*
Y695000D02*
D03*
Y815000D02*
D03*
Y830000D02*
D03*
Y860000D02*
D03*
Y845000D02*
D03*
Y785000D02*
D03*
Y800000D02*
D03*
Y770000D02*
D03*
Y755000D02*
D03*
X2815000Y830000D02*
D03*
X2830000D02*
D03*
X2845000D02*
D03*
X2860000D02*
D03*
X2875000D02*
D03*
X2890000D02*
D03*
X2905000D02*
D03*
X2920000D02*
D03*
X2935000D02*
D03*
X2950000D02*
D03*
X2965000D02*
D03*
X2980000D02*
D03*
D75*
X2659000Y675000D02*
D03*
Y1585000D02*
D03*
X1441000Y675000D02*
D03*
X2759000D02*
D03*
Y1585000D02*
D03*
X1441000D02*
D03*
M02*
