G04 Layer_Color=16711935*
%FSLAX44Y44*%
%MOMM*%
G71*
G01*
G75*
%ADD120C,1.6500*%
%ADD121C,1.8500*%
%ADD122C,1.9500*%
%ADD123C,3.3500*%
%ADD124C,2.5500*%
%ADD125C,2.0500*%
%ADD126C,1.5500*%
%ADD127R,1.5500X1.5500*%
%ADD128R,1.9500X1.9500*%
%ADD129R,1.9500X1.9500*%
%ADD130C,1.1500*%
G04:AMPARAMS|DCode=131|XSize=1.75mm|YSize=2.05mm|CornerRadius=0.475mm|HoleSize=0mm|Usage=FLASHONLY|Rotation=90.000|XOffset=0mm|YOffset=0mm|HoleType=Round|Shape=RoundedRectangle|*
%AMROUNDEDRECTD131*
21,1,1.7500,1.1000,0,0,90.0*
21,1,0.8000,2.0500,0,0,90.0*
1,1,0.9500,0.5500,0.4000*
1,1,0.9500,0.5500,-0.4000*
1,1,0.9500,-0.5500,-0.4000*
1,1,0.9500,-0.5500,0.4000*
%
%ADD131ROUNDEDRECTD131*%
G04:AMPARAMS|DCode=132|XSize=1.75mm|YSize=1.55mm|CornerRadius=0.425mm|HoleSize=0mm|Usage=FLASHONLY|Rotation=90.000|XOffset=0mm|YOffset=0mm|HoleType=Round|Shape=RoundedRectangle|*
%AMROUNDEDRECTD132*
21,1,1.7500,0.7000,0,0,90.0*
21,1,0.9000,1.5500,0,0,90.0*
1,1,0.8500,0.3500,0.4500*
1,1,0.8500,0.3500,-0.4500*
1,1,0.8500,-0.3500,-0.4500*
1,1,0.8500,-0.3500,0.4500*
%
%ADD132ROUNDEDRECTD132*%
%ADD133R,1.6000X0.6500*%
D120*
X1571700Y1021110D02*
D03*
X1546300D02*
D03*
X1571700Y1048110D02*
D03*
X1546300D02*
D03*
X1571700Y1075110D02*
D03*
X1546300D02*
D03*
X1903000Y702000D02*
D03*
X1859000D02*
D03*
X1536110Y775700D02*
D03*
Y750300D02*
D03*
X1467000Y912000D02*
D03*
Y868000D02*
D03*
X1416000Y922750D02*
D03*
Y859250D02*
D03*
X1876500Y998000D02*
D03*
Y1047000D02*
D03*
X1933500Y1160500D02*
D03*
X1934500Y1128500D02*
D03*
X2635000Y1536000D02*
D03*
Y1510600D02*
D03*
Y1485200D02*
D03*
X2565000D02*
D03*
Y1510600D02*
D03*
Y1536000D02*
D03*
D121*
X2147000Y1560000D02*
D03*
D122*
X2427000D02*
D03*
X1451000Y738200D02*
D03*
Y789000D02*
D03*
X2506800Y1354000D02*
D03*
Y1404800D02*
D03*
X2583000D02*
D03*
X2583170Y1311870D02*
D03*
X2506970D02*
D03*
Y1261070D02*
D03*
X2505970Y1167820D02*
D03*
Y1218620D02*
D03*
X2582170D02*
D03*
X2187200Y730000D02*
D03*
Y653800D02*
D03*
X2238000D02*
D03*
X2116000D02*
D03*
X2065200D02*
D03*
Y730000D02*
D03*
D123*
X2659000Y672500D02*
D03*
Y1587500D02*
D03*
X1441000Y672500D02*
D03*
X2759000D02*
D03*
Y1587500D02*
D03*
X1441000D02*
D03*
D124*
X1729400Y1540600D02*
D03*
Y1591400D02*
D03*
X1678600D02*
D03*
Y1540600D02*
D03*
D125*
X1704000Y1566000D02*
D03*
D126*
X2437800Y660000D02*
D03*
X2412400D02*
D03*
X2463200D02*
D03*
X2488600D02*
D03*
X2514000D02*
D03*
X2548000Y928000D02*
D03*
X2478000Y1536000D02*
D03*
Y1561400D02*
D03*
X1983000Y851000D02*
D03*
X1918000D02*
D03*
D127*
X2387000Y660000D02*
D03*
D128*
X2583000Y1354000D02*
D03*
X2583170Y1261070D02*
D03*
X2582170Y1167820D02*
D03*
D129*
X2238000Y730000D02*
D03*
X2116000D02*
D03*
D130*
X2781300Y1600200D02*
D03*
Y1549400D02*
D03*
X2768600Y1524000D02*
D03*
X2781300Y1498600D02*
D03*
X2768600Y1473200D02*
D03*
X2781300Y1447800D02*
D03*
X2768600Y1422400D02*
D03*
X2781300Y1397000D02*
D03*
X2768600Y1371600D02*
D03*
X2781300Y1346200D02*
D03*
X2768600Y1320800D02*
D03*
X2781300Y1295400D02*
D03*
X2768600Y1270000D02*
D03*
X2781300Y1244600D02*
D03*
X2768600Y1219200D02*
D03*
X2781300Y1193800D02*
D03*
X2768600Y1168400D02*
D03*
X2781300Y1143000D02*
D03*
X2768600Y1117600D02*
D03*
X2781300Y1092200D02*
D03*
X2768600Y1066800D02*
D03*
X2781300Y1041400D02*
D03*
X2768600Y1016000D02*
D03*
X2781300Y990600D02*
D03*
X2768600Y965200D02*
D03*
X2781300Y939800D02*
D03*
X2768600Y914400D02*
D03*
X2781300Y889000D02*
D03*
X2768600Y863600D02*
D03*
X2781300Y838200D02*
D03*
X2768600Y812800D02*
D03*
X2781300Y787400D02*
D03*
X2768600Y762000D02*
D03*
X2781300Y736600D02*
D03*
X2768600Y711200D02*
D03*
X2781300Y685800D02*
D03*
X2755900Y1549400D02*
D03*
Y1498600D02*
D03*
X2743200Y1473200D02*
D03*
X2755900Y990600D02*
D03*
X2743200Y965200D02*
D03*
X2755900Y939800D02*
D03*
X2743200Y914400D02*
D03*
X2755900Y889000D02*
D03*
X2743200Y863600D02*
D03*
X2755900Y838200D02*
D03*
X2743200Y812800D02*
D03*
X2755900Y787400D02*
D03*
X2743200Y762000D02*
D03*
X2755900Y736600D02*
D03*
X2743200Y711200D02*
D03*
X2730500Y1600200D02*
D03*
X2717800Y1574800D02*
D03*
X2730500Y1549400D02*
D03*
Y1397000D02*
D03*
Y1346200D02*
D03*
Y1295400D02*
D03*
Y1244600D02*
D03*
X2717800Y1219200D02*
D03*
X2730500Y1193800D02*
D03*
X2717800Y1168400D02*
D03*
X2730500Y1143000D02*
D03*
X2717800Y1117600D02*
D03*
X2730500Y1092200D02*
D03*
X2717800Y1066800D02*
D03*
X2730500Y1041400D02*
D03*
X2717800Y1016000D02*
D03*
X2730500Y939800D02*
D03*
X2717800Y914400D02*
D03*
X2730500Y889000D02*
D03*
X2717800Y863600D02*
D03*
X2730500Y838200D02*
D03*
X2717800Y812800D02*
D03*
X2730500Y787400D02*
D03*
X2717800Y762000D02*
D03*
X2730500Y736600D02*
D03*
X2717800Y711200D02*
D03*
X2730500Y685800D02*
D03*
X2717800Y660400D02*
D03*
X2705100Y1600200D02*
D03*
X2692400Y1574800D02*
D03*
X2705100Y1549400D02*
D03*
X2692400Y1524000D02*
D03*
X2705100Y1397000D02*
D03*
Y1244600D02*
D03*
X2692400Y1219200D02*
D03*
X2705100Y1193800D02*
D03*
X2692400Y1168400D02*
D03*
X2705100Y1143000D02*
D03*
X2692400Y1117600D02*
D03*
X2705100Y1092200D02*
D03*
X2692400Y1066800D02*
D03*
X2705100Y1041400D02*
D03*
X2692400Y1016000D02*
D03*
X2705100Y990600D02*
D03*
Y939800D02*
D03*
X2692400Y914400D02*
D03*
X2705100Y889000D02*
D03*
X2692400Y863600D02*
D03*
X2705100Y838200D02*
D03*
X2692400Y812800D02*
D03*
X2705100Y787400D02*
D03*
X2692400Y762000D02*
D03*
X2705100Y736600D02*
D03*
X2692400Y711200D02*
D03*
X2705100Y685800D02*
D03*
X2692400Y660400D02*
D03*
X2679700Y1600200D02*
D03*
Y1549400D02*
D03*
Y1397000D02*
D03*
Y1244600D02*
D03*
X2667000Y1219200D02*
D03*
X2679700Y1193800D02*
D03*
X2667000Y1168400D02*
D03*
X2679700Y1143000D02*
D03*
X2667000Y1117600D02*
D03*
X2679700Y1092200D02*
D03*
X2667000Y1066800D02*
D03*
X2679700Y1041400D02*
D03*
X2667000Y1016000D02*
D03*
X2679700Y990600D02*
D03*
X2667000Y965200D02*
D03*
X2679700Y889000D02*
D03*
X2667000Y863600D02*
D03*
X2679700Y838200D02*
D03*
X2667000Y812800D02*
D03*
X2679700Y787400D02*
D03*
X2667000Y762000D02*
D03*
X2679700Y736600D02*
D03*
X2667000Y711200D02*
D03*
X2679700Y685800D02*
D03*
X2654300Y1549400D02*
D03*
Y1397000D02*
D03*
Y1244600D02*
D03*
Y1193800D02*
D03*
Y1143000D02*
D03*
X2641600Y1117600D02*
D03*
X2654300Y1092200D02*
D03*
X2641600Y1066800D02*
D03*
X2654300Y1041400D02*
D03*
X2641600Y1016000D02*
D03*
X2654300Y990600D02*
D03*
X2641600Y965200D02*
D03*
X2654300Y939800D02*
D03*
Y889000D02*
D03*
X2641600Y863600D02*
D03*
X2654300Y838200D02*
D03*
X2641600Y812800D02*
D03*
X2654300Y787400D02*
D03*
X2641600Y762000D02*
D03*
X2654300Y736600D02*
D03*
X2641600Y711200D02*
D03*
X2628900Y1600200D02*
D03*
X2616200Y1574800D02*
D03*
Y1524000D02*
D03*
Y1473200D02*
D03*
Y1422400D02*
D03*
X2628900Y1397000D02*
D03*
Y1092200D02*
D03*
X2616200Y1066800D02*
D03*
X2628900Y1041400D02*
D03*
X2616200Y1016000D02*
D03*
X2628900Y990600D02*
D03*
X2616200Y965200D02*
D03*
X2628900Y939800D02*
D03*
X2616200Y914400D02*
D03*
Y863600D02*
D03*
X2628900Y838200D02*
D03*
X2616200Y812800D02*
D03*
X2628900Y787400D02*
D03*
X2616200Y762000D02*
D03*
X2628900Y736600D02*
D03*
X2616200Y711200D02*
D03*
X2628900Y685800D02*
D03*
X2616200Y660400D02*
D03*
X2603500Y1600200D02*
D03*
X2590800Y1574800D02*
D03*
Y1524000D02*
D03*
Y1473200D02*
D03*
X2603500Y1447800D02*
D03*
X2590800Y1422400D02*
D03*
X2603500Y1397000D02*
D03*
Y1092200D02*
D03*
X2590800Y1066800D02*
D03*
X2603500Y1041400D02*
D03*
X2590800Y1016000D02*
D03*
X2603500Y990600D02*
D03*
X2590800Y965200D02*
D03*
X2603500Y939800D02*
D03*
X2590800Y914400D02*
D03*
Y863600D02*
D03*
X2603500Y838200D02*
D03*
X2590800Y812800D02*
D03*
X2603500Y787400D02*
D03*
X2590800Y762000D02*
D03*
X2603500Y736600D02*
D03*
X2590800Y711200D02*
D03*
X2603500Y685800D02*
D03*
X2590800Y660400D02*
D03*
X2578100Y1600200D02*
D03*
X2565400Y1574800D02*
D03*
X2578100Y1549400D02*
D03*
Y1447800D02*
D03*
X2565400Y1422400D02*
D03*
Y1371600D02*
D03*
X2578100Y1295400D02*
D03*
Y1193800D02*
D03*
Y1143000D02*
D03*
Y1092200D02*
D03*
X2565400Y1066800D02*
D03*
X2578100Y1041400D02*
D03*
X2565400Y1016000D02*
D03*
X2578100Y990600D02*
D03*
X2565400Y965200D02*
D03*
X2578100Y939800D02*
D03*
X2565400Y914400D02*
D03*
Y863600D02*
D03*
X2578100Y838200D02*
D03*
Y787400D02*
D03*
X2565400Y762000D02*
D03*
X2578100Y736600D02*
D03*
X2565400Y711200D02*
D03*
X2578100Y685800D02*
D03*
X2565400Y660400D02*
D03*
X2552700Y1600200D02*
D03*
X2540000Y1574800D02*
D03*
X2552700Y1549400D02*
D03*
X2540000Y1524000D02*
D03*
X2552700Y1498600D02*
D03*
X2540000Y1473200D02*
D03*
Y1422400D02*
D03*
Y1371600D02*
D03*
X2552700Y1346200D02*
D03*
Y1295400D02*
D03*
X2540000Y1270000D02*
D03*
X2552700Y1244600D02*
D03*
Y1193800D02*
D03*
X2540000Y1168400D02*
D03*
X2552700Y1143000D02*
D03*
Y1092200D02*
D03*
X2540000Y1066800D02*
D03*
X2552700Y1041400D02*
D03*
X2540000Y1016000D02*
D03*
X2552700Y990600D02*
D03*
X2540000Y965200D02*
D03*
Y914400D02*
D03*
Y812800D02*
D03*
Y762000D02*
D03*
X2552700Y736600D02*
D03*
X2540000Y711200D02*
D03*
X2552700Y685800D02*
D03*
X2540000Y660400D02*
D03*
X2527300Y1600200D02*
D03*
X2514600Y1574800D02*
D03*
X2527300Y1549400D02*
D03*
X2514600Y1524000D02*
D03*
X2527300Y1498600D02*
D03*
X2514600Y1473200D02*
D03*
Y1422400D02*
D03*
Y1371600D02*
D03*
X2527300Y1346200D02*
D03*
Y1295400D02*
D03*
Y1244600D02*
D03*
Y1193800D02*
D03*
Y1143000D02*
D03*
Y1092200D02*
D03*
X2514600Y1066800D02*
D03*
X2527300Y1041400D02*
D03*
X2514600Y1016000D02*
D03*
X2527300Y990600D02*
D03*
X2514600Y965200D02*
D03*
Y762000D02*
D03*
X2527300Y736600D02*
D03*
X2514600Y711200D02*
D03*
X2527300Y685800D02*
D03*
X2501900Y1600200D02*
D03*
X2489200Y1574800D02*
D03*
X2501900Y1549400D02*
D03*
Y1498600D02*
D03*
X2489200Y1320800D02*
D03*
X2501900Y1193800D02*
D03*
Y1143000D02*
D03*
Y1092200D02*
D03*
X2489200Y1066800D02*
D03*
X2501900Y1041400D02*
D03*
X2489200Y1016000D02*
D03*
X2501900Y990600D02*
D03*
X2489200Y965200D02*
D03*
X2501900Y939800D02*
D03*
X2489200Y914400D02*
D03*
X2501900Y889000D02*
D03*
X2489200Y863600D02*
D03*
X2501900Y838200D02*
D03*
X2489200Y812800D02*
D03*
X2501900Y787400D02*
D03*
X2489200Y762000D02*
D03*
X2501900Y736600D02*
D03*
X2489200Y711200D02*
D03*
X2501900Y685800D02*
D03*
X2476500Y1600200D02*
D03*
X2463800Y1574800D02*
D03*
Y1524000D02*
D03*
X2476500Y1346200D02*
D03*
X2463800Y1320800D02*
D03*
X2476500Y1244600D02*
D03*
X2463800Y1219200D02*
D03*
Y1168400D02*
D03*
X2476500Y1143000D02*
D03*
Y1092200D02*
D03*
X2463800Y1066800D02*
D03*
X2476500Y1041400D02*
D03*
X2463800Y1016000D02*
D03*
X2476500Y990600D02*
D03*
X2463800Y965200D02*
D03*
Y812800D02*
D03*
X2476500Y787400D02*
D03*
X2463800Y762000D02*
D03*
X2476500Y736600D02*
D03*
X2451100Y1600200D02*
D03*
Y1498600D02*
D03*
X2438400Y1473200D02*
D03*
X2451100Y1447800D02*
D03*
Y1244600D02*
D03*
Y1143000D02*
D03*
Y1092200D02*
D03*
X2438400Y1066800D02*
D03*
X2451100Y1041400D02*
D03*
X2438400Y1016000D02*
D03*
X2451100Y990600D02*
D03*
Y939800D02*
D03*
X2438400Y914400D02*
D03*
X2451100Y889000D02*
D03*
X2438400Y863600D02*
D03*
X2451100Y838200D02*
D03*
X2438400Y812800D02*
D03*
X2451100Y787400D02*
D03*
X2438400Y762000D02*
D03*
X2451100Y736600D02*
D03*
X2425700Y1600200D02*
D03*
Y1498600D02*
D03*
X2413000Y1473200D02*
D03*
X2425700Y1447800D02*
D03*
X2413000Y1270000D02*
D03*
Y1168400D02*
D03*
X2425700Y1143000D02*
D03*
Y1092200D02*
D03*
X2413000Y1066800D02*
D03*
X2425700Y1041400D02*
D03*
X2413000Y1016000D02*
D03*
Y965200D02*
D03*
X2425700Y939800D02*
D03*
Y889000D02*
D03*
Y838200D02*
D03*
Y787400D02*
D03*
X2413000Y762000D02*
D03*
X2425700Y736600D02*
D03*
Y685800D02*
D03*
X2400300Y1600200D02*
D03*
X2387600Y1574800D02*
D03*
X2400300Y1498600D02*
D03*
X2387600Y1473200D02*
D03*
X2400300Y1447800D02*
D03*
Y1397000D02*
D03*
X2387600Y1371600D02*
D03*
X2400300Y1346200D02*
D03*
Y1244600D02*
D03*
X2387600Y1219200D02*
D03*
X2400300Y1143000D02*
D03*
Y1092200D02*
D03*
X2387600Y1066800D02*
D03*
X2400300Y1041400D02*
D03*
X2387600Y1016000D02*
D03*
Y965200D02*
D03*
Y762000D02*
D03*
X2400300Y736600D02*
D03*
X2374900Y1600200D02*
D03*
X2362200Y1574800D02*
D03*
X2374900Y1549400D02*
D03*
Y1498600D02*
D03*
X2362200Y1473200D02*
D03*
X2374900Y1447800D02*
D03*
Y1397000D02*
D03*
X2362200Y1371600D02*
D03*
X2374900Y1346200D02*
D03*
X2362200Y1219200D02*
D03*
X2374900Y1092200D02*
D03*
X2362200Y1066800D02*
D03*
X2374900Y1041400D02*
D03*
X2362200Y1016000D02*
D03*
Y965200D02*
D03*
X2374900Y939800D02*
D03*
X2362200Y914400D02*
D03*
X2374900Y889000D02*
D03*
X2362200Y863600D02*
D03*
X2374900Y736600D02*
D03*
X2349500Y1600200D02*
D03*
X2336800Y1574800D02*
D03*
X2349500Y1549400D02*
D03*
Y1498600D02*
D03*
X2336800Y1473200D02*
D03*
X2349500Y1447800D02*
D03*
X2336800Y1422400D02*
D03*
X2349500Y1346200D02*
D03*
X2336800Y1219200D02*
D03*
X2349500Y1193800D02*
D03*
Y1092200D02*
D03*
X2336800Y1066800D02*
D03*
X2349500Y1041400D02*
D03*
X2336800Y1016000D02*
D03*
Y965200D02*
D03*
X2349500Y939800D02*
D03*
X2336800Y914400D02*
D03*
X2349500Y889000D02*
D03*
Y736600D02*
D03*
X2324100Y1600200D02*
D03*
X2311400Y1574800D02*
D03*
X2324100Y1549400D02*
D03*
Y1498600D02*
D03*
X2311400Y1473200D02*
D03*
X2324100Y1447800D02*
D03*
X2311400Y1422400D02*
D03*
X2324100Y1397000D02*
D03*
X2311400Y1371600D02*
D03*
Y1219200D02*
D03*
X2324100Y1193800D02*
D03*
Y1092200D02*
D03*
X2311400Y1066800D02*
D03*
X2324100Y1041400D02*
D03*
X2311400Y1016000D02*
D03*
Y965200D02*
D03*
X2324100Y939800D02*
D03*
X2311400Y914400D02*
D03*
X2324100Y889000D02*
D03*
X2311400Y812800D02*
D03*
X2324100Y787400D02*
D03*
Y685800D02*
D03*
X2311400Y660400D02*
D03*
X2298700Y1600200D02*
D03*
X2286000Y1574800D02*
D03*
X2298700Y1549400D02*
D03*
Y1498600D02*
D03*
X2286000Y1473200D02*
D03*
X2298700Y1447800D02*
D03*
X2286000Y1422400D02*
D03*
X2298700Y1397000D02*
D03*
Y1092200D02*
D03*
X2286000Y1066800D02*
D03*
X2298700Y1041400D02*
D03*
X2286000Y1016000D02*
D03*
Y965200D02*
D03*
X2298700Y939800D02*
D03*
X2286000Y863600D02*
D03*
X2298700Y838200D02*
D03*
X2286000Y812800D02*
D03*
X2273300Y1600200D02*
D03*
X2260600Y1574800D02*
D03*
X2273300Y1549400D02*
D03*
Y1498600D02*
D03*
X2260600Y1473200D02*
D03*
X2273300Y1447800D02*
D03*
X2260600Y1422400D02*
D03*
X2273300Y1397000D02*
D03*
X2260600Y1066800D02*
D03*
X2273300Y1041400D02*
D03*
X2260600Y1016000D02*
D03*
Y965200D02*
D03*
X2273300Y939800D02*
D03*
X2260600Y863600D02*
D03*
X2273300Y838200D02*
D03*
X2260600Y812800D02*
D03*
Y711200D02*
D03*
X2273300Y685800D02*
D03*
X2260600Y660400D02*
D03*
X2247900Y1600200D02*
D03*
X2235200Y1574800D02*
D03*
X2247900Y1549400D02*
D03*
X2235200Y1524000D02*
D03*
Y1473200D02*
D03*
X2247900Y1447800D02*
D03*
X2235200Y1422400D02*
D03*
X2247900Y1397000D02*
D03*
X2235200Y1066800D02*
D03*
X2247900Y1041400D02*
D03*
X2235200Y1016000D02*
D03*
Y711200D02*
D03*
X2247900Y685800D02*
D03*
X2222500Y1600200D02*
D03*
X2209800Y1574800D02*
D03*
X2222500Y1549400D02*
D03*
X2209800Y1524000D02*
D03*
X2222500Y1447800D02*
D03*
X2209800Y1422400D02*
D03*
X2222500Y1397000D02*
D03*
Y1041400D02*
D03*
Y889000D02*
D03*
Y838200D02*
D03*
X2209800Y762000D02*
D03*
Y711200D02*
D03*
X2222500Y685800D02*
D03*
X2209800Y660400D02*
D03*
X2197100Y1600200D02*
D03*
X2184400Y1574800D02*
D03*
X2197100Y1549400D02*
D03*
X2184400Y1524000D02*
D03*
X2197100Y1498600D02*
D03*
X2184400Y1422400D02*
D03*
X2197100Y1397000D02*
D03*
Y1041400D02*
D03*
Y685800D02*
D03*
X2171700Y1600200D02*
D03*
X2159000Y1574800D02*
D03*
X2171700Y1549400D02*
D03*
X2159000Y1524000D02*
D03*
X2171700Y1498600D02*
D03*
X2159000Y1473200D02*
D03*
X2171700Y1447800D02*
D03*
Y1397000D02*
D03*
Y939800D02*
D03*
Y889000D02*
D03*
Y838200D02*
D03*
X2159000Y711200D02*
D03*
X2171700Y685800D02*
D03*
X2159000Y660400D02*
D03*
X2146300Y1600200D02*
D03*
X2133600Y1574800D02*
D03*
Y1524000D02*
D03*
X2146300Y1498600D02*
D03*
X2133600Y1473200D02*
D03*
X2146300Y1447800D02*
D03*
X2133600Y1422400D02*
D03*
Y914400D02*
D03*
Y863600D02*
D03*
X2146300Y787400D02*
D03*
X2133600Y762000D02*
D03*
X2146300Y736600D02*
D03*
X2133600Y711200D02*
D03*
X2146300Y685800D02*
D03*
X2133600Y660400D02*
D03*
X2120900Y1600200D02*
D03*
X2108200Y1574800D02*
D03*
X2120900Y1549400D02*
D03*
X2108200Y1524000D02*
D03*
X2120900Y1498600D02*
D03*
X2108200Y1473200D02*
D03*
X2120900Y1447800D02*
D03*
X2108200Y1422400D02*
D03*
X2120900Y1397000D02*
D03*
Y889000D02*
D03*
X2108200Y863600D02*
D03*
X2120900Y838200D02*
D03*
Y787400D02*
D03*
X2095500Y1600200D02*
D03*
X2082800Y1574800D02*
D03*
X2095500Y1549400D02*
D03*
X2082800Y1524000D02*
D03*
X2095500Y1498600D02*
D03*
X2082800Y1473200D02*
D03*
X2095500Y1447800D02*
D03*
X2082800Y1422400D02*
D03*
X2095500Y1397000D02*
D03*
X2082800Y1371600D02*
D03*
X2095500Y889000D02*
D03*
X2082800Y863600D02*
D03*
X2095500Y838200D02*
D03*
X2082800Y812800D02*
D03*
X2095500Y736600D02*
D03*
X2082800Y711200D02*
D03*
X2095500Y685800D02*
D03*
X2082800Y660400D02*
D03*
X2070100Y1600200D02*
D03*
X2057400Y1574800D02*
D03*
X2070100Y1549400D02*
D03*
X2057400Y1524000D02*
D03*
X2070100Y1498600D02*
D03*
X2057400Y1473200D02*
D03*
X2070100Y1447800D02*
D03*
X2057400Y1422400D02*
D03*
X2070100Y1397000D02*
D03*
X2057400Y1371600D02*
D03*
X2070100Y1346200D02*
D03*
X2057400Y1320800D02*
D03*
X2070100Y889000D02*
D03*
X2057400Y863600D02*
D03*
X2070100Y838200D02*
D03*
X2057400Y812800D02*
D03*
X2070100Y787400D02*
D03*
X2044700Y1549400D02*
D03*
Y1498600D02*
D03*
X2032000Y1422400D02*
D03*
X2044700Y1397000D02*
D03*
X2032000Y1371600D02*
D03*
X2044700Y1346200D02*
D03*
X2032000Y1320800D02*
D03*
Y863600D02*
D03*
Y812800D02*
D03*
X2044700Y736600D02*
D03*
X2032000Y711200D02*
D03*
X2044700Y685800D02*
D03*
X2032000Y660400D02*
D03*
X2019300Y1600200D02*
D03*
X2006600Y1574800D02*
D03*
X2019300Y1549400D02*
D03*
X2006600Y1524000D02*
D03*
X2019300Y1498600D02*
D03*
X2006600Y1473200D02*
D03*
Y1422400D02*
D03*
X2019300Y1397000D02*
D03*
X2006600Y1371600D02*
D03*
X2019300Y1346200D02*
D03*
X2006600Y1320800D02*
D03*
X2019300Y889000D02*
D03*
X2006600Y863600D02*
D03*
X2019300Y838200D02*
D03*
X2006600Y812800D02*
D03*
X2019300Y787400D02*
D03*
X2006600Y762000D02*
D03*
X2019300Y736600D02*
D03*
X2006600Y711200D02*
D03*
X2019300Y685800D02*
D03*
X2006600Y660400D02*
D03*
X1981200Y1574800D02*
D03*
X1993900Y1549400D02*
D03*
X1981200Y1524000D02*
D03*
X1993900Y1498600D02*
D03*
X1981200Y1473200D02*
D03*
X1993900Y1447800D02*
D03*
X1981200Y1422400D02*
D03*
X1993900Y1397000D02*
D03*
X1981200Y1371600D02*
D03*
X1993900Y1346200D02*
D03*
X1981200Y1320800D02*
D03*
X1993900Y889000D02*
D03*
Y838200D02*
D03*
X1981200Y812800D02*
D03*
X1993900Y787400D02*
D03*
X1981200Y762000D02*
D03*
X1993900Y736600D02*
D03*
X1981200Y711200D02*
D03*
X1993900Y685800D02*
D03*
X1981200Y660400D02*
D03*
X1968500Y889000D02*
D03*
X1955800Y863600D02*
D03*
X1968500Y838200D02*
D03*
X1955800Y812800D02*
D03*
Y762000D02*
D03*
X1968500Y736600D02*
D03*
X1955800Y711200D02*
D03*
X1968500Y685800D02*
D03*
X1955800Y660400D02*
D03*
X1930400Y1574800D02*
D03*
Y1219200D02*
D03*
Y965200D02*
D03*
X1943100Y889000D02*
D03*
X1930400Y863600D02*
D03*
X1943100Y838200D02*
D03*
X1930400Y812800D02*
D03*
X1943100Y787400D02*
D03*
X1930400Y762000D02*
D03*
X1943100Y685800D02*
D03*
X1917700Y1549400D02*
D03*
Y1498600D02*
D03*
X1905000Y1473200D02*
D03*
X1917700Y1447800D02*
D03*
X1905000Y1422400D02*
D03*
Y1168400D02*
D03*
X1917700Y1143000D02*
D03*
X1905000Y965200D02*
D03*
X1917700Y889000D02*
D03*
X1905000Y863600D02*
D03*
Y812800D02*
D03*
X1917700Y787400D02*
D03*
X1905000Y762000D02*
D03*
Y660400D02*
D03*
X1879600Y1574800D02*
D03*
X1892300Y1549400D02*
D03*
X1879600Y1524000D02*
D03*
X1892300Y1498600D02*
D03*
X1879600Y1473200D02*
D03*
Y1422400D02*
D03*
X1892300Y1397000D02*
D03*
Y1041400D02*
D03*
X1879600Y1016000D02*
D03*
X1892300Y990600D02*
D03*
Y889000D02*
D03*
X1879600Y812800D02*
D03*
X1892300Y787400D02*
D03*
X1879600Y762000D02*
D03*
X1892300Y685800D02*
D03*
X1879600Y660400D02*
D03*
X1866900Y1549400D02*
D03*
X1854200Y1524000D02*
D03*
X1866900Y1498600D02*
D03*
X1854200Y1473200D02*
D03*
X1866900Y1397000D02*
D03*
Y1143000D02*
D03*
X1854200Y1117600D02*
D03*
Y1016000D02*
D03*
X1866900Y838200D02*
D03*
X1854200Y812800D02*
D03*
Y762000D02*
D03*
X1866900Y685800D02*
D03*
X1841500Y1549400D02*
D03*
Y1498600D02*
D03*
X1828800Y1473200D02*
D03*
Y1117600D02*
D03*
X1841500Y1092200D02*
D03*
X1828800Y1016000D02*
D03*
Y914400D02*
D03*
Y863600D02*
D03*
X1841500Y838200D02*
D03*
X1828800Y762000D02*
D03*
X1816100Y1600200D02*
D03*
X1803400Y1574800D02*
D03*
X1816100Y1549400D02*
D03*
X1803400Y1524000D02*
D03*
Y1422400D02*
D03*
X1816100Y1092200D02*
D03*
X1803400Y1066800D02*
D03*
X1816100Y1041400D02*
D03*
X1803400Y1016000D02*
D03*
X1816100Y838200D02*
D03*
X1803400Y812800D02*
D03*
X1816100Y787400D02*
D03*
X1803400Y762000D02*
D03*
X1816100Y736600D02*
D03*
X1803400Y711200D02*
D03*
X1816100Y685800D02*
D03*
X1790700Y1600200D02*
D03*
X1778000Y1574800D02*
D03*
X1790700Y1549400D02*
D03*
X1778000Y1524000D02*
D03*
X1790700Y1447800D02*
D03*
X1778000Y1422400D02*
D03*
X1790700Y1397000D02*
D03*
X1778000Y1371600D02*
D03*
X1790700Y1041400D02*
D03*
X1778000Y1016000D02*
D03*
X1790700Y838200D02*
D03*
X1778000Y812800D02*
D03*
X1790700Y787400D02*
D03*
X1778000Y711200D02*
D03*
X1765300Y1600200D02*
D03*
X1752600Y1574800D02*
D03*
X1765300Y1549400D02*
D03*
X1752600Y1524000D02*
D03*
X1765300Y1447800D02*
D03*
X1752600Y1371600D02*
D03*
Y1320800D02*
D03*
Y1270000D02*
D03*
X1765300Y787400D02*
D03*
Y685800D02*
D03*
X1752600Y660400D02*
D03*
X1727200Y1422400D02*
D03*
X1739900Y1397000D02*
D03*
X1727200Y1371600D02*
D03*
X1739900Y1346200D02*
D03*
X1727200Y1320800D02*
D03*
X1739900Y1295400D02*
D03*
X1727200Y1270000D02*
D03*
X1701800Y1524000D02*
D03*
X1714500Y1498600D02*
D03*
X1701800Y1473200D02*
D03*
Y1422400D02*
D03*
X1714500Y1397000D02*
D03*
X1701800Y1371600D02*
D03*
X1714500Y1346200D02*
D03*
X1701800Y1320800D02*
D03*
X1714500Y1295400D02*
D03*
X1701800Y1270000D02*
D03*
Y863600D02*
D03*
X1714500Y838200D02*
D03*
X1701800Y812800D02*
D03*
X1714500Y787400D02*
D03*
Y736600D02*
D03*
X1689100Y1498600D02*
D03*
Y1447800D02*
D03*
X1676400Y1422400D02*
D03*
X1689100Y1397000D02*
D03*
X1676400Y1371600D02*
D03*
X1689100Y1346200D02*
D03*
X1676400Y1320800D02*
D03*
X1689100Y1295400D02*
D03*
X1676400Y863600D02*
D03*
X1689100Y838200D02*
D03*
X1676400Y812800D02*
D03*
X1689100Y787400D02*
D03*
X1651000Y1574800D02*
D03*
X1663700Y1498600D02*
D03*
Y1447800D02*
D03*
X1651000Y1422400D02*
D03*
X1663700Y1397000D02*
D03*
X1651000Y1371600D02*
D03*
X1663700Y1346200D02*
D03*
X1651000Y1320800D02*
D03*
X1663700Y1295400D02*
D03*
X1651000Y1270000D02*
D03*
Y914400D02*
D03*
X1663700Y889000D02*
D03*
Y838200D02*
D03*
Y787400D02*
D03*
X1638300Y1600200D02*
D03*
X1625600Y1574800D02*
D03*
X1638300Y1447800D02*
D03*
X1625600Y1422400D02*
D03*
X1638300Y1397000D02*
D03*
X1625600Y1371600D02*
D03*
X1638300Y1346200D02*
D03*
X1625600Y1270000D02*
D03*
X1638300Y1193800D02*
D03*
X1625600Y1168400D02*
D03*
Y1117600D02*
D03*
X1612900Y1600200D02*
D03*
X1600200Y1574800D02*
D03*
X1612900Y1549400D02*
D03*
X1600200Y1524000D02*
D03*
X1612900Y1498600D02*
D03*
Y1447800D02*
D03*
Y1397000D02*
D03*
Y1295400D02*
D03*
Y1193800D02*
D03*
Y1143000D02*
D03*
X1600200Y965200D02*
D03*
Y914400D02*
D03*
X1612900Y889000D02*
D03*
Y787400D02*
D03*
X1587500Y1600200D02*
D03*
Y1549400D02*
D03*
Y1498600D02*
D03*
X1574800Y1473200D02*
D03*
X1587500Y1346200D02*
D03*
X1574800Y1219200D02*
D03*
X1587500Y1193800D02*
D03*
X1574800Y1117600D02*
D03*
X1587500Y1092200D02*
D03*
X1574800Y965200D02*
D03*
Y914400D02*
D03*
X1587500Y889000D02*
D03*
X1574800Y762000D02*
D03*
X1587500Y736600D02*
D03*
X1574800Y711200D02*
D03*
X1587500Y685800D02*
D03*
X1562100Y1549400D02*
D03*
Y1498600D02*
D03*
Y1397000D02*
D03*
X1549400Y1371600D02*
D03*
X1562100Y1346200D02*
D03*
X1549400Y1320800D02*
D03*
X1562100Y1295400D02*
D03*
Y1244600D02*
D03*
Y1193800D02*
D03*
X1549400Y1117600D02*
D03*
X1562100Y990600D02*
D03*
X1549400Y965200D02*
D03*
X1562100Y939800D02*
D03*
X1549400Y914400D02*
D03*
X1562100Y889000D02*
D03*
Y838200D02*
D03*
Y787400D02*
D03*
Y736600D02*
D03*
Y685800D02*
D03*
X1536700Y1549400D02*
D03*
Y1498600D02*
D03*
Y1397000D02*
D03*
Y1346200D02*
D03*
X1524000Y1320800D02*
D03*
Y1168400D02*
D03*
Y1117600D02*
D03*
Y1016000D02*
D03*
X1536700Y990600D02*
D03*
X1524000Y965200D02*
D03*
X1536700Y939800D02*
D03*
X1524000Y863600D02*
D03*
Y812800D02*
D03*
Y711200D02*
D03*
Y660400D02*
D03*
X1498600Y1168400D02*
D03*
Y1117600D02*
D03*
X1511300Y1041400D02*
D03*
X1498600Y1016000D02*
D03*
Y812800D02*
D03*
X1511300Y787400D02*
D03*
Y736600D02*
D03*
X1498600Y711200D02*
D03*
X1511300Y685800D02*
D03*
X1498600Y660400D02*
D03*
X1485900Y1600200D02*
D03*
X1473200Y1574800D02*
D03*
X1485900Y1498600D02*
D03*
X1473200Y1473200D02*
D03*
X1485900Y1447800D02*
D03*
X1473200Y1422400D02*
D03*
X1485900Y1397000D02*
D03*
X1473200Y1371600D02*
D03*
X1485900Y1244600D02*
D03*
X1473200Y1117600D02*
D03*
X1485900Y1041400D02*
D03*
X1473200Y812800D02*
D03*
X1485900Y787400D02*
D03*
Y736600D02*
D03*
X1473200Y711200D02*
D03*
X1485900Y685800D02*
D03*
X1473200Y660400D02*
D03*
X1460500Y1549400D02*
D03*
X1447800Y1524000D02*
D03*
X1460500Y1295400D02*
D03*
Y1244600D02*
D03*
Y1143000D02*
D03*
Y1092200D02*
D03*
Y1041400D02*
D03*
Y838200D02*
D03*
X1447800Y812800D02*
D03*
Y762000D02*
D03*
Y711200D02*
D03*
X1435100Y1549400D02*
D03*
X1422400Y1524000D02*
D03*
Y1473200D02*
D03*
Y1422400D02*
D03*
Y1371600D02*
D03*
X1435100Y1346200D02*
D03*
X1422400Y1320800D02*
D03*
Y1270000D02*
D03*
Y1219200D02*
D03*
Y1168400D02*
D03*
X1435100Y1143000D02*
D03*
X1422400Y1117600D02*
D03*
Y1016000D02*
D03*
Y965200D02*
D03*
Y812800D02*
D03*
Y762000D02*
D03*
Y711200D02*
D03*
D131*
X1416000Y903500D02*
D03*
Y878500D02*
D03*
D132*
X1440000Y923000D02*
D03*
Y859000D02*
D03*
D133*
X1442750Y878000D02*
D03*
Y884500D02*
D03*
Y891000D02*
D03*
Y897500D02*
D03*
Y904000D02*
D03*
M02*
