M48
;Layer_Color=9474304
;FILE_FORMAT=4:4
METRIC,LZ
;TYPE=PLATED
T1F00S00C0.5000
T2F00S00C0.9000
T3F00S00C1.0000
T4F00S00C1.1000
T5F00S00C1.3000
T6F00S00C1.5000
T7F00S00C1.8000
T8F00S00C3.2000
%
T01
X027813Y006858
Y007366
Y007874
X027559
X027305
X027051
X026797
X026543
X026289
X026035
X025781
X025908Y00762
X026162
X026416
X02667
X026924
X027178
X027432
X027686
X027559Y007366
X027305
X027051
X026797
X026543
X026289
X026035
X025781
X025527
X025273
X025019
X024765
X024511
X024257
X024003
X02413Y00762
X024384
X024638
X024892
X025146
X0254
X025654
Y007112
X025908
X026162
X026416
X02667
X026924
X027178
X027432
X027686
X027305Y006858
X027051
X026797
X026924Y006604
X027178
X026162
X025908
X025654
X0254
X025527Y006858
X025781
X026035
X026289
X025273
X025019
X025146Y007112
X0254
X024892
X025019Y007874
X024765
X024511
X024257
X023876Y00762
X024257Y006858
X023749Y007366
X023495
X023241Y007874
Y006858
X023114Y006604
X022606
X022733Y006858
X022479
X022225
X021971
X021717
X021463
X02159Y007112
X021336
X021463Y007366
X021336Y00762
X021463Y007874
X021209
X020701
X020193
X019939
X020066Y00762
X020193Y007366
X020447
X02032Y007112
X020066
X020193Y006858
X020447
X02032Y006604
X020066
X019939Y006858
Y007366
X020955
X020828Y007112
X020955Y006858
X020828Y006604
X021336
X02159
X022098
Y007112
X022352
X022606
X02229Y00773
X022098Y00762
X019812
X019558
X019304
X01905
X018796
X018542
X018288
X018034
X018161Y007874
X017907
X017653
X017145
X016891
X016637
X016129
X015875Y007366
Y006858
X01624Y00718
X01654Y00715
X01672Y00722
X0169
X01681Y007325
X017145Y007366
X01778Y007112
X018034
X018161Y007366
Y006858
X018669
X018923
X01905Y006604
X018796
X019558
X019812
X019685Y006858
X019431
X019558Y007112
X019812
X019685Y007366
X019431Y007874
X019177
X018923
X017653Y006858
X017526Y006604
X015621Y006858
X015748Y007112
X015621Y007366
X015748Y00762
X015621Y007874
X015113
X014859
Y007366
X015113
X01524Y007112
X014986
X014732
X014478
X014224
Y00762
X014478
X014859Y006858
X015113
X01524Y006604
X014986
X014732
Y008128
X014986
X01524
Y008636
X01523Y00906
X015494Y009144
X015748
X015621Y009398
X015367
X015494Y009652
X015748
X015621Y009906
X015367
X01524Y01016
X014986
X015113Y010414
X014859
X014605
X01474935Y0105825
X014605Y010922
X014732Y011176
X014986
X01524
X015494
X015748
X01525Y01088001
X01524Y011684
X014986
X01497Y0119
X014605Y01143
X014351
X014224Y011684
Y011176
Y01016
Y009652
X01451625Y00978375
X01524Y009652
X015621Y00889
Y008382
X014605
X014478Y008128
X014224
X0146Y00891
X01472Y00896002
X015875Y00889
X016129
X016002Y009144
X01651
X016637Y00889
X016764Y008636
X017018
X017145Y008382
X016891
X016637
X016764Y008128
X017018
X01778
X018034
X018161Y008382
X018415
X018669
X018796Y008128
X01905
X019304
X019558
X019812
X019685Y008382
X019431
X019558Y008636
X019304
X01905
X019177Y00889
X019431
X019685
X01969Y00952
X019304Y009652
X01905
X018923Y009906
X018796Y01016
X018542
X018288
X018034
X01778
X0176Y01017
X017907Y010414
X018161
X018034Y010668
X01787Y01069
X01771Y01082
Y01106
X0177Y01142
X01787Y01132
X018288Y011176
X018542
X018669Y01143
X019177
X01905Y011684
X018923Y010414
X018415Y010922
X018161
X01816Y00982
X018288Y009144
Y008636
X017907Y008382
X018542Y008128
X018923Y00889
X01768999Y00943001
X01713064Y009355
X01727Y00976
X0174Y01054
X01715Y01056
X01653999Y01057001
X0164Y00997
X01591Y01009
X016002Y009652
X015875Y010922
X016256Y011176
X016129Y01143
X016256Y011684
X0168Y01169
X01672Y01189
X01715Y01181
Y01158
X01764Y0117
X0198325Y01079
X01984Y01002
X02018999Y01014001
X02028Y01049
X02047Y01055
X02037Y01099
Y01127
X02020999Y01129001
X02021Y01115
X02075Y01124
X02062Y01137
X02077Y01099
X02109Y01105
X02122Y01094
X02135Y01089
X02181998Y01084001
X02215Y011
X0222Y01114
X0225Y01119
X02252Y01135
Y01102
X02267
X02281Y01112
X02297Y01123
X0231Y01133
X022987Y010922
X023241
X023495
X023749
X023622Y010668
X023368
X023114
X02286
X022606
X022352
X022479Y010414
X022733
X022987
X023241
X023495
X023749
X023622Y01016
X023368
X023114
X02286
X022606
X022352
X022225Y010414
X021971
X02218Y00974
X02207Y00957
X02232Y00945
X022733Y009398
X022987
X023241
X023495
X023749
X023622Y009652
X023368
X023114
X02286
X022606
X02244Y009
X022225Y00889
Y008382
X022733
X022987
X023114Y008128
X02286
X022606
X02271Y00801
X022606Y008636
X02286
X023241Y00889
X023495
X023749
X023622Y009144
X023368
X023114
X023622Y008636
X021717Y00889
Y009398
X02152Y00949
X02104Y00946
X02087Y00935
X02068Y00945
X02067Y00924
X02059Y00912
X02035
X02031Y00934
X02013Y00923
X020193Y00889
X019939
X020066Y008636
X02032
Y00849
X020193Y008382
X019939
X020066Y008128
X02032
X020574
X020828
X020955Y008382
X021209
X021336Y008636
X021082
X020828
X02068Y00855
X020701Y008382
X020574Y008636
X020701Y00889
X02084Y00899
X020955Y00889
X021209
X021336Y009144
X02196998Y00927001
X021717Y008382
X02149Y00805
X02102Y01001
X02047Y00991
X02106Y01154
X02131Y01144
X02139Y0116
X02234Y01187
X02413Y011684
X024295Y011825
X024257Y01143
X024511
X024765
X025019
X025273
X025527
X025781
Y010922
X026035
X026289
X026543
X026797
X027051
X027305
X027178Y011176
X026924
X02667
X026416
X026543Y01143
X026797
X027051
X027305
X027178Y011684
X026924
X02667
X027686
Y011176
Y010668
Y01016
X027559Y009906
X027686Y009652
X027432
X027559Y009398
X027305
X027051
X027178Y009144
X027432
X027686
X027559Y00889
X027305
X027051
X026797
X026543
X02667Y008636
X026924
X027178
X027432
X027686
X027559Y008382
X027305
X027051
X026797
X026543
X026289
X026035
X025781
X025908Y008636
X026162
X026416
Y008128
X02667
X026924
X027178
X027432
X027686
X026162
X025908
X0254
X024892
X024638
X024384
X024511Y008382
X024257
X024384Y008636
X024511Y00889
X024257
X024384Y009144
X024511Y009398
X024257
X02413Y009652
X023876
Y01016
X02413
X024384
X024638
X024892
X025146
X0254
X025654
X025908
X026162
X026416
X02667
X026924
X027178
X027305Y010414
X027051
X026797
X026543
X026289
X026035
X025781
X025527
X025273
X025019
X024765
X024511
X024257
X024003
X02413Y010668
X024384
X024638
X024892
X025146
X0254
X025654
X025908
X026162
X026416
X02667
X026924
X027178
X027051Y009906
X026797
X026543
X026289
X026035
X025781
X025527
X025273
X025019
X024765
X024511
X024638Y009652
X024892
X025146
X0254
X025654
X025908
X026162
X026416
X02667
X026543Y009398
X026289
X026035
X025781
X025908Y009144
X026162
X025654
X0254
X024892
X025019Y009398
Y00889
X024892Y008636
X025019Y008382
X025654Y008636
X026924Y009144
X025527Y010922
X025273
X025019
X024765
X024511
X024257
X024003
X023876Y010668
X024003Y01143
X024638Y011684
X0254
X027813Y01143
Y010922
Y010414
Y009906
Y009398
Y00889
Y008382
Y011938
Y012446
Y012954
Y013462
Y01397
Y014478
Y014986
Y015494
X027559
X027305
X027051
X026797
X026543
X026924Y015748
X027178
X02721Y01529
X02737Y01527
X027686Y01524
X027559Y014986
X027686Y014732
X027432
X027686Y014224
Y013716
Y013208
Y0127
Y012192
X027178
X026924
X02667
X026797Y012446
X027051
X027305
Y012954
Y013462
Y01397
X027051
X026797
X026543
X026289
X026035
X026162Y014224
X025908
X025654
X0254
X025146
X02488Y01426
X02489Y01469
X02461
X024384Y014732
X02413
X023876
X024003Y014986
X024257
X024511
X024638Y01524
X025146
X0254
X025527Y015494
X025781
X025908Y015748
X026162
Y01524
X025908
Y014732
X026162
X026035Y014478
X025781
X0254Y014732
X025146
X025273Y014986
X025527
X025019
Y015494
X025273
X0254Y015748
X025654
X025146
X024892
X024638
X023876
X024003Y014478
X024257
X024511
X024003Y01397
X023876Y013716
X024003Y013462
X02449Y01347
X024765Y013462
X024892Y013208
X024638
X02451Y01259
X024511Y012446
X024765
X024638Y012192
X025019Y011938
X025273
X025527
X025781
X026543
X026797
X027051
X027305
X026543Y012446
X025527
X025273
X0254Y0127
X025527Y012954
X025781
X025273
Y013462
X025527
X025654Y013716
X0254
X025146
X02413Y0127
X024003Y012446
X023876Y012192
X026924Y01524
X023749Y015494
X023495
X023241
X022987
X022733
X022479
X022225
X021971
X021717
X021844Y015748
X022098
X022352
X022606
X02286
X023114
X023368
X023622
X023749Y014986
X023495
X023241
X022987
X022733
X02286Y014732
X023114
X023368
X023622
X023749Y014478
X023495
X023241
X022987
X022733
X022479
X022225
X022352Y014732
X022606
Y014224
X02286
X023114
X023368
X023241Y01397
X022987
X022733
X022479
X022225
X021971
X021717
X021844Y014224
X022098
X022352
X021717Y014478
X021463
X021209
X020955
X020701
X020828Y014732
X021082
X021336
X02159
X021717Y014986
X021971
X022098Y01524
X022352
X021844
X02159
X021336
X021082
X020828
X020574
X020701Y015494
X020955
X021209
X021336Y015748
X02159
X021082
X020828
X020574
X020447Y015494
X020193
X019939
X020066Y015748
Y01524
X020193Y014986
X020447
X020701
X020955
X021209
X021463
X021336Y014224
X021082
X020828
X020574
X02032
X020066
X01992Y01413
X019939Y01397
X020193
X020447
X020701
X020955
X021209
X020828Y013716
X020574
X02032
X020066
X020193Y013462
X020447
X020701
X02088Y01342
X02105Y01338
X02131Y01341
X020574Y013208
X02032
X020066
X019939Y013462
X01993Y01433
X019939Y014478
X020066Y014732
X019939Y014986
X020574Y014732
X02070999Y01251001
X0204025Y01209331
X02020999Y01206001
X02159Y01194
X02245Y012
X02257Y01209
X02267Y01223
X023114Y012192
X023368
X023622
X023495Y011938
X023241
X02299Y01286
X023114Y013716
X023622
X023749Y01397
Y013462
X023495
X019812Y013716
Y014224
Y014732
Y01524
X01951Y01531
X019177Y015494
X018923
X018669
X018415
X018161
X017907
X017653
X01778Y015748
X018034
Y01524
X01778
X017526
Y015748
X017018Y01524
X017145Y014986
X016891
X016637
Y014478
X016891
X017018Y014732
Y014224
X017272
X017399Y01397
X017145
X016891
X016637
X016383
X016129
X016256Y014224
X01651
X016764
Y013716
X017018
X017272
X017526
X01778
X017907Y01397
X018034Y014224
X01778
X017907Y014478
X017653
X018288Y014732
X018542
X018796
X01905
X019177Y014986
X018923
X018669
X018415
X018542Y01524
X018796
Y015748
X019304
X019812
X019177Y014478
X01923Y01433
Y01419
X01905Y014224
X018796
X018923Y01397
X018669
X0188Y0133
X0187Y0127
X019304Y012192
X019812Y013208
X017526
X017272
X017018
X016764
X01651
X016637Y013462
X016891
X017145
X017399
Y012954
X017145
X016891
X016637
X01651Y0127
X016256
X016129Y012954
X016383Y013462
X01651Y013716
X016256
X015875Y013462
X016129Y014478
X016383
X016129Y014986
X015875
X016002Y01524
X016129Y015494
X015875
X016002Y015748
X016256
X01651
X017018Y0127
X017272
X017526
X01732Y01205
X016383Y011938
X016129
X015875
X015621
X015748Y012192
X015621Y012446
Y012954
X015494Y013208
X01524
X015367Y013462
X015621
X015494Y013716
X015621Y01397
X015367
X014859
X014732Y014224
X014859Y014478
X014732Y014732
X014859Y014986
X015367
X015621
X015748Y014732
X015621Y015494
X015367
X014605
X014351
X014478Y01524
X014224
Y014732
Y014224
Y013716
X014351Y013462
X014224Y013208
Y0127
Y012192
X014605Y012446
X014859
X014605Y012954
X014732Y013716
Y015748
X014859Y016002
X015875
X016129
X016383
X017653
X017907
X018161
X020193
X020701
X020955
X021209
X021463
X021717
X021971
X022225
X022479
X022733
X022987
X023241
X023495
X023749
X024003
X024257
X024511
X024765
X025019
X025273
X025527
X025781
X026035
X026289
X026797
X027051
X027305
X027813
T02
X018765Y00998
Y01047
X019345Y011285
X019335Y011605
X02565Y014852
Y015106
Y01536
X02635
Y015106
Y014852
T03
X02387Y0066
X024124
X024378
X024632
X024886
X02514
X01903Y00702
X01859
X0153611Y007503
Y007757
X01467Y00868
Y00912
X01416Y0092275
Y0085925
X015463Y0102111
X015717
Y0104811
X015463
Y0107511
X015717
X01918Y00851
X01983
X02548Y00928
X02478Y01536
Y015614
T04
X020652Y006538
X02116
X021872
X02238
Y0073
X021872
X02116
X020652
X0250597Y0116782
X0258217
Y0121862
X0258317Y0126107
Y0131187
X02583Y01354
Y014048
X025068
Y01354
X0250697Y0131187
Y0126107
X0250597Y0121862
T05
X01451Y007382
Y00789
X02427Y0156
X02147
T06
X01704Y01566
T07
X016786Y015406
X017294
Y015914
X016786
T08
X02659Y006725
X02759
X01441
Y015875
X02659
X02759
M30
