G04 Layer_Color=16711935*
%FSLAX44Y44*%
%MOMM*%
G71*
G01*
G75*
%ADD75C,0.1000*%
%ADD76C,0.2540*%
%ADD134C,0.1524*%
%ADD135R,4.6000X0.9819*%
%ADD136R,3.5000X0.8877*%
%ADD137R,0.9819X4.6000*%
D75*
X1702000Y738000D02*
G03*
X1702000Y738000I-5000J0D01*
G01*
X1953500Y1151500D02*
G03*
X1953500Y1151500I-5000J0D01*
G01*
X2022000Y1170000D02*
G03*
X2022000Y1170000I-5000J0D01*
G01*
X1520500Y1055000D02*
G03*
X1520500Y1055000I-5000J0D01*
G01*
X1686000Y1089000D02*
G03*
X1686000Y1089000I-5000J0D01*
G01*
X1547600Y1023650D02*
X1570400D01*
X1547600Y1036350D02*
X1570400D01*
Y1023650D02*
Y1036350D01*
X1547600Y1023650D02*
Y1036350D01*
X1855350Y872600D02*
Y895400D01*
X1842650Y872600D02*
Y895400D01*
X1855350D01*
X1842650Y872600D02*
X1855350D01*
X1547600Y1050650D02*
X1570400D01*
X1547600Y1063350D02*
X1570400D01*
Y1050650D02*
Y1063350D01*
X1547600Y1050650D02*
Y1063350D01*
Y1077650D02*
X1570400D01*
X1547600Y1090350D02*
X1570400D01*
Y1077650D02*
Y1090350D01*
X1547600Y1077650D02*
Y1090350D01*
X1530000Y1522500D02*
X1576000D01*
X1530000Y1595500D02*
X1576000D01*
X1530000Y1522500D02*
Y1595500D01*
X1576000Y1522500D02*
Y1595500D01*
X2316950Y1275750D02*
Y1290250D01*
X2339050Y1275750D02*
Y1290250D01*
X2316950D02*
X2339050D01*
X2316950Y1275750D02*
X2339050D01*
X2283050D02*
Y1290250D01*
X2260950Y1275750D02*
Y1290250D01*
Y1275750D02*
X2283050D01*
X2260950Y1290250D02*
X2283050D01*
X1538650Y774400D02*
X1551350D01*
X1538650Y751600D02*
X1551350D01*
Y774400D01*
X1538650Y751600D02*
Y774400D01*
X2168950Y782250D02*
X2191050D01*
X2168950Y767750D02*
X2191050D01*
X2168950D02*
Y782250D01*
X2191050Y767750D02*
Y782250D01*
X2468750Y1181950D02*
Y1204050D01*
X2483250Y1181950D02*
Y1204050D01*
X2468750Y1181950D02*
X2483250D01*
X2468750Y1204050D02*
X2483250D01*
X2470750Y1366950D02*
Y1389050D01*
X2485250Y1366950D02*
Y1389050D01*
X2470750Y1366950D02*
X2485250D01*
X2470750Y1389050D02*
X2485250D01*
X1843750Y971450D02*
Y993550D01*
X1829250Y971450D02*
Y993550D01*
X1843750D01*
X1829250Y971450D02*
X1843750D01*
X1883950Y1109250D02*
X1906050D01*
X1883950Y1094750D02*
X1906050D01*
X1883950D02*
Y1109250D01*
X1906050Y1094750D02*
Y1109250D01*
X2157750Y966950D02*
Y989050D01*
X2172250Y966950D02*
Y989050D01*
X2157750Y966950D02*
X2172250D01*
X2157750Y989050D02*
X2172250D01*
X2190250Y1169950D02*
Y1192050D01*
X2175750Y1169950D02*
Y1192050D01*
X2190250D01*
X2175750Y1169950D02*
X2190250D01*
X2033250Y1219950D02*
Y1242050D01*
X2018750Y1219950D02*
Y1242050D01*
X2033250D01*
X2018750Y1219950D02*
X2033250D01*
X2060750Y960950D02*
Y983050D01*
X2075250Y960950D02*
Y983050D01*
X2060750Y960950D02*
X2075250D01*
X2060750Y983050D02*
X2075250D01*
X2001950Y994750D02*
X2024050D01*
X2001950Y1009250D02*
X2024050D01*
Y994750D02*
Y1009250D01*
X2001950Y994750D02*
Y1009250D01*
X2061250Y1219950D02*
Y1242050D01*
X2046750Y1219950D02*
Y1242050D01*
X2061250D01*
X2046750Y1219950D02*
X2061250D01*
X2154250Y1222950D02*
Y1245050D01*
X2139750Y1222950D02*
Y1245050D01*
X2154250D01*
X2139750Y1222950D02*
X2154250D01*
X1921950Y990250D02*
X1944050D01*
X1921950Y975750D02*
X1944050D01*
X1921950D02*
Y990250D01*
X1944050Y975750D02*
Y990250D01*
X1921950Y1017250D02*
X1944050D01*
X1921950Y1002750D02*
X1944050D01*
X1921950D02*
Y1017250D01*
X1944050Y1002750D02*
Y1017250D01*
X2186250Y1222950D02*
Y1245050D01*
X2171750Y1222950D02*
Y1245050D01*
X2186250D01*
X2171750Y1222950D02*
X2186250D01*
X2130750Y966950D02*
Y989050D01*
X2145250Y966950D02*
Y989050D01*
X2130750Y966950D02*
X2145250D01*
X2130750Y989050D02*
X2145250D01*
X2011250Y952950D02*
Y975050D01*
X1996750Y952950D02*
Y975050D01*
X2011250D01*
X1996750Y952950D02*
X2011250D01*
X2039250Y952950D02*
Y975050D01*
X2024750Y952950D02*
Y975050D01*
X2039250D01*
X2024750Y952950D02*
X2039250D01*
X1977250Y1219950D02*
Y1242050D01*
X1962750Y1219950D02*
Y1242050D01*
X1977250D01*
X1962750Y1219950D02*
X1977250D01*
X1928950Y1194250D02*
X1951050D01*
X1928950Y1179750D02*
X1951050D01*
X1928950D02*
Y1194250D01*
X1951050Y1179750D02*
Y1194250D01*
X1928950Y1109250D02*
X1951050D01*
X1928950Y1094750D02*
X1951050D01*
X1928950D02*
Y1109250D01*
X1951050Y1094750D02*
Y1109250D01*
X2545750Y876950D02*
Y899050D01*
X2560250Y876950D02*
Y899050D01*
X2545750Y876950D02*
X2560250D01*
X2545750Y899050D02*
X2560250D01*
X2343950Y782250D02*
X2366050D01*
X2343950Y767750D02*
X2366050D01*
X2343950D02*
Y782250D01*
X2366050Y767750D02*
Y782250D01*
X2343950Y805250D02*
X2366050D01*
X2343950Y790750D02*
X2366050D01*
X2343950D02*
Y805250D01*
X2366050Y790750D02*
Y805250D01*
X2637750Y1429950D02*
Y1452050D01*
X2652250Y1429950D02*
Y1452050D01*
X2637750Y1429950D02*
X2652250D01*
X2637750Y1452050D02*
X2652250D01*
X1567500Y852000D02*
X1602500D01*
X1567500Y786000D02*
X1602500D01*
Y852000D01*
X1567500Y786000D02*
Y852000D01*
X1723500Y642000D02*
X1796500D01*
X1723500Y688000D02*
X1796500D01*
Y642000D02*
Y688000D01*
X1723500Y642000D02*
Y688000D01*
X1630750Y679950D02*
Y702050D01*
X1645250Y679950D02*
Y702050D01*
X1630750Y679950D02*
X1645250D01*
X1630750Y702050D02*
X1645250D01*
X1603750Y679950D02*
Y702050D01*
X1618250Y679950D02*
Y702050D01*
X1603750Y679950D02*
X1618250D01*
X1603750Y702050D02*
X1618250D01*
X1782950Y861750D02*
X1805050D01*
X1782950Y876250D02*
X1805050D01*
Y861750D02*
Y876250D01*
X1782950Y861750D02*
Y876250D01*
Y890750D02*
X1805050D01*
X1782950Y905250D02*
X1805050D01*
Y890750D02*
Y905250D01*
X1782950Y890750D02*
Y905250D01*
Y919750D02*
X1805050D01*
X1782950Y934250D02*
X1805050D01*
Y919750D02*
Y934250D01*
X1782950Y919750D02*
Y934250D01*
X1738000Y728250D02*
X1784000D01*
X1738000Y767750D02*
X1784000D01*
Y728250D02*
Y767750D01*
X1738000Y728250D02*
Y767750D01*
X1626500Y907500D02*
X1751500D01*
X1626500Y782500D02*
X1751500D01*
X1626500D02*
Y907500D01*
X1751500Y782500D02*
Y907500D01*
X2095600Y757650D02*
Y770350D01*
X2118400Y757650D02*
Y770350D01*
X2095600D02*
X2118400D01*
X2095600Y757650D02*
X2118400D01*
X2455350Y1181600D02*
Y1204400D01*
X2442650Y1181600D02*
Y1204400D01*
X2455350D01*
X2442650Y1181600D02*
X2455350D01*
X1944400Y1064150D02*
Y1076850D01*
X1921600Y1064150D02*
Y1076850D01*
Y1064150D02*
X1944400D01*
X1921600Y1076850D02*
X1944400D01*
X1921600Y1051350D02*
X1944400D01*
X1921600Y1038650D02*
X1944400D01*
X1921600D02*
Y1051350D01*
X1944400Y1038650D02*
Y1051350D01*
X1990650Y1242400D02*
X2003350D01*
X1990650Y1219600D02*
X2003350D01*
Y1242400D01*
X1990650Y1219600D02*
Y1242400D01*
X2457350Y1276600D02*
Y1299400D01*
X2444650Y1276600D02*
Y1299400D01*
X2457350D01*
X2444650Y1276600D02*
X2457350D01*
X2168600Y794650D02*
Y807350D01*
X2191400Y794650D02*
Y807350D01*
X2168600D02*
X2191400D01*
X2168600Y794650D02*
X2191400D01*
X2457350Y1366600D02*
Y1389400D01*
X2444650Y1366600D02*
Y1389400D01*
X2457350D01*
X2444650Y1366600D02*
X2457350D01*
X2641600Y1267650D02*
Y1280350D01*
X2664400Y1267650D02*
Y1280350D01*
X2641600D02*
X2664400D01*
X2641600Y1267650D02*
X2664400D01*
X2641600Y1300650D02*
X2664400D01*
X2641600Y1313350D02*
X2664400D01*
Y1300650D02*
Y1313350D01*
X2641600Y1300650D02*
Y1313350D01*
X2642600Y1332650D02*
Y1345350D01*
X2665400Y1332650D02*
Y1345350D01*
X2642600D02*
X2665400D01*
X2642600Y1332650D02*
X2665400D01*
X1975350Y1014600D02*
Y1037400D01*
X1962650Y1014600D02*
Y1037400D01*
X1975350D01*
X1962650Y1014600D02*
X1975350D01*
X2643600Y1364650D02*
Y1377350D01*
X2666400Y1364650D02*
Y1377350D01*
X2643600D02*
X2666400D01*
X2643600Y1364650D02*
X2666400D01*
X2110350Y960600D02*
Y983400D01*
X2097650Y960600D02*
Y983400D01*
X2110350D01*
X2097650Y960600D02*
X2110350D01*
X1770600Y976650D02*
Y989350D01*
X1793400Y976650D02*
Y989350D01*
X1770600D02*
X1793400D01*
X1770600Y976650D02*
X1793400D01*
X1530350Y1281600D02*
Y1304400D01*
X1517650Y1281600D02*
Y1304400D01*
X1530350D01*
X1517650Y1281600D02*
X1530350D01*
X1479600Y1312650D02*
Y1325350D01*
X1502400Y1312650D02*
Y1325350D01*
X1479600D02*
X1502400D01*
X1479600Y1312650D02*
X1502400D01*
X1684650Y1013600D02*
Y1036400D01*
X1697350Y1013600D02*
Y1036400D01*
X1684650Y1013600D02*
X1697350D01*
X1684650Y1036400D02*
X1697350D01*
X1658650Y1036400D02*
X1671350D01*
X1658650Y1013600D02*
X1671350D01*
Y1036400D01*
X1658650Y1013600D02*
Y1036400D01*
X1647650Y1159600D02*
Y1182400D01*
X1660350Y1159600D02*
Y1182400D01*
X1647650Y1159600D02*
X1660350D01*
X1647650Y1182400D02*
X1660350D01*
X1710650Y1036400D02*
X1723350D01*
X1710650Y1013600D02*
X1723350D01*
Y1036400D01*
X1710650Y1013600D02*
Y1036400D01*
X1733650Y1013600D02*
Y1036400D01*
X1746350Y1013600D02*
Y1036400D01*
X1733650Y1013600D02*
X1746350D01*
X1733650Y1036400D02*
X1746350D01*
X1478650Y1207600D02*
X1491350D01*
X1478650Y1230400D02*
X1491350D01*
X1478650Y1207600D02*
Y1230400D01*
X1491350Y1207600D02*
Y1230400D01*
X1469350Y1207600D02*
Y1230400D01*
X1456650Y1207600D02*
Y1230400D01*
X1469350D01*
X1456650Y1207600D02*
X1469350D01*
X1617350Y732600D02*
Y755400D01*
X1604650Y732600D02*
Y755400D01*
X1617350D01*
X1604650Y732600D02*
X1617350D01*
X1630650Y755400D02*
X1643350D01*
X1630650Y732600D02*
X1643350D01*
Y755400D01*
X1630650Y732600D02*
Y755400D01*
X1665600Y669650D02*
X1688400D01*
X1665600Y682350D02*
X1688400D01*
Y669650D02*
Y682350D01*
X1665600Y669650D02*
Y682350D01*
X1498000Y1276800D02*
Y1307200D01*
X1484000Y1276800D02*
Y1307200D01*
Y1276800D02*
X1498000D01*
X1484000Y1307200D02*
X1498000D01*
X1656000Y747000D02*
X1706000D01*
X1656000Y707000D02*
X1706000D01*
Y747000D01*
X1656000Y707000D02*
Y747000D01*
X1732250Y920750D02*
X1749750D01*
X1732250Y951250D02*
X1749750D01*
Y920750D02*
Y951250D01*
X1732250Y920750D02*
Y951250D01*
X1730950Y701750D02*
X1753050D01*
X1730950Y716250D02*
X1753050D01*
Y701750D02*
Y716250D01*
X1730950Y701750D02*
Y716250D01*
X1840750Y1565950D02*
Y1588050D01*
X1855250Y1565950D02*
Y1588050D01*
X1840750Y1565950D02*
X1855250D01*
X1840750Y1588050D02*
X1855250D01*
X2038600Y756650D02*
Y769350D01*
X2061400Y756650D02*
Y769350D01*
X2038600D02*
X2061400D01*
X2038600Y756650D02*
X2061400D01*
X1516250Y1568950D02*
Y1591050D01*
X1501750Y1568950D02*
Y1591050D01*
X1516250D01*
X1501750Y1568950D02*
X1516250D01*
X1476950Y1542250D02*
X1499050D01*
X1476950Y1527750D02*
X1499050D01*
X1476950D02*
Y1542250D01*
X1499050Y1527750D02*
Y1542250D01*
X1518500Y1464000D02*
Y1510000D01*
X1445500Y1464000D02*
Y1510000D01*
Y1464000D02*
X1518500D01*
X1445500Y1510000D02*
X1518500D01*
X1517500Y1406000D02*
Y1452000D01*
X1444500Y1406000D02*
Y1452000D01*
Y1406000D02*
X1517500D01*
X1444500Y1452000D02*
X1517500D01*
Y1349000D02*
Y1395000D01*
X1444500Y1349000D02*
Y1395000D01*
Y1349000D02*
X1517500D01*
X1444500Y1395000D02*
X1517500D01*
X1513000Y1205800D02*
Y1236200D01*
X1527000Y1205800D02*
Y1236200D01*
X1513000D02*
X1527000D01*
X1513000Y1205800D02*
X1527000D01*
X1450250Y1096950D02*
Y1119050D01*
X1435750Y1096950D02*
Y1119050D01*
X1450250D01*
X1435750Y1096950D02*
X1450250D01*
X1626250Y931950D02*
Y954050D01*
X1611750Y931950D02*
Y954050D01*
X1626250D01*
X1611750Y931950D02*
X1626250D01*
X1654250D02*
Y954050D01*
X1639750Y931950D02*
Y954050D01*
X1654250D01*
X1639750Y931950D02*
X1654250D01*
X1667650Y954400D02*
X1680350D01*
X1667650Y931600D02*
X1680350D01*
Y954400D01*
X1667650Y931600D02*
Y954400D01*
X1829250Y1051450D02*
Y1073550D01*
X1843750Y1051450D02*
Y1073550D01*
X1829250Y1051450D02*
X1843750D01*
X1829250Y1073550D02*
X1843750D01*
X2667750Y1429950D02*
Y1452050D01*
X2682250Y1429950D02*
Y1452050D01*
X2667750Y1429950D02*
X2682250D01*
X2667750Y1452050D02*
X2682250D01*
X2696750Y1429950D02*
Y1452050D01*
X2711250Y1429950D02*
Y1452050D01*
X2696750Y1429950D02*
X2711250D01*
X2696750Y1452050D02*
X2711250D01*
X2725750Y1429950D02*
Y1452050D01*
X2740250Y1429950D02*
Y1452050D01*
X2725750Y1429950D02*
X2740250D01*
X2725750Y1452050D02*
X2740250D01*
X2470750Y1276950D02*
Y1299050D01*
X2485250Y1276950D02*
Y1299050D01*
X2470750Y1276950D02*
X2485250D01*
X2470750Y1299050D02*
X2485250D01*
X1900000Y965750D02*
Y1079250D01*
X1853000Y965750D02*
Y1079250D01*
X1900000D01*
X1853000Y965750D02*
X1900000D01*
X1877500Y1160500D02*
X1957500D01*
X1877500Y1128500D02*
X1957500D01*
Y1160500D01*
X1877500Y1128500D02*
Y1160500D01*
X2008000Y1039000D02*
X2148000D01*
X2008000Y1179000D02*
X2148000D01*
Y1039000D02*
Y1179000D01*
X2008000Y1039000D02*
Y1179000D01*
X1419500Y1064000D02*
X1524500D01*
X1419500Y1008000D02*
X1524500D01*
Y1064000D01*
X1419500Y1008000D02*
Y1064000D01*
X1962750Y968000D02*
X1975250D01*
X1962750Y988000D02*
X1975250D01*
X1962750Y968000D02*
Y988000D01*
X1975250Y968000D02*
Y988000D01*
X1695750Y947000D02*
Y967000D01*
X1708250Y947000D02*
Y967000D01*
X1695750Y947000D02*
X1708250D01*
X1695750Y967000D02*
X1708250D01*
X2711000Y1365750D02*
Y1378250D01*
X2691000Y1365750D02*
Y1378250D01*
Y1365750D02*
X2711000D01*
X2691000Y1378250D02*
X2711000D01*
X2690000Y1346250D02*
X2710000D01*
X2690000Y1333750D02*
X2710000D01*
X2690000D02*
Y1346250D01*
X2710000Y1333750D02*
Y1346250D01*
X2709000Y1301750D02*
Y1314250D01*
X2689000Y1301750D02*
Y1314250D01*
Y1301750D02*
X2709000D01*
X2689000Y1314250D02*
X2709000D01*
X2689000Y1280250D02*
X2709000D01*
X2689000Y1267750D02*
X2709000D01*
X2689000D02*
Y1280250D01*
X2709000Y1267750D02*
Y1280250D01*
X1672000Y1080000D02*
X1758000D01*
X1672000Y1120000D02*
X1758000D01*
X1672000Y1080000D02*
Y1120000D01*
X1758000Y1080000D02*
Y1120000D01*
X1854650Y1442400D02*
X1867350D01*
X1854650Y1419600D02*
X1867350D01*
Y1442400D01*
X1854650Y1419600D02*
Y1442400D01*
X1844200Y808000D02*
Y822000D01*
X1813800Y808000D02*
Y822000D01*
X1844200D01*
X1813800Y808000D02*
X1844200D01*
X1836600Y787350D02*
X1859400D01*
X1836600Y774650D02*
X1859400D01*
X1836600D02*
Y787350D01*
X1859400Y774650D02*
Y787350D01*
X2697400Y1485200D02*
Y1522800D01*
X2744600Y1485200D02*
Y1522800D01*
X2697400Y1485200D02*
X2744600D01*
X2697400Y1522800D02*
X2744600D01*
D76*
X2800000Y1632540D02*
Y1680540D01*
X1400000Y1633810D02*
Y1680540D01*
X2141896Y1678000D02*
X2800000D01*
X1400000D02*
X2049975D01*
X2784760Y1683080D02*
X2800000Y1678000D01*
X2784760Y1672920D02*
X2800000Y1678000D01*
X1400000D02*
X1415240Y1672920D01*
X1400000Y1678000D02*
X1415240Y1683080D01*
X2803810Y1630000D02*
X2856540D01*
X2803810Y630000D02*
X2856540D01*
X2854000Y1171896D02*
Y1630000D01*
Y630000D02*
Y1079976D01*
X2848920Y1614760D02*
X2854000Y1630000D01*
X2859080Y1614760D01*
X2854000Y630000D02*
X2859080Y645240D01*
X2848920D02*
X2854000Y630000D01*
X1400000D02*
Y1630000D01*
Y630000D02*
X2800000D01*
Y1630000D01*
X1400000D02*
X2800000D01*
D134*
X2054039Y1666319D02*
X2059118D01*
X2056579D01*
Y1681554D01*
X2054039Y1679015D01*
X2074353Y1666319D02*
Y1681554D01*
X2066735Y1673937D01*
X2076892D01*
X2081970Y1679015D02*
X2084509Y1681554D01*
X2089588D01*
X2092127Y1679015D01*
Y1668858D01*
X2089588Y1666319D01*
X2084509D01*
X2081970Y1668858D01*
Y1679015D01*
X2099745Y1663780D02*
X2102284Y1666319D01*
Y1668858D01*
X2099745D01*
Y1666319D01*
X2102284D01*
X2099745Y1663780D01*
X2097205Y1661241D01*
X2112440Y1679015D02*
X2114980Y1681554D01*
X2120058D01*
X2122597Y1679015D01*
Y1668858D01*
X2120058Y1666319D01*
X2114980D01*
X2112440Y1668858D01*
Y1679015D01*
X2127676D02*
X2130215Y1681554D01*
X2135293D01*
X2137832Y1679015D01*
Y1668858D01*
X2135293Y1666319D01*
X2130215D01*
X2127676Y1668858D01*
Y1679015D01*
X2865681Y1084040D02*
Y1089118D01*
Y1086579D01*
X2850446D01*
X2852985Y1084040D01*
Y1096735D02*
X2850446Y1099275D01*
Y1104353D01*
X2852985Y1106892D01*
X2863141D01*
X2865681Y1104353D01*
Y1099275D01*
X2863141Y1096735D01*
X2852985D01*
Y1111971D02*
X2850446Y1114510D01*
Y1119588D01*
X2852985Y1122127D01*
X2863141D01*
X2865681Y1119588D01*
Y1114510D01*
X2863141Y1111971D01*
X2852985D01*
X2868220Y1129745D02*
X2865681Y1132284D01*
X2863141D01*
Y1129745D01*
X2865681D01*
Y1132284D01*
X2868220Y1129745D01*
X2870759Y1127206D01*
X2852985Y1142441D02*
X2850446Y1144980D01*
Y1150058D01*
X2852985Y1152597D01*
X2863141D01*
X2865681Y1150058D01*
Y1144980D01*
X2863141Y1142441D01*
X2852985D01*
Y1157676D02*
X2850446Y1160215D01*
Y1165293D01*
X2852985Y1167832D01*
X2863141D01*
X2865681Y1165293D01*
Y1160215D01*
X2863141Y1157676D01*
X2852985D01*
D135*
X1553000Y1527409D02*
D03*
D136*
X1585000Y847561D02*
D03*
D137*
X1728409Y665000D02*
D03*
X1513591Y1487000D02*
D03*
X1512591Y1429000D02*
D03*
Y1372000D02*
D03*
M02*
