G04 Layer_Color=16711935*
%FSLAX44Y44*%
%MOMM*%
G71*
G01*
G75*
%ADD54C,0.3000*%
%ADD56C,0.5000*%
%ADD75C,0.1000*%
%ADD76C,0.2540*%
%ADD77C,0.2000*%
%ADD139C,0.1500*%
D54*
X2145500Y1613000D02*
X2428000D01*
D56*
X2741243Y1495000D02*
G03*
X2741243Y1495000I-4243J0D01*
G01*
X2744123Y1491000D02*
G03*
X2744123Y1491000I-4123J0D01*
G01*
D75*
X1586664Y1010000D02*
X1587997Y1008667D01*
Y1006001D01*
X1586664Y1004668D01*
X1581333D01*
X1580000Y1006001D01*
Y1008667D01*
X1581333Y1010000D01*
X1586664D01*
X1580000Y992672D02*
Y990006D01*
X1581333Y988673D01*
X1583999D01*
X1585332Y990006D01*
Y992672D01*
X1583999Y994005D01*
X1581333D01*
X1580000Y992672D01*
X1587997Y986008D02*
X1580000D01*
X1583999D01*
X1585332Y984675D01*
Y982009D01*
X1583999Y980676D01*
X1580000D01*
Y978010D02*
X1585332D01*
Y976677D01*
X1583999Y975344D01*
X1580000D01*
X1583999D01*
X1585332Y974012D01*
X1583999Y972679D01*
X1580000D01*
X1510000Y1106665D02*
X1511333Y1107997D01*
X1513999D01*
X1515332Y1106665D01*
Y1101333D01*
X1513999Y1100000D01*
X1511333D01*
X1510000Y1101333D01*
Y1106665D01*
X1527328Y1100000D02*
X1529994D01*
X1531326Y1101333D01*
Y1103999D01*
X1529994Y1105332D01*
X1527328D01*
X1525995Y1103999D01*
Y1101333D01*
X1527328Y1100000D01*
X1533992Y1107997D02*
Y1100000D01*
Y1103999D01*
X1535325Y1105332D01*
X1537991D01*
X1539324Y1103999D01*
Y1100000D01*
X1541990D02*
Y1105332D01*
X1543323D01*
X1544655Y1103999D01*
Y1100000D01*
Y1103999D01*
X1545988Y1105332D01*
X1547321Y1103999D01*
Y1100000D01*
X1549335Y1521000D02*
X1548003Y1522333D01*
Y1524999D01*
X1549335Y1526332D01*
X1550668D01*
X1552001Y1524999D01*
Y1523666D01*
Y1524999D01*
X1553334Y1526332D01*
X1554667D01*
X1556000Y1524999D01*
Y1522333D01*
X1554667Y1521000D01*
X1549335Y1528997D02*
X1548003Y1530330D01*
Y1532996D01*
X1549335Y1534329D01*
X1550668D01*
X1552001Y1532996D01*
Y1531663D01*
Y1532996D01*
X1553334Y1534329D01*
X1554667D01*
X1556000Y1532996D01*
Y1530330D01*
X1554667Y1528997D01*
X1549335Y1536995D02*
X1548003Y1538328D01*
Y1540993D01*
X1549335Y1542326D01*
X1554667D01*
X1556000Y1540993D01*
Y1538328D01*
X1554667Y1536995D01*
X1549335D01*
X1548003Y1544992D02*
X1554667D01*
X1556000Y1546325D01*
Y1548991D01*
X1554667Y1550324D01*
X1548003D01*
Y1558321D02*
Y1552990D01*
X1552001D01*
Y1555656D01*
Y1552990D01*
X1556000D01*
X1548003Y1574316D02*
X1549335Y1571650D01*
X1552001Y1568985D01*
X1554667D01*
X1556000Y1570317D01*
Y1572983D01*
X1554667Y1574316D01*
X1553334D01*
X1552001Y1572983D01*
Y1568985D01*
X1556000Y1576982D02*
X1554667D01*
Y1578315D01*
X1556000D01*
Y1576982D01*
X1549335Y1583646D02*
X1548003Y1584979D01*
Y1587645D01*
X1549335Y1588978D01*
X1550668D01*
X1552001Y1587645D01*
Y1586312D01*
Y1587645D01*
X1553334Y1588978D01*
X1554667D01*
X1556000Y1587645D01*
Y1584979D01*
X1554667Y1583646D01*
X1548003Y1591644D02*
X1553334D01*
X1556000Y1594310D01*
X1553334Y1596976D01*
X1548003D01*
X2308000Y1286664D02*
X2309333Y1287997D01*
X2311999D01*
X2313332Y1286664D01*
Y1281333D01*
X2311999Y1280000D01*
X2309333D01*
X2308000Y1281333D01*
Y1286664D01*
X2315997Y1280000D02*
Y1281333D01*
X2317330D01*
Y1280000D01*
X2315997D01*
X2322662D02*
X2325328D01*
X2323995D01*
Y1287997D01*
X2322662Y1286664D01*
X2329326Y1285332D02*
Y1281333D01*
X2330659Y1280000D01*
X2334658D01*
Y1285332D01*
X2342655Y1287997D02*
X2337324D01*
Y1283999D01*
X2339990D01*
X2337324D01*
Y1280000D01*
X2255000Y1286664D02*
X2256333Y1287997D01*
X2258999D01*
X2260332Y1286664D01*
Y1281333D01*
X2258999Y1280000D01*
X2256333D01*
X2255000Y1281333D01*
Y1286664D01*
X2262997Y1280000D02*
Y1281333D01*
X2264330D01*
Y1280000D01*
X2262997D01*
X2269662D02*
X2272328D01*
X2270995D01*
Y1287997D01*
X2269662Y1286664D01*
X2276326Y1285332D02*
Y1281333D01*
X2277659Y1280000D01*
X2281658D01*
Y1285332D01*
X2289655Y1287997D02*
X2284324D01*
Y1283999D01*
X2286990D01*
X2284324D01*
Y1280000D01*
X1547917Y784338D02*
Y787004D01*
Y785671D01*
X1541253D01*
X1539920Y787004D01*
Y788337D01*
X1541253Y789670D01*
X1547917Y781673D02*
X1541253D01*
X1539920Y780340D01*
Y777674D01*
X1541253Y776341D01*
X1547917D01*
X1539920Y773675D02*
X1547917D01*
X1545252Y771009D01*
X1547917Y768344D01*
X1539920D01*
Y765678D02*
X1547917D01*
Y761679D01*
X1546584Y760346D01*
X1543919D01*
X1542586Y761679D01*
Y765678D01*
X1547917Y752349D02*
Y757680D01*
X1539920D01*
Y752349D01*
X1543919Y757680D02*
Y755014D01*
X1539920Y749683D02*
X1547917D01*
Y745684D01*
X1546584Y744351D01*
X1543919D01*
X1542586Y745684D01*
Y749683D01*
Y747017D02*
X1539920Y744351D01*
X2166000Y778664D02*
X2167333Y779997D01*
X2169999D01*
X2171332Y778664D01*
Y773333D01*
X2169999Y772000D01*
X2167333D01*
X2166000Y773333D01*
Y778664D01*
X2173997Y772000D02*
Y773333D01*
X2175330D01*
Y772000D01*
X2173997D01*
X2180662D02*
X2183328D01*
X2181995D01*
Y779997D01*
X2180662Y778664D01*
X2187327Y777332D02*
Y773333D01*
X2188659Y772000D01*
X2192658D01*
Y777332D01*
X2200656Y779997D02*
X2195324D01*
Y775999D01*
X2197990D01*
X2195324D01*
Y772000D01*
X2475336Y1178000D02*
X2474003Y1179333D01*
Y1181999D01*
X2475336Y1183332D01*
X2480667D01*
X2482000Y1181999D01*
Y1179333D01*
X2480667Y1178000D01*
X2475336D01*
X2482000Y1185997D02*
X2480667D01*
Y1187330D01*
X2482000D01*
Y1185997D01*
Y1192662D02*
Y1195328D01*
Y1193995D01*
X2474003D01*
X2475336Y1192662D01*
X2476668Y1199326D02*
X2480667D01*
X2482000Y1200659D01*
Y1204658D01*
X2476668D01*
X2474003Y1212655D02*
Y1207324D01*
X2478001D01*
Y1209990D01*
Y1207324D01*
X2482000D01*
X2475336Y1363000D02*
X2474003Y1364333D01*
Y1366999D01*
X2475336Y1368332D01*
X2480667D01*
X2482000Y1366999D01*
Y1364333D01*
X2480667Y1363000D01*
X2475336D01*
X2482000Y1370997D02*
X2480667D01*
Y1372330D01*
X2482000D01*
Y1370997D01*
Y1377662D02*
Y1380328D01*
Y1378995D01*
X2474003D01*
X2475336Y1377662D01*
X2476668Y1384326D02*
X2480667D01*
X2482000Y1385659D01*
Y1389658D01*
X2476668D01*
X2474003Y1397655D02*
Y1392324D01*
X2478001D01*
Y1394990D01*
Y1392324D01*
X2482000D01*
X1842850Y962180D02*
Y964846D01*
Y963513D01*
X1834853D01*
X1836185Y962180D01*
Y968845D02*
X1834853Y970177D01*
Y972843D01*
X1836185Y974176D01*
X1837518D01*
X1838851Y972843D01*
X1840184Y974176D01*
X1841517D01*
X1842850Y972843D01*
Y970177D01*
X1841517Y968845D01*
X1840184D01*
X1838851Y970177D01*
X1837518Y968845D01*
X1836185D01*
X1838851Y970177D02*
Y972843D01*
X1845516Y976842D02*
X1837518D01*
Y980841D01*
X1838851Y982173D01*
X1841517D01*
X1842850Y980841D01*
Y976842D01*
X1834853Y990171D02*
Y984839D01*
X1838851D01*
Y987505D01*
Y984839D01*
X1842850D01*
X1879000Y1103664D02*
X1880333Y1104997D01*
X1882999D01*
X1884332Y1103664D01*
Y1098333D01*
X1882999Y1097000D01*
X1880333D01*
X1879000Y1098333D01*
Y1103664D01*
X1886997Y1097000D02*
Y1098333D01*
X1888330D01*
Y1097000D01*
X1886997D01*
X1893662D02*
X1896328D01*
X1894995D01*
Y1104997D01*
X1893662Y1103664D01*
X1900327Y1102332D02*
Y1098333D01*
X1901659Y1097000D01*
X1905658D01*
Y1102332D01*
X1913656Y1104997D02*
X1908324D01*
Y1100999D01*
X1910990D01*
X1908324D01*
Y1097000D01*
X2161335Y962000D02*
X2160003Y963333D01*
Y965999D01*
X2161335Y967332D01*
X2166667D01*
X2168000Y965999D01*
Y963333D01*
X2166667Y962000D01*
X2161335D01*
X2168000Y969997D02*
X2166667D01*
Y971330D01*
X2168000D01*
Y969997D01*
Y976662D02*
Y979328D01*
Y977995D01*
X2160003D01*
X2161335Y976662D01*
X2162668Y983326D02*
X2166667D01*
X2168000Y984659D01*
Y988658D01*
X2162668D01*
X2160003Y996656D02*
Y991324D01*
X2164001D01*
Y993990D01*
Y991324D01*
X2168000D01*
X2182686Y1160680D02*
X2181353Y1162013D01*
Y1164679D01*
X2182686Y1166012D01*
X2188017D01*
X2189350Y1164679D01*
Y1162013D01*
X2188017Y1160680D01*
X2182686D01*
X2189350Y1168677D02*
X2188017D01*
Y1170010D01*
X2189350D01*
Y1168677D01*
Y1175342D02*
Y1178008D01*
Y1176675D01*
X2181353D01*
X2182686Y1175342D01*
X2184018Y1182007D02*
X2188017D01*
X2189350Y1183339D01*
Y1187338D01*
X2184018D01*
X2181353Y1195335D02*
Y1190004D01*
X2185351D01*
Y1192670D01*
Y1190004D01*
X2189350D01*
X2025685Y1210680D02*
X2024353Y1212013D01*
Y1214679D01*
X2025685Y1216012D01*
X2031017D01*
X2032350Y1214679D01*
Y1212013D01*
X2031017Y1210680D01*
X2025685D01*
X2032350Y1218677D02*
X2031017D01*
Y1220010D01*
X2032350D01*
Y1218677D01*
Y1225342D02*
Y1228008D01*
Y1226675D01*
X2024353D01*
X2025685Y1225342D01*
X2027018Y1232007D02*
X2031017D01*
X2032350Y1233339D01*
Y1237338D01*
X2027018D01*
X2024353Y1245335D02*
Y1240004D01*
X2028351D01*
Y1242670D01*
Y1240004D01*
X2032350D01*
X2064335Y956000D02*
X2063003Y957333D01*
Y959999D01*
X2064335Y961332D01*
X2069667D01*
X2071000Y959999D01*
Y957333D01*
X2069667Y956000D01*
X2064335D01*
X2071000Y963997D02*
X2069667D01*
Y965330D01*
X2071000D01*
Y963997D01*
Y970662D02*
Y973328D01*
Y971995D01*
X2063003D01*
X2064335Y970662D01*
X2065668Y977327D02*
X2069667D01*
X2071000Y978659D01*
Y982658D01*
X2065668D01*
X2063003Y990656D02*
Y985324D01*
X2067001D01*
Y987990D01*
Y985324D01*
X2071000D01*
X1992680Y1002315D02*
X1994013Y1003647D01*
X1996679D01*
X1998012Y1002315D01*
Y996983D01*
X1996679Y995650D01*
X1994013D01*
X1992680Y996983D01*
Y1002315D01*
X2000677Y995650D02*
Y996983D01*
X2002010D01*
Y995650D01*
X2000677D01*
X2007342D02*
X2010008D01*
X2008675D01*
Y1003647D01*
X2007342Y1002315D01*
X2014007Y1000982D02*
Y996983D01*
X2015339Y995650D01*
X2019338D01*
Y1000982D01*
X2027336Y1003647D02*
X2022004D01*
Y999649D01*
X2024670D01*
X2022004D01*
Y995650D01*
X2053685Y1210680D02*
X2052353Y1212013D01*
Y1214679D01*
X2053685Y1216012D01*
X2059017D01*
X2060350Y1214679D01*
Y1212013D01*
X2059017Y1210680D01*
X2053685D01*
X2060350Y1218677D02*
X2059017D01*
Y1220010D01*
X2060350D01*
Y1218677D01*
Y1225342D02*
Y1228008D01*
Y1226675D01*
X2052353D01*
X2053685Y1225342D01*
X2055018Y1232007D02*
X2059017D01*
X2060350Y1233339D01*
Y1237338D01*
X2055018D01*
X2052353Y1245335D02*
Y1240004D01*
X2056351D01*
Y1242670D01*
Y1240004D01*
X2060350D01*
X2146685Y1213680D02*
X2145353Y1215013D01*
Y1217679D01*
X2146685Y1219012D01*
X2152017D01*
X2153350Y1217679D01*
Y1215013D01*
X2152017Y1213680D01*
X2146685D01*
X2153350Y1221677D02*
X2152017D01*
Y1223010D01*
X2153350D01*
Y1221677D01*
Y1228342D02*
Y1231008D01*
Y1229675D01*
X2145353D01*
X2146685Y1228342D01*
X2148018Y1235006D02*
X2152017D01*
X2153350Y1236339D01*
Y1240338D01*
X2148018D01*
X2145353Y1248335D02*
Y1243004D01*
X2149351D01*
Y1245670D01*
Y1243004D01*
X2153350D01*
X1924000Y981000D02*
X1926666D01*
X1925333D01*
Y988997D01*
X1924000Y987664D01*
X1930665Y986332D02*
Y982333D01*
X1931997Y981000D01*
X1935996D01*
Y986332D01*
X1943994Y988997D02*
X1938662D01*
Y984999D01*
X1941328D01*
X1938662D01*
Y981000D01*
X1918000Y1013664D02*
X1919333Y1014997D01*
X1921999D01*
X1923332Y1013664D01*
Y1008333D01*
X1921999Y1007000D01*
X1919333D01*
X1918000Y1008333D01*
Y1013664D01*
X1925997Y1007000D02*
Y1008333D01*
X1927330D01*
Y1007000D01*
X1925997D01*
X1932662D02*
X1935328D01*
X1933995D01*
Y1014997D01*
X1932662Y1013664D01*
X1939326Y1012332D02*
Y1008333D01*
X1940659Y1007000D01*
X1944658D01*
Y1012332D01*
X1952655Y1014997D02*
X1947324D01*
Y1010999D01*
X1949990D01*
X1947324D01*
Y1007000D01*
X2185350Y1219012D02*
Y1213680D01*
X2180018Y1219012D01*
X2178685D01*
X2177353Y1217679D01*
Y1215013D01*
X2178685Y1213680D01*
X2185350Y1221677D02*
X2184017D01*
Y1223010D01*
X2185350D01*
Y1221677D01*
Y1233674D02*
Y1228342D01*
X2180018Y1233674D01*
X2178685D01*
X2177353Y1232341D01*
Y1229675D01*
X2178685Y1228342D01*
X2180018Y1236339D02*
X2184017D01*
X2185350Y1237672D01*
Y1241671D01*
X2180018D01*
X2177353Y1249668D02*
Y1244337D01*
X2181351D01*
Y1247003D01*
Y1244337D01*
X2185350D01*
X2141000Y968332D02*
Y963000D01*
X2135668Y968332D01*
X2134335D01*
X2133003Y966999D01*
Y964333D01*
X2134335Y963000D01*
X2141000Y970997D02*
X2139667D01*
Y972330D01*
X2141000D01*
Y970997D01*
Y982993D02*
Y977662D01*
X2135668Y982993D01*
X2134335D01*
X2133003Y981661D01*
Y978995D01*
X2134335Y977662D01*
X2135668Y985659D02*
X2139667D01*
X2141000Y986992D01*
Y990991D01*
X2135668D01*
X2133003Y998988D02*
Y993657D01*
X2137001D01*
Y996323D01*
Y993657D01*
X2141000D01*
X2010350Y943680D02*
Y946346D01*
Y945013D01*
X2002353D01*
X2003685Y943680D01*
X2005018Y950344D02*
X2009017D01*
X2010350Y951677D01*
Y955676D01*
X2005018D01*
X2002353Y963674D02*
Y958342D01*
X2006351D01*
Y961008D01*
Y958342D01*
X2010350D01*
X2031685Y943680D02*
X2030353Y945013D01*
Y947679D01*
X2031685Y949012D01*
X2037017D01*
X2038350Y947679D01*
Y945013D01*
X2037017Y943680D01*
X2031685D01*
X2038350Y951677D02*
X2037017D01*
Y953010D01*
X2038350D01*
Y951677D01*
Y958342D02*
Y961008D01*
Y959675D01*
X2030353D01*
X2031685Y958342D01*
X2033018Y965006D02*
X2037017D01*
X2038350Y966339D01*
Y970338D01*
X2033018D01*
X2030353Y978335D02*
Y973004D01*
X2034351D01*
Y975670D01*
Y973004D01*
X2038350D01*
X1974000Y1221000D02*
Y1223666D01*
Y1222333D01*
X1966003D01*
X1967336Y1221000D01*
X1968668Y1227664D02*
X1972667D01*
X1974000Y1228997D01*
Y1232996D01*
X1968668D01*
X1966003Y1240994D02*
Y1235662D01*
X1970001D01*
Y1238328D01*
Y1235662D01*
X1974000D01*
X1928332Y1190997D02*
X1925666Y1189665D01*
X1923000Y1186999D01*
Y1184333D01*
X1924333Y1183000D01*
X1926999D01*
X1928332Y1184333D01*
Y1185666D01*
X1926999Y1186999D01*
X1923000D01*
X1930997Y1183000D02*
Y1184333D01*
X1932330D01*
Y1183000D01*
X1930997D01*
X1937662Y1189665D02*
X1938995Y1190997D01*
X1941661D01*
X1942993Y1189665D01*
Y1188332D01*
X1941661Y1186999D01*
X1942993Y1185666D01*
Y1184333D01*
X1941661Y1183000D01*
X1938995D01*
X1937662Y1184333D01*
Y1185666D01*
X1938995Y1186999D01*
X1937662Y1188332D01*
Y1189665D01*
X1938995Y1186999D02*
X1941661D01*
X1945659Y1183000D02*
Y1190997D01*
X1949658D01*
X1950991Y1189665D01*
Y1186999D01*
X1949658Y1185666D01*
X1945659D01*
X1958988Y1190997D02*
X1953657D01*
Y1186999D01*
X1956323D01*
X1953657D01*
Y1183000D01*
X1930332Y1104997D02*
X1927666Y1103664D01*
X1925000Y1100999D01*
Y1098333D01*
X1926333Y1097000D01*
X1928999D01*
X1930332Y1098333D01*
Y1099666D01*
X1928999Y1100999D01*
X1925000D01*
X1932997Y1097000D02*
Y1098333D01*
X1934330D01*
Y1097000D01*
X1932997D01*
X1939662Y1103664D02*
X1940995Y1104997D01*
X1943661D01*
X1944993Y1103664D01*
Y1102332D01*
X1943661Y1100999D01*
X1944993Y1099666D01*
Y1098333D01*
X1943661Y1097000D01*
X1940995D01*
X1939662Y1098333D01*
Y1099666D01*
X1940995Y1100999D01*
X1939662Y1102332D01*
Y1103664D01*
X1940995Y1100999D02*
X1943661D01*
X1947659Y1097000D02*
Y1104997D01*
X1951658D01*
X1952991Y1103664D01*
Y1100999D01*
X1951658Y1099666D01*
X1947659D01*
X1960988Y1104997D02*
X1955657D01*
Y1100999D01*
X1958323D01*
X1955657D01*
Y1097000D01*
X2558665Y905000D02*
X2559997Y903667D01*
Y901001D01*
X2558665Y899668D01*
X2553333D01*
X2552000Y901001D01*
Y903667D01*
X2553333Y905000D01*
X2558665D01*
X2552000Y897003D02*
X2553333D01*
Y895670D01*
X2552000D01*
Y897003D01*
Y890338D02*
Y887672D01*
Y889005D01*
X2559997D01*
X2558665Y890338D01*
X2557332Y883673D02*
X2553333D01*
X2552000Y882341D01*
Y878342D01*
X2557332D01*
X2559997Y870344D02*
Y875676D01*
X2555999D01*
Y873010D01*
Y875676D01*
X2552000D01*
X2341000Y776665D02*
X2342333Y777997D01*
X2344999D01*
X2346332Y776665D01*
Y771333D01*
X2344999Y770000D01*
X2342333D01*
X2341000Y771333D01*
Y776665D01*
X2348997Y770000D02*
Y771333D01*
X2350330D01*
Y770000D01*
X2348997D01*
X2355662D02*
X2358328D01*
X2356995D01*
Y777997D01*
X2355662Y776665D01*
X2362327Y775332D02*
Y771333D01*
X2363659Y770000D01*
X2367658D01*
Y775332D01*
X2375656Y777997D02*
X2370324D01*
Y773999D01*
X2372990D01*
X2370324D01*
Y770000D01*
X2341000Y795000D02*
X2343666D01*
X2342333D01*
Y802997D01*
X2341000Y801665D01*
X2347664D02*
X2348997Y802997D01*
X2351663D01*
X2352996Y801665D01*
Y796333D01*
X2351663Y795000D01*
X2348997D01*
X2347664Y796333D01*
Y801665D01*
X2355662Y800332D02*
Y796333D01*
X2356995Y795000D01*
X2360994D01*
Y800332D01*
X2368991Y802997D02*
X2363659D01*
Y798999D01*
X2366325D01*
X2363659D01*
Y795000D01*
X2645315Y1461320D02*
X2646647Y1459987D01*
Y1457321D01*
X2645315Y1455988D01*
X2639983D01*
X2638650Y1457321D01*
Y1459987D01*
X2639983Y1461320D01*
X2645315D01*
X2638650Y1453323D02*
X2639983D01*
Y1451990D01*
X2638650D01*
Y1453323D01*
Y1446658D02*
Y1443992D01*
Y1445325D01*
X2646647D01*
X2645315Y1446658D01*
X2643982Y1439993D02*
X2639983D01*
X2638650Y1438661D01*
Y1434662D01*
X2643982D01*
X2646647Y1426664D02*
Y1431996D01*
X2642649D01*
Y1429330D01*
Y1431996D01*
X2638650D01*
X1579920Y859640D02*
Y856974D01*
Y858307D01*
X1587917D01*
X1586584Y859640D01*
Y852975D02*
X1587917Y851643D01*
Y848977D01*
X1586584Y847644D01*
X1581253D01*
X1579920Y848977D01*
Y851643D01*
X1581253Y852975D01*
X1586584D01*
Y844978D02*
X1587917Y843645D01*
Y840979D01*
X1586584Y839646D01*
X1581253D01*
X1579920Y840979D01*
Y843645D01*
X1581253Y844978D01*
X1586584D01*
X1587917Y836981D02*
X1581253D01*
X1579920Y835648D01*
Y832982D01*
X1581253Y831649D01*
X1587917D01*
Y823652D02*
Y828983D01*
X1583919D01*
Y826317D01*
Y828983D01*
X1579920D01*
X1587917Y807657D02*
X1586584Y810323D01*
X1583919Y812988D01*
X1581253D01*
X1579920Y811656D01*
Y808990D01*
X1581253Y807657D01*
X1582586D01*
X1583919Y808990D01*
Y812988D01*
X1579920Y804991D02*
X1581253D01*
Y803658D01*
X1579920D01*
Y804991D01*
X1586584Y798326D02*
X1587917Y796993D01*
Y794328D01*
X1586584Y792995D01*
X1585252D01*
X1583919Y794328D01*
Y795661D01*
Y794328D01*
X1582586Y792995D01*
X1581253D01*
X1579920Y794328D01*
Y796993D01*
X1581253Y798326D01*
X1587917Y790329D02*
X1582586D01*
X1579920Y787663D01*
X1582586Y784997D01*
X1587917D01*
X1748822Y662460D02*
X1743490D01*
X1748822Y667792D01*
Y669125D01*
X1747489Y670457D01*
X1744823D01*
X1743490Y669125D01*
X1756819Y662460D02*
X1751487D01*
X1756819Y667792D01*
Y669125D01*
X1755486Y670457D01*
X1752820D01*
X1751487Y669125D01*
X1759485Y667792D02*
Y663793D01*
X1760818Y662460D01*
X1764816D01*
Y667792D01*
X1772814Y670457D02*
X1767482D01*
Y666459D01*
X1770148D01*
X1767482D01*
Y662460D01*
X1631650Y705988D02*
Y711320D01*
X1636982Y705988D01*
X1638315D01*
X1639647Y707321D01*
Y709987D01*
X1638315Y711320D01*
X1631650Y697991D02*
Y703323D01*
X1636982Y697991D01*
X1638315D01*
X1639647Y699324D01*
Y701990D01*
X1638315Y703323D01*
X1631650Y695325D02*
X1636982D01*
Y691327D01*
X1635649Y689994D01*
X1631650D01*
X1639647Y681996D02*
Y687328D01*
X1635649D01*
Y684662D01*
Y687328D01*
X1631650D01*
X1604650Y705988D02*
Y711320D01*
X1609982Y705988D01*
X1611315D01*
X1612647Y707321D01*
Y709987D01*
X1611315Y711320D01*
X1604650Y697991D02*
Y703323D01*
X1609982Y697991D01*
X1611315D01*
X1612647Y699324D01*
Y701990D01*
X1611315Y703323D01*
Y695325D02*
X1612647Y693992D01*
Y691326D01*
X1611315Y689994D01*
X1605983D01*
X1604650Y691326D01*
Y693992D01*
X1605983Y695325D01*
X1611315D01*
X1601984Y687328D02*
X1609982D01*
Y683329D01*
X1608649Y681996D01*
X1605983D01*
X1604650Y683329D01*
Y687328D01*
X1612647Y673999D02*
Y679330D01*
X1608649D01*
Y676665D01*
Y679330D01*
X1604650D01*
X1773680Y862650D02*
X1776346D01*
X1775013D01*
Y870647D01*
X1773680Y869314D01*
X1780345D02*
X1781677Y870647D01*
X1784343D01*
X1785676Y869314D01*
Y863983D01*
X1784343Y862650D01*
X1781677D01*
X1780345Y863983D01*
Y869314D01*
X1788342Y867982D02*
Y863983D01*
X1789675Y862650D01*
X1793674D01*
Y867982D01*
X1801671Y870647D02*
X1796339D01*
Y866649D01*
X1799005D01*
X1796339D01*
Y862650D01*
X1773680Y898315D02*
X1775013Y899647D01*
X1777679D01*
X1779012Y898315D01*
Y892983D01*
X1777679Y891650D01*
X1775013D01*
X1773680Y892983D01*
Y898315D01*
X1781677Y891650D02*
Y892983D01*
X1783010D01*
Y891650D01*
X1781677D01*
X1788342D02*
X1791008D01*
X1789675D01*
Y899647D01*
X1788342Y898315D01*
X1795007Y896982D02*
Y892983D01*
X1796339Y891650D01*
X1800338D01*
Y896982D01*
X1808336Y899647D02*
X1803004D01*
Y895649D01*
X1805670D01*
X1803004D01*
Y891650D01*
X1773680Y920650D02*
X1776346D01*
X1775013D01*
Y928647D01*
X1773680Y927315D01*
X1780345Y925982D02*
Y921983D01*
X1781677Y920650D01*
X1785676D01*
Y925982D01*
X1793674Y928647D02*
X1788342D01*
Y924649D01*
X1791008D01*
X1788342D01*
Y920650D01*
X1736332Y752664D02*
X1734999Y753997D01*
X1732333D01*
X1731000Y752664D01*
Y751332D01*
X1732333Y749999D01*
X1734999D01*
X1736332Y748666D01*
Y747333D01*
X1734999Y746000D01*
X1732333D01*
X1731000Y747333D01*
X1738997Y753997D02*
X1744329D01*
X1741663D01*
Y746000D01*
X1746995D02*
Y753997D01*
X1750994D01*
X1752326Y752664D01*
Y749999D01*
X1750994Y748666D01*
X1746995D01*
X1760324Y752664D02*
X1758991Y753997D01*
X1756325D01*
X1754992Y752664D01*
Y751332D01*
X1756325Y749999D01*
X1758991D01*
X1760324Y748666D01*
Y747333D01*
X1758991Y746000D01*
X1756325D01*
X1754992Y747333D01*
X1762990Y752664D02*
X1764323Y753997D01*
X1766988D01*
X1768321Y752664D01*
Y751332D01*
X1766988Y749999D01*
X1765656D01*
X1766988D01*
X1768321Y748666D01*
Y747333D01*
X1766988Y746000D01*
X1764323D01*
X1762990Y747333D01*
X1774986Y746000D02*
Y753997D01*
X1770987Y749999D01*
X1776319D01*
X1778985Y752664D02*
X1780317Y753997D01*
X1782983D01*
X1784316Y752664D01*
Y747333D01*
X1782983Y746000D01*
X1780317D01*
X1778985Y747333D01*
Y752664D01*
X1786982Y753997D02*
Y747333D01*
X1788315Y746000D01*
X1790981D01*
X1792314Y747333D01*
Y753997D01*
X1637332Y845665D02*
X1635999Y846997D01*
X1633333D01*
X1632000Y845665D01*
Y840333D01*
X1633333Y839000D01*
X1635999D01*
X1637332Y840333D01*
X1639997Y846997D02*
Y839000D01*
X1643996D01*
X1645329Y840333D01*
Y845665D01*
X1643996Y846997D01*
X1639997D01*
X1647995Y839000D02*
Y846997D01*
X1651994D01*
X1653326Y845665D01*
Y842999D01*
X1651994Y841666D01*
X1647995D01*
X1650661D02*
X1653326Y839000D01*
X1655992Y846997D02*
Y839000D01*
Y842999D01*
X1661324D01*
Y846997D01*
Y839000D01*
X1663990D02*
X1666655D01*
X1665323D01*
Y846997D01*
X1663990Y845665D01*
X1675986Y839000D02*
X1670654D01*
X1675986Y844332D01*
Y845665D01*
X1674653Y846997D01*
X1671987D01*
X1670654Y845665D01*
X1683983Y846997D02*
X1678652D01*
Y842999D01*
X1681317Y844332D01*
X1682650D01*
X1683983Y842999D01*
Y840333D01*
X1682650Y839000D01*
X1679984D01*
X1678652Y840333D01*
X1686649Y839000D02*
Y846997D01*
X1691981Y839000D01*
Y846997D01*
X1694646Y839000D02*
Y846997D01*
X1698645D01*
X1699978Y845665D01*
Y842999D01*
X1698645Y841666D01*
X1694646D01*
X1702644Y842999D02*
X1707975D01*
X1710641Y839000D02*
X1713307D01*
X1711974D01*
Y846997D01*
X1710641Y845665D01*
X1722637Y846997D02*
X1717306D01*
Y842999D01*
X1719972Y844332D01*
X1721304D01*
X1722637Y842999D01*
Y840333D01*
X1721304Y839000D01*
X1718639D01*
X1717306Y840333D01*
X1725303Y845665D02*
X1726636Y846997D01*
X1729302D01*
X1730635Y845665D01*
Y840333D01*
X1729302Y839000D01*
X1726636D01*
X1725303Y840333D01*
Y845665D01*
X1733301Y839000D02*
Y846997D01*
X1735966Y844332D01*
X1738632Y846997D01*
Y839000D01*
X1746630Y845665D02*
X1745297Y846997D01*
X1742631D01*
X1741298Y845665D01*
Y840333D01*
X1742631Y839000D01*
X1745297D01*
X1746630Y840333D01*
X2098332Y766997D02*
X2093000D01*
Y762999D01*
X2095666Y764332D01*
X2096999D01*
X2098332Y762999D01*
Y760333D01*
X2096999Y759000D01*
X2094333D01*
X2093000Y760333D01*
X2100997Y759000D02*
X2103663D01*
X2102330D01*
Y766997D01*
X2100997Y765665D01*
X2107662D02*
X2108995Y766997D01*
X2111661D01*
X2112994Y765665D01*
Y760333D01*
X2111661Y759000D01*
X2108995D01*
X2107662Y760333D01*
Y765665D01*
X2115659Y759000D02*
Y766997D01*
X2119658D01*
X2120991Y765665D01*
Y762999D01*
X2119658Y761666D01*
X2115659D01*
X2118325D02*
X2120991Y759000D01*
X2452000Y1183000D02*
Y1185666D01*
Y1184333D01*
X2444003D01*
X2445336Y1183000D01*
X2444003Y1189665D02*
X2452000D01*
X2449334D01*
X2444003Y1194996D01*
X2448001Y1190997D01*
X2452000Y1194996D01*
X1938000Y1068335D02*
X1936667Y1067003D01*
X1934001D01*
X1932668Y1068335D01*
Y1073667D01*
X1934001Y1075000D01*
X1936667D01*
X1938000Y1073667D01*
Y1068335D01*
X1928000Y1048664D02*
X1929333Y1049997D01*
X1931999D01*
X1933332Y1048664D01*
Y1047332D01*
X1931999Y1045999D01*
X1930666D01*
X1931999D01*
X1933332Y1044666D01*
Y1043333D01*
X1931999Y1042000D01*
X1929333D01*
X1928000Y1043333D01*
X1935997Y1048664D02*
X1937330Y1049997D01*
X1939996D01*
X1941329Y1048664D01*
Y1047332D01*
X1939996Y1045999D01*
X1938663D01*
X1939996D01*
X1941329Y1044666D01*
Y1043333D01*
X1939996Y1042000D01*
X1937330D01*
X1935997Y1043333D01*
X1943995Y1042000D02*
Y1049997D01*
X1947994D01*
X1949326Y1048664D01*
Y1045999D01*
X1947994Y1044666D01*
X1943995D01*
X1946661D02*
X1949326Y1042000D01*
X2002000Y1219999D02*
X1994003D01*
X1998001Y1216000D01*
Y1221332D01*
X2002000Y1223997D02*
X2000667D01*
Y1225330D01*
X2002000D01*
Y1223997D01*
X1994003Y1230662D02*
Y1235993D01*
X1995336D01*
X2000667Y1230662D01*
X2002000D01*
X1994003Y1238659D02*
X2002000D01*
X1999334D01*
X1994003Y1243991D01*
X1998001Y1239992D01*
X2002000Y1243991D01*
X2444000Y1282000D02*
X2446666D01*
X2445333D01*
Y1289997D01*
X2444000Y1288665D01*
X2450665Y1289997D02*
Y1282000D01*
Y1284666D01*
X2455996Y1289997D01*
X2451997Y1285999D01*
X2455996Y1282000D01*
X2166000Y796000D02*
X2168666D01*
X2167333D01*
Y803997D01*
X2166000Y802664D01*
X2172664D02*
X2173997Y803997D01*
X2176663D01*
X2177996Y802664D01*
Y797333D01*
X2176663Y796000D01*
X2173997D01*
X2172664Y797333D01*
Y802664D01*
X2180662Y803997D02*
Y796000D01*
Y798666D01*
X2185993Y803997D01*
X2181995Y799999D01*
X2185993Y796000D01*
X2445000Y1373000D02*
X2447666D01*
X2446333D01*
Y1380997D01*
X2445000Y1379664D01*
X2451664Y1380997D02*
Y1373000D01*
Y1375666D01*
X2456996Y1380997D01*
X2452997Y1376999D01*
X2456996Y1373000D01*
X2632680Y1268920D02*
X2635346D01*
X2634013D01*
Y1276917D01*
X2632680Y1275584D01*
X2639344Y1276917D02*
Y1268920D01*
Y1271586D01*
X2644676Y1276917D01*
X2640677Y1272919D01*
X2644676Y1268920D01*
X2632680Y1301920D02*
X2635346D01*
X2634013D01*
Y1309917D01*
X2632680Y1308584D01*
X2639344Y1309917D02*
Y1301920D01*
Y1304586D01*
X2644676Y1309917D01*
X2640677Y1305919D01*
X2644676Y1301920D01*
X2633680Y1333920D02*
X2636346D01*
X2635013D01*
Y1341917D01*
X2633680Y1340585D01*
X2640345Y1341917D02*
Y1333920D01*
Y1336586D01*
X2645676Y1341917D01*
X2641678Y1337919D01*
X2645676Y1333920D01*
X1974080Y1005680D02*
Y1008346D01*
Y1007013D01*
X1966083D01*
X1967415Y1005680D01*
Y1012345D02*
X1966083Y1013677D01*
Y1016343D01*
X1967415Y1017676D01*
X1972747D01*
X1974080Y1016343D01*
Y1013677D01*
X1972747Y1012345D01*
X1967415D01*
X1974080Y1020342D02*
X1966083D01*
Y1024341D01*
X1967415Y1025674D01*
X1970081D01*
X1971414Y1024341D01*
Y1020342D01*
Y1023008D02*
X1974080Y1025674D01*
X2634680Y1365920D02*
X2637346D01*
X2636013D01*
Y1373917D01*
X2634680Y1372585D01*
X2641345Y1373917D02*
Y1365920D01*
Y1368586D01*
X2646676Y1373917D01*
X2642677Y1369919D01*
X2646676Y1365920D01*
X2099003Y964332D02*
Y959000D01*
X2103001D01*
X2101668Y961666D01*
Y962999D01*
X2103001Y964332D01*
X2105667D01*
X2107000Y962999D01*
Y960333D01*
X2105667Y959000D01*
X2107000Y966997D02*
Y969663D01*
Y968330D01*
X2099003D01*
X2100336Y966997D01*
Y973662D02*
X2099003Y974995D01*
Y977661D01*
X2100336Y978994D01*
X2105667D01*
X2107000Y977661D01*
Y974995D01*
X2105667Y973662D01*
X2100336D01*
X2107000Y981659D02*
X2099003D01*
Y985658D01*
X2100336Y986991D01*
X2103001D01*
X2104334Y985658D01*
Y981659D01*
Y984325D02*
X2107000Y986991D01*
X1761680Y977920D02*
X1764346D01*
X1763013D01*
Y985917D01*
X1761680Y984585D01*
X1768345Y985917D02*
Y977920D01*
Y980586D01*
X1773676Y985917D01*
X1769677Y981919D01*
X1773676Y977920D01*
X1518000Y1286000D02*
X1520666D01*
X1519333D01*
Y1293997D01*
X1518000Y1292664D01*
X1524664Y1293997D02*
Y1286000D01*
Y1288666D01*
X1529996Y1293997D01*
X1525997Y1289999D01*
X1529996Y1286000D01*
X1487000Y1318000D02*
X1489666D01*
X1488333D01*
Y1325997D01*
X1487000Y1324664D01*
X1493665Y1325997D02*
Y1318000D01*
Y1320666D01*
X1498996Y1325997D01*
X1494997Y1321999D01*
X1498996Y1318000D01*
X1685920Y1045320D02*
Y1042654D01*
Y1043987D01*
X1693917D01*
X1692584Y1045320D01*
X1693917Y1038655D02*
X1685920D01*
X1688586D01*
X1693917Y1033324D01*
X1689919Y1037323D01*
X1685920Y1033324D01*
X1659920Y1045320D02*
Y1042654D01*
Y1043987D01*
X1667917D01*
X1666584Y1045320D01*
X1667917Y1038655D02*
X1659920D01*
X1662586D01*
X1667917Y1033324D01*
X1663919Y1037322D01*
X1659920Y1033324D01*
X1649000Y1178000D02*
Y1175334D01*
Y1176667D01*
X1656997D01*
X1655665Y1178000D01*
X1656997Y1171336D02*
X1649000D01*
X1651666D01*
X1656997Y1166004D01*
X1652999Y1170003D01*
X1649000Y1166004D01*
X1711920Y1045320D02*
Y1042654D01*
Y1043987D01*
X1719917D01*
X1718584Y1045320D01*
X1719917Y1038655D02*
X1711920D01*
X1714586D01*
X1719917Y1033324D01*
X1715919Y1037323D01*
X1711920Y1033324D01*
X1734920Y1045320D02*
Y1042654D01*
Y1043987D01*
X1742917D01*
X1741584Y1045320D01*
X1742917Y1038655D02*
X1734920D01*
X1737586D01*
X1742917Y1033324D01*
X1738919Y1037323D01*
X1734920Y1033324D01*
X1491000Y1212000D02*
Y1214666D01*
Y1213333D01*
X1483003D01*
X1484335Y1212000D01*
X1483003Y1218664D02*
X1491000D01*
X1488334D01*
X1483003Y1223996D01*
X1487001Y1219997D01*
X1491000Y1223996D01*
X1465000Y1211000D02*
Y1213666D01*
Y1212333D01*
X1457003D01*
X1458336Y1211000D01*
X1457003Y1217664D02*
X1465000D01*
X1462334D01*
X1457003Y1222996D01*
X1461001Y1218997D01*
X1465000Y1222996D01*
X1616000Y734000D02*
Y736666D01*
Y735333D01*
X1608003D01*
X1609335Y734000D01*
Y740665D02*
X1608003Y741997D01*
Y744663D01*
X1609335Y745996D01*
X1610668D01*
X1612001Y744663D01*
X1613334Y745996D01*
X1614667D01*
X1616000Y744663D01*
Y741997D01*
X1614667Y740665D01*
X1613334D01*
X1612001Y741997D01*
X1610668Y740665D01*
X1609335D01*
X1612001Y741997D02*
Y744663D01*
X1608003Y748662D02*
X1616000D01*
X1613334D01*
X1608003Y753994D01*
X1612001Y749995D01*
X1616000Y753994D01*
X1640000Y729999D02*
X1632003D01*
X1636001Y726000D01*
Y731332D01*
X1632003Y733997D02*
Y739329D01*
X1633336D01*
X1638667Y733997D01*
X1640000D01*
X1632003Y741995D02*
X1640000D01*
X1637334D01*
X1632003Y747326D01*
X1636001Y743328D01*
X1640000Y747326D01*
X1660679Y670920D02*
Y678917D01*
X1656680Y674919D01*
X1662012D01*
X1664677Y670920D02*
Y672253D01*
X1666010D01*
Y670920D01*
X1664677D01*
X1671342Y678917D02*
X1676674D01*
Y677585D01*
X1671342Y672253D01*
Y670920D01*
X1679339Y678917D02*
Y670920D01*
Y673586D01*
X1684671Y678917D01*
X1680672Y674919D01*
X1684671Y670920D01*
X2438332Y859665D02*
X2436999Y860997D01*
X2434333D01*
X2433000Y859665D01*
Y858332D01*
X2434333Y856999D01*
X2436999D01*
X2438332Y855666D01*
Y854333D01*
X2436999Y853000D01*
X2434333D01*
X2433000Y854333D01*
X2440997Y860997D02*
Y853000D01*
X2446329D01*
X2448995Y859665D02*
X2450328Y860997D01*
X2452993D01*
X2454326Y859665D01*
Y858332D01*
X2452993Y856999D01*
X2454326Y855666D01*
Y854333D01*
X2452993Y853000D01*
X2450328D01*
X2448995Y854333D01*
Y855666D01*
X2450328Y856999D01*
X2448995Y858332D01*
Y859665D01*
X2450328Y856999D02*
X2452993D01*
X2462324Y860997D02*
X2459658Y859665D01*
X2456992Y856999D01*
Y854333D01*
X2458325Y853000D01*
X2460991D01*
X2462324Y854333D01*
Y855666D01*
X2460991Y856999D01*
X2456992D01*
X2464990Y854333D02*
X2466323Y853000D01*
X2468988D01*
X2470321Y854333D01*
Y859665D01*
X2468988Y860997D01*
X2466323D01*
X2464990Y859665D01*
Y858332D01*
X2466323Y856999D01*
X2470321D01*
X2472987Y860997D02*
Y855666D01*
X2475653Y853000D01*
X2478319Y855666D01*
Y860997D01*
X2486316Y853000D02*
X2480984D01*
X2486316Y858332D01*
Y859665D01*
X2484983Y860997D01*
X2482317D01*
X2480984Y859665D01*
X1470000Y1291997D02*
Y1284000D01*
X1473999D01*
X1475332Y1285333D01*
Y1286666D01*
X1473999Y1287999D01*
X1470000D01*
X1473999D01*
X1475332Y1289332D01*
Y1290665D01*
X1473999Y1291997D01*
X1470000D01*
X1483329Y1290665D02*
X1481996Y1291997D01*
X1479330D01*
X1477997Y1290665D01*
Y1285333D01*
X1479330Y1284000D01*
X1481996D01*
X1483329Y1285333D01*
X1485995Y1290665D02*
X1487328Y1291997D01*
X1489994D01*
X1491326Y1290665D01*
Y1289332D01*
X1489994Y1287999D01*
X1491326Y1286666D01*
Y1285333D01*
X1489994Y1284000D01*
X1487328D01*
X1485995Y1285333D01*
Y1286666D01*
X1487328Y1287999D01*
X1485995Y1289332D01*
Y1290665D01*
X1487328Y1287999D02*
X1489994D01*
X1493992Y1284000D02*
X1496658D01*
X1495325D01*
Y1291997D01*
X1493992Y1290665D01*
X1500657Y1291997D02*
X1505988D01*
Y1290665D01*
X1500657Y1285333D01*
Y1284000D01*
X1674332Y1336664D02*
X1672999Y1337997D01*
X1670333D01*
X1669000Y1336664D01*
Y1331333D01*
X1670333Y1330000D01*
X1672999D01*
X1674332Y1331333D01*
Y1333999D01*
X1671666D01*
X1676997Y1337997D02*
Y1330000D01*
X1682329D01*
X1684995Y1336664D02*
X1686328Y1337997D01*
X1688994D01*
X1690326Y1336664D01*
Y1335332D01*
X1688994Y1333999D01*
X1690326Y1332666D01*
Y1331333D01*
X1688994Y1330000D01*
X1686328D01*
X1684995Y1331333D01*
Y1332666D01*
X1686328Y1333999D01*
X1684995Y1335332D01*
Y1336664D01*
X1686328Y1333999D02*
X1688994D01*
X1698324Y1337997D02*
X1695658Y1336664D01*
X1692992Y1333999D01*
Y1331333D01*
X1694325Y1330000D01*
X1696991D01*
X1698324Y1331333D01*
Y1332666D01*
X1696991Y1333999D01*
X1692992D01*
X1706321Y1337997D02*
X1700990D01*
Y1333999D01*
X1703656Y1335332D01*
X1704988D01*
X1706321Y1333999D01*
Y1331333D01*
X1704988Y1330000D01*
X1702323D01*
X1700990Y1331333D01*
X1708987Y1333999D02*
X1714319D01*
X1716985Y1337997D02*
Y1330000D01*
X1720983D01*
X1722316Y1331333D01*
Y1336664D01*
X1720983Y1337997D01*
X1716985D01*
X1724982D02*
Y1331333D01*
X1726315Y1330000D01*
X1728981D01*
X1730314Y1331333D01*
Y1337997D01*
X1732979Y1330000D02*
Y1335332D01*
X1735645Y1337997D01*
X1738311Y1335332D01*
Y1330000D01*
Y1333999D01*
X1732979D01*
X1740977Y1337997D02*
Y1330000D01*
X1746308D01*
X1657000Y737997D02*
Y730000D01*
X1662332D01*
X1670329Y737997D02*
X1664997D01*
Y733999D01*
X1667663Y735332D01*
X1668996D01*
X1670329Y733999D01*
Y731333D01*
X1668996Y730000D01*
X1666330D01*
X1664997Y731333D01*
X1672995D02*
X1674328Y730000D01*
X1676994D01*
X1678326Y731333D01*
Y736665D01*
X1676994Y737997D01*
X1674328D01*
X1672995Y736665D01*
Y735332D01*
X1674328Y733999D01*
X1678326D01*
X1680992Y737997D02*
X1686324D01*
Y736665D01*
X1680992Y731333D01*
Y730000D01*
X1688990Y736665D02*
X1690323Y737997D01*
X1692988D01*
X1694321Y736665D01*
Y735332D01*
X1692988Y733999D01*
X1691655D01*
X1692988D01*
X1694321Y732666D01*
Y731333D01*
X1692988Y730000D01*
X1690323D01*
X1688990Y731333D01*
X1696987Y737997D02*
Y730000D01*
X1700986D01*
X1702319Y731333D01*
Y736665D01*
X1700986Y737997D01*
X1696987D01*
X1704984Y736665D02*
X1706317Y737997D01*
X1708983D01*
X1710316Y736665D01*
Y731333D01*
X1708983Y730000D01*
X1706317D01*
X1704984Y731333D01*
Y736665D01*
X1712982Y730000D02*
X1715648D01*
X1714315D01*
Y737997D01*
X1712982Y736665D01*
X1719646D02*
X1720979Y737997D01*
X1723645D01*
X1724978Y736665D01*
Y735332D01*
X1723645Y733999D01*
X1722312D01*
X1723645D01*
X1724978Y732666D01*
Y731333D01*
X1723645Y730000D01*
X1720979D01*
X1719646Y731333D01*
X1727644Y737997D02*
X1732975D01*
X1730310D01*
Y730000D01*
X1735641D02*
Y737997D01*
X1739640D01*
X1740973Y736665D01*
Y733999D01*
X1739640Y732666D01*
X1735641D01*
X1738307D02*
X1740973Y730000D01*
X1716000Y953997D02*
X1721332D01*
X1718666D01*
Y946000D01*
X1723997Y953997D02*
Y946000D01*
X1729329D01*
X1731995Y953997D02*
Y948666D01*
X1734661Y946000D01*
X1737326Y948666D01*
Y953997D01*
X1739992D02*
X1745324D01*
Y952664D01*
X1739992Y947333D01*
Y946000D01*
X1747990Y952664D02*
X1749323Y953997D01*
X1751988D01*
X1753321Y952664D01*
Y947333D01*
X1751988Y946000D01*
X1749323D01*
X1747990Y947333D01*
Y952664D01*
X1761319Y946000D02*
X1755987D01*
X1761319Y951332D01*
Y952664D01*
X1759986Y953997D01*
X1757320D01*
X1755987Y952664D01*
X1763985D02*
X1765317Y953997D01*
X1767983D01*
X1769316Y952664D01*
Y951332D01*
X1767983Y949999D01*
X1766650D01*
X1767983D01*
X1769316Y948666D01*
Y947333D01*
X1767983Y946000D01*
X1765317D01*
X1763985Y947333D01*
X1771982Y952664D02*
X1773315Y953997D01*
X1775981D01*
X1777314Y952664D01*
Y951332D01*
X1775981Y949999D01*
X1774648D01*
X1775981D01*
X1777314Y948666D01*
Y947333D01*
X1775981Y946000D01*
X1773315D01*
X1771982Y947333D01*
X1779979Y953997D02*
Y946000D01*
X1783978D01*
X1785311Y947333D01*
Y952664D01*
X1783978Y953997D01*
X1779979D01*
X1787977D02*
Y946000D01*
X1791976D01*
X1793308Y947333D01*
Y948666D01*
X1791976Y949999D01*
X1787977D01*
X1791976D01*
X1793308Y951332D01*
Y952664D01*
X1791976Y953997D01*
X1787977D01*
X1795974D02*
Y948666D01*
X1798640Y946000D01*
X1801306Y948666D01*
Y953997D01*
X1803972D02*
X1809303D01*
X1806637D01*
Y946000D01*
X1611332Y1624664D02*
X1609999Y1625997D01*
X1607333D01*
X1606000Y1624664D01*
Y1623332D01*
X1607333Y1621999D01*
X1609999D01*
X1611332Y1620666D01*
Y1619333D01*
X1609999Y1618000D01*
X1607333D01*
X1606000Y1619333D01*
X1613997Y1618000D02*
Y1625997D01*
X1616663Y1623332D01*
X1619329Y1625997D01*
Y1618000D01*
X1621995D02*
Y1623332D01*
X1624661Y1625997D01*
X1627326Y1623332D01*
Y1618000D01*
Y1621999D01*
X1621995D01*
X1635324Y1625997D02*
X1632658Y1624664D01*
X1629992Y1621999D01*
Y1619333D01*
X1631325Y1618000D01*
X1633991D01*
X1635324Y1619333D01*
Y1620666D01*
X1633991Y1621999D01*
X1629992D01*
X1643321Y1618000D02*
X1637990D01*
X1643321Y1623332D01*
Y1624664D01*
X1641988Y1625997D01*
X1639323D01*
X1637990Y1624664D01*
X1651319Y1625997D02*
X1645987D01*
Y1621999D01*
X1648653Y1623332D01*
X1649986D01*
X1651319Y1621999D01*
Y1619333D01*
X1649986Y1618000D01*
X1647320D01*
X1645987Y1619333D01*
X1659316Y1618000D02*
X1653985D01*
X1659316Y1623332D01*
Y1624664D01*
X1657983Y1625997D01*
X1655317D01*
X1653985Y1624664D01*
X1661982Y1618000D02*
Y1623332D01*
X1664648Y1625997D01*
X1667314Y1623332D01*
Y1618000D01*
Y1621999D01*
X1661982D01*
X1675311Y1618000D02*
X1669979D01*
X1675311Y1623332D01*
Y1624664D01*
X1673978Y1625997D01*
X1671312D01*
X1669979Y1624664D01*
X1677977Y1621999D02*
X1683308D01*
X1685974Y1624664D02*
X1687307Y1625997D01*
X1689973D01*
X1691306Y1624664D01*
Y1623332D01*
X1689973Y1621999D01*
X1688640D01*
X1689973D01*
X1691306Y1620666D01*
Y1619333D01*
X1689973Y1618000D01*
X1687307D01*
X1685974Y1619333D01*
X1699303Y1624664D02*
X1697970Y1625997D01*
X1695305D01*
X1693972Y1624664D01*
Y1619333D01*
X1695305Y1618000D01*
X1697970D01*
X1699303Y1619333D01*
Y1621999D01*
X1696637D01*
X1701969Y1625997D02*
X1707301D01*
X1704635D01*
Y1618000D01*
X1715298Y1625997D02*
X1709966D01*
Y1621999D01*
X1712632Y1623332D01*
X1713965D01*
X1715298Y1621999D01*
Y1619333D01*
X1713965Y1618000D01*
X1711299D01*
X1709966Y1619333D01*
X1717964Y1624664D02*
X1719297Y1625997D01*
X1721963D01*
X1723295Y1624664D01*
Y1619333D01*
X1721963Y1618000D01*
X1719297D01*
X1717964Y1619333D01*
Y1624664D01*
X1731293D02*
X1729960Y1625997D01*
X1727294D01*
X1725961Y1624664D01*
Y1619333D01*
X1727294Y1618000D01*
X1729960D01*
X1731293Y1619333D01*
Y1621999D01*
X1728627D01*
X1733959D02*
X1739290D01*
X1747288Y1625997D02*
X1741956D01*
Y1621999D01*
X1744622Y1623332D01*
X1745955D01*
X1747288Y1621999D01*
Y1619333D01*
X1745955Y1618000D01*
X1743289D01*
X1741956Y1619333D01*
X1749953Y1624664D02*
X1751286Y1625997D01*
X1753952D01*
X1755285Y1624664D01*
Y1619333D01*
X1753952Y1618000D01*
X1751286D01*
X1749953Y1619333D01*
Y1624664D01*
X1936000Y1495000D02*
X1938666D01*
X1937333D01*
Y1502997D01*
X1936000Y1501664D01*
X1942664Y1495000D02*
X1945330D01*
X1943997D01*
Y1502997D01*
X1942664Y1501664D01*
X1954661Y1502997D02*
X1949329D01*
Y1498999D01*
X1951995Y1500332D01*
X1953328D01*
X1954661Y1498999D01*
Y1496333D01*
X1953328Y1495000D01*
X1950662D01*
X1949329Y1496333D01*
X1957327Y1502997D02*
X1959992D01*
X1958659D01*
Y1495000D01*
X1957327D01*
X1959992D01*
X1963991Y1498999D02*
X1969323D01*
X1971988Y1495000D02*
Y1500332D01*
X1974654Y1502997D01*
X1977320Y1500332D01*
Y1495000D01*
Y1498999D01*
X1971988D01*
X1985317Y1502997D02*
X1979986D01*
Y1495000D01*
X1985317D01*
X1979986Y1498999D02*
X1982652D01*
X1987983Y1495000D02*
Y1500332D01*
X1990649Y1502997D01*
X1993315Y1500332D01*
Y1495000D01*
Y1498999D01*
X1987983D01*
X1995981Y1495000D02*
Y1500332D01*
X1998647Y1502997D01*
X2001312Y1500332D01*
Y1495000D01*
Y1498999D01*
X1995981D01*
X1468500Y814000D02*
X1476497D01*
Y810001D01*
X1475164Y808668D01*
X1472499D01*
X1471166Y810001D01*
Y814000D01*
X1476497Y802004D02*
Y804670D01*
X1475164Y806003D01*
X1469833D01*
X1468500Y804670D01*
Y802004D01*
X1469833Y800671D01*
X1475164D01*
X1476497Y802004D01*
Y798005D02*
X1468500D01*
X1471166Y795339D01*
X1468500Y792673D01*
X1476497D01*
Y784676D02*
Y790008D01*
X1468500D01*
Y784676D01*
X1472499Y790008D02*
Y787342D01*
X1468500Y782010D02*
X1476497D01*
Y778012D01*
X1475164Y776679D01*
X1472499D01*
X1471166Y778012D01*
Y782010D01*
Y779344D02*
X1468500Y776679D01*
X1467167Y774013D02*
Y768681D01*
X1476497Y766015D02*
Y760684D01*
Y763350D01*
X1468500D01*
X1476497Y752686D02*
Y758018D01*
X1468500D01*
Y752686D01*
X1472499Y758018D02*
Y755352D01*
X1468500Y750021D02*
X1476497D01*
Y746022D01*
X1475164Y744689D01*
X1472499D01*
X1471166Y746022D01*
Y750021D01*
Y747355D02*
X1468500Y744689D01*
Y742023D02*
X1476497D01*
X1473832Y739357D01*
X1476497Y736692D01*
X1468500D01*
X1444500Y925000D02*
Y922334D01*
Y923667D01*
X1452497D01*
X1451165Y925000D01*
X1452497Y913004D02*
X1451165Y915670D01*
X1448499Y918335D01*
X1445833D01*
X1444500Y917003D01*
Y914337D01*
X1445833Y913004D01*
X1447166D01*
X1448499Y914337D01*
Y918335D01*
X1444500Y910338D02*
X1452497D01*
X1449832Y907672D01*
X1452497Y905006D01*
X1444500D01*
Y897009D02*
Y902341D01*
X1449832Y897009D01*
X1451165D01*
X1452497Y898342D01*
Y901008D01*
X1451165Y902341D01*
X1452497Y894343D02*
Y889012D01*
X1451165D01*
X1445833Y894343D01*
X1444500D01*
X1452497Y881014D02*
X1451165Y883680D01*
X1448499Y886346D01*
X1445833D01*
X1444500Y885013D01*
Y882347D01*
X1445833Y881014D01*
X1447166D01*
X1448499Y882347D01*
Y886346D01*
X1444500Y874350D02*
X1452497D01*
X1448499Y878348D01*
Y873017D01*
X1721680Y709314D02*
X1723013Y710647D01*
X1725679D01*
X1727012Y709314D01*
Y703983D01*
X1725679Y702650D01*
X1723013D01*
X1721680Y703983D01*
Y709314D01*
X1729677Y702650D02*
Y703983D01*
X1731010D01*
Y702650D01*
X1729677D01*
X1736342D02*
X1739008D01*
X1737675D01*
Y710647D01*
X1736342Y709314D01*
X1743006Y707982D02*
Y703983D01*
X1744339Y702650D01*
X1748338D01*
Y707982D01*
X1756335Y710647D02*
X1751004D01*
Y706649D01*
X1753670D01*
X1751004D01*
Y702650D01*
X1844335Y1562000D02*
X1843003Y1563333D01*
Y1565999D01*
X1844335Y1567332D01*
X1849667D01*
X1851000Y1565999D01*
Y1563333D01*
X1849667Y1562000D01*
X1844335D01*
X1851000Y1569997D02*
X1849667D01*
Y1571330D01*
X1851000D01*
Y1569997D01*
Y1576662D02*
Y1579328D01*
Y1577995D01*
X1843003D01*
X1844335Y1576662D01*
X1845668Y1583327D02*
X1849667D01*
X1851000Y1584659D01*
Y1588658D01*
X1845668D01*
X1843003Y1596655D02*
Y1591324D01*
X1847001D01*
Y1593990D01*
Y1591324D01*
X1851000D01*
X2038999Y758000D02*
Y765997D01*
X2035000Y761999D01*
X2040332D01*
X2042997Y758000D02*
Y759333D01*
X2044330D01*
Y758000D01*
X2042997D01*
X2049662Y765997D02*
X2054994D01*
Y764665D01*
X2049662Y759333D01*
Y758000D01*
X2057659Y765997D02*
Y758000D01*
Y760666D01*
X2062991Y765997D01*
X2058992Y761999D01*
X2062991Y758000D01*
X1508685Y1559680D02*
X1507353Y1561013D01*
Y1563679D01*
X1508685Y1565012D01*
X1514017D01*
X1515350Y1563679D01*
Y1561013D01*
X1514017Y1559680D01*
X1508685D01*
X1515350Y1567677D02*
X1514017D01*
Y1569010D01*
X1515350D01*
Y1567677D01*
Y1574342D02*
Y1577008D01*
Y1575675D01*
X1507353D01*
X1508685Y1574342D01*
X1510018Y1581006D02*
X1514017D01*
X1515350Y1582339D01*
Y1586338D01*
X1510018D01*
X1507353Y1594335D02*
Y1589004D01*
X1511351D01*
Y1591670D01*
Y1589004D01*
X1515350D01*
X1472000Y1536664D02*
X1473333Y1537997D01*
X1475999D01*
X1477332Y1536664D01*
Y1531333D01*
X1475999Y1530000D01*
X1473333D01*
X1472000Y1531333D01*
Y1536664D01*
X1479997Y1530000D02*
Y1531333D01*
X1481330D01*
Y1530000D01*
X1479997D01*
X1486662D02*
X1489328D01*
X1487995D01*
Y1537997D01*
X1486662Y1536664D01*
X1493327Y1535332D02*
Y1531333D01*
X1494659Y1530000D01*
X1498658D01*
Y1535332D01*
X1506655Y1537997D02*
X1501324D01*
Y1533999D01*
X1503990D01*
X1501324D01*
Y1530000D01*
X1446000Y1487664D02*
X1447333Y1488997D01*
X1449999D01*
X1451332Y1487664D01*
Y1486332D01*
X1449999Y1484999D01*
X1448666D01*
X1449999D01*
X1451332Y1483666D01*
Y1482333D01*
X1449999Y1481000D01*
X1447333D01*
X1446000Y1482333D01*
X1453997Y1487664D02*
X1455330Y1488997D01*
X1457996D01*
X1459329Y1487664D01*
Y1486332D01*
X1457996Y1484999D01*
X1456663D01*
X1457996D01*
X1459329Y1483666D01*
Y1482333D01*
X1457996Y1481000D01*
X1455330D01*
X1453997Y1482333D01*
X1461995Y1487664D02*
X1463328Y1488997D01*
X1465994D01*
X1467327Y1487664D01*
Y1482333D01*
X1465994Y1481000D01*
X1463328D01*
X1461995Y1482333D01*
Y1487664D01*
X1469992Y1488997D02*
Y1482333D01*
X1471325Y1481000D01*
X1473991D01*
X1475324Y1482333D01*
Y1488997D01*
X1483321D02*
X1477990D01*
Y1484999D01*
X1480656D01*
X1477990D01*
Y1481000D01*
X1499316Y1488997D02*
X1496650Y1487664D01*
X1493985Y1484999D01*
Y1482333D01*
X1495317Y1481000D01*
X1497983D01*
X1499316Y1482333D01*
Y1483666D01*
X1497983Y1484999D01*
X1493985D01*
X1501982Y1481000D02*
Y1482333D01*
X1503315D01*
Y1481000D01*
X1501982D01*
X1508647Y1487664D02*
X1509979Y1488997D01*
X1512645D01*
X1513978Y1487664D01*
Y1486332D01*
X1512645Y1484999D01*
X1511312D01*
X1512645D01*
X1513978Y1483666D01*
Y1482333D01*
X1512645Y1481000D01*
X1509979D01*
X1508647Y1482333D01*
X1516644Y1488997D02*
Y1483666D01*
X1519310Y1481000D01*
X1521976Y1483666D01*
Y1488997D01*
X1447000Y1429664D02*
X1448333Y1430997D01*
X1450999D01*
X1452332Y1429664D01*
Y1428332D01*
X1450999Y1426999D01*
X1449666D01*
X1450999D01*
X1452332Y1425666D01*
Y1424333D01*
X1450999Y1423000D01*
X1448333D01*
X1447000Y1424333D01*
X1454997Y1429664D02*
X1456330Y1430997D01*
X1458996D01*
X1460329Y1429664D01*
Y1428332D01*
X1458996Y1426999D01*
X1457663D01*
X1458996D01*
X1460329Y1425666D01*
Y1424333D01*
X1458996Y1423000D01*
X1456330D01*
X1454997Y1424333D01*
X1462995Y1429664D02*
X1464328Y1430997D01*
X1466994D01*
X1468327Y1429664D01*
Y1424333D01*
X1466994Y1423000D01*
X1464328D01*
X1462995Y1424333D01*
Y1429664D01*
X1470992Y1430997D02*
Y1424333D01*
X1472325Y1423000D01*
X1474991D01*
X1476324Y1424333D01*
Y1430997D01*
X1484321D02*
X1478990D01*
Y1426999D01*
X1481655D01*
X1478990D01*
Y1423000D01*
X1500316Y1430997D02*
X1497650Y1429664D01*
X1494984Y1426999D01*
Y1424333D01*
X1496317Y1423000D01*
X1498983D01*
X1500316Y1424333D01*
Y1425666D01*
X1498983Y1426999D01*
X1494984D01*
X1502982Y1423000D02*
Y1424333D01*
X1504315D01*
Y1423000D01*
X1502982D01*
X1509646Y1429664D02*
X1510979Y1430997D01*
X1513645D01*
X1514978Y1429664D01*
Y1428332D01*
X1513645Y1426999D01*
X1512312D01*
X1513645D01*
X1514978Y1425666D01*
Y1424333D01*
X1513645Y1423000D01*
X1510979D01*
X1509646Y1424333D01*
X1517644Y1430997D02*
Y1425666D01*
X1520310Y1423000D01*
X1522975Y1425666D01*
Y1430997D01*
X1447000Y1371664D02*
X1448333Y1372997D01*
X1450999D01*
X1452332Y1371664D01*
Y1370332D01*
X1450999Y1368999D01*
X1449666D01*
X1450999D01*
X1452332Y1367666D01*
Y1366333D01*
X1450999Y1365000D01*
X1448333D01*
X1447000Y1366333D01*
X1454997Y1371664D02*
X1456330Y1372997D01*
X1458996D01*
X1460329Y1371664D01*
Y1370332D01*
X1458996Y1368999D01*
X1457663D01*
X1458996D01*
X1460329Y1367666D01*
Y1366333D01*
X1458996Y1365000D01*
X1456330D01*
X1454997Y1366333D01*
X1462995Y1371664D02*
X1464328Y1372997D01*
X1466994D01*
X1468327Y1371664D01*
Y1366333D01*
X1466994Y1365000D01*
X1464328D01*
X1462995Y1366333D01*
Y1371664D01*
X1470992Y1372997D02*
Y1366333D01*
X1472325Y1365000D01*
X1474991D01*
X1476324Y1366333D01*
Y1372997D01*
X1484321D02*
X1478990D01*
Y1368999D01*
X1481655D01*
X1478990D01*
Y1365000D01*
X1500316Y1372997D02*
X1497650Y1371664D01*
X1494984Y1368999D01*
Y1366333D01*
X1496317Y1365000D01*
X1498983D01*
X1500316Y1366333D01*
Y1367666D01*
X1498983Y1368999D01*
X1494984D01*
X1502982Y1365000D02*
Y1366333D01*
X1504315D01*
Y1365000D01*
X1502982D01*
X1509646Y1371664D02*
X1510979Y1372997D01*
X1513645D01*
X1514978Y1371664D01*
Y1370332D01*
X1513645Y1368999D01*
X1512312D01*
X1513645D01*
X1514978Y1367666D01*
Y1366333D01*
X1513645Y1365000D01*
X1510979D01*
X1509646Y1366333D01*
X1517644Y1372997D02*
Y1367666D01*
X1520310Y1365000D01*
X1522975Y1367666D01*
Y1372997D01*
X1515003Y1202000D02*
X1523000D01*
Y1205999D01*
X1521667Y1207332D01*
X1520334D01*
X1519001Y1205999D01*
Y1202000D01*
Y1205999D01*
X1517668Y1207332D01*
X1516335D01*
X1515003Y1205999D01*
Y1202000D01*
X1516335Y1215329D02*
X1515003Y1213996D01*
Y1211330D01*
X1516335Y1209997D01*
X1521667D01*
X1523000Y1211330D01*
Y1213996D01*
X1521667Y1215329D01*
X1516335Y1217995D02*
X1515003Y1219328D01*
Y1221993D01*
X1516335Y1223326D01*
X1517668D01*
X1519001Y1221993D01*
X1520334Y1223326D01*
X1521667D01*
X1523000Y1221993D01*
Y1219328D01*
X1521667Y1217995D01*
X1520334D01*
X1519001Y1219328D01*
X1517668Y1217995D01*
X1516335D01*
X1519001Y1219328D02*
Y1221993D01*
X1523000Y1225992D02*
Y1228658D01*
Y1227325D01*
X1515003D01*
X1516335Y1225992D01*
X1515003Y1232657D02*
Y1237988D01*
X1516335D01*
X1521667Y1232657D01*
X1523000D01*
X1449350Y1087680D02*
Y1090346D01*
Y1089013D01*
X1441353D01*
X1442686Y1087680D01*
X1444018Y1094344D02*
X1448017D01*
X1449350Y1095677D01*
Y1099676D01*
X1444018D01*
X1441353Y1107674D02*
Y1102342D01*
X1445351D01*
Y1105008D01*
Y1102342D01*
X1449350D01*
X1623000Y929000D02*
Y931666D01*
Y930333D01*
X1615003D01*
X1616335Y929000D01*
Y935665D02*
X1615003Y936997D01*
Y939663D01*
X1616335Y940996D01*
X1621667D01*
X1623000Y939663D01*
Y936997D01*
X1621667Y935665D01*
X1616335D01*
X1617668Y943662D02*
X1621667D01*
X1623000Y944995D01*
Y948994D01*
X1617668D01*
X1615003Y956991D02*
Y951659D01*
X1619001D01*
Y954325D01*
Y951659D01*
X1623000D01*
X1651000Y928000D02*
Y930666D01*
Y929333D01*
X1643003D01*
X1644335Y928000D01*
Y934665D02*
X1643003Y935997D01*
Y938663D01*
X1644335Y939996D01*
X1649667D01*
X1651000Y938663D01*
Y935997D01*
X1649667Y934665D01*
X1644335D01*
X1645668Y942662D02*
X1649667D01*
X1651000Y943995D01*
Y947994D01*
X1645668D01*
X1643003Y955991D02*
Y950659D01*
X1647001D01*
Y953325D01*
Y950659D01*
X1651000D01*
X1669000Y938000D02*
X1671666D01*
X1670333D01*
Y945997D01*
X1669000Y944665D01*
X1675665Y945997D02*
Y938000D01*
Y940666D01*
X1680996Y945997D01*
X1676997Y941999D01*
X1680996Y938000D01*
X1830150Y1082820D02*
Y1080154D01*
Y1081487D01*
X1838147D01*
X1836815Y1082820D01*
Y1076155D02*
X1838147Y1074822D01*
Y1072157D01*
X1836815Y1070824D01*
X1835482D01*
X1834149Y1072157D01*
X1832816Y1070824D01*
X1831483D01*
X1830150Y1072157D01*
Y1074822D01*
X1831483Y1076155D01*
X1832816D01*
X1834149Y1074822D01*
X1835482Y1076155D01*
X1836815D01*
X1834149Y1074822D02*
Y1072157D01*
X1827484Y1068158D02*
X1835482D01*
Y1064159D01*
X1834149Y1062826D01*
X1831483D01*
X1830150Y1064159D01*
Y1068158D01*
X1838147Y1054829D02*
Y1060161D01*
X1834149D01*
Y1057495D01*
Y1060161D01*
X1830150D01*
X2675315Y1461320D02*
X2676647Y1459987D01*
Y1457321D01*
X2675315Y1455988D01*
X2669983D01*
X2668650Y1457321D01*
Y1459987D01*
X2669983Y1461320D01*
X2675315D01*
X2668650Y1453323D02*
X2669983D01*
Y1451990D01*
X2668650D01*
Y1453323D01*
Y1446658D02*
Y1443992D01*
Y1445325D01*
X2676647D01*
X2675315Y1446658D01*
X2673982Y1439993D02*
X2669983D01*
X2668650Y1438661D01*
Y1434662D01*
X2673982D01*
X2676647Y1426664D02*
Y1431996D01*
X2672649D01*
Y1429330D01*
Y1431996D01*
X2668650D01*
X2697650Y1461320D02*
Y1458654D01*
Y1459987D01*
X2705647D01*
X2704315Y1461320D01*
Y1454655D02*
X2705647Y1453322D01*
Y1450657D01*
X2704315Y1449324D01*
X2698983D01*
X2697650Y1450657D01*
Y1453322D01*
X2698983Y1454655D01*
X2704315D01*
X2702982Y1446658D02*
X2698983D01*
X2697650Y1445325D01*
Y1441326D01*
X2702982D01*
X2705647Y1433329D02*
Y1438661D01*
X2701649D01*
Y1435995D01*
Y1438661D01*
X2697650D01*
X2726650Y1461320D02*
Y1458654D01*
Y1459987D01*
X2734648D01*
X2733315Y1461320D01*
Y1454655D02*
X2734648Y1453322D01*
Y1450657D01*
X2733315Y1449324D01*
X2727983D01*
X2726650Y1450657D01*
Y1453322D01*
X2727983Y1454655D01*
X2733315D01*
X2731982Y1446658D02*
X2727983D01*
X2726650Y1445325D01*
Y1441326D01*
X2731982D01*
X2734648Y1433329D02*
Y1438661D01*
X2730649D01*
Y1435995D01*
Y1438661D01*
X2726650D01*
X2474335Y1272000D02*
X2473003Y1273333D01*
Y1275999D01*
X2474335Y1277332D01*
X2479667D01*
X2481000Y1275999D01*
Y1273333D01*
X2479667Y1272000D01*
X2474335D01*
X2481000Y1279997D02*
X2479667D01*
Y1281330D01*
X2481000D01*
Y1279997D01*
Y1286662D02*
Y1289328D01*
Y1287995D01*
X2473003D01*
X2474335Y1286662D01*
X2475668Y1293327D02*
X2479667D01*
X2481000Y1294659D01*
Y1298658D01*
X2475668D01*
X2473003Y1306655D02*
Y1301324D01*
X2477001D01*
Y1303990D01*
Y1301324D01*
X2481000D01*
X2364500Y652500D02*
X2367166D01*
X2365833D01*
Y660497D01*
X2364500Y659165D01*
X2394500Y657500D02*
Y665497D01*
X2398499D01*
X2399832Y664165D01*
Y661499D01*
X2398499Y660166D01*
X2394500D01*
X2402497Y665497D02*
Y657500D01*
X2407829D01*
X2415827Y664165D02*
X2414494Y665497D01*
X2411828D01*
X2410495Y664165D01*
Y662832D01*
X2411828Y661499D01*
X2414494D01*
X2415827Y660166D01*
Y658833D01*
X2414494Y657500D01*
X2411828D01*
X2410495Y658833D01*
X2423824Y665497D02*
X2421158Y664165D01*
X2418492Y661499D01*
Y658833D01*
X2419825Y657500D01*
X2422491D01*
X2423824Y658833D01*
Y660166D01*
X2422491Y661499D01*
X2418492D01*
X2548000Y1349000D02*
X2540002D01*
Y1352999D01*
X2541335Y1354332D01*
X2544001D01*
X2545334Y1352999D01*
Y1349000D01*
X2540002Y1356997D02*
X2546667D01*
X2548000Y1358330D01*
Y1360996D01*
X2546667Y1362329D01*
X2540002D01*
X2541335Y1370327D02*
X2540002Y1368994D01*
Y1366328D01*
X2541335Y1364995D01*
X2542668D01*
X2544001Y1366328D01*
Y1368994D01*
X2545334Y1370327D01*
X2546667D01*
X2548000Y1368994D01*
Y1366328D01*
X2546667Y1364995D01*
X2540002Y1372992D02*
X2548000D01*
X2544001D01*
Y1378324D01*
X2540002D01*
X2548000D01*
X2540002Y1388987D02*
X2548000D01*
Y1392986D01*
X2546667Y1394319D01*
X2545334D01*
X2544001Y1392986D01*
Y1388987D01*
Y1392986D01*
X2542668Y1394319D01*
X2541335D01*
X2540002Y1392986D01*
Y1388987D01*
Y1396985D02*
Y1402316D01*
Y1399650D01*
X2548000D01*
Y1404982D02*
X2540002D01*
X2548000Y1410314D01*
X2540002D01*
X2548170Y1256070D02*
X2540173D01*
Y1260069D01*
X2541505Y1261402D01*
X2544171D01*
X2545504Y1260069D01*
Y1256070D01*
X2540173Y1264067D02*
X2546837D01*
X2548170Y1265400D01*
Y1268066D01*
X2546837Y1269399D01*
X2540173D01*
X2541505Y1277396D02*
X2540173Y1276064D01*
Y1273398D01*
X2541505Y1272065D01*
X2542838D01*
X2544171Y1273398D01*
Y1276064D01*
X2545504Y1277396D01*
X2546837D01*
X2548170Y1276064D01*
Y1273398D01*
X2546837Y1272065D01*
X2540173Y1280062D02*
X2548170D01*
X2544171D01*
Y1285394D01*
X2540173D01*
X2548170D01*
X2540173Y1296057D02*
X2548170D01*
Y1300056D01*
X2546837Y1301389D01*
X2545504D01*
X2544171Y1300056D01*
Y1296057D01*
Y1300056D01*
X2542838Y1301389D01*
X2541505D01*
X2540173Y1300056D01*
Y1296057D01*
Y1304055D02*
Y1309386D01*
Y1306720D01*
X2548170D01*
Y1312052D02*
X2540173D01*
X2548170Y1317384D01*
X2540173D01*
X2547170Y1162820D02*
X2539173D01*
Y1166818D01*
X2540506Y1168151D01*
X2543171D01*
X2544504Y1166818D01*
Y1162820D01*
X2539173Y1170817D02*
X2545837D01*
X2547170Y1172150D01*
Y1174816D01*
X2545837Y1176149D01*
X2539173D01*
X2540506Y1184146D02*
X2539173Y1182813D01*
Y1180148D01*
X2540506Y1178815D01*
X2541838D01*
X2543171Y1180148D01*
Y1182813D01*
X2544504Y1184146D01*
X2545837D01*
X2547170Y1182813D01*
Y1180148D01*
X2545837Y1178815D01*
X2539173Y1186812D02*
X2547170D01*
X2543171D01*
Y1192144D01*
X2539173D01*
X2547170D01*
X2539173Y1202807D02*
X2547170D01*
Y1206806D01*
X2545837Y1208139D01*
X2544504D01*
X2543171Y1206806D01*
Y1202807D01*
Y1206806D01*
X2541838Y1208139D01*
X2540506D01*
X2539173Y1206806D01*
Y1202807D01*
Y1210804D02*
Y1216136D01*
Y1213470D01*
X2547170D01*
Y1218802D02*
X2539173D01*
X2547170Y1224133D01*
X2539173D01*
X2185000Y691000D02*
Y698997D01*
X2188999D01*
X2190332Y697664D01*
Y694999D01*
X2188999Y693666D01*
X2185000D01*
X2192997Y698997D02*
Y692333D01*
X2194330Y691000D01*
X2196996D01*
X2198329Y692333D01*
Y698997D01*
X2206326Y697664D02*
X2204994Y698997D01*
X2202328D01*
X2200995Y697664D01*
Y696332D01*
X2202328Y694999D01*
X2204994D01*
X2206326Y693666D01*
Y692333D01*
X2204994Y691000D01*
X2202328D01*
X2200995Y692333D01*
X2208992Y698997D02*
Y691000D01*
Y694999D01*
X2214324D01*
Y698997D01*
Y691000D01*
X2224987Y698997D02*
Y691000D01*
X2228986D01*
X2230319Y692333D01*
Y693666D01*
X2228986Y694999D01*
X2224987D01*
X2228986D01*
X2230319Y696332D01*
Y697664D01*
X2228986Y698997D01*
X2224987D01*
X2232984D02*
X2238316D01*
X2235650D01*
Y691000D01*
X2240982D02*
Y698997D01*
X2246313Y691000D01*
Y698997D01*
X2063000Y692000D02*
Y699997D01*
X2066999D01*
X2068332Y698664D01*
Y695999D01*
X2066999Y694666D01*
X2063000D01*
X2070997Y699997D02*
Y693333D01*
X2072330Y692000D01*
X2074996D01*
X2076329Y693333D01*
Y699997D01*
X2084326Y698664D02*
X2082993Y699997D01*
X2080328D01*
X2078995Y698664D01*
Y697332D01*
X2080328Y695999D01*
X2082993D01*
X2084326Y694666D01*
Y693333D01*
X2082993Y692000D01*
X2080328D01*
X2078995Y693333D01*
X2086992Y699997D02*
Y692000D01*
Y695999D01*
X2092324D01*
Y699997D01*
Y692000D01*
X2102987Y699997D02*
Y692000D01*
X2106986D01*
X2108319Y693333D01*
Y694666D01*
X2106986Y695999D01*
X2102987D01*
X2106986D01*
X2108319Y697332D01*
Y698664D01*
X2106986Y699997D01*
X2102987D01*
X2110984D02*
X2116316D01*
X2113650D01*
Y692000D01*
X2118982D02*
Y699997D01*
X2124314Y692000D01*
Y699997D01*
X1867000Y996332D02*
Y991000D01*
X1861668Y996332D01*
X1860336D01*
X1859003Y994999D01*
Y992333D01*
X1860336Y991000D01*
X1859003Y1004329D02*
Y998997D01*
X1863001D01*
X1861668Y1001663D01*
Y1002996D01*
X1863001Y1004329D01*
X1865667D01*
X1867000Y1002996D01*
Y1000330D01*
X1865667Y998997D01*
X1867000Y1006995D02*
X1865667D01*
Y1008328D01*
X1867000D01*
Y1006995D01*
X1860336Y1013659D02*
X1859003Y1014992D01*
Y1017658D01*
X1860336Y1018991D01*
X1865667D01*
X1867000Y1017658D01*
Y1014992D01*
X1865667Y1013659D01*
X1860336D01*
Y1021657D02*
X1859003Y1022990D01*
Y1025656D01*
X1860336Y1026988D01*
X1865667D01*
X1867000Y1025656D01*
Y1022990D01*
X1865667Y1021657D01*
X1860336D01*
Y1029654D02*
X1859003Y1030987D01*
Y1033653D01*
X1860336Y1034986D01*
X1865667D01*
X1867000Y1033653D01*
Y1030987D01*
X1865667Y1029654D01*
X1860336D01*
X1867000Y1037652D02*
X1859003D01*
X1861668Y1040317D01*
X1859003Y1042983D01*
X1867000D01*
X1859003Y1045649D02*
X1867000D01*
X1863001D01*
X1861668Y1046982D01*
Y1049648D01*
X1863001Y1050981D01*
X1867000D01*
X1861668Y1053646D02*
Y1058978D01*
X1867000Y1053646D01*
Y1058978D01*
X1884500Y1148165D02*
X1885833Y1149497D01*
X1888499D01*
X1889832Y1148165D01*
Y1146832D01*
X1888499Y1145499D01*
X1887166D01*
X1888499D01*
X1889832Y1144166D01*
Y1142833D01*
X1888499Y1141500D01*
X1885833D01*
X1884500Y1142833D01*
X1897829Y1141500D02*
X1892497D01*
X1897829Y1146832D01*
Y1148165D01*
X1896496Y1149497D01*
X1893830D01*
X1892497Y1148165D01*
X1900495Y1141500D02*
Y1142833D01*
X1901828D01*
Y1141500D01*
X1900495D01*
X1907159Y1149497D02*
X1912491D01*
Y1148165D01*
X1907159Y1142833D01*
Y1141500D01*
X1920488Y1149497D02*
X1917823Y1148165D01*
X1915157Y1145499D01*
Y1142833D01*
X1916490Y1141500D01*
X1919155D01*
X1920488Y1142833D01*
Y1144166D01*
X1919155Y1145499D01*
X1915157D01*
X1923154Y1148165D02*
X1924487Y1149497D01*
X1927153D01*
X1928486Y1148165D01*
Y1146832D01*
X1927153Y1145499D01*
X1928486Y1144166D01*
Y1142833D01*
X1927153Y1141500D01*
X1924487D01*
X1923154Y1142833D01*
Y1144166D01*
X1924487Y1145499D01*
X1923154Y1146832D01*
Y1148165D01*
X1924487Y1145499D02*
X1927153D01*
X1931152Y1149497D02*
Y1141500D01*
Y1144166D01*
X1936483Y1149497D01*
X1932484Y1145499D01*
X1936483Y1141500D01*
X1939149Y1149497D02*
Y1141500D01*
Y1145499D01*
X1944481D01*
Y1149497D01*
Y1141500D01*
X1947146Y1149497D02*
X1952478D01*
Y1148165D01*
X1947146Y1142833D01*
Y1141500D01*
X1952478D01*
X2050332Y1122664D02*
X2048999Y1123997D01*
X2046333D01*
X2045000Y1122664D01*
Y1121332D01*
X2046333Y1119999D01*
X2048999D01*
X2050332Y1118666D01*
Y1117333D01*
X2048999Y1116000D01*
X2046333D01*
X2045000Y1117333D01*
X2052997Y1123997D02*
X2058329D01*
X2055663D01*
Y1116000D01*
X2060995D02*
Y1123997D01*
X2063661Y1121332D01*
X2066326Y1123997D01*
Y1116000D01*
X2068992Y1122664D02*
X2070325Y1123997D01*
X2072991D01*
X2074324Y1122664D01*
Y1121332D01*
X2072991Y1119999D01*
X2071658D01*
X2072991D01*
X2074324Y1118666D01*
Y1117333D01*
X2072991Y1116000D01*
X2070325D01*
X2068992Y1117333D01*
X2082321Y1116000D02*
X2076990D01*
X2082321Y1121332D01*
Y1122664D01*
X2080988Y1123997D01*
X2078323D01*
X2076990Y1122664D01*
X2090319Y1123997D02*
X2084987D01*
Y1119999D01*
X2087653D01*
X2084987D01*
Y1116000D01*
X2096983D02*
Y1123997D01*
X2092984Y1119999D01*
X2098316D01*
X2100982Y1122664D02*
X2102315Y1123997D01*
X2104981D01*
X2106313Y1122664D01*
Y1117333D01*
X2104981Y1116000D01*
X2102315D01*
X2100982Y1117333D01*
Y1122664D01*
X2108979Y1123997D02*
X2114311D01*
Y1122664D01*
X2108979Y1117333D01*
Y1116000D01*
X2116977Y1123997D02*
Y1118666D01*
X2119642Y1116000D01*
X2122308Y1118666D01*
Y1123997D01*
X2130306Y1122664D02*
X2128973Y1123997D01*
X2126307D01*
X2124974Y1122664D01*
Y1117333D01*
X2126307Y1116000D01*
X2128973D01*
X2130306Y1117333D01*
Y1119999D01*
X2127640D01*
X2132972Y1123997D02*
X2138303D01*
X2135637D01*
Y1116000D01*
X2146301Y1123997D02*
X2143635Y1122664D01*
X2140969Y1119999D01*
Y1117333D01*
X2142302Y1116000D01*
X2144968D01*
X2146301Y1117333D01*
Y1118666D01*
X2144968Y1119999D01*
X2140969D01*
X1447332Y1033664D02*
X1445999Y1034997D01*
X1443333D01*
X1442000Y1033664D01*
Y1028333D01*
X1443333Y1027000D01*
X1445999D01*
X1447332Y1028333D01*
X1449997Y1034997D02*
Y1033664D01*
X1452663Y1030999D01*
X1455329Y1033664D01*
Y1034997D01*
X1452663Y1030999D02*
Y1027000D01*
X1457995Y1034997D02*
X1463327D01*
Y1033664D01*
X1457995Y1028333D01*
Y1027000D01*
X1471324Y1033664D02*
X1469991Y1034997D01*
X1467325D01*
X1465992Y1033664D01*
Y1028333D01*
X1467325Y1027000D01*
X1469991D01*
X1471324Y1028333D01*
X1479321Y1034997D02*
X1476655Y1033664D01*
X1473990Y1030999D01*
Y1028333D01*
X1475323Y1027000D01*
X1477988D01*
X1479321Y1028333D01*
Y1029666D01*
X1477988Y1030999D01*
X1473990D01*
X1487319Y1034997D02*
X1481987D01*
Y1030999D01*
X1484653Y1032332D01*
X1485986D01*
X1487319Y1030999D01*
Y1028333D01*
X1485986Y1027000D01*
X1483320D01*
X1481987Y1028333D01*
X1495316Y1027000D02*
X1489984D01*
X1495316Y1032332D01*
Y1033664D01*
X1493983Y1034997D01*
X1491317D01*
X1489984Y1033664D01*
X1497982Y1027000D02*
X1500648D01*
X1499315D01*
Y1034997D01*
X1497982Y1033664D01*
X1504646D02*
X1505979Y1034997D01*
X1508645D01*
X1509978Y1033664D01*
Y1032332D01*
X1508645Y1030999D01*
X1507312D01*
X1508645D01*
X1509978Y1029666D01*
Y1028333D01*
X1508645Y1027000D01*
X1505979D01*
X1504646Y1028333D01*
X2594336Y1482332D02*
X2593003Y1480999D01*
Y1478333D01*
X2594336Y1477000D01*
X2595668D01*
X2597001Y1478333D01*
Y1480999D01*
X2598334Y1482332D01*
X2599667D01*
X2601000Y1480999D01*
Y1478333D01*
X2599667Y1477000D01*
X2593003Y1484997D02*
Y1490329D01*
Y1487663D01*
X2601000D01*
X2593003Y1498326D02*
Y1492995D01*
X2601000D01*
Y1498326D01*
X2597001Y1492995D02*
Y1495661D01*
X2593003Y1500992D02*
X2598334D01*
X2601000Y1503658D01*
X2598334Y1506324D01*
X2593003D01*
X2601000Y1508990D02*
X2595668D01*
X2593003Y1511655D01*
X2595668Y1514321D01*
X2601000D01*
X2597001D01*
Y1508990D01*
X2593003Y1516987D02*
X2601000D01*
Y1522319D01*
X2597001Y1524984D02*
Y1530316D01*
X2601000Y1532982D02*
X2593003D01*
X2595668Y1535648D01*
X2593003Y1538313D01*
X2601000D01*
X2593003Y1540979D02*
X2601000D01*
X2598334D01*
X2593003Y1546311D01*
X2597001Y1542312D01*
X2601000Y1546311D01*
X2593003Y1548977D02*
Y1551643D01*
Y1550310D01*
X2601000D01*
Y1548977D01*
Y1551643D01*
Y1555641D02*
Y1558307D01*
Y1556974D01*
X2593003D01*
X2594336Y1555641D01*
X2601000Y1567637D02*
Y1562306D01*
X2595668Y1567637D01*
X2594336D01*
X2593003Y1566304D01*
Y1563639D01*
X2594336Y1562306D01*
X2599667Y1570303D02*
X2601000Y1571636D01*
Y1574302D01*
X2599667Y1575635D01*
X2594336D01*
X2593003Y1574302D01*
Y1571636D01*
X2594336Y1570303D01*
X2595668D01*
X2597001Y1571636D01*
Y1575635D01*
X2593003Y1578301D02*
X2598334D01*
X2601000Y1580966D01*
X2598334Y1583632D01*
X2593003D01*
X2601000Y1586298D02*
Y1588964D01*
Y1587631D01*
X2593003D01*
X2594336Y1586298D01*
X2536332Y1540665D02*
X2534999Y1541997D01*
X2532333D01*
X2531000Y1540665D01*
Y1535333D01*
X2532333Y1534000D01*
X2534999D01*
X2536332Y1535333D01*
X2538997Y1541997D02*
Y1534000D01*
X2544329D01*
X2546995Y1541997D02*
Y1534000D01*
Y1536666D01*
X2552326Y1541997D01*
X2548328Y1537999D01*
X2552326Y1534000D01*
X2535332Y1513665D02*
X2533999Y1514997D01*
X2531333D01*
X2530000Y1513665D01*
Y1508333D01*
X2531333Y1507000D01*
X2533999D01*
X2535332Y1508333D01*
Y1510999D01*
X2532666D01*
X2537997Y1507000D02*
Y1514997D01*
X2543329Y1507000D01*
Y1514997D01*
X2545995D02*
Y1507000D01*
X2549994D01*
X2551326Y1508333D01*
Y1513665D01*
X2549994Y1514997D01*
X2545995D01*
X2522000Y1488997D02*
Y1481000D01*
X2525999D01*
X2527332Y1482333D01*
Y1487664D01*
X2525999Y1488997D01*
X2522000D01*
X2529997Y1481000D02*
Y1486332D01*
X2532663Y1488997D01*
X2535329Y1486332D01*
Y1481000D01*
Y1484999D01*
X2529997D01*
X2537995Y1488997D02*
X2543327D01*
X2540661D01*
Y1481000D01*
X2545992D02*
Y1486332D01*
X2548658Y1488997D01*
X2551324Y1486332D01*
Y1481000D01*
Y1484999D01*
X2545992D01*
X2649000Y1485665D02*
X2650333Y1486997D01*
X2652999D01*
X2654332Y1485665D01*
Y1484332D01*
X2652999Y1482999D01*
X2651666D01*
X2652999D01*
X2654332Y1481666D01*
Y1480333D01*
X2652999Y1479000D01*
X2650333D01*
X2649000Y1480333D01*
X2656997Y1486997D02*
Y1481666D01*
X2659663Y1479000D01*
X2662329Y1481666D01*
Y1486997D01*
X2664995Y1485665D02*
X2666328Y1486997D01*
X2668994D01*
X2670327Y1485665D01*
Y1484332D01*
X2668994Y1482999D01*
X2667661D01*
X2668994D01*
X2670327Y1481666D01*
Y1480333D01*
X2668994Y1479000D01*
X2666328D01*
X2664995Y1480333D01*
X2653332Y1513665D02*
X2651999Y1514997D01*
X2649333D01*
X2648000Y1513665D01*
Y1508333D01*
X2649333Y1507000D01*
X2651999D01*
X2653332Y1508333D01*
Y1510999D01*
X2650666D01*
X2655997Y1507000D02*
Y1514997D01*
X2661329Y1507000D01*
Y1514997D01*
X2663995D02*
Y1507000D01*
X2667993D01*
X2669326Y1508333D01*
Y1513665D01*
X2667993Y1514997D01*
X2663995D01*
X1689000Y1104997D02*
X1694332D01*
Y1103664D01*
X1689000Y1098333D01*
Y1097000D01*
X1700996D02*
Y1104997D01*
X1696997Y1100999D01*
X1702329D01*
X1704995Y1104997D02*
Y1097000D01*
X1710326D01*
X1712992Y1104997D02*
Y1099666D01*
X1715658Y1097000D01*
X1718324Y1099666D01*
Y1104997D01*
X1726321Y1103664D02*
X1724988Y1104997D01*
X1722323D01*
X1720990Y1103664D01*
Y1098333D01*
X1722323Y1097000D01*
X1724988D01*
X1726321Y1098333D01*
X1728987Y1103664D02*
X1730320Y1104997D01*
X1732986D01*
X1734319Y1103664D01*
Y1098333D01*
X1732986Y1097000D01*
X1730320D01*
X1728987Y1098333D01*
Y1103664D01*
X1736985Y1104997D02*
X1742316D01*
Y1103664D01*
X1736985Y1098333D01*
Y1097000D01*
X1744982D02*
Y1102332D01*
X1747648Y1104997D01*
X1750314Y1102332D01*
Y1097000D01*
Y1100999D01*
X1744982D01*
X1420000Y1647997D02*
X1425332D01*
X1422666D01*
Y1640000D01*
X1431996Y1647997D02*
X1429330D01*
X1427997Y1646664D01*
Y1641333D01*
X1429330Y1640000D01*
X1431996D01*
X1433329Y1641333D01*
Y1646664D01*
X1431996Y1647997D01*
X1435995Y1640000D02*
Y1647997D01*
X1439994D01*
X1441326Y1646664D01*
Y1643999D01*
X1439994Y1642666D01*
X1435995D01*
X1451990Y1640000D02*
Y1645332D01*
X1454655Y1647997D01*
X1457321Y1645332D01*
Y1640000D01*
Y1643999D01*
X1451990D01*
X1465319Y1646664D02*
X1463986Y1647997D01*
X1461320D01*
X1459987Y1646664D01*
Y1645332D01*
X1461320Y1643999D01*
X1463986D01*
X1465319Y1642666D01*
Y1641333D01*
X1463986Y1640000D01*
X1461320D01*
X1459987Y1641333D01*
X1473316Y1646664D02*
X1471983Y1647997D01*
X1469317D01*
X1467984Y1646664D01*
Y1645332D01*
X1469317Y1643999D01*
X1471983D01*
X1473316Y1642666D01*
Y1641333D01*
X1471983Y1640000D01*
X1469317D01*
X1467984Y1641333D01*
X1481313Y1647997D02*
X1475982D01*
Y1640000D01*
X1481313D01*
X1475982Y1643999D02*
X1478648D01*
X1483979Y1640000D02*
Y1647997D01*
X1486645Y1645332D01*
X1489311Y1647997D01*
Y1640000D01*
X1491977Y1647997D02*
Y1640000D01*
X1495975D01*
X1497308Y1641333D01*
Y1642666D01*
X1495975Y1643999D01*
X1491977D01*
X1495975D01*
X1497308Y1645332D01*
Y1646664D01*
X1495975Y1647997D01*
X1491977D01*
X1499974D02*
Y1640000D01*
X1505306D01*
X1507972Y1647997D02*
Y1646664D01*
X1510637Y1643999D01*
X1513303Y1646664D01*
Y1647997D01*
X1510637Y1643999D02*
Y1640000D01*
X1552666D02*
X1550000D01*
Y1647997D01*
X1552666D01*
X1556664Y1640000D02*
Y1647997D01*
X1561996Y1640000D01*
Y1647997D01*
X1565995Y1640000D02*
X1568661D01*
X1569994Y1641333D01*
Y1643999D01*
X1568661Y1645332D01*
X1565995D01*
X1564662Y1643999D01*
Y1641333D01*
X1565995Y1640000D01*
X1580657Y1647997D02*
Y1642666D01*
X1583323Y1640000D01*
X1585988Y1642666D01*
Y1647997D01*
X1589987Y1645332D02*
X1592653D01*
X1593986Y1643999D01*
Y1640000D01*
X1589987D01*
X1588654Y1641333D01*
X1589987Y1642666D01*
X1593986D01*
X1596652Y1645332D02*
Y1640000D01*
Y1642666D01*
X1597984Y1643999D01*
X1599317Y1645332D01*
X1600650D01*
X1604649Y1640000D02*
X1607315D01*
X1605982D01*
Y1645332D01*
X1604649D01*
X1612646D02*
X1615312D01*
X1616645Y1643999D01*
Y1640000D01*
X1612646D01*
X1611314Y1641333D01*
X1612646Y1642666D01*
X1616645D01*
X1620644Y1646664D02*
Y1645332D01*
X1619311D01*
X1621977D01*
X1620644D01*
Y1641333D01*
X1621977Y1640000D01*
X1625975D02*
X1628641D01*
X1627308D01*
Y1645332D01*
X1625975D01*
X1633973Y1640000D02*
X1636639D01*
X1637972Y1641333D01*
Y1643999D01*
X1636639Y1645332D01*
X1633973D01*
X1632640Y1643999D01*
Y1641333D01*
X1633973Y1640000D01*
X1640638D02*
Y1645332D01*
X1644636D01*
X1645969Y1643999D01*
Y1640000D01*
X1648635D02*
X1652634D01*
X1653967Y1641333D01*
X1652634Y1642666D01*
X1649968D01*
X1648635Y1643999D01*
X1649968Y1645332D01*
X1653967D01*
X1656632Y1640000D02*
X1659298D01*
Y1647997D01*
X1656632D01*
X2695000Y1501000D02*
Y1508997D01*
X2697666Y1506332D01*
X2700332Y1508997D01*
Y1501000D01*
X2702997D02*
Y1508997D01*
X2706996D01*
X2708329Y1507664D01*
Y1504999D01*
X2706996Y1503666D01*
X2702997D01*
X2714994Y1501000D02*
Y1508997D01*
X2710995Y1504999D01*
X2716326D01*
X2724324Y1508997D02*
X2718992D01*
Y1504999D01*
X2721658Y1506332D01*
X2722991D01*
X2724324Y1504999D01*
Y1502333D01*
X2722991Y1501000D01*
X2720325D01*
X2718992Y1502333D01*
X2726990Y1508997D02*
Y1501000D01*
X2730988D01*
X2732321Y1502333D01*
Y1507664D01*
X2730988Y1508997D01*
X2726990D01*
X2734987D02*
X2740319D01*
X2737653D01*
Y1501000D01*
X2742985Y1507664D02*
X2744317Y1508997D01*
X2746983D01*
X2748316Y1507664D01*
Y1502333D01*
X2746983Y1501000D01*
X2744317D01*
X2742985Y1502333D01*
Y1507664D01*
X2756313Y1501000D02*
X2750982D01*
X2756313Y1506332D01*
Y1507664D01*
X2754980Y1508997D01*
X2752315D01*
X2750982Y1507664D01*
X2733000Y1521000D02*
Y1518334D01*
Y1519667D01*
X2740997D01*
X2739665Y1521000D01*
D76*
X2661587Y1511000D02*
G03*
X2661587Y1511000I-61587J0D01*
G01*
D77*
X1527250Y1016030D02*
X1589480D01*
Y1043970D01*
X1527250D02*
X1589480D01*
X1527250Y1016030D02*
Y1043970D01*
X1861700Y861140D02*
Y905590D01*
X1836300D02*
X1861700D01*
X1836300Y861140D02*
Y905590D01*
Y861140D02*
X1861700D01*
X1529000Y1030000D02*
X1592480Y1056970D01*
X1530000Y1060000D02*
X1590000Y1030000D01*
X1530250Y1062030D02*
X1590000Y1090000D01*
X1530000D02*
X1600000Y1060000D01*
X1527250Y1043030D02*
X1589480D01*
Y1070970D01*
X1527250D02*
X1589480D01*
X1527250Y1043030D02*
Y1070970D01*
Y1070030D02*
X1589480D01*
Y1097970D01*
X1527250D02*
X1589480D01*
X1527250Y1070030D02*
Y1097970D01*
X1821000Y639500D02*
X1941000D01*
Y752000D01*
X1821000D02*
X1941000D01*
X1821000Y639500D02*
Y752000D01*
X2145500Y1305500D02*
Y1613000D01*
X2428000Y1305500D02*
Y1613000D01*
X2145500Y1305500D02*
X2428000D01*
X1523790Y1518360D02*
Y1528520D01*
X1519980Y1523440D02*
X1526330D01*
X1577130Y1510740D02*
X1578400Y1512010D01*
X1527600Y1510740D02*
X1577130D01*
X1527600D02*
Y1603450D01*
X1578400D01*
Y1512010D02*
Y1603450D01*
X2305140Y1270300D02*
X2349590D01*
Y1295700D01*
X2305140D02*
X2349590D01*
X2305140Y1270300D02*
Y1295700D01*
X2250410D02*
X2294860D01*
X2250410Y1270300D02*
Y1295700D01*
Y1270300D02*
X2294860D01*
Y1295700D01*
X1531030Y794750D02*
X1558970D01*
Y732520D02*
Y794750D01*
X1531030Y732520D02*
X1558970D01*
X1531030D02*
Y794750D01*
X2202860Y762300D02*
Y787700D01*
X2158410Y762300D02*
X2202860D01*
X2158410D02*
Y787700D01*
X2202860D01*
X2463300Y1215860D02*
X2488700D01*
Y1171410D02*
Y1215860D01*
X2463300Y1171410D02*
X2488700D01*
X2463300D02*
Y1215860D01*
X2465300Y1400860D02*
X2490700D01*
Y1356410D02*
Y1400860D01*
X2465300Y1356410D02*
X2490700D01*
X2465300D02*
Y1400860D01*
X1823800Y959640D02*
X1849200D01*
X1823800D02*
Y1004090D01*
X1849200D01*
Y959640D02*
Y1004090D01*
X1917860Y1089300D02*
Y1114700D01*
X1873410Y1089300D02*
X1917860D01*
X1873410D02*
Y1114700D01*
X1917860D01*
X2152300Y1000860D02*
X2177700D01*
Y956410D02*
Y1000860D01*
X2152300Y956410D02*
X2177700D01*
X2152300D02*
Y1000860D01*
X2170300Y1158140D02*
X2195700D01*
X2170300D02*
Y1202590D01*
X2195700D01*
Y1158140D02*
Y1202590D01*
X2013300Y1208140D02*
X2038700D01*
X2013300D02*
Y1252590D01*
X2038700D01*
Y1208140D02*
Y1252590D01*
X2055300Y994860D02*
X2080700D01*
Y950410D02*
Y994860D01*
X2055300Y950410D02*
X2080700D01*
X2055300D02*
Y994860D01*
X1990140Y989300D02*
Y1014700D01*
X2034590D01*
Y989300D02*
Y1014700D01*
X1990140Y989300D02*
X2034590D01*
X2041300Y1208140D02*
X2066700D01*
X2041300D02*
Y1252590D01*
X2066700D01*
Y1208140D02*
Y1252590D01*
X2134300Y1211140D02*
X2159700D01*
X2134300D02*
Y1255590D01*
X2159700D01*
Y1211140D02*
Y1255590D01*
X1955860Y970300D02*
Y995700D01*
X1911410Y970300D02*
X1955860D01*
X1911410D02*
Y995700D01*
X1955860D01*
Y997300D02*
Y1022700D01*
X1911410Y997300D02*
X1955860D01*
X1911410D02*
Y1022700D01*
X1955860D01*
X2166300Y1211140D02*
X2191700D01*
X2166300D02*
Y1255590D01*
X2191700D01*
Y1211140D02*
Y1255590D01*
X2125300Y1000860D02*
X2150700D01*
Y956410D02*
Y1000860D01*
X2125300Y956410D02*
X2150700D01*
X2125300D02*
Y1000860D01*
X1991300Y941140D02*
X2016700D01*
X1991300D02*
Y985590D01*
X2016700D01*
Y941140D02*
Y985590D01*
X2019300Y941140D02*
X2044700D01*
X2019300D02*
Y985590D01*
X2044700D01*
Y941140D02*
Y985590D01*
X1957300Y1208140D02*
X1982700D01*
X1957300D02*
Y1252590D01*
X1982700D01*
Y1208140D02*
Y1252590D01*
X1962860Y1174300D02*
Y1199700D01*
X1918410Y1174300D02*
X1962860D01*
X1918410D02*
Y1199700D01*
X1962860D01*
Y1089300D02*
Y1114700D01*
X1918410Y1089300D02*
X1962860D01*
X1918410D02*
Y1114700D01*
X1962860D01*
X2540300Y910860D02*
X2565700D01*
Y866410D02*
Y910860D01*
X2540300Y866410D02*
X2565700D01*
X2540300D02*
Y910860D01*
X2377860Y762300D02*
Y787700D01*
X2333410Y762300D02*
X2377860D01*
X2333410D02*
Y787700D01*
X2377860D01*
Y785300D02*
Y810700D01*
X2333410Y785300D02*
X2377860D01*
X2333410D02*
Y810700D01*
X2377860D01*
X2632300Y1463860D02*
X2657700D01*
Y1419410D02*
Y1463860D01*
X2632300Y1419410D02*
X2657700D01*
X2632300D02*
Y1463860D01*
X1564680Y863450D02*
X1605320D01*
Y778360D02*
Y863450D01*
X1564680Y778360D02*
X1605320D01*
X1564680D02*
Y863450D01*
X1713010Y639600D02*
X1804450D01*
Y690400D01*
X1711740D02*
X1804450D01*
X1711740Y640870D02*
Y690400D01*
Y640870D02*
X1713010Y639600D01*
X1724440Y691670D02*
Y698020D01*
X1719360Y694210D02*
X1729520D01*
X1625300Y713860D02*
X1650700D01*
Y669410D02*
Y713860D01*
X1625300Y669410D02*
X1650700D01*
X1625300D02*
Y713860D01*
X1598300Y713860D02*
X1623700D01*
Y669410D02*
Y713860D01*
X1598300Y669410D02*
X1623700D01*
X1598300D02*
Y713860D01*
X1771140Y856300D02*
Y881700D01*
X1815590D01*
Y856300D02*
Y881700D01*
X1771140Y856300D02*
X1815590D01*
X1771140Y885300D02*
Y910700D01*
X1815590D01*
Y885300D02*
Y910700D01*
X1771140Y885300D02*
X1815590D01*
X1771140Y914300D02*
Y939700D01*
X1815590D01*
Y914300D02*
Y939700D01*
X1771140Y914300D02*
X1815590D01*
X1726000Y727000D02*
Y770000D01*
X1793000D01*
Y727000D02*
Y770000D01*
X1726000Y727000D02*
X1793000D01*
X1764000Y780000D02*
Y910000D01*
X1614000Y780000D02*
X1764000D01*
X1614000D02*
Y910000D01*
X1764000D01*
X2084140Y751300D02*
Y776700D01*
X2128590D01*
Y751300D02*
Y776700D01*
X2084140Y751300D02*
X2128590D01*
X2461700Y1170140D02*
Y1214590D01*
X2436300D02*
X2461700D01*
X2436300Y1170140D02*
Y1214590D01*
Y1170140D02*
X2461700D01*
X1955860Y1057800D02*
Y1083200D01*
X1911410Y1057800D02*
X1955860D01*
X1911410D02*
Y1083200D01*
X1955860D01*
X1911410Y1057700D02*
X1955860D01*
X1911410Y1032300D02*
Y1057700D01*
Y1032300D02*
X1955860D01*
Y1057700D01*
X1984300Y1253860D02*
X2009700D01*
Y1209410D02*
Y1253860D01*
X1984300Y1209410D02*
X2009700D01*
X1984300D02*
Y1253860D01*
X2463700Y1265140D02*
Y1309590D01*
X2438300D02*
X2463700D01*
X2438300Y1265140D02*
Y1309590D01*
Y1265140D02*
X2463700D01*
X2157140Y788300D02*
Y813700D01*
X2201590D01*
Y788300D02*
Y813700D01*
X2157140Y788300D02*
X2201590D01*
X2463700Y1355140D02*
Y1399590D01*
X2438300D02*
X2463700D01*
X2438300Y1355140D02*
Y1399590D01*
Y1355140D02*
X2463700D01*
X2630140Y1261300D02*
Y1286700D01*
X2674590D01*
Y1261300D02*
Y1286700D01*
X2630140Y1261300D02*
X2674590D01*
X2630140Y1294300D02*
X2674590D01*
Y1319700D01*
X2630140D02*
X2674590D01*
X2630140Y1294300D02*
Y1319700D01*
X2631140Y1326300D02*
Y1351700D01*
X2675590D01*
Y1326300D02*
Y1351700D01*
X2631140Y1326300D02*
X2675590D01*
X1981700Y1003140D02*
Y1047590D01*
X1956300D02*
X1981700D01*
X1956300Y1003140D02*
Y1047590D01*
Y1003140D02*
X1981700D01*
X2632140Y1358300D02*
Y1383700D01*
X2676590D01*
Y1358300D02*
Y1383700D01*
X2632140Y1358300D02*
X2676590D01*
X2116700Y949140D02*
Y993590D01*
X2091300D02*
X2116700D01*
X2091300Y949140D02*
Y993590D01*
Y949140D02*
X2116700D01*
X1759140Y970300D02*
Y995700D01*
X1803590D01*
Y970300D02*
Y995700D01*
X1759140Y970300D02*
X1803590D01*
X1536700Y1270140D02*
Y1314590D01*
X1511300D02*
X1536700D01*
X1511300Y1270140D02*
Y1314590D01*
Y1270140D02*
X1536700D01*
X1468140Y1306300D02*
Y1331700D01*
X1512590D01*
Y1306300D02*
Y1331700D01*
X1468140Y1306300D02*
X1512590D01*
X1678300Y1003410D02*
Y1047860D01*
Y1003410D02*
X1703700D01*
Y1047860D01*
X1678300D02*
X1703700D01*
X1652300Y1047860D02*
X1677700D01*
Y1003410D02*
Y1047860D01*
X1652300Y1003410D02*
X1677700D01*
X1652300D02*
Y1047860D01*
X1641300Y1149410D02*
Y1193860D01*
Y1149410D02*
X1666700D01*
Y1193860D01*
X1641300D02*
X1666700D01*
X1704300Y1047860D02*
X1729700D01*
Y1003410D02*
Y1047860D01*
X1704300Y1003410D02*
X1729700D01*
X1704300D02*
Y1047860D01*
X1727300Y1003410D02*
Y1047860D01*
Y1003410D02*
X1752700D01*
Y1047860D01*
X1727300D02*
X1752700D01*
X1472300Y1196140D02*
X1497700D01*
X1472300D02*
Y1240590D01*
X1497700D01*
Y1196140D02*
Y1240590D01*
X1475700Y1196140D02*
Y1240590D01*
X1450300D02*
X1475700D01*
X1450300Y1196140D02*
Y1240590D01*
Y1196140D02*
X1475700D01*
X1623700Y721140D02*
Y765590D01*
X1598300D02*
X1623700D01*
X1598300Y721140D02*
Y765590D01*
Y721140D02*
X1623700D01*
X1624300Y766860D02*
X1649700D01*
Y722410D02*
Y766860D01*
X1624300Y722410D02*
X1649700D01*
X1624300D02*
Y766860D01*
X1654140Y663300D02*
X1698590D01*
Y688700D01*
X1654140D02*
X1698590D01*
X1654140Y663300D02*
Y688700D01*
X2542000Y949000D02*
Y951500D01*
X2392000D02*
X2542000D01*
X2392000Y779000D02*
Y951500D01*
Y779000D02*
X2542000D01*
Y949000D01*
X1471000Y1312000D02*
X1511000D01*
X1471000Y1272000D02*
Y1312000D01*
Y1272000D02*
X1511000D01*
Y1312000D01*
X1849000Y1209500D02*
Y1492000D01*
X1569000D02*
X1849000D01*
X1569000Y1212000D02*
Y1492000D01*
Y1212000D02*
X1571500Y1209500D01*
X1849000D01*
X1653500Y689500D02*
Y764500D01*
Y689500D02*
X1713500D01*
Y764500D01*
X1653500D02*
X1713500D01*
X1716000Y916000D02*
Y956000D01*
X1766000D01*
Y916000D02*
Y956000D01*
X1716000Y916000D02*
X1766000D01*
X1756500Y1516000D02*
Y1616000D01*
X1754000Y1513500D02*
X1756500Y1516000D01*
X1666500Y1513500D02*
X1754000D01*
X1666500D02*
Y1616000D01*
X1756500D01*
X2048000Y1438000D02*
Y1598000D01*
X1883000D02*
X2048000D01*
X1883000Y1438000D02*
Y1598000D01*
Y1438000D02*
X2048000D01*
X1403500Y711500D02*
Y821500D01*
Y711500D02*
X1503500D01*
Y821500D01*
X1403500D02*
X1503500D01*
X1404500Y950000D02*
X1517000D01*
Y830000D02*
Y950000D01*
X1404500Y830000D02*
X1517000D01*
X1404500D02*
Y950000D01*
X1719140Y696300D02*
Y721700D01*
X1763590D01*
Y696300D02*
Y721700D01*
X1719140Y696300D02*
X1763590D01*
X1835300Y1599860D02*
X1860700D01*
Y1555410D02*
Y1599860D01*
X1835300Y1555410D02*
X1860700D01*
X1835300D02*
Y1599860D01*
X2027140Y750300D02*
Y775700D01*
X2071590D01*
Y750300D02*
Y775700D01*
X2027140Y750300D02*
X2071590D01*
X1496300Y1557140D02*
X1521700D01*
X1496300D02*
Y1601590D01*
X1521700D01*
Y1557140D02*
Y1601590D01*
X1510860Y1522300D02*
Y1547700D01*
X1466410Y1522300D02*
X1510860D01*
X1466410D02*
Y1547700D01*
X1510860D01*
X1512480Y1457790D02*
X1522640D01*
X1517560Y1453980D02*
Y1460330D01*
X1528990Y1512400D02*
X1530260Y1511130D01*
Y1461600D02*
Y1511130D01*
X1437550Y1461600D02*
X1530260D01*
X1437550D02*
Y1512400D01*
X1528990D01*
X1511480Y1399790D02*
X1521640D01*
X1516560Y1395980D02*
Y1402330D01*
X1527990Y1454400D02*
X1529260Y1453130D01*
Y1403600D02*
Y1453130D01*
X1436550Y1403600D02*
X1529260D01*
X1436550D02*
Y1454400D01*
X1527990D01*
X1511480Y1342790D02*
X1521640D01*
X1516560Y1338980D02*
Y1345330D01*
X1527990Y1397400D02*
X1529260Y1396130D01*
Y1346600D02*
Y1396130D01*
X1436550Y1346600D02*
X1529260D01*
X1436550D02*
Y1397400D01*
X1527990D01*
X1500000Y1201000D02*
X1540000D01*
Y1241000D01*
X1500000D02*
X1540000D01*
X1500000Y1201000D02*
Y1241000D01*
X1430300Y1085140D02*
X1455700D01*
X1430300D02*
Y1129590D01*
X1455700D01*
Y1085140D02*
Y1129590D01*
X1606300Y920140D02*
X1631700D01*
X1606300D02*
Y964590D01*
X1631700D01*
Y920140D02*
Y964590D01*
X1634300Y920140D02*
X1659700D01*
X1634300D02*
Y964590D01*
X1659700D01*
Y920140D02*
Y964590D01*
X1661300Y965860D02*
X1686700D01*
Y921410D02*
Y965860D01*
X1661300Y921410D02*
X1686700D01*
X1661300D02*
Y965860D01*
X1823800Y1085360D02*
X1849200D01*
Y1040910D02*
Y1085360D01*
X1823800Y1040910D02*
X1849200D01*
X1823800D02*
Y1085360D01*
X2662300Y1463860D02*
X2687700D01*
Y1419410D02*
Y1463860D01*
X2662300Y1419410D02*
X2687700D01*
X2662300D02*
Y1463860D01*
X2691300D02*
X2716700D01*
Y1419410D02*
Y1463860D01*
X2691300Y1419410D02*
X2716700D01*
X2691300D02*
Y1463860D01*
X2720300D02*
X2745700D01*
Y1419410D02*
Y1463860D01*
X2720300Y1419410D02*
X2745700D01*
X2720300D02*
Y1463860D01*
X1666000Y1507000D02*
Y1548000D01*
X1616000Y1507000D02*
X1666000D01*
X1616000D02*
Y1548000D01*
X1666000D01*
X2465300Y1310860D02*
X2490700D01*
Y1266410D02*
Y1310860D01*
X2465300Y1266410D02*
X2490700D01*
X2465300D02*
Y1310860D01*
X2372000Y647500D02*
Y672500D01*
X2529500D01*
Y647500D02*
Y672500D01*
X2372000Y647500D02*
X2529500D01*
X2597000Y1337000D02*
Y1421000D01*
X2493000D02*
X2597000D01*
X2493000Y1337000D02*
Y1421000D01*
Y1337000D02*
X2597000D01*
X2534000Y1348000D02*
Y1370000D01*
Y1382000D02*
Y1406000D01*
X2525000Y1365000D02*
Y1388000D01*
X2511000Y1377000D02*
X2525000D01*
X2521000Y1372000D02*
X2525000Y1377000D01*
X2521000Y1381000D02*
X2525000Y1377000D01*
X2521170Y1288070D02*
X2525170Y1284070D01*
X2521170Y1279070D02*
X2525170Y1284070D01*
X2511170D02*
X2525170D01*
Y1272070D02*
Y1295070D01*
X2534170Y1289070D02*
Y1313070D01*
Y1255070D02*
Y1277070D01*
X2493170Y1244070D02*
X2597170D01*
X2493170D02*
Y1328070D01*
X2597170D01*
Y1244070D02*
Y1328070D01*
X2596170Y1150820D02*
Y1234820D01*
X2492170D02*
X2596170D01*
X2492170Y1150820D02*
Y1234820D01*
Y1150820D02*
X2596170D01*
X2533170Y1161820D02*
Y1183820D01*
Y1195820D02*
Y1219820D01*
X2524170Y1178820D02*
Y1201820D01*
X2510170Y1190820D02*
X2524170D01*
X2520170Y1185820D02*
X2524170Y1190820D01*
X2520170Y1194820D02*
X2524170Y1190820D01*
X2211000Y668000D02*
X2215000Y672000D01*
X2220000Y668000D01*
X2215000Y658000D02*
Y672000D01*
X2204000D02*
X2227000D01*
X2186000Y681000D02*
X2210000D01*
X2222000D02*
X2244000D01*
X2255000Y640000D02*
Y744000D01*
X2171000Y640000D02*
X2255000D01*
X2171000D02*
Y744000D01*
X2255000D01*
X2049000D02*
X2133000D01*
X2049000Y640000D02*
Y744000D01*
Y640000D02*
X2133000D01*
Y744000D01*
X2100000Y681000D02*
X2122000D01*
X2064000D02*
X2088000D01*
X2082000Y672000D02*
X2105000D01*
X2093000Y658000D02*
Y672000D01*
X2098000Y668000D01*
X2089000D02*
X2093000Y672000D01*
X1852500Y956500D02*
X1901500D01*
X1852500D02*
Y1088500D01*
X1900500D01*
X1901500Y956500D01*
X1872500Y1116500D02*
Y1172500D01*
Y1116500D02*
X1962500D01*
Y1172500D01*
X1872500D02*
X1962500D01*
X1986000Y1018000D02*
X1987000Y1200000D01*
X2170000D01*
X2169000Y1018000D02*
X2170000Y1200000D01*
X1986000Y1018000D02*
X2169000D01*
X1415000Y1087000D02*
X1529000D01*
X1415000Y985000D02*
Y1087000D01*
X1529000Y985000D02*
Y1087000D01*
X1415000Y985000D02*
X1529000D01*
X1974000Y969000D02*
Y975000D01*
Y980000D02*
Y988000D01*
X1971000Y980000D02*
X1977000D01*
X1974000Y975000D02*
X1977000Y980000D01*
X1971000D02*
X1974000Y975000D01*
X1971000D02*
X1977000D01*
X1979000Y961000D02*
Y995000D01*
X1959000D02*
X1979000D01*
X1959000Y961000D02*
Y995000D01*
Y961000D02*
X1979000D01*
X1692000Y974000D02*
X1712000D01*
Y940000D02*
Y974000D01*
X1692000Y940000D02*
X1712000D01*
X1692000D02*
Y974000D01*
X1694000Y960000D02*
X1700000D01*
X1697000D02*
X1700000Y955000D01*
X1694000D02*
X1697000Y960000D01*
X1694000Y955000D02*
X1700000D01*
X1697000Y947000D02*
Y955000D01*
Y960000D02*
Y966000D01*
X2704000Y1377000D02*
X2710000D01*
X2691000D02*
X2699000D01*
Y1374000D02*
Y1380000D01*
X2704000Y1377000D01*
X2699000Y1374000D02*
X2704000Y1377000D01*
Y1374000D02*
Y1380000D01*
X2684000Y1382000D02*
X2718000D01*
X2684000Y1362000D02*
Y1382000D01*
Y1362000D02*
X2718000D01*
Y1382000D01*
X2717000Y1330000D02*
Y1350000D01*
X2683000Y1330000D02*
X2717000D01*
X2683000D02*
Y1350000D01*
X2717000D01*
X2703000Y1342000D02*
Y1348000D01*
X2698000Y1342000D02*
X2703000Y1345000D01*
X2698000Y1348000D02*
X2703000Y1345000D01*
X2698000Y1342000D02*
Y1348000D01*
X2690000Y1345000D02*
X2698000D01*
X2703000D02*
X2709000D01*
X2702000Y1313000D02*
X2708000D01*
X2689000D02*
X2697000D01*
Y1310000D02*
Y1316000D01*
X2702000Y1313000D01*
X2697000Y1310000D02*
X2702000Y1313000D01*
Y1310000D02*
Y1316000D01*
X2682000Y1318000D02*
X2716000D01*
X2682000Y1298000D02*
Y1318000D01*
Y1298000D02*
X2716000D01*
Y1318000D01*
X2716000Y1264000D02*
Y1284000D01*
X2682000Y1264000D02*
X2716000D01*
X2682000D02*
Y1284000D01*
X2716000D01*
X2702000Y1276000D02*
Y1282000D01*
X2697000Y1276000D02*
X2702000Y1279000D01*
X2697000Y1282000D02*
X2702000Y1279000D01*
X2697000Y1276000D02*
Y1282000D01*
X2689000Y1279000D02*
X2697000D01*
X2702000D02*
X2708000D01*
X2624000Y1473000D02*
Y1551000D01*
X2645000D01*
X2624000Y1473000D02*
X2645000D01*
Y1551000D01*
X2554000Y1472000D02*
Y1551000D01*
X2576000D01*
Y1472000D02*
Y1551000D01*
X2554000Y1472000D02*
X2576000D01*
X1670000Y1063000D02*
X1760000D01*
X1670000D02*
Y1138000D01*
X1760000D01*
Y1063000D02*
Y1138000D01*
X1400000Y1630000D02*
X2800000D01*
Y630000D02*
Y1630000D01*
X1400000Y630000D02*
X2800000D01*
X1400000D02*
Y1630000D01*
X1848300Y1453860D02*
X1873700D01*
Y1409410D02*
Y1453860D01*
X1848300Y1409410D02*
X1873700D01*
X1848300D02*
Y1453860D01*
X1809000Y795000D02*
X1849000D01*
X1809000D02*
Y835000D01*
X1849000D01*
Y795000D02*
Y835000D01*
X1826410Y793700D02*
X1870860D01*
X1826410Y768300D02*
Y793700D01*
Y768300D02*
X1870860D01*
Y793700D01*
X2695000Y1482000D02*
Y1526000D01*
Y1482000D02*
X2747000D01*
Y1526000D01*
X2695000D02*
X2747000D01*
X2234000Y1455000D02*
X2236666D01*
X2235333D01*
Y1462997D01*
X2234000Y1461664D01*
X2240665D02*
X2241997Y1462997D01*
X2244663D01*
X2245996Y1461664D01*
Y1456333D01*
X2244663Y1455000D01*
X2241997D01*
X2240665Y1456333D01*
Y1461664D01*
X2252661Y1455000D02*
Y1462997D01*
X2248662Y1458999D01*
X2253994D01*
X2256659Y1462997D02*
Y1455000D01*
Y1458999D01*
X2261991D01*
Y1462997D01*
Y1455000D01*
X2264657Y1458999D02*
X2269988D01*
X2272654Y1462997D02*
X2277986D01*
X2275320D01*
Y1455000D01*
X2280652Y1462997D02*
Y1455000D01*
X2284650D01*
X2285983Y1456333D01*
Y1461664D01*
X2284650Y1462997D01*
X2280652D01*
X2288649Y1455000D02*
Y1460332D01*
X2291315Y1462997D01*
X2293981Y1460332D01*
Y1455000D01*
Y1458999D01*
X2288649D01*
X2296647Y1461664D02*
X2297979Y1462997D01*
X2300645D01*
X2301978Y1461664D01*
Y1456333D01*
X2300645Y1455000D01*
X2297979D01*
X2296647Y1456333D01*
Y1461664D01*
X2304644Y1458999D02*
X2309975D01*
X2312641Y1455000D02*
Y1462997D01*
X2316640D01*
X2317973Y1461664D01*
Y1458999D01*
X2316640Y1457666D01*
X2312641D01*
X2315307D02*
X2317973Y1455000D01*
X2320639Y1461664D02*
X2321972Y1462997D01*
X2324637D01*
X2325970Y1461664D01*
Y1456333D01*
X2324637Y1455000D01*
X2321972D01*
X2320639Y1456333D01*
Y1461664D01*
X2328636Y1455000D02*
X2331302D01*
X2329969D01*
Y1462997D01*
X2328636Y1461664D01*
D139*
X1537662Y1032917D02*
X1534996D01*
X1536329D01*
Y1026253D01*
X1534996Y1024920D01*
X1533663D01*
X1532330Y1026253D01*
X1540327Y1032917D02*
Y1026253D01*
X1541660Y1024920D01*
X1544326D01*
X1545659Y1026253D01*
Y1032917D01*
X1548325Y1024920D02*
Y1032917D01*
X1550991Y1030252D01*
X1553656Y1032917D01*
Y1024920D01*
X1556322D02*
Y1032917D01*
X1560321D01*
X1561654Y1031584D01*
Y1028919D01*
X1560321Y1027586D01*
X1556322D01*
X1569651Y1032917D02*
X1564320D01*
Y1024920D01*
X1569651D01*
X1564320Y1028919D02*
X1566985D01*
X1572317Y1024920D02*
Y1032917D01*
X1576316D01*
X1577649Y1031584D01*
Y1028919D01*
X1576316Y1027586D01*
X1572317D01*
X1574983D02*
X1577649Y1024920D01*
X1854080Y863680D02*
Y866346D01*
Y865013D01*
X1846083D01*
X1847415Y863680D01*
X1846083Y870344D02*
X1854080D01*
X1851414D01*
X1846083Y875676D01*
X1850081Y871677D01*
X1854080Y875676D01*
X1537662Y1059917D02*
X1534996D01*
X1536329D01*
Y1053253D01*
X1534996Y1051920D01*
X1533663D01*
X1532330Y1053253D01*
X1540327Y1059917D02*
Y1053253D01*
X1541660Y1051920D01*
X1544326D01*
X1545659Y1053253D01*
Y1059917D01*
X1548325Y1051920D02*
Y1059917D01*
X1550991Y1057252D01*
X1553656Y1059917D01*
Y1051920D01*
X1556322D02*
Y1059917D01*
X1560321D01*
X1561654Y1058585D01*
Y1055919D01*
X1560321Y1054586D01*
X1556322D01*
X1569651Y1059917D02*
X1564320D01*
Y1051920D01*
X1569651D01*
X1564320Y1055919D02*
X1566985D01*
X1572317Y1051920D02*
Y1059917D01*
X1576316D01*
X1577649Y1058585D01*
Y1055919D01*
X1576316Y1054586D01*
X1572317D01*
X1574983D02*
X1577649Y1051920D01*
X1537662Y1086917D02*
X1534996D01*
X1536329D01*
Y1080253D01*
X1534996Y1078920D01*
X1533663D01*
X1532330Y1080253D01*
X1540327Y1086917D02*
Y1080253D01*
X1541660Y1078920D01*
X1544326D01*
X1545659Y1080253D01*
Y1086917D01*
X1548325Y1078920D02*
Y1086917D01*
X1550991Y1084252D01*
X1553656Y1086917D01*
Y1078920D01*
X1556322D02*
Y1086917D01*
X1560321D01*
X1561654Y1085584D01*
Y1082919D01*
X1560321Y1081586D01*
X1556322D01*
X1569651Y1086917D02*
X1564320D01*
Y1078920D01*
X1569651D01*
X1564320Y1082919D02*
X1566985D01*
X1572317Y1078920D02*
Y1086917D01*
X1576316D01*
X1577649Y1085584D01*
Y1082919D01*
X1576316Y1081586D01*
X1572317D01*
X1574983D02*
X1577649Y1078920D01*
X1846000Y679500D02*
X1848666D01*
X1847333D01*
Y687497D01*
X1846000Y686164D01*
X1857996Y687497D02*
X1855330Y686164D01*
X1852664Y683499D01*
Y680833D01*
X1853997Y679500D01*
X1856663D01*
X1857996Y680833D01*
Y682166D01*
X1856663Y683499D01*
X1852664D01*
X1860662Y679500D02*
Y687497D01*
X1863328Y684832D01*
X1865994Y687497D01*
Y679500D01*
X1873991D02*
X1868659D01*
X1873991Y684832D01*
Y686164D01*
X1872658Y687497D01*
X1869992D01*
X1868659Y686164D01*
X1876657Y687497D02*
X1881988D01*
Y686164D01*
X1876657Y680833D01*
Y679500D01*
X1889986Y687497D02*
X1887320Y686164D01*
X1884654Y683499D01*
Y680833D01*
X1885987Y679500D01*
X1888653D01*
X1889986Y680833D01*
Y682166D01*
X1888653Y683499D01*
X1884654D01*
X1896650Y679500D02*
Y687497D01*
X1892652Y683499D01*
X1897983D01*
X1627000Y1530997D02*
Y1524333D01*
X1628333Y1523000D01*
X1630999D01*
X1632332Y1524333D01*
Y1530997D01*
X1634997Y1523000D02*
Y1524333D01*
X1636330D01*
Y1523000D01*
X1634997D01*
X1646994Y1530997D02*
X1641662D01*
Y1526999D01*
X1644328D01*
X1641662D01*
Y1523000D01*
X1649659Y1530997D02*
Y1523000D01*
X1654991D01*
X1962003Y870000D02*
X1970000D01*
Y873999D01*
X1968667Y875332D01*
X1967334D01*
X1966001Y873999D01*
Y870000D01*
Y873999D01*
X1964668Y875332D01*
X1963336D01*
X1962003Y873999D01*
Y870000D01*
Y877997D02*
X1970000D01*
Y883329D01*
Y885995D02*
X1962003D01*
X1964668Y888661D01*
X1962003Y891326D01*
X1970000D01*
Y899324D02*
Y893992D01*
X1964668Y899324D01*
X1963336D01*
X1962003Y897991D01*
Y895325D01*
X1963336Y893992D01*
X1970000Y901990D02*
Y904656D01*
Y903323D01*
X1962003D01*
X1963336Y901990D01*
X1970000Y908654D02*
X1962003D01*
Y912653D01*
X1963336Y913986D01*
X1966001D01*
X1967334Y912653D01*
Y908654D01*
Y911320D02*
X1970000Y913986D01*
X1962003Y916652D02*
X1970000D01*
X1967334D01*
X1962003Y921983D01*
X1966001Y917984D01*
X1970000Y921983D01*
Y924649D02*
Y927315D01*
Y925982D01*
X1962003D01*
X1963336Y924649D01*
Y931314D02*
X1962003Y932646D01*
Y935312D01*
X1963336Y936645D01*
X1968667D01*
X1970000Y935312D01*
Y932646D01*
X1968667Y931314D01*
X1963336D01*
X1970000Y944643D02*
Y939311D01*
X1964668Y944643D01*
X1963336D01*
X1962003Y943310D01*
Y940644D01*
X1963336Y939311D01*
Y952640D02*
X1962003Y951307D01*
Y948641D01*
X1963336Y947308D01*
X1964668D01*
X1966001Y948641D01*
Y951307D01*
X1967334Y952640D01*
X1968667D01*
X1970000Y951307D01*
Y948641D01*
X1968667Y947308D01*
X1970000Y955306D02*
X1962003D01*
X1970000Y960637D01*
X1962003D01*
X1970000Y963303D02*
Y965969D01*
Y964636D01*
X1962003D01*
X1963336Y963303D01*
X1962003Y969968D02*
X1970000D01*
Y973967D01*
X1968667Y975299D01*
X1963336D01*
X1962003Y973967D01*
Y969968D01*
X1708665Y968668D02*
X1709997Y970001D01*
Y972667D01*
X1708665Y974000D01*
X1703333D01*
X1702000Y972667D01*
Y970001D01*
X1703333Y968668D01*
X1705999D01*
Y971334D01*
X1702000Y966003D02*
X1709997D01*
Y962004D01*
X1708665Y960671D01*
X1705999D01*
X1704666Y962004D01*
Y966003D01*
Y963337D02*
X1702000Y960671D01*
X1709997Y952673D02*
Y958005D01*
X1702000D01*
Y952673D01*
X1705999Y958005D02*
Y955339D01*
X1709997Y944676D02*
Y950008D01*
X1702000D01*
Y944676D01*
X1705999Y950008D02*
Y947342D01*
X1702000Y942010D02*
X1709997D01*
X1702000Y936679D01*
X1709997D01*
X2691000Y1364000D02*
Y1371997D01*
X2694999D01*
X2696331Y1370665D01*
Y1367999D01*
X2694999Y1366666D01*
X2691000D01*
X2693666D02*
X2696331Y1364000D01*
X2704329Y1371997D02*
X2698997D01*
Y1364000D01*
X2704329D01*
X2698997Y1367999D02*
X2701663D01*
X2706995Y1371997D02*
Y1364000D01*
X2710994D01*
X2712326Y1365333D01*
Y1370665D01*
X2710994Y1371997D01*
X2706995D01*
X2690000Y1338997D02*
Y1331000D01*
X2693999D01*
X2695332Y1332333D01*
Y1333666D01*
X2693999Y1334999D01*
X2690000D01*
X2693999D01*
X2695332Y1336332D01*
Y1337664D01*
X2693999Y1338997D01*
X2690000D01*
X2697997D02*
Y1331000D01*
X2703329D01*
X2705995Y1338997D02*
Y1332333D01*
X2707328Y1331000D01*
X2709994D01*
X2711327Y1332333D01*
Y1338997D01*
X2719324D02*
X2713992D01*
Y1331000D01*
X2719324D01*
X2713992Y1334999D02*
X2716658D01*
X2684000Y1307997D02*
Y1306664D01*
X2686666Y1303999D01*
X2689332Y1306664D01*
Y1307997D01*
X2686666Y1303999D02*
Y1300000D01*
X2697329Y1307997D02*
X2691997D01*
Y1300000D01*
X2697329D01*
X2691997Y1303999D02*
X2694663D01*
X2699995Y1307997D02*
Y1300000D01*
X2705327D01*
X2707992Y1307997D02*
Y1300000D01*
X2713324D01*
X2719988Y1307997D02*
X2717323D01*
X2715990Y1306664D01*
Y1301333D01*
X2717323Y1300000D01*
X2719988D01*
X2721321Y1301333D01*
Y1306664D01*
X2719988Y1307997D01*
X2723987D02*
Y1300000D01*
X2726653Y1302666D01*
X2729319Y1300000D01*
Y1307997D01*
X2689332Y1272664D02*
X2687999Y1273997D01*
X2685333D01*
X2684000Y1272664D01*
Y1267333D01*
X2685333Y1266000D01*
X2687999D01*
X2689332Y1267333D01*
Y1269999D01*
X2686666D01*
X2691997Y1266000D02*
Y1273997D01*
X2695996D01*
X2697329Y1272664D01*
Y1269999D01*
X2695996Y1268666D01*
X2691997D01*
X2694663D02*
X2697329Y1266000D01*
X2705327Y1273997D02*
X2699995D01*
Y1266000D01*
X2705327D01*
X2699995Y1269999D02*
X2702661D01*
X2713324Y1273997D02*
X2707992D01*
Y1266000D01*
X2713324D01*
X2707992Y1269999D02*
X2710658D01*
X2715990Y1266000D02*
Y1273997D01*
X2721321Y1266000D01*
Y1273997D01*
X1855920Y1451320D02*
Y1448654D01*
Y1449987D01*
X1863917D01*
X1862585Y1451320D01*
X1863917Y1444655D02*
X1855920D01*
X1858586D01*
X1863917Y1439324D01*
X1859919Y1443322D01*
X1855920Y1439324D01*
X1809000Y817997D02*
Y810000D01*
X1812999D01*
X1814332Y811333D01*
Y812666D01*
X1812999Y813999D01*
X1809000D01*
X1812999D01*
X1814332Y815332D01*
Y816665D01*
X1812999Y817997D01*
X1809000D01*
X1822329Y816665D02*
X1820996Y817997D01*
X1818330D01*
X1816997Y816665D01*
Y811333D01*
X1818330Y810000D01*
X1820996D01*
X1822329Y811333D01*
X1824995Y816665D02*
X1826328Y817997D01*
X1828994D01*
X1830326Y816665D01*
Y815332D01*
X1828994Y813999D01*
X1830326Y812666D01*
Y811333D01*
X1828994Y810000D01*
X1826328D01*
X1824995Y811333D01*
Y812666D01*
X1826328Y813999D01*
X1824995Y815332D01*
Y816665D01*
X1826328Y813999D02*
X1828994D01*
X1832992Y810000D02*
X1835658D01*
X1834325D01*
Y817997D01*
X1832992Y816665D01*
X1839657Y817997D02*
X1844988D01*
Y816665D01*
X1839657Y811333D01*
Y810000D01*
X1868320Y786080D02*
X1865654D01*
X1866987D01*
Y778083D01*
X1868320Y779416D01*
X1861655Y778083D02*
Y786080D01*
Y783414D01*
X1856324Y778083D01*
X1860323Y782081D01*
X1856324Y786080D01*
M02*
