G04 Layer_Color=16711935*
%FSLAX44Y44*%
%MOMM*%
G71*
G01*
G75*
%ADD55C,0.3000*%
%ADD73C,0.1000*%
%ADD77C,0.2000*%
%ADD138C,0.1500*%
D55*
X2145500Y1613000D02*
X2428000D01*
D73*
X1548875Y1542490D02*
X1547543Y1543823D01*
Y1546489D01*
X1548875Y1547822D01*
X1550208D01*
X1551541Y1546489D01*
Y1545156D01*
Y1546489D01*
X1552874Y1547822D01*
X1554207D01*
X1555540Y1546489D01*
Y1543823D01*
X1554207Y1542490D01*
X1548875Y1550487D02*
X1547543Y1551820D01*
Y1554486D01*
X1548875Y1555819D01*
X1550208D01*
X1551541Y1554486D01*
Y1553153D01*
Y1554486D01*
X1552874Y1555819D01*
X1554207D01*
X1555540Y1554486D01*
Y1551820D01*
X1554207Y1550487D01*
X1548875Y1558485D02*
X1547543Y1559818D01*
Y1562484D01*
X1548875Y1563816D01*
X1554207D01*
X1555540Y1562484D01*
Y1559818D01*
X1554207Y1558485D01*
X1548875D01*
X1547543Y1566482D02*
X1554207D01*
X1555540Y1567815D01*
Y1570481D01*
X1554207Y1571814D01*
X1547543D01*
Y1579811D02*
Y1574480D01*
X1551541D01*
Y1577146D01*
Y1574480D01*
X1555540D01*
X1547543Y1595806D02*
X1548875Y1593140D01*
X1551541Y1590475D01*
X1554207D01*
X1555540Y1591807D01*
Y1594473D01*
X1554207Y1595806D01*
X1552874D01*
X1551541Y1594473D01*
Y1590475D01*
X1555540Y1598472D02*
X1554207D01*
Y1599805D01*
X1555540D01*
Y1598472D01*
X1548875Y1605136D02*
X1547543Y1606469D01*
Y1609135D01*
X1548875Y1610468D01*
X1550208D01*
X1551541Y1609135D01*
Y1607802D01*
Y1609135D01*
X1552874Y1610468D01*
X1554207D01*
X1555540Y1609135D01*
Y1606469D01*
X1554207Y1605136D01*
X1547543Y1613134D02*
X1552874D01*
X1555540Y1615800D01*
X1552874Y1618466D01*
X1547543D01*
X2308000Y1286664D02*
X2309333Y1287997D01*
X2311999D01*
X2313332Y1286664D01*
Y1281333D01*
X2311999Y1280000D01*
X2309333D01*
X2308000Y1281333D01*
Y1286664D01*
X2315997Y1280000D02*
Y1281333D01*
X2317330D01*
Y1280000D01*
X2315997D01*
X2322662D02*
X2325328D01*
X2323995D01*
Y1287997D01*
X2322662Y1286664D01*
X2329326Y1285332D02*
Y1281333D01*
X2330659Y1280000D01*
X2334658D01*
Y1285332D01*
X2342655Y1287997D02*
X2337324D01*
Y1283999D01*
X2339990D01*
X2337324D01*
Y1280000D01*
X2245000Y1286664D02*
X2246333Y1287997D01*
X2248999D01*
X2250332Y1286664D01*
Y1281333D01*
X2248999Y1280000D01*
X2246333D01*
X2245000Y1281333D01*
Y1286664D01*
X2252997Y1280000D02*
Y1281333D01*
X2254330D01*
Y1280000D01*
X2252997D01*
X2259662D02*
X2262328D01*
X2260995D01*
Y1287997D01*
X2259662Y1286664D01*
X2266326Y1285332D02*
Y1281333D01*
X2267659Y1280000D01*
X2271658D01*
Y1285332D01*
X2279655Y1287997D02*
X2274324D01*
Y1283999D01*
X2276990D01*
X2274324D01*
Y1280000D01*
X1546584Y789670D02*
X1547917Y788337D01*
Y785671D01*
X1546584Y784338D01*
X1541253D01*
X1539920Y785671D01*
Y788337D01*
X1541253Y789670D01*
X1546584D01*
Y768344D02*
X1547917Y769676D01*
Y772342D01*
X1546584Y773675D01*
X1541253D01*
X1539920Y772342D01*
Y769676D01*
X1541253Y768344D01*
X1539920Y765678D02*
X1547917D01*
X1545252Y763012D01*
X1547917Y760346D01*
X1539920D01*
Y753682D02*
Y756347D01*
X1541253Y757680D01*
X1543919D01*
X1545252Y756347D01*
Y753682D01*
X1543919Y752349D01*
X1542586D01*
Y757680D01*
X1545252Y748350D02*
Y745684D01*
X1543919Y744351D01*
X1539920D01*
Y748350D01*
X1541253Y749683D01*
X1542586Y748350D01*
Y744351D01*
X1539920Y741685D02*
Y737687D01*
X1541253Y736354D01*
X1542586Y737687D01*
Y740353D01*
X1543919Y741685D01*
X1545252Y740353D01*
Y736354D01*
Y733688D02*
X1541253D01*
X1539920Y732355D01*
Y728356D01*
X1545252D01*
Y725691D02*
X1539920D01*
X1542586D01*
X1543919Y724358D01*
X1545252Y723025D01*
Y721692D01*
X1539920Y713695D02*
Y716360D01*
X1541253Y717693D01*
X1543919D01*
X1545252Y716360D01*
Y713695D01*
X1543919Y712362D01*
X1542586D01*
Y717693D01*
X2200320Y774686D02*
X2198987Y773353D01*
X2196321D01*
X2194988Y774686D01*
Y780017D01*
X2196321Y781350D01*
X2198987D01*
X2200320Y780017D01*
Y774686D01*
X2192323Y781350D02*
Y780017D01*
X2190990D01*
Y781350D01*
X2192323D01*
X2185658D02*
X2182992D01*
X2184325D01*
Y773353D01*
X2185658Y774686D01*
X2178994Y776018D02*
Y780017D01*
X2177661Y781350D01*
X2173662D01*
Y776018D01*
X2165665Y773353D02*
X2170996D01*
Y777351D01*
X2168330D01*
X2170996D01*
Y781350D01*
X2473336Y1169000D02*
X2472003Y1170333D01*
Y1172999D01*
X2473336Y1174332D01*
X2478667D01*
X2480000Y1172999D01*
Y1170333D01*
X2478667Y1169000D01*
X2473336D01*
X2480000Y1176997D02*
X2478667D01*
Y1178330D01*
X2480000D01*
Y1176997D01*
Y1183662D02*
Y1186328D01*
Y1184995D01*
X2472003D01*
X2473336Y1183662D01*
X2474668Y1190327D02*
X2478667D01*
X2480000Y1191659D01*
Y1195658D01*
X2474668D01*
X2472003Y1203655D02*
Y1198324D01*
X2476001D01*
Y1200990D01*
Y1198324D01*
X2480000D01*
X2475336Y1356410D02*
X2474003Y1357743D01*
Y1360409D01*
X2475336Y1361742D01*
X2480667D01*
X2482000Y1360409D01*
Y1357743D01*
X2480667Y1356410D01*
X2475336D01*
X2482000Y1364407D02*
X2480667D01*
Y1365740D01*
X2482000D01*
Y1364407D01*
Y1371072D02*
Y1373738D01*
Y1372405D01*
X2474003D01*
X2475336Y1371072D01*
X2476668Y1377737D02*
X2480667D01*
X2482000Y1379069D01*
Y1383068D01*
X2476668D01*
X2474003Y1391066D02*
Y1385734D01*
X2478001D01*
Y1388400D01*
Y1385734D01*
X2482000D01*
X1842850Y962180D02*
Y964846D01*
Y963513D01*
X1834853D01*
X1836185Y962180D01*
Y968845D02*
X1834853Y970177D01*
Y972843D01*
X1836185Y974176D01*
X1837518D01*
X1838851Y972843D01*
X1840184Y974176D01*
X1841517D01*
X1842850Y972843D01*
Y970177D01*
X1841517Y968845D01*
X1840184D01*
X1838851Y970177D01*
X1837518Y968845D01*
X1836185D01*
X1838851Y970177D02*
Y972843D01*
X1845516Y976842D02*
X1837518D01*
Y980841D01*
X1838851Y982173D01*
X1841517D01*
X1842850Y980841D01*
Y976842D01*
X1834853Y990171D02*
Y984839D01*
X1838851D01*
Y987505D01*
Y984839D01*
X1842850D01*
X1915320Y1101685D02*
X1913987Y1100353D01*
X1911321D01*
X1909988Y1101685D01*
Y1107017D01*
X1911321Y1108350D01*
X1913987D01*
X1915320Y1107017D01*
Y1101685D01*
X1907323Y1108350D02*
Y1107017D01*
X1905990D01*
Y1108350D01*
X1907323D01*
X1900658D02*
X1897992D01*
X1899325D01*
Y1100353D01*
X1900658Y1101685D01*
X1893994Y1103018D02*
Y1107017D01*
X1892661Y1108350D01*
X1888662D01*
Y1103018D01*
X1880665Y1100353D02*
X1885996D01*
Y1104351D01*
X1883330D01*
X1885996D01*
Y1108350D01*
X2165314Y998320D02*
X2166647Y996987D01*
Y994321D01*
X2165314Y992988D01*
X2159983D01*
X2158650Y994321D01*
Y996987D01*
X2159983Y998320D01*
X2165314D01*
X2158650Y990323D02*
X2159983D01*
Y988990D01*
X2158650D01*
Y990323D01*
Y983658D02*
Y980992D01*
Y982325D01*
X2166647D01*
X2165314Y983658D01*
X2163982Y976993D02*
X2159983D01*
X2158650Y975661D01*
Y971662D01*
X2163982D01*
X2166647Y963664D02*
Y968996D01*
X2162649D01*
Y966330D01*
Y968996D01*
X2158650D01*
X2182686Y1160680D02*
X2181353Y1162013D01*
Y1164679D01*
X2182686Y1166012D01*
X2188017D01*
X2189350Y1164679D01*
Y1162013D01*
X2188017Y1160680D01*
X2182686D01*
X2189350Y1168677D02*
X2188017D01*
Y1170010D01*
X2189350D01*
Y1168677D01*
Y1175342D02*
Y1178008D01*
Y1176675D01*
X2181353D01*
X2182686Y1175342D01*
X2184018Y1182007D02*
X2188017D01*
X2189350Y1183339D01*
Y1187338D01*
X2184018D01*
X2181353Y1195335D02*
Y1190004D01*
X2185351D01*
Y1192670D01*
Y1190004D01*
X2189350D01*
X2025685Y1210680D02*
X2024353Y1212013D01*
Y1214679D01*
X2025685Y1216012D01*
X2031017D01*
X2032350Y1214679D01*
Y1212013D01*
X2031017Y1210680D01*
X2025685D01*
X2032350Y1218677D02*
X2031017D01*
Y1220010D01*
X2032350D01*
Y1218677D01*
Y1225342D02*
Y1228008D01*
Y1226675D01*
X2024353D01*
X2025685Y1225342D01*
X2027018Y1232007D02*
X2031017D01*
X2032350Y1233339D01*
Y1237338D01*
X2027018D01*
X2024353Y1245335D02*
Y1240004D01*
X2028351D01*
Y1242670D01*
Y1240004D01*
X2032350D01*
X2068315Y992320D02*
X2069647Y990987D01*
Y988321D01*
X2068315Y986988D01*
X2062983D01*
X2061650Y988321D01*
Y990987D01*
X2062983Y992320D01*
X2068315D01*
X2061650Y984323D02*
X2062983D01*
Y982990D01*
X2061650D01*
Y984323D01*
Y977658D02*
Y974992D01*
Y976325D01*
X2069647D01*
X2068315Y977658D01*
X2066982Y970993D02*
X2062983D01*
X2061650Y969661D01*
Y965662D01*
X2066982D01*
X2069647Y957664D02*
Y962996D01*
X2065649D01*
Y960330D01*
Y962996D01*
X2061650D01*
X1992680Y1002315D02*
X1994013Y1003647D01*
X1996679D01*
X1998012Y1002315D01*
Y996983D01*
X1996679Y995650D01*
X1994013D01*
X1992680Y996983D01*
Y1002315D01*
X2000677Y995650D02*
Y996983D01*
X2002010D01*
Y995650D01*
X2000677D01*
X2007342D02*
X2010008D01*
X2008675D01*
Y1003647D01*
X2007342Y1002315D01*
X2014007Y1000982D02*
Y996983D01*
X2015339Y995650D01*
X2019338D01*
Y1000982D01*
X2027336Y1003647D02*
X2022004D01*
Y999649D01*
X2024670D01*
X2022004D01*
Y995650D01*
X2053685Y1210680D02*
X2052353Y1212013D01*
Y1214679D01*
X2053685Y1216012D01*
X2059017D01*
X2060350Y1214679D01*
Y1212013D01*
X2059017Y1210680D01*
X2053685D01*
X2060350Y1218677D02*
X2059017D01*
Y1220010D01*
X2060350D01*
Y1218677D01*
Y1225342D02*
Y1228008D01*
Y1226675D01*
X2052353D01*
X2053685Y1225342D01*
X2055018Y1232007D02*
X2059017D01*
X2060350Y1233339D01*
Y1237338D01*
X2055018D01*
X2052353Y1245335D02*
Y1240004D01*
X2056351D01*
Y1242670D01*
Y1240004D01*
X2060350D01*
X2146685Y1213680D02*
X2145353Y1215013D01*
Y1217679D01*
X2146685Y1219012D01*
X2152017D01*
X2153350Y1217679D01*
Y1215013D01*
X2152017Y1213680D01*
X2146685D01*
X2153350Y1221677D02*
X2152017D01*
Y1223010D01*
X2153350D01*
Y1221677D01*
Y1228342D02*
Y1231008D01*
Y1229675D01*
X2145353D01*
X2146685Y1228342D01*
X2148018Y1235006D02*
X2152017D01*
X2153350Y1236339D01*
Y1240338D01*
X2148018D01*
X2145353Y1248335D02*
Y1243004D01*
X2149351D01*
Y1245670D01*
Y1243004D01*
X2153350D01*
X1953320Y989350D02*
X1950654D01*
X1951987D01*
Y981353D01*
X1953320Y982685D01*
X1946655Y984018D02*
Y988017D01*
X1945323Y989350D01*
X1941324D01*
Y984018D01*
X1933326Y981353D02*
X1938658D01*
Y985351D01*
X1935992D01*
X1938658D01*
Y989350D01*
X1953320Y1009686D02*
X1951987Y1008353D01*
X1949321D01*
X1947988Y1009686D01*
Y1015017D01*
X1949321Y1016350D01*
X1951987D01*
X1953320Y1015017D01*
Y1009686D01*
X1945323Y1016350D02*
Y1015017D01*
X1943990D01*
Y1016350D01*
X1945323D01*
X1938658D02*
X1935992D01*
X1937325D01*
Y1008353D01*
X1938658Y1009686D01*
X1931994Y1011018D02*
Y1015017D01*
X1930661Y1016350D01*
X1926662D01*
Y1011018D01*
X1918665Y1008353D02*
X1923996D01*
Y1012351D01*
X1921330D01*
X1923996D01*
Y1016350D01*
X2185350Y1219012D02*
Y1213680D01*
X2180018Y1219012D01*
X2178685D01*
X2177353Y1217679D01*
Y1215013D01*
X2178685Y1213680D01*
X2185350Y1221677D02*
X2184017D01*
Y1223010D01*
X2185350D01*
Y1221677D01*
Y1233674D02*
Y1228342D01*
X2180018Y1233674D01*
X2178685D01*
X2177353Y1232341D01*
Y1229675D01*
X2178685Y1228342D01*
X2180018Y1236339D02*
X2184017D01*
X2185350Y1237672D01*
Y1241671D01*
X2180018D01*
X2177353Y1249668D02*
Y1244337D01*
X2181351D01*
Y1247003D01*
Y1244337D01*
X2185350D01*
X2131650Y992988D02*
Y998320D01*
X2136982Y992988D01*
X2138315D01*
X2139647Y994321D01*
Y996987D01*
X2138315Y998320D01*
X2131650Y990323D02*
X2132983D01*
Y988990D01*
X2131650D01*
Y990323D01*
Y978326D02*
Y983658D01*
X2136982Y978326D01*
X2138315D01*
X2139647Y979659D01*
Y982325D01*
X2138315Y983658D01*
X2136982Y975661D02*
X2132983D01*
X2131650Y974328D01*
Y970329D01*
X2136982D01*
X2139647Y962332D02*
Y967663D01*
X2135649D01*
Y964997D01*
Y967663D01*
X2131650D01*
X2010350Y943680D02*
Y946346D01*
Y945013D01*
X2002353D01*
X2003685Y943680D01*
X2005018Y950344D02*
X2009017D01*
X2010350Y951677D01*
Y955676D01*
X2005018D01*
X2002353Y963674D02*
Y958342D01*
X2006351D01*
Y961008D01*
Y958342D01*
X2010350D01*
X2031685Y943680D02*
X2030353Y945013D01*
Y947679D01*
X2031685Y949012D01*
X2037017D01*
X2038350Y947679D01*
Y945013D01*
X2037017Y943680D01*
X2031685D01*
X2038350Y951677D02*
X2037017D01*
Y953010D01*
X2038350D01*
Y951677D01*
Y958342D02*
Y961008D01*
Y959675D01*
X2030353D01*
X2031685Y958342D01*
X2033018Y965006D02*
X2037017D01*
X2038350Y966339D01*
Y970338D01*
X2033018D01*
X2030353Y978335D02*
Y973004D01*
X2034351D01*
Y975670D01*
Y973004D01*
X2038350D01*
X1976350Y1210680D02*
Y1213346D01*
Y1212013D01*
X1968353D01*
X1969686Y1210680D01*
X1971018Y1217345D02*
X1975017D01*
X1976350Y1218677D01*
Y1222676D01*
X1971018D01*
X1968353Y1230674D02*
Y1225342D01*
X1972351D01*
Y1228008D01*
Y1225342D01*
X1976350D01*
X1954988Y1185353D02*
X1957654Y1186685D01*
X1960320Y1189351D01*
Y1192017D01*
X1958987Y1193350D01*
X1956321D01*
X1954988Y1192017D01*
Y1190684D01*
X1956321Y1189351D01*
X1960320D01*
X1952323Y1193350D02*
Y1192017D01*
X1950990D01*
Y1193350D01*
X1952323D01*
X1945658Y1186685D02*
X1944325Y1185353D01*
X1941659D01*
X1940326Y1186685D01*
Y1188018D01*
X1941659Y1189351D01*
X1940326Y1190684D01*
Y1192017D01*
X1941659Y1193350D01*
X1944325D01*
X1945658Y1192017D01*
Y1190684D01*
X1944325Y1189351D01*
X1945658Y1188018D01*
Y1186685D01*
X1944325Y1189351D02*
X1941659D01*
X1937661Y1193350D02*
Y1185353D01*
X1933662D01*
X1932329Y1186685D01*
Y1189351D01*
X1933662Y1190684D01*
X1937661D01*
X1924332Y1185353D02*
X1929663D01*
Y1189351D01*
X1926997D01*
X1929663D01*
Y1193350D01*
X1954988Y1100353D02*
X1957654Y1101685D01*
X1960320Y1104351D01*
Y1107017D01*
X1958987Y1108350D01*
X1956321D01*
X1954988Y1107017D01*
Y1105684D01*
X1956321Y1104351D01*
X1960320D01*
X1952323Y1108350D02*
Y1107017D01*
X1950990D01*
Y1108350D01*
X1952323D01*
X1945658Y1101685D02*
X1944325Y1100353D01*
X1941659D01*
X1940326Y1101685D01*
Y1103018D01*
X1941659Y1104351D01*
X1940326Y1105684D01*
Y1107017D01*
X1941659Y1108350D01*
X1944325D01*
X1945658Y1107017D01*
Y1105684D01*
X1944325Y1104351D01*
X1945658Y1103018D01*
Y1101685D01*
X1944325Y1104351D02*
X1941659D01*
X1937661Y1108350D02*
Y1100353D01*
X1933662D01*
X1932329Y1101685D01*
Y1104351D01*
X1933662Y1105684D01*
X1937661D01*
X1924332Y1100353D02*
X1929663D01*
Y1104351D01*
X1926997D01*
X1929663D01*
Y1108350D01*
X2553315Y908320D02*
X2554647Y906987D01*
Y904321D01*
X2553315Y902988D01*
X2547983D01*
X2546650Y904321D01*
Y906987D01*
X2547983Y908320D01*
X2553315D01*
X2546650Y900323D02*
X2547983D01*
Y898990D01*
X2546650D01*
Y900323D01*
Y893658D02*
Y890992D01*
Y892325D01*
X2554647D01*
X2553315Y893658D01*
X2551982Y886993D02*
X2547983D01*
X2546650Y885661D01*
Y881662D01*
X2551982D01*
X2554647Y873664D02*
Y878996D01*
X2550649D01*
Y876330D01*
Y878996D01*
X2546650D01*
X2375320Y774686D02*
X2373987Y773353D01*
X2371321D01*
X2369988Y774686D01*
Y780017D01*
X2371321Y781350D01*
X2373987D01*
X2375320Y780017D01*
Y774686D01*
X2367323Y781350D02*
Y780017D01*
X2365990D01*
Y781350D01*
X2367323D01*
X2360658D02*
X2357992D01*
X2359325D01*
Y773353D01*
X2360658Y774686D01*
X2353994Y776018D02*
Y780017D01*
X2352661Y781350D01*
X2348662D01*
Y776018D01*
X2340665Y773353D02*
X2345996D01*
Y777351D01*
X2343330D01*
X2345996D01*
Y781350D01*
X2328000Y795000D02*
X2330666D01*
X2329333D01*
Y802997D01*
X2328000Y801665D01*
X2334664D02*
X2335997Y802997D01*
X2338663D01*
X2339996Y801665D01*
Y796333D01*
X2338663Y795000D01*
X2335997D01*
X2334664Y796333D01*
Y801665D01*
X2342662Y800332D02*
Y796333D01*
X2343995Y795000D01*
X2347994D01*
Y800332D01*
X2355991Y802997D02*
X2350659D01*
Y798999D01*
X2353325D01*
X2350659D01*
Y795000D01*
X2645315Y1461320D02*
X2646647Y1459987D01*
Y1457321D01*
X2645315Y1455988D01*
X2639983D01*
X2638650Y1457321D01*
Y1459987D01*
X2639983Y1461320D01*
X2645315D01*
X2638650Y1453323D02*
X2639983D01*
Y1451990D01*
X2638650D01*
Y1453323D01*
Y1446658D02*
Y1443992D01*
Y1445325D01*
X2646647D01*
X2645315Y1446658D01*
X2643982Y1439993D02*
X2639983D01*
X2638650Y1438661D01*
Y1434662D01*
X2643982D01*
X2646647Y1426664D02*
Y1431996D01*
X2642649D01*
Y1429330D01*
Y1431996D01*
X2638650D01*
X1579920Y859640D02*
Y856974D01*
Y858307D01*
X1587917D01*
X1586584Y859640D01*
Y852975D02*
X1587917Y851643D01*
Y848977D01*
X1586584Y847644D01*
X1581253D01*
X1579920Y848977D01*
Y851643D01*
X1581253Y852975D01*
X1586584D01*
Y844978D02*
X1587917Y843645D01*
Y840979D01*
X1586584Y839646D01*
X1581253D01*
X1579920Y840979D01*
Y843645D01*
X1581253Y844978D01*
X1586584D01*
X1587917Y836981D02*
X1581253D01*
X1579920Y835648D01*
Y832982D01*
X1581253Y831649D01*
X1587917D01*
Y823652D02*
Y828983D01*
X1583919D01*
Y826317D01*
Y828983D01*
X1579920D01*
X1587917Y807657D02*
X1586584Y810323D01*
X1583919Y812988D01*
X1581253D01*
X1579920Y811656D01*
Y808990D01*
X1581253Y807657D01*
X1582586D01*
X1583919Y808990D01*
Y812988D01*
X1579920Y804991D02*
X1581253D01*
Y803658D01*
X1579920D01*
Y804991D01*
X1586584Y798326D02*
X1587917Y796993D01*
Y794328D01*
X1586584Y792995D01*
X1585252D01*
X1583919Y794328D01*
Y795661D01*
Y794328D01*
X1582586Y792995D01*
X1581253D01*
X1579920Y794328D01*
Y796993D01*
X1581253Y798326D01*
X1587917Y790329D02*
X1582586D01*
X1579920Y787663D01*
X1582586Y784997D01*
X1587917D01*
X1748822Y662460D02*
X1743490D01*
X1748822Y667792D01*
Y669125D01*
X1747489Y670457D01*
X1744823D01*
X1743490Y669125D01*
X1756819Y662460D02*
X1751487D01*
X1756819Y667792D01*
Y669125D01*
X1755486Y670457D01*
X1752820D01*
X1751487Y669125D01*
X1759485Y667792D02*
Y663793D01*
X1760818Y662460D01*
X1764816D01*
Y667792D01*
X1772814Y670457D02*
X1767482D01*
Y666459D01*
X1770148D01*
X1767482D01*
Y662460D01*
X1631650Y705988D02*
Y711320D01*
X1636982Y705988D01*
X1638315D01*
X1639647Y707321D01*
Y709987D01*
X1638315Y711320D01*
X1631650Y697991D02*
Y703323D01*
X1636982Y697991D01*
X1638315D01*
X1639647Y699324D01*
Y701990D01*
X1638315Y703323D01*
X1631650Y695325D02*
X1636982D01*
Y691327D01*
X1635649Y689994D01*
X1631650D01*
X1639647Y681996D02*
Y687328D01*
X1635649D01*
Y684662D01*
Y687328D01*
X1631650D01*
X1604650Y705988D02*
Y711320D01*
X1609982Y705988D01*
X1611315D01*
X1612647Y707321D01*
Y709987D01*
X1611315Y711320D01*
X1604650Y697991D02*
Y703323D01*
X1609982Y697991D01*
X1611315D01*
X1612647Y699324D01*
Y701990D01*
X1611315Y703323D01*
Y695325D02*
X1612647Y693992D01*
Y691326D01*
X1611315Y689994D01*
X1605983D01*
X1604650Y691326D01*
Y693992D01*
X1605983Y695325D01*
X1611315D01*
X1601984Y687328D02*
X1609982D01*
Y683329D01*
X1608649Y681996D01*
X1605983D01*
X1604650Y683329D01*
Y687328D01*
X1612647Y673999D02*
Y679330D01*
X1608649D01*
Y676665D01*
Y679330D01*
X1604650D01*
X1773680Y862650D02*
X1776346D01*
X1775013D01*
Y870647D01*
X1773680Y869314D01*
X1780345D02*
X1781677Y870647D01*
X1784343D01*
X1785676Y869314D01*
Y863983D01*
X1784343Y862650D01*
X1781677D01*
X1780345Y863983D01*
Y869314D01*
X1788342Y867982D02*
Y863983D01*
X1789675Y862650D01*
X1793674D01*
Y867982D01*
X1801671Y870647D02*
X1796339D01*
Y866649D01*
X1799005D01*
X1796339D01*
Y862650D01*
X1773680Y898315D02*
X1775013Y899647D01*
X1777679D01*
X1779012Y898315D01*
Y892983D01*
X1777679Y891650D01*
X1775013D01*
X1773680Y892983D01*
Y898315D01*
X1781677Y891650D02*
Y892983D01*
X1783010D01*
Y891650D01*
X1781677D01*
X1788342D02*
X1791008D01*
X1789675D01*
Y899647D01*
X1788342Y898315D01*
X1795007Y896982D02*
Y892983D01*
X1796339Y891650D01*
X1800338D01*
Y896982D01*
X1808336Y899647D02*
X1803004D01*
Y895649D01*
X1805670D01*
X1803004D01*
Y891650D01*
X1773680Y920650D02*
X1776346D01*
X1775013D01*
Y928647D01*
X1773680Y927315D01*
X1780345Y925982D02*
Y921983D01*
X1781677Y920650D01*
X1785676D01*
Y925982D01*
X1793674Y928647D02*
X1788342D01*
Y924649D01*
X1791008D01*
X1788342D01*
Y920650D01*
X1439686Y1092680D02*
X1438353Y1094013D01*
Y1096679D01*
X1439686Y1098012D01*
X1445017D01*
X1446350Y1096679D01*
Y1094013D01*
X1445017Y1092680D01*
X1439686D01*
X1446350Y1100677D02*
X1445017D01*
Y1102010D01*
X1446350D01*
Y1100677D01*
Y1107342D02*
Y1110008D01*
Y1108675D01*
X1438353D01*
X1439686Y1107342D01*
X1441018Y1114007D02*
X1445017D01*
X1446350Y1115339D01*
Y1119338D01*
X1441018D01*
X1438353Y1127336D02*
Y1122004D01*
X1442351D01*
Y1124670D01*
Y1122004D01*
X1446350D01*
X2683000Y1277997D02*
Y1270000D01*
X2688332D01*
X2696329Y1277997D02*
X2690997D01*
Y1270000D01*
X2696329D01*
X2690997Y1273999D02*
X2693663D01*
X2698995Y1277997D02*
Y1270000D01*
X2702993D01*
X2704326Y1271333D01*
Y1276665D01*
X2702993Y1277997D01*
X2698995D01*
X2706992Y1268667D02*
X2712324D01*
X2720321Y1276665D02*
X2718988Y1277997D01*
X2716323D01*
X2714990Y1276665D01*
Y1271333D01*
X2716323Y1270000D01*
X2718988D01*
X2720321Y1271333D01*
Y1273999D01*
X2717656D01*
X2722987Y1270000D02*
Y1277997D01*
X2726986D01*
X2728319Y1276665D01*
Y1273999D01*
X2726986Y1272666D01*
X2722987D01*
X2725653D02*
X2728319Y1270000D01*
X2736316Y1277997D02*
X2730984D01*
Y1270000D01*
X2736316D01*
X2730984Y1273999D02*
X2733650D01*
X2744313Y1277997D02*
X2738982D01*
Y1270000D01*
X2744313D01*
X2738982Y1273999D02*
X2741648D01*
X2746979Y1270000D02*
Y1277997D01*
X2752311Y1270000D01*
Y1277997D01*
X2683000Y1309997D02*
Y1302000D01*
X2688332D01*
X2696329Y1309997D02*
X2690997D01*
Y1302000D01*
X2696329D01*
X2690997Y1305999D02*
X2693663D01*
X2698995Y1309997D02*
Y1302000D01*
X2702993D01*
X2704326Y1303333D01*
Y1308665D01*
X2702993Y1309997D01*
X2698995D01*
X2706992Y1300667D02*
X2712324D01*
X2720321Y1308665D02*
X2718988Y1309997D01*
X2716323D01*
X2714990Y1308665D01*
Y1303333D01*
X2716323Y1302000D01*
X2718988D01*
X2720321Y1303333D01*
Y1305999D01*
X2717656D01*
X2722987Y1302000D02*
Y1309997D01*
X2726986D01*
X2728319Y1308665D01*
Y1305999D01*
X2726986Y1304666D01*
X2722987D01*
X2725653D02*
X2728319Y1302000D01*
X2736316Y1309997D02*
X2730984D01*
Y1302000D01*
X2736316D01*
X2730984Y1305999D02*
X2733650D01*
X2744313Y1309997D02*
X2738982D01*
Y1302000D01*
X2744313D01*
X2738982Y1305999D02*
X2741648D01*
X2746979Y1302000D02*
Y1309997D01*
X2752311Y1302000D01*
Y1309997D01*
X2684000Y1342997D02*
Y1335000D01*
X2689332D01*
X2697329Y1342997D02*
X2691997D01*
Y1335000D01*
X2697329D01*
X2691997Y1338999D02*
X2694663D01*
X2699995Y1342997D02*
Y1335000D01*
X2703994D01*
X2705327Y1336333D01*
Y1341664D01*
X2703994Y1342997D01*
X2699995D01*
X2707992Y1333667D02*
X2713324D01*
X2715990Y1335000D02*
Y1342997D01*
X2719988D01*
X2721321Y1341664D01*
Y1338999D01*
X2719988Y1337666D01*
X2715990D01*
X2718655D02*
X2721321Y1335000D01*
X2729319Y1342997D02*
X2723987D01*
Y1335000D01*
X2729319D01*
X2723987Y1338999D02*
X2726653D01*
X2731985Y1342997D02*
Y1335000D01*
X2735983D01*
X2737316Y1336333D01*
Y1341664D01*
X2735983Y1342997D01*
X2731985D01*
X2685000Y1372997D02*
Y1365000D01*
X2690332D01*
X2698329Y1372997D02*
X2692997D01*
Y1365000D01*
X2698329D01*
X2692997Y1368999D02*
X2695663D01*
X2700995Y1372997D02*
Y1365000D01*
X2704994D01*
X2706326Y1366333D01*
Y1371664D01*
X2704994Y1372997D01*
X2700995D01*
X2708992Y1363667D02*
X2714324D01*
X2716990Y1365000D02*
Y1372997D01*
X2720988D01*
X2722321Y1371664D01*
Y1368999D01*
X2720988Y1367666D01*
X2716990D01*
X2719655D02*
X2722321Y1365000D01*
X2730319Y1372997D02*
X2724987D01*
Y1365000D01*
X2730319D01*
X2724987Y1368999D02*
X2727653D01*
X2732985Y1372997D02*
Y1365000D01*
X2736983D01*
X2738316Y1366333D01*
Y1371664D01*
X2736983Y1372997D01*
X2732985D01*
X1736332Y752664D02*
X1734999Y753997D01*
X1732333D01*
X1731000Y752664D01*
Y751332D01*
X1732333Y749999D01*
X1734999D01*
X1736332Y748666D01*
Y747333D01*
X1734999Y746000D01*
X1732333D01*
X1731000Y747333D01*
X1738997Y753997D02*
X1744329D01*
X1741663D01*
Y746000D01*
X1746995D02*
Y753997D01*
X1750994D01*
X1752326Y752664D01*
Y749999D01*
X1750994Y748666D01*
X1746995D01*
X1760324Y752664D02*
X1758991Y753997D01*
X1756325D01*
X1754992Y752664D01*
Y751332D01*
X1756325Y749999D01*
X1758991D01*
X1760324Y748666D01*
Y747333D01*
X1758991Y746000D01*
X1756325D01*
X1754992Y747333D01*
X1762990Y752664D02*
X1764323Y753997D01*
X1766988D01*
X1768321Y752664D01*
Y751332D01*
X1766988Y749999D01*
X1765656D01*
X1766988D01*
X1768321Y748666D01*
Y747333D01*
X1766988Y746000D01*
X1764323D01*
X1762990Y747333D01*
X1774986Y746000D02*
Y753997D01*
X1770987Y749999D01*
X1776319D01*
X1778985Y752664D02*
X1780317Y753997D01*
X1782983D01*
X1784316Y752664D01*
Y747333D01*
X1782983Y746000D01*
X1780317D01*
X1778985Y747333D01*
Y752664D01*
X1786982Y753997D02*
Y747333D01*
X1788315Y746000D01*
X1790981D01*
X1792314Y747333D01*
Y753997D01*
X1698003Y935000D02*
X1706000D01*
Y940332D01*
X1698003Y948329D02*
Y942997D01*
X1706000D01*
Y948329D01*
X1702001Y942997D02*
Y945663D01*
X1698003Y950995D02*
X1706000D01*
Y954994D01*
X1704667Y956326D01*
X1699335D01*
X1698003Y954994D01*
Y950995D01*
X1707333Y958992D02*
Y964324D01*
X1699335Y972321D02*
X1698003Y970988D01*
Y968323D01*
X1699335Y966990D01*
X1704667D01*
X1706000Y968323D01*
Y970988D01*
X1704667Y972321D01*
X1702001D01*
Y969656D01*
X1706000Y974987D02*
X1698003D01*
Y978986D01*
X1699335Y980319D01*
X1702001D01*
X1703334Y978986D01*
Y974987D01*
Y977653D02*
X1706000Y980319D01*
X1698003Y988316D02*
Y982984D01*
X1706000D01*
Y988316D01*
X1702001Y982984D02*
Y985650D01*
X1698003Y996313D02*
Y990982D01*
X1706000D01*
Y996313D01*
X1702001Y990982D02*
Y993648D01*
X1706000Y998979D02*
X1698003D01*
X1706000Y1004311D01*
X1698003D01*
X1964003Y963000D02*
X1972000D01*
Y966999D01*
X1970667Y968332D01*
X1969334D01*
X1968001Y966999D01*
Y963000D01*
Y966999D01*
X1966668Y968332D01*
X1965336D01*
X1964003Y966999D01*
Y963000D01*
Y970997D02*
X1972000D01*
Y976329D01*
Y978995D02*
X1964003D01*
X1966668Y981661D01*
X1964003Y984326D01*
X1972000D01*
Y992324D02*
Y986992D01*
X1966668Y992324D01*
X1965336D01*
X1964003Y990991D01*
Y988325D01*
X1965336Y986992D01*
X1972000Y994990D02*
Y997655D01*
Y996323D01*
X1964003D01*
X1965336Y994990D01*
X1972000Y1001654D02*
X1964003D01*
Y1005653D01*
X1965336Y1006986D01*
X1968001D01*
X1969334Y1005653D01*
Y1001654D01*
Y1004320D02*
X1972000Y1006986D01*
X1964003Y1009652D02*
X1972000D01*
X1969334D01*
X1964003Y1014983D01*
X1968001Y1010984D01*
X1972000Y1014983D01*
Y1017649D02*
Y1020315D01*
Y1018982D01*
X1964003D01*
X1965336Y1017649D01*
Y1024314D02*
X1964003Y1025647D01*
Y1028312D01*
X1965336Y1029645D01*
X1970667D01*
X1972000Y1028312D01*
Y1025647D01*
X1970667Y1024314D01*
X1965336D01*
X1972000Y1037643D02*
Y1032311D01*
X1966668Y1037643D01*
X1965336D01*
X1964003Y1036310D01*
Y1033644D01*
X1965336Y1032311D01*
Y1045640D02*
X1964003Y1044307D01*
Y1041641D01*
X1965336Y1040308D01*
X1966668D01*
X1968001Y1041641D01*
Y1044307D01*
X1969334Y1045640D01*
X1970667D01*
X1972000Y1044307D01*
Y1041641D01*
X1970667Y1040308D01*
X1972000Y1048306D02*
X1964003D01*
X1972000Y1053637D01*
X1964003D01*
X1972000Y1056303D02*
Y1058969D01*
Y1057636D01*
X1964003D01*
X1965336Y1056303D01*
X1964003Y1062968D02*
X1972000D01*
Y1066966D01*
X1970667Y1068299D01*
X1965336D01*
X1964003Y1066966D01*
Y1062968D01*
X1662332Y845665D02*
X1660999Y846997D01*
X1658333D01*
X1657000Y845665D01*
Y840333D01*
X1658333Y839000D01*
X1660999D01*
X1662332Y840333D01*
X1664997Y846997D02*
Y839000D01*
X1668996D01*
X1670329Y840333D01*
Y845665D01*
X1668996Y846997D01*
X1664997D01*
X1672995Y839000D02*
Y846997D01*
X1676994D01*
X1678326Y845665D01*
Y842999D01*
X1676994Y841666D01*
X1672995D01*
X1675661D02*
X1678326Y839000D01*
X1680992Y846997D02*
Y839000D01*
Y842999D01*
X1686324D01*
Y846997D01*
Y839000D01*
X1688990D02*
X1691655D01*
X1690323D01*
Y846997D01*
X1688990Y845665D01*
X1700986Y839000D02*
X1695654D01*
X1700986Y844332D01*
Y845665D01*
X1699653Y846997D01*
X1696987D01*
X1695654Y845665D01*
X1708983Y846997D02*
X1703652D01*
Y842999D01*
X1706317Y844332D01*
X1707650D01*
X1708983Y842999D01*
Y840333D01*
X1707650Y839000D01*
X1704984D01*
X1703652Y840333D01*
X1711649Y839000D02*
Y846997D01*
X1716981Y839000D01*
Y846997D01*
X1719646Y839000D02*
Y846997D01*
X1723645D01*
X1724978Y845665D01*
Y842999D01*
X1723645Y841666D01*
X1719646D01*
X1727644Y842999D02*
X1732975D01*
X1735641Y839000D02*
X1738307D01*
X1736974D01*
Y846997D01*
X1735641Y845665D01*
X1747637Y846997D02*
X1742306D01*
Y842999D01*
X1744972Y844332D01*
X1746304D01*
X1747637Y842999D01*
Y840333D01*
X1746304Y839000D01*
X1743639D01*
X1742306Y840333D01*
X1750303Y845665D02*
X1751636Y846997D01*
X1754302D01*
X1755635Y845665D01*
Y840333D01*
X1754302Y839000D01*
X1751636D01*
X1750303Y840333D01*
Y845665D01*
X1758301Y839000D02*
Y846997D01*
X1760966Y844332D01*
X1763632Y846997D01*
Y839000D01*
X1771630Y845665D02*
X1770297Y846997D01*
X1767631D01*
X1766298Y845665D01*
Y840333D01*
X1767631Y839000D01*
X1770297D01*
X1771630Y840333D01*
X1534000Y1049665D02*
X1535333Y1050997D01*
X1537999D01*
X1539332Y1049665D01*
Y1044333D01*
X1537999Y1043000D01*
X1535333D01*
X1534000Y1044333D01*
Y1049665D01*
X1555327D02*
X1553994Y1050997D01*
X1551328D01*
X1549995Y1049665D01*
Y1044333D01*
X1551328Y1043000D01*
X1553994D01*
X1555327Y1044333D01*
X1557992Y1043000D02*
Y1050997D01*
X1560658Y1048332D01*
X1563324Y1050997D01*
Y1043000D01*
X1569988D02*
X1567323D01*
X1565990Y1044333D01*
Y1046999D01*
X1567323Y1048332D01*
X1569988D01*
X1571321Y1046999D01*
Y1045666D01*
X1565990D01*
X1575320Y1048332D02*
X1577986D01*
X1579319Y1046999D01*
Y1043000D01*
X1575320D01*
X1573987Y1044333D01*
X1575320Y1045666D01*
X1579319D01*
X1581985Y1043000D02*
X1585983D01*
X1587316Y1044333D01*
X1585983Y1045666D01*
X1583317D01*
X1581985Y1046999D01*
X1583317Y1048332D01*
X1587316D01*
X1589982D02*
Y1044333D01*
X1591315Y1043000D01*
X1595314D01*
Y1048332D01*
X1597979D02*
Y1043000D01*
Y1045666D01*
X1599312Y1046999D01*
X1600645Y1048332D01*
X1601978D01*
X1609975Y1043000D02*
X1607310D01*
X1605977Y1044333D01*
Y1046999D01*
X1607310Y1048332D01*
X1609975D01*
X1611308Y1046999D01*
Y1045666D01*
X1605977D01*
X2092012Y766917D02*
X2086680D01*
Y762919D01*
X2089346Y764252D01*
X2090679D01*
X2092012Y762919D01*
Y760253D01*
X2090679Y758920D01*
X2088013D01*
X2086680Y760253D01*
X2094677Y758920D02*
X2097343D01*
X2096010D01*
Y766917D01*
X2094677Y765584D01*
X2101342D02*
X2102675Y766917D01*
X2105341D01*
X2106674Y765584D01*
Y760253D01*
X2105341Y758920D01*
X2102675D01*
X2101342Y760253D01*
Y765584D01*
X1535000Y1084665D02*
X1536333Y1085997D01*
X1538999D01*
X1540332Y1084665D01*
Y1079333D01*
X1538999Y1078000D01*
X1536333D01*
X1535000Y1079333D01*
Y1084665D01*
X1556326D02*
X1554994Y1085997D01*
X1552328D01*
X1550995Y1084665D01*
Y1079333D01*
X1552328Y1078000D01*
X1554994D01*
X1556326Y1079333D01*
X1558992Y1078000D02*
Y1085997D01*
X1561658Y1083332D01*
X1564324Y1085997D01*
Y1078000D01*
X1570988D02*
X1568323D01*
X1566990Y1079333D01*
Y1081999D01*
X1568323Y1083332D01*
X1570988D01*
X1572321Y1081999D01*
Y1080666D01*
X1566990D01*
X1576320Y1083332D02*
X1578986D01*
X1580319Y1081999D01*
Y1078000D01*
X1576320D01*
X1574987Y1079333D01*
X1576320Y1080666D01*
X1580319D01*
X1582984Y1078000D02*
X1586983D01*
X1588316Y1079333D01*
X1586983Y1080666D01*
X1584317D01*
X1582984Y1081999D01*
X1584317Y1083332D01*
X1588316D01*
X1590982D02*
Y1079333D01*
X1592315Y1078000D01*
X1596313D01*
Y1083332D01*
X1598979D02*
Y1078000D01*
Y1080666D01*
X1600312Y1081999D01*
X1601645Y1083332D01*
X1602978D01*
X1610975Y1078000D02*
X1608310D01*
X1606977Y1079333D01*
Y1081999D01*
X1608310Y1083332D01*
X1610975D01*
X1612308Y1081999D01*
Y1080666D01*
X1606977D01*
X2454080Y1172680D02*
Y1175346D01*
Y1174013D01*
X2446083D01*
X2447415Y1172680D01*
X2446083Y1179344D02*
X2454080D01*
X2451414D01*
X2446083Y1184676D01*
X2450081Y1180677D01*
X2454080Y1184676D01*
X1953320Y1068915D02*
X1951987Y1067582D01*
X1949321D01*
X1947988Y1068915D01*
Y1074247D01*
X1949321Y1075580D01*
X1951987D01*
X1953320Y1074247D01*
Y1068915D01*
Y1043416D02*
X1951987Y1042083D01*
X1949321D01*
X1947988Y1043416D01*
Y1044748D01*
X1949321Y1046081D01*
X1950654D01*
X1949321D01*
X1947988Y1047414D01*
Y1048747D01*
X1949321Y1050080D01*
X1951987D01*
X1953320Y1048747D01*
X1945323Y1043416D02*
X1943990Y1042083D01*
X1941324D01*
X1939991Y1043416D01*
Y1044748D01*
X1941324Y1046081D01*
X1942657D01*
X1941324D01*
X1939991Y1047414D01*
Y1048747D01*
X1941324Y1050080D01*
X1943990D01*
X1945323Y1048747D01*
X1991920Y1247321D02*
X1999917D01*
X1995919Y1251320D01*
Y1245988D01*
X1991920Y1243323D02*
X1993253D01*
Y1241990D01*
X1991920D01*
Y1243323D01*
X1999917Y1236658D02*
Y1231326D01*
X1998584D01*
X1993253Y1236658D01*
X1991920D01*
X1999917Y1228661D02*
X1991920D01*
X1994586D01*
X1999917Y1223329D01*
X1995919Y1227328D01*
X1991920Y1223329D01*
X2456080Y1267680D02*
Y1270346D01*
Y1269013D01*
X2448083D01*
X2449415Y1267680D01*
X2448083Y1274344D02*
X2456080D01*
X2453414D01*
X2448083Y1279676D01*
X2452081Y1275677D01*
X2456080Y1279676D01*
X2159680Y795920D02*
X2162346D01*
X2161013D01*
Y803917D01*
X2159680Y802585D01*
X2166344D02*
X2167677Y803917D01*
X2170343D01*
X2171676Y802585D01*
Y797253D01*
X2170343Y795920D01*
X2167677D01*
X2166344Y797253D01*
Y802585D01*
X2174342Y803917D02*
Y795920D01*
Y798586D01*
X2179673Y803917D01*
X2175675Y799919D01*
X2179673Y795920D01*
X2456080Y1357680D02*
Y1360346D01*
Y1359013D01*
X2448083D01*
X2449415Y1357680D01*
X2448083Y1364344D02*
X2456080D01*
X2453414D01*
X2448083Y1369676D01*
X2452081Y1365677D01*
X2456080Y1369676D01*
X2632680Y1268920D02*
X2635346D01*
X2634013D01*
Y1276917D01*
X2632680Y1275584D01*
X2639344Y1276917D02*
Y1268920D01*
Y1271586D01*
X2644676Y1276917D01*
X2640677Y1272919D01*
X2644676Y1268920D01*
X2632680Y1301920D02*
X2635346D01*
X2634013D01*
Y1309917D01*
X2632680Y1308584D01*
X2639344Y1309917D02*
Y1301920D01*
Y1304586D01*
X2644676Y1309917D01*
X2640677Y1305919D01*
X2644676Y1301920D01*
X2633680Y1333920D02*
X2636346D01*
X2635013D01*
Y1341917D01*
X2633680Y1340585D01*
X2640345Y1341917D02*
Y1333920D01*
Y1336586D01*
X2645676Y1341917D01*
X2641678Y1337919D01*
X2645676Y1333920D01*
X1974080Y1005680D02*
Y1008346D01*
Y1007013D01*
X1966083D01*
X1967415Y1005680D01*
Y1012345D02*
X1966083Y1013677D01*
Y1016343D01*
X1967415Y1017676D01*
X1972747D01*
X1974080Y1016343D01*
Y1013677D01*
X1972747Y1012345D01*
X1967415D01*
X1974080Y1020342D02*
X1966083D01*
Y1024341D01*
X1967415Y1025674D01*
X1970081D01*
X1971414Y1024341D01*
Y1020342D01*
Y1023008D02*
X1974080Y1025674D01*
X2634680Y1365920D02*
X2637346D01*
X2636013D01*
Y1373917D01*
X2634680Y1372585D01*
X2641345Y1373917D02*
Y1365920D01*
Y1368586D01*
X2646676Y1373917D01*
X2642677Y1369919D01*
X2646676Y1365920D01*
X2101083Y957012D02*
Y951680D01*
X2105081D01*
X2103748Y954346D01*
Y955679D01*
X2105081Y957012D01*
X2107747D01*
X2109080Y955679D01*
Y953013D01*
X2107747Y951680D01*
X2109080Y959677D02*
Y962343D01*
Y961010D01*
X2101083D01*
X2102415Y959677D01*
Y966342D02*
X2101083Y967675D01*
Y970341D01*
X2102415Y971674D01*
X2107747D01*
X2109080Y970341D01*
Y967675D01*
X2107747Y966342D01*
X2102415D01*
X1761680Y977920D02*
X1764346D01*
X1763013D01*
Y985917D01*
X1761680Y984585D01*
X1768345Y985917D02*
Y977920D01*
Y980586D01*
X1773676Y985917D01*
X1769677Y981919D01*
X1773676Y977920D01*
X1529080Y1272680D02*
Y1275346D01*
Y1274013D01*
X1521083D01*
X1522415Y1272680D01*
X1521083Y1279344D02*
X1529080D01*
X1526414D01*
X1521083Y1284676D01*
X1525081Y1280677D01*
X1529080Y1284676D01*
X1470680Y1313920D02*
X1473346D01*
X1472013D01*
Y1321917D01*
X1470680Y1320585D01*
X1477345Y1321917D02*
Y1313920D01*
Y1316586D01*
X1482676Y1321917D01*
X1478677Y1317919D01*
X1482676Y1313920D01*
X1685920Y1045320D02*
Y1042654D01*
Y1043987D01*
X1693917D01*
X1692584Y1045320D01*
X1693917Y1038655D02*
X1685920D01*
X1688586D01*
X1693917Y1033324D01*
X1689919Y1037323D01*
X1685920Y1033324D01*
X1659920Y1045320D02*
Y1042654D01*
Y1043987D01*
X1667917D01*
X1666584Y1045320D01*
X1667917Y1038655D02*
X1659920D01*
X1662586D01*
X1667917Y1033324D01*
X1663919Y1037322D01*
X1659920Y1033324D01*
X1648920Y1191320D02*
Y1188654D01*
Y1189987D01*
X1656917D01*
X1655585Y1191320D01*
X1656917Y1184656D02*
X1648920D01*
X1651586D01*
X1656917Y1179324D01*
X1652919Y1183323D01*
X1648920Y1179324D01*
X1711920Y1045320D02*
Y1042654D01*
Y1043987D01*
X1719917D01*
X1718584Y1045320D01*
X1719917Y1038655D02*
X1711920D01*
X1714586D01*
X1719917Y1033324D01*
X1715919Y1037323D01*
X1711920Y1033324D01*
X1734920Y1045320D02*
Y1042654D01*
Y1043987D01*
X1742917D01*
X1741584Y1045320D01*
X1742917Y1038655D02*
X1734920D01*
X1737586D01*
X1742917Y1033324D01*
X1738919Y1037323D01*
X1734920Y1033324D01*
X1490080Y1198680D02*
Y1201346D01*
Y1200013D01*
X1482083D01*
X1483415Y1198680D01*
X1482083Y1205344D02*
X1490080D01*
X1487414D01*
X1482083Y1210676D01*
X1486081Y1206677D01*
X1490080Y1210676D01*
X1468080Y1198680D02*
Y1201346D01*
Y1200013D01*
X1460083D01*
X1461415Y1198680D01*
X1460083Y1205344D02*
X1468080D01*
X1465414D01*
X1460083Y1210676D01*
X1464081Y1206677D01*
X1468080Y1210676D01*
X1616080Y723680D02*
Y726346D01*
Y725013D01*
X1608083D01*
X1609415Y723680D01*
Y730344D02*
X1608083Y731677D01*
Y734343D01*
X1609415Y735676D01*
X1610748D01*
X1612081Y734343D01*
X1613414Y735676D01*
X1614747D01*
X1616080Y734343D01*
Y731677D01*
X1614747Y730344D01*
X1613414D01*
X1612081Y731677D01*
X1610748Y730344D01*
X1609415D01*
X1612081Y731677D02*
Y734343D01*
X1608083Y738342D02*
X1616080D01*
X1613414D01*
X1608083Y743673D01*
X1612081Y739675D01*
X1616080Y743673D01*
X1631920Y760321D02*
X1639917D01*
X1635919Y764320D01*
Y758988D01*
X1631920Y752324D02*
X1639917D01*
X1635919Y756323D01*
Y750991D01*
X1631920Y748325D02*
X1633253D01*
Y746992D01*
X1631920D01*
Y748325D01*
Y736329D02*
Y741661D01*
X1637252Y736329D01*
X1638584D01*
X1639917Y737662D01*
Y740328D01*
X1638584Y741661D01*
X1639917Y733663D02*
X1631920D01*
X1634586D01*
X1639917Y728332D01*
X1635919Y732330D01*
X1631920Y728332D01*
X1660679Y670920D02*
Y678917D01*
X1656680Y674919D01*
X1662012D01*
X1664677Y670920D02*
Y672253D01*
X1666010D01*
Y670920D01*
X1664677D01*
X1671342Y678917D02*
X1676674D01*
Y677585D01*
X1671342Y672253D01*
Y670920D01*
X1679339Y678917D02*
Y670920D01*
Y673586D01*
X1684671Y678917D01*
X1680672Y674919D01*
X1684671Y670920D01*
X2438332Y859665D02*
X2436999Y860997D01*
X2434333D01*
X2433000Y859665D01*
Y858332D01*
X2434333Y856999D01*
X2436999D01*
X2438332Y855666D01*
Y854333D01*
X2436999Y853000D01*
X2434333D01*
X2433000Y854333D01*
X2440997Y860997D02*
Y853000D01*
X2446329D01*
X2448995Y859665D02*
X2450328Y860997D01*
X2452993D01*
X2454326Y859665D01*
Y858332D01*
X2452993Y856999D01*
X2454326Y855666D01*
Y854333D01*
X2452993Y853000D01*
X2450328D01*
X2448995Y854333D01*
Y855666D01*
X2450328Y856999D01*
X2448995Y858332D01*
Y859665D01*
X2450328Y856999D02*
X2452993D01*
X2462324Y860997D02*
X2459658Y859665D01*
X2456992Y856999D01*
Y854333D01*
X2458325Y853000D01*
X2460991D01*
X2462324Y854333D01*
Y855666D01*
X2460991Y856999D01*
X2456992D01*
X2464990Y854333D02*
X2466323Y853000D01*
X2468988D01*
X2470321Y854333D01*
Y859665D01*
X2468988Y860997D01*
X2466323D01*
X2464990Y859665D01*
Y858332D01*
X2466323Y856999D01*
X2470321D01*
X2472987Y860997D02*
Y855666D01*
X2475653Y853000D01*
X2478319Y855666D01*
Y860997D01*
X2486316Y853000D02*
X2480984D01*
X2486316Y858332D01*
Y859665D01*
X2484983Y860997D01*
X2482317D01*
X2480984Y859665D01*
X1470000Y1291997D02*
Y1284000D01*
X1473999D01*
X1475332Y1285333D01*
Y1286666D01*
X1473999Y1287999D01*
X1470000D01*
X1473999D01*
X1475332Y1289332D01*
Y1290665D01*
X1473999Y1291997D01*
X1470000D01*
X1483329Y1290665D02*
X1481996Y1291997D01*
X1479330D01*
X1477997Y1290665D01*
Y1285333D01*
X1479330Y1284000D01*
X1481996D01*
X1483329Y1285333D01*
X1485995Y1290665D02*
X1487328Y1291997D01*
X1489994D01*
X1491326Y1290665D01*
Y1289332D01*
X1489994Y1287999D01*
X1491326Y1286666D01*
Y1285333D01*
X1489994Y1284000D01*
X1487328D01*
X1485995Y1285333D01*
Y1286666D01*
X1487328Y1287999D01*
X1485995Y1289332D01*
Y1290665D01*
X1487328Y1287999D02*
X1489994D01*
X1493992Y1284000D02*
X1496658D01*
X1495325D01*
Y1291997D01*
X1493992Y1290665D01*
X1500657Y1291997D02*
X1505988D01*
Y1290665D01*
X1500657Y1285333D01*
Y1284000D01*
X1674332Y1336664D02*
X1672999Y1337997D01*
X1670333D01*
X1669000Y1336664D01*
Y1331333D01*
X1670333Y1330000D01*
X1672999D01*
X1674332Y1331333D01*
Y1333999D01*
X1671666D01*
X1676997Y1337997D02*
Y1330000D01*
X1682329D01*
X1684995Y1336664D02*
X1686328Y1337997D01*
X1688994D01*
X1690326Y1336664D01*
Y1335332D01*
X1688994Y1333999D01*
X1690326Y1332666D01*
Y1331333D01*
X1688994Y1330000D01*
X1686328D01*
X1684995Y1331333D01*
Y1332666D01*
X1686328Y1333999D01*
X1684995Y1335332D01*
Y1336664D01*
X1686328Y1333999D02*
X1688994D01*
X1698324Y1337997D02*
X1695658Y1336664D01*
X1692992Y1333999D01*
Y1331333D01*
X1694325Y1330000D01*
X1696991D01*
X1698324Y1331333D01*
Y1332666D01*
X1696991Y1333999D01*
X1692992D01*
X1706321Y1337997D02*
X1700990D01*
Y1333999D01*
X1703656Y1335332D01*
X1704988D01*
X1706321Y1333999D01*
Y1331333D01*
X1704988Y1330000D01*
X1702323D01*
X1700990Y1331333D01*
X1708987Y1333999D02*
X1714319D01*
X1716985Y1337997D02*
Y1330000D01*
X1720983D01*
X1722316Y1331333D01*
Y1336664D01*
X1720983Y1337997D01*
X1716985D01*
X1724982D02*
Y1331333D01*
X1726315Y1330000D01*
X1728981D01*
X1730314Y1331333D01*
Y1337997D01*
X1732979Y1330000D02*
Y1335332D01*
X1735645Y1337997D01*
X1738311Y1335332D01*
Y1330000D01*
Y1333999D01*
X1732979D01*
X1740977Y1337997D02*
Y1330000D01*
X1746308D01*
X1688997Y762000D02*
X1681000D01*
Y756668D01*
X1688997Y748671D02*
Y754003D01*
X1684999D01*
X1686332Y751337D01*
Y750004D01*
X1684999Y748671D01*
X1682333D01*
X1681000Y750004D01*
Y752670D01*
X1682333Y754003D01*
Y746005D02*
X1681000Y744672D01*
Y742006D01*
X1682333Y740674D01*
X1687664D01*
X1688997Y742006D01*
Y744672D01*
X1687664Y746005D01*
X1686332D01*
X1684999Y744672D01*
Y740674D01*
X1688997Y738008D02*
Y732676D01*
X1687664D01*
X1682333Y738008D01*
X1681000D01*
X1687664Y730010D02*
X1688997Y728677D01*
Y726012D01*
X1687664Y724679D01*
X1686332D01*
X1684999Y726012D01*
Y727345D01*
Y726012D01*
X1683666Y724679D01*
X1682333D01*
X1681000Y726012D01*
Y728677D01*
X1682333Y730010D01*
X1688997Y722013D02*
X1681000D01*
Y718014D01*
X1682333Y716681D01*
X1687664D01*
X1688997Y718014D01*
Y722013D01*
X1687664Y714016D02*
X1688997Y712683D01*
Y710017D01*
X1687664Y708684D01*
X1682333D01*
X1681000Y710017D01*
Y712683D01*
X1682333Y714016D01*
X1687664D01*
X1681000Y706018D02*
Y703352D01*
Y704685D01*
X1688997D01*
X1687664Y706018D01*
Y699353D02*
X1688997Y698021D01*
Y695355D01*
X1687664Y694022D01*
X1686332D01*
X1684999Y695355D01*
Y696688D01*
Y695355D01*
X1683666Y694022D01*
X1682333D01*
X1681000Y695355D01*
Y698021D01*
X1682333Y699353D01*
X1688997Y691356D02*
Y686024D01*
Y688690D01*
X1681000D01*
Y683359D02*
X1688997D01*
Y679360D01*
X1687664Y678027D01*
X1684999D01*
X1683666Y679360D01*
Y683359D01*
Y680693D02*
X1681000Y678027D01*
X1716000Y938997D02*
X1721332D01*
X1718666D01*
Y931000D01*
X1723997Y938997D02*
Y931000D01*
X1729329D01*
X1731995Y938997D02*
Y933666D01*
X1734661Y931000D01*
X1737326Y933666D01*
Y938997D01*
X1739992D02*
X1745324D01*
Y937664D01*
X1739992Y932333D01*
Y931000D01*
X1747990Y937664D02*
X1749323Y938997D01*
X1751988D01*
X1753321Y937664D01*
Y932333D01*
X1751988Y931000D01*
X1749323D01*
X1747990Y932333D01*
Y937664D01*
X1761319Y931000D02*
X1755987D01*
X1761319Y936332D01*
Y937664D01*
X1759986Y938997D01*
X1757320D01*
X1755987Y937664D01*
X1763985D02*
X1765317Y938997D01*
X1767983D01*
X1769316Y937664D01*
Y936332D01*
X1767983Y934999D01*
X1766650D01*
X1767983D01*
X1769316Y933666D01*
Y932333D01*
X1767983Y931000D01*
X1765317D01*
X1763985Y932333D01*
X1771982Y937664D02*
X1773315Y938997D01*
X1775981D01*
X1777314Y937664D01*
Y936332D01*
X1775981Y934999D01*
X1774648D01*
X1775981D01*
X1777314Y933666D01*
Y932333D01*
X1775981Y931000D01*
X1773315D01*
X1771982Y932333D01*
X1779979Y938997D02*
Y931000D01*
X1783978D01*
X1785311Y932333D01*
Y937664D01*
X1783978Y938997D01*
X1779979D01*
X1787977D02*
Y931000D01*
X1791976D01*
X1793308Y932333D01*
Y933666D01*
X1791976Y934999D01*
X1787977D01*
X1791976D01*
X1793308Y936332D01*
Y937664D01*
X1791976Y938997D01*
X1787977D01*
X1795974D02*
Y933666D01*
X1798640Y931000D01*
X1801306Y933666D01*
Y938997D01*
X1803972D02*
X1809303D01*
X1806637D01*
Y931000D01*
X1738332Y1557664D02*
X1736999Y1558997D01*
X1734333D01*
X1733000Y1557664D01*
Y1556332D01*
X1734333Y1554999D01*
X1736999D01*
X1738332Y1553666D01*
Y1552333D01*
X1736999Y1551000D01*
X1734333D01*
X1733000Y1552333D01*
X1740997Y1551000D02*
Y1558997D01*
X1743663Y1556332D01*
X1746329Y1558997D01*
Y1551000D01*
X1748995D02*
Y1556332D01*
X1751661Y1558997D01*
X1754326Y1556332D01*
Y1551000D01*
Y1554999D01*
X1748995D01*
X1762324Y1558997D02*
X1759658Y1557664D01*
X1756992Y1554999D01*
Y1552333D01*
X1758325Y1551000D01*
X1760991D01*
X1762324Y1552333D01*
Y1553666D01*
X1760991Y1554999D01*
X1756992D01*
X1770321Y1551000D02*
X1764990D01*
X1770321Y1556332D01*
Y1557664D01*
X1768988Y1558997D01*
X1766323D01*
X1764990Y1557664D01*
X1778319Y1558997D02*
X1772987D01*
Y1554999D01*
X1775653Y1556332D01*
X1776986D01*
X1778319Y1554999D01*
Y1552333D01*
X1776986Y1551000D01*
X1774320D01*
X1772987Y1552333D01*
X1786316Y1551000D02*
X1780984D01*
X1786316Y1556332D01*
Y1557664D01*
X1784983Y1558997D01*
X1782317D01*
X1780984Y1557664D01*
X1788982Y1551000D02*
Y1556332D01*
X1791648Y1558997D01*
X1794314Y1556332D01*
Y1551000D01*
Y1554999D01*
X1788982D01*
X1802311Y1551000D02*
X1796979D01*
X1802311Y1556332D01*
Y1557664D01*
X1800978Y1558997D01*
X1798312D01*
X1796979Y1557664D01*
X1804977Y1554999D02*
X1810308D01*
X1812974Y1557664D02*
X1814307Y1558997D01*
X1816973D01*
X1818306Y1557664D01*
Y1556332D01*
X1816973Y1554999D01*
X1815640D01*
X1816973D01*
X1818306Y1553666D01*
Y1552333D01*
X1816973Y1551000D01*
X1814307D01*
X1812974Y1552333D01*
X1826303Y1557664D02*
X1824970Y1558997D01*
X1822305D01*
X1820972Y1557664D01*
Y1552333D01*
X1822305Y1551000D01*
X1824970D01*
X1826303Y1552333D01*
Y1554999D01*
X1823637D01*
X1828969Y1558997D02*
X1834301D01*
X1831635D01*
Y1551000D01*
X1842298Y1558997D02*
X1836966D01*
Y1554999D01*
X1839632Y1556332D01*
X1840965D01*
X1842298Y1554999D01*
Y1552333D01*
X1840965Y1551000D01*
X1838299D01*
X1836966Y1552333D01*
X1844964Y1557664D02*
X1846297Y1558997D01*
X1848963D01*
X1850296Y1557664D01*
Y1552333D01*
X1848963Y1551000D01*
X1846297D01*
X1844964Y1552333D01*
Y1557664D01*
X1858293D02*
X1856960Y1558997D01*
X1854294D01*
X1852961Y1557664D01*
Y1552333D01*
X1854294Y1551000D01*
X1856960D01*
X1858293Y1552333D01*
Y1554999D01*
X1855627D01*
X1860959D02*
X1866290D01*
X1874288Y1558997D02*
X1868956D01*
Y1554999D01*
X1871622Y1556332D01*
X1872955D01*
X1874288Y1554999D01*
Y1552333D01*
X1872955Y1551000D01*
X1870289D01*
X1868956Y1552333D01*
X1876953Y1557664D02*
X1878286Y1558997D01*
X1880952D01*
X1882285Y1557664D01*
Y1552333D01*
X1880952Y1551000D01*
X1878286D01*
X1876953Y1552333D01*
Y1557664D01*
X1936000Y1495000D02*
X1938666D01*
X1937333D01*
Y1502997D01*
X1936000Y1501664D01*
X1942664Y1495000D02*
X1945330D01*
X1943997D01*
Y1502997D01*
X1942664Y1501664D01*
X1954661Y1502997D02*
X1949329D01*
Y1498999D01*
X1951995Y1500332D01*
X1953328D01*
X1954661Y1498999D01*
Y1496333D01*
X1953328Y1495000D01*
X1950662D01*
X1949329Y1496333D01*
X1957327Y1502997D02*
X1959992D01*
X1958659D01*
Y1495000D01*
X1957327D01*
X1959992D01*
X1963991Y1498999D02*
X1969323D01*
X1971988Y1495000D02*
Y1500332D01*
X1974654Y1502997D01*
X1977320Y1500332D01*
Y1495000D01*
Y1498999D01*
X1971988D01*
X1985317Y1502997D02*
X1979986D01*
Y1495000D01*
X1985317D01*
X1979986Y1498999D02*
X1982652D01*
X1987983Y1495000D02*
Y1500332D01*
X1990649Y1502997D01*
X1993315Y1500332D01*
Y1495000D01*
Y1498999D01*
X1987983D01*
X1995981Y1495000D02*
Y1500332D01*
X1998647Y1502997D01*
X2001312Y1500332D01*
Y1495000D01*
Y1498999D01*
X1995981D01*
X1468500Y814000D02*
X1476497D01*
Y810001D01*
X1475164Y808668D01*
X1472499D01*
X1471166Y810001D01*
Y814000D01*
X1476497Y802004D02*
Y804670D01*
X1475164Y806003D01*
X1469833D01*
X1468500Y804670D01*
Y802004D01*
X1469833Y800671D01*
X1475164D01*
X1476497Y802004D01*
Y798005D02*
X1468500D01*
X1471166Y795339D01*
X1468500Y792673D01*
X1476497D01*
Y784676D02*
Y790008D01*
X1468500D01*
Y784676D01*
X1472499Y790008D02*
Y787342D01*
X1468500Y782010D02*
X1476497D01*
Y778012D01*
X1475164Y776679D01*
X1472499D01*
X1471166Y778012D01*
Y782010D01*
Y779344D02*
X1468500Y776679D01*
X1467167Y774013D02*
Y768681D01*
X1476497Y766015D02*
Y760684D01*
Y763350D01*
X1468500D01*
X1476497Y752686D02*
Y758018D01*
X1468500D01*
Y752686D01*
X1472499Y758018D02*
Y755352D01*
X1468500Y750021D02*
X1476497D01*
Y746022D01*
X1475164Y744689D01*
X1472499D01*
X1471166Y746022D01*
Y750021D01*
Y747355D02*
X1468500Y744689D01*
Y742023D02*
X1476497D01*
X1473832Y739357D01*
X1476497Y736692D01*
X1468500D01*
X1444500Y925000D02*
Y922334D01*
Y923667D01*
X1452497D01*
X1451165Y925000D01*
X1452497Y913004D02*
X1451165Y915670D01*
X1448499Y918335D01*
X1445833D01*
X1444500Y917003D01*
Y914337D01*
X1445833Y913004D01*
X1447166D01*
X1448499Y914337D01*
Y918335D01*
X1444500Y910338D02*
X1452497D01*
X1449832Y907672D01*
X1452497Y905006D01*
X1444500D01*
Y897009D02*
Y902341D01*
X1449832Y897009D01*
X1451165D01*
X1452497Y898342D01*
Y901008D01*
X1451165Y902341D01*
X1452497Y894343D02*
Y889012D01*
X1451165D01*
X1445833Y894343D01*
X1444500D01*
X1452497Y881014D02*
X1451165Y883680D01*
X1448499Y886346D01*
X1445833D01*
X1444500Y885013D01*
Y882347D01*
X1445833Y881014D01*
X1447166D01*
X1448499Y882347D01*
Y886346D01*
X1444500Y874350D02*
X1452497D01*
X1448499Y878348D01*
Y873017D01*
X1721680Y709314D02*
X1723013Y710647D01*
X1725679D01*
X1727012Y709314D01*
Y703983D01*
X1725679Y702650D01*
X1723013D01*
X1721680Y703983D01*
Y709314D01*
X1729677Y702650D02*
Y703983D01*
X1731010D01*
Y702650D01*
X1729677D01*
X1736342D02*
X1739008D01*
X1737675D01*
Y710647D01*
X1736342Y709314D01*
X1743006Y707982D02*
Y703983D01*
X1744339Y702650D01*
X1748338D01*
Y707982D01*
X1756335Y710647D02*
X1751004D01*
Y706649D01*
X1753670D01*
X1751004D01*
Y702650D01*
X1848315Y1597320D02*
X1849647Y1595987D01*
Y1593321D01*
X1848315Y1591988D01*
X1842983D01*
X1841650Y1593321D01*
Y1595987D01*
X1842983Y1597320D01*
X1848315D01*
X1841650Y1589323D02*
X1842983D01*
Y1587990D01*
X1841650D01*
Y1589323D01*
Y1582658D02*
Y1579992D01*
Y1581325D01*
X1849647D01*
X1848315Y1582658D01*
X1846982Y1575993D02*
X1842983D01*
X1841650Y1574661D01*
Y1570662D01*
X1846982D01*
X1849647Y1562664D02*
Y1567996D01*
X1845649D01*
Y1565330D01*
Y1567996D01*
X1841650D01*
X2033679Y757920D02*
Y765917D01*
X2029680Y761919D01*
X2035012D01*
X2037677Y757920D02*
Y759253D01*
X2039010D01*
Y757920D01*
X2037677D01*
X2044342Y765917D02*
X2049673D01*
Y764585D01*
X2044342Y759253D01*
Y757920D01*
X2052339Y765917D02*
Y757920D01*
Y760586D01*
X2057671Y765917D01*
X2053672Y761919D01*
X2057671Y757920D01*
X1508685Y1559680D02*
X1507353Y1561013D01*
Y1563679D01*
X1508685Y1565012D01*
X1514017D01*
X1515350Y1563679D01*
Y1561013D01*
X1514017Y1559680D01*
X1508685D01*
X1515350Y1567677D02*
X1514017D01*
Y1569010D01*
X1515350D01*
Y1567677D01*
Y1574342D02*
Y1577008D01*
Y1575675D01*
X1507353D01*
X1508685Y1574342D01*
X1510018Y1581006D02*
X1514017D01*
X1515350Y1582339D01*
Y1586338D01*
X1510018D01*
X1507353Y1594335D02*
Y1589004D01*
X1511351D01*
Y1591670D01*
Y1589004D01*
X1515350D01*
X2583000Y933000D02*
X2590997D01*
Y936999D01*
X2589665Y938332D01*
X2586999D01*
X2585666Y936999D01*
Y933000D01*
X2583000Y940997D02*
X2588332D01*
X2590997Y943663D01*
X2588332Y946329D01*
X2583000D01*
X2586999D01*
Y940997D01*
X2590997Y948995D02*
Y954326D01*
Y951661D01*
X2583000D01*
X2589665Y962324D02*
X2590997Y960991D01*
Y958325D01*
X2589665Y956992D01*
X2584333D01*
X2583000Y958325D01*
Y960991D01*
X2584333Y962324D01*
X2590997Y964990D02*
X2583000D01*
X2586999D01*
Y970321D01*
X2590997D01*
X2583000D01*
X2581667Y972987D02*
Y978319D01*
X2583000Y980984D02*
X2588332D01*
X2590997Y983650D01*
X2588332Y986316D01*
X2583000D01*
X2586999D01*
Y980984D01*
X2583000Y988982D02*
X2590997D01*
X2583000Y994314D01*
X2590997D01*
Y996979D02*
Y1002311D01*
Y999645D01*
X2583000D01*
X2590997Y1010308D02*
Y1004977D01*
X2583000D01*
Y1010308D01*
X2586999Y1004977D02*
Y1007643D01*
X2583000Y1012974D02*
X2590997D01*
X2583000Y1018306D01*
X2590997D01*
X2583000Y1020972D02*
X2590997D01*
X2583000Y1026303D01*
X2590997D01*
X2583000Y1028969D02*
X2588332D01*
X2590997Y1031635D01*
X2588332Y1034301D01*
X2583000D01*
X2586999D01*
Y1028969D01*
X1508320Y1534686D02*
X1506987Y1533353D01*
X1504321D01*
X1502988Y1534686D01*
Y1540017D01*
X1504321Y1541350D01*
X1506987D01*
X1508320Y1540017D01*
Y1534686D01*
X1500323Y1541350D02*
Y1540017D01*
X1498990D01*
Y1541350D01*
X1500323D01*
X1493658D02*
X1490992D01*
X1492325D01*
Y1533353D01*
X1493658Y1534686D01*
X1486994Y1536018D02*
Y1540017D01*
X1485661Y1541350D01*
X1481662D01*
Y1536018D01*
X1473665Y1533353D02*
X1478996D01*
Y1537351D01*
X1476330D01*
X1478996D01*
Y1541350D01*
X1453000Y1488665D02*
X1454333Y1489997D01*
X1456999D01*
X1458332Y1488665D01*
Y1487332D01*
X1456999Y1485999D01*
X1455666D01*
X1456999D01*
X1458332Y1484666D01*
Y1483333D01*
X1456999Y1482000D01*
X1454333D01*
X1453000Y1483333D01*
X1460997Y1488665D02*
X1462330Y1489997D01*
X1464996D01*
X1466329Y1488665D01*
Y1487332D01*
X1464996Y1485999D01*
X1463663D01*
X1464996D01*
X1466329Y1484666D01*
Y1483333D01*
X1464996Y1482000D01*
X1462330D01*
X1460997Y1483333D01*
X1468995Y1488665D02*
X1470328Y1489997D01*
X1472993D01*
X1474326Y1488665D01*
Y1483333D01*
X1472993Y1482000D01*
X1470328D01*
X1468995Y1483333D01*
Y1488665D01*
X1476992Y1489997D02*
Y1483333D01*
X1478325Y1482000D01*
X1480991D01*
X1482324Y1483333D01*
Y1489997D01*
X1490321D02*
X1484990D01*
Y1485999D01*
X1487655D01*
X1484990D01*
Y1482000D01*
X1506316Y1489997D02*
X1503650Y1488665D01*
X1500984Y1485999D01*
Y1483333D01*
X1502317Y1482000D01*
X1504983D01*
X1506316Y1483333D01*
Y1484666D01*
X1504983Y1485999D01*
X1500984D01*
X1508982Y1482000D02*
Y1483333D01*
X1510315D01*
Y1482000D01*
X1508982D01*
X1515646Y1488665D02*
X1516979Y1489997D01*
X1519645D01*
X1520978Y1488665D01*
Y1487332D01*
X1519645Y1485999D01*
X1518312D01*
X1519645D01*
X1520978Y1484666D01*
Y1483333D01*
X1519645Y1482000D01*
X1516979D01*
X1515646Y1483333D01*
X1523644Y1489997D02*
Y1484666D01*
X1526310Y1482000D01*
X1528976Y1484666D01*
Y1489997D01*
X1454000Y1433665D02*
X1455333Y1434997D01*
X1457999D01*
X1459332Y1433665D01*
Y1432332D01*
X1457999Y1430999D01*
X1456666D01*
X1457999D01*
X1459332Y1429666D01*
Y1428333D01*
X1457999Y1427000D01*
X1455333D01*
X1454000Y1428333D01*
X1461997Y1433665D02*
X1463330Y1434997D01*
X1465996D01*
X1467329Y1433665D01*
Y1432332D01*
X1465996Y1430999D01*
X1464663D01*
X1465996D01*
X1467329Y1429666D01*
Y1428333D01*
X1465996Y1427000D01*
X1463330D01*
X1461997Y1428333D01*
X1469995Y1433665D02*
X1471328Y1434997D01*
X1473994D01*
X1475326Y1433665D01*
Y1428333D01*
X1473994Y1427000D01*
X1471328D01*
X1469995Y1428333D01*
Y1433665D01*
X1477992Y1434997D02*
Y1428333D01*
X1479325Y1427000D01*
X1481991D01*
X1483324Y1428333D01*
Y1434997D01*
X1491321D02*
X1485990D01*
Y1430999D01*
X1488656D01*
X1485990D01*
Y1427000D01*
X1507316Y1434997D02*
X1504650Y1433665D01*
X1501985Y1430999D01*
Y1428333D01*
X1503317Y1427000D01*
X1505983D01*
X1507316Y1428333D01*
Y1429666D01*
X1505983Y1430999D01*
X1501985D01*
X1509982Y1427000D02*
Y1428333D01*
X1511315D01*
Y1427000D01*
X1509982D01*
X1516646Y1433665D02*
X1517979Y1434997D01*
X1520645D01*
X1521978Y1433665D01*
Y1432332D01*
X1520645Y1430999D01*
X1519312D01*
X1520645D01*
X1521978Y1429666D01*
Y1428333D01*
X1520645Y1427000D01*
X1517979D01*
X1516646Y1428333D01*
X1524644Y1434997D02*
Y1429666D01*
X1527310Y1427000D01*
X1529975Y1429666D01*
Y1434997D01*
X1454000Y1375665D02*
X1455333Y1376997D01*
X1457999D01*
X1459332Y1375665D01*
Y1374332D01*
X1457999Y1372999D01*
X1456666D01*
X1457999D01*
X1459332Y1371666D01*
Y1370333D01*
X1457999Y1369000D01*
X1455333D01*
X1454000Y1370333D01*
X1461997Y1375665D02*
X1463330Y1376997D01*
X1465996D01*
X1467329Y1375665D01*
Y1374332D01*
X1465996Y1372999D01*
X1464663D01*
X1465996D01*
X1467329Y1371666D01*
Y1370333D01*
X1465996Y1369000D01*
X1463330D01*
X1461997Y1370333D01*
X1469995Y1375665D02*
X1471328Y1376997D01*
X1473994D01*
X1475326Y1375665D01*
Y1370333D01*
X1473994Y1369000D01*
X1471328D01*
X1469995Y1370333D01*
Y1375665D01*
X1477992Y1376997D02*
Y1370333D01*
X1479325Y1369000D01*
X1481991D01*
X1483324Y1370333D01*
Y1376997D01*
X1491321D02*
X1485990D01*
Y1372999D01*
X1488656D01*
X1485990D01*
Y1369000D01*
X1507316Y1376997D02*
X1504650Y1375665D01*
X1501985Y1372999D01*
Y1370333D01*
X1503317Y1369000D01*
X1505983D01*
X1507316Y1370333D01*
Y1371666D01*
X1505983Y1372999D01*
X1501985D01*
X1509982Y1369000D02*
Y1370333D01*
X1511315D01*
Y1369000D01*
X1509982D01*
X1516646Y1375665D02*
X1517979Y1376997D01*
X1520645D01*
X1521978Y1375665D01*
Y1374332D01*
X1520645Y1372999D01*
X1519312D01*
X1520645D01*
X1521978Y1371666D01*
Y1370333D01*
X1520645Y1369000D01*
X1517979D01*
X1516646Y1370333D01*
X1524644Y1376997D02*
Y1371666D01*
X1527310Y1369000D01*
X1529975Y1371666D01*
Y1376997D01*
X1515003Y1202000D02*
X1523000D01*
Y1205999D01*
X1521667Y1207332D01*
X1520334D01*
X1519001Y1205999D01*
Y1202000D01*
Y1205999D01*
X1517668Y1207332D01*
X1516335D01*
X1515003Y1205999D01*
Y1202000D01*
X1516335Y1215329D02*
X1515003Y1213996D01*
Y1211330D01*
X1516335Y1209997D01*
X1521667D01*
X1523000Y1211330D01*
Y1213996D01*
X1521667Y1215329D01*
X1516335Y1217995D02*
X1515003Y1219328D01*
Y1221993D01*
X1516335Y1223326D01*
X1517668D01*
X1519001Y1221993D01*
X1520334Y1223326D01*
X1521667D01*
X1523000Y1221993D01*
Y1219328D01*
X1521667Y1217995D01*
X1520334D01*
X1519001Y1219328D01*
X1517668Y1217995D01*
X1516335D01*
X1519001Y1219328D02*
Y1221993D01*
X1523000Y1225992D02*
Y1228658D01*
Y1227325D01*
X1515003D01*
X1516335Y1225992D01*
X1515003Y1232657D02*
Y1237988D01*
X1516335D01*
X1521667Y1232657D01*
X1523000D01*
X1468685Y1092680D02*
X1467353Y1094013D01*
Y1096679D01*
X1468685Y1098012D01*
X1474017D01*
X1475350Y1096679D01*
Y1094013D01*
X1474017Y1092680D01*
X1468685D01*
X1475350Y1100677D02*
X1474017D01*
Y1102010D01*
X1475350D01*
Y1100677D01*
Y1107342D02*
Y1110008D01*
Y1108675D01*
X1467353D01*
X1468685Y1107342D01*
X1470018Y1114007D02*
X1474017D01*
X1475350Y1115339D01*
Y1119338D01*
X1470018D01*
X1467353Y1127336D02*
Y1122004D01*
X1471351D01*
Y1124670D01*
Y1122004D01*
X1475350D01*
X1625350Y922680D02*
Y925346D01*
Y924013D01*
X1617353D01*
X1618685Y922680D01*
Y929344D02*
X1617353Y930677D01*
Y933343D01*
X1618685Y934676D01*
X1624017D01*
X1625350Y933343D01*
Y930677D01*
X1624017Y929344D01*
X1618685D01*
X1620018Y937342D02*
X1624017D01*
X1625350Y938675D01*
Y942674D01*
X1620018D01*
X1617353Y950671D02*
Y945339D01*
X1621351D01*
Y948005D01*
Y945339D01*
X1625350D01*
X1653350Y922680D02*
Y925346D01*
Y924013D01*
X1645353D01*
X1646685Y922680D01*
Y929344D02*
X1645353Y930677D01*
Y933343D01*
X1646685Y934676D01*
X1652017D01*
X1653350Y933343D01*
Y930677D01*
X1652017Y929344D01*
X1646685D01*
X1648018Y937342D02*
X1652017D01*
X1653350Y938675D01*
Y942674D01*
X1648018D01*
X1645353Y950671D02*
Y945339D01*
X1649351D01*
Y948005D01*
Y945339D01*
X1653350D01*
X1677000Y919000D02*
Y921666D01*
Y920333D01*
X1669003D01*
X1670336Y919000D01*
X1669003Y925665D02*
X1677000D01*
X1674334D01*
X1669003Y930996D01*
X1673001Y926997D01*
X1677000Y930996D01*
X1830150Y1082820D02*
Y1080154D01*
Y1081487D01*
X1838147D01*
X1836815Y1082820D01*
Y1076155D02*
X1838147Y1074822D01*
Y1072157D01*
X1836815Y1070824D01*
X1835482D01*
X1834149Y1072157D01*
X1832816Y1070824D01*
X1831483D01*
X1830150Y1072157D01*
Y1074822D01*
X1831483Y1076155D01*
X1832816D01*
X1834149Y1074822D01*
X1835482Y1076155D01*
X1836815D01*
X1834149Y1074822D02*
Y1072157D01*
X1827484Y1068158D02*
X1835482D01*
Y1064159D01*
X1834149Y1062826D01*
X1831483D01*
X1830150Y1064159D01*
Y1068158D01*
X1838147Y1054829D02*
Y1060161D01*
X1834149D01*
Y1057495D01*
Y1060161D01*
X1830150D01*
X2675315Y1461320D02*
X2676647Y1459987D01*
Y1457321D01*
X2675315Y1455988D01*
X2669983D01*
X2668650Y1457321D01*
Y1459987D01*
X2669983Y1461320D01*
X2675315D01*
X2668650Y1453323D02*
X2669983D01*
Y1451990D01*
X2668650D01*
Y1453323D01*
Y1446658D02*
Y1443992D01*
Y1445325D01*
X2676647D01*
X2675315Y1446658D01*
X2673982Y1439993D02*
X2669983D01*
X2668650Y1438661D01*
Y1434662D01*
X2673982D01*
X2676647Y1426664D02*
Y1431996D01*
X2672649D01*
Y1429330D01*
Y1431996D01*
X2668650D01*
X2697650Y1461320D02*
Y1458654D01*
Y1459987D01*
X2705647D01*
X2704315Y1461320D01*
Y1454655D02*
X2705647Y1453322D01*
Y1450657D01*
X2704315Y1449324D01*
X2698983D01*
X2697650Y1450657D01*
Y1453322D01*
X2698983Y1454655D01*
X2704315D01*
X2702982Y1446658D02*
X2698983D01*
X2697650Y1445325D01*
Y1441326D01*
X2702982D01*
X2705647Y1433329D02*
Y1438661D01*
X2701649D01*
Y1435995D01*
Y1438661D01*
X2697650D01*
X2726650Y1461320D02*
Y1458654D01*
Y1459987D01*
X2734648D01*
X2733315Y1461320D01*
Y1454655D02*
X2734648Y1453322D01*
Y1450657D01*
X2733315Y1449324D01*
X2727983D01*
X2726650Y1450657D01*
Y1453322D01*
X2727983Y1454655D01*
X2733315D01*
X2731982Y1446658D02*
X2727983D01*
X2726650Y1445325D01*
Y1441326D01*
X2731982D01*
X2734648Y1433329D02*
Y1438661D01*
X2730649D01*
Y1435995D01*
Y1438661D01*
X2726650D01*
X2478315Y1308320D02*
X2479647Y1306987D01*
Y1304321D01*
X2478315Y1302988D01*
X2472983D01*
X2471650Y1304321D01*
Y1306987D01*
X2472983Y1308320D01*
X2478315D01*
X2471650Y1300323D02*
X2472983D01*
Y1298990D01*
X2471650D01*
Y1300323D01*
Y1293658D02*
Y1290992D01*
Y1292325D01*
X2479647D01*
X2478315Y1293658D01*
X2476982Y1286994D02*
X2472983D01*
X2471650Y1285661D01*
Y1281662D01*
X2476982D01*
X2479647Y1273664D02*
Y1278996D01*
X2475649D01*
Y1276330D01*
Y1278996D01*
X2471650D01*
D77*
X1544030Y957520D02*
Y1019750D01*
Y957520D02*
X1571970D01*
Y1019750D01*
X1544030D02*
X1571970D01*
X1502250Y1111030D02*
X1564480D01*
Y1138970D01*
X1502250D02*
X1564480D01*
X1502250Y1111030D02*
Y1138970D01*
X1821000Y639500D02*
X1941000D01*
Y752000D01*
X1821000D02*
X1941000D01*
X1821000Y639500D02*
Y752000D01*
X1401000Y843500D02*
Y938500D01*
X1458500D01*
X1401000Y843500D02*
X1458500D01*
X2145500Y1305500D02*
Y1613000D01*
X2428000Y1305500D02*
Y1613000D01*
X2145500Y1305500D02*
X2428000D01*
X1523790Y1518360D02*
Y1528520D01*
X1519980Y1523440D02*
X1526330D01*
X1577130Y1510740D02*
X1578400Y1512010D01*
X1527600Y1510740D02*
X1577130D01*
X1527600D02*
Y1603450D01*
X1578400D01*
Y1512010D02*
Y1603450D01*
X2305140Y1270300D02*
X2349590D01*
Y1295700D01*
X2305140D02*
X2349590D01*
X2305140Y1270300D02*
Y1295700D01*
X2250410D02*
X2294860D01*
X2250410Y1270300D02*
Y1295700D01*
Y1270300D02*
X2294860D01*
Y1295700D01*
X1531030Y794750D02*
X1558970D01*
Y732520D02*
Y794750D01*
X1531030Y732520D02*
X1558970D01*
X1531030D02*
Y794750D01*
X2202860Y762300D02*
Y787700D01*
X2158410Y762300D02*
X2202860D01*
X2158410D02*
Y787700D01*
X2202860D01*
X2463300Y1215860D02*
X2488700D01*
Y1171410D02*
Y1215860D01*
X2463300Y1171410D02*
X2488700D01*
X2463300D02*
Y1215860D01*
X2465300Y1400860D02*
X2490700D01*
Y1356410D02*
Y1400860D01*
X2465300Y1356410D02*
X2490700D01*
X2465300D02*
Y1400860D01*
X1823800Y959640D02*
X1849200D01*
X1823800D02*
Y1004090D01*
X1849200D01*
Y959640D02*
Y1004090D01*
X1917860Y1089300D02*
Y1114700D01*
X1873410Y1089300D02*
X1917860D01*
X1873410D02*
Y1114700D01*
X1917860D01*
X2152300Y1000860D02*
X2177700D01*
Y956410D02*
Y1000860D01*
X2152300Y956410D02*
X2177700D01*
X2152300D02*
Y1000860D01*
X2170300Y1158140D02*
X2195700D01*
X2170300D02*
Y1202590D01*
X2195700D01*
Y1158140D02*
Y1202590D01*
X2013300Y1208140D02*
X2038700D01*
X2013300D02*
Y1252590D01*
X2038700D01*
Y1208140D02*
Y1252590D01*
X2055300Y994860D02*
X2080700D01*
Y950410D02*
Y994860D01*
X2055300Y950410D02*
X2080700D01*
X2055300D02*
Y994860D01*
X1990140Y989300D02*
Y1014700D01*
X2034590D01*
Y989300D02*
Y1014700D01*
X1990140Y989300D02*
X2034590D01*
X2041300Y1208140D02*
X2066700D01*
X2041300D02*
Y1252590D01*
X2066700D01*
Y1208140D02*
Y1252590D01*
X2134300Y1211140D02*
X2159700D01*
X2134300D02*
Y1255590D01*
X2159700D01*
Y1211140D02*
Y1255590D01*
X1955860Y970300D02*
Y995700D01*
X1911410Y970300D02*
X1955860D01*
X1911410D02*
Y995700D01*
X1955860D01*
Y997300D02*
Y1022700D01*
X1911410Y997300D02*
X1955860D01*
X1911410D02*
Y1022700D01*
X1955860D01*
X2166300Y1211140D02*
X2191700D01*
X2166300D02*
Y1255590D01*
X2191700D01*
Y1211140D02*
Y1255590D01*
X2125300Y1000860D02*
X2150700D01*
Y956410D02*
Y1000860D01*
X2125300Y956410D02*
X2150700D01*
X2125300D02*
Y1000860D01*
X1991300Y941140D02*
X2016700D01*
X1991300D02*
Y985590D01*
X2016700D01*
Y941140D02*
Y985590D01*
X2019300Y941140D02*
X2044700D01*
X2019300D02*
Y985590D01*
X2044700D01*
Y941140D02*
Y985590D01*
X1957300Y1208140D02*
X1982700D01*
X1957300D02*
Y1252590D01*
X1982700D01*
Y1208140D02*
Y1252590D01*
X1962860Y1174300D02*
Y1199700D01*
X1918410Y1174300D02*
X1962860D01*
X1918410D02*
Y1199700D01*
X1962860D01*
Y1089300D02*
Y1114700D01*
X1918410Y1089300D02*
X1962860D01*
X1918410D02*
Y1114700D01*
X1962860D01*
X2540300Y910860D02*
X2565700D01*
Y866410D02*
Y910860D01*
X2540300Y866410D02*
X2565700D01*
X2540300D02*
Y910860D01*
X2377860Y762300D02*
Y787700D01*
X2333410Y762300D02*
X2377860D01*
X2333410D02*
Y787700D01*
X2377860D01*
Y785300D02*
Y810700D01*
X2333410Y785300D02*
X2377860D01*
X2333410D02*
Y810700D01*
X2377860D01*
X2632300Y1463860D02*
X2657700D01*
Y1419410D02*
Y1463860D01*
X2632300Y1419410D02*
X2657700D01*
X2632300D02*
Y1463860D01*
X1564680Y863450D02*
X1605320D01*
Y778360D02*
Y863450D01*
X1564680Y778360D02*
X1605320D01*
X1564680D02*
Y863450D01*
X1713010Y639600D02*
X1804450D01*
Y690400D01*
X1711740D02*
X1804450D01*
X1711740Y640870D02*
Y690400D01*
Y640870D02*
X1713010Y639600D01*
X1724440Y691670D02*
Y698020D01*
X1719360Y694210D02*
X1729520D01*
X1625300Y713860D02*
X1650700D01*
Y669410D02*
Y713860D01*
X1625300Y669410D02*
X1650700D01*
X1625300D02*
Y713860D01*
X1598300Y713860D02*
X1623700D01*
Y669410D02*
Y713860D01*
X1598300Y669410D02*
X1623700D01*
X1598300D02*
Y713860D01*
X1771140Y856300D02*
Y881700D01*
X1815590D01*
Y856300D02*
Y881700D01*
X1771140Y856300D02*
X1815590D01*
X1771140Y885300D02*
Y910700D01*
X1815590D01*
Y885300D02*
Y910700D01*
X1771140Y885300D02*
X1815590D01*
X1771140Y914300D02*
Y939700D01*
X1815590D01*
Y914300D02*
Y939700D01*
X1771140Y914300D02*
X1815590D01*
X1427300Y1090140D02*
X1452700D01*
X1427300D02*
Y1134590D01*
X1452700D01*
Y1090140D02*
Y1134590D01*
X2682000Y1284000D02*
X2716000D01*
X2682000Y1264000D02*
Y1284000D01*
Y1264000D02*
X2716000D01*
Y1284000D01*
X2716000Y1298000D02*
Y1318000D01*
X2682000Y1298000D02*
X2716000D01*
X2682000D02*
Y1318000D01*
X2716000D01*
X2683000Y1350000D02*
X2717000D01*
X2683000Y1330000D02*
Y1350000D01*
Y1330000D02*
X2717000D01*
Y1350000D01*
X2718000Y1362000D02*
Y1382000D01*
X2684000Y1362000D02*
X2718000D01*
X2684000D02*
Y1382000D01*
X2718000D01*
X1726000Y727000D02*
Y770000D01*
X1793000D01*
Y727000D02*
Y770000D01*
X1726000Y727000D02*
X1793000D01*
X1692000Y940000D02*
Y974000D01*
Y940000D02*
X1712000D01*
Y974000D01*
X1692000D02*
X1712000D01*
X1959000Y961000D02*
X1979000D01*
X1959000D02*
Y995000D01*
X1979000D01*
Y961000D02*
Y995000D01*
X1764000Y780000D02*
Y910000D01*
X1614000Y780000D02*
X1764000D01*
X1614000D02*
Y910000D01*
X1764000D01*
X1530250Y1029030D02*
Y1056970D01*
X1592480D01*
Y1029030D02*
Y1056970D01*
X1530250Y1029030D02*
X1592480D01*
X2084140Y751300D02*
Y776700D01*
X2128590D01*
Y751300D02*
Y776700D01*
X2084140Y751300D02*
X2128590D01*
X1530250Y1062030D02*
Y1089970D01*
X1592480D01*
Y1062030D02*
Y1089970D01*
X1530250Y1062030D02*
X1592480D01*
X2461700Y1170140D02*
Y1214590D01*
X2436300D02*
X2461700D01*
X2436300Y1170140D02*
Y1214590D01*
Y1170140D02*
X2461700D01*
X1955860Y1057800D02*
Y1083200D01*
X1911410Y1057800D02*
X1955860D01*
X1911410D02*
Y1083200D01*
X1955860D01*
X1911410Y1057700D02*
X1955860D01*
X1911410Y1032300D02*
Y1057700D01*
Y1032300D02*
X1955860D01*
Y1057700D01*
X1984300Y1253860D02*
X2009700D01*
Y1209410D02*
Y1253860D01*
X1984300Y1209410D02*
X2009700D01*
X1984300D02*
Y1253860D01*
X2463700Y1265140D02*
Y1309590D01*
X2438300D02*
X2463700D01*
X2438300Y1265140D02*
Y1309590D01*
Y1265140D02*
X2463700D01*
X2157140Y788300D02*
Y813700D01*
X2201590D01*
Y788300D02*
Y813700D01*
X2157140Y788300D02*
X2201590D01*
X2463700Y1355140D02*
Y1399590D01*
X2438300D02*
X2463700D01*
X2438300Y1355140D02*
Y1399590D01*
Y1355140D02*
X2463700D01*
X2630140Y1261300D02*
Y1286700D01*
X2674590D01*
Y1261300D02*
Y1286700D01*
X2630140Y1261300D02*
X2674590D01*
X2630140Y1294300D02*
X2674590D01*
Y1319700D01*
X2630140D02*
X2674590D01*
X2630140Y1294300D02*
Y1319700D01*
X2631140Y1326300D02*
Y1351700D01*
X2675590D01*
Y1326300D02*
Y1351700D01*
X2631140Y1326300D02*
X2675590D01*
X1981700Y1003140D02*
Y1047590D01*
X1956300D02*
X1981700D01*
X1956300Y1003140D02*
Y1047590D01*
Y1003140D02*
X1981700D01*
X2632140Y1358300D02*
Y1383700D01*
X2676590D01*
Y1358300D02*
Y1383700D01*
X2632140Y1358300D02*
X2676590D01*
X2116700Y949140D02*
Y993590D01*
X2091300D02*
X2116700D01*
X2091300Y949140D02*
Y993590D01*
Y949140D02*
X2116700D01*
X1759140Y970300D02*
Y995700D01*
X1803590D01*
Y970300D02*
Y995700D01*
X1759140Y970300D02*
X1803590D01*
X1536700Y1270140D02*
Y1314590D01*
X1511300D02*
X1536700D01*
X1511300Y1270140D02*
Y1314590D01*
Y1270140D02*
X1536700D01*
X1468140Y1306300D02*
Y1331700D01*
X1512590D01*
Y1306300D02*
Y1331700D01*
X1468140Y1306300D02*
X1512590D01*
X1678300Y1003410D02*
Y1047860D01*
Y1003410D02*
X1703700D01*
Y1047860D01*
X1678300D02*
X1703700D01*
X1652300Y1047860D02*
X1677700D01*
Y1003410D02*
Y1047860D01*
X1652300Y1003410D02*
X1677700D01*
X1652300D02*
Y1047860D01*
X1641300Y1149410D02*
Y1193860D01*
Y1149410D02*
X1666700D01*
Y1193860D01*
X1641300D02*
X1666700D01*
X1704300Y1047860D02*
X1729700D01*
Y1003410D02*
Y1047860D01*
X1704300Y1003410D02*
X1729700D01*
X1704300D02*
Y1047860D01*
X1727300Y1003410D02*
Y1047860D01*
Y1003410D02*
X1752700D01*
Y1047860D01*
X1727300D02*
X1752700D01*
X1472300Y1196140D02*
X1497700D01*
X1472300D02*
Y1240590D01*
X1497700D01*
Y1196140D02*
Y1240590D01*
X1475700Y1196140D02*
Y1240590D01*
X1450300D02*
X1475700D01*
X1450300Y1196140D02*
Y1240590D01*
Y1196140D02*
X1475700D01*
X1623700Y721140D02*
Y765590D01*
X1598300D02*
X1623700D01*
X1598300Y721140D02*
Y765590D01*
Y721140D02*
X1623700D01*
X1624300Y766860D02*
X1649700D01*
Y722410D02*
Y766860D01*
X1624300Y722410D02*
X1649700D01*
X1624300D02*
Y766860D01*
X1654140Y663300D02*
X1698590D01*
Y688700D01*
X1654140D02*
X1698590D01*
X1654140Y663300D02*
Y688700D01*
X2542000Y949000D02*
Y951500D01*
X2392000D02*
X2542000D01*
X2392000Y779000D02*
Y951500D01*
Y779000D02*
X2542000D01*
Y949000D01*
X1471000Y1312000D02*
X1511000D01*
X1471000Y1272000D02*
Y1312000D01*
Y1272000D02*
X1511000D01*
Y1312000D01*
X1849000Y1209500D02*
Y1492000D01*
X1569000D02*
X1849000D01*
X1569000Y1212000D02*
Y1492000D01*
Y1212000D02*
X1571500Y1209500D01*
X1849000D01*
X1653500Y689500D02*
Y764500D01*
Y689500D02*
X1713500D01*
Y764500D01*
X1653500D02*
X1713500D01*
X1716000Y916000D02*
Y956000D01*
X1766000D01*
Y916000D02*
Y956000D01*
X1716000Y916000D02*
X1766000D01*
X1805500Y1516000D02*
Y1616000D01*
X1803000Y1513500D02*
X1805500Y1516000D01*
X1715500Y1513500D02*
X1803000D01*
X1715500D02*
Y1616000D01*
X1805500D01*
X2048000Y1438000D02*
Y1598000D01*
X1883000D02*
X2048000D01*
X1883000Y1438000D02*
Y1598000D01*
Y1438000D02*
X2048000D01*
X1403500Y711500D02*
Y821500D01*
Y711500D02*
X1503500D01*
Y821500D01*
X1403500D02*
X1503500D01*
X1404500Y950000D02*
X1517000D01*
Y830000D02*
Y950000D01*
X1404500Y830000D02*
X1517000D01*
X1404500D02*
Y950000D01*
X1719140Y696300D02*
Y721700D01*
X1763590D01*
Y696300D02*
Y721700D01*
X1719140Y696300D02*
X1763590D01*
X1835300Y1599860D02*
X1860700D01*
Y1555410D02*
Y1599860D01*
X1835300Y1555410D02*
X1860700D01*
X1835300D02*
Y1599860D01*
X2027140Y750300D02*
Y775700D01*
X2071590D01*
Y750300D02*
Y775700D01*
X2027140Y750300D02*
X2071590D01*
X1496300Y1557140D02*
X1521700D01*
X1496300D02*
Y1601590D01*
X1521700D01*
Y1557140D02*
Y1601590D01*
X2683000Y753000D02*
Y1103000D01*
X2333000D02*
X2683000D01*
X2333000Y753000D02*
Y1103000D01*
Y753000D02*
X2683000D01*
X1510860Y1522300D02*
Y1547700D01*
X1466410Y1522300D02*
X1510860D01*
X1466410D02*
Y1547700D01*
X1510860D01*
X1512480Y1457790D02*
X1522640D01*
X1517560Y1453980D02*
Y1460330D01*
X1528990Y1512400D02*
X1530260Y1511130D01*
Y1461600D02*
Y1511130D01*
X1437550Y1461600D02*
X1530260D01*
X1437550D02*
Y1512400D01*
X1528990D01*
X1511480Y1399790D02*
X1521640D01*
X1516560Y1395980D02*
Y1402330D01*
X1527990Y1454400D02*
X1529260Y1453130D01*
Y1403600D02*
Y1453130D01*
X1436550Y1403600D02*
X1529260D01*
X1436550D02*
Y1454400D01*
X1527990D01*
X1511480Y1342790D02*
X1521640D01*
X1516560Y1338980D02*
Y1345330D01*
X1527990Y1397400D02*
X1529260Y1396130D01*
Y1346600D02*
Y1396130D01*
X1436550Y1346600D02*
X1529260D01*
X1436550D02*
Y1397400D01*
X1527990D01*
X1500000Y1201000D02*
X1540000D01*
Y1241000D01*
X1500000D02*
X1540000D01*
X1500000Y1201000D02*
Y1241000D01*
X1456300Y1090140D02*
X1481700D01*
X1456300D02*
Y1134590D01*
X1481700D01*
Y1090140D02*
Y1134590D01*
X1606300Y920140D02*
X1631700D01*
X1606300D02*
Y964590D01*
X1631700D01*
Y920140D02*
Y964590D01*
X1634300Y920140D02*
X1659700D01*
X1634300D02*
Y964590D01*
X1659700D01*
Y920140D02*
Y964590D01*
X1661300Y965860D02*
X1686700D01*
Y921410D02*
Y965860D01*
X1661300Y921410D02*
X1686700D01*
X1661300D02*
Y965860D01*
X1823800Y1085360D02*
X1849200D01*
Y1040910D02*
Y1085360D01*
X1823800Y1040910D02*
X1849200D01*
X1823800D02*
Y1085360D01*
X2662300Y1463860D02*
X2687700D01*
Y1419410D02*
Y1463860D01*
X2662300Y1419410D02*
X2687700D01*
X2662300D02*
Y1463860D01*
X2691300D02*
X2716700D01*
Y1419410D02*
Y1463860D01*
X2691300Y1419410D02*
X2716700D01*
X2691300D02*
Y1463860D01*
X2720300D02*
X2745700D01*
Y1419410D02*
Y1463860D01*
X2720300Y1419410D02*
X2745700D01*
X2720300D02*
Y1463860D01*
X1666000Y1507000D02*
Y1548000D01*
X1616000Y1507000D02*
X1666000D01*
X1616000D02*
Y1548000D01*
X1666000D01*
X2465300Y1310860D02*
X2490700D01*
Y1266410D02*
Y1310860D01*
X2465300Y1266410D02*
X2490700D01*
X2465300D02*
Y1310860D01*
X2328000Y1453000D02*
X2325334D01*
X2326667D01*
Y1445003D01*
X2328000Y1446335D01*
X2321335D02*
X2320002Y1445003D01*
X2317337D01*
X2316004Y1446335D01*
Y1451667D01*
X2317337Y1453000D01*
X2320002D01*
X2321335Y1451667D01*
Y1446335D01*
X2309339Y1453000D02*
Y1445003D01*
X2313338Y1449001D01*
X2308006D01*
X2305341Y1445003D02*
Y1453000D01*
Y1449001D01*
X2300009D01*
Y1445003D01*
Y1453000D01*
X2297343Y1449001D02*
X2292012D01*
X2289346Y1445003D02*
X2284014D01*
X2286680D01*
Y1453000D01*
X2281348Y1445003D02*
Y1453000D01*
X2277350D01*
X2276017Y1451667D01*
Y1446335D01*
X2277350Y1445003D01*
X2281348D01*
X2273351Y1453000D02*
Y1447668D01*
X2270685Y1445003D01*
X2268019Y1447668D01*
Y1453000D01*
Y1449001D01*
X2273351D01*
X2265354Y1446335D02*
X2264021Y1445003D01*
X2261355D01*
X2260022Y1446335D01*
Y1451667D01*
X2261355Y1453000D01*
X2264021D01*
X2265354Y1451667D01*
Y1446335D01*
X2257356Y1449001D02*
X2252025D01*
X2249359Y1453000D02*
Y1445003D01*
X2245360D01*
X2244027Y1446335D01*
Y1449001D01*
X2245360Y1450334D01*
X2249359D01*
X2246693D02*
X2244027Y1453000D01*
X2241361Y1446335D02*
X2240028Y1445003D01*
X2237363D01*
X2236030Y1446335D01*
Y1451667D01*
X2237363Y1453000D01*
X2240028D01*
X2241361Y1451667D01*
Y1446335D01*
X2233364Y1453000D02*
X2230698D01*
X2232031D01*
Y1445003D01*
X2233364Y1446335D01*
D138*
X1559585Y1014670D02*
X1560917Y1013337D01*
Y1010671D01*
X1559585Y1009338D01*
X1554253D01*
X1552920Y1010671D01*
Y1013337D01*
X1554253Y1014670D01*
X1559585D01*
Y993344D02*
X1560917Y994676D01*
Y997342D01*
X1559585Y998675D01*
X1554253D01*
X1552920Y997342D01*
Y994676D01*
X1554253Y993344D01*
X1552920Y990678D02*
X1560917D01*
X1558252Y988012D01*
X1560917Y985346D01*
X1552920D01*
Y978682D02*
Y981347D01*
X1554253Y982680D01*
X1556919D01*
X1558252Y981347D01*
Y978682D01*
X1556919Y977349D01*
X1555586D01*
Y982680D01*
X1558252Y973350D02*
Y970684D01*
X1556919Y969351D01*
X1552920D01*
Y973350D01*
X1554253Y974683D01*
X1555586Y973350D01*
Y969351D01*
X1552920Y966685D02*
Y962687D01*
X1554253Y961354D01*
X1555586Y962687D01*
Y965353D01*
X1556919Y966685D01*
X1558252Y965353D01*
Y961354D01*
Y958688D02*
X1554253D01*
X1552920Y957355D01*
Y953356D01*
X1558252D01*
Y950691D02*
X1552920D01*
X1555586D01*
X1556919Y949358D01*
X1558252Y948025D01*
Y946692D01*
X1552920Y938695D02*
Y941360D01*
X1554253Y942693D01*
X1556919D01*
X1558252Y941360D01*
Y938695D01*
X1556919Y937362D01*
X1555586D01*
Y942693D01*
X1507330Y1126584D02*
X1508663Y1127917D01*
X1511329D01*
X1512662Y1126584D01*
Y1121253D01*
X1511329Y1119920D01*
X1508663D01*
X1507330Y1121253D01*
Y1126584D01*
X1528656D02*
X1527324Y1127917D01*
X1524658D01*
X1523325Y1126584D01*
Y1121253D01*
X1524658Y1119920D01*
X1527324D01*
X1528656Y1121253D01*
X1531322Y1119920D02*
Y1127917D01*
X1533988Y1125252D01*
X1536654Y1127917D01*
Y1119920D01*
X1543318D02*
X1540653D01*
X1539320Y1121253D01*
Y1123919D01*
X1540653Y1125252D01*
X1543318D01*
X1544651Y1123919D01*
Y1122586D01*
X1539320D01*
X1548650Y1125252D02*
X1551316D01*
X1552649Y1123919D01*
Y1119920D01*
X1548650D01*
X1547317Y1121253D01*
X1548650Y1122586D01*
X1552649D01*
X1555314Y1119920D02*
X1559313D01*
X1560646Y1121253D01*
X1559313Y1122586D01*
X1556647D01*
X1555314Y1123919D01*
X1556647Y1125252D01*
X1560646D01*
X1563312D02*
Y1121253D01*
X1564645Y1119920D01*
X1568643D01*
Y1125252D01*
X1571309D02*
Y1119920D01*
Y1122586D01*
X1572642Y1123919D01*
X1573975Y1125252D01*
X1575308D01*
X1583306Y1119920D02*
X1580640D01*
X1579307Y1121253D01*
Y1123919D01*
X1580640Y1125252D01*
X1583306D01*
X1584638Y1123919D01*
Y1122586D01*
X1579307D01*
X1846000Y679500D02*
X1848666D01*
X1847333D01*
Y687497D01*
X1846000Y686164D01*
X1857996Y687497D02*
X1855330Y686164D01*
X1852664Y683499D01*
Y680833D01*
X1853997Y679500D01*
X1856663D01*
X1857996Y680833D01*
Y682166D01*
X1856663Y683499D01*
X1852664D01*
X1860662Y679500D02*
Y687497D01*
X1863328Y684832D01*
X1865994Y687497D01*
Y679500D01*
X1873991D02*
X1868659D01*
X1873991Y684832D01*
Y686164D01*
X1872658Y687497D01*
X1869992D01*
X1868659Y686164D01*
X1876657Y687497D02*
X1881988D01*
Y686164D01*
X1876657Y680833D01*
Y679500D01*
X1889986Y687497D02*
X1887320Y686164D01*
X1884654Y683499D01*
Y680833D01*
X1885987Y679500D01*
X1888653D01*
X1889986Y680833D01*
Y682166D01*
X1888653Y683499D01*
X1884654D01*
X1896650Y679500D02*
Y687497D01*
X1892652Y683499D01*
X1897983D01*
X1433500Y858500D02*
Y861166D01*
Y859833D01*
X1441497D01*
X1440164Y858500D01*
Y865164D02*
X1441497Y866497D01*
Y869163D01*
X1440164Y870496D01*
X1434833D01*
X1433500Y869163D01*
Y866497D01*
X1434833Y865164D01*
X1440164D01*
X1433500Y873162D02*
Y875828D01*
Y874495D01*
X1441497D01*
X1440164Y873162D01*
X1433500Y879827D02*
Y882492D01*
Y881159D01*
X1441497D01*
X1440164Y879827D01*
Y886491D02*
X1441497Y887824D01*
Y890490D01*
X1440164Y891823D01*
X1438832D01*
X1437499Y890490D01*
X1436166Y891823D01*
X1434833D01*
X1433500Y890490D01*
Y887824D01*
X1434833Y886491D01*
X1436166D01*
X1437499Y887824D01*
X1438832Y886491D01*
X1440164D01*
X1437499Y887824D02*
Y890490D01*
X1433500Y894488D02*
Y897154D01*
Y895821D01*
X1441497D01*
X1440164Y894488D01*
X1434833Y901153D02*
X1433500Y902486D01*
Y905152D01*
X1434833Y906485D01*
X1440164D01*
X1441497Y905152D01*
Y902486D01*
X1440164Y901153D01*
X1438832D01*
X1437499Y902486D01*
Y906485D01*
X1440164Y909150D02*
X1441497Y910483D01*
Y913149D01*
X1440164Y914482D01*
X1438832D01*
X1437499Y913149D01*
Y911816D01*
Y913149D01*
X1436166Y914482D01*
X1434833D01*
X1433500Y913149D01*
Y910483D01*
X1434833Y909150D01*
X1437499Y917148D02*
Y922479D01*
X1440164Y925145D02*
X1441497Y926478D01*
Y929144D01*
X1440164Y930477D01*
X1434833D01*
X1433500Y929144D01*
Y926478D01*
X1434833Y925145D01*
X1440164D01*
Y933143D02*
X1441497Y934475D01*
Y937141D01*
X1440164Y938474D01*
X1434833D01*
X1433500Y937141D01*
Y934475D01*
X1434833Y933143D01*
X1440164D01*
Y941140D02*
X1441497Y942473D01*
Y945139D01*
X1440164Y946472D01*
X1434833D01*
X1433500Y945139D01*
Y942473D01*
X1434833Y941140D01*
X1440164D01*
X1433500Y949137D02*
Y951803D01*
Y950470D01*
X1441497D01*
X1440164Y949137D01*
X1441497Y955802D02*
X1433500D01*
Y961134D01*
X1441497Y969131D02*
Y963799D01*
X1437499D01*
Y966465D01*
Y963799D01*
X1433500D01*
X1616000Y1531997D02*
Y1525333D01*
X1617333Y1524000D01*
X1619999D01*
X1621332Y1525333D01*
Y1531997D01*
X1623997Y1524000D02*
Y1525333D01*
X1625330D01*
Y1524000D01*
X1623997D01*
X1635994Y1531997D02*
X1630662D01*
Y1527999D01*
X1633328D01*
X1630662D01*
Y1524000D01*
X1638659Y1531997D02*
Y1524000D01*
X1643991D01*
M02*
