G04 Layer_Color=12632256*
%FSLAX44Y44*%
%MOMM*%
G71*
G01*
G75*
%ADD59C,1.5000*%
%ADD60C,1.7000*%
%ADD61C,1.8000*%
%ADD62C,3.2000*%
%ADD63R,1.8000X1.8000*%
%ADD64C,1.4000*%
%ADD65R,1.4000X1.4000*%
%ADD66C,2.4000*%
%ADD67C,1.9000*%
%ADD68R,1.8000X1.8000*%
D59*
X1549110Y975300D02*
D03*
Y1000700D02*
D03*
X1546700Y1116110D02*
D03*
X1521300D02*
D03*
X1903000Y702000D02*
D03*
X1859000D02*
D03*
X1416000Y859250D02*
D03*
Y922750D02*
D03*
X1536110Y775700D02*
D03*
Y750300D02*
D03*
X1549300Y1034110D02*
D03*
X1574700D02*
D03*
X1549300Y1067110D02*
D03*
X1574700D02*
D03*
X1467000Y912000D02*
D03*
Y868000D02*
D03*
X1934500Y1128500D02*
D03*
X1933500Y1160500D02*
D03*
X1876500Y1047000D02*
D03*
Y998000D02*
D03*
X2599000Y1535000D02*
D03*
Y1509600D02*
D03*
Y1484200D02*
D03*
X2529000D02*
D03*
Y1509600D02*
D03*
Y1535000D02*
D03*
D60*
X2147000Y1560000D02*
D03*
D61*
X2427000D02*
D03*
X2116000Y653800D02*
D03*
X2065200D02*
D03*
Y730000D02*
D03*
X2187200D02*
D03*
Y653800D02*
D03*
X2238000D02*
D03*
X1451000Y738200D02*
D03*
Y789000D02*
D03*
X2583170Y1311870D02*
D03*
X2506970D02*
D03*
Y1261070D02*
D03*
X2505970Y1167820D02*
D03*
Y1218620D02*
D03*
X2582170D02*
D03*
X2506800Y1354000D02*
D03*
Y1404800D02*
D03*
X2583000D02*
D03*
D62*
X2659000Y672500D02*
D03*
Y1587500D02*
D03*
X1441000Y672500D02*
D03*
X2759000D02*
D03*
Y1587500D02*
D03*
X1441000D02*
D03*
D63*
X2116000Y730000D02*
D03*
X2238000D02*
D03*
D64*
X2514000Y660000D02*
D03*
X2488600D02*
D03*
X2463200D02*
D03*
X2412400D02*
D03*
X2437800D02*
D03*
X2548000Y928000D02*
D03*
D65*
X2387000Y660000D02*
D03*
D66*
X1778400Y1540600D02*
D03*
Y1591400D02*
D03*
X1727600D02*
D03*
Y1540600D02*
D03*
D67*
X1753000Y1566000D02*
D03*
D68*
X2583170Y1261070D02*
D03*
X2582170Y1167820D02*
D03*
X2583000Y1354000D02*
D03*
M02*
