G04 Layer_Color=65535*
%FSLAX44Y44*%
%MOMM*%
G71*
G01*
G75*
%ADD54C,0.2500*%
%ADD73C,0.1000*%
%ADD74C,0.6000*%
%ADD75C,1.0000*%
%ADD76C,0.2540*%
%ADD77C,0.2000*%
D54*
X1531000Y1516000D02*
G03*
X1531000Y1516000I-1250J0D01*
G01*
X1604000Y858500D02*
G03*
X1604000Y858500I-1250J0D01*
G01*
X1718250Y688250D02*
G03*
X1718250Y688250I-1250J0D01*
G01*
X1732750Y764750D02*
G03*
X1732750Y764750I-1250J0D01*
G01*
X2001000Y1176250D02*
G03*
X2001000Y1176250I-1250J0D01*
G01*
X1504250Y1274000D02*
G03*
X1504250Y1274000I-1250J0D01*
G01*
X1669650Y1072750D02*
G03*
X1669650Y1072750I-1250J0D01*
G01*
X1709800Y754250D02*
G03*
X1709800Y754250I-1250J0D01*
G01*
X1727500Y954250D02*
G03*
X1727500Y954250I-1250J0D01*
G01*
X1960750Y1164500D02*
G03*
X1960750Y1164500I-1250J0D01*
G01*
X1526250Y1463750D02*
G03*
X1526250Y1463750I-1250J0D01*
G01*
X1525250Y1405750D02*
G03*
X1525250Y1405750I-1250J0D01*
G01*
Y1348750D02*
G03*
X1525250Y1348750I-1250J0D01*
G01*
X1509250Y1239000D02*
G03*
X1509250Y1239000I-1250J0D01*
G01*
X1523750Y1073250D02*
G03*
X1523750Y1073250I-1250J0D01*
G01*
X1869000Y959000D02*
G03*
X1869000Y959000I-1250J0D01*
G01*
D73*
X2716500Y1264000D02*
G03*
X2716500Y1264000I-500J0D01*
G01*
X2716500Y1298000D02*
G03*
X2716500Y1298000I-500J0D01*
G01*
X2717500Y1330000D02*
G03*
X2717500Y1330000I-500J0D01*
G01*
X2718500Y1362000D02*
G03*
X2718500Y1362000I-500J0D01*
G01*
X1712500Y974000D02*
G03*
X1712500Y974000I-500J0D01*
G01*
X1959500Y961000D02*
G03*
X1959500Y961000I-500J0D01*
G01*
X2373000Y690663D02*
Y682666D01*
X2376999D01*
X2378332Y683999D01*
Y689330D01*
X2376999Y690663D01*
X2373000D01*
X2380997Y682666D02*
X2383663D01*
X2382330D01*
Y687997D01*
X2380997D01*
X2387662Y682666D02*
X2391661D01*
X2392993Y683999D01*
X2391661Y685332D01*
X2388995D01*
X2387662Y686665D01*
X2388995Y687997D01*
X2392993D01*
X2400991D02*
X2396992D01*
X2395659Y686665D01*
Y683999D01*
X2396992Y682666D01*
X2400991D01*
X2404990D02*
X2407655D01*
X2408988Y683999D01*
Y686665D01*
X2407655Y687997D01*
X2404990D01*
X2403657Y686665D01*
Y683999D01*
X2404990Y682666D01*
X2411654Y687997D02*
X2414320Y682666D01*
X2416986Y687997D01*
X2423650Y682666D02*
X2420984D01*
X2419652Y683999D01*
Y686665D01*
X2420984Y687997D01*
X2423650D01*
X2424983Y686665D01*
Y685332D01*
X2419652D01*
X2427649Y687997D02*
Y682666D01*
Y685332D01*
X2428982Y686665D01*
X2430315Y687997D01*
X2431648D01*
X2435646D02*
Y683999D01*
X2436979Y682666D01*
X2440978D01*
Y681333D01*
X2439645Y680000D01*
X2438312D01*
X2440978Y682666D02*
Y687997D01*
X2451641Y690663D02*
Y682666D01*
X2455640D01*
X2456973Y683999D01*
Y685332D01*
X2455640Y686665D01*
X2451641D01*
X2455640D01*
X2456973Y687997D01*
Y689330D01*
X2455640Y690663D01*
X2451641D01*
X2460972Y682666D02*
X2463637D01*
X2464970Y683999D01*
Y686665D01*
X2463637Y687997D01*
X2460972D01*
X2459639Y686665D01*
Y683999D01*
X2460972Y682666D01*
X2468969Y687997D02*
X2471635D01*
X2472968Y686665D01*
Y682666D01*
X2468969D01*
X2467636Y683999D01*
X2468969Y685332D01*
X2472968D01*
X2475634Y687997D02*
Y682666D01*
Y685332D01*
X2476966Y686665D01*
X2478299Y687997D01*
X2479632D01*
X2488963Y690663D02*
Y682666D01*
X2484964D01*
X2483631Y683999D01*
Y686665D01*
X2484964Y687997D01*
X2488963D01*
X2504957Y689330D02*
X2503625Y690663D01*
X2500959D01*
X2499626Y689330D01*
Y683999D01*
X2500959Y682666D01*
X2503625D01*
X2504957Y683999D01*
X2508956Y682666D02*
X2511622D01*
X2512955Y683999D01*
Y686665D01*
X2511622Y687997D01*
X2508956D01*
X2507623Y686665D01*
Y683999D01*
X2508956Y682666D01*
X2515621D02*
Y687997D01*
X2519619D01*
X2520952Y686665D01*
Y682666D01*
X2523618D02*
Y687997D01*
X2527617D01*
X2528950Y686665D01*
Y682666D01*
X2535614D02*
X2532948D01*
X2531615Y683999D01*
Y686665D01*
X2532948Y687997D01*
X2535614D01*
X2536947Y686665D01*
Y685332D01*
X2531615D01*
X2544944Y687997D02*
X2540946D01*
X2539613Y686665D01*
Y683999D01*
X2540946Y682666D01*
X2544944D01*
X2548943Y689330D02*
Y687997D01*
X2547610D01*
X2550276D01*
X2548943D01*
Y683999D01*
X2550276Y682666D01*
X2554275D02*
X2556941D01*
X2555608D01*
Y687997D01*
X2554275D01*
X2562272Y682666D02*
X2564938D01*
X2566271Y683999D01*
Y686665D01*
X2564938Y687997D01*
X2562272D01*
X2560939Y686665D01*
Y683999D01*
X2562272Y682666D01*
X2568937D02*
Y687997D01*
X2572935D01*
X2574268Y686665D01*
Y682666D01*
X1559000Y932000D02*
X1551003D01*
Y935999D01*
X1552336Y937332D01*
X1555001D01*
X1556334Y935999D01*
Y932000D01*
Y934666D02*
X1559000Y937332D01*
X1552336Y939997D02*
X1551003Y941330D01*
Y943996D01*
X1552336Y945329D01*
X1553668D01*
X1555001Y943996D01*
Y942663D01*
Y943996D01*
X1556334Y945329D01*
X1557667D01*
X1559000Y943996D01*
Y941330D01*
X1557667Y939997D01*
X1552336Y947995D02*
X1551003Y949328D01*
Y951993D01*
X1552336Y953326D01*
X1553668D01*
X1555001Y951993D01*
Y950661D01*
Y951993D01*
X1556334Y953326D01*
X1557667D01*
X1559000Y951993D01*
Y949328D01*
X1557667Y947995D01*
X1526000Y1141000D02*
Y1148997D01*
X1529999D01*
X1531332Y1147664D01*
Y1144999D01*
X1529999Y1143666D01*
X1526000D01*
X1528666D02*
X1531332Y1141000D01*
X1533997Y1147664D02*
X1535330Y1148997D01*
X1537996D01*
X1539329Y1147664D01*
Y1146332D01*
X1537996Y1144999D01*
X1536663D01*
X1537996D01*
X1539329Y1143666D01*
Y1142333D01*
X1537996Y1141000D01*
X1535330D01*
X1533997Y1142333D01*
X1545994Y1141000D02*
Y1148997D01*
X1541995Y1144999D01*
X1547326D01*
X1830000Y778997D02*
X1835332Y771000D01*
Y778997D02*
X1830000Y771000D01*
X1843329Y777664D02*
X1841996Y778997D01*
X1839330D01*
X1837997Y777664D01*
Y776332D01*
X1839330Y774999D01*
X1841996D01*
X1843329Y773666D01*
Y772333D01*
X1841996Y771000D01*
X1839330D01*
X1837997Y772333D01*
X1851326Y771000D02*
X1845995D01*
X1851326Y776332D01*
Y777664D01*
X1849994Y778997D01*
X1847328D01*
X1845995Y777664D01*
X1525268Y1617278D02*
X1523935Y1618611D01*
X1521269D01*
X1519936Y1617278D01*
Y1611947D01*
X1521269Y1610614D01*
X1523935D01*
X1525268Y1611947D01*
X1527933Y1617278D02*
X1529266Y1618611D01*
X1531932D01*
X1533265Y1617278D01*
Y1615946D01*
X1531932Y1614613D01*
X1530599D01*
X1531932D01*
X1533265Y1613280D01*
Y1611947D01*
X1531932Y1610614D01*
X1529266D01*
X1527933Y1611947D01*
X1541262Y1610614D02*
X1535931D01*
X1541262Y1615946D01*
Y1617278D01*
X1539930Y1618611D01*
X1537264D01*
X1535931Y1617278D01*
X1419332Y1388665D02*
X1417999Y1389997D01*
X1415333D01*
X1414000Y1388665D01*
Y1383333D01*
X1415333Y1382000D01*
X1417999D01*
X1419332Y1383333D01*
X1421997Y1388665D02*
X1423330Y1389997D01*
X1425996D01*
X1427329Y1388665D01*
Y1387332D01*
X1425996Y1385999D01*
X1424663D01*
X1425996D01*
X1427329Y1384666D01*
Y1383333D01*
X1425996Y1382000D01*
X1423330D01*
X1421997Y1383333D01*
X1429995Y1382000D02*
X1432661D01*
X1431328D01*
Y1389997D01*
X1429995Y1388665D01*
X1417332Y1445665D02*
X1415999Y1446997D01*
X1413333D01*
X1412000Y1445665D01*
Y1440333D01*
X1413333Y1439000D01*
X1415999D01*
X1417332Y1440333D01*
X1419997Y1445665D02*
X1421330Y1446997D01*
X1423996D01*
X1425329Y1445665D01*
Y1444332D01*
X1423996Y1442999D01*
X1422663D01*
X1423996D01*
X1425329Y1441666D01*
Y1440333D01*
X1423996Y1439000D01*
X1421330D01*
X1419997Y1440333D01*
X1427995Y1445665D02*
X1429328Y1446997D01*
X1431994D01*
X1433326Y1445665D01*
Y1440333D01*
X1431994Y1439000D01*
X1429328D01*
X1427995Y1440333D01*
Y1445665D01*
X1416332Y1501664D02*
X1414999Y1502997D01*
X1412333D01*
X1411000Y1501664D01*
Y1496333D01*
X1412333Y1495000D01*
X1414999D01*
X1416332Y1496333D01*
X1424329Y1495000D02*
X1418997D01*
X1424329Y1500332D01*
Y1501664D01*
X1422996Y1502997D01*
X1420330D01*
X1418997Y1501664D01*
X1426995Y1496333D02*
X1428328Y1495000D01*
X1430994D01*
X1432326Y1496333D01*
Y1501664D01*
X1430994Y1502997D01*
X1428328D01*
X1426995Y1501664D01*
Y1500332D01*
X1428328Y1498999D01*
X1432326D01*
X2322332Y1266665D02*
X2320999Y1267997D01*
X2318333D01*
X2317000Y1266665D01*
Y1261333D01*
X2318333Y1260000D01*
X2320999D01*
X2322332Y1261333D01*
X2330329Y1267997D02*
X2324997D01*
Y1263999D01*
X2327663Y1265332D01*
X2328996D01*
X2330329Y1263999D01*
Y1261333D01*
X2328996Y1260000D01*
X2326330D01*
X2324997Y1261333D01*
X2338326Y1260000D02*
X2332995D01*
X2338326Y1265332D01*
Y1266665D01*
X2336994Y1267997D01*
X2334328D01*
X2332995Y1266665D01*
X2269332D02*
X2267999Y1267997D01*
X2265333D01*
X2264000Y1266665D01*
Y1261333D01*
X2265333Y1260000D01*
X2267999D01*
X2269332Y1261333D01*
X2277329Y1267997D02*
X2271997D01*
Y1263999D01*
X2274663Y1265332D01*
X2275996D01*
X2277329Y1263999D01*
Y1261333D01*
X2275996Y1260000D01*
X2273330D01*
X2271997Y1261333D01*
X2279995Y1260000D02*
X2282661D01*
X2281328D01*
Y1267997D01*
X2279995Y1266665D01*
X1542000Y810000D02*
X1549997D01*
Y806001D01*
X1548665Y804668D01*
X1545999D01*
X1544666Y806001D01*
Y810000D01*
Y807334D02*
X1542000Y804668D01*
X1548665Y802003D02*
X1549997Y800670D01*
Y798004D01*
X1548665Y796671D01*
X1547332D01*
X1545999Y798004D01*
Y799337D01*
Y798004D01*
X1544666Y796671D01*
X1543333D01*
X1542000Y798004D01*
Y800670D01*
X1543333Y802003D01*
X1542000Y788674D02*
Y794005D01*
X1547332Y788674D01*
X1548665D01*
X1549997Y790006D01*
Y792672D01*
X1548665Y794005D01*
X2211332Y779665D02*
X2209999Y780997D01*
X2207333D01*
X2206000Y779665D01*
Y774333D01*
X2207333Y773000D01*
X2209999D01*
X2211332Y774333D01*
X2213997Y773000D02*
X2216663D01*
X2215330D01*
Y780997D01*
X2213997Y779665D01*
X2468624Y1229675D02*
X2467291Y1231007D01*
X2464625D01*
X2463292Y1229675D01*
Y1224343D01*
X2464625Y1223010D01*
X2467291D01*
X2468624Y1224343D01*
X2476621Y1223010D02*
X2471289D01*
X2476621Y1228342D01*
Y1229675D01*
X2475288Y1231007D01*
X2472622D01*
X2471289Y1229675D01*
X2477332Y1318665D02*
X2475999Y1319997D01*
X2473333D01*
X2472000Y1318665D01*
Y1313333D01*
X2473333Y1312000D01*
X2475999D01*
X2477332Y1313333D01*
X2479997Y1318665D02*
X2481330Y1319997D01*
X2483996D01*
X2485329Y1318665D01*
Y1317332D01*
X2483996Y1315999D01*
X2482663D01*
X2483996D01*
X2485329Y1314666D01*
Y1313333D01*
X2483996Y1312000D01*
X2481330D01*
X2479997Y1313333D01*
X2470656Y1414586D02*
X2469323Y1415919D01*
X2466657D01*
X2465324Y1414586D01*
Y1409255D01*
X2466657Y1407922D01*
X2469323D01*
X2470656Y1409255D01*
X2477320Y1407922D02*
Y1415919D01*
X2473321Y1411921D01*
X2478653D01*
X1834332Y1095665D02*
X1832999Y1096997D01*
X1830333D01*
X1829000Y1095665D01*
Y1090333D01*
X1830333Y1089000D01*
X1832999D01*
X1834332Y1090333D01*
X1842329Y1096997D02*
X1836997D01*
Y1092999D01*
X1839663Y1094332D01*
X1840996D01*
X1842329Y1092999D01*
Y1090333D01*
X1840996Y1089000D01*
X1838330D01*
X1836997Y1090333D01*
X1833332Y1017664D02*
X1831999Y1018997D01*
X1829333D01*
X1828000Y1017664D01*
Y1012333D01*
X1829333Y1011000D01*
X1831999D01*
X1833332Y1012333D01*
X1841329Y1018997D02*
X1838663Y1017664D01*
X1835997Y1014999D01*
Y1012333D01*
X1837330Y1011000D01*
X1839996D01*
X1841329Y1012333D01*
Y1013666D01*
X1839996Y1014999D01*
X1835997D01*
X1863332Y1115665D02*
X1861999Y1116997D01*
X1859333D01*
X1858000Y1115665D01*
Y1110333D01*
X1859333Y1109000D01*
X1861999D01*
X1863332Y1110333D01*
X1865997Y1116997D02*
X1871329D01*
Y1115665D01*
X1865997Y1110333D01*
Y1109000D01*
X2157728Y1014537D02*
X2156395Y1015869D01*
X2153729D01*
X2152396Y1014537D01*
Y1009205D01*
X2153729Y1007872D01*
X2156395D01*
X2157728Y1009205D01*
X2160393Y1014537D02*
X2161726Y1015869D01*
X2164392D01*
X2165725Y1014537D01*
Y1013204D01*
X2164392Y1011871D01*
X2165725Y1010538D01*
Y1009205D01*
X2164392Y1007872D01*
X2161726D01*
X2160393Y1009205D01*
Y1010538D01*
X2161726Y1011871D01*
X2160393Y1013204D01*
Y1014537D01*
X2161726Y1011871D02*
X2164392D01*
X2186664Y1151668D02*
X2187997Y1153001D01*
Y1155667D01*
X2186664Y1157000D01*
X2181333D01*
X2180000Y1155667D01*
Y1153001D01*
X2181333Y1151668D01*
Y1149003D02*
X2180000Y1147670D01*
Y1145004D01*
X2181333Y1143671D01*
X2186664D01*
X2187997Y1145004D01*
Y1147670D01*
X2186664Y1149003D01*
X2185332D01*
X2183999Y1147670D01*
Y1143671D01*
X2022332Y1262664D02*
X2020999Y1263997D01*
X2018333D01*
X2017000Y1262664D01*
Y1257333D01*
X2018333Y1256000D01*
X2020999D01*
X2022332Y1257333D01*
X2024997Y1256000D02*
X2027663D01*
X2026330D01*
Y1263997D01*
X2024997Y1262664D01*
X2031662D02*
X2032995Y1263997D01*
X2035661D01*
X2036994Y1262664D01*
Y1257333D01*
X2035661Y1256000D01*
X2032995D01*
X2031662Y1257333D01*
Y1262664D01*
X2083336Y966332D02*
X2082003Y964999D01*
Y962333D01*
X2083336Y961000D01*
X2088667D01*
X2090000Y962333D01*
Y964999D01*
X2088667Y966332D01*
X2090000Y968997D02*
Y971663D01*
Y970330D01*
X2082003D01*
X2083336Y968997D01*
X2090000Y975662D02*
Y978328D01*
Y976995D01*
X2082003D01*
X2083336Y975662D01*
X2040332Y1002664D02*
X2038999Y1003997D01*
X2036333D01*
X2035000Y1002664D01*
Y997333D01*
X2036333Y996000D01*
X2038999D01*
X2040332Y997333D01*
X2042997Y996000D02*
X2045663D01*
X2044330D01*
Y1003997D01*
X2042997Y1002664D01*
X2054994Y996000D02*
X2049662D01*
X2054994Y1001332D01*
Y1002664D01*
X2053661Y1003997D01*
X2050995D01*
X2049662Y1002664D01*
X2049332Y1262664D02*
X2047999Y1263997D01*
X2045333D01*
X2044000Y1262664D01*
Y1257333D01*
X2045333Y1256000D01*
X2047999D01*
X2049332Y1257333D01*
X2051997Y1256000D02*
X2054663D01*
X2053330D01*
Y1263997D01*
X2051997Y1262664D01*
X2058662D02*
X2059995Y1263997D01*
X2062661D01*
X2063994Y1262664D01*
Y1261332D01*
X2062661Y1259999D01*
X2061328D01*
X2062661D01*
X2063994Y1258666D01*
Y1257333D01*
X2062661Y1256000D01*
X2059995D01*
X2058662Y1257333D01*
X2139694Y1269298D02*
X2138361Y1270631D01*
X2135695D01*
X2134362Y1269298D01*
Y1263967D01*
X2135695Y1262634D01*
X2138361D01*
X2139694Y1263967D01*
X2142359Y1262634D02*
X2145025D01*
X2143692D01*
Y1270631D01*
X2142359Y1269298D01*
X2153023Y1262634D02*
Y1270631D01*
X2149024Y1266633D01*
X2154356D01*
X1928332Y966665D02*
X1926999Y967997D01*
X1924333D01*
X1923000Y966665D01*
Y961333D01*
X1924333Y960000D01*
X1926999D01*
X1928332Y961333D01*
X1930997Y960000D02*
X1933663D01*
X1932330D01*
Y967997D01*
X1930997Y966665D01*
X1942993Y967997D02*
X1937662D01*
Y963999D01*
X1940328Y965332D01*
X1941661D01*
X1942993Y963999D01*
Y961333D01*
X1941661Y960000D01*
X1938995D01*
X1937662Y961333D01*
X1928332Y953664D02*
X1926999Y954997D01*
X1924333D01*
X1923000Y953664D01*
Y948333D01*
X1924333Y947000D01*
X1926999D01*
X1928332Y948333D01*
X1930997Y947000D02*
X1933663D01*
X1932330D01*
Y954997D01*
X1930997Y953664D01*
X1942993Y954997D02*
X1940328Y953664D01*
X1937662Y950999D01*
Y948333D01*
X1938995Y947000D01*
X1941661D01*
X1942993Y948333D01*
Y949666D01*
X1941661Y950999D01*
X1937662D01*
X2176332Y1268664D02*
X2174999Y1269997D01*
X2172333D01*
X2171000Y1268664D01*
Y1263333D01*
X2172333Y1262000D01*
X2174999D01*
X2176332Y1263333D01*
X2178997Y1262000D02*
X2181663D01*
X2180330D01*
Y1269997D01*
X2178997Y1268664D01*
X2185662Y1269997D02*
X2190994D01*
Y1268664D01*
X2185662Y1263333D01*
Y1262000D01*
X2141664Y946668D02*
X2142997Y948001D01*
Y950667D01*
X2141664Y952000D01*
X2136333D01*
X2135000Y950667D01*
Y948001D01*
X2136333Y946668D01*
X2135000Y944003D02*
Y941337D01*
Y942670D01*
X2142997D01*
X2141664Y944003D01*
Y937338D02*
X2142997Y936005D01*
Y933339D01*
X2141664Y932006D01*
X2140332D01*
X2138999Y933339D01*
X2137666Y932006D01*
X2136333D01*
X2135000Y933339D01*
Y936005D01*
X2136333Y937338D01*
X2137666D01*
X2138999Y936005D01*
X2140332Y937338D01*
X2141664D01*
X2138999Y936005D02*
Y933339D01*
X2006664Y932668D02*
X2007997Y934001D01*
Y936667D01*
X2006664Y938000D01*
X2001333D01*
X2000000Y936667D01*
Y934001D01*
X2001333Y932668D01*
X2000000Y930003D02*
Y927337D01*
Y928670D01*
X2007997D01*
X2006664Y930003D01*
X2001333Y923338D02*
X2000000Y922005D01*
Y919339D01*
X2001333Y918006D01*
X2006664D01*
X2007997Y919339D01*
Y922005D01*
X2006664Y923338D01*
X2005332D01*
X2003999Y922005D01*
Y918006D01*
X2051664Y963668D02*
X2052997Y965001D01*
Y967667D01*
X2051664Y969000D01*
X2046333D01*
X2045000Y967667D01*
Y965001D01*
X2046333Y963668D01*
X2045000Y955671D02*
Y961003D01*
X2050332Y955671D01*
X2051664D01*
X2052997Y957004D01*
Y959670D01*
X2051664Y961003D01*
Y953005D02*
X2052997Y951672D01*
Y949006D01*
X2051664Y947673D01*
X2046333D01*
X2045000Y949006D01*
Y951672D01*
X2046333Y953005D01*
X2051664D01*
X1951664Y1231668D02*
X1952997Y1233001D01*
Y1235667D01*
X1951664Y1237000D01*
X1946333D01*
X1945000Y1235667D01*
Y1233001D01*
X1946333Y1231668D01*
X1945000Y1223671D02*
Y1229003D01*
X1950332Y1223671D01*
X1951664D01*
X1952997Y1225004D01*
Y1227670D01*
X1951664Y1229003D01*
X1945000Y1221005D02*
Y1218339D01*
Y1219672D01*
X1952997D01*
X1951664Y1221005D01*
X1926332Y1209665D02*
X1924999Y1210997D01*
X1922333D01*
X1921000Y1209665D01*
Y1204333D01*
X1922333Y1203000D01*
X1924999D01*
X1926332Y1204333D01*
X1934329Y1203000D02*
X1928997D01*
X1934329Y1208332D01*
Y1209665D01*
X1932996Y1210997D01*
X1930330D01*
X1928997Y1209665D01*
X1942326Y1203000D02*
X1936995D01*
X1942326Y1208332D01*
Y1209665D01*
X1940994Y1210997D01*
X1938328D01*
X1936995Y1209665D01*
X1968332Y1104665D02*
X1966999Y1105997D01*
X1964333D01*
X1963000Y1104665D01*
Y1099333D01*
X1964333Y1098000D01*
X1966999D01*
X1968332Y1099333D01*
X1976329Y1098000D02*
X1970997D01*
X1976329Y1103332D01*
Y1104665D01*
X1974996Y1105997D01*
X1972330D01*
X1970997Y1104665D01*
X1978995D02*
X1980328Y1105997D01*
X1982993D01*
X1984326Y1104665D01*
Y1103332D01*
X1982993Y1101999D01*
X1981661D01*
X1982993D01*
X1984326Y1100666D01*
Y1099333D01*
X1982993Y1098000D01*
X1980328D01*
X1978995Y1099333D01*
X2570335Y883332D02*
X2569003Y881999D01*
Y879333D01*
X2570335Y878000D01*
X2575667D01*
X2577000Y879333D01*
Y881999D01*
X2575667Y883332D01*
X2577000Y891329D02*
Y885997D01*
X2571668Y891329D01*
X2570335D01*
X2569003Y889996D01*
Y887330D01*
X2570335Y885997D01*
X2569003Y899326D02*
X2570335Y896661D01*
X2573001Y893995D01*
X2575667D01*
X2577000Y895328D01*
Y897994D01*
X2575667Y899326D01*
X2574334D01*
X2573001Y897994D01*
Y893995D01*
X2312332Y777664D02*
X2310999Y778997D01*
X2308333D01*
X2307000Y777664D01*
Y772333D01*
X2308333Y771000D01*
X2310999D01*
X2312332Y772333D01*
X2320329Y771000D02*
X2314997D01*
X2320329Y776332D01*
Y777664D01*
X2318996Y778997D01*
X2316330D01*
X2314997Y777664D01*
X2322995Y778997D02*
X2328327D01*
Y777664D01*
X2322995Y772333D01*
Y771000D01*
X2307332Y802664D02*
X2305999Y803997D01*
X2303333D01*
X2302000Y802664D01*
Y797333D01*
X2303333Y796000D01*
X2305999D01*
X2307332Y797333D01*
X2315329Y796000D02*
X2309997D01*
X2315329Y801332D01*
Y802664D01*
X2313996Y803997D01*
X2311330D01*
X2309997Y802664D01*
X2317995D02*
X2319328Y803997D01*
X2321994D01*
X2323326Y802664D01*
Y801332D01*
X2321994Y799999D01*
X2323326Y798666D01*
Y797333D01*
X2321994Y796000D01*
X2319328D01*
X2317995Y797333D01*
Y798666D01*
X2319328Y799999D01*
X2317995Y801332D01*
Y802664D01*
X2319328Y799999D02*
X2321994D01*
X2638332Y1473665D02*
X2636999Y1474997D01*
X2634333D01*
X2633000Y1473665D01*
Y1468333D01*
X2634333Y1467000D01*
X2636999D01*
X2638332Y1468333D01*
X2640997Y1473665D02*
X2642330Y1474997D01*
X2644996D01*
X2646329Y1473665D01*
Y1472332D01*
X2644996Y1470999D01*
X2643663D01*
X2644996D01*
X2646329Y1469666D01*
Y1468333D01*
X2644996Y1467000D01*
X2642330D01*
X2640997Y1468333D01*
X2648995Y1473665D02*
X2650328Y1474997D01*
X2652993D01*
X2654326Y1473665D01*
Y1472332D01*
X2652993Y1470999D01*
X2651660D01*
X2652993D01*
X2654326Y1469666D01*
Y1468333D01*
X2652993Y1467000D01*
X2650328D01*
X2648995Y1468333D01*
X2668332Y1473665D02*
X2666999Y1474997D01*
X2664333D01*
X2663000Y1473665D01*
Y1468333D01*
X2664333Y1467000D01*
X2666999D01*
X2668332Y1468333D01*
X2670997Y1473665D02*
X2672330Y1474997D01*
X2674996D01*
X2676329Y1473665D01*
Y1472332D01*
X2674996Y1470999D01*
X2673663D01*
X2674996D01*
X2676329Y1469666D01*
Y1468333D01*
X2674996Y1467000D01*
X2672330D01*
X2670997Y1468333D01*
X2682993Y1467000D02*
Y1474997D01*
X2678995Y1470999D01*
X2684326D01*
X2727332Y1471664D02*
X2725999Y1472997D01*
X2723333D01*
X2722000Y1471664D01*
Y1466333D01*
X2723333Y1465000D01*
X2725999D01*
X2727332Y1466333D01*
X2729997Y1471664D02*
X2731330Y1472997D01*
X2733996D01*
X2735329Y1471664D01*
Y1470332D01*
X2733996Y1468999D01*
X2732663D01*
X2733996D01*
X2735329Y1467666D01*
Y1466333D01*
X2733996Y1465000D01*
X2731330D01*
X2729997Y1466333D01*
X2743326Y1472997D02*
X2737995D01*
Y1468999D01*
X2740661Y1470332D01*
X2741994D01*
X2743326Y1468999D01*
Y1466333D01*
X2741994Y1465000D01*
X2739328D01*
X2737995Y1466333D01*
X2698332Y1473665D02*
X2696999Y1474997D01*
X2694333D01*
X2693000Y1473665D01*
Y1468333D01*
X2694333Y1467000D01*
X2696999D01*
X2698332Y1468333D01*
X2700997Y1473665D02*
X2702330Y1474997D01*
X2704996D01*
X2706329Y1473665D01*
Y1472332D01*
X2704996Y1470999D01*
X2703663D01*
X2704996D01*
X2706329Y1469666D01*
Y1468333D01*
X2704996Y1467000D01*
X2702330D01*
X2700997Y1468333D01*
X2714326Y1474997D02*
X2711660Y1473665D01*
X2708995Y1470999D01*
Y1468333D01*
X2710328Y1467000D01*
X2712993D01*
X2714326Y1468333D01*
Y1469666D01*
X2712993Y1470999D01*
X2708995D01*
X1571332Y869665D02*
X1569999Y870997D01*
X1567333D01*
X1566000Y869665D01*
Y864333D01*
X1567333Y863000D01*
X1569999D01*
X1571332Y864333D01*
X1573997Y869665D02*
X1575330Y870997D01*
X1577996D01*
X1579329Y869665D01*
Y868332D01*
X1577996Y866999D01*
X1576663D01*
X1577996D01*
X1579329Y865666D01*
Y864333D01*
X1577996Y863000D01*
X1575330D01*
X1573997Y864333D01*
X1581995Y870997D02*
X1587326D01*
Y869665D01*
X1581995Y864333D01*
Y863000D01*
X1693332Y649665D02*
X1691999Y650997D01*
X1689333D01*
X1688000Y649665D01*
Y644333D01*
X1689333Y643000D01*
X1691999D01*
X1693332Y644333D01*
X1695997Y649665D02*
X1697330Y650997D01*
X1699996D01*
X1701329Y649665D01*
Y648332D01*
X1699996Y646999D01*
X1698663D01*
X1699996D01*
X1701329Y645666D01*
Y644333D01*
X1699996Y643000D01*
X1697330D01*
X1695997Y644333D01*
X1703995Y649665D02*
X1705328Y650997D01*
X1707994D01*
X1709326Y649665D01*
Y648332D01*
X1707994Y646999D01*
X1709326Y645666D01*
Y644333D01*
X1707994Y643000D01*
X1705328D01*
X1703995Y644333D01*
Y645666D01*
X1705328Y646999D01*
X1703995Y648332D01*
Y649665D01*
X1705328Y646999D02*
X1707994D01*
X1637336Y648332D02*
X1636003Y646999D01*
Y644333D01*
X1637336Y643000D01*
X1642667D01*
X1644000Y644333D01*
Y646999D01*
X1642667Y648332D01*
X1637336Y650997D02*
X1636003Y652330D01*
Y654996D01*
X1637336Y656329D01*
X1638668D01*
X1640001Y654996D01*
Y653663D01*
Y654996D01*
X1641334Y656329D01*
X1642667D01*
X1644000Y654996D01*
Y652330D01*
X1642667Y650997D01*
Y658995D02*
X1644000Y660328D01*
Y662993D01*
X1642667Y664326D01*
X1637336D01*
X1636003Y662993D01*
Y660328D01*
X1637336Y658995D01*
X1638668D01*
X1640001Y660328D01*
Y664326D01*
X1605336Y647332D02*
X1604003Y645999D01*
Y643333D01*
X1605336Y642000D01*
X1610667D01*
X1612000Y643333D01*
Y645999D01*
X1610667Y647332D01*
X1612000Y653996D02*
X1604003D01*
X1608001Y649997D01*
Y655329D01*
X1605336Y657995D02*
X1604003Y659328D01*
Y661993D01*
X1605336Y663326D01*
X1610667D01*
X1612000Y661993D01*
Y659328D01*
X1610667Y657995D01*
X1605336D01*
X1615336Y974332D02*
X1614003Y972999D01*
Y970333D01*
X1615336Y969000D01*
X1620667D01*
X1622000Y970333D01*
Y972999D01*
X1620667Y974332D01*
X1622000Y980996D02*
X1614003D01*
X1618001Y976997D01*
Y982329D01*
X1622000Y984995D02*
Y987661D01*
Y986328D01*
X1614003D01*
X1615336Y984995D01*
X1643336Y973332D02*
X1642003Y971999D01*
Y969333D01*
X1643336Y968000D01*
X1648667D01*
X1650000Y969333D01*
Y971999D01*
X1648667Y973332D01*
X1650000Y979996D02*
X1642003D01*
X1646001Y975997D01*
Y981329D01*
X1650000Y989326D02*
Y983995D01*
X1644668Y989326D01*
X1643336D01*
X1642003Y987994D01*
Y985328D01*
X1643336Y983995D01*
X1826332Y875665D02*
X1824999Y876997D01*
X1822333D01*
X1821000Y875665D01*
Y870333D01*
X1822333Y869000D01*
X1824999D01*
X1826332Y870333D01*
X1832996Y869000D02*
Y876997D01*
X1828997Y872999D01*
X1834329D01*
X1836995Y875665D02*
X1838328Y876997D01*
X1840993D01*
X1842326Y875665D01*
Y874332D01*
X1840993Y872999D01*
X1839661D01*
X1840993D01*
X1842326Y871666D01*
Y870333D01*
X1840993Y869000D01*
X1838328D01*
X1836995Y870333D01*
X1826332Y905665D02*
X1824999Y906997D01*
X1822333D01*
X1821000Y905665D01*
Y900333D01*
X1822333Y899000D01*
X1824999D01*
X1826332Y900333D01*
X1832996Y899000D02*
Y906997D01*
X1828997Y902999D01*
X1834329D01*
X1840993Y899000D02*
Y906997D01*
X1836995Y902999D01*
X1842326D01*
X1825332Y930665D02*
X1823999Y931997D01*
X1821333D01*
X1820000Y930665D01*
Y925333D01*
X1821333Y924000D01*
X1823999D01*
X1825332Y925333D01*
X1831996Y924000D02*
Y931997D01*
X1827997Y927999D01*
X1833329D01*
X1841326Y931997D02*
X1835995D01*
Y927999D01*
X1838661Y929332D01*
X1839994D01*
X1841326Y927999D01*
Y925333D01*
X1839994Y924000D01*
X1837328D01*
X1835995Y925333D01*
X1417336Y1135332D02*
X1416003Y1133999D01*
Y1131333D01*
X1417336Y1130000D01*
X1422667D01*
X1424000Y1131333D01*
Y1133999D01*
X1422667Y1135332D01*
X1424000Y1141996D02*
X1416003D01*
X1420001Y1137997D01*
Y1143329D01*
X1416003Y1151327D02*
X1417336Y1148661D01*
X1420001Y1145995D01*
X1422667D01*
X1424000Y1147328D01*
Y1149994D01*
X1422667Y1151327D01*
X1421334D01*
X1420001Y1149994D01*
Y1145995D01*
X2723000Y1278997D02*
Y1271000D01*
X2726999D01*
X2728332Y1272333D01*
Y1277664D01*
X2726999Y1278997D01*
X2723000D01*
X2730997Y1271000D02*
X2733663D01*
X2732330D01*
Y1278997D01*
X2730997Y1277664D01*
X2721000Y1312997D02*
Y1305000D01*
X2724999D01*
X2726331Y1306333D01*
Y1311664D01*
X2724999Y1312997D01*
X2721000D01*
X2734329Y1305000D02*
X2728997D01*
X2734329Y1310332D01*
Y1311664D01*
X2732996Y1312997D01*
X2730330D01*
X2728997Y1311664D01*
X2722000Y1344997D02*
Y1337000D01*
X2725999D01*
X2727332Y1338333D01*
Y1343665D01*
X2725999Y1344997D01*
X2722000D01*
X2729997Y1343665D02*
X2731330Y1344997D01*
X2733996D01*
X2735329Y1343665D01*
Y1342332D01*
X2733996Y1340999D01*
X2732663D01*
X2733996D01*
X2735329Y1339666D01*
Y1338333D01*
X2733996Y1337000D01*
X2731330D01*
X2729997Y1338333D01*
X2724000Y1376997D02*
Y1369000D01*
X2727999D01*
X2729332Y1370333D01*
Y1375665D01*
X2727999Y1376997D01*
X2724000D01*
X2735996Y1369000D02*
Y1376997D01*
X2731997Y1372999D01*
X2737329D01*
X1717003Y758000D02*
X1725000D01*
Y761999D01*
X1723667Y763332D01*
X1718336D01*
X1717003Y761999D01*
Y758000D01*
Y771329D02*
Y765997D01*
X1721001D01*
X1719668Y768663D01*
Y769996D01*
X1721001Y771329D01*
X1723667D01*
X1725000Y769996D01*
Y767330D01*
X1723667Y765997D01*
X1697000Y930997D02*
Y923000D01*
X1700999D01*
X1702332Y924333D01*
Y929665D01*
X1700999Y930997D01*
X1697000D01*
X1710329D02*
X1707663Y929665D01*
X1704997Y926999D01*
Y924333D01*
X1706330Y923000D01*
X1708996D01*
X1710329Y924333D01*
Y925666D01*
X1708996Y926999D01*
X1704997D01*
X1976000Y957997D02*
Y950000D01*
X1981332D01*
X1983997D02*
X1986663D01*
X1985330D01*
Y957997D01*
X1983997Y956665D01*
X1759000Y806997D02*
Y799000D01*
X1764332D01*
X1766997Y805665D02*
X1768330Y806997D01*
X1770996D01*
X1772329Y805665D01*
Y804332D01*
X1770996Y802999D01*
X1769663D01*
X1770996D01*
X1772329Y801666D01*
Y800333D01*
X1770996Y799000D01*
X1768330D01*
X1766997Y800333D01*
X1590000Y1036000D02*
Y1043997D01*
X1593999D01*
X1595332Y1042664D01*
Y1039999D01*
X1593999Y1038666D01*
X1590000D01*
X1592666D02*
X1595332Y1036000D01*
X1597997D02*
X1600663D01*
X1599330D01*
Y1043997D01*
X1597997Y1042664D01*
X2102000Y781000D02*
Y788997D01*
X2105999D01*
X2107332Y787664D01*
Y784999D01*
X2105999Y783666D01*
X2102000D01*
X2104666D02*
X2107332Y781000D01*
X2115329D02*
X2109997D01*
X2115329Y786332D01*
Y787664D01*
X2113996Y788997D01*
X2111330D01*
X2109997Y787664D01*
X1589000Y1071000D02*
Y1078997D01*
X1592999D01*
X1594332Y1077664D01*
Y1074999D01*
X1592999Y1073666D01*
X1589000D01*
X1591666D02*
X1594332Y1071000D01*
X1596997Y1077664D02*
X1598330Y1078997D01*
X1600996D01*
X1602329Y1077664D01*
Y1076332D01*
X1600996Y1074999D01*
X1599663D01*
X1600996D01*
X1602329Y1073666D01*
Y1072333D01*
X1600996Y1071000D01*
X1598330D01*
X1596997Y1072333D01*
X2430000Y1198000D02*
X2437997D01*
Y1194001D01*
X2436664Y1192668D01*
X2433999D01*
X2432666Y1194001D01*
Y1198000D01*
Y1195334D02*
X2430000Y1192668D01*
X2437997Y1184671D02*
Y1190003D01*
X2433999D01*
X2435332Y1187337D01*
Y1186004D01*
X2433999Y1184671D01*
X2431333D01*
X2430000Y1186004D01*
Y1188670D01*
X2431333Y1190003D01*
X1957000Y1070000D02*
Y1077997D01*
X1960999D01*
X1962332Y1076665D01*
Y1073999D01*
X1960999Y1072666D01*
X1957000D01*
X1959666D02*
X1962332Y1070000D01*
X1970329Y1077997D02*
X1967663Y1076665D01*
X1964997Y1073999D01*
Y1071333D01*
X1966330Y1070000D01*
X1968996D01*
X1970329Y1071333D01*
Y1072666D01*
X1968996Y1073999D01*
X1964997D01*
X1957000Y1050000D02*
Y1057997D01*
X1960999D01*
X1962332Y1056665D01*
Y1053999D01*
X1960999Y1052666D01*
X1957000D01*
X1959666D02*
X1962332Y1050000D01*
X1964997Y1057997D02*
X1970329D01*
Y1056665D01*
X1964997Y1051333D01*
Y1050000D01*
X1991000Y1256000D02*
Y1263997D01*
X1994999D01*
X1996332Y1262664D01*
Y1259999D01*
X1994999Y1258666D01*
X1991000D01*
X1993666D02*
X1996332Y1256000D01*
X1998997Y1262664D02*
X2000330Y1263997D01*
X2002996D01*
X2004329Y1262664D01*
Y1261332D01*
X2002996Y1259999D01*
X2004329Y1258666D01*
Y1257333D01*
X2002996Y1256000D01*
X2000330D01*
X1998997Y1257333D01*
Y1258666D01*
X2000330Y1259999D01*
X1998997Y1261332D01*
Y1262664D01*
X2000330Y1259999D02*
X2002996D01*
X2431000Y1295000D02*
X2438997D01*
Y1291001D01*
X2437664Y1289669D01*
X2434999D01*
X2433666Y1291001D01*
Y1295000D01*
Y1292334D02*
X2431000Y1289669D01*
X2432333Y1287003D02*
X2431000Y1285670D01*
Y1283004D01*
X2432333Y1281671D01*
X2437664D01*
X2438997Y1283004D01*
Y1285670D01*
X2437664Y1287003D01*
X2436332D01*
X2434999Y1285670D01*
Y1281671D01*
X2207000Y798000D02*
Y805997D01*
X2210999D01*
X2212332Y804665D01*
Y801999D01*
X2210999Y800666D01*
X2207000D01*
X2209666D02*
X2212332Y798000D01*
X2214997D02*
X2217663D01*
X2216330D01*
Y805997D01*
X2214997Y804665D01*
X2221662D02*
X2222995Y805997D01*
X2225661D01*
X2226994Y804665D01*
Y799333D01*
X2225661Y798000D01*
X2222995D01*
X2221662Y799333D01*
Y804665D01*
X2432000Y1386000D02*
X2439997D01*
Y1382001D01*
X2438665Y1380668D01*
X2435999D01*
X2434666Y1382001D01*
Y1386000D01*
Y1383334D02*
X2432000Y1380668D01*
Y1378002D02*
Y1375337D01*
Y1376670D01*
X2439997D01*
X2438665Y1378002D01*
X2432000Y1371338D02*
Y1368672D01*
Y1370005D01*
X2439997D01*
X2438665Y1371338D01*
X2606000Y1268000D02*
Y1275997D01*
X2609999D01*
X2611331Y1274665D01*
Y1271999D01*
X2609999Y1270666D01*
X2606000D01*
X2608666D02*
X2611331Y1268000D01*
X2613997D02*
X2616663D01*
X2615330D01*
Y1275997D01*
X2613997Y1274665D01*
X2625994Y1268000D02*
X2620662D01*
X2625994Y1273332D01*
Y1274665D01*
X2624661Y1275997D01*
X2621995D01*
X2620662Y1274665D01*
X2607000Y1302000D02*
Y1309997D01*
X2610999D01*
X2612332Y1308665D01*
Y1305999D01*
X2610999Y1304666D01*
X2607000D01*
X2609666D02*
X2612332Y1302000D01*
X2614997D02*
X2617663D01*
X2616330D01*
Y1309997D01*
X2614997Y1308665D01*
X2621662D02*
X2622995Y1309997D01*
X2625661D01*
X2626993Y1308665D01*
Y1307332D01*
X2625661Y1305999D01*
X2624328D01*
X2625661D01*
X2626993Y1304666D01*
Y1303333D01*
X2625661Y1302000D01*
X2622995D01*
X2621662Y1303333D01*
X2610000Y1334000D02*
Y1341997D01*
X2613999D01*
X2615332Y1340665D01*
Y1337999D01*
X2613999Y1336666D01*
X2610000D01*
X2612666D02*
X2615332Y1334000D01*
X2617997D02*
X2620663D01*
X2619330D01*
Y1341997D01*
X2617997Y1340665D01*
X2628661Y1334000D02*
Y1341997D01*
X2624662Y1337999D01*
X2629994D01*
X1992000Y1018000D02*
X1984003D01*
Y1021999D01*
X1985336Y1023332D01*
X1988001D01*
X1989334Y1021999D01*
Y1018000D01*
Y1020666D02*
X1992000Y1023332D01*
Y1025997D02*
Y1028663D01*
Y1027330D01*
X1984003D01*
X1985336Y1025997D01*
X1984003Y1037994D02*
Y1032662D01*
X1988001D01*
X1986668Y1035328D01*
Y1036661D01*
X1988001Y1037994D01*
X1990667D01*
X1992000Y1036661D01*
Y1033995D01*
X1990667Y1032662D01*
X2609000Y1366000D02*
Y1373997D01*
X2612999D01*
X2614332Y1372664D01*
Y1369999D01*
X2612999Y1368666D01*
X2609000D01*
X2611666D02*
X2614332Y1366000D01*
X2616997D02*
X2619663D01*
X2618330D01*
Y1373997D01*
X2616997Y1372664D01*
X2628994Y1373997D02*
X2626328Y1372664D01*
X2623662Y1369999D01*
Y1367333D01*
X2624995Y1366000D01*
X2627661D01*
X2628994Y1367333D01*
Y1368666D01*
X2627661Y1369999D01*
X2623662D01*
X2101000Y944000D02*
X2108997D01*
Y940001D01*
X2107664Y938668D01*
X2104999D01*
X2103666Y940001D01*
Y944000D01*
Y941334D02*
X2101000Y938668D01*
Y936003D02*
Y933337D01*
Y934670D01*
X2108997D01*
X2107664Y936003D01*
X2108997Y929338D02*
Y924006D01*
X2107664D01*
X2102333Y929338D01*
X2101000D01*
X1773000Y998000D02*
Y1005997D01*
X1776999D01*
X1778332Y1004665D01*
Y1001999D01*
X1776999Y1000666D01*
X1773000D01*
X1775666D02*
X1778332Y998000D01*
X1780997D02*
X1783663D01*
X1782330D01*
Y1005997D01*
X1780997Y1004665D01*
X1787662D02*
X1788995Y1005997D01*
X1791661D01*
X1792993Y1004665D01*
Y1003332D01*
X1791661Y1001999D01*
X1792993Y1000666D01*
Y999333D01*
X1791661Y998000D01*
X1788995D01*
X1787662Y999333D01*
Y1000666D01*
X1788995Y1001999D01*
X1787662Y1003332D01*
Y1004665D01*
X1788995Y1001999D02*
X1791661D01*
X1536000Y1305000D02*
X1543997D01*
Y1301001D01*
X1542664Y1299668D01*
X1539999D01*
X1538666Y1301001D01*
Y1305000D01*
Y1302334D02*
X1536000Y1299668D01*
Y1297003D02*
Y1294337D01*
Y1295670D01*
X1543997D01*
X1542664Y1297003D01*
X1537333Y1290338D02*
X1536000Y1289005D01*
Y1286339D01*
X1537333Y1285007D01*
X1542664D01*
X1543997Y1286339D01*
Y1289005D01*
X1542664Y1290338D01*
X1541332D01*
X1539999Y1289005D01*
Y1285007D01*
X1445000Y1314000D02*
Y1321997D01*
X1448999D01*
X1450332Y1320665D01*
Y1317999D01*
X1448999Y1316666D01*
X1445000D01*
X1447666D02*
X1450332Y1314000D01*
X1458329D02*
X1452997D01*
X1458329Y1319332D01*
Y1320665D01*
X1456996Y1321997D01*
X1454330D01*
X1452997Y1320665D01*
X1460995D02*
X1462328Y1321997D01*
X1464994D01*
X1466326Y1320665D01*
Y1315333D01*
X1464994Y1314000D01*
X1462328D01*
X1460995Y1315333D01*
Y1320665D01*
X1687000Y1000785D02*
X1694997D01*
Y996787D01*
X1693665Y995454D01*
X1690999D01*
X1689666Y996787D01*
Y1000785D01*
Y998120D02*
X1687000Y995454D01*
Y987456D02*
Y992788D01*
X1692332Y987456D01*
X1693665D01*
X1694997Y988789D01*
Y991455D01*
X1693665Y992788D01*
X1687000Y984790D02*
Y982125D01*
Y983457D01*
X1694997D01*
X1693665Y984790D01*
X1640000Y1034000D02*
X1647997D01*
Y1030001D01*
X1646664Y1028668D01*
X1643999D01*
X1642666Y1030001D01*
Y1034000D01*
Y1031334D02*
X1640000Y1028668D01*
Y1020671D02*
Y1026003D01*
X1645332Y1020671D01*
X1646664D01*
X1647997Y1022004D01*
Y1024670D01*
X1646664Y1026003D01*
X1640000Y1012673D02*
Y1018005D01*
X1645332Y1012673D01*
X1646664D01*
X1647997Y1014006D01*
Y1016672D01*
X1646664Y1018005D01*
X1641348Y1200912D02*
Y1208909D01*
X1645347D01*
X1646680Y1207577D01*
Y1204911D01*
X1645347Y1203578D01*
X1641348D01*
X1644014D02*
X1646680Y1200912D01*
X1654677D02*
X1649345D01*
X1654677Y1206244D01*
Y1207577D01*
X1653344Y1208909D01*
X1650678D01*
X1649345Y1207577D01*
X1657343D02*
X1658676Y1208909D01*
X1661342D01*
X1662674Y1207577D01*
Y1206244D01*
X1661342Y1204911D01*
X1660009D01*
X1661342D01*
X1662674Y1203578D01*
Y1202245D01*
X1661342Y1200912D01*
X1658676D01*
X1657343Y1202245D01*
X1710000Y1000785D02*
X1717997D01*
Y996787D01*
X1716664Y995454D01*
X1713999D01*
X1712666Y996787D01*
Y1000785D01*
Y998120D02*
X1710000Y995454D01*
Y987456D02*
Y992788D01*
X1715332Y987456D01*
X1716664D01*
X1717997Y988789D01*
Y991455D01*
X1716664Y992788D01*
X1710000Y980792D02*
X1717997D01*
X1713999Y984790D01*
Y979459D01*
X1735000Y1000785D02*
X1742997D01*
Y996787D01*
X1741664Y995454D01*
X1738999D01*
X1737666Y996787D01*
Y1000785D01*
Y998120D02*
X1735000Y995454D01*
Y987456D02*
Y992788D01*
X1740332Y987456D01*
X1741664D01*
X1742997Y988789D01*
Y991455D01*
X1741664Y992788D01*
X1742997Y979459D02*
Y984790D01*
X1738999D01*
X1740332Y982125D01*
Y980792D01*
X1738999Y979459D01*
X1736333D01*
X1735000Y980792D01*
Y983457D01*
X1736333Y984790D01*
X1481000Y1192000D02*
X1488997D01*
Y1188001D01*
X1487664Y1186668D01*
X1484999D01*
X1483666Y1188001D01*
Y1192000D01*
Y1189334D02*
X1481000Y1186668D01*
Y1178671D02*
Y1184003D01*
X1486332Y1178671D01*
X1487664D01*
X1488997Y1180004D01*
Y1182670D01*
X1487664Y1184003D01*
X1488997Y1170674D02*
X1487664Y1173339D01*
X1484999Y1176005D01*
X1482333D01*
X1481000Y1174672D01*
Y1172006D01*
X1482333Y1170674D01*
X1483666D01*
X1484999Y1172006D01*
Y1176005D01*
X1458000Y1193000D02*
X1465997D01*
Y1189001D01*
X1464664Y1187668D01*
X1461999D01*
X1460666Y1189001D01*
Y1193000D01*
Y1190334D02*
X1458000Y1187668D01*
Y1179671D02*
Y1185003D01*
X1463332Y1179671D01*
X1464664D01*
X1465997Y1181004D01*
Y1183670D01*
X1464664Y1185003D01*
X1465997Y1177005D02*
Y1171674D01*
X1464664D01*
X1459333Y1177005D01*
X1458000D01*
X1679000Y967000D02*
X1671003D01*
Y970999D01*
X1672336Y972332D01*
X1675001D01*
X1676334Y970999D01*
Y967000D01*
Y969666D02*
X1679000Y972332D01*
Y980329D02*
Y974997D01*
X1673668Y980329D01*
X1672336D01*
X1671003Y978996D01*
Y976330D01*
X1672336Y974997D01*
Y982995D02*
X1671003Y984328D01*
Y986994D01*
X1672336Y988326D01*
X1673668D01*
X1675001Y986994D01*
X1676334Y988326D01*
X1677667D01*
X1679000Y986994D01*
Y984328D01*
X1677667Y982995D01*
X1676334D01*
X1675001Y984328D01*
X1673668Y982995D01*
X1672336D01*
X1675001Y984328D02*
Y986994D01*
X1592000Y731000D02*
X1584003D01*
Y734999D01*
X1585336Y736332D01*
X1588001D01*
X1589334Y734999D01*
Y731000D01*
Y733666D02*
X1592000Y736332D01*
Y744329D02*
Y738997D01*
X1586668Y744329D01*
X1585336D01*
X1584003Y742996D01*
Y740330D01*
X1585336Y738997D01*
X1590667Y746995D02*
X1592000Y748328D01*
Y750993D01*
X1590667Y752326D01*
X1585336D01*
X1584003Y750993D01*
Y748328D01*
X1585336Y746995D01*
X1586668D01*
X1588001Y748328D01*
Y752326D01*
X1626000Y767000D02*
Y774997D01*
X1629999D01*
X1631332Y773664D01*
Y770999D01*
X1629999Y769666D01*
X1626000D01*
X1628666D02*
X1631332Y767000D01*
X1633997Y773664D02*
X1635330Y774997D01*
X1637996D01*
X1639329Y773664D01*
Y772332D01*
X1637996Y770999D01*
X1636663D01*
X1637996D01*
X1639329Y769666D01*
Y768333D01*
X1637996Y767000D01*
X1635330D01*
X1633997Y768333D01*
X1641995Y773664D02*
X1643328Y774997D01*
X1645994D01*
X1647326Y773664D01*
Y768333D01*
X1645994Y767000D01*
X1643328D01*
X1641995Y768333D01*
Y773664D01*
X1669000Y656000D02*
Y663997D01*
X1672999D01*
X1674332Y662664D01*
Y659999D01*
X1672999Y658666D01*
X1669000D01*
X1671666D02*
X1674332Y656000D01*
X1676997Y662664D02*
X1678330Y663997D01*
X1680996D01*
X1682329Y662664D01*
Y661332D01*
X1680996Y659999D01*
X1679663D01*
X1680996D01*
X1682329Y658666D01*
Y657333D01*
X1680996Y656000D01*
X1678330D01*
X1676997Y657333D01*
X1684995Y656000D02*
X1687661D01*
X1686328D01*
Y663997D01*
X1684995Y662664D01*
X1989000Y1202997D02*
Y1196333D01*
X1990333Y1195000D01*
X1992999D01*
X1994332Y1196333D01*
Y1202997D01*
X1996997Y1195000D02*
X1999663D01*
X1998330D01*
Y1202997D01*
X1996997Y1201665D01*
X2391918Y966593D02*
Y959929D01*
X2393251Y958596D01*
X2395917D01*
X2397250Y959929D01*
Y966593D01*
X2399915Y965260D02*
X2401248Y966593D01*
X2403914D01*
X2405247Y965260D01*
Y963928D01*
X2403914Y962595D01*
X2402581D01*
X2403914D01*
X2405247Y961262D01*
Y959929D01*
X2403914Y958596D01*
X2401248D01*
X2399915Y959929D01*
X1455000Y1284997D02*
Y1278333D01*
X1456333Y1277000D01*
X1458999D01*
X1460332Y1278333D01*
Y1284997D01*
X1466996Y1277000D02*
Y1284997D01*
X1462997Y1280999D01*
X1468329D01*
X1568958Y1507105D02*
Y1500441D01*
X1570291Y1499108D01*
X1572957D01*
X1574290Y1500441D01*
Y1507105D01*
X1582287D02*
X1576955D01*
Y1503107D01*
X1579621Y1504440D01*
X1580954D01*
X1582287Y1503107D01*
Y1500441D01*
X1580954Y1499108D01*
X1578288D01*
X1576955Y1500441D01*
X1525000Y1251997D02*
Y1245333D01*
X1526333Y1244000D01*
X1528999D01*
X1530332Y1245333D01*
Y1251997D01*
X1538329D02*
X1535663Y1250665D01*
X1532997Y1247999D01*
Y1245333D01*
X1534330Y1244000D01*
X1536996D01*
X1538329Y1245333D01*
Y1246666D01*
X1536996Y1247999D01*
X1532997D01*
X1667002Y1151251D02*
Y1144587D01*
X1668335Y1143254D01*
X1671001D01*
X1672334Y1144587D01*
Y1151251D01*
X1674999D02*
X1680331D01*
Y1149919D01*
X1674999Y1144587D01*
Y1143254D01*
X2497000Y1567997D02*
Y1561333D01*
X2498333Y1560000D01*
X2500999D01*
X2502332Y1561333D01*
Y1567997D01*
X2504997Y1566664D02*
X2506330Y1567997D01*
X2508996D01*
X2510329Y1566664D01*
Y1565332D01*
X2508996Y1563999D01*
X2510329Y1562666D01*
Y1561333D01*
X2508996Y1560000D01*
X2506330D01*
X2504997Y1561333D01*
Y1562666D01*
X2506330Y1563999D01*
X2504997Y1565332D01*
Y1566664D01*
X2506330Y1563999D02*
X2508996D01*
X2675000Y1518997D02*
Y1512333D01*
X2676333Y1511000D01*
X2678999D01*
X2680332Y1512333D01*
Y1518997D01*
X2682997Y1512333D02*
X2684330Y1511000D01*
X2686996D01*
X2688329Y1512333D01*
Y1517664D01*
X2686996Y1518997D01*
X2684330D01*
X2682997Y1517664D01*
Y1516332D01*
X2684330Y1514999D01*
X2688329D01*
X1710003Y717000D02*
X1716667D01*
X1718000Y718333D01*
Y720999D01*
X1716667Y722332D01*
X1710003D01*
X1718000Y724997D02*
Y727663D01*
Y726330D01*
X1710003D01*
X1711335Y724997D01*
Y731662D02*
X1710003Y732995D01*
Y735661D01*
X1711335Y736993D01*
X1716667D01*
X1718000Y735661D01*
Y732995D01*
X1716667Y731662D01*
X1711335D01*
X1716024Y971165D02*
Y964501D01*
X1717357Y963168D01*
X1720023D01*
X1721356Y964501D01*
Y971165D01*
X1724021Y963168D02*
X1726687D01*
X1725354D01*
Y971165D01*
X1724021Y969833D01*
X1730686Y963168D02*
X1733352D01*
X1732019D01*
Y971165D01*
X1730686Y969833D01*
X1538997Y1030000D02*
X1532333D01*
X1531000Y1028667D01*
Y1026001D01*
X1532333Y1024668D01*
X1538997D01*
X1531000Y1022003D02*
Y1019337D01*
Y1020670D01*
X1538997D01*
X1537664Y1022003D01*
X1531000Y1010006D02*
Y1015338D01*
X1536332Y1010006D01*
X1537664D01*
X1538997Y1011339D01*
Y1014005D01*
X1537664Y1015338D01*
X2035000Y692997D02*
X2040332Y685000D01*
Y692997D02*
X2035000Y685000D01*
X2042997D02*
X2045663D01*
X2044330D01*
Y692997D01*
X2042997Y691665D01*
X2155000Y693997D02*
X2160332Y686000D01*
Y693997D02*
X2155000Y686000D01*
X2168329D02*
X2162997D01*
X2168329Y691332D01*
Y692664D01*
X2166996Y693997D01*
X2164330D01*
X2162997Y692664D01*
X2475000Y1160997D02*
X2480332Y1153000D01*
Y1160997D02*
X2475000Y1153000D01*
X2482997Y1159665D02*
X2484330Y1160997D01*
X2486996D01*
X2488329Y1159665D01*
Y1158332D01*
X2486996Y1156999D01*
X2485663D01*
X2486996D01*
X2488329Y1155666D01*
Y1154333D01*
X2486996Y1153000D01*
X2484330D01*
X2482997Y1154333D01*
X2473000Y1260997D02*
X2478332Y1253000D01*
Y1260997D02*
X2473000Y1253000D01*
X2484996D02*
Y1260997D01*
X2480997Y1256999D01*
X2486329D01*
X2475000Y1346997D02*
X2480332Y1339000D01*
Y1346997D02*
X2475000Y1339000D01*
X2488329Y1346997D02*
X2485663Y1345665D01*
X2482997Y1342999D01*
Y1340333D01*
X2484330Y1339000D01*
X2486996D01*
X2488329Y1340333D01*
Y1341666D01*
X2486996Y1342999D01*
X2482997D01*
X1833000Y1034997D02*
X1838332Y1027000D01*
Y1034997D02*
X1833000Y1027000D01*
X1840997Y1028333D02*
X1842330Y1027000D01*
X1844996D01*
X1846329Y1028333D01*
Y1033664D01*
X1844996Y1034997D01*
X1842330D01*
X1840997Y1033664D01*
Y1032332D01*
X1842330Y1030999D01*
X1846329D01*
X2346000Y673997D02*
X2351332Y666000D01*
Y673997D02*
X2346000Y666000D01*
X2353997D02*
X2356663D01*
X2355330D01*
Y673997D01*
X2353997Y672664D01*
X2360662D02*
X2361995Y673997D01*
X2364661D01*
X2365993Y672664D01*
Y667333D01*
X2364661Y666000D01*
X2361995D01*
X2360662Y667333D01*
Y672664D01*
X1686000Y1612997D02*
X1691332Y1605000D01*
Y1612997D02*
X1686000Y1605000D01*
X1693997D02*
X1696663D01*
X1695330D01*
Y1612997D01*
X1693997Y1611664D01*
X1700662D02*
X1701995Y1612997D01*
X1704661D01*
X1705994Y1611664D01*
Y1610332D01*
X1704661Y1608999D01*
X1703328D01*
X1704661D01*
X1705994Y1607666D01*
Y1606333D01*
X1704661Y1605000D01*
X1701995D01*
X1700662Y1606333D01*
X1884000Y1431997D02*
X1889332Y1424000D01*
Y1431997D02*
X1884000Y1424000D01*
X1891997D02*
X1894663D01*
X1893330D01*
Y1431997D01*
X1891997Y1430665D01*
X1902661Y1424000D02*
Y1431997D01*
X1898662Y1427999D01*
X1903994D01*
X1518997Y788000D02*
X1511000Y782668D01*
X1518997D02*
X1511000Y788000D01*
Y780003D02*
Y777337D01*
Y778670D01*
X1518997D01*
X1517664Y780003D01*
X1518997Y768006D02*
X1517664Y770672D01*
X1514999Y773338D01*
X1512333D01*
X1511000Y772005D01*
Y769339D01*
X1512333Y768006D01*
X1513666D01*
X1514999Y769339D01*
Y773338D01*
X2393000Y1292003D02*
X2387668Y1300000D01*
Y1292003D02*
X2393000Y1300000D01*
X2385003D02*
X2382337D01*
X2383670D01*
Y1292003D01*
X2385003Y1293336D01*
X2378338Y1292003D02*
X2373006D01*
Y1293336D01*
X2378338Y1298667D01*
Y1300000D01*
X1404620Y965069D02*
X1409952Y957072D01*
Y965069D02*
X1404620Y957072D01*
X1417949Y963736D02*
X1416616Y965069D01*
X1413950D01*
X1412617Y963736D01*
Y962404D01*
X1413950Y961071D01*
X1416616D01*
X1417949Y959738D01*
Y958405D01*
X1416616Y957072D01*
X1413950D01*
X1412617Y958405D01*
X1420615Y957072D02*
X1423281D01*
X1421948D01*
Y965069D01*
X1420615Y963736D01*
X1895000Y1184997D02*
Y1178333D01*
X1896333Y1177000D01*
X1898999D01*
X1900332Y1178333D01*
Y1184997D01*
X1908329Y1177000D02*
X1902997D01*
X1908329Y1182332D01*
Y1183664D01*
X1906996Y1184997D01*
X1904330D01*
X1902997Y1183664D01*
X1770332Y711665D02*
X1768999Y712997D01*
X1766333D01*
X1765000Y711665D01*
Y706333D01*
X1766333Y705000D01*
X1768999D01*
X1770332Y706333D01*
X1778329Y712997D02*
X1772997D01*
Y708999D01*
X1775663Y710332D01*
X1776996D01*
X1778329Y708999D01*
Y706333D01*
X1776996Y705000D01*
X1774330D01*
X1772997Y706333D01*
X1780995Y711665D02*
X1782328Y712997D01*
X1784993D01*
X1786326Y711665D01*
Y710332D01*
X1784993Y708999D01*
X1783661D01*
X1784993D01*
X1786326Y707666D01*
Y706333D01*
X1784993Y705000D01*
X1782328D01*
X1780995Y706333D01*
X1846335Y1538332D02*
X1845003Y1536999D01*
Y1534333D01*
X1846335Y1533000D01*
X1851667D01*
X1853000Y1534333D01*
Y1536999D01*
X1851667Y1538332D01*
X1845003Y1546329D02*
Y1540997D01*
X1849001D01*
X1847668Y1543663D01*
Y1544996D01*
X1849001Y1546329D01*
X1851667D01*
X1853000Y1544996D01*
Y1542330D01*
X1851667Y1540997D01*
X1853000Y1552994D02*
X1845003D01*
X1849001Y1548995D01*
Y1554326D01*
X2027174Y782828D02*
Y790825D01*
X2031173D01*
X2032506Y789492D01*
Y786827D01*
X2031173Y785494D01*
X2027174D01*
X2029840D02*
X2032506Y782828D01*
X2039170D02*
Y790825D01*
X2035171Y786827D01*
X2040503D01*
X1489332Y1120665D02*
X1487999Y1121997D01*
X1485333D01*
X1484000Y1120665D01*
Y1115333D01*
X1485333Y1114000D01*
X1487999D01*
X1489332Y1115333D01*
X1495996Y1114000D02*
Y1121997D01*
X1491997Y1117999D01*
X1497329D01*
X1499995Y1121997D02*
X1505327D01*
Y1120665D01*
X1499995Y1115333D01*
Y1114000D01*
X1501646Y1615246D02*
X1500313Y1616579D01*
X1497647D01*
X1496314Y1615246D01*
Y1609915D01*
X1497647Y1608582D01*
X1500313D01*
X1501646Y1609915D01*
X1509643Y1608582D02*
X1504311D01*
X1509643Y1613914D01*
Y1615246D01*
X1508310Y1616579D01*
X1505644D01*
X1504311Y1615246D01*
X1517640Y1616579D02*
X1512309D01*
Y1612581D01*
X1514975Y1613914D01*
X1516308D01*
X1517640Y1612581D01*
Y1609915D01*
X1516308Y1608582D01*
X1513642D01*
X1512309Y1609915D01*
X1445332Y1538665D02*
X1443999Y1539997D01*
X1441333D01*
X1440000Y1538665D01*
Y1533333D01*
X1441333Y1532000D01*
X1443999D01*
X1445332Y1533333D01*
X1453329Y1532000D02*
X1447997D01*
X1453329Y1537332D01*
Y1538665D01*
X1451996Y1539997D01*
X1449330D01*
X1447997Y1538665D01*
X1459993Y1532000D02*
Y1539997D01*
X1455995Y1535999D01*
X1461326D01*
X1615948Y1562985D02*
X1621280Y1554988D01*
Y1562985D02*
X1615948Y1554988D01*
X1629277Y1562985D02*
X1623945D01*
Y1558987D01*
X1626611Y1560320D01*
X1627944D01*
X1629277Y1558987D01*
Y1556321D01*
X1627944Y1554988D01*
X1625278D01*
X1623945Y1556321D01*
X1856000Y1515997D02*
X1861332Y1508000D01*
Y1515997D02*
X1856000Y1508000D01*
X1863997Y1515997D02*
X1869329D01*
Y1514664D01*
X1863997Y1509333D01*
Y1508000D01*
X2258000Y728000D02*
Y735997D01*
X2261999D01*
X2263332Y734665D01*
Y731999D01*
X2261999Y730666D01*
X2258000D01*
X2260666D02*
X2263332Y728000D01*
X2271329Y735997D02*
X2265997D01*
Y728000D01*
X2271329D01*
X2265997Y731999D02*
X2268663D01*
X2279326Y734665D02*
X2277994Y735997D01*
X2275328D01*
X2273995Y734665D01*
Y733332D01*
X2275328Y731999D01*
X2277994D01*
X2279326Y730666D01*
Y729333D01*
X2277994Y728000D01*
X2275328D01*
X2273995Y729333D01*
X2287324Y735997D02*
X2281992D01*
Y728000D01*
X2287324D01*
X2281992Y731999D02*
X2284658D01*
X2289990Y735997D02*
X2295321D01*
X2292655D01*
Y728000D01*
X2016000Y733997D02*
Y726000D01*
X2019999D01*
X2021332Y727333D01*
Y728666D01*
X2019999Y729999D01*
X2016000D01*
X2019999D01*
X2021332Y731332D01*
Y732664D01*
X2019999Y733997D01*
X2016000D01*
X2027996D02*
X2025330D01*
X2023997Y732664D01*
Y727333D01*
X2025330Y726000D01*
X2027996D01*
X2029329Y727333D01*
Y732664D01*
X2027996Y733997D01*
X2035994D02*
X2033328D01*
X2031995Y732664D01*
Y727333D01*
X2033328Y726000D01*
X2035994D01*
X2037327Y727333D01*
Y732664D01*
X2035994Y733997D01*
X2039992D02*
X2045324D01*
X2042658D01*
Y726000D01*
D74*
X2025000Y1165000D02*
G03*
X2025000Y1165000I-3000J0D01*
G01*
X1685000Y1094000D02*
G03*
X1685000Y1094000I-3000J0D01*
G01*
X1517500Y1050000D02*
G03*
X1517500Y1050000I-3000J0D01*
G01*
D75*
X2535000Y786000D02*
G03*
X2535000Y786000I-1000J0D01*
G01*
X1581236Y1222000D02*
G03*
X1581236Y1222000I-2236J0D01*
G01*
D76*
X2625774Y1510000D02*
G03*
X2625774Y1510000I-61774J0D01*
G01*
X2429000Y1441000D02*
Y1506000D01*
Y1330000D02*
Y1413000D01*
X2428000Y1583000D02*
Y1613000D01*
X2146000Y1612000D02*
X2147000Y1613000D01*
X2146000Y1583000D02*
Y1612000D01*
X2147000Y1331000D02*
Y1533000D01*
Y1613000D02*
X2428000D01*
X2372000Y672700D02*
X2529500D01*
Y647300D02*
Y672700D01*
X2372000Y647300D02*
X2529500D01*
X2372000D02*
Y672700D01*
X1777200Y1616800D02*
X1803800Y1590200D01*
X1715500Y1616800D02*
X1777200D01*
X1715500Y1515200D02*
X1777200D01*
X1803800Y1541800D01*
Y1590200D01*
X1908000Y1520500D02*
Y1570500D01*
Y1520500D02*
X1913000Y1525500D01*
X1908000Y1520500D02*
X1908000D01*
X1903000Y1525500D02*
X1908000Y1520500D01*
X1505200Y809000D02*
X1530600D01*
X1517900Y796300D02*
Y821700D01*
X1405000Y712800D02*
Y822000D01*
Y712800D02*
X1503000D01*
Y822000D01*
X1405000D02*
X1503000D01*
X2028350Y1607220D02*
X2033285Y1612155D01*
X1924210Y1607220D02*
X2028350D01*
X1919910Y1611520D02*
X1924210Y1607220D01*
X1912780Y1396400D02*
X1939450Y1369730D01*
X1912780Y1396400D02*
Y1520000D01*
X1939450Y1369730D02*
X2033430D01*
X1873410Y1612010D02*
X2123409D01*
Y1290799D02*
Y1612010D01*
X2122330Y1289720D02*
X2123409Y1290799D01*
X1873410Y1289720D02*
X2122330D01*
X1873410D02*
Y1612010D01*
X2070000Y1510000D02*
Y1587500D01*
Y1510000D02*
X2082500Y1522500D01*
X2057500D02*
X2070000Y1510000D01*
D77*
X1821000Y743000D02*
X1830000Y752000D01*
X1821000Y640000D02*
Y743000D01*
Y640000D02*
X1941000D01*
Y752000D01*
X1830000D02*
X1941000D01*
X1530000Y1522500D02*
Y1595500D01*
X1576000Y1522500D02*
Y1595500D01*
X1530000Y1522500D02*
X1531250D01*
X1530000Y1595500D02*
X1531250D01*
X1574750Y1522500D02*
X1576000D01*
X1574750Y1595500D02*
X1576000D01*
X1602500Y786000D02*
Y852000D01*
X1567500Y786000D02*
Y852000D01*
X1601250D02*
X1602500D01*
X1601250Y786000D02*
X1602500D01*
X1567500Y852000D02*
X1568750D01*
X1567500Y786000D02*
X1568750D01*
X1796500Y642000D02*
Y643250D01*
X1723500Y642000D02*
Y643250D01*
X1796500Y686750D02*
Y688000D01*
X1723500Y686750D02*
Y688000D01*
Y642000D02*
X1796500D01*
X1723500Y688000D02*
X1796500D01*
X2698500Y1268000D02*
X2699500D01*
X2698500Y1280000D02*
X2699500D01*
X2698500Y1314000D02*
X2699500D01*
X2698500Y1302000D02*
X2699500D01*
Y1334000D02*
X2700500D01*
X2699500Y1346000D02*
X2700500D01*
Y1378000D02*
X2701500D01*
X2700500Y1366000D02*
X2701500D01*
X1784000Y728000D02*
Y732750D01*
X1738000Y728000D02*
Y732750D01*
X1784000Y763250D02*
Y768000D01*
X1738000Y763250D02*
Y768000D01*
Y728000D02*
X1784000D01*
X1738000Y768000D02*
X1784000D01*
X1708000Y956500D02*
Y957500D01*
X1696000Y956500D02*
Y957500D01*
X1975000Y977500D02*
Y978500D01*
X1963000Y977500D02*
Y978500D01*
X1626500Y876500D02*
Y907500D01*
X1751500Y876500D02*
Y907500D01*
X1626500Y782500D02*
Y813500D01*
X1751500Y782500D02*
Y813500D01*
X1626500Y907500D02*
X1751500D01*
X1626500Y782500D02*
X1751500D01*
X2106500Y774000D02*
X2107500D01*
X2106500Y754000D02*
X2107500D01*
X2459000Y1192500D02*
Y1193500D01*
X2439000Y1192500D02*
Y1193500D01*
X1932500Y1060500D02*
X1933500D01*
X1932500Y1080500D02*
X1933500D01*
X1932500Y1055000D02*
X1933500D01*
X1932500Y1035000D02*
X1933500D01*
X2007000Y1230500D02*
Y1231500D01*
X1987000Y1230500D02*
Y1231500D01*
X2461000Y1287500D02*
Y1288500D01*
X2441000Y1287500D02*
Y1288500D01*
X2179500Y811000D02*
X2180500D01*
X2179500Y791000D02*
X2180500D01*
X2461000Y1377500D02*
Y1378500D01*
X2441000Y1377500D02*
Y1378500D01*
X2652500Y1284000D02*
X2653500D01*
X2652500Y1264000D02*
X2653500D01*
X2652500Y1297000D02*
X2653500D01*
X2652500Y1317000D02*
X2653500D01*
Y1349000D02*
X2654500D01*
X2653500Y1329000D02*
X2654500D01*
X1979000Y1025500D02*
Y1026500D01*
X1959000Y1025500D02*
Y1026500D01*
X2654500Y1381000D02*
X2655500D01*
X2654500Y1361000D02*
X2655500D01*
X2114000Y971500D02*
Y972500D01*
X2094000Y971500D02*
Y972500D01*
X1781500Y993000D02*
X1782500D01*
X1781500Y973000D02*
X1782500D01*
X1534000Y1292500D02*
Y1293500D01*
X1514000Y1292500D02*
Y1293500D01*
X1490500Y1329000D02*
X1491500D01*
X1490500Y1309000D02*
X1491500D01*
X1681000Y1024500D02*
Y1025500D01*
X1701000Y1024500D02*
Y1025500D01*
X1675000Y1024500D02*
Y1025500D01*
X1655000Y1024500D02*
Y1025500D01*
X1644000Y1170500D02*
Y1171500D01*
X1664000Y1170500D02*
Y1171500D01*
X1727000Y1024500D02*
Y1025500D01*
X1707000Y1024500D02*
Y1025500D01*
X1730000Y1024500D02*
Y1025500D01*
X1750000Y1024500D02*
Y1025500D01*
X1475000Y1218500D02*
Y1219500D01*
X1495000Y1218500D02*
Y1219500D01*
X1473000Y1218500D02*
Y1219500D01*
X1453000Y1218500D02*
Y1219500D01*
X1621000Y743500D02*
Y744500D01*
X1601000Y743500D02*
Y744500D01*
X1647000Y743500D02*
Y744500D01*
X1627000Y743500D02*
Y744500D01*
X1676500Y666000D02*
X1677500D01*
X1676500Y686000D02*
X1677500D01*
X2012000Y1043000D02*
X2144000D01*
X2012000Y1175000D02*
X2144000D01*
Y1043000D02*
Y1175000D01*
X2012000Y1043000D02*
Y1175000D01*
X2521000Y949000D02*
X2523000Y947000D01*
X2518000Y949000D02*
X2521000D01*
X2401000Y947000D02*
X2403000Y949000D01*
X2401000Y790000D02*
X2405000Y786000D01*
X2520000D02*
X2523000Y789000D01*
X1484000Y1277000D02*
X1494000D01*
X1484000D02*
Y1285000D01*
Y1307000D02*
X1494000D01*
X1484000Y1299000D02*
Y1307000D01*
X1587000Y1339000D02*
Y1365000D01*
Y1230000D02*
Y1242000D01*
Y1230000D02*
X1601000D01*
X1697000D02*
X1722000D01*
X1817000D02*
X1831000D01*
Y1244000D01*
Y1340000D02*
Y1365000D01*
Y1460000D02*
Y1474000D01*
X1816000D02*
X1831000D01*
X1696000D02*
X1722000D01*
X1587000D02*
X1600000D01*
X1587000Y1462000D02*
Y1474000D01*
X1672000Y1084000D02*
X1758000D01*
X1672000Y1116000D02*
X1758000D01*
X1672000Y1084000D02*
Y1116000D01*
X1758000Y1084000D02*
Y1116000D01*
X1706000Y711000D02*
Y743000D01*
X1656000Y711000D02*
Y743000D01*
X1746000Y920500D02*
Y951500D01*
X1736000Y920500D02*
Y951500D01*
Y920500D02*
X1746000D01*
X1736000Y951500D02*
X1746000D01*
X2125060Y640000D02*
X2133780D01*
Y744000D01*
X2048690D02*
X2133780D01*
X2048690Y640000D02*
Y744000D01*
Y640000D02*
X2125060D01*
X2170690D02*
X2247060D01*
X2170690D02*
Y744000D01*
X2255780D01*
Y640000D02*
Y744000D01*
X2247060Y640000D02*
X2255780D01*
X1883000Y1438000D02*
X2048000D01*
X1883000D02*
Y1598000D01*
X2048000D01*
Y1438000D02*
Y1598000D01*
X1517000Y830000D02*
Y941000D01*
X1405000Y830000D02*
X1517000D01*
X1405000D02*
Y950000D01*
X1508000D01*
X1517000Y941000D01*
X1877500Y1144250D02*
Y1144750D01*
X1957500Y1144250D02*
Y1144750D01*
X2049500Y773000D02*
X2050500D01*
X2049500Y753000D02*
X2050500D01*
X1445500Y1464000D02*
X1518500D01*
X1445500Y1510000D02*
X1518500D01*
Y1464000D02*
Y1465250D01*
X1445500Y1464000D02*
Y1465250D01*
X1518500Y1508750D02*
Y1510000D01*
X1445500Y1508750D02*
Y1510000D01*
X1444500Y1406000D02*
X1517500D01*
X1444500Y1452000D02*
X1517500D01*
Y1406000D02*
Y1407250D01*
X1444500Y1406000D02*
Y1407250D01*
X1517500Y1450750D02*
Y1452000D01*
X1444500Y1450750D02*
Y1452000D01*
Y1349000D02*
X1517500D01*
X1444500Y1395000D02*
X1517500D01*
Y1349000D02*
Y1350250D01*
X1444500Y1349000D02*
Y1350250D01*
X1517500Y1393750D02*
Y1395000D01*
X1444500Y1393750D02*
Y1395000D01*
X1517000Y1236000D02*
X1527000D01*
Y1228000D02*
Y1236000D01*
X1517000Y1206000D02*
X1527000D01*
Y1214000D01*
X1419500Y1012000D02*
Y1060000D01*
X1524500Y1012000D02*
Y1060000D01*
X1419500Y1012000D02*
X1524500D01*
X1419500Y1060000D02*
X1524500D01*
X1684000Y942500D02*
Y943500D01*
X1664000Y942500D02*
Y943500D01*
X1853000Y965500D02*
Y1079500D01*
X1900000Y965500D02*
Y1079500D01*
X1853000Y965500D02*
X1869250D01*
X1853000Y1079500D02*
X1869250D01*
X1883750Y965500D02*
X1900000D01*
X1883750Y1079500D02*
X1900000D01*
X1626000Y1541000D02*
X1632000D01*
X1650000D02*
X1656000D01*
X1626000Y1510000D02*
X1656000D01*
X2493170Y1252010D02*
Y1328380D01*
X2597170D01*
Y1243290D02*
Y1328380D01*
X2493170Y1243290D02*
X2597170D01*
X2493170D02*
Y1252010D01*
X2492170Y1150040D02*
Y1158760D01*
Y1150040D02*
X2596170D01*
Y1235130D01*
X2492170D02*
X2596170D01*
X2492170Y1158760D02*
Y1235130D01*
X2493000Y1336220D02*
Y1344940D01*
Y1336220D02*
X2597000D01*
Y1421310D01*
X2493000D02*
X2597000D01*
X2493000Y1344940D02*
Y1421310D01*
M02*
