G04 Layer_Color=32768*
%FSLAX44Y44*%
%MOMM*%
G71*
G01*
G75*
%ADD66C,0.1000*%
%ADD119C,0.0500*%
D66*
X1686500Y1193750D02*
Y1203750D01*
X1681500Y1198750D02*
X1691500D01*
X2900000Y1325000D02*
Y1335000D01*
X2895000Y1330000D02*
X2905000D01*
X1825000Y1432000D02*
Y1442000D01*
X1820000Y1437000D02*
X1830000D01*
X2965000Y1323000D02*
X2975000D01*
X2970000Y1318000D02*
Y1328000D01*
X2895000Y1450000D02*
X2905000D01*
X2900000Y1445000D02*
Y1455000D01*
X1683500Y1436500D02*
X1693500D01*
X1688500Y1431500D02*
Y1441500D01*
X2965000Y1368000D02*
X2975000D01*
X2970000Y1363000D02*
Y1373000D01*
X2965000Y1276000D02*
X2975000D01*
X2970000Y1271000D02*
Y1281000D01*
X1606000Y1192000D02*
X1616000D01*
X1611000Y1187000D02*
Y1197000D01*
X2868000Y1257000D02*
X2878000D01*
X2873000Y1252000D02*
Y1262000D01*
X2980000Y1490000D02*
Y1500000D01*
X2975000Y1495000D02*
X2985000D01*
X2980000Y1445000D02*
Y1455000D01*
X2975000Y1450000D02*
X2985000D01*
X1683000Y1123000D02*
X1693000D01*
X1688000Y1118000D02*
Y1128000D01*
X1795500Y1431500D02*
Y1441500D01*
X1790500Y1436500D02*
X1800500D01*
X1767500Y1431500D02*
Y1441500D01*
X1762500Y1436500D02*
X1772500D01*
X1739500Y1431500D02*
Y1441500D01*
X1734500Y1436500D02*
X1744500D01*
X1620750Y1455000D02*
X1630750D01*
X1625750Y1450000D02*
Y1460000D01*
X1621000Y1425000D02*
X1631000D01*
X1626000Y1420000D02*
Y1430000D01*
X1695500Y1256750D02*
Y1266750D01*
X1690500Y1261750D02*
X1700500D01*
X2553000Y883000D02*
Y893000D01*
X2548000Y888000D02*
X2558000D01*
X2350000Y775000D02*
X2360000D01*
X2355000Y770000D02*
Y780000D01*
X2350000Y798000D02*
X2360000D01*
X2355000Y793000D02*
Y803000D01*
X1559000Y1093000D02*
Y1103000D01*
X1554000Y1098000D02*
X1564000D01*
X2050000Y758000D02*
Y768000D01*
X2045000Y763000D02*
X2055000D01*
X1737000Y709000D02*
X1747000D01*
X1742000Y704000D02*
Y714000D01*
X1912500Y1144500D02*
X1922500D01*
X1917500Y1139500D02*
Y1149500D01*
X1876500Y1017500D02*
Y1027500D01*
X1871500Y1022500D02*
X1881500D01*
X1583000Y1026000D02*
X1593000D01*
X1588000Y1021000D02*
Y1031000D01*
X1736000Y936000D02*
X1746000D01*
X1741000Y931000D02*
Y941000D01*
X1676000Y727000D02*
X1686000D01*
X1681000Y722000D02*
Y732000D01*
X2073000Y1109000D02*
X2083000D01*
X2078000Y1104000D02*
Y1114000D01*
X1672000Y676000D02*
X1682000D01*
X1677000Y671000D02*
Y681000D01*
X1632000Y744000D02*
X1642000D01*
X1637000Y739000D02*
Y749000D01*
X1611000Y739000D02*
Y749000D01*
X1606000Y744000D02*
X1616000D01*
X1669000Y943000D02*
X1679000D01*
X1674000Y938000D02*
Y948000D01*
X2104000Y967000D02*
Y977000D01*
X2099000Y972000D02*
X2109000D01*
X2655000Y1366000D02*
Y1376000D01*
X2650000Y1371000D02*
X2660000D01*
X1969000Y1021000D02*
Y1031000D01*
X1964000Y1026000D02*
X1974000D01*
X2654000Y1334000D02*
Y1344000D01*
X2649000Y1339000D02*
X2659000D01*
X2648000Y1307000D02*
X2658000D01*
X2653000Y1302000D02*
Y1312000D01*
X2653000Y1269000D02*
Y1279000D01*
X2648000Y1274000D02*
X2658000D01*
X2451000Y1373000D02*
Y1383000D01*
X2446000Y1378000D02*
X2456000D01*
X2180000Y796000D02*
Y806000D01*
X2175000Y801000D02*
X2185000D01*
X2451000Y1283000D02*
Y1293000D01*
X2446000Y1288000D02*
X2456000D01*
X1992000Y1231000D02*
X2002000D01*
X1997000Y1226000D02*
Y1236000D01*
X1928000Y1045000D02*
X1938000D01*
X1933000Y1040000D02*
Y1050000D01*
Y1065500D02*
Y1075500D01*
X1928000Y1070500D02*
X1938000D01*
X2449000Y1188000D02*
Y1198000D01*
X2444000Y1193000D02*
X2454000D01*
X2107000Y759000D02*
Y769000D01*
X2102000Y764000D02*
X2112000D01*
X1684000Y845000D02*
X1694000D01*
X1689000Y840000D02*
Y850000D01*
X1964000Y978000D02*
X1974000D01*
X1969000Y973000D02*
Y983000D01*
X1702000Y952000D02*
Y962000D01*
X1697000Y957000D02*
X1707000D01*
X1756000Y748000D02*
X1766000D01*
X1761000Y743000D02*
Y753000D01*
X2701000Y1367000D02*
Y1377000D01*
X2696000Y1372000D02*
X2706000D01*
X2695000Y1340000D02*
X2705000D01*
X2700000Y1335000D02*
Y1345000D01*
X2699000Y1303000D02*
Y1313000D01*
X2694000Y1308000D02*
X2704000D01*
X2694000Y1274000D02*
X2704000D01*
X2699000Y1269000D02*
Y1279000D01*
X1789000Y927000D02*
X1799000D01*
X1794000Y922000D02*
Y932000D01*
X1789000Y898000D02*
X1799000D01*
X1794000Y893000D02*
Y903000D01*
X1789000Y869000D02*
X1799000D01*
X1794000Y864000D02*
Y874000D01*
X1647000Y938000D02*
Y948000D01*
X1642000Y943000D02*
X1652000D01*
X1619000Y938000D02*
Y948000D01*
X1614000Y943000D02*
X1624000D01*
X1611000Y686000D02*
Y696000D01*
X1606000Y691000D02*
X1616000D01*
X1638000Y686000D02*
Y696000D01*
X1633000Y691000D02*
X1643000D01*
X1755000Y665000D02*
X1765000D01*
X1760000Y660000D02*
Y670000D01*
X1580000Y819000D02*
X1590000D01*
X1585000Y814000D02*
Y824000D01*
X2423000Y1053000D02*
Y1063000D01*
X2418000Y1058000D02*
X2428000D01*
X2452000Y1053000D02*
Y1063000D01*
X2447000Y1058000D02*
X2457000D01*
X2394000Y1053000D02*
Y1063000D01*
X2389000Y1058000D02*
X2399000D01*
X2364000Y1053000D02*
Y1063000D01*
X2359000Y1058000D02*
X2369000D01*
X1935000Y1102000D02*
X1945000D01*
X1940000Y1097000D02*
Y1107000D01*
X1935000Y1187000D02*
X1945000D01*
X1940000Y1182000D02*
Y1192000D01*
X1935000Y1220000D02*
X1945000D01*
X1940000Y1215000D02*
Y1225000D01*
X2032000Y959000D02*
Y969000D01*
X2027000Y964000D02*
X2037000D01*
X2004000Y959000D02*
Y969000D01*
X1999000Y964000D02*
X2009000D01*
X2138000Y973000D02*
Y983000D01*
X2133000Y978000D02*
X2143000D01*
X2179000Y1229000D02*
Y1239000D01*
X2174000Y1234000D02*
X2184000D01*
X1928000Y1010000D02*
X1938000D01*
X1933000Y1005000D02*
Y1015000D01*
X1928000Y983000D02*
X1938000D01*
X1933000Y978000D02*
Y988000D01*
X2147000Y1229000D02*
Y1239000D01*
X2142000Y1234000D02*
X2152000D01*
X2054000Y1226000D02*
Y1236000D01*
X2049000Y1231000D02*
X2059000D01*
X2008000Y1002000D02*
X2018000D01*
X2013000Y997000D02*
Y1007000D01*
X2058000Y959000D02*
Y969000D01*
X2053000Y964000D02*
X2063000D01*
X2026000Y1226000D02*
Y1236000D01*
X2021000Y1231000D02*
X2031000D01*
X2183000Y1176000D02*
Y1186000D01*
X2178000Y1181000D02*
X2188000D01*
X2165000Y973000D02*
Y983000D01*
X2160000Y978000D02*
X2170000D01*
X1890000Y1102000D02*
X1900000D01*
X1895000Y1097000D02*
Y1107000D01*
X1836500Y977500D02*
Y987500D01*
X1831500Y982500D02*
X1841500D01*
X1836500Y1057500D02*
Y1067500D01*
X1831500Y1062500D02*
X1841500D01*
X2478000Y1373000D02*
Y1383000D01*
X2473000Y1378000D02*
X2483000D01*
X2478000Y1283000D02*
Y1293000D01*
X2473000Y1288000D02*
X2483000D01*
X2476000Y1188000D02*
Y1198000D01*
X2471000Y1193000D02*
X2481000D01*
X2175000Y775000D02*
X2185000D01*
X2180000Y770000D02*
Y780000D01*
X1541000Y869000D02*
X1551000D01*
X1546000Y864000D02*
Y874000D01*
X2272000Y1278000D02*
Y1288000D01*
X2267000Y1283000D02*
X2277000D01*
X2328000Y1278000D02*
Y1288000D01*
X2323000Y1283000D02*
X2333000D01*
X1670000Y1074000D02*
X1680000D01*
X1675000Y1069000D02*
Y1079000D01*
X1670000Y1047000D02*
X1680000D01*
X1675000Y1042000D02*
Y1052000D01*
X1670000Y1020000D02*
X1680000D01*
X1675000Y1015000D02*
Y1025000D01*
X2899000Y683000D02*
Y693000D01*
X2894000Y688000D02*
X2904000D01*
X2966000Y719000D02*
X2976000D01*
X2971000Y714000D02*
Y724000D01*
X2894000Y730000D02*
X2904000D01*
X2899000Y725000D02*
Y735000D01*
X2827000Y1397000D02*
Y1407000D01*
X2822000Y1402000D02*
X2832000D01*
X2827000Y1318000D02*
Y1328000D01*
X2822000Y1323000D02*
X2832000D01*
X2827000Y1437000D02*
Y1447000D01*
X2822000Y1442000D02*
X2832000D01*
X2827000Y1359000D02*
Y1369000D01*
X2822000Y1364000D02*
X2832000D01*
X1611000Y1139000D02*
Y1149000D01*
X1606000Y1144000D02*
X1616000D01*
D119*
X1649500Y1245250D02*
X1723500D01*
X1649500Y1152250D02*
X1723500D01*
X1649500D02*
Y1245250D01*
X1723500Y1152250D02*
Y1245250D01*
X2853500Y1367000D02*
X2946500D01*
X2853500Y1293000D02*
X2946500D01*
Y1367000D01*
X2853500Y1293000D02*
Y1367000D01*
X1812000Y1459000D02*
X1838000D01*
X1812000Y1415000D02*
X1838000D01*
Y1459000D01*
X1812000Y1415000D02*
Y1459000D01*
X2982500Y1301000D02*
Y1345000D01*
X2957500Y1301000D02*
Y1345000D01*
X2982500D01*
X2957500Y1301000D02*
X2982500D01*
X2957500Y1398500D02*
Y1501500D01*
X2842500Y1398500D02*
Y1501500D01*
X2957500D01*
X2842500Y1398500D02*
X2957500D01*
X1663000Y1416000D02*
Y1457000D01*
X1714000Y1416000D02*
Y1457000D01*
X1663000D02*
X1714000D01*
X1663000Y1416000D02*
X1714000D01*
X2957500Y1346000D02*
Y1390000D01*
X2982500Y1346000D02*
Y1390000D01*
X2957500Y1346000D02*
X2982500D01*
X2957500Y1390000D02*
X2982500D01*
X2957500Y1254000D02*
Y1298000D01*
X2982500Y1254000D02*
Y1298000D01*
X2957500Y1254000D02*
X2982500D01*
X2957500Y1298000D02*
X2982500D01*
X1623500Y1170000D02*
Y1214000D01*
X1598500Y1170000D02*
Y1214000D01*
X1623500D01*
X1598500Y1170000D02*
X1623500D01*
X2885500Y1235000D02*
Y1279000D01*
X2860500Y1235000D02*
Y1279000D01*
X2885500D01*
X2860500Y1235000D02*
X2885500D01*
X2967000Y1473000D02*
X2993000D01*
X2967000Y1517000D02*
X2993000D01*
X2967000Y1473000D02*
Y1517000D01*
X2993000Y1473000D02*
Y1517000D01*
X2967000Y1428000D02*
X2993000D01*
X2967000Y1472000D02*
X2993000D01*
X2967000Y1428000D02*
Y1472000D01*
X2993000Y1428000D02*
Y1472000D01*
X1666000Y1110000D02*
Y1136000D01*
X1710000Y1110000D02*
Y1136000D01*
X1666000D02*
X1710000D01*
X1666000Y1110000D02*
X1710000D01*
X1782500Y1458500D02*
X1808500D01*
X1782500Y1414500D02*
X1808500D01*
Y1458500D01*
X1782500Y1414500D02*
Y1458500D01*
X1754500D02*
X1780500D01*
X1754500Y1414500D02*
X1780500D01*
Y1458500D01*
X1754500Y1414500D02*
Y1458500D01*
X1726500D02*
X1752500D01*
X1726500Y1414500D02*
X1752500D01*
Y1458500D01*
X1726500Y1414500D02*
Y1458500D01*
X1647750Y1442000D02*
Y1468000D01*
X1603750Y1442000D02*
Y1468000D01*
Y1442000D02*
X1647750D01*
X1603750Y1468000D02*
X1647750D01*
X1648000Y1412000D02*
Y1438000D01*
X1604000Y1412000D02*
Y1438000D01*
Y1412000D02*
X1648000D01*
X1604000Y1438000D02*
X1648000D01*
X1673500Y1274250D02*
X1717500D01*
X1673500Y1249250D02*
X1717500D01*
X1673500D02*
Y1274250D01*
X1717500Y1249250D02*
Y1274250D01*
X2540000Y910000D02*
X2566000D01*
X2540000Y866000D02*
X2566000D01*
Y910000D01*
X2540000Y866000D02*
Y910000D01*
X2377000Y762000D02*
Y788000D01*
X2333000Y762000D02*
Y788000D01*
Y762000D02*
X2377000D01*
X2333000Y788000D02*
X2377000D01*
Y785000D02*
Y811000D01*
X2333000Y785000D02*
Y811000D01*
Y785000D02*
X2377000D01*
X2333000Y811000D02*
X2377000D01*
X1546000Y1076000D02*
X1572000D01*
X1546000Y1120000D02*
X1572000D01*
X1546000Y1076000D02*
Y1120000D01*
X1572000Y1076000D02*
Y1120000D01*
X2028000Y750500D02*
X2072000D01*
X2028000Y775500D02*
X2072000D01*
Y750500D02*
Y775500D01*
X2028000Y750500D02*
Y775500D01*
X1720000Y696000D02*
Y722000D01*
X1764000Y696000D02*
Y722000D01*
X1720000D02*
X1764000D01*
X1720000Y696000D02*
X1764000D01*
X1872500Y1116500D02*
Y1172500D01*
X1962500Y1116500D02*
Y1172500D01*
X1872500Y1116500D02*
X1962500D01*
X1872500Y1172500D02*
X1962500D01*
X1852000Y956250D02*
X1901000D01*
X1852000Y1088750D02*
X1901000D01*
X1852000Y956250D02*
Y1088750D01*
X1901000Y956250D02*
Y1088750D01*
X1530500Y974500D02*
Y1077500D01*
X1645500Y974500D02*
Y1077500D01*
X1530500Y974500D02*
X1645500D01*
X1530500Y1077500D02*
X1645500D01*
X1715500Y915500D02*
Y956500D01*
X1766500Y915500D02*
Y956500D01*
X1715500D02*
X1766500D01*
X1715500Y915500D02*
X1766500D01*
X1653500Y690000D02*
Y764000D01*
X1708500Y690000D02*
Y764000D01*
X1653500Y690000D02*
X1708500D01*
X1653500Y764000D02*
X1708500D01*
X1986500Y1017500D02*
Y1200500D01*
X2169500Y1017500D02*
Y1200500D01*
X1986500D02*
X2169500D01*
X1986500Y1017500D02*
X2169500D01*
X1655000Y663500D02*
Y688500D01*
X1699000Y663500D02*
Y688500D01*
X1655000D02*
X1699000D01*
X1655000Y663500D02*
X1699000D01*
X1624500Y722000D02*
Y766000D01*
X1649500Y722000D02*
Y766000D01*
X1624500Y722000D02*
X1649500D01*
X1624500Y766000D02*
X1649500D01*
X1598500Y722000D02*
X1623500D01*
X1598500Y766000D02*
X1623500D01*
X1598500Y722000D02*
Y766000D01*
X1623500Y722000D02*
Y766000D01*
X1661500Y921000D02*
Y965000D01*
X1686500Y921000D02*
Y965000D01*
X1661500Y921000D02*
X1686500D01*
X1661500Y965000D02*
X1686500D01*
X2091500Y950000D02*
X2116500D01*
X2091500Y994000D02*
X2116500D01*
X2091500Y950000D02*
Y994000D01*
X2116500Y950000D02*
Y994000D01*
X2633000Y1358500D02*
X2677000D01*
X2633000Y1383500D02*
X2677000D01*
Y1358500D02*
Y1383500D01*
X2633000Y1358500D02*
Y1383500D01*
X1956500Y1004000D02*
X1981500D01*
X1956500Y1048000D02*
X1981500D01*
X1956500Y1004000D02*
Y1048000D01*
X1981500Y1004000D02*
Y1048000D01*
X2632000Y1326500D02*
X2676000D01*
X2632000Y1351500D02*
X2676000D01*
Y1326500D02*
Y1351500D01*
X2632000Y1326500D02*
Y1351500D01*
X2631000Y1294500D02*
Y1319500D01*
X2675000Y1294500D02*
Y1319500D01*
X2631000D02*
X2675000D01*
X2631000Y1294500D02*
X2675000D01*
X2631000Y1261500D02*
X2675000D01*
X2631000Y1286500D02*
X2675000D01*
Y1261500D02*
Y1286500D01*
X2631000Y1261500D02*
Y1286500D01*
X2438500Y1356000D02*
X2463500D01*
X2438500Y1400000D02*
X2463500D01*
X2438500Y1356000D02*
Y1400000D01*
X2463500Y1356000D02*
Y1400000D01*
X2158000Y788500D02*
X2202000D01*
X2158000Y813500D02*
X2202000D01*
Y788500D02*
Y813500D01*
X2158000Y788500D02*
Y813500D01*
X2438500Y1266000D02*
X2463500D01*
X2438500Y1310000D02*
X2463500D01*
X2438500Y1266000D02*
Y1310000D01*
X2463500Y1266000D02*
Y1310000D01*
X1984500Y1209000D02*
Y1253000D01*
X2009500Y1209000D02*
Y1253000D01*
X1984500Y1209000D02*
X2009500D01*
X1984500Y1253000D02*
X2009500D01*
X1955000Y1032500D02*
Y1057500D01*
X1911000Y1032500D02*
Y1057500D01*
Y1032500D02*
X1955000D01*
X1911000Y1057500D02*
X1955000D01*
X1911000Y1083000D02*
X1955000D01*
X1911000Y1058000D02*
X1955000D01*
X1911000D02*
Y1083000D01*
X1955000Y1058000D02*
Y1083000D01*
X2436500Y1171000D02*
X2461500D01*
X2436500Y1215000D02*
X2461500D01*
X2436500Y1171000D02*
Y1215000D01*
X2461500Y1171000D02*
Y1215000D01*
X2085000Y751500D02*
X2129000D01*
X2085000Y776500D02*
X2129000D01*
Y751500D02*
Y776500D01*
X2085000Y751500D02*
Y776500D01*
X1759750Y780000D02*
Y910000D01*
X1618250Y780000D02*
Y910000D01*
Y780000D02*
X1759750D01*
X1618250Y910000D02*
X1759750D01*
X1978500Y961000D02*
Y995000D01*
X1959500Y961000D02*
Y995000D01*
X1978500D01*
X1959500Y961000D02*
X1978500D01*
X1692500Y974000D02*
X1711500D01*
X1692500Y940000D02*
X1711500D01*
Y974000D01*
X1692500Y940000D02*
Y974000D01*
X1729500Y726500D02*
Y769500D01*
X1792500Y726500D02*
Y769500D01*
X1729500D02*
X1792500D01*
X1729500Y726500D02*
X1792500D01*
X2684000Y1381500D02*
X2718000D01*
X2684000Y1362500D02*
X2718000D01*
X2684000D02*
Y1381500D01*
X2718000Y1362500D02*
Y1381500D01*
X2717000Y1330500D02*
Y1349500D01*
X2683000Y1330500D02*
Y1349500D01*
Y1330500D02*
X2717000D01*
X2683000Y1349500D02*
X2717000D01*
X2682000Y1317500D02*
X2716000D01*
X2682000Y1298500D02*
X2716000D01*
X2682000D02*
Y1317500D01*
X2716000Y1298500D02*
Y1317500D01*
X2716000Y1264500D02*
Y1283500D01*
X2682000Y1264500D02*
Y1283500D01*
Y1264500D02*
X2716000D01*
X2682000Y1283500D02*
X2716000D01*
X1772000Y914000D02*
Y940000D01*
X1816000Y914000D02*
Y940000D01*
X1772000D02*
X1816000D01*
X1772000Y914000D02*
X1816000D01*
X1772000Y885000D02*
Y911000D01*
X1816000Y885000D02*
Y911000D01*
X1772000D02*
X1816000D01*
X1772000Y885000D02*
X1816000D01*
X1772000Y856000D02*
Y882000D01*
X1816000Y856000D02*
Y882000D01*
X1772000D02*
X1816000D01*
X1772000Y856000D02*
X1816000D01*
X1634000Y921000D02*
X1660000D01*
X1634000Y965000D02*
X1660000D01*
X1634000Y921000D02*
Y965000D01*
X1660000Y921000D02*
Y965000D01*
X1606000Y921000D02*
X1632000D01*
X1606000Y965000D02*
X1632000D01*
X1606000Y921000D02*
Y965000D01*
X1632000Y921000D02*
Y965000D01*
X1598000Y713000D02*
X1624000D01*
X1598000Y669000D02*
X1624000D01*
Y713000D01*
X1598000Y669000D02*
Y713000D01*
X1625000Y713000D02*
X1651000D01*
X1625000Y669000D02*
X1651000D01*
Y713000D01*
X1625000Y669000D02*
Y713000D01*
X1715750Y639500D02*
Y690500D01*
X1804250Y639500D02*
Y690500D01*
X1715750D02*
X1804250D01*
X1715750Y639500D02*
X1804250D01*
X1565000Y778500D02*
Y859500D01*
X1605000Y778500D02*
Y859500D01*
X1565000Y778500D02*
X1605000D01*
X1565000Y859500D02*
X1605000D01*
X2410000Y1080000D02*
X2436000D01*
X2410000Y1036000D02*
X2436000D01*
Y1080000D01*
X2410000Y1036000D02*
Y1080000D01*
X2439000D02*
X2465000D01*
X2439000Y1036000D02*
X2465000D01*
Y1080000D01*
X2439000Y1036000D02*
Y1080000D01*
X2381000D02*
X2407000D01*
X2381000Y1036000D02*
X2407000D01*
Y1080000D01*
X2381000Y1036000D02*
Y1080000D01*
X2351000D02*
X2377000D01*
X2351000Y1036000D02*
X2377000D01*
Y1080000D01*
X2351000Y1036000D02*
Y1080000D01*
X1962000Y1089000D02*
Y1115000D01*
X1918000Y1089000D02*
Y1115000D01*
Y1089000D02*
X1962000D01*
X1918000Y1115000D02*
X1962000D01*
Y1174000D02*
Y1200000D01*
X1918000Y1174000D02*
Y1200000D01*
Y1174000D02*
X1962000D01*
X1918000Y1200000D02*
X1962000D01*
Y1207000D02*
Y1233000D01*
X1918000Y1207000D02*
Y1233000D01*
Y1207000D02*
X1962000D01*
X1918000Y1233000D02*
X1962000D01*
X2019000Y942000D02*
X2045000D01*
X2019000Y986000D02*
X2045000D01*
X2019000Y942000D02*
Y986000D01*
X2045000Y942000D02*
Y986000D01*
X1991000Y942000D02*
X2017000D01*
X1991000Y986000D02*
X2017000D01*
X1991000Y942000D02*
Y986000D01*
X2017000Y942000D02*
Y986000D01*
X2125000Y1000000D02*
X2151000D01*
X2125000Y956000D02*
X2151000D01*
Y1000000D01*
X2125000Y956000D02*
Y1000000D01*
X2166000Y1212000D02*
X2192000D01*
X2166000Y1256000D02*
X2192000D01*
X2166000Y1212000D02*
Y1256000D01*
X2192000Y1212000D02*
Y1256000D01*
X1955000Y997000D02*
Y1023000D01*
X1911000Y997000D02*
Y1023000D01*
Y997000D02*
X1955000D01*
X1911000Y1023000D02*
X1955000D01*
Y970000D02*
Y996000D01*
X1911000Y970000D02*
Y996000D01*
Y970000D02*
X1955000D01*
X1911000Y996000D02*
X1955000D01*
X2134000Y1212000D02*
X2160000D01*
X2134000Y1256000D02*
X2160000D01*
X2134000Y1212000D02*
Y1256000D01*
X2160000Y1212000D02*
Y1256000D01*
X2041000Y1209000D02*
X2067000D01*
X2041000Y1253000D02*
X2067000D01*
X2041000Y1209000D02*
Y1253000D01*
X2067000Y1209000D02*
Y1253000D01*
X1991000Y989000D02*
Y1015000D01*
X2035000Y989000D02*
Y1015000D01*
X1991000D02*
X2035000D01*
X1991000Y989000D02*
X2035000D01*
X2045000Y986000D02*
X2071000D01*
X2045000Y942000D02*
X2071000D01*
Y986000D01*
X2045000Y942000D02*
Y986000D01*
X2013000Y1209000D02*
X2039000D01*
X2013000Y1253000D02*
X2039000D01*
X2013000Y1209000D02*
Y1253000D01*
X2039000Y1209000D02*
Y1253000D01*
X2170000Y1159000D02*
X2196000D01*
X2170000Y1203000D02*
X2196000D01*
X2170000Y1159000D02*
Y1203000D01*
X2196000Y1159000D02*
Y1203000D01*
X2152000Y1000000D02*
X2178000D01*
X2152000Y956000D02*
X2178000D01*
Y1000000D01*
X2152000Y956000D02*
Y1000000D01*
X1917000Y1089000D02*
Y1115000D01*
X1873000Y1089000D02*
Y1115000D01*
Y1089000D02*
X1917000D01*
X1873000Y1115000D02*
X1917000D01*
X1823500Y960500D02*
X1849500D01*
X1823500Y1004500D02*
X1849500D01*
X1823500Y960500D02*
Y1004500D01*
X1849500Y960500D02*
Y1004500D01*
X1823500Y1084500D02*
X1849500D01*
X1823500Y1040500D02*
X1849500D01*
Y1084500D01*
X1823500Y1040500D02*
Y1084500D01*
X2465000Y1400000D02*
X2491000D01*
X2465000Y1356000D02*
X2491000D01*
Y1400000D01*
X2465000Y1356000D02*
Y1400000D01*
X2465000Y1310000D02*
X2491000D01*
X2465000Y1266000D02*
X2491000D01*
Y1310000D01*
X2465000Y1266000D02*
Y1310000D01*
X2463000Y1215000D02*
X2489000D01*
X2463000Y1171000D02*
X2489000D01*
Y1215000D01*
X2463000Y1171000D02*
Y1215000D01*
X2202000Y762000D02*
Y788000D01*
X2158000Y762000D02*
Y788000D01*
Y762000D02*
X2202000D01*
X2158000Y788000D02*
X2202000D01*
X1533500Y847000D02*
Y891000D01*
X1558500Y847000D02*
Y891000D01*
X1533500Y847000D02*
X1558500D01*
X1533500Y891000D02*
X1558500D01*
X2250000Y1296000D02*
X2294000D01*
X2250000Y1270000D02*
X2294000D01*
X2250000D02*
Y1296000D01*
X2294000Y1270000D02*
Y1296000D01*
X2306000Y1270000D02*
X2350000D01*
X2306000Y1296000D02*
X2350000D01*
Y1270000D02*
Y1296000D01*
X2306000Y1270000D02*
Y1296000D01*
X1653000Y1061500D02*
Y1086500D01*
X1697000Y1061500D02*
Y1086500D01*
X1653000D02*
X1697000D01*
X1653000Y1061500D02*
X1697000D01*
X1653000Y1034500D02*
Y1059500D01*
X1697000Y1034500D02*
Y1059500D01*
X1653000D02*
X1697000D01*
X1653000Y1034500D02*
X1697000D01*
X1653000Y1007500D02*
Y1032500D01*
X1697000Y1007500D02*
Y1032500D01*
X1653000D02*
X1697000D01*
X1653000Y1007500D02*
X1697000D01*
X2877000Y675000D02*
X2921000D01*
X2877000Y701000D02*
X2921000D01*
Y675000D02*
Y701000D01*
X2877000Y675000D02*
Y701000D01*
X2984000Y697000D02*
Y741000D01*
X2958000Y697000D02*
Y741000D01*
X2984000D01*
X2958000Y697000D02*
X2984000D01*
X2920500Y703750D02*
Y756250D01*
X2877500Y703750D02*
Y756250D01*
Y703750D02*
X2920500D01*
X2877500Y756250D02*
X2920500D01*
X2817500Y1385000D02*
X2836500D01*
X2817500Y1419000D02*
X2836500D01*
X2817500Y1385000D02*
Y1419000D01*
X2836500Y1385000D02*
Y1419000D01*
X2814500Y1345000D02*
X2839500D01*
X2814500Y1301000D02*
X2839500D01*
Y1345000D01*
X2814500Y1301000D02*
Y1345000D01*
Y1420000D02*
X2839500D01*
X2814500Y1464000D02*
X2839500D01*
X2814500Y1420000D02*
Y1464000D01*
X2839500Y1420000D02*
Y1464000D01*
X2817500Y1381000D02*
X2836500D01*
X2817500Y1347000D02*
X2836500D01*
Y1381000D01*
X2817500Y1347000D02*
Y1381000D01*
X1598500Y1166000D02*
X1623500D01*
X1598500Y1122000D02*
X1623500D01*
Y1166000D01*
X1598500Y1122000D02*
Y1166000D01*
M02*
