G04 Layer_Color=16711935*
%FSLAX44Y44*%
%MOMM*%
G71*
G01*
G75*
%ADD42C,0.5000*%
%ADD44C,0.3000*%
%ADD66C,0.1000*%
%ADD67C,0.2000*%
%ADD68C,0.2540*%
%ADD120C,0.1500*%
D42*
X2890123Y711000D02*
G03*
X2890123Y711000I-4123J0D01*
G01*
X2894243Y714000D02*
G03*
X2894243Y714000I-4243J0D01*
G01*
D44*
X2145500Y1613000D02*
X2428000D01*
D66*
X2889336Y699332D02*
X2888003Y697999D01*
Y695333D01*
X2889336Y694000D01*
X2890668D01*
X2892001Y695333D01*
Y697999D01*
X2893334Y699332D01*
X2894667D01*
X2896000Y697999D01*
Y695333D01*
X2894667Y694000D01*
X2888003Y701997D02*
Y707329D01*
Y704663D01*
X2896000D01*
X2888003Y715326D02*
Y709995D01*
X2896000D01*
Y715326D01*
X2892001Y709995D02*
Y712661D01*
X2888003Y717992D02*
X2893334D01*
X2896000Y720658D01*
X2893334Y723324D01*
X2888003D01*
X2896000Y725990D02*
X2890668D01*
X2888003Y728655D01*
X2890668Y731321D01*
X2896000D01*
X2892001D01*
Y725990D01*
X2888003Y733987D02*
X2896000D01*
Y739319D01*
X2892001Y741984D02*
Y747316D01*
X2896000Y749982D02*
X2888003D01*
X2890668Y752648D01*
X2888003Y755313D01*
X2896000D01*
X2888003Y757979D02*
X2896000D01*
X2893334D01*
X2888003Y763311D01*
X2892001Y759312D01*
X2896000Y763311D01*
X2888003Y765977D02*
Y768643D01*
Y767310D01*
X2896000D01*
Y765977D01*
Y768643D01*
Y772641D02*
Y775307D01*
Y773974D01*
X2888003D01*
X2889336Y772641D01*
X2896000Y784637D02*
Y779306D01*
X2890668Y784637D01*
X2889336D01*
X2888003Y783305D01*
Y780639D01*
X2889336Y779306D01*
X2894667Y787303D02*
X2896000Y788636D01*
Y791302D01*
X2894667Y792635D01*
X2889336D01*
X2888003Y791302D01*
Y788636D01*
X2889336Y787303D01*
X2890668D01*
X2892001Y788636D01*
Y792635D01*
X2888003Y795301D02*
X2893334D01*
X2896000Y797967D01*
X2893334Y800632D01*
X2888003D01*
X2896000Y803298D02*
Y805964D01*
Y804631D01*
X2888003D01*
X2889336Y803298D01*
X2892001Y809963D02*
Y815294D01*
X2896000Y817960D02*
X2888003D01*
X2890668Y820626D01*
X2888003Y823292D01*
X2896000D01*
X2888003Y829956D02*
Y827290D01*
X2889336Y825957D01*
X2894667D01*
X2896000Y827290D01*
Y829956D01*
X2894667Y831289D01*
X2889336D01*
X2888003Y829956D01*
Y833955D02*
X2894667D01*
X2896000Y835288D01*
Y837954D01*
X2894667Y839286D01*
X2888003D01*
X2896000Y841952D02*
X2888003D01*
X2896000Y847284D01*
X2888003D01*
Y849950D02*
Y855281D01*
Y852616D01*
X2896000D01*
X2892001Y857947D02*
Y863279D01*
X2896000Y865945D02*
X2888003D01*
Y869943D01*
X2889336Y871276D01*
X2892001D01*
X2893334Y869943D01*
Y865945D01*
X2896000Y873942D02*
X2890668D01*
X2888003Y876608D01*
X2890668Y879274D01*
X2896000D01*
X2892001D01*
Y873942D01*
X2896000Y881939D02*
X2888003D01*
Y885938D01*
X2889336Y887271D01*
X2892001D01*
X2893334Y885938D01*
Y881939D01*
X2896000Y889937D02*
X2890668D01*
X2888003Y892603D01*
X2890668Y895268D01*
X2896000D01*
X2892001D01*
Y889937D01*
X2831331Y757664D02*
X2829999Y758997D01*
X2827333D01*
X2826000Y757664D01*
Y752333D01*
X2827333Y751000D01*
X2829999D01*
X2831331Y752333D01*
X2833997Y758997D02*
Y751000D01*
X2839329D01*
X2841995Y758997D02*
Y751000D01*
Y753666D01*
X2847326Y758997D01*
X2843328Y754999D01*
X2847326Y751000D01*
X2830332Y730665D02*
X2828999Y731997D01*
X2826333D01*
X2825000Y730665D01*
Y725333D01*
X2826333Y724000D01*
X2828999D01*
X2830332Y725333D01*
Y727999D01*
X2827666D01*
X2832997Y724000D02*
Y731997D01*
X2838329Y724000D01*
Y731997D01*
X2840995D02*
Y724000D01*
X2844994D01*
X2846326Y725333D01*
Y730665D01*
X2844994Y731997D01*
X2840995D01*
X2817000Y705997D02*
Y698000D01*
X2820999D01*
X2822332Y699333D01*
Y704665D01*
X2820999Y705997D01*
X2817000D01*
X2824997Y698000D02*
Y703332D01*
X2827663Y705997D01*
X2830329Y703332D01*
Y698000D01*
Y701999D01*
X2824997D01*
X2832995Y705997D02*
X2838326D01*
X2835661D01*
Y698000D01*
X2840992D02*
Y703332D01*
X2843658Y705997D01*
X2846324Y703332D01*
Y698000D01*
Y701999D01*
X2840992D01*
X2944000Y702664D02*
X2945333Y703997D01*
X2947999D01*
X2949332Y702664D01*
Y701332D01*
X2947999Y699999D01*
X2946666D01*
X2947999D01*
X2949332Y698666D01*
Y697333D01*
X2947999Y696000D01*
X2945333D01*
X2944000Y697333D01*
X2951997Y703997D02*
Y698666D01*
X2954663Y696000D01*
X2957329Y698666D01*
Y703997D01*
X2959995Y702664D02*
X2961328Y703997D01*
X2963994D01*
X2965327Y702664D01*
Y701332D01*
X2963994Y699999D01*
X2962661D01*
X2963994D01*
X2965327Y698666D01*
Y697333D01*
X2963994Y696000D01*
X2961328D01*
X2959995Y697333D01*
X2948332Y730665D02*
X2946999Y731997D01*
X2944333D01*
X2943000Y730665D01*
Y725333D01*
X2944333Y724000D01*
X2946999D01*
X2948332Y725333D01*
Y727999D01*
X2945666D01*
X2950997Y724000D02*
Y731997D01*
X2956329Y724000D01*
Y731997D01*
X2958995D02*
Y724000D01*
X2962993D01*
X2964326Y725333D01*
Y730665D01*
X2962993Y731997D01*
X2958995D01*
X2273336Y1101332D02*
X2272003Y1099999D01*
Y1097333D01*
X2273336Y1096000D01*
X2278667D01*
X2280000Y1097333D01*
Y1099999D01*
X2278667Y1101332D01*
X2276001D01*
Y1098666D01*
X2280000Y1103997D02*
X2272003D01*
X2280000Y1109329D01*
X2272003D01*
Y1111995D02*
X2280000D01*
Y1115994D01*
X2278667Y1117326D01*
X2273336D01*
X2272003Y1115994D01*
Y1111995D01*
X2301335Y1097000D02*
X2300003Y1098333D01*
Y1100999D01*
X2301335Y1102332D01*
X2302668D01*
X2304001Y1100999D01*
Y1099666D01*
Y1100999D01*
X2305334Y1102332D01*
X2306667D01*
X2308000Y1100999D01*
Y1098333D01*
X2306667Y1097000D01*
X2300003Y1104997D02*
X2305334D01*
X2308000Y1107663D01*
X2305334Y1110329D01*
X2300003D01*
X2301335Y1112995D02*
X2300003Y1114328D01*
Y1116993D01*
X2301335Y1118326D01*
X2302668D01*
X2304001Y1116993D01*
Y1115661D01*
Y1116993D01*
X2305334Y1118326D01*
X2306667D01*
X2308000Y1116993D01*
Y1114328D01*
X2306667Y1112995D01*
X2298003Y970000D02*
X2306000D01*
Y973999D01*
X2304667Y975332D01*
X2299335D01*
X2298003Y973999D01*
Y970000D01*
X2306000Y977997D02*
X2300668D01*
X2298003Y980663D01*
X2300668Y983329D01*
X2306000D01*
X2302001D01*
Y977997D01*
X2298003Y985995D02*
Y991326D01*
Y988661D01*
X2306000D01*
Y993992D02*
X2300668D01*
X2298003Y996658D01*
X2300668Y999324D01*
X2306000D01*
X2302001D01*
Y993992D01*
X2273336Y983332D02*
X2272003Y981999D01*
Y979333D01*
X2273336Y978000D01*
X2278667D01*
X2280000Y979333D01*
Y981999D01*
X2278667Y983332D01*
X2276001D01*
Y980666D01*
X2280000Y985997D02*
X2272003D01*
X2280000Y991329D01*
X2272003D01*
Y993995D02*
X2280000D01*
Y997993D01*
X2278667Y999326D01*
X2273336D01*
X2272003Y997993D01*
Y993995D01*
X2246335Y984332D02*
X2245003Y982999D01*
Y980333D01*
X2246335Y979000D01*
X2251667D01*
X2253000Y980333D01*
Y982999D01*
X2251667Y984332D01*
X2245003Y986997D02*
X2253000D01*
Y992329D01*
X2245003Y994995D02*
X2253000D01*
X2250334D01*
X2245003Y1000326D01*
X2249001Y996328D01*
X2253000Y1000326D01*
X2304668Y1042336D02*
X2306001Y1041003D01*
X2308667D01*
X2310000Y1042336D01*
Y1043668D01*
X2308667Y1045001D01*
X2306001D01*
X2304668Y1046334D01*
Y1047667D01*
X2306001Y1049000D01*
X2308667D01*
X2310000Y1047667D01*
X2302003Y1041003D02*
X2296671D01*
X2299337D01*
Y1049000D01*
X2288674Y1041003D02*
X2294005D01*
Y1049000D01*
X2288674D01*
X2294005Y1045001D02*
X2291339D01*
X2286008Y1041003D02*
Y1046334D01*
X2283342Y1049000D01*
X2280676Y1046334D01*
Y1041003D01*
X2278010Y1049000D02*
Y1043668D01*
X2275345Y1041003D01*
X2272679Y1043668D01*
Y1049000D01*
Y1045001D01*
X2278010D01*
X2270013Y1041003D02*
Y1049000D01*
X2264681D01*
X2262016Y1045001D02*
X2256684D01*
X2254018Y1049000D02*
Y1041003D01*
X2251352Y1043668D01*
X2248687Y1041003D01*
Y1049000D01*
X2246021Y1041003D02*
Y1049000D01*
Y1046334D01*
X2240689Y1041003D01*
X2244688Y1045001D01*
X2240689Y1049000D01*
X2238023Y1041003D02*
X2235357D01*
X2236690D01*
Y1049000D01*
X2238023D01*
X2235357D01*
X2231359D02*
X2228693D01*
X2230026D01*
Y1041003D01*
X2231359Y1042336D01*
X2219363Y1049000D02*
X2224694D01*
X2219363Y1043668D01*
Y1042336D01*
X2220695Y1041003D01*
X2223361D01*
X2224694Y1042336D01*
X2216697Y1047667D02*
X2215364Y1049000D01*
X2212698D01*
X2211365Y1047667D01*
Y1042336D01*
X2212698Y1041003D01*
X2215364D01*
X2216697Y1042336D01*
Y1043668D01*
X2215364Y1045001D01*
X2211365D01*
X2208699Y1041003D02*
Y1046334D01*
X2206033Y1049000D01*
X2203368Y1046334D01*
Y1041003D01*
X2200702Y1049000D02*
X2198036D01*
X2199369D01*
Y1041003D01*
X2200702Y1042336D01*
X2194037Y1045001D02*
X2188706D01*
X2186040Y1049000D02*
Y1041003D01*
X2183374Y1043668D01*
X2180708Y1041003D01*
Y1049000D01*
X2174044Y1041003D02*
X2176710D01*
X2178043Y1042336D01*
Y1047667D01*
X2176710Y1049000D01*
X2174044D01*
X2172711Y1047667D01*
Y1042336D01*
X2174044Y1041003D01*
X2170045D02*
Y1047667D01*
X2168712Y1049000D01*
X2166046D01*
X2164713Y1047667D01*
Y1041003D01*
X2162048Y1049000D02*
Y1041003D01*
X2156716Y1049000D01*
Y1041003D01*
X2154050D02*
X2148719D01*
X2151384D01*
Y1049000D01*
X2146053Y1045001D02*
X2140721D01*
X2138056Y1049000D02*
Y1041003D01*
X2135390Y1043668D01*
X2132724Y1041003D01*
Y1049000D01*
X2130058D02*
Y1043668D01*
X2127392Y1041003D01*
X2124726Y1043668D01*
Y1049000D01*
Y1045001D01*
X2130058D01*
X2122061Y1049000D02*
Y1041003D01*
X2119395Y1043668D01*
X2116729Y1041003D01*
Y1049000D01*
X2114063D02*
Y1043668D01*
X2111397Y1041003D01*
X2108732Y1043668D01*
Y1049000D01*
Y1045001D01*
X2114063D01*
D67*
X1400000Y630000D02*
Y1630000D01*
Y630000D02*
X2800000D01*
Y1630000D01*
X1400000D02*
X2800000D01*
X1812300Y1415410D02*
Y1459860D01*
Y1415410D02*
X1837700D01*
Y1459860D01*
X1812300D02*
X1837700D01*
X2982700Y1300140D02*
Y1344590D01*
X2957300D02*
X2982700D01*
X2957300Y1300140D02*
Y1344590D01*
Y1300140D02*
X2982700D01*
X2840000Y1627500D02*
X2960000D01*
X2840000Y1515000D02*
Y1627500D01*
Y1515000D02*
X2960000D01*
Y1627500D01*
X2843000Y1501000D02*
X2957000D01*
X2843000Y1399000D02*
Y1501000D01*
X2957000Y1399000D02*
Y1501000D01*
X2843000Y1399000D02*
X2957000D01*
X1663500Y1416500D02*
X1713500D01*
Y1456500D01*
X1663500D02*
X1713500D01*
X1663500Y1416500D02*
Y1456500D01*
X2957300Y1346410D02*
Y1390860D01*
Y1346410D02*
X2982700D01*
Y1390860D01*
X2957300D02*
X2982700D01*
X2957300Y1254410D02*
Y1298860D01*
Y1254410D02*
X2982700D01*
Y1298860D01*
X2957300D02*
X2982700D01*
X1623700Y1169140D02*
Y1213590D01*
X1598300D02*
X1623700D01*
X1598300Y1169140D02*
Y1213590D01*
Y1169140D02*
X1623700D01*
X2885700Y1234140D02*
Y1278590D01*
X2860300D02*
X2885700D01*
X2860300Y1234140D02*
Y1278590D01*
Y1234140D02*
X2885700D01*
X2992700Y1472140D02*
Y1516590D01*
X2967300D02*
X2992700D01*
X2967300Y1472140D02*
Y1516590D01*
Y1472140D02*
X2992700D01*
Y1427140D02*
Y1471590D01*
X2967300D02*
X2992700D01*
X2967300Y1427140D02*
Y1471590D01*
Y1427140D02*
X2992700D01*
X1665140Y1110300D02*
X1709590D01*
Y1135700D01*
X1665140D02*
X1709590D01*
X1665140Y1110300D02*
Y1135700D01*
X1782800Y1414910D02*
Y1459360D01*
Y1414910D02*
X1808200D01*
Y1459360D01*
X1782800D02*
X1808200D01*
X1754800Y1414910D02*
Y1459360D01*
Y1414910D02*
X1780200D01*
Y1459360D01*
X1754800D02*
X1780200D01*
X1726800Y1414910D02*
Y1459360D01*
Y1414910D02*
X1752200D01*
Y1459360D01*
X1726800D02*
X1752200D01*
X1604160Y1467700D02*
X1648610D01*
X1604160Y1442300D02*
Y1467700D01*
Y1442300D02*
X1648610D01*
Y1467700D01*
X1604410Y1437700D02*
X1648860D01*
X1604410Y1412300D02*
Y1437700D01*
Y1412300D02*
X1648860D01*
Y1437700D01*
X1673910Y1274450D02*
X1718360D01*
X1673910Y1249050D02*
Y1274450D01*
Y1249050D02*
X1718360D01*
Y1274450D01*
X2540300Y866410D02*
Y910860D01*
Y866410D02*
X2565700D01*
Y910860D01*
X2540300D02*
X2565700D01*
X2333410Y787700D02*
X2377860D01*
X2333410Y762300D02*
Y787700D01*
Y762300D02*
X2377860D01*
Y787700D01*
X2333410Y810700D02*
X2377860D01*
X2333410Y785300D02*
Y810700D01*
Y785300D02*
X2377860D01*
Y810700D01*
X1571700Y1075140D02*
Y1119590D01*
X1546300D02*
X1571700D01*
X1546300Y1075140D02*
Y1119590D01*
Y1075140D02*
X1571700D01*
X2027140Y750300D02*
X2071590D01*
Y775700D01*
X2027140D02*
X2071590D01*
X2027140Y750300D02*
Y775700D01*
X1719140Y696300D02*
X1763590D01*
Y721700D01*
X1719140D02*
X1763590D01*
X1719140Y696300D02*
Y721700D01*
X1872500Y1172500D02*
X1962500D01*
Y1116500D02*
Y1172500D01*
X1872500Y1116500D02*
X1962500D01*
X1872500D02*
Y1172500D01*
X1407500Y970000D02*
Y1090000D01*
Y970000D02*
X1520000D01*
Y1090000D01*
X1407500D02*
X1520000D01*
X2145500Y1305500D02*
X2428000D01*
Y1613000D01*
X2145500Y1305500D02*
Y1613000D01*
X1403500Y952500D02*
X1503500D01*
Y842500D02*
Y952500D01*
X1403500Y842500D02*
X1503500D01*
X1403500D02*
Y952500D01*
X2372000Y647500D02*
X2529500D01*
Y672500D01*
X2372000D02*
X2529500D01*
X2372000Y647500D02*
Y672500D01*
X1900500Y1088500D02*
X1901500Y956500D01*
X1852500Y1088500D02*
X1900500D01*
X1852500Y956500D02*
Y1088500D01*
Y956500D02*
X1901500D01*
X2521000Y1381000D02*
X2525000Y1377000D01*
X2521000Y1372000D02*
X2525000Y1377000D01*
X2511000D02*
X2525000D01*
Y1365000D02*
Y1388000D01*
X2534000Y1382000D02*
Y1406000D01*
Y1348000D02*
Y1370000D01*
X2493000Y1337000D02*
X2597000D01*
X2493000D02*
Y1421000D01*
X2597000D01*
Y1337000D02*
Y1421000D01*
X2597170Y1244070D02*
Y1328070D01*
X2493170D02*
X2597170D01*
X2493170Y1244070D02*
Y1328070D01*
Y1244070D02*
X2597170D01*
X2534170Y1255070D02*
Y1277070D01*
Y1289070D02*
Y1313070D01*
X2525170Y1272070D02*
Y1295070D01*
X2511170Y1284070D02*
X2525170D01*
X2521170Y1279070D02*
X2525170Y1284070D01*
X2521170Y1288070D02*
X2525170Y1284070D01*
X2520170Y1194820D02*
X2524170Y1190820D01*
X2520170Y1185820D02*
X2524170Y1190820D01*
X2510170D02*
X2524170D01*
Y1178820D02*
Y1201820D01*
X2533170Y1195820D02*
Y1219820D01*
Y1161820D02*
Y1183820D01*
X2492170Y1150820D02*
X2596170D01*
X2492170D02*
Y1234820D01*
X2596170D01*
Y1150820D02*
Y1234820D01*
X2171000Y744000D02*
X2255000D01*
X2171000Y640000D02*
Y744000D01*
Y640000D02*
X2255000D01*
Y744000D01*
X2222000Y681000D02*
X2244000D01*
X2186000D02*
X2210000D01*
X2204000Y672000D02*
X2227000D01*
X2215000Y658000D02*
Y672000D01*
X2220000Y668000D01*
X2211000D02*
X2215000Y672000D01*
X2089000Y668000D02*
X2093000Y672000D01*
X2098000Y668000D01*
X2093000Y658000D02*
Y672000D01*
X2082000D02*
X2105000D01*
X2064000Y681000D02*
X2088000D01*
X2100000D02*
X2122000D01*
X2133000Y640000D02*
Y744000D01*
X2049000Y640000D02*
X2133000D01*
X2049000D02*
Y744000D01*
X2133000D01*
X1531000Y975000D02*
X1645000D01*
Y1077000D01*
X1531000Y975000D02*
Y1077000D01*
X1645000D01*
X1716000Y916000D02*
X1766000D01*
Y956000D01*
X1716000D02*
X1766000D01*
X1716000Y916000D02*
Y956000D01*
X1653500Y764500D02*
X1713500D01*
Y689500D02*
Y764500D01*
X1653500Y689500D02*
X1713500D01*
X1653500D02*
Y764500D01*
X2542000Y949000D02*
Y951500D01*
X2392000D02*
X2542000D01*
X2392000Y779000D02*
Y951500D01*
Y779000D02*
X2542000D01*
Y949000D01*
X1986000Y1018000D02*
X2169000D01*
X2170000Y1200000D01*
X1987000D02*
X2170000D01*
X1986000Y1018000D02*
X1987000Y1200000D01*
X1654140Y663300D02*
Y688700D01*
X1698590D01*
Y663300D02*
Y688700D01*
X1654140Y663300D02*
X1698590D01*
X1624300Y722410D02*
Y766860D01*
Y722410D02*
X1649700D01*
Y766860D01*
X1624300D02*
X1649700D01*
X1598300Y721140D02*
X1623700D01*
X1598300D02*
Y765590D01*
X1623700D01*
Y721140D02*
Y765590D01*
X1661300Y921410D02*
Y965860D01*
Y921410D02*
X1686700D01*
Y965860D01*
X1661300D02*
X1686700D01*
X2091300Y949140D02*
X2116700D01*
X2091300D02*
Y993590D01*
X2116700D01*
Y949140D02*
Y993590D01*
X2632140Y1358300D02*
X2676590D01*
Y1383700D01*
X2632140D02*
X2676590D01*
X2632140Y1358300D02*
Y1383700D01*
X1956300Y1003140D02*
X1981700D01*
X1956300D02*
Y1047590D01*
X1981700D01*
Y1003140D02*
Y1047590D01*
X2631140Y1326300D02*
X2675590D01*
Y1351700D01*
X2631140D02*
X2675590D01*
X2631140Y1326300D02*
Y1351700D01*
X2630140Y1294300D02*
Y1319700D01*
X2674590D01*
Y1294300D02*
Y1319700D01*
X2630140Y1294300D02*
X2674590D01*
X2630140Y1261300D02*
X2674590D01*
Y1286700D01*
X2630140D02*
X2674590D01*
X2630140Y1261300D02*
Y1286700D01*
X2438300Y1355140D02*
X2463700D01*
X2438300D02*
Y1399590D01*
X2463700D01*
Y1355140D02*
Y1399590D01*
X2157140Y788300D02*
X2201590D01*
Y813700D01*
X2157140D02*
X2201590D01*
X2157140Y788300D02*
Y813700D01*
X2438300Y1265140D02*
X2463700D01*
X2438300D02*
Y1309590D01*
X2463700D01*
Y1265140D02*
Y1309590D01*
X1984300Y1209410D02*
Y1253860D01*
Y1209410D02*
X2009700D01*
Y1253860D01*
X1984300D02*
X2009700D01*
X1955860Y1032300D02*
Y1057700D01*
X1911410Y1032300D02*
X1955860D01*
X1911410D02*
Y1057700D01*
X1955860D01*
X1911410Y1083200D02*
X1955860D01*
X1911410Y1057800D02*
Y1083200D01*
Y1057800D02*
X1955860D01*
Y1083200D01*
X2436300Y1170140D02*
X2461700D01*
X2436300D02*
Y1214590D01*
X2461700D01*
Y1170140D02*
Y1214590D01*
X2084140Y751300D02*
X2128590D01*
Y776700D01*
X2084140D02*
X2128590D01*
X2084140Y751300D02*
Y776700D01*
X1614000Y910000D02*
X1764000D01*
X1614000Y780000D02*
Y910000D01*
Y780000D02*
X1764000D01*
Y910000D01*
X1959000Y961000D02*
X1979000D01*
X1959000D02*
Y995000D01*
X1979000D01*
Y961000D02*
Y995000D01*
X1971000Y975000D02*
X1977000D01*
X1971000Y980000D02*
X1974000Y975000D01*
X1977000Y980000D01*
X1971000D02*
X1977000D01*
X1974000D02*
Y988000D01*
Y969000D02*
Y975000D01*
X1697000Y960000D02*
Y966000D01*
Y947000D02*
Y955000D01*
X1694000D02*
X1700000D01*
X1694000D02*
X1697000Y960000D01*
X1700000Y955000D01*
X1694000Y960000D02*
X1700000D01*
X1692000Y940000D02*
Y974000D01*
Y940000D02*
X1712000D01*
Y974000D01*
X1692000D02*
X1712000D01*
X1726000Y727000D02*
X1793000D01*
Y770000D01*
X1726000D02*
X1793000D01*
X1726000Y727000D02*
Y770000D01*
X2718000Y1362000D02*
Y1382000D01*
X2684000Y1362000D02*
X2718000D01*
X2684000D02*
Y1382000D01*
X2718000D01*
X2704000Y1374000D02*
Y1380000D01*
X2699000Y1374000D02*
X2704000Y1377000D01*
X2699000Y1380000D02*
X2704000Y1377000D01*
X2699000Y1374000D02*
Y1380000D01*
X2691000Y1377000D02*
X2699000D01*
X2704000D02*
X2710000D01*
X2703000Y1345000D02*
X2709000D01*
X2690000D02*
X2698000D01*
Y1342000D02*
Y1348000D01*
X2703000Y1345000D01*
X2698000Y1342000D02*
X2703000Y1345000D01*
Y1342000D02*
Y1348000D01*
X2683000Y1350000D02*
X2717000D01*
X2683000Y1330000D02*
Y1350000D01*
Y1330000D02*
X2717000D01*
Y1350000D01*
X2716000Y1298000D02*
Y1318000D01*
X2682000Y1298000D02*
X2716000D01*
X2682000D02*
Y1318000D01*
X2716000D01*
X2702000Y1310000D02*
Y1316000D01*
X2697000Y1310000D02*
X2702000Y1313000D01*
X2697000Y1316000D02*
X2702000Y1313000D01*
X2697000Y1310000D02*
Y1316000D01*
X2689000Y1313000D02*
X2697000D01*
X2702000D02*
X2708000D01*
X2702000Y1279000D02*
X2708000D01*
X2689000D02*
X2697000D01*
Y1276000D02*
Y1282000D01*
X2702000Y1279000D01*
X2697000Y1276000D02*
X2702000Y1279000D01*
Y1276000D02*
Y1282000D01*
X2682000Y1284000D02*
X2716000D01*
X2682000Y1264000D02*
Y1284000D01*
Y1264000D02*
X2716000D01*
Y1284000D01*
X1771140Y914300D02*
X1815590D01*
Y939700D01*
X1771140D02*
X1815590D01*
X1771140Y914300D02*
Y939700D01*
Y885300D02*
X1815590D01*
Y910700D01*
X1771140D02*
X1815590D01*
X1771140Y885300D02*
Y910700D01*
Y856300D02*
X1815590D01*
Y881700D01*
X1771140D02*
X1815590D01*
X1771140Y856300D02*
Y881700D01*
X1659700Y920140D02*
Y964590D01*
X1634300D02*
X1659700D01*
X1634300Y920140D02*
Y964590D01*
Y920140D02*
X1659700D01*
X1631700D02*
Y964590D01*
X1606300D02*
X1631700D01*
X1606300Y920140D02*
Y964590D01*
Y920140D02*
X1631700D01*
X1598300Y669410D02*
Y713860D01*
Y669410D02*
X1623700D01*
Y713860D01*
X1598300D02*
X1623700D01*
X1625300Y669410D02*
Y713860D01*
Y669410D02*
X1650700D01*
Y713860D01*
X1625300D02*
X1650700D01*
X1719360Y694210D02*
X1729520D01*
X1724440Y691670D02*
Y698020D01*
X1711740Y640870D02*
X1713010Y639600D01*
X1711740Y640870D02*
Y690400D01*
X1804450D01*
Y639600D02*
Y690400D01*
X1713010Y639600D02*
X1804450D01*
X1564680Y778360D02*
Y863450D01*
Y778360D02*
X1605320D01*
Y863450D01*
X1564680D02*
X1605320D01*
X2410300Y1036410D02*
Y1080860D01*
Y1036410D02*
X2435700D01*
Y1080860D01*
X2410300D02*
X2435700D01*
X2439300Y1036410D02*
Y1080860D01*
Y1036410D02*
X2464700D01*
Y1080860D01*
X2439300D02*
X2464700D01*
X2381300Y1036410D02*
Y1080860D01*
Y1036410D02*
X2406700D01*
Y1080860D01*
X2381300D02*
X2406700D01*
X2351300Y1036410D02*
Y1080860D01*
Y1036410D02*
X2376700D01*
Y1080860D01*
X2351300D02*
X2376700D01*
X1918410Y1114700D02*
X1962860D01*
X1918410Y1089300D02*
Y1114700D01*
Y1089300D02*
X1962860D01*
Y1114700D01*
X1918410Y1199700D02*
X1962860D01*
X1918410Y1174300D02*
Y1199700D01*
Y1174300D02*
X1962860D01*
Y1199700D01*
X1918410Y1232700D02*
X1962860D01*
X1918410Y1207300D02*
Y1232700D01*
Y1207300D02*
X1962860D01*
Y1232700D01*
X2044700Y941140D02*
Y985590D01*
X2019300D02*
X2044700D01*
X2019300Y941140D02*
Y985590D01*
Y941140D02*
X2044700D01*
X2016700Y941140D02*
Y985590D01*
X1991300D02*
X2016700D01*
X1991300Y941140D02*
Y985590D01*
Y941140D02*
X2016700D01*
X2125300Y956410D02*
Y1000860D01*
Y956410D02*
X2150700D01*
Y1000860D01*
X2125300D02*
X2150700D01*
X2191700Y1211140D02*
Y1255590D01*
X2166300D02*
X2191700D01*
X2166300Y1211140D02*
Y1255590D01*
Y1211140D02*
X2191700D01*
X1911410Y1022700D02*
X1955860D01*
X1911410Y997300D02*
Y1022700D01*
Y997300D02*
X1955860D01*
Y1022700D01*
X1911410Y995700D02*
X1955860D01*
X1911410Y970300D02*
Y995700D01*
Y970300D02*
X1955860D01*
Y995700D01*
X2159700Y1211140D02*
Y1255590D01*
X2134300D02*
X2159700D01*
X2134300Y1211140D02*
Y1255590D01*
Y1211140D02*
X2159700D01*
X2066700Y1208140D02*
Y1252590D01*
X2041300D02*
X2066700D01*
X2041300Y1208140D02*
Y1252590D01*
Y1208140D02*
X2066700D01*
X1990140Y989300D02*
X2034590D01*
Y1014700D01*
X1990140D02*
X2034590D01*
X1990140Y989300D02*
Y1014700D01*
X2045300Y942410D02*
Y986860D01*
Y942410D02*
X2070700D01*
Y986860D01*
X2045300D02*
X2070700D01*
X2038700Y1208140D02*
Y1252590D01*
X2013300D02*
X2038700D01*
X2013300Y1208140D02*
Y1252590D01*
Y1208140D02*
X2038700D01*
X2195700Y1158140D02*
Y1202590D01*
X2170300D02*
X2195700D01*
X2170300Y1158140D02*
Y1202590D01*
Y1158140D02*
X2195700D01*
X2152300Y956410D02*
Y1000860D01*
Y956410D02*
X2177700D01*
Y1000860D01*
X2152300D02*
X2177700D01*
X1873410Y1114700D02*
X1917860D01*
X1873410Y1089300D02*
Y1114700D01*
Y1089300D02*
X1917860D01*
Y1114700D01*
X1849200Y959640D02*
Y1004090D01*
X1823800D02*
X1849200D01*
X1823800Y959640D02*
Y1004090D01*
Y959640D02*
X1849200D01*
X1823800Y1040910D02*
Y1085360D01*
Y1040910D02*
X1849200D01*
Y1085360D01*
X1823800D02*
X1849200D01*
X2465300Y1356410D02*
Y1400860D01*
Y1356410D02*
X2490700D01*
Y1400860D01*
X2465300D02*
X2490700D01*
X2465300Y1266410D02*
Y1310860D01*
Y1266410D02*
X2490700D01*
Y1310860D01*
X2465300D02*
X2490700D01*
X2463300Y1171410D02*
Y1215860D01*
Y1171410D02*
X2488700D01*
Y1215860D01*
X2463300D02*
X2488700D01*
X2158410Y787700D02*
X2202860D01*
X2158410Y762300D02*
Y787700D01*
Y762300D02*
X2202860D01*
Y787700D01*
X1532030Y838520D02*
Y900750D01*
Y838520D02*
X1559970D01*
Y900750D01*
X1532030D02*
X1559970D01*
X2294860Y1270300D02*
Y1295700D01*
X2250410Y1270300D02*
X2294860D01*
X2250410D02*
Y1295700D01*
X2294860D01*
X2305140Y1270300D02*
Y1295700D01*
X2349590D01*
Y1270300D02*
Y1295700D01*
X2305140Y1270300D02*
X2349590D01*
X1643250Y1060030D02*
Y1087970D01*
X1705480D01*
Y1060030D02*
Y1087970D01*
X1643250Y1060030D02*
X1705480D01*
X1643250Y1033030D02*
Y1060970D01*
X1705480D01*
Y1033030D02*
Y1060970D01*
X1643250Y1033030D02*
X1705480D01*
X1643250Y1006030D02*
Y1033970D01*
X1705480D01*
Y1006030D02*
Y1033970D01*
X1643250Y1006030D02*
X1705480D01*
X2876140Y675300D02*
Y700700D01*
X2920590D01*
Y675300D02*
Y700700D01*
X2876140Y675300D02*
X2920590D01*
X2958300Y696140D02*
X2983700D01*
X2958300D02*
Y740590D01*
X2983700D01*
Y696140D02*
Y740590D01*
X2921000Y704000D02*
Y756000D01*
X2877000Y704000D02*
X2921000D01*
X2877000D02*
Y756000D01*
X2921000D01*
X2832000Y1393000D02*
Y1399000D01*
Y1404000D02*
Y1412000D01*
X2829000Y1404000D02*
X2835000D01*
X2832000Y1399000D02*
X2835000Y1404000D01*
X2829000D02*
X2832000Y1399000D01*
X2829000D02*
X2835000D01*
X2837000Y1385000D02*
Y1419000D01*
X2817000D02*
X2837000D01*
X2817000Y1385000D02*
Y1419000D01*
Y1385000D02*
X2837000D01*
X2814300Y1345860D02*
X2839700D01*
Y1301410D02*
Y1345860D01*
X2814300Y1301410D02*
X2839700D01*
X2814300D02*
Y1345860D01*
Y1419140D02*
X2839700D01*
X2814300D02*
Y1463590D01*
X2839700D01*
Y1419140D02*
Y1463590D01*
X2822000Y1367000D02*
Y1373000D01*
Y1354000D02*
Y1362000D01*
X2819000D02*
X2825000D01*
X2819000D02*
X2822000Y1367000D01*
X2825000Y1362000D01*
X2819000Y1367000D02*
X2825000D01*
X2817000Y1347000D02*
Y1381000D01*
Y1347000D02*
X2837000D01*
Y1381000D01*
X2817000D02*
X2837000D01*
X1837250Y1501250D02*
Y1601250D01*
X1834750Y1498750D02*
X1837250Y1501250D01*
X1747250Y1498750D02*
X1834750D01*
X1747250D02*
Y1601250D01*
X1837250D01*
X1597030Y1175750D02*
X1624970D01*
Y1113520D02*
Y1175750D01*
X1597030Y1113520D02*
X1624970D01*
X1597030D02*
Y1175750D01*
X2919000Y690000D02*
Y768000D01*
X2940000D01*
X2919000Y690000D02*
X2940000D01*
Y768000D01*
X2849000Y689000D02*
Y768000D01*
X2871000D01*
Y689000D02*
Y768000D01*
X2849000Y689000D02*
X2871000D01*
X2315000Y1002000D02*
Y1024000D01*
X2236000D02*
X2315000D01*
X2236000Y1002000D02*
Y1024000D01*
Y1002000D02*
X2315000D01*
X2236000Y1093000D02*
X2314000D01*
Y1072000D02*
Y1093000D01*
X2236000Y1072000D02*
Y1093000D01*
Y1072000D02*
X2314000D01*
X1676500Y1253750D02*
X1683165D01*
X1686497Y1250418D01*
X1683165Y1247085D01*
X1676500D01*
X1681498D01*
Y1253750D01*
X1686497Y1243753D02*
X1676500D01*
Y1238755D01*
X1678166Y1237089D01*
X1684831D01*
X1686497Y1238755D01*
Y1243753D01*
X1676500Y1233756D02*
X1686497D01*
X1683165Y1230424D01*
X1686497Y1227092D01*
X1676500D01*
X1684831Y1223760D02*
X1686497Y1222094D01*
Y1218761D01*
X1684831Y1217095D01*
X1683165D01*
X1681498Y1218761D01*
Y1220427D01*
Y1218761D01*
X1679832Y1217095D01*
X1678166D01*
X1676500Y1218761D01*
Y1222094D01*
X1678166Y1223760D01*
X1684831Y1213763D02*
X1686497Y1212097D01*
Y1208764D01*
X1684831Y1207098D01*
X1678166D01*
X1676500Y1208764D01*
Y1212097D01*
X1678166Y1213763D01*
X1684831D01*
X1686497Y1203766D02*
Y1197102D01*
X1684831D01*
X1678166Y1203766D01*
X1676500D01*
X1684831Y1193769D02*
X1686497Y1192103D01*
Y1188771D01*
X1684831Y1187105D01*
X1678166D01*
X1676500Y1188771D01*
Y1192103D01*
X1678166Y1193769D01*
X1684831D01*
X1686497Y1177108D02*
Y1183773D01*
X1676500D01*
Y1177108D01*
X1681498Y1183773D02*
Y1180440D01*
X2845000Y1320000D02*
Y1326664D01*
X2848332Y1329997D01*
X2851664Y1326664D01*
Y1320000D01*
Y1324998D01*
X2845000D01*
X2854997Y1329997D02*
Y1320000D01*
X2859995D01*
X2861661Y1321666D01*
Y1328331D01*
X2859995Y1329997D01*
X2854997D01*
X2864994Y1320000D02*
Y1329997D01*
X2868326Y1326664D01*
X2871658Y1329997D01*
Y1320000D01*
X2874990Y1328331D02*
X2876656Y1329997D01*
X2879989D01*
X2881655Y1328331D01*
Y1326664D01*
X2879989Y1324998D01*
X2878322D01*
X2879989D01*
X2881655Y1323332D01*
Y1321666D01*
X2879989Y1320000D01*
X2876656D01*
X2874990Y1321666D01*
X2884987Y1328331D02*
X2886653Y1329997D01*
X2889985D01*
X2891652Y1328331D01*
Y1321666D01*
X2889985Y1320000D01*
X2886653D01*
X2884987Y1321666D01*
Y1328331D01*
X2894984Y1329997D02*
X2901648D01*
Y1328331D01*
X2894984Y1321666D01*
Y1320000D01*
X2904981Y1328331D02*
X2906647Y1329997D01*
X2909979D01*
X2911645Y1328331D01*
Y1321666D01*
X2909979Y1320000D01*
X2906647D01*
X2904981Y1321666D01*
Y1328331D01*
X2921642Y1329997D02*
X2914977D01*
Y1320000D01*
X2921642D01*
X2914977Y1324998D02*
X2918310D01*
X1422500Y1257750D02*
X1432497D01*
Y1252752D01*
X1430831Y1251086D01*
X1427498D01*
X1425832Y1252752D01*
Y1257750D01*
Y1254418D02*
X1422500Y1251086D01*
X1432497Y1241089D02*
Y1244421D01*
Y1242755D01*
X1424166D01*
X1422500Y1244421D01*
Y1246087D01*
X1424166Y1247753D01*
X1427498Y1237756D02*
Y1231092D01*
X1422500Y1222761D02*
X1432497D01*
X1427498Y1227760D01*
Y1221095D01*
X1432497Y1211098D02*
Y1217763D01*
X1427498D01*
X1429164Y1214431D01*
Y1212765D01*
X1427498Y1211098D01*
X1424166D01*
X1422500Y1212765D01*
Y1216097D01*
X1424166Y1217763D01*
X2848000Y1084000D02*
Y1093997D01*
X2852998D01*
X2854665Y1092331D01*
Y1088998D01*
X2852998Y1087332D01*
X2848000D01*
X2851332D02*
X2854665Y1084000D01*
X2864661Y1093997D02*
X2861329D01*
X2862995D01*
Y1085666D01*
X2861329Y1084000D01*
X2859663D01*
X2857997Y1085666D01*
X2867993Y1088998D02*
X2874658D01*
X2882989Y1084000D02*
Y1093997D01*
X2877990Y1088998D01*
X2884655D01*
X2894651Y1093997D02*
X2887987D01*
Y1088998D01*
X2891319Y1090665D01*
X2892986D01*
X2894651Y1088998D01*
Y1085666D01*
X2892986Y1084000D01*
X2889653D01*
X2887987Y1085666D01*
X2897984Y1082334D02*
X2904648D01*
X2907981Y1084000D02*
X2911313D01*
X2909647D01*
Y1093997D01*
X2907981Y1092331D01*
X1553332Y1640000D02*
X1550000D01*
Y1649997D01*
X1553332D01*
X1558331Y1640000D02*
Y1649997D01*
X1564995Y1640000D01*
Y1649997D01*
X1569994Y1640000D02*
X1573326D01*
X1574992Y1641666D01*
Y1644998D01*
X1573326Y1646664D01*
X1569994D01*
X1568327Y1644998D01*
Y1641666D01*
X1569994Y1640000D01*
X1588321Y1649997D02*
Y1643332D01*
X1591653Y1640000D01*
X1594986Y1643332D01*
Y1649997D01*
X1599984Y1646664D02*
X1603316D01*
X1604982Y1644998D01*
Y1640000D01*
X1599984D01*
X1598318Y1641666D01*
X1599984Y1643332D01*
X1604982D01*
X1608315Y1646664D02*
Y1640000D01*
Y1643332D01*
X1609981Y1644998D01*
X1611647Y1646664D01*
X1613313D01*
X1618311Y1640000D02*
X1621644D01*
X1619978D01*
Y1646664D01*
X1618311D01*
X1628308D02*
X1631640D01*
X1633306Y1644998D01*
Y1640000D01*
X1628308D01*
X1626642Y1641666D01*
X1628308Y1643332D01*
X1633306D01*
X1638305Y1648331D02*
Y1646664D01*
X1636639D01*
X1639971D01*
X1638305D01*
Y1641666D01*
X1639971Y1640000D01*
X1644969D02*
X1648302D01*
X1646635D01*
Y1646664D01*
X1644969D01*
X1654966Y1640000D02*
X1658298D01*
X1659964Y1641666D01*
Y1644998D01*
X1658298Y1646664D01*
X1654966D01*
X1653300Y1644998D01*
Y1641666D01*
X1654966Y1640000D01*
X1663297D02*
Y1646664D01*
X1668295D01*
X1669961Y1644998D01*
Y1640000D01*
X1673294D02*
X1678292D01*
X1679958Y1641666D01*
X1678292Y1643332D01*
X1674960D01*
X1673294Y1644998D01*
X1674960Y1646664D01*
X1679958D01*
X1683290Y1640000D02*
X1686623D01*
Y1649997D01*
X1683290D01*
X1420000D02*
X1426664D01*
X1423332D01*
Y1640000D01*
X1434995Y1649997D02*
X1431663D01*
X1429997Y1648331D01*
Y1641666D01*
X1431663Y1640000D01*
X1434995D01*
X1436661Y1641666D01*
Y1648331D01*
X1434995Y1649997D01*
X1439994Y1640000D02*
Y1649997D01*
X1444992D01*
X1446658Y1648331D01*
Y1644998D01*
X1444992Y1643332D01*
X1439994D01*
X1459987Y1640000D02*
Y1646664D01*
X1463319Y1649997D01*
X1466652Y1646664D01*
Y1640000D01*
Y1644998D01*
X1459987D01*
X1476648Y1648331D02*
X1474982Y1649997D01*
X1471650D01*
X1469984Y1648331D01*
Y1646664D01*
X1471650Y1644998D01*
X1474982D01*
X1476648Y1643332D01*
Y1641666D01*
X1474982Y1640000D01*
X1471650D01*
X1469984Y1641666D01*
X1486645Y1648331D02*
X1484979Y1649997D01*
X1481647D01*
X1479981Y1648331D01*
Y1646664D01*
X1481647Y1644998D01*
X1484979D01*
X1486645Y1643332D01*
Y1641666D01*
X1484979Y1640000D01*
X1481647D01*
X1479981Y1641666D01*
X1496642Y1649997D02*
X1489978D01*
Y1640000D01*
X1496642D01*
X1489978Y1644998D02*
X1493310D01*
X1499974Y1640000D02*
Y1649997D01*
X1503306Y1646664D01*
X1506639Y1649997D01*
Y1640000D01*
X1509971Y1649997D02*
Y1640000D01*
X1514969D01*
X1516635Y1641666D01*
Y1643332D01*
X1514969Y1644998D01*
X1509971D01*
X1514969D01*
X1516635Y1646664D01*
Y1648331D01*
X1514969Y1649997D01*
X1509971D01*
X1519968D02*
Y1640000D01*
X1526632D01*
X1529965Y1649997D02*
Y1648331D01*
X1533297Y1644998D01*
X1536629Y1648331D01*
Y1649997D01*
X1533297Y1644998D02*
Y1640000D01*
X1588331Y1010000D02*
X1589997Y1008334D01*
Y1005002D01*
X1588331Y1003335D01*
X1581666D01*
X1580000Y1005002D01*
Y1008334D01*
X1581666Y1010000D01*
X1588331D01*
X1580000Y988340D02*
Y985008D01*
X1581666Y983342D01*
X1584998D01*
X1586664Y985008D01*
Y988340D01*
X1584998Y990006D01*
X1581666D01*
X1580000Y988340D01*
X1589997Y980010D02*
X1580000D01*
X1584998D01*
X1586664Y978344D01*
Y975011D01*
X1584998Y973345D01*
X1580000D01*
Y970013D02*
X1586664D01*
Y968347D01*
X1584998Y966681D01*
X1580000D01*
X1584998D01*
X1586664Y965014D01*
X1584998Y963348D01*
X1580000D01*
X1826981Y1457320D02*
X1828647Y1455654D01*
Y1452322D01*
X1826981Y1450656D01*
X1820316D01*
X1818650Y1452322D01*
Y1455654D01*
X1820316Y1457320D01*
X1826981D01*
X1818650Y1447323D02*
X1820316D01*
Y1445657D01*
X1818650D01*
Y1447323D01*
Y1438993D02*
Y1435660D01*
Y1437326D01*
X1828647D01*
X1826981Y1438993D01*
X1825314Y1430662D02*
X1820316D01*
X1818650Y1428996D01*
Y1423997D01*
X1825314D01*
X1828647Y1414001D02*
Y1420665D01*
X1823648D01*
Y1417333D01*
Y1420665D01*
X1818650D01*
X2975080Y1302680D02*
Y1306012D01*
Y1304346D01*
X2965083D01*
X2966749Y1302680D01*
Y1311011D02*
X2965083Y1312677D01*
Y1316009D01*
X2966749Y1317675D01*
X2973414D01*
X2975080Y1316009D01*
Y1312677D01*
X2973414Y1311011D01*
X2966749D01*
X2965083Y1321007D02*
X2975080D01*
X2971748D01*
X2965083Y1327672D01*
X2970081Y1322674D01*
X2975080Y1327672D01*
X2935000Y1587500D02*
X2931668D01*
X2933334D01*
Y1577503D01*
X2935000Y1579169D01*
X2920005Y1577503D02*
X2923337Y1579169D01*
X2926669Y1582502D01*
Y1585834D01*
X2925003Y1587500D01*
X2921671D01*
X2920005Y1585834D01*
Y1584168D01*
X2921671Y1582502D01*
X2926669D01*
X2916673Y1587500D02*
Y1577503D01*
X2913340Y1580836D01*
X2910008Y1577503D01*
Y1587500D01*
X2900011D02*
X2906676D01*
X2900011Y1580836D01*
Y1579169D01*
X2901678Y1577503D01*
X2905010D01*
X2906676Y1579169D01*
X2896679Y1577503D02*
X2890015D01*
Y1579169D01*
X2896679Y1585834D01*
Y1587500D01*
X2880018Y1577503D02*
X2883350Y1579169D01*
X2886682Y1582502D01*
Y1585834D01*
X2885016Y1587500D01*
X2881684D01*
X2880018Y1585834D01*
Y1584168D01*
X2881684Y1582502D01*
X2886682D01*
X2871687Y1587500D02*
Y1577503D01*
X2876685Y1582502D01*
X2870021D01*
X2923336Y1450669D02*
X2925002Y1449003D01*
X2928334D01*
X2930000Y1450669D01*
Y1457334D01*
X2928334Y1459000D01*
X2925002D01*
X2923336Y1457334D01*
X2920003Y1449003D02*
Y1450669D01*
X2916671Y1454002D01*
X2913339Y1450669D01*
Y1449003D01*
X2916671Y1454002D02*
Y1459000D01*
X2910006Y1449003D02*
X2903342D01*
Y1450669D01*
X2910006Y1457334D01*
Y1459000D01*
X2893345Y1450669D02*
X2895011Y1449003D01*
X2898344D01*
X2900009Y1450669D01*
Y1457334D01*
X2898344Y1459000D01*
X2895011D01*
X2893345Y1457334D01*
X2883348Y1449003D02*
X2886681Y1450669D01*
X2890013Y1454002D01*
Y1457334D01*
X2888347Y1459000D01*
X2885015D01*
X2883348Y1457334D01*
Y1455668D01*
X2885015Y1454002D01*
X2890013D01*
X2873352Y1449003D02*
X2880016D01*
Y1454002D01*
X2876684Y1452336D01*
X2875018D01*
X2873352Y1454002D01*
Y1457334D01*
X2875018Y1459000D01*
X2878350D01*
X2880016Y1457334D01*
X2863355Y1459000D02*
X2870019D01*
X2863355Y1452336D01*
Y1450669D01*
X2865021Y1449003D01*
X2868353D01*
X2870019Y1450669D01*
X2860023Y1459000D02*
X2856690D01*
X2858356D01*
Y1449003D01*
X2860023Y1450669D01*
X2851692D02*
X2850026Y1449003D01*
X2846693D01*
X2845027Y1450669D01*
Y1452336D01*
X2846693Y1454002D01*
X2848360D01*
X2846693D01*
X2845027Y1455668D01*
Y1457334D01*
X2846693Y1459000D01*
X2850026D01*
X2851692Y1457334D01*
X1663500Y1441497D02*
X1670164D01*
X1666832D01*
Y1431500D01*
X1673497Y1441497D02*
Y1431500D01*
X1680161D01*
X1683494Y1441497D02*
Y1434832D01*
X1686826Y1431500D01*
X1690158Y1434832D01*
Y1441497D01*
X1693490D02*
X1700155D01*
Y1439831D01*
X1693490Y1433166D01*
Y1431500D01*
X1703487Y1439831D02*
X1705153Y1441497D01*
X1708486D01*
X1710152Y1439831D01*
Y1433166D01*
X1708486Y1431500D01*
X1705153D01*
X1703487Y1433166D01*
Y1439831D01*
X1720148Y1431500D02*
X1713484D01*
X1720148Y1438165D01*
Y1439831D01*
X1718482Y1441497D01*
X1715150D01*
X1713484Y1439831D01*
X1723481D02*
X1725147Y1441497D01*
X1728479D01*
X1730145Y1439831D01*
Y1438165D01*
X1728479Y1436498D01*
X1726813D01*
X1728479D01*
X1730145Y1434832D01*
Y1433166D01*
X1728479Y1431500D01*
X1725147D01*
X1723481Y1433166D01*
X1733477Y1439831D02*
X1735144Y1441497D01*
X1738476D01*
X1740142Y1439831D01*
Y1438165D01*
X1738476Y1436498D01*
X1736810D01*
X1738476D01*
X1740142Y1434832D01*
Y1433166D01*
X1738476Y1431500D01*
X1735144D01*
X1733477Y1433166D01*
X1743474Y1441497D02*
Y1431500D01*
X1748473D01*
X1750139Y1433166D01*
Y1439831D01*
X1748473Y1441497D01*
X1743474D01*
X1753471D02*
Y1431500D01*
X1758469D01*
X1760135Y1433166D01*
Y1434832D01*
X1758469Y1436498D01*
X1753471D01*
X1758469D01*
X1760135Y1438165D01*
Y1439831D01*
X1758469Y1441497D01*
X1753471D01*
X1763468D02*
Y1434832D01*
X1766800Y1431500D01*
X1770132Y1434832D01*
Y1441497D01*
X1773465D02*
X1780129D01*
X1776797D01*
Y1431500D01*
X2964920Y1388320D02*
Y1384988D01*
Y1386654D01*
X2974917D01*
X2973251Y1388320D01*
Y1379989D02*
X2974917Y1378323D01*
Y1374991D01*
X2973251Y1373325D01*
X2966586D01*
X2964920Y1374991D01*
Y1378323D01*
X2966586Y1379989D01*
X2973251D01*
X2974917Y1369993D02*
X2964920D01*
X2968252D01*
X2974917Y1363328D01*
X2969919Y1368326D01*
X2964920Y1363328D01*
Y1296320D02*
Y1292988D01*
Y1294654D01*
X2974917D01*
X2973251Y1296320D01*
Y1287989D02*
X2974917Y1286323D01*
Y1282991D01*
X2973251Y1281325D01*
X2966586D01*
X2964920Y1282991D01*
Y1286323D01*
X2966586Y1287989D01*
X2973251D01*
X2974917Y1277993D02*
X2964920D01*
X2968252D01*
X2974917Y1271328D01*
X2969919Y1276326D01*
X2964920Y1271328D01*
X1616080Y1171680D02*
Y1175012D01*
Y1173346D01*
X1606083D01*
X1607749Y1171680D01*
Y1180011D02*
X1606083Y1181677D01*
Y1185009D01*
X1607749Y1186675D01*
X1614414D01*
X1616080Y1185009D01*
Y1181677D01*
X1614414Y1180011D01*
X1607749D01*
Y1190007D02*
X1606083Y1191674D01*
Y1195006D01*
X1607749Y1196672D01*
X1614414D01*
X1616080Y1195006D01*
Y1191674D01*
X1614414Y1190007D01*
X1607749D01*
X1616080Y1200004D02*
X1606083D01*
Y1205003D01*
X1607749Y1206669D01*
X1611082D01*
X1612748Y1205003D01*
Y1200004D01*
Y1203336D02*
X1616080Y1206669D01*
X2878080Y1236680D02*
Y1240012D01*
Y1238346D01*
X2868083D01*
X2869749Y1236680D01*
Y1245011D02*
X2868083Y1246677D01*
Y1250009D01*
X2869749Y1251675D01*
X2876414D01*
X2878080Y1250009D01*
Y1246677D01*
X2876414Y1245011D01*
X2869749D01*
Y1255007D02*
X2868083Y1256674D01*
Y1260006D01*
X2869749Y1261672D01*
X2876414D01*
X2878080Y1260006D01*
Y1256674D01*
X2876414Y1255007D01*
X2869749D01*
X2878080Y1265004D02*
X2868083D01*
Y1270003D01*
X2869749Y1271669D01*
X2873082D01*
X2874748Y1270003D01*
Y1265004D01*
Y1268336D02*
X2878080Y1271669D01*
X2986350Y1474680D02*
Y1478012D01*
Y1476346D01*
X2976353D01*
X2978019Y1474680D01*
X2979685Y1483011D02*
X2984684D01*
X2986350Y1484677D01*
Y1489675D01*
X2979685D01*
X2976353Y1499672D02*
Y1493007D01*
X2981352D01*
Y1496340D01*
Y1493007D01*
X2986350D01*
Y1429680D02*
Y1433012D01*
Y1431346D01*
X2976353D01*
X2978019Y1429680D01*
X2979685Y1438011D02*
X2984684D01*
X2986350Y1439677D01*
Y1444675D01*
X2979685D01*
X2976353Y1454672D02*
Y1448007D01*
X2981352D01*
Y1451340D01*
Y1448007D01*
X2986350D01*
X1667680Y1116650D02*
X1671012D01*
X1669346D01*
Y1126647D01*
X1667680Y1124981D01*
X1676011Y1123315D02*
Y1118316D01*
X1677677Y1116650D01*
X1682675D01*
Y1123315D01*
X1692672Y1126647D02*
X1686007D01*
Y1121648D01*
X1689340D01*
X1686007D01*
Y1116650D01*
X1789150Y1456820D02*
Y1453488D01*
Y1455154D01*
X1799147D01*
X1797481Y1456820D01*
X1795815Y1448489D02*
X1790816D01*
X1789150Y1446823D01*
Y1441825D01*
X1795815D01*
X1799147Y1431828D02*
Y1438493D01*
X1794148D01*
Y1435160D01*
Y1438493D01*
X1789150D01*
X1769481Y1456820D02*
X1771147Y1455154D01*
Y1451822D01*
X1769481Y1450155D01*
X1762816D01*
X1761150Y1451822D01*
Y1455154D01*
X1762816Y1456820D01*
X1769481D01*
X1761150Y1446823D02*
X1762816D01*
Y1445157D01*
X1761150D01*
Y1446823D01*
Y1438493D02*
Y1435160D01*
Y1436826D01*
X1771147D01*
X1769481Y1438493D01*
X1767814Y1430162D02*
X1762816D01*
X1761150Y1428496D01*
Y1423497D01*
X1767814D01*
X1771147Y1413501D02*
Y1420165D01*
X1766148D01*
Y1416833D01*
Y1420165D01*
X1761150D01*
X1733150Y1456820D02*
Y1453488D01*
Y1455154D01*
X1743147D01*
X1741481Y1456820D01*
Y1448489D02*
X1743147Y1446823D01*
Y1443491D01*
X1741481Y1441825D01*
X1734816D01*
X1733150Y1443491D01*
Y1446823D01*
X1734816Y1448489D01*
X1741481D01*
X1739814Y1438493D02*
X1734816D01*
X1733150Y1436826D01*
Y1431828D01*
X1739814D01*
X1743147Y1421831D02*
Y1428496D01*
X1738148D01*
Y1425164D01*
Y1428496D01*
X1733150D01*
X1646070Y1461350D02*
X1642738D01*
X1644404D01*
Y1451353D01*
X1646070Y1453019D01*
X1637739D02*
X1636073Y1451353D01*
X1632741D01*
X1631075Y1453019D01*
Y1459684D01*
X1632741Y1461350D01*
X1636073D01*
X1637739Y1459684D01*
Y1453019D01*
X1627743Y1454686D02*
Y1459684D01*
X1626076Y1461350D01*
X1621078D01*
Y1454686D01*
X1611081Y1451353D02*
X1617746D01*
Y1456352D01*
X1614413D01*
X1617746D01*
Y1461350D01*
X1646320Y1431350D02*
X1642988D01*
X1644654D01*
Y1421353D01*
X1646320Y1423019D01*
X1637989D02*
X1636323Y1421353D01*
X1632991D01*
X1631325Y1423019D01*
Y1429684D01*
X1632991Y1431350D01*
X1636323D01*
X1637989Y1429684D01*
Y1423019D01*
X1627993Y1424686D02*
Y1429684D01*
X1626326Y1431350D01*
X1621328D01*
Y1424686D01*
X1611331Y1421353D02*
X1617996D01*
Y1426352D01*
X1614664D01*
X1617996D01*
Y1431350D01*
X1715820Y1266830D02*
X1712488D01*
X1714154D01*
Y1256833D01*
X1715820Y1258499D01*
X1707489D02*
X1705823Y1256833D01*
X1702491D01*
X1700825Y1258499D01*
Y1265164D01*
X1702491Y1266830D01*
X1705823D01*
X1707489Y1265164D01*
Y1258499D01*
X1697493Y1256833D02*
Y1266830D01*
Y1263498D01*
X1690828Y1256833D01*
X1695826Y1261832D01*
X1690828Y1266830D01*
X2560331Y905000D02*
X2561997Y903334D01*
Y900002D01*
X2560331Y898335D01*
X2553666D01*
X2552000Y900002D01*
Y903334D01*
X2553666Y905000D01*
X2560331D01*
X2552000Y895003D02*
X2553666D01*
Y893337D01*
X2552000D01*
Y895003D01*
Y886673D02*
Y883340D01*
Y885006D01*
X2561997D01*
X2560331Y886673D01*
X2558665Y878342D02*
X2553666D01*
X2552000Y876676D01*
Y871677D01*
X2558665D01*
X2561997Y861681D02*
Y868345D01*
X2556998D01*
Y865013D01*
Y868345D01*
X2552000D01*
X2341000Y778331D02*
X2342666Y779997D01*
X2345998D01*
X2347664Y778331D01*
Y771666D01*
X2345998Y770000D01*
X2342666D01*
X2341000Y771666D01*
Y778331D01*
X2350997Y770000D02*
Y771666D01*
X2352663D01*
Y770000D01*
X2350997D01*
X2359327D02*
X2362660D01*
X2360994D01*
Y779997D01*
X2359327Y778331D01*
X2367658Y776665D02*
Y771666D01*
X2369324Y770000D01*
X2374323D01*
Y776665D01*
X2384319Y779997D02*
X2377655D01*
Y774998D01*
X2380987D01*
X2377655D01*
Y770000D01*
X2341000Y795000D02*
X2344332D01*
X2342666D01*
Y804997D01*
X2341000Y803331D01*
X2349331D02*
X2350997Y804997D01*
X2354329D01*
X2355995Y803331D01*
Y796666D01*
X2354329Y795000D01*
X2350997D01*
X2349331Y796666D01*
Y803331D01*
X2359327Y801665D02*
Y796666D01*
X2360994Y795000D01*
X2365992D01*
Y801665D01*
X2375989Y804997D02*
X2369324D01*
Y799998D01*
X2372656D01*
X2369324D01*
Y795000D01*
X1565350Y1077680D02*
Y1081012D01*
Y1079346D01*
X1555353D01*
X1557019Y1077680D01*
X1558685Y1086011D02*
X1563684D01*
X1565350Y1087677D01*
Y1092675D01*
X1558685D01*
X1555353Y1102672D02*
Y1096007D01*
X1560352D01*
Y1099340D01*
Y1096007D01*
X1565350D01*
X2039998Y758000D02*
Y767997D01*
X2035000Y762998D01*
X2041664D01*
X2044997Y758000D02*
Y759666D01*
X2046663D01*
Y758000D01*
X2044997D01*
X2053327Y767997D02*
X2059992D01*
Y766331D01*
X2053327Y759666D01*
Y758000D01*
X2063324Y767997D02*
Y758000D01*
Y761332D01*
X2069989Y767997D01*
X2064990Y762998D01*
X2069989Y758000D01*
X1721680Y710981D02*
X1723346Y712647D01*
X1726678D01*
X1728345Y710981D01*
Y704316D01*
X1726678Y702650D01*
X1723346D01*
X1721680Y704316D01*
Y710981D01*
X1731677Y702650D02*
Y704316D01*
X1733343D01*
Y702650D01*
X1731677D01*
X1740007D02*
X1743340D01*
X1741674D01*
Y712647D01*
X1740007Y710981D01*
X1748338Y709314D02*
Y704316D01*
X1750004Y702650D01*
X1755003D01*
Y709314D01*
X1764999Y712647D02*
X1758335D01*
Y707648D01*
X1761667D01*
X1758335D01*
Y702650D01*
X1884500Y1149831D02*
X1886166Y1151497D01*
X1889498D01*
X1891165Y1149831D01*
Y1148165D01*
X1889498Y1146498D01*
X1887832D01*
X1889498D01*
X1891165Y1144832D01*
Y1143166D01*
X1889498Y1141500D01*
X1886166D01*
X1884500Y1143166D01*
X1901161Y1141500D02*
X1894497D01*
X1901161Y1148165D01*
Y1149831D01*
X1899495Y1151497D01*
X1896163D01*
X1894497Y1149831D01*
X1904494Y1141500D02*
Y1143166D01*
X1906160D01*
Y1141500D01*
X1904494D01*
X1912824Y1151497D02*
X1919489D01*
Y1149831D01*
X1912824Y1143166D01*
Y1141500D01*
X1929485Y1151497D02*
X1926153Y1149831D01*
X1922821Y1146498D01*
Y1143166D01*
X1924487Y1141500D01*
X1927819D01*
X1929485Y1143166D01*
Y1144832D01*
X1927819Y1146498D01*
X1922821D01*
X1932818Y1149831D02*
X1934484Y1151497D01*
X1937816D01*
X1939482Y1149831D01*
Y1148165D01*
X1937816Y1146498D01*
X1939482Y1144832D01*
Y1143166D01*
X1937816Y1141500D01*
X1934484D01*
X1932818Y1143166D01*
Y1144832D01*
X1934484Y1146498D01*
X1932818Y1148165D01*
Y1149831D01*
X1934484Y1146498D02*
X1937816D01*
X1942814Y1151497D02*
Y1141500D01*
Y1144832D01*
X1949479Y1151497D01*
X1944481Y1146498D01*
X1949479Y1141500D01*
X1952811Y1151497D02*
Y1141500D01*
Y1146498D01*
X1959476D01*
Y1151497D01*
Y1141500D01*
X1962808Y1151497D02*
X1969473D01*
Y1149831D01*
X1962808Y1143166D01*
Y1141500D01*
X1969473D01*
X1447500Y1065000D02*
Y1061668D01*
Y1063334D01*
X1457497D01*
X1455831Y1065000D01*
X1457497Y1050005D02*
X1455831Y1053337D01*
X1452498Y1056669D01*
X1449166D01*
X1447500Y1055003D01*
Y1051671D01*
X1449166Y1050005D01*
X1450832D01*
X1452498Y1051671D01*
Y1056669D01*
X1447500Y1046673D02*
X1457497D01*
X1454164Y1043340D01*
X1457497Y1040008D01*
X1447500D01*
Y1030011D02*
Y1036676D01*
X1454164Y1030011D01*
X1455831D01*
X1457497Y1031677D01*
Y1035010D01*
X1455831Y1036676D01*
X1457497Y1026679D02*
Y1020014D01*
X1455831D01*
X1449166Y1026679D01*
X1447500D01*
X1457497Y1010018D02*
X1455831Y1013350D01*
X1452498Y1016682D01*
X1449166D01*
X1447500Y1015016D01*
Y1011684D01*
X1449166Y1010018D01*
X1450832D01*
X1452498Y1011684D01*
Y1016682D01*
X1447500Y1001687D02*
X1457497D01*
X1452498Y1006685D01*
Y1000021D01*
X2234000Y1455000D02*
X2237332D01*
X2235666D01*
Y1464997D01*
X2234000Y1463331D01*
X2242331D02*
X2243997Y1464997D01*
X2247329D01*
X2248995Y1463331D01*
Y1456666D01*
X2247329Y1455000D01*
X2243997D01*
X2242331Y1456666D01*
Y1463331D01*
X2257326Y1455000D02*
Y1464997D01*
X2252327Y1459998D01*
X2258992D01*
X2262324Y1464997D02*
Y1455000D01*
Y1459998D01*
X2268989D01*
Y1464997D01*
Y1455000D01*
X2272321Y1459998D02*
X2278985D01*
X2282318Y1464997D02*
X2288982D01*
X2285650D01*
Y1455000D01*
X2292314Y1464997D02*
Y1455000D01*
X2297313D01*
X2298979Y1456666D01*
Y1463331D01*
X2297313Y1464997D01*
X2292314D01*
X2302311Y1455000D02*
Y1461664D01*
X2305644Y1464997D01*
X2308976Y1461664D01*
Y1455000D01*
Y1459998D01*
X2302311D01*
X2312308Y1463331D02*
X2313974Y1464997D01*
X2317307D01*
X2318973Y1463331D01*
Y1456666D01*
X2317307Y1455000D01*
X2313974D01*
X2312308Y1456666D01*
Y1463331D01*
X2322305Y1459998D02*
X2328969D01*
X2332302Y1455000D02*
Y1464997D01*
X2337300D01*
X2338966Y1463331D01*
Y1459998D01*
X2337300Y1458332D01*
X2332302D01*
X2335634D02*
X2338966Y1455000D01*
X2342298Y1463331D02*
X2343965Y1464997D01*
X2347297D01*
X2348963Y1463331D01*
Y1456666D01*
X2347297Y1455000D01*
X2343965D01*
X2342298Y1456666D01*
Y1463331D01*
X2352295Y1455000D02*
X2355627D01*
X2353961D01*
Y1464997D01*
X2352295Y1463331D01*
X1468500Y945000D02*
X1478497D01*
Y940002D01*
X1476831Y938335D01*
X1473498D01*
X1471832Y940002D01*
Y945000D01*
X1478497Y930005D02*
Y933337D01*
X1476831Y935003D01*
X1470166D01*
X1468500Y933337D01*
Y930005D01*
X1470166Y928339D01*
X1476831D01*
X1478497Y930005D01*
Y925006D02*
X1468500D01*
X1471832Y921674D01*
X1468500Y918342D01*
X1478497D01*
Y908345D02*
Y915010D01*
X1468500D01*
Y908345D01*
X1473498Y915010D02*
Y911677D01*
X1468500Y905013D02*
X1478497D01*
Y900014D01*
X1476831Y898348D01*
X1473498D01*
X1471832Y900014D01*
Y905013D01*
Y901681D02*
X1468500Y898348D01*
X1466834Y895016D02*
Y888352D01*
X1478497Y885019D02*
Y878355D01*
Y881687D01*
X1468500D01*
X1478497Y868358D02*
Y875023D01*
X1468500D01*
Y868358D01*
X1473498Y875023D02*
Y871690D01*
X1468500Y865026D02*
X1478497D01*
Y860027D01*
X1476831Y858361D01*
X1473498D01*
X1471832Y860027D01*
Y865026D01*
Y861693D02*
X1468500Y858361D01*
Y855029D02*
X1478497D01*
X1475164Y851697D01*
X1478497Y848364D01*
X1468500D01*
X2394500Y657500D02*
Y667497D01*
X2399498D01*
X2401165Y665831D01*
Y662498D01*
X2399498Y660832D01*
X2394500D01*
X2404497Y667497D02*
Y657500D01*
X2411161D01*
X2421158Y665831D02*
X2419492Y667497D01*
X2416160D01*
X2414494Y665831D01*
Y664165D01*
X2416160Y662498D01*
X2419492D01*
X2421158Y660832D01*
Y659166D01*
X2419492Y657500D01*
X2416160D01*
X2414494Y659166D01*
X2431155Y667497D02*
X2427823Y665831D01*
X2424490Y662498D01*
Y659166D01*
X2426156Y657500D01*
X2429489D01*
X2431155Y659166D01*
Y660832D01*
X2429489Y662498D01*
X2424490D01*
X2364500Y652500D02*
X2367832D01*
X2366166D01*
Y662497D01*
X2364500Y660831D01*
X1867000Y997664D02*
Y991000D01*
X1860336Y997664D01*
X1858669D01*
X1857003Y995998D01*
Y992666D01*
X1858669Y991000D01*
X1857003Y1007661D02*
Y1000997D01*
X1862002D01*
X1860336Y1004329D01*
Y1005995D01*
X1862002Y1007661D01*
X1865334D01*
X1867000Y1005995D01*
Y1002663D01*
X1865334Y1000997D01*
X1867000Y1010994D02*
X1865334D01*
Y1012660D01*
X1867000D01*
Y1010994D01*
X1858669Y1019324D02*
X1857003Y1020990D01*
Y1024323D01*
X1858669Y1025989D01*
X1865334D01*
X1867000Y1024323D01*
Y1020990D01*
X1865334Y1019324D01*
X1858669D01*
Y1029321D02*
X1857003Y1030987D01*
Y1034319D01*
X1858669Y1035985D01*
X1865334D01*
X1867000Y1034319D01*
Y1030987D01*
X1865334Y1029321D01*
X1858669D01*
Y1039318D02*
X1857003Y1040984D01*
Y1044316D01*
X1858669Y1045982D01*
X1865334D01*
X1867000Y1044316D01*
Y1040984D01*
X1865334Y1039318D01*
X1858669D01*
X1867000Y1049314D02*
X1857003D01*
X1860336Y1052647D01*
X1857003Y1055979D01*
X1867000D01*
X1857003Y1059311D02*
X1867000D01*
X1862002D01*
X1860336Y1060977D01*
Y1064310D01*
X1862002Y1065976D01*
X1867000D01*
X1860336Y1069308D02*
Y1075973D01*
X1867000Y1069308D01*
Y1075973D01*
X2548000Y1349000D02*
X2538003D01*
Y1353998D01*
X2539669Y1355665D01*
X2543002D01*
X2544668Y1353998D01*
Y1349000D01*
X2538003Y1358997D02*
X2546334D01*
X2548000Y1360663D01*
Y1363995D01*
X2546334Y1365661D01*
X2538003D01*
X2539669Y1375658D02*
X2538003Y1373992D01*
Y1370660D01*
X2539669Y1368994D01*
X2541335D01*
X2543002Y1370660D01*
Y1373992D01*
X2544668Y1375658D01*
X2546334D01*
X2548000Y1373992D01*
Y1370660D01*
X2546334Y1368994D01*
X2538003Y1378990D02*
X2548000D01*
X2543002D01*
Y1385655D01*
X2538003D01*
X2548000D01*
X2538003Y1398984D02*
X2548000D01*
Y1403982D01*
X2546334Y1405648D01*
X2544668D01*
X2543002Y1403982D01*
Y1398984D01*
Y1403982D01*
X2541335Y1405648D01*
X2539669D01*
X2538003Y1403982D01*
Y1398984D01*
Y1408981D02*
Y1415645D01*
Y1412313D01*
X2548000D01*
Y1418978D02*
X2538003D01*
X2548000Y1425642D01*
X2538003D01*
X2548170Y1256070D02*
X2538173D01*
Y1261068D01*
X2539839Y1262735D01*
X2543172D01*
X2544838Y1261068D01*
Y1256070D01*
X2538173Y1266067D02*
X2546504D01*
X2548170Y1267733D01*
Y1271065D01*
X2546504Y1272731D01*
X2538173D01*
X2539839Y1282728D02*
X2538173Y1281062D01*
Y1277730D01*
X2539839Y1276064D01*
X2541505D01*
X2543172Y1277730D01*
Y1281062D01*
X2544838Y1282728D01*
X2546504D01*
X2548170Y1281062D01*
Y1277730D01*
X2546504Y1276064D01*
X2538173Y1286060D02*
X2548170D01*
X2543172D01*
Y1292725D01*
X2538173D01*
X2548170D01*
X2538173Y1306054D02*
X2548170D01*
Y1311052D01*
X2546504Y1312718D01*
X2544838D01*
X2543172Y1311052D01*
Y1306054D01*
Y1311052D01*
X2541505Y1312718D01*
X2539839D01*
X2538173Y1311052D01*
Y1306054D01*
Y1316051D02*
Y1322715D01*
Y1319383D01*
X2548170D01*
Y1326047D02*
X2538173D01*
X2548170Y1332712D01*
X2538173D01*
X2547170Y1162820D02*
X2537173D01*
Y1167818D01*
X2538839Y1169484D01*
X2542172D01*
X2543838Y1167818D01*
Y1162820D01*
X2537173Y1172817D02*
X2545504D01*
X2547170Y1174483D01*
Y1177815D01*
X2545504Y1179481D01*
X2537173D01*
X2538839Y1189478D02*
X2537173Y1187812D01*
Y1184480D01*
X2538839Y1182813D01*
X2540506D01*
X2542172Y1184480D01*
Y1187812D01*
X2543838Y1189478D01*
X2545504D01*
X2547170Y1187812D01*
Y1184480D01*
X2545504Y1182813D01*
X2537173Y1192810D02*
X2547170D01*
X2542172D01*
Y1199475D01*
X2537173D01*
X2547170D01*
X2537173Y1212804D02*
X2547170D01*
Y1217802D01*
X2545504Y1219468D01*
X2543838D01*
X2542172Y1217802D01*
Y1212804D01*
Y1217802D01*
X2540506Y1219468D01*
X2538839D01*
X2537173Y1217802D01*
Y1212804D01*
Y1222801D02*
Y1229465D01*
Y1226133D01*
X2547170D01*
Y1232797D02*
X2537173D01*
X2547170Y1239462D01*
X2537173D01*
X2185000Y691000D02*
Y700997D01*
X2189998D01*
X2191664Y699331D01*
Y695998D01*
X2189998Y694332D01*
X2185000D01*
X2194997Y700997D02*
Y692666D01*
X2196663Y691000D01*
X2199995D01*
X2201661Y692666D01*
Y700997D01*
X2211658Y699331D02*
X2209992Y700997D01*
X2206660D01*
X2204994Y699331D01*
Y697664D01*
X2206660Y695998D01*
X2209992D01*
X2211658Y694332D01*
Y692666D01*
X2209992Y691000D01*
X2206660D01*
X2204994Y692666D01*
X2214990Y700997D02*
Y691000D01*
Y695998D01*
X2221655D01*
Y700997D01*
Y691000D01*
X2234984Y700997D02*
Y691000D01*
X2239982D01*
X2241648Y692666D01*
Y694332D01*
X2239982Y695998D01*
X2234984D01*
X2239982D01*
X2241648Y697664D01*
Y699331D01*
X2239982Y700997D01*
X2234984D01*
X2244981D02*
X2251645D01*
X2248313D01*
Y691000D01*
X2254978D02*
Y700997D01*
X2261642Y691000D01*
Y700997D01*
X2063000Y692000D02*
Y701997D01*
X2067998D01*
X2069664Y700331D01*
Y696998D01*
X2067998Y695332D01*
X2063000D01*
X2072997Y701997D02*
Y693666D01*
X2074663Y692000D01*
X2077995D01*
X2079661Y693666D01*
Y701997D01*
X2089658Y700331D02*
X2087992Y701997D01*
X2084660D01*
X2082993Y700331D01*
Y698664D01*
X2084660Y696998D01*
X2087992D01*
X2089658Y695332D01*
Y693666D01*
X2087992Y692000D01*
X2084660D01*
X2082993Y693666D01*
X2092990Y701997D02*
Y692000D01*
Y696998D01*
X2099655D01*
Y701997D01*
Y692000D01*
X2112984Y701997D02*
Y692000D01*
X2117982D01*
X2119648Y693666D01*
Y695332D01*
X2117982Y696998D01*
X2112984D01*
X2117982D01*
X2119648Y698664D01*
Y700331D01*
X2117982Y701997D01*
X2112984D01*
X2122981D02*
X2129645D01*
X2126313D01*
Y692000D01*
X2132977D02*
Y701997D01*
X2139642Y692000D01*
Y701997D01*
X1564664Y1025331D02*
X1562998Y1026997D01*
X1559666D01*
X1558000Y1025331D01*
Y1018666D01*
X1559666Y1017000D01*
X1562998D01*
X1564664Y1018666D01*
X1567997Y1026997D02*
Y1025331D01*
X1571329Y1021998D01*
X1574661Y1025331D01*
Y1026997D01*
X1571329Y1021998D02*
Y1017000D01*
X1577994Y1026997D02*
X1584658D01*
Y1025331D01*
X1577994Y1018666D01*
Y1017000D01*
X1594655Y1025331D02*
X1592989Y1026997D01*
X1589657D01*
X1587990Y1025331D01*
Y1018666D01*
X1589657Y1017000D01*
X1592989D01*
X1594655Y1018666D01*
X1604652Y1026997D02*
X1601319Y1025331D01*
X1597987Y1021998D01*
Y1018666D01*
X1599653Y1017000D01*
X1602986D01*
X1604652Y1018666D01*
Y1020332D01*
X1602986Y1021998D01*
X1597987D01*
X1614648Y1026997D02*
X1607984D01*
Y1021998D01*
X1611316Y1023664D01*
X1612982D01*
X1614648Y1021998D01*
Y1018666D01*
X1612982Y1017000D01*
X1609650D01*
X1607984Y1018666D01*
X1624645Y1017000D02*
X1617981D01*
X1624645Y1023664D01*
Y1025331D01*
X1622979Y1026997D01*
X1619647D01*
X1617981Y1025331D01*
X1627977Y1017000D02*
X1631310D01*
X1629644D01*
Y1026997D01*
X1627977Y1025331D01*
X1636308D02*
X1637974Y1026997D01*
X1641306D01*
X1642973Y1025331D01*
Y1023664D01*
X1641306Y1021998D01*
X1639640D01*
X1641306D01*
X1642973Y1020332D01*
Y1018666D01*
X1641306Y1017000D01*
X1637974D01*
X1636308Y1018666D01*
X1716000Y955997D02*
X1722664D01*
X1719332D01*
Y946000D01*
X1725997Y955997D02*
Y946000D01*
X1732661D01*
X1735994Y955997D02*
Y949332D01*
X1739326Y946000D01*
X1742658Y949332D01*
Y955997D01*
X1745990D02*
X1752655D01*
Y954331D01*
X1745990Y947666D01*
Y946000D01*
X1755987Y954331D02*
X1757653Y955997D01*
X1760986D01*
X1762652Y954331D01*
Y947666D01*
X1760986Y946000D01*
X1757653D01*
X1755987Y947666D01*
Y954331D01*
X1772648Y946000D02*
X1765984D01*
X1772648Y952664D01*
Y954331D01*
X1770982Y955997D01*
X1767650D01*
X1765984Y954331D01*
X1775981D02*
X1777647Y955997D01*
X1780979D01*
X1782645Y954331D01*
Y952664D01*
X1780979Y950998D01*
X1779313D01*
X1780979D01*
X1782645Y949332D01*
Y947666D01*
X1780979Y946000D01*
X1777647D01*
X1775981Y947666D01*
X1785977Y954331D02*
X1787644Y955997D01*
X1790976D01*
X1792642Y954331D01*
Y952664D01*
X1790976Y950998D01*
X1789310D01*
X1790976D01*
X1792642Y949332D01*
Y947666D01*
X1790976Y946000D01*
X1787644D01*
X1785977Y947666D01*
X1795974Y955997D02*
Y946000D01*
X1800973D01*
X1802639Y947666D01*
Y954331D01*
X1800973Y955997D01*
X1795974D01*
X1805971D02*
Y946000D01*
X1810969D01*
X1812635Y947666D01*
Y949332D01*
X1810969Y950998D01*
X1805971D01*
X1810969D01*
X1812635Y952664D01*
Y954331D01*
X1810969Y955997D01*
X1805971D01*
X1815968D02*
Y949332D01*
X1819300Y946000D01*
X1822632Y949332D01*
Y955997D01*
X1825965D02*
X1832629D01*
X1829297D01*
Y946000D01*
X1657000Y739997D02*
Y730000D01*
X1663665D01*
X1673661Y739997D02*
X1666997D01*
Y734998D01*
X1670329Y736665D01*
X1671995D01*
X1673661Y734998D01*
Y731666D01*
X1671995Y730000D01*
X1668663D01*
X1666997Y731666D01*
X1676994D02*
X1678660Y730000D01*
X1681992D01*
X1683658Y731666D01*
Y738331D01*
X1681992Y739997D01*
X1678660D01*
X1676994Y738331D01*
Y736665D01*
X1678660Y734998D01*
X1683658D01*
X1686990Y739997D02*
X1693655D01*
Y738331D01*
X1686990Y731666D01*
Y730000D01*
X1696987Y738331D02*
X1698653Y739997D01*
X1701985D01*
X1703652Y738331D01*
Y736665D01*
X1701985Y734998D01*
X1700319D01*
X1701985D01*
X1703652Y733332D01*
Y731666D01*
X1701985Y730000D01*
X1698653D01*
X1696987Y731666D01*
X1706984Y739997D02*
Y730000D01*
X1711982D01*
X1713648Y731666D01*
Y738331D01*
X1711982Y739997D01*
X1706984D01*
X1716981Y738331D02*
X1718647Y739997D01*
X1721979D01*
X1723645Y738331D01*
Y731666D01*
X1721979Y730000D01*
X1718647D01*
X1716981Y731666D01*
Y738331D01*
X1726977Y730000D02*
X1730310D01*
X1728644D01*
Y739997D01*
X1726977Y738331D01*
X1735308D02*
X1736974Y739997D01*
X1740307D01*
X1741973Y738331D01*
Y736665D01*
X1740307Y734998D01*
X1738640D01*
X1740307D01*
X1741973Y733332D01*
Y731666D01*
X1740307Y730000D01*
X1736974D01*
X1735308Y731666D01*
X1745305Y739997D02*
X1751969D01*
X1748637D01*
Y730000D01*
X1755302D02*
Y739997D01*
X1760300D01*
X1761966Y738331D01*
Y734998D01*
X1760300Y733332D01*
X1755302D01*
X1758634D02*
X1761966Y730000D01*
X2439664Y861331D02*
X2437998Y862997D01*
X2434666D01*
X2433000Y861331D01*
Y859665D01*
X2434666Y857998D01*
X2437998D01*
X2439664Y856332D01*
Y854666D01*
X2437998Y853000D01*
X2434666D01*
X2433000Y854666D01*
X2442997Y862997D02*
Y853000D01*
X2449661D01*
X2452993Y861331D02*
X2454660Y862997D01*
X2457992D01*
X2459658Y861331D01*
Y859665D01*
X2457992Y857998D01*
X2459658Y856332D01*
Y854666D01*
X2457992Y853000D01*
X2454660D01*
X2452993Y854666D01*
Y856332D01*
X2454660Y857998D01*
X2452993Y859665D01*
Y861331D01*
X2454660Y857998D02*
X2457992D01*
X2469655Y862997D02*
X2466323Y861331D01*
X2462990Y857998D01*
Y854666D01*
X2464657Y853000D01*
X2467989D01*
X2469655Y854666D01*
Y856332D01*
X2467989Y857998D01*
X2462990D01*
X2472987Y854666D02*
X2474653Y853000D01*
X2477986D01*
X2479652Y854666D01*
Y861331D01*
X2477986Y862997D01*
X2474653D01*
X2472987Y861331D01*
Y859665D01*
X2474653Y857998D01*
X2479652D01*
X2482984Y862997D02*
Y856332D01*
X2486316Y853000D01*
X2489648Y856332D01*
Y862997D01*
X2499645Y853000D02*
X2492981D01*
X2499645Y859665D01*
Y861331D01*
X2497979Y862997D01*
X2494647D01*
X2492981Y861331D01*
X2051664Y1124331D02*
X2049998Y1125997D01*
X2046666D01*
X2045000Y1124331D01*
Y1122664D01*
X2046666Y1120998D01*
X2049998D01*
X2051664Y1119332D01*
Y1117666D01*
X2049998Y1116000D01*
X2046666D01*
X2045000Y1117666D01*
X2054997Y1125997D02*
X2061661D01*
X2058329D01*
Y1116000D01*
X2064993D02*
Y1125997D01*
X2068326Y1122664D01*
X2071658Y1125997D01*
Y1116000D01*
X2074990Y1124331D02*
X2076656Y1125997D01*
X2079989D01*
X2081655Y1124331D01*
Y1122664D01*
X2079989Y1120998D01*
X2078323D01*
X2079989D01*
X2081655Y1119332D01*
Y1117666D01*
X2079989Y1116000D01*
X2076656D01*
X2074990Y1117666D01*
X2091652Y1116000D02*
X2084987D01*
X2091652Y1122664D01*
Y1124331D01*
X2089986Y1125997D01*
X2086653D01*
X2084987Y1124331D01*
X2101648Y1125997D02*
X2094984D01*
Y1120998D01*
X2098316D01*
X2094984D01*
Y1116000D01*
X2109979D02*
Y1125997D01*
X2104981Y1120998D01*
X2111645D01*
X2114977Y1124331D02*
X2116644Y1125997D01*
X2119976D01*
X2121642Y1124331D01*
Y1117666D01*
X2119976Y1116000D01*
X2116644D01*
X2114977Y1117666D01*
Y1124331D01*
X2124974Y1125997D02*
X2131639D01*
Y1124331D01*
X2124974Y1117666D01*
Y1116000D01*
X2134971Y1125997D02*
Y1119332D01*
X2138303Y1116000D01*
X2141635Y1119332D01*
Y1125997D01*
X2151632Y1124331D02*
X2149966Y1125997D01*
X2146634D01*
X2144968Y1124331D01*
Y1117666D01*
X2146634Y1116000D01*
X2149966D01*
X2151632Y1117666D01*
Y1120998D01*
X2148300D01*
X2154964Y1125997D02*
X2161629D01*
X2158297D01*
Y1116000D01*
X2171626Y1125997D02*
X2168294Y1124331D01*
X2164961Y1120998D01*
Y1117666D01*
X2166628Y1116000D01*
X2169960D01*
X2171626Y1117666D01*
Y1119332D01*
X2169960Y1120998D01*
X2164961D01*
X1661678Y670920D02*
Y680917D01*
X1656680Y675918D01*
X1663345D01*
X1666677Y670920D02*
Y672586D01*
X1668343D01*
Y670920D01*
X1666677D01*
X1675007Y680917D02*
X1681672D01*
Y679251D01*
X1675007Y672586D01*
Y670920D01*
X1685004Y680917D02*
Y670920D01*
Y674252D01*
X1691669Y680917D01*
X1686670Y675918D01*
X1691669Y670920D01*
X1640000Y730998D02*
X1630003D01*
X1635002Y726000D01*
Y732664D01*
X1630003Y735997D02*
Y742661D01*
X1631669D01*
X1638334Y735997D01*
X1640000D01*
X1630003Y745994D02*
X1640000D01*
X1636668D01*
X1630003Y752658D01*
X1635002Y747660D01*
X1640000Y752658D01*
X1616000Y734000D02*
Y737332D01*
Y735666D01*
X1606003D01*
X1607669Y734000D01*
Y742331D02*
X1606003Y743997D01*
Y747329D01*
X1607669Y748995D01*
X1609335D01*
X1611002Y747329D01*
X1612668Y748995D01*
X1614334D01*
X1616000Y747329D01*
Y743997D01*
X1614334Y742331D01*
X1612668D01*
X1611002Y743997D01*
X1609335Y742331D01*
X1607669D01*
X1611002Y743997D02*
Y747329D01*
X1606003Y752327D02*
X1616000D01*
X1612668D01*
X1606003Y758992D01*
X1611002Y753994D01*
X1616000Y758992D01*
X1669000Y938000D02*
X1672332D01*
X1670666D01*
Y947997D01*
X1669000Y946331D01*
X1677331Y947997D02*
Y938000D01*
Y941332D01*
X1683995Y947997D01*
X1678997Y942998D01*
X1683995Y938000D01*
X2097003Y965665D02*
Y959000D01*
X2102002D01*
X2100336Y962332D01*
Y963998D01*
X2102002Y965665D01*
X2105334D01*
X2107000Y963998D01*
Y960666D01*
X2105334Y959000D01*
X2107000Y968997D02*
Y972329D01*
Y970663D01*
X2097003D01*
X2098669Y968997D01*
Y977327D02*
X2097003Y978994D01*
Y982326D01*
X2098669Y983992D01*
X2105334D01*
X2107000Y982326D01*
Y978994D01*
X2105334Y977327D01*
X2098669D01*
X2107000Y987324D02*
X2097003D01*
Y992323D01*
X2098669Y993989D01*
X2102002D01*
X2103668Y992323D01*
Y987324D01*
Y990656D02*
X2107000Y993989D01*
X2634680Y1365920D02*
X2638012D01*
X2636346D01*
Y1375917D01*
X2634680Y1374251D01*
X2643011Y1375917D02*
Y1365920D01*
Y1369252D01*
X2649675Y1375917D01*
X2644677Y1370918D01*
X2649675Y1365920D01*
X1974080Y1005680D02*
Y1009012D01*
Y1007346D01*
X1964083D01*
X1965749Y1005680D01*
Y1014011D02*
X1964083Y1015677D01*
Y1019009D01*
X1965749Y1020675D01*
X1972414D01*
X1974080Y1019009D01*
Y1015677D01*
X1972414Y1014011D01*
X1965749D01*
X1974080Y1024007D02*
X1964083D01*
Y1029006D01*
X1965749Y1030672D01*
X1969082D01*
X1970748Y1029006D01*
Y1024007D01*
Y1027340D02*
X1974080Y1030672D01*
X2633680Y1333920D02*
X2637012D01*
X2635346D01*
Y1343917D01*
X2633680Y1342251D01*
X2642010Y1343917D02*
Y1333920D01*
Y1337252D01*
X2648675Y1343917D01*
X2643677Y1338918D01*
X2648675Y1333920D01*
X2632680Y1301920D02*
X2636012D01*
X2634346D01*
Y1311917D01*
X2632680Y1310251D01*
X2641011Y1311917D02*
Y1301920D01*
Y1305252D01*
X2647675Y1311917D01*
X2642677Y1306918D01*
X2647675Y1301920D01*
X2632680Y1268920D02*
X2636012D01*
X2634346D01*
Y1278917D01*
X2632680Y1277251D01*
X2641011Y1278917D02*
Y1268920D01*
Y1272252D01*
X2647675Y1278917D01*
X2642677Y1273918D01*
X2647675Y1268920D01*
X2445000Y1373000D02*
X2448332D01*
X2446666D01*
Y1382997D01*
X2445000Y1381331D01*
X2453331Y1382997D02*
Y1373000D01*
Y1376332D01*
X2459995Y1382997D01*
X2454997Y1377998D01*
X2459995Y1373000D01*
X2166000Y796000D02*
X2169332D01*
X2167666D01*
Y805997D01*
X2166000Y804331D01*
X2174331D02*
X2175997Y805997D01*
X2179329D01*
X2180995Y804331D01*
Y797666D01*
X2179329Y796000D01*
X2175997D01*
X2174331Y797666D01*
Y804331D01*
X2184327Y805997D02*
Y796000D01*
Y799332D01*
X2190992Y805997D01*
X2185993Y800998D01*
X2190992Y796000D01*
X2444000Y1282000D02*
X2447332D01*
X2445666D01*
Y1291997D01*
X2444000Y1290331D01*
X2452331Y1291997D02*
Y1282000D01*
Y1285332D01*
X2458995Y1291997D01*
X2453997Y1286998D01*
X2458995Y1282000D01*
X2002000Y1220998D02*
X1992003D01*
X1997002Y1216000D01*
Y1222664D01*
X2002000Y1225997D02*
X2000334D01*
Y1227663D01*
X2002000D01*
Y1225997D01*
X1992003Y1234327D02*
Y1240992D01*
X1993669D01*
X2000334Y1234327D01*
X2002000D01*
X1992003Y1244324D02*
X2002000D01*
X1998668D01*
X1992003Y1250989D01*
X1997002Y1245990D01*
X2002000Y1250989D01*
X1928000Y1050331D02*
X1929666Y1051997D01*
X1932998D01*
X1934664Y1050331D01*
Y1048664D01*
X1932998Y1046998D01*
X1931332D01*
X1932998D01*
X1934664Y1045332D01*
Y1043666D01*
X1932998Y1042000D01*
X1929666D01*
X1928000Y1043666D01*
X1937997Y1050331D02*
X1939663Y1051997D01*
X1942995D01*
X1944661Y1050331D01*
Y1048664D01*
X1942995Y1046998D01*
X1941329D01*
X1942995D01*
X1944661Y1045332D01*
Y1043666D01*
X1942995Y1042000D01*
X1939663D01*
X1937997Y1043666D01*
X1947994Y1042000D02*
Y1051997D01*
X1952992D01*
X1954658Y1050331D01*
Y1046998D01*
X1952992Y1045332D01*
X1947994D01*
X1951326D02*
X1954658Y1042000D01*
X1938000Y1066669D02*
X1936334Y1065003D01*
X1933002D01*
X1931335Y1066669D01*
Y1073334D01*
X1933002Y1075000D01*
X1936334D01*
X1938000Y1073334D01*
Y1066669D01*
X2452000Y1183000D02*
Y1186332D01*
Y1184666D01*
X2442003D01*
X2443669Y1183000D01*
X2442003Y1191331D02*
X2452000D01*
X2448668D01*
X2442003Y1197995D01*
X2447002Y1192997D01*
X2452000Y1197995D01*
X2099664Y768997D02*
X2093000D01*
Y763998D01*
X2096332Y765665D01*
X2097998D01*
X2099664Y763998D01*
Y760666D01*
X2097998Y759000D01*
X2094666D01*
X2093000Y760666D01*
X2102997Y759000D02*
X2106329D01*
X2104663D01*
Y768997D01*
X2102997Y767331D01*
X2111327D02*
X2112994Y768997D01*
X2116326D01*
X2117992Y767331D01*
Y760666D01*
X2116326Y759000D01*
X2112994D01*
X2111327Y760666D01*
Y767331D01*
X2121324Y759000D02*
Y768997D01*
X2126323D01*
X2127989Y767331D01*
Y763998D01*
X2126323Y762332D01*
X2121324D01*
X2124657D02*
X2127989Y759000D01*
X1638665Y847331D02*
X1636998Y848997D01*
X1633666D01*
X1632000Y847331D01*
Y840666D01*
X1633666Y839000D01*
X1636998D01*
X1638665Y840666D01*
X1641997Y848997D02*
Y839000D01*
X1646995D01*
X1648661Y840666D01*
Y847331D01*
X1646995Y848997D01*
X1641997D01*
X1651994Y839000D02*
Y848997D01*
X1656992D01*
X1658658Y847331D01*
Y843998D01*
X1656992Y842332D01*
X1651994D01*
X1655326D02*
X1658658Y839000D01*
X1661990Y848997D02*
Y839000D01*
Y843998D01*
X1668655D01*
Y848997D01*
Y839000D01*
X1671987D02*
X1675319D01*
X1673653D01*
Y848997D01*
X1671987Y847331D01*
X1686982Y839000D02*
X1680318D01*
X1686982Y845665D01*
Y847331D01*
X1685316Y848997D01*
X1681984D01*
X1680318Y847331D01*
X1696979Y848997D02*
X1690314D01*
Y843998D01*
X1693647Y845665D01*
X1695313D01*
X1696979Y843998D01*
Y840666D01*
X1695313Y839000D01*
X1691981D01*
X1690314Y840666D01*
X1700311Y839000D02*
Y848997D01*
X1706976Y839000D01*
Y848997D01*
X1710308Y839000D02*
Y848997D01*
X1715307D01*
X1716973Y847331D01*
Y843998D01*
X1715307Y842332D01*
X1710308D01*
X1720305Y843998D02*
X1726969D01*
X1730302Y839000D02*
X1733634D01*
X1731968D01*
Y848997D01*
X1730302Y847331D01*
X1745297Y848997D02*
X1738632D01*
Y843998D01*
X1741965Y845665D01*
X1743631D01*
X1745297Y843998D01*
Y840666D01*
X1743631Y839000D01*
X1740298D01*
X1738632Y840666D01*
X1748629Y847331D02*
X1750295Y848997D01*
X1753627D01*
X1755294Y847331D01*
Y840666D01*
X1753627Y839000D01*
X1750295D01*
X1748629Y840666D01*
Y847331D01*
X1758626Y839000D02*
Y848997D01*
X1761958Y845665D01*
X1765290Y848997D01*
Y839000D01*
X1775287Y847331D02*
X1773621Y848997D01*
X1770289D01*
X1768623Y847331D01*
Y840666D01*
X1770289Y839000D01*
X1773621D01*
X1775287Y840666D01*
X1960003Y870000D02*
X1970000D01*
Y874998D01*
X1968334Y876665D01*
X1966668D01*
X1965002Y874998D01*
Y870000D01*
Y874998D01*
X1963336Y876665D01*
X1961669D01*
X1960003Y874998D01*
Y870000D01*
Y879997D02*
X1970000D01*
Y886661D01*
Y889994D02*
X1960003D01*
X1963336Y893326D01*
X1960003Y896658D01*
X1970000D01*
Y906655D02*
Y899990D01*
X1963336Y906655D01*
X1961669D01*
X1960003Y904989D01*
Y901656D01*
X1961669Y899990D01*
X1970000Y909987D02*
Y913319D01*
Y911653D01*
X1960003D01*
X1961669Y909987D01*
X1970000Y918318D02*
X1960003D01*
Y923316D01*
X1961669Y924982D01*
X1965002D01*
X1966668Y923316D01*
Y918318D01*
Y921650D02*
X1970000Y924982D01*
X1960003Y928315D02*
X1970000D01*
X1966668D01*
X1960003Y934979D01*
X1965002Y929981D01*
X1970000Y934979D01*
Y938311D02*
Y941644D01*
Y939977D01*
X1960003D01*
X1961669Y938311D01*
Y946642D02*
X1960003Y948308D01*
Y951640D01*
X1961669Y953306D01*
X1968334D01*
X1970000Y951640D01*
Y948308D01*
X1968334Y946642D01*
X1961669D01*
X1970000Y963303D02*
Y956639D01*
X1963336Y963303D01*
X1961669D01*
X1960003Y961637D01*
Y958305D01*
X1961669Y956639D01*
Y973300D02*
X1960003Y971634D01*
Y968302D01*
X1961669Y966636D01*
X1963336D01*
X1965002Y968302D01*
Y971634D01*
X1966668Y973300D01*
X1968334D01*
X1970000Y971634D01*
Y968302D01*
X1968334Y966636D01*
X1970000Y976632D02*
X1960003D01*
X1970000Y983297D01*
X1960003D01*
X1970000Y986629D02*
Y989961D01*
Y988295D01*
X1960003D01*
X1961669Y986629D01*
X1960003Y994960D02*
X1970000D01*
Y999958D01*
X1968334Y1001624D01*
X1961669D01*
X1960003Y999958D01*
Y994960D01*
X1710331Y967336D02*
X1711997Y969002D01*
Y972334D01*
X1710331Y974000D01*
X1703666D01*
X1702000Y972334D01*
Y969002D01*
X1703666Y967336D01*
X1706998D01*
Y970668D01*
X1702000Y964003D02*
X1711997D01*
Y959005D01*
X1710331Y957339D01*
X1706998D01*
X1705332Y959005D01*
Y964003D01*
Y960671D02*
X1702000Y957339D01*
X1711997Y947342D02*
Y954006D01*
X1702000D01*
Y947342D01*
X1706998Y954006D02*
Y950674D01*
X1711997Y937345D02*
Y944010D01*
X1702000D01*
Y937345D01*
X1706998Y944010D02*
Y940677D01*
X1702000Y934013D02*
X1711997D01*
X1702000Y927348D01*
X1711997D01*
X1737664Y754331D02*
X1735998Y755997D01*
X1732666D01*
X1731000Y754331D01*
Y752664D01*
X1732666Y750998D01*
X1735998D01*
X1737664Y749332D01*
Y747666D01*
X1735998Y746000D01*
X1732666D01*
X1731000Y747666D01*
X1740997Y755997D02*
X1747661D01*
X1744329D01*
Y746000D01*
X1750994D02*
Y755997D01*
X1755992D01*
X1757658Y754331D01*
Y750998D01*
X1755992Y749332D01*
X1750994D01*
X1767655Y754331D02*
X1765989Y755997D01*
X1762657D01*
X1760990Y754331D01*
Y752664D01*
X1762657Y750998D01*
X1765989D01*
X1767655Y749332D01*
Y747666D01*
X1765989Y746000D01*
X1762657D01*
X1760990Y747666D01*
X1770987Y754331D02*
X1772653Y755997D01*
X1775986D01*
X1777652Y754331D01*
Y752664D01*
X1775986Y750998D01*
X1774319D01*
X1775986D01*
X1777652Y749332D01*
Y747666D01*
X1775986Y746000D01*
X1772653D01*
X1770987Y747666D01*
X1785982Y746000D02*
Y755997D01*
X1780984Y750998D01*
X1787648D01*
X1790981Y754331D02*
X1792647Y755997D01*
X1795979D01*
X1797645Y754331D01*
Y747666D01*
X1795979Y746000D01*
X1792647D01*
X1790981Y747666D01*
Y754331D01*
X1800977Y755997D02*
Y747666D01*
X1802644Y746000D01*
X1805976D01*
X1807642Y747666D01*
Y755997D01*
X2691000Y1364000D02*
Y1373997D01*
X2695999D01*
X2697664Y1372331D01*
Y1368998D01*
X2695999Y1367332D01*
X2691000D01*
X2694332D02*
X2697664Y1364000D01*
X2707661Y1373997D02*
X2700997D01*
Y1364000D01*
X2707661D01*
X2700997Y1368998D02*
X2704329D01*
X2710994Y1373997D02*
Y1364000D01*
X2715992D01*
X2717658Y1365666D01*
Y1372331D01*
X2715992Y1373997D01*
X2710994D01*
X2690000Y1340997D02*
Y1331000D01*
X2694998D01*
X2696664Y1332666D01*
Y1334332D01*
X2694998Y1335998D01*
X2690000D01*
X2694998D01*
X2696664Y1337664D01*
Y1339331D01*
X2694998Y1340997D01*
X2690000D01*
X2699997D02*
Y1331000D01*
X2706661D01*
X2709994Y1340997D02*
Y1332666D01*
X2711660Y1331000D01*
X2714992D01*
X2716658Y1332666D01*
Y1340997D01*
X2726655D02*
X2719990D01*
Y1331000D01*
X2726655D01*
X2719990Y1335998D02*
X2723322D01*
X2684000Y1309997D02*
Y1308331D01*
X2687332Y1304998D01*
X2690664Y1308331D01*
Y1309997D01*
X2687332Y1304998D02*
Y1300000D01*
X2700661Y1309997D02*
X2693997D01*
Y1300000D01*
X2700661D01*
X2693997Y1304998D02*
X2697329D01*
X2703994Y1309997D02*
Y1300000D01*
X2710658D01*
X2713990Y1309997D02*
Y1300000D01*
X2720655D01*
X2728986Y1309997D02*
X2725653D01*
X2723987Y1308331D01*
Y1301666D01*
X2725653Y1300000D01*
X2728986D01*
X2730652Y1301666D01*
Y1308331D01*
X2728986Y1309997D01*
X2733984D02*
Y1300000D01*
X2737316Y1303332D01*
X2740648Y1300000D01*
Y1309997D01*
X2690664Y1274331D02*
X2688998Y1275997D01*
X2685666D01*
X2684000Y1274331D01*
Y1267666D01*
X2685666Y1266000D01*
X2688998D01*
X2690664Y1267666D01*
Y1270998D01*
X2687332D01*
X2693997Y1266000D02*
Y1275997D01*
X2698995D01*
X2700661Y1274331D01*
Y1270998D01*
X2698995Y1269332D01*
X2693997D01*
X2697329D02*
X2700661Y1266000D01*
X2710658Y1275997D02*
X2703994D01*
Y1266000D01*
X2710658D01*
X2703994Y1270998D02*
X2707326D01*
X2720655Y1275997D02*
X2713990D01*
Y1266000D01*
X2720655D01*
X2713990Y1270998D02*
X2717323D01*
X2723987Y1266000D02*
Y1275997D01*
X2730652Y1266000D01*
Y1275997D01*
X1773680Y920650D02*
X1777012D01*
X1775346D01*
Y930647D01*
X1773680Y928981D01*
X1782011Y927315D02*
Y922316D01*
X1783677Y920650D01*
X1788675D01*
Y927315D01*
X1798672Y930647D02*
X1792007D01*
Y925648D01*
X1795340D01*
X1792007D01*
Y920650D01*
X1773680Y899981D02*
X1775346Y901647D01*
X1778678D01*
X1780345Y899981D01*
Y893316D01*
X1778678Y891650D01*
X1775346D01*
X1773680Y893316D01*
Y899981D01*
X1783677Y891650D02*
Y893316D01*
X1785343D01*
Y891650D01*
X1783677D01*
X1792007D02*
X1795340D01*
X1793674D01*
Y901647D01*
X1792007Y899981D01*
X1800338Y898315D02*
Y893316D01*
X1802004Y891650D01*
X1807003D01*
Y898315D01*
X1816999Y901647D02*
X1810335D01*
Y896648D01*
X1813667D01*
X1810335D01*
Y891650D01*
X1773680Y862650D02*
X1777012D01*
X1775346D01*
Y872647D01*
X1773680Y870981D01*
X1782011D02*
X1783677Y872647D01*
X1787009D01*
X1788675Y870981D01*
Y864316D01*
X1787009Y862650D01*
X1783677D01*
X1782011Y864316D01*
Y870981D01*
X1792007Y869314D02*
Y864316D01*
X1793674Y862650D01*
X1798672D01*
Y869314D01*
X1808669Y872647D02*
X1802004D01*
Y867648D01*
X1805336D01*
X1802004D01*
Y862650D01*
X1651000Y928000D02*
Y931332D01*
Y929666D01*
X1641003D01*
X1642669Y928000D01*
Y936331D02*
X1641003Y937997D01*
Y941329D01*
X1642669Y942995D01*
X1649334D01*
X1651000Y941329D01*
Y937997D01*
X1649334Y936331D01*
X1642669D01*
X1644335Y946327D02*
X1649334D01*
X1651000Y947994D01*
Y952992D01*
X1644335D01*
X1641003Y962989D02*
Y956324D01*
X1646002D01*
Y959656D01*
Y956324D01*
X1651000D01*
X1623000Y929000D02*
Y932332D01*
Y930666D01*
X1613003D01*
X1614669Y929000D01*
Y937331D02*
X1613003Y938997D01*
Y942329D01*
X1614669Y943995D01*
X1621334D01*
X1623000Y942329D01*
Y938997D01*
X1621334Y937331D01*
X1614669D01*
X1616335Y947327D02*
X1621334D01*
X1623000Y948994D01*
Y953992D01*
X1616335D01*
X1613003Y963989D02*
Y957324D01*
X1618002D01*
Y960656D01*
Y957324D01*
X1623000D01*
X1604650Y704656D02*
Y711320D01*
X1611315Y704656D01*
X1612981D01*
X1614647Y706322D01*
Y709654D01*
X1612981Y711320D01*
X1604650Y694659D02*
Y701323D01*
X1611315Y694659D01*
X1612981D01*
X1614647Y696325D01*
Y699657D01*
X1612981Y701323D01*
Y691326D02*
X1614647Y689660D01*
Y686328D01*
X1612981Y684662D01*
X1606316D01*
X1604650Y686328D01*
Y689660D01*
X1606316Y691326D01*
X1612981D01*
X1601318Y681330D02*
X1611315D01*
Y676331D01*
X1609648Y674665D01*
X1606316D01*
X1604650Y676331D01*
Y681330D01*
X1614647Y664668D02*
Y671333D01*
X1609648D01*
Y668001D01*
Y671333D01*
X1604650D01*
X1631650Y704656D02*
Y711320D01*
X1638315Y704656D01*
X1639981D01*
X1641647Y706322D01*
Y709654D01*
X1639981Y711320D01*
X1631650Y694659D02*
Y701323D01*
X1638315Y694659D01*
X1639981D01*
X1641647Y696325D01*
Y699657D01*
X1639981Y701323D01*
X1631650Y691327D02*
X1638315D01*
Y686328D01*
X1636648Y684662D01*
X1631650D01*
X1641647Y674665D02*
Y681330D01*
X1636648D01*
Y677997D01*
Y681330D01*
X1631650D01*
X1750155Y662460D02*
X1743490D01*
X1750155Y669125D01*
Y670791D01*
X1748488Y672457D01*
X1745156D01*
X1743490Y670791D01*
X1760151Y662460D02*
X1753487D01*
X1760151Y669125D01*
Y670791D01*
X1758485Y672457D01*
X1755153D01*
X1753487Y670791D01*
X1763483Y669125D02*
Y664126D01*
X1765150Y662460D01*
X1770148D01*
Y669125D01*
X1780145Y672457D02*
X1773480D01*
Y667458D01*
X1776813D01*
X1773480D01*
Y662460D01*
X1579920Y859640D02*
Y856308D01*
Y857974D01*
X1589917D01*
X1588251Y859640D01*
Y851309D02*
X1589917Y849643D01*
Y846311D01*
X1588251Y844645D01*
X1581586D01*
X1579920Y846311D01*
Y849643D01*
X1581586Y851309D01*
X1588251D01*
Y841313D02*
X1589917Y839646D01*
Y836314D01*
X1588251Y834648D01*
X1581586D01*
X1579920Y836314D01*
Y839646D01*
X1581586Y841313D01*
X1588251D01*
X1589917Y831316D02*
X1581586D01*
X1579920Y829650D01*
Y826317D01*
X1581586Y824651D01*
X1589917D01*
Y814654D02*
Y821319D01*
X1584918D01*
Y817987D01*
Y821319D01*
X1579920D01*
X1589917Y794661D02*
X1588251Y797993D01*
X1584918Y801325D01*
X1581586D01*
X1579920Y799659D01*
Y796327D01*
X1581586Y794661D01*
X1583252D01*
X1584918Y796327D01*
Y801325D01*
X1579920Y791329D02*
X1581586D01*
Y789662D01*
X1579920D01*
Y791329D01*
X1588251Y782998D02*
X1589917Y781332D01*
Y778000D01*
X1588251Y776333D01*
X1586584D01*
X1584918Y778000D01*
Y779666D01*
Y778000D01*
X1583252Y776333D01*
X1581586D01*
X1579920Y778000D01*
Y781332D01*
X1581586Y782998D01*
X1589917Y773001D02*
X1583252D01*
X1579920Y769669D01*
X1583252Y766337D01*
X1589917D01*
X2416650Y1078320D02*
Y1074988D01*
Y1076654D01*
X2426647D01*
X2424981Y1078320D01*
Y1069989D02*
X2426647Y1068323D01*
Y1064991D01*
X2424981Y1063325D01*
X2418316D01*
X2416650Y1064991D01*
Y1068323D01*
X2418316Y1069989D01*
X2424981D01*
X2423315Y1059993D02*
X2418316D01*
X2416650Y1058326D01*
Y1053328D01*
X2423315D01*
X2426647Y1043331D02*
Y1049996D01*
X2421648D01*
Y1046664D01*
Y1049996D01*
X2416650D01*
X2445650Y1078320D02*
Y1074988D01*
Y1076654D01*
X2455647D01*
X2453981Y1078320D01*
Y1069989D02*
X2455647Y1068323D01*
Y1064991D01*
X2453981Y1063325D01*
X2447316D01*
X2445650Y1064991D01*
Y1068323D01*
X2447316Y1069989D01*
X2453981D01*
X2452314Y1059993D02*
X2447316D01*
X2445650Y1058326D01*
Y1053328D01*
X2452314D01*
X2455647Y1043331D02*
Y1049996D01*
X2450648D01*
Y1046664D01*
Y1049996D01*
X2445650D01*
X2395981Y1078320D02*
X2397647Y1076654D01*
Y1073322D01*
X2395981Y1071656D01*
X2389316D01*
X2387650Y1073322D01*
Y1076654D01*
X2389316Y1078320D01*
X2395981D01*
X2387650Y1068323D02*
X2389316D01*
Y1066657D01*
X2387650D01*
Y1068323D01*
Y1059993D02*
Y1056660D01*
Y1058326D01*
X2397647D01*
X2395981Y1059993D01*
X2394315Y1051662D02*
X2389316D01*
X2387650Y1049996D01*
Y1044997D01*
X2394315D01*
X2397647Y1035001D02*
Y1041665D01*
X2392648D01*
Y1038333D01*
Y1041665D01*
X2387650D01*
X2365981Y1078320D02*
X2367647Y1076654D01*
Y1073322D01*
X2365981Y1071656D01*
X2359316D01*
X2357650Y1073322D01*
Y1076654D01*
X2359316Y1078320D01*
X2365981D01*
X2357650Y1068323D02*
X2359316D01*
Y1066657D01*
X2357650D01*
Y1068323D01*
Y1059993D02*
Y1056660D01*
Y1058326D01*
X2367647D01*
X2365981Y1059993D01*
X2364315Y1051662D02*
X2359316D01*
X2357650Y1049996D01*
Y1044997D01*
X2364315D01*
X2367647Y1035001D02*
Y1041665D01*
X2362648D01*
Y1038333D01*
Y1041665D01*
X2357650D01*
X1931664Y1106997D02*
X1928332Y1105331D01*
X1925000Y1101998D01*
Y1098666D01*
X1926666Y1097000D01*
X1929998D01*
X1931664Y1098666D01*
Y1100332D01*
X1929998Y1101998D01*
X1925000D01*
X1934997Y1097000D02*
Y1098666D01*
X1936663D01*
Y1097000D01*
X1934997D01*
X1943327Y1105331D02*
X1944993Y1106997D01*
X1948326D01*
X1949992Y1105331D01*
Y1103664D01*
X1948326Y1101998D01*
X1949992Y1100332D01*
Y1098666D01*
X1948326Y1097000D01*
X1944993D01*
X1943327Y1098666D01*
Y1100332D01*
X1944993Y1101998D01*
X1943327Y1103664D01*
Y1105331D01*
X1944993Y1101998D02*
X1948326D01*
X1953324Y1097000D02*
Y1106997D01*
X1958323D01*
X1959989Y1105331D01*
Y1101998D01*
X1958323Y1100332D01*
X1953324D01*
X1969986Y1106997D02*
X1963321D01*
Y1101998D01*
X1966653D01*
X1963321D01*
Y1097000D01*
X1929664Y1192997D02*
X1926332Y1191331D01*
X1923000Y1187998D01*
Y1184666D01*
X1924666Y1183000D01*
X1927998D01*
X1929664Y1184666D01*
Y1186332D01*
X1927998Y1187998D01*
X1923000D01*
X1932997Y1183000D02*
Y1184666D01*
X1934663D01*
Y1183000D01*
X1932997D01*
X1941327Y1191331D02*
X1942993Y1192997D01*
X1946326D01*
X1947992Y1191331D01*
Y1189665D01*
X1946326Y1187998D01*
X1947992Y1186332D01*
Y1184666D01*
X1946326Y1183000D01*
X1942993D01*
X1941327Y1184666D01*
Y1186332D01*
X1942993Y1187998D01*
X1941327Y1189665D01*
Y1191331D01*
X1942993Y1187998D02*
X1946326D01*
X1951324Y1183000D02*
Y1192997D01*
X1956323D01*
X1957989Y1191331D01*
Y1187998D01*
X1956323Y1186332D01*
X1951324D01*
X1967986Y1192997D02*
X1961321D01*
Y1187998D01*
X1964653D01*
X1961321D01*
Y1183000D01*
X1950000Y1224000D02*
X1946668D01*
X1948334D01*
Y1214003D01*
X1950000Y1215669D01*
X1941669Y1217336D02*
Y1222334D01*
X1940003Y1224000D01*
X1935005D01*
Y1217336D01*
X1925008Y1214003D02*
X1931673D01*
Y1219002D01*
X1928340D01*
X1931673D01*
Y1224000D01*
X2030019Y943680D02*
X2028353Y945346D01*
Y948678D01*
X2030019Y950344D01*
X2036684D01*
X2038350Y948678D01*
Y945346D01*
X2036684Y943680D01*
X2030019D01*
X2038350Y953677D02*
X2036684D01*
Y955343D01*
X2038350D01*
Y953677D01*
Y962007D02*
Y965340D01*
Y963673D01*
X2028353D01*
X2030019Y962007D01*
X2031685Y970338D02*
X2036684D01*
X2038350Y972004D01*
Y977002D01*
X2031685D01*
X2028353Y986999D02*
Y980335D01*
X2033352D01*
Y983667D01*
Y980335D01*
X2038350D01*
X2010350Y943680D02*
Y947012D01*
Y945346D01*
X2000353D01*
X2002019Y943680D01*
X2003685Y952011D02*
X2008684D01*
X2010350Y953677D01*
Y958675D01*
X2003685D01*
X2000353Y968672D02*
Y962007D01*
X2005352D01*
Y965340D01*
Y962007D01*
X2010350D01*
X2141000Y969665D02*
Y963000D01*
X2134335Y969665D01*
X2132669D01*
X2131003Y967998D01*
Y964666D01*
X2132669Y963000D01*
X2141000Y972997D02*
X2139334D01*
Y974663D01*
X2141000D01*
Y972997D01*
Y987992D02*
Y981327D01*
X2134335Y987992D01*
X2132669D01*
X2131003Y986326D01*
Y982993D01*
X2132669Y981327D01*
X2134335Y991324D02*
X2139334D01*
X2141000Y992990D01*
Y997989D01*
X2134335D01*
X2131003Y1007986D02*
Y1001321D01*
X2136002D01*
Y1004653D01*
Y1001321D01*
X2141000D01*
X2185350Y1220344D02*
Y1213680D01*
X2178685Y1220344D01*
X2177019D01*
X2175353Y1218678D01*
Y1215346D01*
X2177019Y1213680D01*
X2185350Y1223677D02*
X2183684D01*
Y1225343D01*
X2185350D01*
Y1223677D01*
Y1238672D02*
Y1232007D01*
X2178685Y1238672D01*
X2177019D01*
X2175353Y1237006D01*
Y1233674D01*
X2177019Y1232007D01*
X2178685Y1242004D02*
X2183684D01*
X2185350Y1243670D01*
Y1248669D01*
X2178685D01*
X2175353Y1258665D02*
Y1252001D01*
X2180352D01*
Y1255333D01*
Y1252001D01*
X2185350D01*
X1918000Y1015331D02*
X1919666Y1016997D01*
X1922998D01*
X1924664Y1015331D01*
Y1008666D01*
X1922998Y1007000D01*
X1919666D01*
X1918000Y1008666D01*
Y1015331D01*
X1927997Y1007000D02*
Y1008666D01*
X1929663D01*
Y1007000D01*
X1927997D01*
X1936327D02*
X1939660D01*
X1937994D01*
Y1016997D01*
X1936327Y1015331D01*
X1944658Y1013664D02*
Y1008666D01*
X1946324Y1007000D01*
X1951323D01*
Y1013664D01*
X1961319Y1016997D02*
X1954655D01*
Y1011998D01*
X1957987D01*
X1954655D01*
Y1007000D01*
X1924000Y981000D02*
X1927332D01*
X1925666D01*
Y990997D01*
X1924000Y989331D01*
X1932331Y987664D02*
Y982666D01*
X1933997Y981000D01*
X1938995D01*
Y987664D01*
X1948992Y990997D02*
X1942327D01*
Y985998D01*
X1945660D01*
X1942327D01*
Y981000D01*
X2145019Y1213680D02*
X2143353Y1215346D01*
Y1218678D01*
X2145019Y1220344D01*
X2151684D01*
X2153350Y1218678D01*
Y1215346D01*
X2151684Y1213680D01*
X2145019D01*
X2153350Y1223677D02*
X2151684D01*
Y1225343D01*
X2153350D01*
Y1223677D01*
Y1232007D02*
Y1235340D01*
Y1233674D01*
X2143353D01*
X2145019Y1232007D01*
X2146685Y1240338D02*
X2151684D01*
X2153350Y1242004D01*
Y1247003D01*
X2146685D01*
X2143353Y1256999D02*
Y1250335D01*
X2148352D01*
Y1253667D01*
Y1250335D01*
X2153350D01*
X2052019Y1210680D02*
X2050353Y1212346D01*
Y1215678D01*
X2052019Y1217345D01*
X2058684D01*
X2060350Y1215678D01*
Y1212346D01*
X2058684Y1210680D01*
X2052019D01*
X2060350Y1220677D02*
X2058684D01*
Y1222343D01*
X2060350D01*
Y1220677D01*
Y1229007D02*
Y1232340D01*
Y1230674D01*
X2050353D01*
X2052019Y1229007D01*
X2053685Y1237338D02*
X2058684D01*
X2060350Y1239004D01*
Y1244003D01*
X2053685D01*
X2050353Y1253999D02*
Y1247335D01*
X2055352D01*
Y1250667D01*
Y1247335D01*
X2060350D01*
X1992680Y1003981D02*
X1994346Y1005647D01*
X1997678D01*
X1999344Y1003981D01*
Y997316D01*
X1997678Y995650D01*
X1994346D01*
X1992680Y997316D01*
Y1003981D01*
X2002677Y995650D02*
Y997316D01*
X2004343D01*
Y995650D01*
X2002677D01*
X2011007D02*
X2014340D01*
X2012673D01*
Y1005647D01*
X2011007Y1003981D01*
X2019338Y1002315D02*
Y997316D01*
X2021004Y995650D01*
X2026003D01*
Y1002315D01*
X2035999Y1005647D02*
X2029335D01*
Y1000648D01*
X2032667D01*
X2029335D01*
Y995650D01*
X2052669Y948000D02*
X2051003Y949666D01*
Y952998D01*
X2052669Y954665D01*
X2059334D01*
X2061000Y952998D01*
Y949666D01*
X2059334Y948000D01*
X2052669D01*
X2061000Y957997D02*
X2059334D01*
Y959663D01*
X2061000D01*
Y957997D01*
Y966327D02*
Y969660D01*
Y967994D01*
X2051003D01*
X2052669Y966327D01*
X2054335Y974658D02*
X2059334D01*
X2061000Y976324D01*
Y981323D01*
X2054335D01*
X2051003Y991319D02*
Y984655D01*
X2056002D01*
Y987987D01*
Y984655D01*
X2061000D01*
X2024019Y1210680D02*
X2022353Y1212346D01*
Y1215678D01*
X2024019Y1217345D01*
X2030684D01*
X2032350Y1215678D01*
Y1212346D01*
X2030684Y1210680D01*
X2024019D01*
X2032350Y1220677D02*
X2030684D01*
Y1222343D01*
X2032350D01*
Y1220677D01*
Y1229007D02*
Y1232340D01*
Y1230674D01*
X2022353D01*
X2024019Y1229007D01*
X2025685Y1237338D02*
X2030684D01*
X2032350Y1239004D01*
Y1244003D01*
X2025685D01*
X2022353Y1253999D02*
Y1247335D01*
X2027352D01*
Y1250667D01*
Y1247335D01*
X2032350D01*
X2181019Y1160680D02*
X2179353Y1162346D01*
Y1165678D01*
X2181019Y1167345D01*
X2187684D01*
X2189350Y1165678D01*
Y1162346D01*
X2187684Y1160680D01*
X2181019D01*
X2189350Y1170677D02*
X2187684D01*
Y1172343D01*
X2189350D01*
Y1170677D01*
Y1179007D02*
Y1182340D01*
Y1180674D01*
X2179353D01*
X2181019Y1179007D01*
X2182686Y1187338D02*
X2187684D01*
X2189350Y1189004D01*
Y1194003D01*
X2182686D01*
X2179353Y1203999D02*
Y1197335D01*
X2184352D01*
Y1200667D01*
Y1197335D01*
X2189350D01*
X2159669Y962000D02*
X2158003Y963666D01*
Y966998D01*
X2159669Y968664D01*
X2166334D01*
X2168000Y966998D01*
Y963666D01*
X2166334Y962000D01*
X2159669D01*
X2168000Y971997D02*
X2166334D01*
Y973663D01*
X2168000D01*
Y971997D01*
Y980327D02*
Y983660D01*
Y981993D01*
X2158003D01*
X2159669Y980327D01*
X2161335Y988658D02*
X2166334D01*
X2168000Y990324D01*
Y995322D01*
X2161335D01*
X2158003Y1005319D02*
Y998655D01*
X2163002D01*
Y1001987D01*
Y998655D01*
X2168000D01*
X1879000Y1105331D02*
X1880666Y1106997D01*
X1883998D01*
X1885665Y1105331D01*
Y1098666D01*
X1883998Y1097000D01*
X1880666D01*
X1879000Y1098666D01*
Y1105331D01*
X1888997Y1097000D02*
Y1098666D01*
X1890663D01*
Y1097000D01*
X1888997D01*
X1897327D02*
X1900660D01*
X1898994D01*
Y1106997D01*
X1897327Y1105331D01*
X1905658Y1103664D02*
Y1098666D01*
X1907324Y1097000D01*
X1912323D01*
Y1103664D01*
X1922319Y1106997D02*
X1915655D01*
Y1101998D01*
X1918987D01*
X1915655D01*
Y1097000D01*
X1842850Y962180D02*
Y965512D01*
Y963846D01*
X1832853D01*
X1834519Y962180D01*
Y970511D02*
X1832853Y972177D01*
Y975509D01*
X1834519Y977175D01*
X1836185D01*
X1837852Y975509D01*
X1839518Y977175D01*
X1841184D01*
X1842850Y975509D01*
Y972177D01*
X1841184Y970511D01*
X1839518D01*
X1837852Y972177D01*
X1836185Y970511D01*
X1834519D01*
X1837852Y972177D02*
Y975509D01*
X1846182Y980507D02*
X1836185D01*
Y985506D01*
X1837852Y987172D01*
X1841184D01*
X1842850Y985506D01*
Y980507D01*
X1832853Y997169D02*
Y990504D01*
X1837852D01*
Y993836D01*
Y990504D01*
X1842850D01*
X1830150Y1082820D02*
Y1079488D01*
Y1081154D01*
X1840147D01*
X1838481Y1082820D01*
Y1074489D02*
X1840147Y1072823D01*
Y1069491D01*
X1838481Y1067825D01*
X1836815D01*
X1835148Y1069491D01*
X1833482Y1067825D01*
X1831816D01*
X1830150Y1069491D01*
Y1072823D01*
X1831816Y1074489D01*
X1833482D01*
X1835148Y1072823D01*
X1836815Y1074489D01*
X1838481D01*
X1835148Y1072823D02*
Y1069491D01*
X1826818Y1064493D02*
X1836815D01*
Y1059494D01*
X1835148Y1057828D01*
X1831816D01*
X1830150Y1059494D01*
Y1064493D01*
X1840147Y1047831D02*
Y1054496D01*
X1835148D01*
Y1051163D01*
Y1054496D01*
X1830150D01*
X2473669Y1363000D02*
X2472003Y1364666D01*
Y1367998D01*
X2473669Y1369664D01*
X2480334D01*
X2482000Y1367998D01*
Y1364666D01*
X2480334Y1363000D01*
X2473669D01*
X2482000Y1372997D02*
X2480334D01*
Y1374663D01*
X2482000D01*
Y1372997D01*
Y1381327D02*
Y1384660D01*
Y1382994D01*
X2472003D01*
X2473669Y1381327D01*
X2475336Y1389658D02*
X2480334D01*
X2482000Y1391324D01*
Y1396323D01*
X2475336D01*
X2472003Y1406319D02*
Y1399655D01*
X2477002D01*
Y1402987D01*
Y1399655D01*
X2482000D01*
X2472669Y1272000D02*
X2471003Y1273666D01*
Y1276998D01*
X2472669Y1278664D01*
X2479334D01*
X2481000Y1276998D01*
Y1273666D01*
X2479334Y1272000D01*
X2472669D01*
X2481000Y1281997D02*
X2479334D01*
Y1283663D01*
X2481000D01*
Y1281997D01*
Y1290327D02*
Y1293660D01*
Y1291994D01*
X2471003D01*
X2472669Y1290327D01*
X2474335Y1298658D02*
X2479334D01*
X2481000Y1300324D01*
Y1305323D01*
X2474335D01*
X2471003Y1315319D02*
Y1308655D01*
X2476002D01*
Y1311987D01*
Y1308655D01*
X2481000D01*
X2473669Y1178000D02*
X2472003Y1179666D01*
Y1182998D01*
X2473669Y1184665D01*
X2480334D01*
X2482000Y1182998D01*
Y1179666D01*
X2480334Y1178000D01*
X2473669D01*
X2482000Y1187997D02*
X2480334D01*
Y1189663D01*
X2482000D01*
Y1187997D01*
Y1196327D02*
Y1199660D01*
Y1197993D01*
X2472003D01*
X2473669Y1196327D01*
X2475336Y1204658D02*
X2480334D01*
X2482000Y1206324D01*
Y1211322D01*
X2475336D01*
X2472003Y1221319D02*
Y1214655D01*
X2477002D01*
Y1217987D01*
Y1214655D01*
X2482000D01*
X2166000Y780331D02*
X2167666Y781997D01*
X2170998D01*
X2172664Y780331D01*
Y773666D01*
X2170998Y772000D01*
X2167666D01*
X2166000Y773666D01*
Y780331D01*
X2175997Y772000D02*
Y773666D01*
X2177663D01*
Y772000D01*
X2175997D01*
X2184327D02*
X2187660D01*
X2185993D01*
Y781997D01*
X2184327Y780331D01*
X2192658Y778664D02*
Y773666D01*
X2194324Y772000D01*
X2199323D01*
Y778664D01*
X2209319Y781997D02*
X2202655D01*
Y776998D01*
X2205987D01*
X2202655D01*
Y772000D01*
X1550917Y889006D02*
Y892338D01*
Y890672D01*
X1542586D01*
X1540920Y892338D01*
Y894004D01*
X1542586Y895670D01*
X1550917Y885673D02*
X1542586D01*
X1540920Y884007D01*
Y880675D01*
X1542586Y879009D01*
X1550917D01*
X1540920Y875676D02*
X1550917D01*
X1547585Y872344D01*
X1550917Y869012D01*
X1540920D01*
Y865680D02*
X1550917D01*
Y860681D01*
X1549251Y859015D01*
X1545918D01*
X1544252Y860681D01*
Y865680D01*
X1550917Y849018D02*
Y855683D01*
X1540920D01*
Y849018D01*
X1545918Y855683D02*
Y852351D01*
X1540920Y845686D02*
X1550917D01*
Y840688D01*
X1549251Y839022D01*
X1545918D01*
X1544252Y840688D01*
Y845686D01*
Y842354D02*
X1540920Y839022D01*
X2255000Y1288331D02*
X2256666Y1289997D01*
X2259998D01*
X2261664Y1288331D01*
Y1281666D01*
X2259998Y1280000D01*
X2256666D01*
X2255000Y1281666D01*
Y1288331D01*
X2264997Y1280000D02*
Y1281666D01*
X2266663D01*
Y1280000D01*
X2264997D01*
X2273327D02*
X2276660D01*
X2274993D01*
Y1289997D01*
X2273327Y1288331D01*
X2281658Y1286664D02*
Y1281666D01*
X2283324Y1280000D01*
X2288323D01*
Y1286664D01*
X2298319Y1289997D02*
X2291655D01*
Y1284998D01*
X2294987D01*
X2291655D01*
Y1280000D01*
X2308000Y1288331D02*
X2309666Y1289997D01*
X2312998D01*
X2314664Y1288331D01*
Y1281666D01*
X2312998Y1280000D01*
X2309666D01*
X2308000Y1281666D01*
Y1288331D01*
X2317997Y1280000D02*
Y1281666D01*
X2319663D01*
Y1280000D01*
X2317997D01*
X2326327D02*
X2329660D01*
X2327993D01*
Y1289997D01*
X2326327Y1288331D01*
X2334658Y1286664D02*
Y1281666D01*
X2336324Y1280000D01*
X2341322D01*
Y1286664D01*
X2351319Y1289997D02*
X2344655D01*
Y1284998D01*
X2347987D01*
X2344655D01*
Y1280000D01*
X1654995Y1078917D02*
X1651662D01*
X1653328D01*
Y1070586D01*
X1651662Y1068920D01*
X1649996D01*
X1648330Y1070586D01*
X1658327Y1078917D02*
Y1070586D01*
X1659993Y1068920D01*
X1663325D01*
X1664991Y1070586D01*
Y1078917D01*
X1668324Y1068920D02*
Y1078917D01*
X1671656Y1075584D01*
X1674988Y1078917D01*
Y1068920D01*
X1678320D02*
Y1078917D01*
X1683319D01*
X1684985Y1077251D01*
Y1073918D01*
X1683319Y1072252D01*
X1678320D01*
X1694982Y1078917D02*
X1688317D01*
Y1068920D01*
X1694982D01*
X1688317Y1073918D02*
X1691649D01*
X1698314Y1068920D02*
Y1078917D01*
X1703312D01*
X1704978Y1077251D01*
Y1073918D01*
X1703312Y1072252D01*
X1698314D01*
X1701646D02*
X1704978Y1068920D01*
X1654995Y1051917D02*
X1651662D01*
X1653328D01*
Y1043586D01*
X1651662Y1041920D01*
X1649996D01*
X1648330Y1043586D01*
X1658327Y1051917D02*
Y1043586D01*
X1659993Y1041920D01*
X1663325D01*
X1664991Y1043586D01*
Y1051917D01*
X1668324Y1041920D02*
Y1051917D01*
X1671656Y1048585D01*
X1674988Y1051917D01*
Y1041920D01*
X1678320D02*
Y1051917D01*
X1683319D01*
X1684985Y1050251D01*
Y1046918D01*
X1683319Y1045252D01*
X1678320D01*
X1694982Y1051917D02*
X1688317D01*
Y1041920D01*
X1694982D01*
X1688317Y1046918D02*
X1691649D01*
X1698314Y1041920D02*
Y1051917D01*
X1703312D01*
X1704978Y1050251D01*
Y1046918D01*
X1703312Y1045252D01*
X1698314D01*
X1701646D02*
X1704978Y1041920D01*
X1654995Y1024917D02*
X1651662D01*
X1653328D01*
Y1016586D01*
X1651662Y1014920D01*
X1649996D01*
X1648330Y1016586D01*
X1658327Y1024917D02*
Y1016586D01*
X1659993Y1014920D01*
X1663325D01*
X1664991Y1016586D01*
Y1024917D01*
X1668324Y1014920D02*
Y1024917D01*
X1671656Y1021584D01*
X1674988Y1024917D01*
Y1014920D01*
X1678320D02*
Y1024917D01*
X1683319D01*
X1684985Y1023251D01*
Y1019918D01*
X1683319Y1018252D01*
X1678320D01*
X1694982Y1024917D02*
X1688317D01*
Y1014920D01*
X1694982D01*
X1688317Y1019918D02*
X1691649D01*
X1698314Y1014920D02*
Y1024917D01*
X1703312D01*
X1704978Y1023251D01*
Y1019918D01*
X1703312Y1018252D01*
X1698314D01*
X1701646D02*
X1704978Y1014920D01*
X2878680Y681650D02*
X2882012D01*
X2880346D01*
Y691647D01*
X2878680Y689981D01*
X2887011D02*
X2888677Y691647D01*
X2892009D01*
X2893675Y689981D01*
Y683316D01*
X2892009Y681650D01*
X2888677D01*
X2887011Y683316D01*
Y689981D01*
X2897007Y688315D02*
Y683316D01*
X2898674Y681650D01*
X2903672D01*
Y688315D01*
X2913669Y691647D02*
X2907004D01*
Y686648D01*
X2910337D01*
X2907004D01*
Y681650D01*
X2969019Y698680D02*
X2967353Y700346D01*
Y703678D01*
X2969019Y705344D01*
X2975684D01*
X2977350Y703678D01*
Y700346D01*
X2975684Y698680D01*
X2969019D01*
X2977350Y708677D02*
X2975684D01*
Y710343D01*
X2977350D01*
Y708677D01*
Y717007D02*
Y720340D01*
Y718673D01*
X2967353D01*
X2969019Y717007D01*
X2970685Y725338D02*
X2975684D01*
X2977350Y727004D01*
Y732002D01*
X2970685D01*
X2967353Y741999D02*
Y735335D01*
X2972352D01*
Y738667D01*
Y735335D01*
X2977350D01*
X2916000Y718000D02*
X2912668D01*
X2914334D01*
Y708003D01*
X2916000Y709669D01*
X2886664Y780331D02*
X2884998Y781997D01*
X2881666D01*
X2880000Y780331D01*
Y778664D01*
X2881666Y776998D01*
X2884998D01*
X2886664Y775332D01*
Y773666D01*
X2884998Y772000D01*
X2881666D01*
X2880000Y773666D01*
X2889997Y772000D02*
Y781997D01*
X2894995D01*
X2896661Y780331D01*
Y776998D01*
X2894995Y775332D01*
X2889997D01*
X2899994Y772000D02*
Y781997D01*
X2903326Y778664D01*
X2906658Y781997D01*
Y772000D01*
X2909990D02*
X2913322D01*
X2911656D01*
Y781997D01*
X2909990Y780331D01*
X2923319Y772000D02*
Y781997D01*
X2918321Y776998D01*
X2924985D01*
X2928318Y780331D02*
X2929984Y781997D01*
X2933316D01*
X2934982Y780331D01*
Y778664D01*
X2933316Y776998D01*
X2931650D01*
X2933316D01*
X2934982Y775332D01*
Y773666D01*
X2933316Y772000D01*
X2929984D01*
X2928318Y773666D01*
X2938315Y781997D02*
X2944979D01*
Y780331D01*
X2938315Y773666D01*
Y772000D01*
X2948311Y781997D02*
Y772000D01*
Y776998D01*
X2954976D01*
Y781997D01*
Y772000D01*
X2958308D02*
Y781997D01*
X2961640Y778664D01*
X2964973Y781997D01*
Y772000D01*
X2973303D02*
Y781997D01*
X2968305Y776998D01*
X2974969D01*
X2978302Y781997D02*
Y772000D01*
Y776998D01*
X2984966D01*
Y781997D01*
Y772000D01*
X2988298Y776998D02*
X2994963D01*
X2998295Y781997D02*
Y772000D01*
X3003293D01*
X3004960Y773666D01*
Y775332D01*
X3003293Y776998D01*
X2998295D01*
X3003293D01*
X3004960Y778664D01*
Y780331D01*
X3003293Y781997D01*
X2998295D01*
X2817669Y1396664D02*
X2816003Y1394998D01*
Y1391666D01*
X2817669Y1390000D01*
X2824334D01*
X2826000Y1391666D01*
Y1394998D01*
X2824334Y1396664D01*
X2821002D01*
Y1393332D01*
X2826000Y1399997D02*
X2816003D01*
Y1404995D01*
X2817669Y1406661D01*
X2821002D01*
X2822668Y1404995D01*
Y1399997D01*
Y1403329D02*
X2826000Y1406661D01*
X2816003Y1416658D02*
Y1409993D01*
X2826000D01*
Y1416658D01*
X2821002Y1409993D02*
Y1413326D01*
X2816003Y1426655D02*
Y1419990D01*
X2826000D01*
Y1426655D01*
X2821002Y1419990D02*
Y1423323D01*
X2826000Y1429987D02*
X2816003D01*
X2826000Y1436652D01*
X2816003D01*
X2821920Y1343320D02*
Y1339988D01*
Y1341654D01*
X2831917D01*
X2830251Y1343320D01*
X2831917Y1334989D02*
X2821920D01*
X2825252D01*
X2831917Y1328325D01*
X2826918Y1333323D01*
X2821920Y1328325D01*
X2832080Y1421680D02*
Y1425012D01*
Y1423346D01*
X2822083D01*
X2823749Y1421680D01*
X2822083Y1430011D02*
X2832080D01*
X2828748D01*
X2822083Y1436675D01*
X2827082Y1431677D01*
X2832080Y1436675D01*
X2828000Y1376000D02*
X2837997D01*
Y1371002D01*
X2836331Y1369335D01*
X2832998D01*
X2831332Y1371002D01*
Y1376000D01*
Y1372668D02*
X2828000Y1369335D01*
X2837997Y1359339D02*
Y1366003D01*
X2828000D01*
Y1359339D01*
X2832998Y1366003D02*
Y1362671D01*
X2837997Y1356006D02*
X2828000D01*
Y1351008D01*
X2829666Y1349342D01*
X2836331D01*
X2837997Y1351008D01*
Y1356006D01*
D68*
X2956587Y728000D02*
G03*
X2956587Y728000I-61587J0D01*
G01*
X2337587Y1048000D02*
G03*
X2337587Y1048000I-61587J0D01*
G01*
X1721500Y1148750D02*
Y1248750D01*
X1651500Y1148750D02*
X1721500D01*
X1651500D02*
Y1248750D01*
X1721500D01*
X2850000Y1295000D02*
Y1365000D01*
Y1295000D02*
X2950000D01*
Y1365000D01*
X2850000D02*
X2950000D01*
X1402500Y1285750D02*
X1572500D01*
Y1118750D02*
Y1285750D01*
X1403500Y1118750D02*
X1572500D01*
X1403500D02*
Y1284750D01*
X1402500Y1285750D02*
X1403500Y1284750D01*
X2820000Y1064000D02*
X2821000Y1065000D01*
X2987000D01*
Y1234000D01*
X2820000D02*
X2987000D01*
X2820000Y1064000D02*
Y1234000D01*
X1878250Y1566000D02*
X2063250D01*
X1868250Y1556000D02*
X1878250Y1566000D01*
X1868250Y1361000D02*
Y1556000D01*
X2063250Y1361000D02*
Y1566000D01*
X1868250Y1361000D02*
X2063250D01*
X1437000Y732000D02*
Y787000D01*
X1537000D01*
Y732000D02*
Y787000D01*
X1437000Y732000D02*
X1537000D01*
X1953015Y1406000D02*
X1968250D01*
Y1416157D01*
X1953015Y1428853D02*
Y1423774D01*
X1955554Y1421235D01*
X1965711D01*
X1968250Y1423774D01*
Y1428853D01*
X1965711Y1431392D01*
X1955554D01*
X1953015Y1428853D01*
X1968250Y1436470D02*
X1953015D01*
Y1444088D01*
X1955554Y1446627D01*
X1960632D01*
X1963172Y1444088D01*
Y1436470D01*
Y1441548D02*
X1968250Y1446627D01*
Y1451705D02*
X1958093D01*
X1953015Y1456784D01*
X1958093Y1461862D01*
X1968250D01*
X1960632D01*
Y1451705D01*
X1970789Y1466940D02*
Y1477097D01*
X1953015Y1492332D02*
Y1482175D01*
X1968250D01*
Y1492332D01*
X1960632Y1482175D02*
Y1487254D01*
X1968250Y1497410D02*
X1958093D01*
Y1505028D01*
X1960632Y1507567D01*
X1968250D01*
X1973328Y1517724D02*
Y1520263D01*
X1970789Y1522802D01*
X1958093D01*
Y1515185D01*
X1960632Y1512646D01*
X1965711D01*
X1968250Y1515185D01*
Y1522802D01*
Y1527881D02*
Y1532959D01*
Y1530420D01*
X1953015D01*
Y1527881D01*
X1958093Y1543116D02*
Y1548194D01*
X1960632Y1550733D01*
X1968250D01*
Y1543116D01*
X1965711Y1540576D01*
X1963172Y1543116D01*
Y1550733D01*
X1968250Y1555811D02*
X1958093D01*
Y1563429D01*
X1960632Y1565968D01*
X1968250D01*
X1953015Y1581203D02*
X1968250D01*
Y1573586D01*
X1965711Y1571047D01*
X1960632D01*
X1958093Y1573586D01*
Y1581203D01*
X1452157Y769696D02*
X1449617Y772235D01*
X1444539D01*
X1442000Y769696D01*
Y767157D01*
X1444539Y764617D01*
X1449617D01*
X1452157Y762078D01*
Y759539D01*
X1449617Y757000D01*
X1444539D01*
X1442000Y759539D01*
X1457235Y772235D02*
Y757000D01*
X1462313Y762078D01*
X1467392Y757000D01*
Y772235D01*
X1472470D02*
X1477549D01*
X1475009D01*
Y757000D01*
X1472470D01*
X1477549D01*
X1485166Y772235D02*
X1495323D01*
X1490244D01*
Y757000D01*
X1510558Y769696D02*
X1508019Y772235D01*
X1502940D01*
X1500401Y769696D01*
Y759539D01*
X1502940Y757000D01*
X1508019D01*
X1510558Y759539D01*
X1515636Y772235D02*
Y757000D01*
Y764617D01*
X1525793D01*
Y772235D01*
Y757000D01*
D120*
X1829418Y1542086D02*
X1830751Y1540753D01*
X1833417D01*
X1834750Y1542086D01*
Y1543418D01*
X1833417Y1544751D01*
X1830751D01*
X1829418Y1546084D01*
Y1547417D01*
X1830751Y1548750D01*
X1833417D01*
X1834750Y1547417D01*
X1826753Y1548750D02*
Y1540753D01*
X1824087Y1543418D01*
X1821421Y1540753D01*
Y1548750D01*
X1818755D02*
Y1543418D01*
X1816089Y1540753D01*
X1813424Y1543418D01*
Y1548750D01*
Y1544751D01*
X1818755D01*
X1805426Y1540753D02*
X1808092Y1542086D01*
X1810758Y1544751D01*
Y1547417D01*
X1809425Y1548750D01*
X1806759D01*
X1805426Y1547417D01*
Y1546084D01*
X1806759Y1544751D01*
X1810758D01*
X1797429Y1548750D02*
X1802760D01*
X1797429Y1543418D01*
Y1542086D01*
X1798762Y1540753D01*
X1801427D01*
X1802760Y1542086D01*
X1789431Y1540753D02*
X1794763D01*
Y1544751D01*
X1792097Y1543418D01*
X1790764D01*
X1789431Y1544751D01*
Y1547417D01*
X1790764Y1548750D01*
X1793430D01*
X1794763Y1547417D01*
X1781434Y1548750D02*
X1786765D01*
X1781434Y1543418D01*
Y1542086D01*
X1782767Y1540753D01*
X1785433D01*
X1786765Y1542086D01*
X1778768Y1548750D02*
Y1543418D01*
X1776102Y1540753D01*
X1773436Y1543418D01*
Y1548750D01*
Y1544751D01*
X1778768D01*
X1765439Y1548750D02*
X1770771D01*
X1765439Y1543418D01*
Y1542086D01*
X1766772Y1540753D01*
X1769438D01*
X1770771Y1542086D01*
X1762773Y1544751D02*
X1757442D01*
X1754776Y1542086D02*
X1753443Y1540753D01*
X1750777D01*
X1749444Y1542086D01*
Y1543418D01*
X1750777Y1544751D01*
X1752110D01*
X1750777D01*
X1749444Y1546084D01*
Y1547417D01*
X1750777Y1548750D01*
X1753443D01*
X1754776Y1547417D01*
X1741447Y1542086D02*
X1742780Y1540753D01*
X1745446D01*
X1746778Y1542086D01*
Y1547417D01*
X1745446Y1548750D01*
X1742780D01*
X1741447Y1547417D01*
Y1544751D01*
X1744113D01*
X1738781Y1540753D02*
X1733449D01*
X1736115D01*
Y1548750D01*
X1725452Y1540753D02*
X1730784D01*
Y1544751D01*
X1728118Y1543418D01*
X1726785D01*
X1725452Y1544751D01*
Y1547417D01*
X1726785Y1548750D01*
X1729451D01*
X1730784Y1547417D01*
X1722786Y1542086D02*
X1721453Y1540753D01*
X1718787D01*
X1717455Y1542086D01*
Y1547417D01*
X1718787Y1548750D01*
X1721453D01*
X1722786Y1547417D01*
Y1542086D01*
X1709457D02*
X1710790Y1540753D01*
X1713456D01*
X1714789Y1542086D01*
Y1547417D01*
X1713456Y1548750D01*
X1710790D01*
X1709457Y1547417D01*
Y1544751D01*
X1712123D01*
X1706791D02*
X1701460D01*
X1693462Y1540753D02*
X1698794D01*
Y1544751D01*
X1696128Y1543418D01*
X1694795D01*
X1693462Y1544751D01*
Y1547417D01*
X1694795Y1548750D01*
X1697461D01*
X1698794Y1547417D01*
X1690797Y1542086D02*
X1689464Y1540753D01*
X1686798D01*
X1685465Y1542086D01*
Y1547417D01*
X1686798Y1548750D01*
X1689464D01*
X1690797Y1547417D01*
Y1542086D01*
X1613917Y1165338D02*
Y1168004D01*
Y1166671D01*
X1607253D01*
X1605920Y1168004D01*
Y1169337D01*
X1607253Y1170670D01*
X1613917Y1162673D02*
X1607253D01*
X1605920Y1161340D01*
Y1158674D01*
X1607253Y1157341D01*
X1613917D01*
X1605920Y1154675D02*
X1613917D01*
X1611252Y1152009D01*
X1613917Y1149343D01*
X1605920D01*
Y1146678D02*
X1613917D01*
Y1142679D01*
X1612585Y1141346D01*
X1609919D01*
X1608586Y1142679D01*
Y1146678D01*
X1613917Y1133349D02*
Y1138680D01*
X1605920D01*
Y1133349D01*
X1609919Y1138680D02*
Y1136014D01*
X1605920Y1130683D02*
X1613917D01*
Y1126684D01*
X1612585Y1125351D01*
X1609919D01*
X1608586Y1126684D01*
Y1130683D01*
Y1128017D02*
X1605920Y1125351D01*
M02*
