G04 Layer_Color=65535*
%FSLAX44Y44*%
%MOMM*%
G71*
G01*
G75*
%ADD39C,0.2500*%
%ADD42C,1.0000*%
%ADD47C,0.1000*%
%ADD48C,0.2540*%
%ADD49C,0.1524*%
%ADD50R,3.5000X0.8877*%
%ADD51R,0.9819X4.6000*%
%ADD70C,0.2000*%
%ADD71C,0.6000*%
D39*
X1604000Y858500D02*
G03*
X1604000Y858500I-1250J0D01*
G01*
X1718250Y688250D02*
G03*
X1718250Y688250I-1250J0D01*
G01*
X1732750Y764750D02*
G03*
X1732750Y764750I-1250J0D01*
G01*
X2001000Y1176250D02*
G03*
X2001000Y1176250I-1250J0D01*
G01*
X1709800Y754250D02*
G03*
X1709800Y754250I-1250J0D01*
G01*
X1727500Y954250D02*
G03*
X1727500Y954250I-1250J0D01*
G01*
X1639750Y1063250D02*
G03*
X1639750Y1063250I-1250J0D01*
G01*
X1869000Y959000D02*
G03*
X1869000Y959000I-1250J0D01*
G01*
X1960750Y1164500D02*
G03*
X1960750Y1164500I-1250J0D01*
G01*
X1675000Y1454750D02*
G03*
X1675000Y1454750I-1250J0D01*
G01*
X2850750Y1412750D02*
G03*
X2850750Y1412750I-1250J0D01*
G01*
X2947850Y1357250D02*
G03*
X2947850Y1357250I-1250J0D01*
G01*
X1715000Y1152150D02*
G03*
X1715000Y1152150I-1250J0D01*
G01*
D42*
X2535000Y786000D02*
G03*
X2535000Y786000I-1000J0D01*
G01*
D47*
X2837500Y1381000D02*
G03*
X2837500Y1381000I-500J0D01*
G01*
X2817500Y1385000D02*
G03*
X2817500Y1385000I-500J0D01*
G01*
X2716500Y1264000D02*
G03*
X2716500Y1264000I-500J0D01*
G01*
X2716500Y1298000D02*
G03*
X2716500Y1298000I-500J0D01*
G01*
X2717500Y1330000D02*
G03*
X2717500Y1330000I-500J0D01*
G01*
X2718500Y1362000D02*
G03*
X2718500Y1362000I-500J0D01*
G01*
X1712500Y974000D02*
G03*
X1712500Y974000I-500J0D01*
G01*
X1959500Y961000D02*
G03*
X1959500Y961000I-500J0D01*
G01*
X2917750Y706250D02*
Y753750D01*
X2880250D02*
X2917750D01*
X2880250Y706250D02*
Y753750D01*
X2892750Y706250D02*
X2917750D01*
X2880250D02*
X2883500D01*
X1960000Y640000D02*
Y647997D01*
X1963999D01*
X1965332Y646665D01*
Y643999D01*
X1963999Y642666D01*
X1960000D01*
X1962666D02*
X1965332Y640000D01*
X1973329Y647997D02*
X1967997D01*
Y640000D01*
X1973329D01*
X1967997Y643999D02*
X1970663D01*
X1975995Y647997D02*
Y642666D01*
X1978661Y640000D01*
X1981326Y642666D01*
Y647997D01*
X1991990Y646665D02*
X1993323Y647997D01*
X1995988D01*
X1997321Y646665D01*
Y641333D01*
X1995988Y640000D01*
X1993323D01*
X1991990Y641333D01*
Y646665D01*
X1999987Y640000D02*
Y641333D01*
X2001320D01*
Y640000D01*
X1999987D01*
X2010650D02*
Y647997D01*
X2006652Y643999D01*
X2011983D01*
X2373000Y690663D02*
Y682666D01*
X2376999D01*
X2378332Y683999D01*
Y689330D01*
X2376999Y690663D01*
X2373000D01*
X2380997Y682666D02*
X2383663D01*
X2382330D01*
Y687997D01*
X2380997D01*
X2387662Y682666D02*
X2391661D01*
X2392993Y683999D01*
X2391661Y685332D01*
X2388995D01*
X2387662Y686665D01*
X2388995Y687997D01*
X2392993D01*
X2400991D02*
X2396992D01*
X2395659Y686665D01*
Y683999D01*
X2396992Y682666D01*
X2400991D01*
X2404990D02*
X2407655D01*
X2408988Y683999D01*
Y686665D01*
X2407655Y687997D01*
X2404990D01*
X2403657Y686665D01*
Y683999D01*
X2404990Y682666D01*
X2411654Y687997D02*
X2414320Y682666D01*
X2416986Y687997D01*
X2423650Y682666D02*
X2420984D01*
X2419652Y683999D01*
Y686665D01*
X2420984Y687997D01*
X2423650D01*
X2424983Y686665D01*
Y685332D01*
X2419652D01*
X2427649Y687997D02*
Y682666D01*
Y685332D01*
X2428982Y686665D01*
X2430315Y687997D01*
X2431648D01*
X2435646D02*
Y683999D01*
X2436979Y682666D01*
X2440978D01*
Y681333D01*
X2439645Y680000D01*
X2438312D01*
X2440978Y682666D02*
Y687997D01*
X2451641Y690663D02*
Y682666D01*
X2455640D01*
X2456973Y683999D01*
Y685332D01*
X2455640Y686665D01*
X2451641D01*
X2455640D01*
X2456973Y687997D01*
Y689330D01*
X2455640Y690663D01*
X2451641D01*
X2460972Y682666D02*
X2463637D01*
X2464970Y683999D01*
Y686665D01*
X2463637Y687997D01*
X2460972D01*
X2459639Y686665D01*
Y683999D01*
X2460972Y682666D01*
X2468969Y687997D02*
X2471635D01*
X2472968Y686665D01*
Y682666D01*
X2468969D01*
X2467636Y683999D01*
X2468969Y685332D01*
X2472968D01*
X2475634Y687997D02*
Y682666D01*
Y685332D01*
X2476966Y686665D01*
X2478299Y687997D01*
X2479632D01*
X2488963Y690663D02*
Y682666D01*
X2484964D01*
X2483631Y683999D01*
Y686665D01*
X2484964Y687997D01*
X2488963D01*
X2504957Y689330D02*
X2503625Y690663D01*
X2500959D01*
X2499626Y689330D01*
Y683999D01*
X2500959Y682666D01*
X2503625D01*
X2504957Y683999D01*
X2508956Y682666D02*
X2511622D01*
X2512955Y683999D01*
Y686665D01*
X2511622Y687997D01*
X2508956D01*
X2507623Y686665D01*
Y683999D01*
X2508956Y682666D01*
X2515621D02*
Y687997D01*
X2519619D01*
X2520952Y686665D01*
Y682666D01*
X2523618D02*
Y687997D01*
X2527617D01*
X2528950Y686665D01*
Y682666D01*
X2535614D02*
X2532948D01*
X2531615Y683999D01*
Y686665D01*
X2532948Y687997D01*
X2535614D01*
X2536947Y686665D01*
Y685332D01*
X2531615D01*
X2544944Y687997D02*
X2540946D01*
X2539613Y686665D01*
Y683999D01*
X2540946Y682666D01*
X2544944D01*
X2548943Y689330D02*
Y687997D01*
X2547610D01*
X2550276D01*
X2548943D01*
Y683999D01*
X2550276Y682666D01*
X2554275D02*
X2556941D01*
X2555608D01*
Y687997D01*
X2554275D01*
X2562272Y682666D02*
X2564938D01*
X2566271Y683999D01*
Y686665D01*
X2564938Y687997D01*
X2562272D01*
X2560939Y686665D01*
Y683999D01*
X2562272Y682666D01*
X2568937D02*
Y687997D01*
X2572935D01*
X2574268Y686665D01*
Y682666D01*
X1519000Y715003D02*
X1513668Y723000D01*
Y715003D02*
X1519000Y723000D01*
X1505671Y715003D02*
X1511003D01*
Y719001D01*
X1508337Y717668D01*
X1507004D01*
X1505671Y719001D01*
Y721667D01*
X1507004Y723000D01*
X1509670D01*
X1511003Y721667D01*
X1640000Y1137000D02*
Y1129003D01*
X1636001D01*
X1634668Y1130335D01*
Y1133001D01*
X1636001Y1134334D01*
X1640000D01*
X1637334D02*
X1634668Y1137000D01*
X1632003D02*
X1629337D01*
X1630670D01*
Y1129003D01*
X1632003Y1130335D01*
X2839000Y1369497D02*
Y1361500D01*
X2842999D01*
X2844332Y1362833D01*
Y1368165D01*
X2842999Y1369497D01*
X2839000D01*
X2846997Y1368165D02*
X2848330Y1369497D01*
X2850996D01*
X2852329Y1368165D01*
Y1366832D01*
X2850996Y1365499D01*
X2852329Y1364166D01*
Y1362833D01*
X2850996Y1361500D01*
X2848330D01*
X2846997Y1362833D01*
Y1364166D01*
X2848330Y1365499D01*
X2846997Y1366832D01*
Y1368165D01*
X2848330Y1365499D02*
X2850996D01*
X2814182Y1470656D02*
Y1478653D01*
X2818181D01*
X2819514Y1477320D01*
Y1474654D01*
X2818181Y1473321D01*
X2814182D01*
X2816848D02*
X2819514Y1470656D01*
X2827511D02*
X2822180D01*
X2827511Y1475987D01*
Y1477320D01*
X2826178Y1478653D01*
X2823513D01*
X2822180Y1477320D01*
X2834176Y1470656D02*
Y1478653D01*
X2830177Y1474654D01*
X2835509D01*
X2839746Y1294344D02*
Y1286347D01*
X2835747D01*
X2834414Y1287680D01*
Y1290346D01*
X2835747Y1291679D01*
X2839746D01*
X2837080D02*
X2834414Y1294344D01*
X2826417D02*
X2831748D01*
X2826417Y1289013D01*
Y1287680D01*
X2827750Y1286347D01*
X2830416D01*
X2831748Y1287680D01*
X2823751D02*
X2822418Y1286347D01*
X2819752D01*
X2818419Y1287680D01*
Y1289013D01*
X2819752Y1290346D01*
X2821085D01*
X2819752D01*
X2818419Y1291679D01*
Y1293012D01*
X2819752Y1294344D01*
X2822418D01*
X2823751Y1293012D01*
X2838000Y1396997D02*
Y1389000D01*
X2841999D01*
X2843332Y1390333D01*
Y1395665D01*
X2841999Y1396997D01*
X2838000D01*
X2845997D02*
X2851329D01*
Y1395665D01*
X2845997Y1390333D01*
Y1389000D01*
X2886000Y774997D02*
Y768333D01*
X2887333Y767000D01*
X2889999D01*
X2891331Y768333D01*
Y774997D01*
X2893997Y767000D02*
X2896663D01*
X2895330D01*
Y774997D01*
X2893997Y773664D01*
X2900662D02*
X2901995Y774997D01*
X2904661D01*
X2905994Y773664D01*
Y772332D01*
X2904661Y770999D01*
X2905994Y769666D01*
Y768333D01*
X2904661Y767000D01*
X2901995D01*
X2900662Y768333D01*
Y769666D01*
X2901995Y770999D01*
X2900662Y772332D01*
Y773664D01*
X2901995Y770999D02*
X2904661D01*
X2950000Y784997D02*
Y778333D01*
X2951333Y777000D01*
X2953999D01*
X2955332Y778333D01*
Y784997D01*
X2957997Y777000D02*
X2960663D01*
X2959330D01*
Y784997D01*
X2957997Y783664D01*
X2964662Y784997D02*
X2969994D01*
Y783664D01*
X2964662Y778333D01*
Y777000D01*
X2963670Y754441D02*
X2962337Y755773D01*
X2959671D01*
X2958338Y754441D01*
Y749109D01*
X2959671Y747776D01*
X2962337D01*
X2963670Y749109D01*
X2971667Y755773D02*
X2966335D01*
Y751775D01*
X2969001Y753108D01*
X2970334D01*
X2971667Y751775D01*
Y749109D01*
X2970334Y747776D01*
X2967668D01*
X2966335Y749109D01*
X2974333Y754441D02*
X2975666Y755773D01*
X2978332D01*
X2979664Y754441D01*
Y749109D01*
X2978332Y747776D01*
X2975666D01*
X2974333Y749109D01*
Y754441D01*
X2858332Y685665D02*
X2856999Y686997D01*
X2854333D01*
X2853000Y685665D01*
Y680333D01*
X2854333Y679000D01*
X2856999D01*
X2858332Y680333D01*
X2864996Y679000D02*
Y686997D01*
X2860997Y682999D01*
X2866329D01*
X2868995Y680333D02*
X2870328Y679000D01*
X2872993D01*
X2874326Y680333D01*
Y685665D01*
X2872993Y686997D01*
X2870328D01*
X2868995Y685665D01*
Y684332D01*
X2870328Y682999D01*
X2874326D01*
X1698000Y1016000D02*
Y1023997D01*
X1701999D01*
X1703332Y1022664D01*
Y1019999D01*
X1701999Y1018666D01*
X1698000D01*
X1700666D02*
X1703332Y1016000D01*
X1705997Y1022664D02*
X1707330Y1023997D01*
X1709996D01*
X1711329Y1022664D01*
Y1021332D01*
X1709996Y1019999D01*
X1708663D01*
X1709996D01*
X1711329Y1018666D01*
Y1017333D01*
X1709996Y1016000D01*
X1707330D01*
X1705997Y1017333D01*
X1719326Y1023997D02*
X1716661Y1022664D01*
X1713995Y1019999D01*
Y1017333D01*
X1715328Y1016000D01*
X1717993D01*
X1719326Y1017333D01*
Y1018666D01*
X1717993Y1019999D01*
X1713995D01*
X1697000Y1043000D02*
Y1050997D01*
X1700999D01*
X1702332Y1049665D01*
Y1046999D01*
X1700999Y1045666D01*
X1697000D01*
X1699666D02*
X1702332Y1043000D01*
X1704997Y1049665D02*
X1706330Y1050997D01*
X1708996D01*
X1710329Y1049665D01*
Y1048332D01*
X1708996Y1046999D01*
X1707663D01*
X1708996D01*
X1710329Y1045666D01*
Y1044333D01*
X1708996Y1043000D01*
X1706330D01*
X1704997Y1044333D01*
X1712995Y1049665D02*
X1714328Y1050997D01*
X1716994D01*
X1718326Y1049665D01*
Y1048332D01*
X1716994Y1046999D01*
X1715661D01*
X1716994D01*
X1718326Y1045666D01*
Y1044333D01*
X1716994Y1043000D01*
X1714328D01*
X1712995Y1044333D01*
X1698000Y1069000D02*
Y1076997D01*
X1701999D01*
X1703332Y1075665D01*
Y1072999D01*
X1701999Y1071666D01*
X1698000D01*
X1700666D02*
X1703332Y1069000D01*
X1705997Y1075665D02*
X1707330Y1076997D01*
X1709996D01*
X1711329Y1075665D01*
Y1074332D01*
X1709996Y1072999D01*
X1708663D01*
X1709996D01*
X1711329Y1071666D01*
Y1070333D01*
X1709996Y1069000D01*
X1707330D01*
X1705997Y1070333D01*
X1717993Y1069000D02*
Y1076997D01*
X1713995Y1072999D01*
X1719326D01*
X2322332Y1266665D02*
X2320999Y1267997D01*
X2318333D01*
X2317000Y1266665D01*
Y1261333D01*
X2318333Y1260000D01*
X2320999D01*
X2322332Y1261333D01*
X2330329Y1267997D02*
X2324997D01*
Y1263999D01*
X2327663Y1265332D01*
X2328996D01*
X2330329Y1263999D01*
Y1261333D01*
X2328996Y1260000D01*
X2326330D01*
X2324997Y1261333D01*
X2338326Y1260000D02*
X2332995D01*
X2338326Y1265332D01*
Y1266665D01*
X2336994Y1267997D01*
X2334328D01*
X2332995Y1266665D01*
X2269332D02*
X2267999Y1267997D01*
X2265333D01*
X2264000Y1266665D01*
Y1261333D01*
X2265333Y1260000D01*
X2267999D01*
X2269332Y1261333D01*
X2277329Y1267997D02*
X2271997D01*
Y1263999D01*
X2274663Y1265332D01*
X2275996D01*
X2277329Y1263999D01*
Y1261333D01*
X2275996Y1260000D01*
X2273330D01*
X2271997Y1261333D01*
X2279995Y1260000D02*
X2282661D01*
X2281328D01*
Y1267997D01*
X2279995Y1266665D01*
X1543000Y916000D02*
X1550997D01*
Y912001D01*
X1549664Y910668D01*
X1546999D01*
X1545666Y912001D01*
Y916000D01*
Y913334D02*
X1543000Y910668D01*
X1549664Y908003D02*
X1550997Y906670D01*
Y904004D01*
X1549664Y902671D01*
X1548332D01*
X1546999Y904004D01*
Y905337D01*
Y904004D01*
X1545666Y902671D01*
X1544333D01*
X1543000Y904004D01*
Y906670D01*
X1544333Y908003D01*
X1543000Y894673D02*
Y900005D01*
X1548332Y894673D01*
X1549664D01*
X1550997Y896006D01*
Y898672D01*
X1549664Y900005D01*
X2211332Y779665D02*
X2209999Y780997D01*
X2207333D01*
X2206000Y779665D01*
Y774333D01*
X2207333Y773000D01*
X2209999D01*
X2211332Y774333D01*
X2213997Y773000D02*
X2216663D01*
X2215330D01*
Y780997D01*
X2213997Y779665D01*
X2468624Y1229675D02*
X2467291Y1231007D01*
X2464625D01*
X2463292Y1229675D01*
Y1224343D01*
X2464625Y1223010D01*
X2467291D01*
X2468624Y1224343D01*
X2476621Y1223010D02*
X2471289D01*
X2476621Y1228342D01*
Y1229675D01*
X2475288Y1231007D01*
X2472622D01*
X2471289Y1229675D01*
X2477332Y1318665D02*
X2475999Y1319997D01*
X2473333D01*
X2472000Y1318665D01*
Y1313333D01*
X2473333Y1312000D01*
X2475999D01*
X2477332Y1313333D01*
X2479997Y1318665D02*
X2481330Y1319997D01*
X2483996D01*
X2485329Y1318665D01*
Y1317332D01*
X2483996Y1315999D01*
X2482663D01*
X2483996D01*
X2485329Y1314666D01*
Y1313333D01*
X2483996Y1312000D01*
X2481330D01*
X2479997Y1313333D01*
X2470656Y1414586D02*
X2469323Y1415919D01*
X2466657D01*
X2465324Y1414586D01*
Y1409255D01*
X2466657Y1407922D01*
X2469323D01*
X2470656Y1409255D01*
X2477320Y1407922D02*
Y1415919D01*
X2473321Y1411921D01*
X2478653D01*
X1834332Y1095665D02*
X1832999Y1096997D01*
X1830333D01*
X1829000Y1095665D01*
Y1090333D01*
X1830333Y1089000D01*
X1832999D01*
X1834332Y1090333D01*
X1842329Y1096997D02*
X1836997D01*
Y1092999D01*
X1839663Y1094332D01*
X1840996D01*
X1842329Y1092999D01*
Y1090333D01*
X1840996Y1089000D01*
X1838330D01*
X1836997Y1090333D01*
X1833332Y1017664D02*
X1831999Y1018997D01*
X1829333D01*
X1828000Y1017664D01*
Y1012333D01*
X1829333Y1011000D01*
X1831999D01*
X1833332Y1012333D01*
X1841329Y1018997D02*
X1838663Y1017664D01*
X1835997Y1014999D01*
Y1012333D01*
X1837330Y1011000D01*
X1839996D01*
X1841329Y1012333D01*
Y1013666D01*
X1839996Y1014999D01*
X1835997D01*
X1863332Y1115665D02*
X1861999Y1116997D01*
X1859333D01*
X1858000Y1115665D01*
Y1110333D01*
X1859333Y1109000D01*
X1861999D01*
X1863332Y1110333D01*
X1865997Y1116997D02*
X1871329D01*
Y1115665D01*
X1865997Y1110333D01*
Y1109000D01*
X2157728Y1014537D02*
X2156395Y1015869D01*
X2153729D01*
X2152396Y1014537D01*
Y1009205D01*
X2153729Y1007872D01*
X2156395D01*
X2157728Y1009205D01*
X2160393Y1014537D02*
X2161726Y1015869D01*
X2164392D01*
X2165725Y1014537D01*
Y1013204D01*
X2164392Y1011871D01*
X2165725Y1010538D01*
Y1009205D01*
X2164392Y1007872D01*
X2161726D01*
X2160393Y1009205D01*
Y1010538D01*
X2161726Y1011871D01*
X2160393Y1013204D01*
Y1014537D01*
X2161726Y1011871D02*
X2164392D01*
X2186664Y1151668D02*
X2187997Y1153001D01*
Y1155667D01*
X2186664Y1157000D01*
X2181333D01*
X2180000Y1155667D01*
Y1153001D01*
X2181333Y1151668D01*
Y1149003D02*
X2180000Y1147670D01*
Y1145004D01*
X2181333Y1143671D01*
X2186664D01*
X2187997Y1145004D01*
Y1147670D01*
X2186664Y1149003D01*
X2185332D01*
X2183999Y1147670D01*
Y1143671D01*
X2022332Y1262664D02*
X2020999Y1263997D01*
X2018333D01*
X2017000Y1262664D01*
Y1257333D01*
X2018333Y1256000D01*
X2020999D01*
X2022332Y1257333D01*
X2024997Y1256000D02*
X2027663D01*
X2026330D01*
Y1263997D01*
X2024997Y1262664D01*
X2031662D02*
X2032995Y1263997D01*
X2035661D01*
X2036994Y1262664D01*
Y1257333D01*
X2035661Y1256000D01*
X2032995D01*
X2031662Y1257333D01*
Y1262664D01*
X2073336Y958332D02*
X2072003Y956999D01*
Y954333D01*
X2073336Y953000D01*
X2078667D01*
X2080000Y954333D01*
Y956999D01*
X2078667Y958332D01*
X2080000Y960997D02*
Y963663D01*
Y962330D01*
X2072003D01*
X2073336Y960997D01*
X2080000Y967662D02*
Y970328D01*
Y968995D01*
X2072003D01*
X2073336Y967662D01*
X2040332Y1002664D02*
X2038999Y1003997D01*
X2036333D01*
X2035000Y1002664D01*
Y997333D01*
X2036333Y996000D01*
X2038999D01*
X2040332Y997333D01*
X2042997Y996000D02*
X2045663D01*
X2044330D01*
Y1003997D01*
X2042997Y1002664D01*
X2054994Y996000D02*
X2049662D01*
X2054994Y1001332D01*
Y1002664D01*
X2053661Y1003997D01*
X2050995D01*
X2049662Y1002664D01*
X2049332Y1262664D02*
X2047999Y1263997D01*
X2045333D01*
X2044000Y1262664D01*
Y1257333D01*
X2045333Y1256000D01*
X2047999D01*
X2049332Y1257333D01*
X2051997Y1256000D02*
X2054663D01*
X2053330D01*
Y1263997D01*
X2051997Y1262664D01*
X2058662D02*
X2059995Y1263997D01*
X2062661D01*
X2063994Y1262664D01*
Y1261332D01*
X2062661Y1259999D01*
X2061328D01*
X2062661D01*
X2063994Y1258666D01*
Y1257333D01*
X2062661Y1256000D01*
X2059995D01*
X2058662Y1257333D01*
X2139694Y1269298D02*
X2138361Y1270631D01*
X2135695D01*
X2134362Y1269298D01*
Y1263967D01*
X2135695Y1262634D01*
X2138361D01*
X2139694Y1263967D01*
X2142359Y1262634D02*
X2145025D01*
X2143692D01*
Y1270631D01*
X2142359Y1269298D01*
X2153023Y1262634D02*
Y1270631D01*
X2149024Y1266633D01*
X2154356D01*
X1928332Y966665D02*
X1926999Y967997D01*
X1924333D01*
X1923000Y966665D01*
Y961333D01*
X1924333Y960000D01*
X1926999D01*
X1928332Y961333D01*
X1930997Y960000D02*
X1933663D01*
X1932330D01*
Y967997D01*
X1930997Y966665D01*
X1942993Y967997D02*
X1937662D01*
Y963999D01*
X1940328Y965332D01*
X1941661D01*
X1942993Y963999D01*
Y961333D01*
X1941661Y960000D01*
X1938995D01*
X1937662Y961333D01*
X1928332Y953664D02*
X1926999Y954997D01*
X1924333D01*
X1923000Y953664D01*
Y948333D01*
X1924333Y947000D01*
X1926999D01*
X1928332Y948333D01*
X1930997Y947000D02*
X1933663D01*
X1932330D01*
Y954997D01*
X1930997Y953664D01*
X1942993Y954997D02*
X1940328Y953664D01*
X1937662Y950999D01*
Y948333D01*
X1938995Y947000D01*
X1941661D01*
X1942993Y948333D01*
Y949666D01*
X1941661Y950999D01*
X1937662D01*
X2176332Y1268664D02*
X2174999Y1269997D01*
X2172333D01*
X2171000Y1268664D01*
Y1263333D01*
X2172333Y1262000D01*
X2174999D01*
X2176332Y1263333D01*
X2178997Y1262000D02*
X2181663D01*
X2180330D01*
Y1269997D01*
X2178997Y1268664D01*
X2185662Y1269997D02*
X2190994D01*
Y1268664D01*
X2185662Y1263333D01*
Y1262000D01*
X2141664Y946668D02*
X2142997Y948001D01*
Y950667D01*
X2141664Y952000D01*
X2136333D01*
X2135000Y950667D01*
Y948001D01*
X2136333Y946668D01*
X2135000Y944003D02*
Y941337D01*
Y942670D01*
X2142997D01*
X2141664Y944003D01*
Y937338D02*
X2142997Y936005D01*
Y933339D01*
X2141664Y932006D01*
X2140332D01*
X2138999Y933339D01*
X2137666Y932006D01*
X2136333D01*
X2135000Y933339D01*
Y936005D01*
X2136333Y937338D01*
X2137666D01*
X2138999Y936005D01*
X2140332Y937338D01*
X2141664D01*
X2138999Y936005D02*
Y933339D01*
X2006664Y932668D02*
X2007997Y934001D01*
Y936667D01*
X2006664Y938000D01*
X2001333D01*
X2000000Y936667D01*
Y934001D01*
X2001333Y932668D01*
X2000000Y930003D02*
Y927337D01*
Y928670D01*
X2007997D01*
X2006664Y930003D01*
X2001333Y923338D02*
X2000000Y922005D01*
Y919339D01*
X2001333Y918006D01*
X2006664D01*
X2007997Y919339D01*
Y922005D01*
X2006664Y923338D01*
X2005332D01*
X2003999Y922005D01*
Y918006D01*
X2030665Y932668D02*
X2031997Y934001D01*
Y936667D01*
X2030665Y938000D01*
X2025333D01*
X2024000Y936667D01*
Y934001D01*
X2025333Y932668D01*
X2024000Y924671D02*
Y930003D01*
X2029332Y924671D01*
X2030665D01*
X2031997Y926004D01*
Y928670D01*
X2030665Y930003D01*
Y922005D02*
X2031997Y920672D01*
Y918006D01*
X2030665Y916674D01*
X2025333D01*
X2024000Y918006D01*
Y920672D01*
X2025333Y922005D01*
X2030665D01*
X1901332Y1226665D02*
X1899999Y1227997D01*
X1897333D01*
X1896000Y1226665D01*
Y1221333D01*
X1897333Y1220000D01*
X1899999D01*
X1901332Y1221333D01*
X1909329Y1220000D02*
X1903997D01*
X1909329Y1225332D01*
Y1226665D01*
X1907996Y1227997D01*
X1905330D01*
X1903997Y1226665D01*
X1911995Y1220000D02*
X1914661D01*
X1913328D01*
Y1227997D01*
X1911995Y1226665D01*
X1900332Y1198664D02*
X1898999Y1199997D01*
X1896333D01*
X1895000Y1198664D01*
Y1193333D01*
X1896333Y1192000D01*
X1898999D01*
X1900332Y1193333D01*
X1908329Y1192000D02*
X1902997D01*
X1908329Y1197332D01*
Y1198664D01*
X1906996Y1199997D01*
X1904330D01*
X1902997Y1198664D01*
X1916326Y1192000D02*
X1910995D01*
X1916326Y1197332D01*
Y1198664D01*
X1914994Y1199997D01*
X1912328D01*
X1910995Y1198664D01*
X1968332Y1104665D02*
X1966999Y1105997D01*
X1964333D01*
X1963000Y1104665D01*
Y1099333D01*
X1964333Y1098000D01*
X1966999D01*
X1968332Y1099333D01*
X1976329Y1098000D02*
X1970997D01*
X1976329Y1103332D01*
Y1104665D01*
X1974996Y1105997D01*
X1972330D01*
X1970997Y1104665D01*
X1978995D02*
X1980328Y1105997D01*
X1982993D01*
X1984326Y1104665D01*
Y1103332D01*
X1982993Y1101999D01*
X1981661D01*
X1982993D01*
X1984326Y1100666D01*
Y1099333D01*
X1982993Y1098000D01*
X1980328D01*
X1978995Y1099333D01*
X2357332Y1090665D02*
X2355999Y1091997D01*
X2353333D01*
X2352000Y1090665D01*
Y1085333D01*
X2353333Y1084000D01*
X2355999D01*
X2357332Y1085333D01*
X2359997Y1090665D02*
X2361330Y1091997D01*
X2363996D01*
X2365329Y1090665D01*
Y1089332D01*
X2363996Y1087999D01*
X2362663D01*
X2363996D01*
X2365329Y1086666D01*
Y1085333D01*
X2363996Y1084000D01*
X2361330D01*
X2359997Y1085333D01*
X2367995Y1090665D02*
X2369328Y1091997D01*
X2371994D01*
X2373326Y1090665D01*
Y1089332D01*
X2371994Y1087999D01*
X2370661D01*
X2371994D01*
X2373326Y1086666D01*
Y1085333D01*
X2371994Y1084000D01*
X2369328D01*
X2367995Y1085333D01*
X2387332Y1090665D02*
X2385999Y1091997D01*
X2383333D01*
X2382000Y1090665D01*
Y1085333D01*
X2383333Y1084000D01*
X2385999D01*
X2387332Y1085333D01*
X2389997Y1090665D02*
X2391330Y1091997D01*
X2393996D01*
X2395329Y1090665D01*
Y1089332D01*
X2393996Y1087999D01*
X2392663D01*
X2393996D01*
X2395329Y1086666D01*
Y1085333D01*
X2393996Y1084000D01*
X2391330D01*
X2389997Y1085333D01*
X2401994Y1084000D02*
Y1091997D01*
X2397995Y1087999D01*
X2403326D01*
X2446332Y1088664D02*
X2444999Y1089997D01*
X2442333D01*
X2441000Y1088664D01*
Y1083333D01*
X2442333Y1082000D01*
X2444999D01*
X2446332Y1083333D01*
X2448997Y1088664D02*
X2450330Y1089997D01*
X2452996D01*
X2454329Y1088664D01*
Y1087332D01*
X2452996Y1085999D01*
X2451663D01*
X2452996D01*
X2454329Y1084666D01*
Y1083333D01*
X2452996Y1082000D01*
X2450330D01*
X2448997Y1083333D01*
X2462326Y1089997D02*
X2456995D01*
Y1085999D01*
X2459661Y1087332D01*
X2460994D01*
X2462326Y1085999D01*
Y1083333D01*
X2460994Y1082000D01*
X2458328D01*
X2456995Y1083333D01*
X2417332Y1090665D02*
X2415999Y1091997D01*
X2413333D01*
X2412000Y1090665D01*
Y1085333D01*
X2413333Y1084000D01*
X2415999D01*
X2417332Y1085333D01*
X2419997Y1090665D02*
X2421330Y1091997D01*
X2423996D01*
X2425329Y1090665D01*
Y1089332D01*
X2423996Y1087999D01*
X2422663D01*
X2423996D01*
X2425329Y1086666D01*
Y1085333D01*
X2423996Y1084000D01*
X2421330D01*
X2419997Y1085333D01*
X2433327Y1091997D02*
X2430661Y1090665D01*
X2427995Y1087999D01*
Y1085333D01*
X2429328Y1084000D01*
X2431994D01*
X2433327Y1085333D01*
Y1086666D01*
X2431994Y1087999D01*
X2427995D01*
X1571332Y869665D02*
X1569999Y870997D01*
X1567333D01*
X1566000Y869665D01*
Y864333D01*
X1567333Y863000D01*
X1569999D01*
X1571332Y864333D01*
X1573997Y869665D02*
X1575330Y870997D01*
X1577996D01*
X1579329Y869665D01*
Y868332D01*
X1577996Y866999D01*
X1576663D01*
X1577996D01*
X1579329Y865666D01*
Y864333D01*
X1577996Y863000D01*
X1575330D01*
X1573997Y864333D01*
X1581995Y870997D02*
X1587326D01*
Y869665D01*
X1581995Y864333D01*
Y863000D01*
X1693332Y649665D02*
X1691999Y650997D01*
X1689333D01*
X1688000Y649665D01*
Y644333D01*
X1689333Y643000D01*
X1691999D01*
X1693332Y644333D01*
X1695997Y649665D02*
X1697330Y650997D01*
X1699996D01*
X1701329Y649665D01*
Y648332D01*
X1699996Y646999D01*
X1698663D01*
X1699996D01*
X1701329Y645666D01*
Y644333D01*
X1699996Y643000D01*
X1697330D01*
X1695997Y644333D01*
X1703995Y649665D02*
X1705328Y650997D01*
X1707994D01*
X1709326Y649665D01*
Y648332D01*
X1707994Y646999D01*
X1709326Y645666D01*
Y644333D01*
X1707994Y643000D01*
X1705328D01*
X1703995Y644333D01*
Y645666D01*
X1705328Y646999D01*
X1703995Y648332D01*
Y649665D01*
X1705328Y646999D02*
X1707994D01*
X1637336Y648332D02*
X1636003Y646999D01*
Y644333D01*
X1637336Y643000D01*
X1642667D01*
X1644000Y644333D01*
Y646999D01*
X1642667Y648332D01*
X1637336Y650997D02*
X1636003Y652330D01*
Y654996D01*
X1637336Y656329D01*
X1638668D01*
X1640001Y654996D01*
Y653663D01*
Y654996D01*
X1641334Y656329D01*
X1642667D01*
X1644000Y654996D01*
Y652330D01*
X1642667Y650997D01*
Y658995D02*
X1644000Y660328D01*
Y662993D01*
X1642667Y664326D01*
X1637336D01*
X1636003Y662993D01*
Y660328D01*
X1637336Y658995D01*
X1638668D01*
X1640001Y660328D01*
Y664326D01*
X1605336Y647332D02*
X1604003Y645999D01*
Y643333D01*
X1605336Y642000D01*
X1610667D01*
X1612000Y643333D01*
Y645999D01*
X1610667Y647332D01*
X1612000Y653996D02*
X1604003D01*
X1608001Y649997D01*
Y655329D01*
X1605336Y657995D02*
X1604003Y659328D01*
Y661993D01*
X1605336Y663326D01*
X1610667D01*
X1612000Y661993D01*
Y659328D01*
X1610667Y657995D01*
X1605336D01*
X1596335Y940332D02*
X1595003Y938999D01*
Y936333D01*
X1596335Y935000D01*
X1601667D01*
X1603000Y936333D01*
Y938999D01*
X1601667Y940332D01*
X1603000Y946996D02*
X1595003D01*
X1599001Y942997D01*
Y948329D01*
X1603000Y950995D02*
Y953661D01*
Y952328D01*
X1595003D01*
X1596335Y950995D01*
X1643336Y973332D02*
X1642003Y971999D01*
Y969333D01*
X1643336Y968000D01*
X1648667D01*
X1650000Y969333D01*
Y971999D01*
X1648667Y973332D01*
X1650000Y979996D02*
X1642003D01*
X1646001Y975997D01*
Y981329D01*
X1650000Y989326D02*
Y983995D01*
X1644668Y989326D01*
X1643336D01*
X1642003Y987994D01*
Y985328D01*
X1643336Y983995D01*
X1822332Y875665D02*
X1820999Y876997D01*
X1818333D01*
X1817000Y875665D01*
Y870333D01*
X1818333Y869000D01*
X1820999D01*
X1822332Y870333D01*
X1828996Y869000D02*
Y876997D01*
X1824997Y872999D01*
X1830329D01*
X1832995Y875665D02*
X1834328Y876997D01*
X1836994D01*
X1838326Y875665D01*
Y874332D01*
X1836994Y872999D01*
X1835661D01*
X1836994D01*
X1838326Y871666D01*
Y870333D01*
X1836994Y869000D01*
X1834328D01*
X1832995Y870333D01*
X1821332Y905665D02*
X1819999Y906997D01*
X1817333D01*
X1816000Y905665D01*
Y900333D01*
X1817333Y899000D01*
X1819999D01*
X1821332Y900333D01*
X1827996Y899000D02*
Y906997D01*
X1823997Y902999D01*
X1829329D01*
X1835994Y899000D02*
Y906997D01*
X1831995Y902999D01*
X1837326D01*
X1825332Y930665D02*
X1823999Y931997D01*
X1821333D01*
X1820000Y930665D01*
Y925333D01*
X1821333Y924000D01*
X1823999D01*
X1825332Y925333D01*
X1831996Y924000D02*
Y931997D01*
X1827997Y927999D01*
X1833329D01*
X1841326Y931997D02*
X1835995D01*
Y927999D01*
X1838661Y929332D01*
X1839994D01*
X1841326Y927999D01*
Y925333D01*
X1839994Y924000D01*
X1837328D01*
X1835995Y925333D01*
X2723000Y1278997D02*
Y1271000D01*
X2726999D01*
X2728332Y1272333D01*
Y1277664D01*
X2726999Y1278997D01*
X2723000D01*
X2730997Y1271000D02*
X2733663D01*
X2732330D01*
Y1278997D01*
X2730997Y1277664D01*
X2721000Y1312997D02*
Y1305000D01*
X2724999D01*
X2726331Y1306333D01*
Y1311664D01*
X2724999Y1312997D01*
X2721000D01*
X2734329Y1305000D02*
X2728997D01*
X2734329Y1310332D01*
Y1311664D01*
X2732996Y1312997D01*
X2730330D01*
X2728997Y1311664D01*
X2722000Y1344997D02*
Y1337000D01*
X2725999D01*
X2727332Y1338333D01*
Y1343665D01*
X2725999Y1344997D01*
X2722000D01*
X2729997Y1343665D02*
X2731330Y1344997D01*
X2733996D01*
X2735329Y1343665D01*
Y1342332D01*
X2733996Y1340999D01*
X2732663D01*
X2733996D01*
X2735329Y1339666D01*
Y1338333D01*
X2733996Y1337000D01*
X2731330D01*
X2729997Y1338333D01*
X2724000Y1376997D02*
Y1369000D01*
X2727999D01*
X2729332Y1370333D01*
Y1375665D01*
X2727999Y1376997D01*
X2724000D01*
X2735996Y1369000D02*
Y1376997D01*
X2731997Y1372999D01*
X2737329D01*
X1717003Y758000D02*
X1725000D01*
Y761999D01*
X1723667Y763332D01*
X1718336D01*
X1717003Y761999D01*
Y758000D01*
Y771329D02*
Y765997D01*
X1721001D01*
X1719668Y768663D01*
Y769996D01*
X1721001Y771329D01*
X1723667D01*
X1725000Y769996D01*
Y767330D01*
X1723667Y765997D01*
X1697000Y930997D02*
Y923000D01*
X1700999D01*
X1702332Y924333D01*
Y929665D01*
X1700999Y930997D01*
X1697000D01*
X1710329D02*
X1707663Y929665D01*
X1704997Y926999D01*
Y924333D01*
X1706330Y923000D01*
X1708996D01*
X1710329Y924333D01*
Y925666D01*
X1708996Y926999D01*
X1704997D01*
X1976000Y957997D02*
Y950000D01*
X1981332D01*
X1983997D02*
X1986663D01*
X1985330D01*
Y957997D01*
X1983997Y956665D01*
X1759000Y806997D02*
Y799000D01*
X1764332D01*
X1766997Y805665D02*
X1768330Y806997D01*
X1770996D01*
X1772329Y805665D01*
Y804332D01*
X1770996Y802999D01*
X1769663D01*
X1770996D01*
X1772329Y801666D01*
Y800333D01*
X1770996Y799000D01*
X1768330D01*
X1766997Y800333D01*
X2102000Y781000D02*
Y788997D01*
X2105999D01*
X2107332Y787664D01*
Y784999D01*
X2105999Y783666D01*
X2102000D01*
X2104666D02*
X2107332Y781000D01*
X2115329D02*
X2109997D01*
X2115329Y786332D01*
Y787664D01*
X2113996Y788997D01*
X2111330D01*
X2109997Y787664D01*
X2430000Y1198000D02*
X2437997D01*
Y1194001D01*
X2436664Y1192668D01*
X2433999D01*
X2432666Y1194001D01*
Y1198000D01*
Y1195334D02*
X2430000Y1192668D01*
X2437997Y1184671D02*
Y1190003D01*
X2433999D01*
X2435332Y1187337D01*
Y1186004D01*
X2433999Y1184671D01*
X2431333D01*
X2430000Y1186004D01*
Y1188670D01*
X2431333Y1190003D01*
X1957000Y1070000D02*
Y1077997D01*
X1960999D01*
X1962332Y1076665D01*
Y1073999D01*
X1960999Y1072666D01*
X1957000D01*
X1959666D02*
X1962332Y1070000D01*
X1970329Y1077997D02*
X1967663Y1076665D01*
X1964997Y1073999D01*
Y1071333D01*
X1966330Y1070000D01*
X1968996D01*
X1970329Y1071333D01*
Y1072666D01*
X1968996Y1073999D01*
X1964997D01*
X1957000Y1050000D02*
Y1057997D01*
X1960999D01*
X1962332Y1056665D01*
Y1053999D01*
X1960999Y1052666D01*
X1957000D01*
X1959666D02*
X1962332Y1050000D01*
X1964997Y1057997D02*
X1970329D01*
Y1056665D01*
X1964997Y1051333D01*
Y1050000D01*
X1991000Y1256000D02*
Y1263997D01*
X1994999D01*
X1996332Y1262664D01*
Y1259999D01*
X1994999Y1258666D01*
X1991000D01*
X1993666D02*
X1996332Y1256000D01*
X1998997Y1262664D02*
X2000330Y1263997D01*
X2002996D01*
X2004329Y1262664D01*
Y1261332D01*
X2002996Y1259999D01*
X2004329Y1258666D01*
Y1257333D01*
X2002996Y1256000D01*
X2000330D01*
X1998997Y1257333D01*
Y1258666D01*
X2000330Y1259999D01*
X1998997Y1261332D01*
Y1262664D01*
X2000330Y1259999D02*
X2002996D01*
X2431000Y1295000D02*
X2438997D01*
Y1291001D01*
X2437664Y1289669D01*
X2434999D01*
X2433666Y1291001D01*
Y1295000D01*
Y1292334D02*
X2431000Y1289669D01*
X2432333Y1287003D02*
X2431000Y1285670D01*
Y1283004D01*
X2432333Y1281671D01*
X2437664D01*
X2438997Y1283004D01*
Y1285670D01*
X2437664Y1287003D01*
X2436332D01*
X2434999Y1285670D01*
Y1281671D01*
X2207000Y798000D02*
Y805997D01*
X2210999D01*
X2212332Y804665D01*
Y801999D01*
X2210999Y800666D01*
X2207000D01*
X2209666D02*
X2212332Y798000D01*
X2214997D02*
X2217663D01*
X2216330D01*
Y805997D01*
X2214997Y804665D01*
X2221662D02*
X2222995Y805997D01*
X2225661D01*
X2226994Y804665D01*
Y799333D01*
X2225661Y798000D01*
X2222995D01*
X2221662Y799333D01*
Y804665D01*
X2432000Y1386000D02*
X2439997D01*
Y1382001D01*
X2438665Y1380668D01*
X2435999D01*
X2434666Y1382001D01*
Y1386000D01*
Y1383334D02*
X2432000Y1380668D01*
Y1378002D02*
Y1375337D01*
Y1376670D01*
X2439997D01*
X2438665Y1378002D01*
X2432000Y1371338D02*
Y1368672D01*
Y1370005D01*
X2439997D01*
X2438665Y1371338D01*
X2606000Y1268000D02*
Y1275997D01*
X2609999D01*
X2611331Y1274665D01*
Y1271999D01*
X2609999Y1270666D01*
X2606000D01*
X2608666D02*
X2611331Y1268000D01*
X2613997D02*
X2616663D01*
X2615330D01*
Y1275997D01*
X2613997Y1274665D01*
X2625994Y1268000D02*
X2620662D01*
X2625994Y1273332D01*
Y1274665D01*
X2624661Y1275997D01*
X2621995D01*
X2620662Y1274665D01*
X2607000Y1302000D02*
Y1309997D01*
X2610999D01*
X2612332Y1308665D01*
Y1305999D01*
X2610999Y1304666D01*
X2607000D01*
X2609666D02*
X2612332Y1302000D01*
X2614997D02*
X2617663D01*
X2616330D01*
Y1309997D01*
X2614997Y1308665D01*
X2621662D02*
X2622995Y1309997D01*
X2625661D01*
X2626993Y1308665D01*
Y1307332D01*
X2625661Y1305999D01*
X2624328D01*
X2625661D01*
X2626993Y1304666D01*
Y1303333D01*
X2625661Y1302000D01*
X2622995D01*
X2621662Y1303333D01*
X2610000Y1334000D02*
Y1341997D01*
X2613999D01*
X2615332Y1340665D01*
Y1337999D01*
X2613999Y1336666D01*
X2610000D01*
X2612666D02*
X2615332Y1334000D01*
X2617997D02*
X2620663D01*
X2619330D01*
Y1341997D01*
X2617997Y1340665D01*
X2628661Y1334000D02*
Y1341997D01*
X2624662Y1337999D01*
X2629994D01*
X1992000Y1018000D02*
X1984003D01*
Y1021999D01*
X1985336Y1023332D01*
X1988001D01*
X1989334Y1021999D01*
Y1018000D01*
Y1020666D02*
X1992000Y1023332D01*
Y1025997D02*
Y1028663D01*
Y1027330D01*
X1984003D01*
X1985336Y1025997D01*
X1984003Y1037994D02*
Y1032662D01*
X1988001D01*
X1986668Y1035328D01*
Y1036661D01*
X1988001Y1037994D01*
X1990667D01*
X1992000Y1036661D01*
Y1033995D01*
X1990667Y1032662D01*
X2609000Y1366000D02*
Y1373997D01*
X2612999D01*
X2614332Y1372664D01*
Y1369999D01*
X2612999Y1368666D01*
X2609000D01*
X2611666D02*
X2614332Y1366000D01*
X2616997D02*
X2619663D01*
X2618330D01*
Y1373997D01*
X2616997Y1372664D01*
X2628994Y1373997D02*
X2626328Y1372664D01*
X2623662Y1369999D01*
Y1367333D01*
X2624995Y1366000D01*
X2627661D01*
X2628994Y1367333D01*
Y1368666D01*
X2627661Y1369999D01*
X2623662D01*
X2101000Y944000D02*
X2108997D01*
Y940001D01*
X2107664Y938668D01*
X2104999D01*
X2103666Y940001D01*
Y944000D01*
Y941334D02*
X2101000Y938668D01*
Y936003D02*
Y933337D01*
Y934670D01*
X2108997D01*
X2107664Y936003D01*
X2108997Y929338D02*
Y924006D01*
X2107664D01*
X2102333Y929338D01*
X2101000D01*
X1679000Y967000D02*
X1671003D01*
Y970999D01*
X1672336Y972332D01*
X1675001D01*
X1676334Y970999D01*
Y967000D01*
Y969666D02*
X1679000Y972332D01*
Y980329D02*
Y974997D01*
X1673668Y980329D01*
X1672336D01*
X1671003Y978996D01*
Y976330D01*
X1672336Y974997D01*
Y982995D02*
X1671003Y984328D01*
Y986994D01*
X1672336Y988326D01*
X1673668D01*
X1675001Y986994D01*
X1676334Y988326D01*
X1677667D01*
X1679000Y986994D01*
Y984328D01*
X1677667Y982995D01*
X1676334D01*
X1675001Y984328D01*
X1673668Y982995D01*
X1672336D01*
X1675001Y984328D02*
Y986994D01*
X1592000Y731000D02*
X1584003D01*
Y734999D01*
X1585336Y736332D01*
X1588001D01*
X1589334Y734999D01*
Y731000D01*
Y733666D02*
X1592000Y736332D01*
Y744329D02*
Y738997D01*
X1586668Y744329D01*
X1585336D01*
X1584003Y742996D01*
Y740330D01*
X1585336Y738997D01*
X1590667Y746995D02*
X1592000Y748328D01*
Y750993D01*
X1590667Y752326D01*
X1585336D01*
X1584003Y750993D01*
Y748328D01*
X1585336Y746995D01*
X1586668D01*
X1588001Y748328D01*
Y752326D01*
X1626000Y767000D02*
Y774997D01*
X1629999D01*
X1631332Y773664D01*
Y770999D01*
X1629999Y769666D01*
X1626000D01*
X1628666D02*
X1631332Y767000D01*
X1633997Y773664D02*
X1635330Y774997D01*
X1637996D01*
X1639329Y773664D01*
Y772332D01*
X1637996Y770999D01*
X1636663D01*
X1637996D01*
X1639329Y769666D01*
Y768333D01*
X1637996Y767000D01*
X1635330D01*
X1633997Y768333D01*
X1641995Y773664D02*
X1643328Y774997D01*
X1645994D01*
X1647326Y773664D01*
Y768333D01*
X1645994Y767000D01*
X1643328D01*
X1641995Y768333D01*
Y773664D01*
X1669000Y656000D02*
Y663997D01*
X1672999D01*
X1674332Y662664D01*
Y659999D01*
X1672999Y658666D01*
X1669000D01*
X1671666D02*
X1674332Y656000D01*
X1676997Y662664D02*
X1678330Y663997D01*
X1680996D01*
X1682329Y662664D01*
Y661332D01*
X1680996Y659999D01*
X1679663D01*
X1680996D01*
X1682329Y658666D01*
Y657333D01*
X1680996Y656000D01*
X1678330D01*
X1676997Y657333D01*
X1684995Y656000D02*
X1687661D01*
X1686328D01*
Y663997D01*
X1684995Y662664D01*
X1989000Y1202997D02*
Y1196333D01*
X1990333Y1195000D01*
X1992999D01*
X1994332Y1196333D01*
Y1202997D01*
X1996997Y1195000D02*
X1999663D01*
X1998330D01*
Y1202997D01*
X1996997Y1201665D01*
X2391918Y966593D02*
Y959929D01*
X2393251Y958596D01*
X2395917D01*
X2397250Y959929D01*
Y966593D01*
X2399915Y965260D02*
X2401248Y966593D01*
X2403914D01*
X2405247Y965260D01*
Y963928D01*
X2403914Y962595D01*
X2402581D01*
X2403914D01*
X2405247Y961262D01*
Y959929D01*
X2403914Y958596D01*
X2401248D01*
X2399915Y959929D01*
X2198003Y996000D02*
X2204667D01*
X2206000Y997333D01*
Y999999D01*
X2204667Y1001332D01*
X2198003D01*
X2199335Y1003997D02*
X2198003Y1005330D01*
Y1007996D01*
X2199335Y1009329D01*
X2200668D01*
X2202001Y1007996D01*
X2203334Y1009329D01*
X2204667D01*
X2206000Y1007996D01*
Y1005330D01*
X2204667Y1003997D01*
X2203334D01*
X2202001Y1005330D01*
X2200668Y1003997D01*
X2199335D01*
X2202001Y1005330D02*
Y1007996D01*
X1710003Y717000D02*
X1716667D01*
X1718000Y718333D01*
Y720999D01*
X1716667Y722332D01*
X1710003D01*
X1718000Y724997D02*
Y727663D01*
Y726330D01*
X1710003D01*
X1711335Y724997D01*
Y731662D02*
X1710003Y732995D01*
Y735661D01*
X1711335Y736993D01*
X1716667D01*
X1718000Y735661D01*
Y732995D01*
X1716667Y731662D01*
X1711335D01*
X1716024Y971165D02*
Y964501D01*
X1717357Y963168D01*
X1720023D01*
X1721356Y964501D01*
Y971165D01*
X1724021Y963168D02*
X1726687D01*
X1725354D01*
Y971165D01*
X1724021Y969833D01*
X1730686Y963168D02*
X1733352D01*
X1732019D01*
Y971165D01*
X1730686Y969833D01*
X1651997Y1019000D02*
X1645333D01*
X1644000Y1017667D01*
Y1015001D01*
X1645333Y1013668D01*
X1651997D01*
X1644000Y1011003D02*
Y1008337D01*
Y1009670D01*
X1651997D01*
X1650665Y1011003D01*
X1644000Y999006D02*
Y1004338D01*
X1649332Y999006D01*
X1650665D01*
X1651997Y1000339D01*
Y1003005D01*
X1650665Y1004338D01*
X2035000Y692997D02*
X2040332Y685000D01*
Y692997D02*
X2035000Y685000D01*
X2042997D02*
X2045663D01*
X2044330D01*
Y692997D01*
X2042997Y691665D01*
X2155000Y693997D02*
X2160332Y686000D01*
Y693997D02*
X2155000Y686000D01*
X2168329D02*
X2162997D01*
X2168329Y691332D01*
Y692664D01*
X2166996Y693997D01*
X2164330D01*
X2162997Y692664D01*
X2475000Y1160997D02*
X2480332Y1153000D01*
Y1160997D02*
X2475000Y1153000D01*
X2482997Y1159665D02*
X2484330Y1160997D01*
X2486996D01*
X2488329Y1159665D01*
Y1158332D01*
X2486996Y1156999D01*
X2485663D01*
X2486996D01*
X2488329Y1155666D01*
Y1154333D01*
X2486996Y1153000D01*
X2484330D01*
X2482997Y1154333D01*
X2473000Y1260997D02*
X2478332Y1253000D01*
Y1260997D02*
X2473000Y1253000D01*
X2484996D02*
Y1260997D01*
X2480997Y1256999D01*
X2486329D01*
X2475000Y1346997D02*
X2480332Y1339000D01*
Y1346997D02*
X2475000Y1339000D01*
X2488329Y1346997D02*
X2485663Y1345665D01*
X2482997Y1342999D01*
Y1340333D01*
X2484330Y1339000D01*
X2486996D01*
X2488329Y1340333D01*
Y1341666D01*
X2486996Y1342999D01*
X2482997D01*
X1833000Y1034997D02*
X1838332Y1027000D01*
Y1034997D02*
X1833000Y1027000D01*
X1840997Y1028333D02*
X1842330Y1027000D01*
X1844996D01*
X1846329Y1028333D01*
Y1033664D01*
X1844996Y1034997D01*
X1842330D01*
X1840997Y1033664D01*
Y1032332D01*
X1842330Y1030999D01*
X1846329D01*
X2346000Y673997D02*
X2351332Y666000D01*
Y673997D02*
X2346000Y666000D01*
X2353997D02*
X2356663D01*
X2355330D01*
Y673997D01*
X2353997Y672664D01*
X2360662D02*
X2361995Y673997D01*
X2364661D01*
X2365993Y672664D01*
Y667333D01*
X2364661Y666000D01*
X2361995D01*
X2360662Y667333D01*
Y672664D01*
X1518997Y919000D02*
X1511000Y913668D01*
X1518997D02*
X1511000Y919000D01*
Y911003D02*
Y908337D01*
Y909670D01*
X1518997D01*
X1517664Y911003D01*
X1518997Y899006D02*
X1517664Y901672D01*
X1514999Y904338D01*
X1512333D01*
X1511000Y903005D01*
Y900339D01*
X1512333Y899006D01*
X1513666D01*
X1514999Y900339D01*
Y904338D01*
X2393000Y1292003D02*
X2387668Y1300000D01*
Y1292003D02*
X2393000Y1300000D01*
X2385003D02*
X2382337D01*
X2383670D01*
Y1292003D01*
X2385003Y1293336D01*
X2378338Y1292003D02*
X2373006D01*
Y1293336D01*
X2378338Y1298667D01*
Y1300000D01*
X1407414Y1105023D02*
X1412746Y1097026D01*
Y1105023D02*
X1407414Y1097026D01*
X1420743Y1103690D02*
X1419410Y1105023D01*
X1416744D01*
X1415411Y1103690D01*
Y1102358D01*
X1416744Y1101025D01*
X1419410D01*
X1420743Y1099692D01*
Y1098359D01*
X1419410Y1097026D01*
X1416744D01*
X1415411Y1098359D01*
X1423409Y1097026D02*
X1426075D01*
X1424742D01*
Y1105023D01*
X1423409Y1103690D01*
X1895000Y1184997D02*
Y1178333D01*
X1896333Y1177000D01*
X1898999D01*
X1900332Y1178333D01*
Y1184997D01*
X1908329Y1177000D02*
X1902997D01*
X1908329Y1182332D01*
Y1183664D01*
X1906996Y1184997D01*
X1904330D01*
X1902997Y1183664D01*
X1770332Y711665D02*
X1768999Y712997D01*
X1766333D01*
X1765000Y711665D01*
Y706333D01*
X1766333Y705000D01*
X1768999D01*
X1770332Y706333D01*
X1778329Y712997D02*
X1772997D01*
Y708999D01*
X1775663Y710332D01*
X1776996D01*
X1778329Y708999D01*
Y706333D01*
X1776996Y705000D01*
X1774330D01*
X1772997Y706333D01*
X1780995Y711665D02*
X1782328Y712997D01*
X1784993D01*
X1786326Y711665D01*
Y710332D01*
X1784993Y708999D01*
X1783661D01*
X1784993D01*
X1786326Y707666D01*
Y706333D01*
X1784993Y705000D01*
X1782328D01*
X1780995Y706333D01*
X2027174Y782828D02*
Y790825D01*
X2031173D01*
X2032506Y789492D01*
Y786827D01*
X2031173Y785494D01*
X2027174D01*
X2029840D02*
X2032506Y782828D01*
X2039170D02*
Y790825D01*
X2035171Y786827D01*
X2040503D01*
X1579332Y1105665D02*
X1577999Y1106997D01*
X1575333D01*
X1574000Y1105665D01*
Y1100333D01*
X1575333Y1099000D01*
X1577999D01*
X1579332Y1100333D01*
X1585996Y1099000D02*
Y1106997D01*
X1581997Y1102999D01*
X1587329D01*
X1589995Y1106997D02*
X1595327D01*
Y1105665D01*
X1589995Y1100333D01*
Y1099000D01*
X2307332Y802664D02*
X2305999Y803997D01*
X2303333D01*
X2302000Y802664D01*
Y797333D01*
X2303333Y796000D01*
X2305999D01*
X2307332Y797333D01*
X2315329Y796000D02*
X2309997D01*
X2315329Y801332D01*
Y802664D01*
X2313996Y803997D01*
X2311330D01*
X2309997Y802664D01*
X2317995D02*
X2319328Y803997D01*
X2321994D01*
X2323326Y802664D01*
Y801332D01*
X2321994Y799999D01*
X2323326Y798666D01*
Y797333D01*
X2321994Y796000D01*
X2319328D01*
X2317995Y797333D01*
Y798666D01*
X2319328Y799999D01*
X2317995Y801332D01*
Y802664D01*
X2319328Y799999D02*
X2321994D01*
X2312332Y777664D02*
X2310999Y778997D01*
X2308333D01*
X2307000Y777664D01*
Y772333D01*
X2308333Y771000D01*
X2310999D01*
X2312332Y772333D01*
X2320329Y771000D02*
X2314997D01*
X2320329Y776332D01*
Y777664D01*
X2318996Y778997D01*
X2316330D01*
X2314997Y777664D01*
X2322995Y778997D02*
X2328327D01*
Y777664D01*
X2322995Y772333D01*
Y771000D01*
X2570335Y883332D02*
X2569003Y881999D01*
Y879333D01*
X2570335Y878000D01*
X2575667D01*
X2577000Y879333D01*
Y881999D01*
X2575667Y883332D01*
X2577000Y891329D02*
Y885997D01*
X2571668Y891329D01*
X2570335D01*
X2569003Y889996D01*
Y887330D01*
X2570335Y885997D01*
X2569003Y899326D02*
X2570335Y896661D01*
X2573001Y893995D01*
X2575667D01*
X2577000Y895328D01*
Y897994D01*
X2575667Y899326D01*
X2574334D01*
X2573001Y897994D01*
Y893995D01*
X1673860Y1281430D02*
Y1289427D01*
X1677859D01*
X1679192Y1288094D01*
Y1285429D01*
X1677859Y1284096D01*
X1673860D01*
X1676526D02*
X1679192Y1281430D01*
X1681857Y1288094D02*
X1683190Y1289427D01*
X1685856D01*
X1687189Y1288094D01*
Y1286762D01*
X1685856Y1285429D01*
X1684523D01*
X1685856D01*
X1687189Y1284096D01*
Y1282763D01*
X1685856Y1281430D01*
X1683190D01*
X1681857Y1282763D01*
X1689855Y1289427D02*
X1695186D01*
Y1288094D01*
X1689855Y1282763D01*
Y1281430D01*
X1650238Y1259455D02*
Y1252791D01*
X1651571Y1251458D01*
X1654237D01*
X1655570Y1252791D01*
Y1259455D01*
X1658235Y1251458D02*
X1660901D01*
X1659568D01*
Y1259455D01*
X1658235Y1258122D01*
X1670232Y1259455D02*
X1667566Y1258122D01*
X1664900Y1255457D01*
Y1252791D01*
X1666233Y1251458D01*
X1668899D01*
X1670232Y1252791D01*
Y1254124D01*
X1668899Y1255457D01*
X1664900D01*
X1585582Y1426664D02*
X1584249Y1427997D01*
X1581583D01*
X1580250Y1426664D01*
Y1421333D01*
X1581583Y1420000D01*
X1584249D01*
X1585582Y1421333D01*
X1593579Y1420000D02*
X1588247D01*
X1593579Y1425332D01*
Y1426664D01*
X1592246Y1427997D01*
X1589580D01*
X1588247Y1426664D01*
X1600244Y1420000D02*
Y1427997D01*
X1596245Y1423999D01*
X1601577D01*
X1582332Y1456915D02*
X1580999Y1458247D01*
X1578333D01*
X1577000Y1456915D01*
Y1451583D01*
X1578333Y1450250D01*
X1580999D01*
X1582332Y1451583D01*
X1590329Y1450250D02*
X1584997D01*
X1590329Y1455582D01*
Y1456915D01*
X1588996Y1458247D01*
X1586330D01*
X1584997Y1456915D01*
X1598326Y1458247D02*
X1592995D01*
Y1454249D01*
X1595661Y1455582D01*
X1596994D01*
X1598326Y1454249D01*
Y1451583D01*
X1596994Y1450250D01*
X1594328D01*
X1592995Y1451583D01*
X1732252Y1473026D02*
X1730919Y1474359D01*
X1728253D01*
X1726920Y1473026D01*
Y1467695D01*
X1728253Y1466362D01*
X1730919D01*
X1732252Y1467695D01*
X1740249Y1466362D02*
X1734917D01*
X1740249Y1471694D01*
Y1473026D01*
X1738916Y1474359D01*
X1736250D01*
X1734917Y1473026D01*
X1742915Y1467695D02*
X1744248Y1466362D01*
X1746914D01*
X1748246Y1467695D01*
Y1473026D01*
X1746914Y1474359D01*
X1744248D01*
X1742915Y1473026D01*
Y1471694D01*
X1744248Y1470361D01*
X1748246D01*
X1760192Y1473026D02*
X1758859Y1474359D01*
X1756193D01*
X1754860Y1473026D01*
Y1467695D01*
X1756193Y1466362D01*
X1758859D01*
X1760192Y1467695D01*
X1762857Y1473026D02*
X1764190Y1474359D01*
X1766856D01*
X1768189Y1473026D01*
Y1471694D01*
X1766856Y1470361D01*
X1765523D01*
X1766856D01*
X1768189Y1469028D01*
Y1467695D01*
X1766856Y1466362D01*
X1764190D01*
X1762857Y1467695D01*
X1770855Y1473026D02*
X1772188Y1474359D01*
X1774854D01*
X1776187Y1473026D01*
Y1467695D01*
X1774854Y1466362D01*
X1772188D01*
X1770855Y1467695D01*
Y1473026D01*
X1788132D02*
X1786799Y1474359D01*
X1784133D01*
X1782800Y1473026D01*
Y1467695D01*
X1784133Y1466362D01*
X1786799D01*
X1788132Y1467695D01*
X1790797Y1473026D02*
X1792130Y1474359D01*
X1794796D01*
X1796129Y1473026D01*
Y1471694D01*
X1794796Y1470361D01*
X1793463D01*
X1794796D01*
X1796129Y1469028D01*
Y1467695D01*
X1794796Y1466362D01*
X1792130D01*
X1790797Y1467695D01*
X1798795Y1466362D02*
X1801461D01*
X1800128D01*
Y1474359D01*
X1798795Y1473026D01*
X1670478Y1149426D02*
X1669145Y1150759D01*
X1666479D01*
X1665146Y1149426D01*
Y1144095D01*
X1666479Y1142762D01*
X1669145D01*
X1670478Y1144095D01*
X1673143Y1149426D02*
X1674476Y1150759D01*
X1677142D01*
X1678475Y1149426D01*
Y1148094D01*
X1677142Y1146761D01*
X1675809D01*
X1677142D01*
X1678475Y1145428D01*
Y1144095D01*
X1677142Y1142762D01*
X1674476D01*
X1673143Y1144095D01*
X1686472Y1142762D02*
X1681141D01*
X1686472Y1148094D01*
Y1149426D01*
X1685140Y1150759D01*
X1682474D01*
X1681141Y1149426D01*
X2973336Y1412332D02*
X2972003Y1410999D01*
Y1408333D01*
X2973336Y1407000D01*
X2978667D01*
X2980000Y1408333D01*
Y1410999D01*
X2978667Y1412332D01*
X2980000Y1418996D02*
X2972003D01*
X2976001Y1414997D01*
Y1420329D01*
X2972003Y1428326D02*
X2973336Y1425661D01*
X2976001Y1422995D01*
X2978667D01*
X2980000Y1424328D01*
Y1426994D01*
X2978667Y1428326D01*
X2977334D01*
X2976001Y1426994D01*
Y1422995D01*
X2972560Y1530410D02*
X2971227Y1531743D01*
X2968561D01*
X2967228Y1530410D01*
Y1525079D01*
X2968561Y1523746D01*
X2971227D01*
X2972560Y1525079D01*
X2979224Y1523746D02*
Y1531743D01*
X2975226Y1527745D01*
X2980557D01*
X2983223Y1530410D02*
X2984556Y1531743D01*
X2987222D01*
X2988554Y1530410D01*
Y1529078D01*
X2987222Y1527745D01*
X2988554Y1526412D01*
Y1525079D01*
X2987222Y1523746D01*
X2984556D01*
X2983223Y1525079D01*
Y1526412D01*
X2984556Y1527745D01*
X2983223Y1529078D01*
Y1530410D01*
X2984556Y1527745D02*
X2987222D01*
X1409444Y1306191D02*
X1406778D01*
X1408111D01*
Y1299527D01*
X1406778Y1298194D01*
X1405445D01*
X1404112Y1299527D01*
X1412109Y1298194D02*
X1414775D01*
X1413442D01*
Y1306191D01*
X1412109Y1304859D01*
X2820160Y1247517D02*
X2817494D01*
X2818827D01*
Y1240853D01*
X2817494Y1239520D01*
X2816161D01*
X2814828Y1240853D01*
X2828157Y1239520D02*
X2822825D01*
X2828157Y1244852D01*
Y1246184D01*
X2826824Y1247517D01*
X2824158D01*
X2822825Y1246184D01*
X2888000Y1243000D02*
Y1250997D01*
X2891999D01*
X2893332Y1249665D01*
Y1246999D01*
X2891999Y1245666D01*
X2888000D01*
X2890666D02*
X2893332Y1243000D01*
X2895997D02*
X2898663D01*
X2897330D01*
Y1250997D01*
X2895997Y1249665D01*
X2902662D02*
X2903995Y1250997D01*
X2906661D01*
X2907993Y1249665D01*
Y1248332D01*
X2906661Y1246999D01*
X2907993Y1245666D01*
Y1244333D01*
X2906661Y1243000D01*
X2903995D01*
X2902662Y1244333D01*
Y1245666D01*
X2903995Y1246999D01*
X2902662Y1248332D01*
Y1249665D01*
X2903995Y1246999D02*
X2906661D01*
X1598390Y1220612D02*
Y1228609D01*
X1602389D01*
X1603722Y1227277D01*
Y1224611D01*
X1602389Y1223278D01*
X1598390D01*
X1601056D02*
X1603722Y1220612D01*
X1606387D02*
X1609053D01*
X1607720D01*
Y1228609D01*
X1606387Y1227277D01*
X1613052Y1221945D02*
X1614385Y1220612D01*
X1617051D01*
X1618384Y1221945D01*
Y1227277D01*
X1617051Y1228609D01*
X1614385D01*
X1613052Y1227277D01*
Y1225944D01*
X1614385Y1224611D01*
X1618384D01*
X2940706Y1263412D02*
X2932708D01*
Y1267410D01*
X2934041Y1268743D01*
X2936707D01*
X2938040Y1267410D01*
Y1263412D01*
Y1266077D02*
X2940706Y1268743D01*
Y1276741D02*
Y1271409D01*
X2935374Y1276741D01*
X2934041D01*
X2932708Y1275408D01*
Y1272742D01*
X2934041Y1271409D01*
Y1279406D02*
X2932708Y1280739D01*
Y1283405D01*
X2934041Y1284738D01*
X2939373D01*
X2940706Y1283405D01*
Y1280739D01*
X2939373Y1279406D01*
X2934041D01*
X2992000Y1357000D02*
X2984003D01*
Y1360999D01*
X2985335Y1362332D01*
X2988001D01*
X2989334Y1360999D01*
Y1357000D01*
Y1359666D02*
X2992000Y1362332D01*
Y1370329D02*
Y1364997D01*
X2986668Y1370329D01*
X2985335D01*
X2984003Y1368996D01*
Y1366330D01*
X2985335Y1364997D01*
X2992000Y1372995D02*
Y1375661D01*
Y1374328D01*
X2984003D01*
X2985335Y1372995D01*
X1663420Y1471565D02*
Y1464901D01*
X1664753Y1463568D01*
X1667419D01*
X1668752Y1464901D01*
Y1471565D01*
X1675416Y1463568D02*
Y1471565D01*
X1671417Y1467567D01*
X1676749D01*
X2843022Y1515995D02*
Y1509331D01*
X2844355Y1507998D01*
X2847021D01*
X2848354Y1509331D01*
Y1515995D01*
X2856351D02*
X2851019D01*
Y1511997D01*
X2853685Y1513330D01*
X2855018D01*
X2856351Y1511997D01*
Y1509331D01*
X2855018Y1507998D01*
X2852352D01*
X2851019Y1509331D01*
X2854198Y1381375D02*
Y1374711D01*
X2855531Y1373378D01*
X2858197D01*
X2859530Y1374711D01*
Y1381375D01*
X2867527D02*
X2864861Y1380043D01*
X2862195Y1377377D01*
Y1374711D01*
X2863528Y1373378D01*
X2866194D01*
X2867527Y1374711D01*
Y1376044D01*
X2866194Y1377377D01*
X2862195D01*
X1975250Y1577997D02*
Y1571333D01*
X1976583Y1570000D01*
X1979249D01*
X1980582Y1571333D01*
Y1577997D01*
X1983247D02*
X1988579D01*
Y1576664D01*
X1983247Y1571333D01*
Y1570000D01*
X1726000Y1594997D02*
X1731332Y1587000D01*
Y1594997D02*
X1726000Y1587000D01*
X1733997Y1594997D02*
X1739329D01*
Y1593665D01*
X1733997Y1588333D01*
Y1587000D01*
X2814000Y1599997D02*
X2819332Y1592000D01*
Y1599997D02*
X2814000Y1592000D01*
X2827329Y1598665D02*
X2825996Y1599997D01*
X2823330D01*
X2821997Y1598665D01*
Y1597332D01*
X2823330Y1595999D01*
X2825996D01*
X2827329Y1594666D01*
Y1593333D01*
X2825996Y1592000D01*
X2823330D01*
X2821997Y1593333D01*
X2829995Y1598665D02*
X2831328Y1599997D01*
X2833994D01*
X2835327Y1598665D01*
Y1597332D01*
X2833994Y1595999D01*
X2832661D01*
X2833994D01*
X2835327Y1594666D01*
Y1593333D01*
X2833994Y1592000D01*
X2831328D01*
X2829995Y1593333D01*
X2993000Y1312000D02*
X2985003D01*
Y1315999D01*
X2986335Y1317332D01*
X2989001D01*
X2990334Y1315999D01*
Y1312000D01*
Y1314666D02*
X2993000Y1317332D01*
Y1325329D02*
Y1319997D01*
X2987668Y1325329D01*
X2986335D01*
X2985003Y1323996D01*
Y1321330D01*
X2986335Y1319997D01*
X2985003Y1333326D02*
Y1327995D01*
X2989001D01*
X2987668Y1330661D01*
Y1331994D01*
X2989001Y1333326D01*
X2991667D01*
X2993000Y1331994D01*
Y1329328D01*
X2991667Y1327995D01*
X1817642Y1473611D02*
X1816309Y1474943D01*
X1813643D01*
X1812310Y1473611D01*
Y1468279D01*
X1813643Y1466946D01*
X1816309D01*
X1817642Y1468279D01*
X1825639Y1474943D02*
X1820307D01*
Y1470945D01*
X1822973Y1472278D01*
X1824306D01*
X1825639Y1470945D01*
Y1468279D01*
X1824306Y1466946D01*
X1821640D01*
X1820307Y1468279D01*
X1832303Y1466946D02*
Y1474943D01*
X1828305Y1470945D01*
X1833636D01*
X2258000Y728000D02*
Y735997D01*
X2261999D01*
X2263332Y734665D01*
Y731999D01*
X2261999Y730666D01*
X2258000D01*
X2260666D02*
X2263332Y728000D01*
X2271329Y735997D02*
X2265997D01*
Y728000D01*
X2271329D01*
X2265997Y731999D02*
X2268663D01*
X2279326Y734665D02*
X2277994Y735997D01*
X2275328D01*
X2273995Y734665D01*
Y733332D01*
X2275328Y731999D01*
X2277994D01*
X2279326Y730666D01*
Y729333D01*
X2277994Y728000D01*
X2275328D01*
X2273995Y729333D01*
X2287324Y735997D02*
X2281992D01*
Y728000D01*
X2287324D01*
X2281992Y731999D02*
X2284658D01*
X2289990Y735997D02*
X2295321D01*
X2292655D01*
Y728000D01*
X2016000Y733997D02*
Y726000D01*
X2019999D01*
X2021332Y727333D01*
Y728666D01*
X2019999Y729999D01*
X2016000D01*
X2019999D01*
X2021332Y731332D01*
Y732664D01*
X2019999Y733997D01*
X2016000D01*
X2027996D02*
X2025330D01*
X2023997Y732664D01*
Y727333D01*
X2025330Y726000D01*
X2027996D01*
X2029329Y727333D01*
Y732664D01*
X2027996Y733997D01*
X2035994D02*
X2033328D01*
X2031995Y732664D01*
Y727333D01*
X2033328Y726000D01*
X2035994D01*
X2037327Y727333D01*
Y732664D01*
X2035994Y733997D01*
X2039992D02*
X2045324D01*
X2042658D01*
Y726000D01*
X2022000Y1170000D02*
G03*
X2022000Y1170000I-5000J0D01*
G01*
X1702000Y738000D02*
G03*
X1702000Y738000I-5000J0D01*
G01*
X1636500Y1045000D02*
G03*
X1636500Y1045000I-5000J0D01*
G01*
X1953500Y1151500D02*
G03*
X1953500Y1151500I-5000J0D01*
G01*
X2861500Y1431000D02*
G03*
X2861500Y1431000I-5000J0D01*
G01*
X2940000Y1341000D02*
G03*
X2940000Y1341000I-5000J0D01*
G01*
X1702500Y1163750D02*
G03*
X1702500Y1163750I-5000J0D01*
G01*
X1604650Y1132600D02*
Y1155400D01*
X1617350Y1132600D02*
Y1155400D01*
X1604650Y1132600D02*
X1617350D01*
X1604650Y1155400D02*
X1617350D01*
X2820750Y1354000D02*
Y1374000D01*
X2833250Y1354000D02*
Y1374000D01*
X2820750Y1354000D02*
X2833250D01*
X2820750Y1374000D02*
X2833250D01*
X2833350Y1430600D02*
Y1453400D01*
X2820650Y1430600D02*
Y1453400D01*
X2833350D01*
X2820650Y1430600D02*
X2833350D01*
X2820650Y1311600D02*
Y1334400D01*
X2833350Y1311600D02*
Y1334400D01*
X2820650Y1311600D02*
X2833350D01*
X2820650Y1334400D02*
X2833350D01*
X2833250Y1392000D02*
Y1412000D01*
X2820750Y1392000D02*
Y1412000D01*
X2833250D01*
X2820750Y1392000D02*
X2833250D01*
X2880200Y753600D02*
X2917800D01*
X2880200Y706400D02*
X2917800D01*
X2880200D02*
Y753600D01*
X2917800Y706400D02*
Y753600D01*
X2963750Y707950D02*
X2978250D01*
X2963750Y730050D02*
X2978250D01*
X2963750Y707950D02*
Y730050D01*
X2978250Y707950D02*
Y730050D01*
X2887950Y680750D02*
Y695250D01*
X2910050Y680750D02*
Y695250D01*
X2887950D02*
X2910050D01*
X2887950Y680750D02*
X2910050D01*
X1663600Y1013650D02*
X1686400D01*
X1663600Y1026350D02*
X1686400D01*
Y1013650D02*
Y1026350D01*
X1663600Y1013650D02*
Y1026350D01*
Y1040650D02*
X1686400D01*
X1663600Y1053350D02*
X1686400D01*
Y1040650D02*
Y1053350D01*
X1663600Y1040650D02*
Y1053350D01*
Y1067650D02*
X1686400D01*
X1663600Y1080350D02*
X1686400D01*
Y1067650D02*
Y1080350D01*
X1663600Y1067650D02*
Y1080350D01*
X2316950Y1275750D02*
Y1290250D01*
X2339050Y1275750D02*
Y1290250D01*
X2316950D02*
X2339050D01*
X2316950Y1275750D02*
X2339050D01*
X2283050D02*
Y1290250D01*
X2260950Y1275750D02*
Y1290250D01*
Y1275750D02*
X2283050D01*
X2260950Y1290250D02*
X2283050D01*
X1539650Y880400D02*
X1552350D01*
X1539650Y857600D02*
X1552350D01*
Y880400D01*
X1539650Y857600D02*
Y880400D01*
X2168950Y782250D02*
X2191050D01*
X2168950Y767750D02*
X2191050D01*
X2168950D02*
Y782250D01*
X2191050Y767750D02*
Y782250D01*
X2468750Y1181950D02*
Y1204050D01*
X2483250Y1181950D02*
Y1204050D01*
X2468750Y1181950D02*
X2483250D01*
X2468750Y1204050D02*
X2483250D01*
X2470750Y1276950D02*
Y1299050D01*
X2485250Y1276950D02*
Y1299050D01*
X2470750Y1276950D02*
X2485250D01*
X2470750Y1299050D02*
X2485250D01*
X2470750Y1366950D02*
Y1389050D01*
X2485250Y1366950D02*
Y1389050D01*
X2470750Y1366950D02*
X2485250D01*
X2470750Y1389050D02*
X2485250D01*
X1829250Y1051450D02*
Y1073550D01*
X1843750Y1051450D02*
Y1073550D01*
X1829250Y1051450D02*
X1843750D01*
X1829250Y1073550D02*
X1843750D01*
Y971450D02*
Y993550D01*
X1829250Y971450D02*
Y993550D01*
X1843750D01*
X1829250Y971450D02*
X1843750D01*
X1883950Y1109250D02*
X1906050D01*
X1883950Y1094750D02*
X1906050D01*
X1883950D02*
Y1109250D01*
X1906050Y1094750D02*
Y1109250D01*
X2157750Y966950D02*
Y989050D01*
X2172250Y966950D02*
Y989050D01*
X2157750Y966950D02*
X2172250D01*
X2157750Y989050D02*
X2172250D01*
X2190250Y1169950D02*
Y1192050D01*
X2175750Y1169950D02*
Y1192050D01*
X2190250D01*
X2175750Y1169950D02*
X2190250D01*
X2033250Y1219950D02*
Y1242050D01*
X2018750Y1219950D02*
Y1242050D01*
X2033250D01*
X2018750Y1219950D02*
X2033250D01*
X2050750Y952950D02*
Y975050D01*
X2065250Y952950D02*
Y975050D01*
X2050750Y952950D02*
X2065250D01*
X2050750Y975050D02*
X2065250D01*
X2001950Y994750D02*
X2024050D01*
X2001950Y1009250D02*
X2024050D01*
Y994750D02*
Y1009250D01*
X2001950Y994750D02*
Y1009250D01*
X2061250Y1219950D02*
Y1242050D01*
X2046750Y1219950D02*
Y1242050D01*
X2061250D01*
X2046750Y1219950D02*
X2061250D01*
X2154250Y1222950D02*
Y1245050D01*
X2139750Y1222950D02*
Y1245050D01*
X2154250D01*
X2139750Y1222950D02*
X2154250D01*
X1921950Y990250D02*
X1944050D01*
X1921950Y975750D02*
X1944050D01*
X1921950D02*
Y990250D01*
X1944050Y975750D02*
Y990250D01*
X1921950Y1017250D02*
X1944050D01*
X1921950Y1002750D02*
X1944050D01*
X1921950D02*
Y1017250D01*
X1944050Y1002750D02*
Y1017250D01*
X2186250Y1222950D02*
Y1245050D01*
X2171750Y1222950D02*
Y1245050D01*
X2186250D01*
X2171750Y1222950D02*
X2186250D01*
X2130750Y966950D02*
Y989050D01*
X2145250Y966950D02*
Y989050D01*
X2130750Y966950D02*
X2145250D01*
X2130750Y989050D02*
X2145250D01*
X2011250Y952950D02*
Y975050D01*
X1996750Y952950D02*
Y975050D01*
X2011250D01*
X1996750Y952950D02*
X2011250D01*
X2039250Y952950D02*
Y975050D01*
X2024750Y952950D02*
Y975050D01*
X2039250D01*
X2024750Y952950D02*
X2039250D01*
X1928950Y1227250D02*
X1951050D01*
X1928950Y1212750D02*
X1951050D01*
X1928950D02*
Y1227250D01*
X1951050Y1212750D02*
Y1227250D01*
X1928950Y1194250D02*
X1951050D01*
X1928950Y1179750D02*
X1951050D01*
X1928950D02*
Y1194250D01*
X1951050Y1179750D02*
Y1194250D01*
X1928950Y1109250D02*
X1951050D01*
X1928950Y1094750D02*
X1951050D01*
X1928950D02*
Y1109250D01*
X1951050Y1094750D02*
Y1109250D01*
X2356750Y1046950D02*
Y1069050D01*
X2371250Y1046950D02*
Y1069050D01*
X2356750Y1046950D02*
X2371250D01*
X2356750Y1069050D02*
X2371250D01*
X2386750Y1046950D02*
Y1069050D01*
X2401250Y1046950D02*
Y1069050D01*
X2386750Y1046950D02*
X2401250D01*
X2386750Y1069050D02*
X2401250D01*
X2444750Y1046950D02*
Y1069050D01*
X2459250Y1046950D02*
Y1069050D01*
X2444750Y1046950D02*
X2459250D01*
X2444750Y1069050D02*
X2459250D01*
X2415750Y1046950D02*
Y1069050D01*
X2430250Y1046950D02*
Y1069050D01*
X2415750Y1046950D02*
X2430250D01*
X2415750Y1069050D02*
X2430250D01*
X1567500Y852000D02*
X1602500D01*
X1567500Y786000D02*
X1602500D01*
Y852000D01*
X1567500Y786000D02*
Y852000D01*
X1723500Y642000D02*
X1796500D01*
X1723500Y688000D02*
X1796500D01*
Y642000D02*
Y688000D01*
X1723500Y642000D02*
Y688000D01*
X1630750Y679950D02*
Y702050D01*
X1645250Y679950D02*
Y702050D01*
X1630750Y679950D02*
X1645250D01*
X1630750Y702050D02*
X1645250D01*
X1603750Y679950D02*
Y702050D01*
X1618250Y679950D02*
Y702050D01*
X1603750Y679950D02*
X1618250D01*
X1603750Y702050D02*
X1618250D01*
X1626250Y931950D02*
Y954050D01*
X1611750Y931950D02*
Y954050D01*
X1626250D01*
X1611750Y931950D02*
X1626250D01*
X1654250D02*
Y954050D01*
X1639750Y931950D02*
Y954050D01*
X1654250D01*
X1639750Y931950D02*
X1654250D01*
X1782950Y861750D02*
X1805050D01*
X1782950Y876250D02*
X1805050D01*
Y861750D02*
Y876250D01*
X1782950Y861750D02*
Y876250D01*
Y890750D02*
X1805050D01*
X1782950Y905250D02*
X1805050D01*
Y890750D02*
Y905250D01*
X1782950Y890750D02*
Y905250D01*
Y919750D02*
X1805050D01*
X1782950Y934250D02*
X1805050D01*
Y919750D02*
Y934250D01*
X1782950Y919750D02*
Y934250D01*
X2689000Y1280250D02*
X2709000D01*
X2689000Y1267750D02*
X2709000D01*
X2689000D02*
Y1280250D01*
X2709000Y1267750D02*
Y1280250D01*
X2709000Y1301750D02*
Y1314250D01*
X2689000Y1301750D02*
Y1314250D01*
Y1301750D02*
X2709000D01*
X2689000Y1314250D02*
X2709000D01*
X2690000Y1346250D02*
X2710000D01*
X2690000Y1333750D02*
X2710000D01*
X2690000D02*
Y1346250D01*
X2710000Y1333750D02*
Y1346250D01*
X2711000Y1365750D02*
Y1378250D01*
X2691000Y1365750D02*
Y1378250D01*
Y1365750D02*
X2711000D01*
X2691000Y1378250D02*
X2711000D01*
X1738000Y728250D02*
X1784000D01*
X1738000Y767750D02*
X1784000D01*
Y728250D02*
Y767750D01*
X1738000Y728250D02*
Y767750D01*
X1695750Y947000D02*
Y967000D01*
X1708250Y947000D02*
Y967000D01*
X1695750Y947000D02*
X1708250D01*
X1695750Y967000D02*
X1708250D01*
X1962750Y968000D02*
X1975250D01*
X1962750Y988000D02*
X1975250D01*
X1962750Y968000D02*
Y988000D01*
X1975250Y968000D02*
Y988000D01*
X1626500Y907500D02*
X1751500D01*
X1626500Y782500D02*
X1751500D01*
X1626500D02*
Y907500D01*
X1751500Y782500D02*
Y907500D01*
X2095600Y757650D02*
Y770350D01*
X2118400Y757650D02*
Y770350D01*
X2095600D02*
X2118400D01*
X2095600Y757650D02*
X2118400D01*
X2455350Y1181600D02*
Y1204400D01*
X2442650Y1181600D02*
Y1204400D01*
X2455350D01*
X2442650Y1181600D02*
X2455350D01*
X1944400Y1064150D02*
Y1076850D01*
X1921600Y1064150D02*
Y1076850D01*
Y1064150D02*
X1944400D01*
X1921600Y1076850D02*
X1944400D01*
X1921600Y1051350D02*
X1944400D01*
X1921600Y1038650D02*
X1944400D01*
X1921600D02*
Y1051350D01*
X1944400Y1038650D02*
Y1051350D01*
X1990650Y1242400D02*
X2003350D01*
X1990650Y1219600D02*
X2003350D01*
Y1242400D01*
X1990650Y1219600D02*
Y1242400D01*
X2457350Y1276600D02*
Y1299400D01*
X2444650Y1276600D02*
Y1299400D01*
X2457350D01*
X2444650Y1276600D02*
X2457350D01*
X2168600Y794650D02*
Y807350D01*
X2191400Y794650D02*
Y807350D01*
X2168600D02*
X2191400D01*
X2168600Y794650D02*
X2191400D01*
X2457350Y1366600D02*
Y1389400D01*
X2444650Y1366600D02*
Y1389400D01*
X2457350D01*
X2444650Y1366600D02*
X2457350D01*
X2641600Y1267650D02*
Y1280350D01*
X2664400Y1267650D02*
Y1280350D01*
X2641600D02*
X2664400D01*
X2641600Y1267650D02*
X2664400D01*
X2641600Y1300650D02*
X2664400D01*
X2641600Y1313350D02*
X2664400D01*
Y1300650D02*
Y1313350D01*
X2641600Y1300650D02*
Y1313350D01*
X2642600Y1332650D02*
Y1345350D01*
X2665400Y1332650D02*
Y1345350D01*
X2642600D02*
X2665400D01*
X2642600Y1332650D02*
X2665400D01*
X1975350Y1014600D02*
Y1037400D01*
X1962650Y1014600D02*
Y1037400D01*
X1975350D01*
X1962650Y1014600D02*
X1975350D01*
X2643600Y1364650D02*
Y1377350D01*
X2666400Y1364650D02*
Y1377350D01*
X2643600D02*
X2666400D01*
X2643600Y1364650D02*
X2666400D01*
X2110350Y960600D02*
Y983400D01*
X2097650Y960600D02*
Y983400D01*
X2110350D01*
X2097650Y960600D02*
X2110350D01*
X1667650Y954400D02*
X1680350D01*
X1667650Y931600D02*
X1680350D01*
Y954400D01*
X1667650Y931600D02*
Y954400D01*
X1617350Y732600D02*
Y755400D01*
X1604650Y732600D02*
Y755400D01*
X1617350D01*
X1604650Y732600D02*
X1617350D01*
X1630650Y755400D02*
X1643350D01*
X1630650Y732600D02*
X1643350D01*
Y755400D01*
X1630650Y732600D02*
Y755400D01*
X1665600Y669650D02*
X1688400D01*
X1665600Y682350D02*
X1688400D01*
Y669650D02*
Y682350D01*
X1665600Y669650D02*
Y682350D01*
X2008000Y1039000D02*
X2148000D01*
X2008000Y1179000D02*
X2148000D01*
Y1039000D02*
Y1179000D01*
X2008000Y1039000D02*
Y1179000D01*
X1656000Y747000D02*
X1706000D01*
X1656000Y707000D02*
X1706000D01*
Y747000D01*
X1656000Y707000D02*
Y747000D01*
X1732250Y920750D02*
X1749750D01*
X1732250Y951250D02*
X1749750D01*
Y920750D02*
Y951250D01*
X1732250Y920750D02*
Y951250D01*
X1535500Y1054000D02*
X1640500D01*
X1535500Y998000D02*
X1640500D01*
Y1054000D01*
X1535500Y998000D02*
Y1054000D01*
X1900000Y965750D02*
Y1079250D01*
X1853000Y965750D02*
Y1079250D01*
X1900000D01*
X1853000Y965750D02*
X1900000D01*
X1877500Y1160500D02*
X1957500D01*
X1877500Y1128500D02*
X1957500D01*
Y1160500D01*
X1877500Y1128500D02*
Y1160500D01*
X1730950Y701750D02*
X1753050D01*
X1730950Y716250D02*
X1753050D01*
Y701750D02*
Y716250D01*
X1730950Y701750D02*
Y716250D01*
X2038600Y756650D02*
Y769350D01*
X2061400Y756650D02*
Y769350D01*
X2038600D02*
X2061400D01*
X2038600Y756650D02*
X2061400D01*
X1566250Y1086950D02*
Y1109050D01*
X1551750Y1086950D02*
Y1109050D01*
X1566250D01*
X1551750Y1086950D02*
X1566250D01*
X2343950Y805250D02*
X2366050D01*
X2343950Y790750D02*
X2366050D01*
X2343950D02*
Y805250D01*
X2366050Y790750D02*
Y805250D01*
X2343950Y782250D02*
X2366050D01*
X2343950Y767750D02*
X2366050D01*
X2343950D02*
Y782250D01*
X2366050Y767750D02*
Y782250D01*
X2545750Y876950D02*
Y899050D01*
X2560250Y876950D02*
Y899050D01*
X2545750Y876950D02*
X2560250D01*
X2545750Y899050D02*
X2560250D01*
X1706900Y1255400D02*
Y1268100D01*
X1684100Y1255400D02*
Y1268100D01*
Y1255400D02*
X1706900D01*
X1684100Y1268100D02*
X1706900D01*
X1614950Y1432250D02*
X1637050D01*
X1614950Y1417750D02*
X1637050D01*
X1614950D02*
Y1432250D01*
X1637050Y1417750D02*
Y1432250D01*
X1614700Y1462250D02*
X1636800D01*
X1614700Y1447750D02*
X1636800D01*
X1614700D02*
Y1462250D01*
X1636800Y1447750D02*
Y1462250D01*
X1732250Y1425450D02*
Y1447550D01*
X1746750Y1425450D02*
Y1447550D01*
X1732250Y1425450D02*
X1746750D01*
X1732250Y1447550D02*
X1746750D01*
X1760250Y1425450D02*
Y1447550D01*
X1774750Y1425450D02*
Y1447550D01*
X1760250Y1425450D02*
X1774750D01*
X1760250Y1447550D02*
X1774750D01*
X1788250Y1425450D02*
Y1447550D01*
X1802750Y1425450D02*
Y1447550D01*
X1788250Y1425450D02*
X1802750D01*
X1788250Y1447550D02*
X1802750D01*
X1676950Y1115750D02*
X1699050D01*
X1676950Y1130250D02*
X1699050D01*
Y1115750D02*
Y1130250D01*
X1676950Y1115750D02*
Y1130250D01*
X2987250Y1438950D02*
Y1461050D01*
X2972750Y1438950D02*
Y1461050D01*
X2987250D01*
X2972750Y1438950D02*
X2987250D01*
Y1483950D02*
Y1506050D01*
X2972750Y1483950D02*
Y1506050D01*
X2987250D01*
X2972750Y1483950D02*
X2987250D01*
X2866650Y1245600D02*
X2879350D01*
X2866650Y1268400D02*
X2879350D01*
X2866650Y1245600D02*
Y1268400D01*
X2879350Y1245600D02*
Y1268400D01*
X1604650Y1180600D02*
X1617350D01*
X1604650Y1203400D02*
X1617350D01*
X1604650Y1180600D02*
Y1203400D01*
X1617350Y1180600D02*
Y1203400D01*
X2963650Y1287400D02*
X2976350D01*
X2963650Y1264600D02*
X2976350D01*
Y1287400D01*
X2963650Y1264600D02*
Y1287400D01*
Y1379400D02*
X2976350D01*
X2963650Y1356600D02*
X2976350D01*
Y1379400D01*
X2963650Y1356600D02*
Y1379400D01*
X1679750Y1421250D02*
X1697250D01*
X1679750Y1451750D02*
X1697250D01*
Y1421250D02*
Y1451750D01*
X1679750Y1421250D02*
Y1451750D01*
X2847500Y1422000D02*
X2952500D01*
X2847500Y1478000D02*
X2952500D01*
X2847500Y1422000D02*
Y1478000D01*
X2952500Y1422000D02*
Y1478000D01*
X2963650Y1311600D02*
X2976350D01*
X2963650Y1334400D02*
X2976350D01*
X2963650Y1311600D02*
Y1334400D01*
X2976350Y1311600D02*
Y1334400D01*
X1817750Y1425950D02*
Y1448050D01*
X1832250Y1425950D02*
Y1448050D01*
X1817750Y1425950D02*
X1832250D01*
X1817750Y1448050D02*
X1832250D01*
X2856000Y1310000D02*
Y1350000D01*
X2944000Y1310000D02*
Y1350000D01*
X2856000Y1310000D02*
X2944000D01*
X2856000Y1350000D02*
X2944000D01*
X1706500Y1154750D02*
Y1242750D01*
X1666500Y1154750D02*
Y1242750D01*
Y1154750D02*
X1706500D01*
X1666500Y1242750D02*
X1706500D01*
D48*
X2337774Y1048000D02*
G03*
X2337774Y1048000I-61774J0D01*
G01*
X2956774Y728000D02*
G03*
X2956774Y728000I-61774J0D01*
G01*
X1437000Y732000D02*
Y787000D01*
X1537000D01*
Y732000D02*
Y787000D01*
X1437000Y732000D02*
X1537000D01*
X1747250Y1500450D02*
X1808950D01*
X1747250Y1602050D02*
X1808950D01*
X1863750Y1336000D02*
X2068250D01*
Y1337000D02*
Y1591000D01*
X1863250Y1337000D02*
Y1591000D01*
X1863750D02*
X2068250D01*
X2372000Y647300D02*
Y672700D01*
Y647300D02*
X2529500D01*
Y672700D01*
X2372000D02*
X2529500D01*
X1505200Y940000D02*
X1530600D01*
X1517900Y927300D02*
Y952700D01*
X1405000Y843800D02*
Y953000D01*
Y843800D02*
X1503000D01*
Y953000D01*
X1405000D02*
X1503000D01*
X2429000Y1441000D02*
Y1506000D01*
Y1330000D02*
Y1413000D01*
X2428000Y1583000D02*
Y1613000D01*
X2146000Y1612000D02*
X2147000Y1613000D01*
X2146000Y1583000D02*
Y1612000D01*
X2147000Y1331000D02*
Y1533000D01*
Y1613000D02*
X2428000D01*
X2800000Y640000D02*
Y1600000D01*
Y828000D02*
X2999000D01*
X2321000Y988000D02*
Y993078D01*
Y990539D01*
X2305765D01*
X2308304Y988000D01*
X2835000Y683000D02*
X2840078D01*
X2837539D01*
Y698235D01*
X2835000Y695696D01*
X3000000Y632540D02*
Y1680540D01*
X1400000Y1633810D02*
Y1680540D01*
X2258107Y1678000D02*
X3000000D01*
X1400000D02*
X2166186D01*
X2984760Y1683080D02*
X3000000Y1678000D01*
X2984760Y1672920D02*
X3000000Y1678000D01*
X1400000D02*
X1415240Y1672920D01*
X1400000Y1678000D02*
X1415240Y1683080D01*
X2803810Y1630000D02*
X3109790D01*
X2803810Y630000D02*
X3109790D01*
X3107250Y1171896D02*
Y1630000D01*
Y630000D02*
Y1079976D01*
X3102170Y1614760D02*
X3107250Y1630000D01*
X3112330Y1614760D01*
X3107250Y630000D02*
X3112330Y645240D01*
X3102170D02*
X3107250Y630000D01*
X2800000D02*
X3000000D01*
Y1630000D01*
X2800000D02*
X3000000D01*
X1400000Y630000D02*
Y1630000D01*
Y630000D02*
X2800000D01*
Y1630000D01*
X1400000D02*
X2800000D01*
D49*
X2170250Y1677750D02*
X2175328D01*
X2172789D01*
Y1692985D01*
X2170250Y1690446D01*
X2193103Y1692985D02*
X2188024Y1690446D01*
X2182946Y1685367D01*
Y1680289D01*
X2185485Y1677750D01*
X2190563D01*
X2193103Y1680289D01*
Y1682828D01*
X2190563Y1685367D01*
X2182946D01*
X2198181Y1690446D02*
X2200720Y1692985D01*
X2205798D01*
X2208338Y1690446D01*
Y1680289D01*
X2205798Y1677750D01*
X2200720D01*
X2198181Y1680289D01*
Y1690446D01*
X2215955Y1675211D02*
X2218494Y1677750D01*
Y1680289D01*
X2215955D01*
Y1677750D01*
X2218494D01*
X2215955Y1675211D01*
X2213416Y1672672D01*
X2228651Y1690446D02*
X2231190Y1692985D01*
X2236269D01*
X2238808Y1690446D01*
Y1680289D01*
X2236269Y1677750D01*
X2231190D01*
X2228651Y1680289D01*
Y1690446D01*
X2243886D02*
X2246425Y1692985D01*
X2251504D01*
X2254043Y1690446D01*
Y1680289D01*
X2251504Y1677750D01*
X2246425D01*
X2243886Y1680289D01*
Y1690446D01*
X3118931Y1084040D02*
Y1089118D01*
Y1086579D01*
X3103696D01*
X3106235Y1084040D01*
Y1096735D02*
X3103696Y1099275D01*
Y1104353D01*
X3106235Y1106892D01*
X3116392D01*
X3118931Y1104353D01*
Y1099275D01*
X3116392Y1096735D01*
X3106235D01*
Y1111971D02*
X3103696Y1114510D01*
Y1119588D01*
X3106235Y1122127D01*
X3116392D01*
X3118931Y1119588D01*
Y1114510D01*
X3116392Y1111971D01*
X3106235D01*
X3121470Y1129745D02*
X3118931Y1132284D01*
X3116392D01*
Y1129745D01*
X3118931D01*
Y1132284D01*
X3121470Y1129745D01*
X3124009Y1127206D01*
X3106235Y1142441D02*
X3103696Y1144980D01*
Y1150058D01*
X3106235Y1152597D01*
X3116392D01*
X3118931Y1150058D01*
Y1144980D01*
X3116392Y1142441D01*
X3106235D01*
Y1157676D02*
X3103696Y1160215D01*
Y1165293D01*
X3106235Y1167832D01*
X3116392D01*
X3118931Y1165293D01*
Y1160215D01*
X3116392Y1157676D01*
X3106235D01*
D50*
X1585000Y847561D02*
D03*
D51*
X1728409Y665000D02*
D03*
D70*
X1958450Y1563500D02*
G03*
X1970950Y1563500I6250J0D01*
G01*
X1899100D02*
X1958450D01*
X1970950D02*
X2030300D01*
Y1363500D02*
Y1563500D01*
X1899100Y1363500D02*
X2030300D01*
X1899100D02*
Y1563500D01*
X2821000Y1363500D02*
Y1364500D01*
X2833000Y1363500D02*
Y1364500D01*
X2837000Y1441500D02*
Y1442500D01*
X2817000Y1441500D02*
Y1442500D01*
Y1322500D02*
Y1323500D01*
X2837000Y1322500D02*
Y1323500D01*
X2833000Y1401500D02*
Y1402500D01*
X2821000Y1401500D02*
Y1402500D01*
X1602500Y786000D02*
Y852000D01*
X1567500Y786000D02*
Y852000D01*
X1601250D02*
X1602500D01*
X1601250Y786000D02*
X1602500D01*
X1567500Y852000D02*
X1568750D01*
X1567500Y786000D02*
X1568750D01*
X1796500Y642000D02*
Y643250D01*
X1723500Y642000D02*
Y643250D01*
X1796500Y686750D02*
Y688000D01*
X1723500Y686750D02*
Y688000D01*
Y642000D02*
X1796500D01*
X1723500Y688000D02*
X1796500D01*
X2698500Y1280000D02*
X2699500D01*
X2698500Y1268000D02*
X2699500D01*
X2698500Y1302000D02*
X2699500D01*
X2698500Y1314000D02*
X2699500D01*
Y1346000D02*
X2700500D01*
X2699500Y1334000D02*
X2700500D01*
Y1366000D02*
X2701500D01*
X2700500Y1378000D02*
X2701500D01*
X1784000Y728000D02*
Y732750D01*
X1738000Y728000D02*
Y732750D01*
X1784000Y763250D02*
Y768000D01*
X1738000Y763250D02*
Y768000D01*
Y728000D02*
X1784000D01*
X1738000Y768000D02*
X1784000D01*
X1696000Y956500D02*
Y957500D01*
X1708000Y956500D02*
Y957500D01*
X1963000Y977500D02*
Y978500D01*
X1975000Y977500D02*
Y978500D01*
X1626500Y876500D02*
Y907500D01*
X1751500Y876500D02*
Y907500D01*
X1626500Y782500D02*
Y813500D01*
X1751500Y782500D02*
Y813500D01*
X1626500Y907500D02*
X1751500D01*
X1626500Y782500D02*
X1751500D01*
X2106500Y774000D02*
X2107500D01*
X2106500Y754000D02*
X2107500D01*
X2459000Y1192500D02*
Y1193500D01*
X2439000Y1192500D02*
Y1193500D01*
X1932500Y1060500D02*
X1933500D01*
X1932500Y1080500D02*
X1933500D01*
X1932500Y1055000D02*
X1933500D01*
X1932500Y1035000D02*
X1933500D01*
X2007000Y1230500D02*
Y1231500D01*
X1987000Y1230500D02*
Y1231500D01*
X2461000Y1287500D02*
Y1288500D01*
X2441000Y1287500D02*
Y1288500D01*
X2179500Y811000D02*
X2180500D01*
X2179500Y791000D02*
X2180500D01*
X2461000Y1377500D02*
Y1378500D01*
X2441000Y1377500D02*
Y1378500D01*
X2652500Y1284000D02*
X2653500D01*
X2652500Y1264000D02*
X2653500D01*
X2652500Y1297000D02*
X2653500D01*
X2652500Y1317000D02*
X2653500D01*
Y1349000D02*
X2654500D01*
X2653500Y1329000D02*
X2654500D01*
X1979000Y1025500D02*
Y1026500D01*
X1959000Y1025500D02*
Y1026500D01*
X2654500Y1381000D02*
X2655500D01*
X2654500Y1361000D02*
X2655500D01*
X2114000Y971500D02*
Y972500D01*
X2094000Y971500D02*
Y972500D01*
X1684000Y942500D02*
Y943500D01*
X1664000Y942500D02*
Y943500D01*
X1621000Y743500D02*
Y744500D01*
X1601000Y743500D02*
Y744500D01*
X1647000Y743500D02*
Y744500D01*
X1627000Y743500D02*
Y744500D01*
X1676500Y666000D02*
X1677500D01*
X1676500Y686000D02*
X1677500D01*
X2012000Y1043000D02*
X2144000D01*
X2012000Y1175000D02*
X2144000D01*
Y1043000D02*
Y1175000D01*
X2012000Y1043000D02*
Y1175000D01*
X2520000Y786000D02*
X2523000Y789000D01*
X2401000Y790000D02*
X2405000Y786000D01*
X2401000Y947000D02*
X2403000Y949000D01*
X2518000D02*
X2521000D01*
X2523000Y947000D01*
X1706000Y711000D02*
Y743000D01*
X1656000Y711000D02*
Y743000D01*
X1746000Y920500D02*
Y951500D01*
X1736000Y920500D02*
Y951500D01*
Y920500D02*
X1746000D01*
X1736000Y951500D02*
X1746000D01*
X1535500Y1050000D02*
X1640500D01*
X1535500Y1002000D02*
X1640500D01*
Y1050000D01*
X1535500Y1002000D02*
Y1050000D01*
X2125060Y640000D02*
X2133780D01*
Y744000D01*
X2048690D02*
X2133780D01*
X2048690Y640000D02*
Y744000D01*
Y640000D02*
X2125060D01*
X2170690D02*
X2247060D01*
X2170690D02*
Y744000D01*
X2255780D01*
Y640000D02*
Y744000D01*
X2247060Y640000D02*
X2255780D01*
X2492170Y1150040D02*
Y1158760D01*
Y1150040D02*
X2596170D01*
Y1235130D01*
X2492170D02*
X2596170D01*
X2492170Y1158760D02*
Y1235130D01*
X2493170Y1252010D02*
Y1328380D01*
X2597170D01*
Y1243290D02*
Y1328380D01*
X2493170Y1243290D02*
X2597170D01*
X2493170D02*
Y1252010D01*
X2493000Y1336220D02*
Y1344940D01*
Y1336220D02*
X2597000D01*
Y1421310D01*
X2493000D02*
X2597000D01*
X2493000Y1344940D02*
Y1421310D01*
X1883750Y1079500D02*
X1900000D01*
X1883750Y965500D02*
X1900000D01*
X1853000Y1079500D02*
X1869250D01*
X1853000Y965500D02*
X1869250D01*
X1900000D02*
Y1079500D01*
X1853000Y965500D02*
Y1079500D01*
X1520000Y970000D02*
Y1081000D01*
X1408000Y970000D02*
X1520000D01*
X1408000D02*
Y1090000D01*
X1511000D01*
X1520000Y1081000D01*
X1957500Y1144250D02*
Y1144750D01*
X1877500Y1144250D02*
Y1144750D01*
X2049500Y773000D02*
X2050500D01*
X2049500Y753000D02*
X2050500D01*
X1695000Y1251750D02*
X1696000D01*
X1695000Y1271750D02*
X1696000D01*
X2863000Y1256500D02*
Y1257500D01*
X2883000Y1256500D02*
Y1257500D01*
X1601000Y1191500D02*
Y1192500D01*
X1621000Y1191500D02*
Y1192500D01*
X2980000Y1275500D02*
Y1276500D01*
X2960000Y1275500D02*
Y1276500D01*
X2980000Y1367500D02*
Y1368500D01*
X2960000Y1367500D02*
Y1368500D01*
X1693500Y1421000D02*
Y1452000D01*
X1683500Y1421000D02*
Y1452000D01*
Y1421000D02*
X1693500D01*
X1683500Y1452000D02*
X1693500D01*
X2847500Y1426000D02*
X2952500D01*
X2847500Y1474000D02*
X2952500D01*
X2847500Y1426000D02*
Y1474000D01*
X2952500Y1426000D02*
Y1474000D01*
X2840000Y1515000D02*
X2951000D01*
X2840000D02*
Y1627000D01*
X2960000D01*
Y1524000D02*
Y1627000D01*
X2951000Y1515000D02*
X2960000Y1524000D01*
Y1322500D02*
Y1323500D01*
X2980000Y1322500D02*
Y1323500D01*
X2982500Y1065550D02*
Y1106000D01*
X2827500Y1232550D02*
X2982500D01*
Y1176360D02*
Y1232550D01*
X2827500Y1176360D02*
Y1232550D01*
Y1065550D02*
Y1105000D01*
Y1065550D02*
X2982500D01*
X1404050Y1123250D02*
Y1278250D01*
X1443500D01*
X1514860D02*
X1571050D01*
X1514860Y1123250D02*
X1571050D01*
Y1278250D01*
X1404050Y1123250D02*
X1444500D01*
X2856000Y1314000D02*
Y1346000D01*
X2944000Y1314000D02*
Y1346000D01*
X2856000Y1314000D02*
X2944000D01*
X2856000Y1346000D02*
X2944000D01*
X1702500Y1154750D02*
Y1242750D01*
X1670500Y1154750D02*
Y1242750D01*
Y1154750D02*
X1702500D01*
X1670500Y1242750D02*
X1702500D01*
D71*
X2025000Y1165000D02*
G03*
X2025000Y1165000I-3000J0D01*
G01*
X1633500Y1040000D02*
G03*
X1633500Y1040000I-3000J0D01*
G01*
X2860500Y1436000D02*
G03*
X2860500Y1436000I-3000J0D01*
G01*
X2937000Y1336000D02*
G03*
X2937000Y1336000I-3000J0D01*
G01*
X1695500Y1164750D02*
G03*
X1695500Y1164750I-3000J0D01*
G01*
M02*
