G04 Layer_Color=8388736*
%FSLAX44Y44*%
%MOMM*%
G71*
G01*
G75*
%ADD66C,0.1000*%
%ADD67C,0.2000*%
D66*
X1420000Y1647997D02*
Y1640000D01*
X1423999D01*
X1425332Y1641333D01*
Y1642666D01*
X1423999Y1643999D01*
X1420000D01*
X1423999D01*
X1425332Y1645332D01*
Y1646664D01*
X1423999Y1647997D01*
X1420000D01*
X1431996D02*
X1429330D01*
X1427997Y1646664D01*
Y1641333D01*
X1429330Y1640000D01*
X1431996D01*
X1433329Y1641333D01*
Y1646664D01*
X1431996Y1647997D01*
X1435995D02*
X1441326D01*
X1438661D01*
Y1640000D01*
X1443992Y1647997D02*
X1449324D01*
X1446658D01*
Y1640000D01*
X1455988Y1647997D02*
X1453323D01*
X1451990Y1646664D01*
Y1641333D01*
X1453323Y1640000D01*
X1455988D01*
X1457321Y1641333D01*
Y1646664D01*
X1455988Y1647997D01*
X1459987Y1640000D02*
Y1647997D01*
X1462653Y1645332D01*
X1465319Y1647997D01*
Y1640000D01*
X1475982D02*
Y1645332D01*
X1478648Y1647997D01*
X1481313Y1645332D01*
Y1640000D01*
Y1643999D01*
X1475982D01*
X1489311Y1646664D02*
X1487978Y1647997D01*
X1485312D01*
X1483979Y1646664D01*
Y1645332D01*
X1485312Y1643999D01*
X1487978D01*
X1489311Y1642666D01*
Y1641333D01*
X1487978Y1640000D01*
X1485312D01*
X1483979Y1641333D01*
X1497308Y1646664D02*
X1495975Y1647997D01*
X1493310D01*
X1491977Y1646664D01*
Y1645332D01*
X1493310Y1643999D01*
X1495975D01*
X1497308Y1642666D01*
Y1641333D01*
X1495975Y1640000D01*
X1493310D01*
X1491977Y1641333D01*
X1505306Y1647997D02*
X1499974D01*
Y1640000D01*
X1505306D01*
X1499974Y1643999D02*
X1502640D01*
X1507972Y1640000D02*
Y1647997D01*
X1510637Y1645332D01*
X1513303Y1647997D01*
Y1640000D01*
X1515969Y1647997D02*
Y1640000D01*
X1519968D01*
X1521301Y1641333D01*
Y1642666D01*
X1519968Y1643999D01*
X1515969D01*
X1519968D01*
X1521301Y1645332D01*
Y1646664D01*
X1519968Y1647997D01*
X1515969D01*
X1523966D02*
Y1640000D01*
X1529298D01*
X1531964Y1647997D02*
Y1646664D01*
X1534630Y1643999D01*
X1537296Y1646664D01*
Y1647997D01*
X1534630Y1643999D02*
Y1640000D01*
X1552666D02*
X1550000D01*
Y1647997D01*
X1552666D01*
X1556664Y1640000D02*
Y1647997D01*
X1561996Y1640000D01*
Y1647997D01*
X1565995Y1640000D02*
X1568661D01*
X1569994Y1641333D01*
Y1643999D01*
X1568661Y1645332D01*
X1565995D01*
X1564662Y1643999D01*
Y1641333D01*
X1565995Y1640000D01*
X1580657Y1647997D02*
Y1642666D01*
X1583323Y1640000D01*
X1585988Y1642666D01*
Y1647997D01*
X1589987Y1645332D02*
X1592653D01*
X1593986Y1643999D01*
Y1640000D01*
X1589987D01*
X1588654Y1641333D01*
X1589987Y1642666D01*
X1593986D01*
X1596652Y1645332D02*
Y1640000D01*
Y1642666D01*
X1597984Y1643999D01*
X1599317Y1645332D01*
X1600650D01*
X1604649Y1640000D02*
X1607315D01*
X1605982D01*
Y1645332D01*
X1604649D01*
X1612646D02*
X1615312D01*
X1616645Y1643999D01*
Y1640000D01*
X1612646D01*
X1611314Y1641333D01*
X1612646Y1642666D01*
X1616645D01*
X1620644Y1646664D02*
Y1645332D01*
X1619311D01*
X1621977D01*
X1620644D01*
Y1641333D01*
X1621977Y1640000D01*
X1625975D02*
X1628641D01*
X1627308D01*
Y1645332D01*
X1625975D01*
X1633973Y1640000D02*
X1636639D01*
X1637972Y1641333D01*
Y1643999D01*
X1636639Y1645332D01*
X1633973D01*
X1632640Y1643999D01*
Y1641333D01*
X1633973Y1640000D01*
X1640638D02*
Y1645332D01*
X1644636D01*
X1645969Y1643999D01*
Y1640000D01*
X1648635D02*
X1652634D01*
X1653967Y1641333D01*
X1652634Y1642666D01*
X1649968D01*
X1648635Y1643999D01*
X1649968Y1645332D01*
X1653967D01*
X1656632Y1640000D02*
X1659298D01*
Y1647997D01*
X1656632D01*
X2583000Y933000D02*
X2590997D01*
Y936999D01*
X2589665Y938332D01*
X2586999D01*
X2585666Y936999D01*
Y933000D01*
X2583000Y940997D02*
X2588332D01*
X2590997Y943663D01*
X2588332Y946329D01*
X2583000D01*
X2586999D01*
Y940997D01*
X2590997Y948995D02*
Y954326D01*
Y951661D01*
X2583000D01*
X2589665Y962324D02*
X2590997Y960991D01*
Y958325D01*
X2589665Y956992D01*
X2584333D01*
X2583000Y958325D01*
Y960991D01*
X2584333Y962324D01*
X2590997Y964990D02*
X2583000D01*
X2586999D01*
Y970321D01*
X2590997D01*
X2583000D01*
X2581667Y972987D02*
Y978319D01*
X2583000Y980984D02*
X2588332D01*
X2590997Y983650D01*
X2588332Y986316D01*
X2583000D01*
X2586999D01*
Y980984D01*
X2583000Y988982D02*
X2590997D01*
X2583000Y994314D01*
X2590997D01*
Y996979D02*
Y1002311D01*
Y999645D01*
X2583000D01*
X2590997Y1010308D02*
Y1004977D01*
X2583000D01*
Y1010308D01*
X2586999Y1004977D02*
Y1007643D01*
X2583000Y1012974D02*
X2590997D01*
X2583000Y1018306D01*
X2590997D01*
X2583000Y1020972D02*
X2590997D01*
X2583000Y1026303D01*
X2590997D01*
X2583000Y1028969D02*
X2588332D01*
X2590997Y1031635D01*
X2588332Y1034301D01*
X2583000D01*
X2586999D01*
Y1028969D01*
D67*
X1400000Y630000D02*
Y1630000D01*
X2800000D01*
Y630000D02*
Y1630000D01*
X1400000Y630000D02*
X2800000D01*
X2683000Y753000D02*
Y1103000D01*
X2333000D02*
X2683000D01*
X2333000Y753000D02*
Y1103000D01*
Y753000D02*
X2683000D01*
X2398000Y803000D02*
Y1053000D01*
X2648000D01*
Y803000D02*
Y1053000D01*
X2398000Y803000D02*
X2648000D01*
M02*
