G04 Layer_Physical_Order=2*
G04 Layer_Color=16711680*
%FSLAX44Y44*%
%MOMM*%
G71*
G01*
G75*
%ADD39C,0.2500*%
%ADD40C,0.5000*%
%ADD43C,0.4000*%
%ADD47C,0.1000*%
%ADD48C,0.2540*%
%ADD49C,0.1524*%
%ADD50R,3.5000X0.8877*%
%ADD51R,0.9819X4.6000*%
%ADD52C,1.5000*%
%ADD53R,1.5000X1.5000*%
%ADD54R,1.5000X1.5000*%
%ADD55C,2.3000*%
%ADD56C,2.4000*%
%ADD57C,1.0000*%
%ADD58C,1.4000*%
%ADD59C,1.8000*%
%ADD60R,1.8000X1.8000*%
%ADD61R,1.8000X1.8000*%
%ADD62R,1.4000X1.4000*%
%ADD63C,1.7000*%
%ADD64C,3.2000*%
%ADD65C,2.5000*%
%ADD66C,3.8000*%
%ADD67C,1.5000*%
%ADD68R,1.5000X1.5000*%
%ADD69R,1.5000X1.5000*%
G36*
X2990000Y1174054D02*
X2988730Y1173459D01*
X2986039Y1174276D01*
X2984500Y1174427D01*
Y1159000D01*
X2983000D01*
Y1157500D01*
X2967573D01*
X2967724Y1155962D01*
X2968291Y1154094D01*
X2967272Y1153076D01*
X2966855Y1153203D01*
X2962150Y1153666D01*
X2957445Y1153203D01*
X2952921Y1151830D01*
X2948752Y1149602D01*
X2945097Y1146603D01*
X2942098Y1142948D01*
X2939870Y1138779D01*
X2938497Y1134255D01*
X2938034Y1129550D01*
X2938497Y1124845D01*
X2939870Y1120321D01*
X2942098Y1116152D01*
X2945097Y1112497D01*
X2948752Y1109498D01*
X2952921Y1107270D01*
X2957445Y1105897D01*
X2962150Y1105434D01*
X2966855Y1105897D01*
X2971379Y1107270D01*
X2975548Y1109498D01*
X2979203Y1112497D01*
X2982202Y1116152D01*
X2984431Y1120321D01*
X2985803Y1124845D01*
X2986266Y1129550D01*
X2985803Y1134255D01*
X2984431Y1138779D01*
X2982609Y1142187D01*
X2982753Y1142646D01*
X2983368Y1143461D01*
X2986039Y1143724D01*
X2988730Y1144541D01*
X2990000Y1143946D01*
Y1065823D01*
X2989390Y1065743D01*
X2987597Y1065000D01*
X2984403D01*
X2982610Y1065743D01*
X2980000Y1066086D01*
X2977390Y1065743D01*
X2975597Y1065000D01*
X2972403D01*
X2970610Y1065743D01*
X2968000Y1066086D01*
X2965389Y1065743D01*
X2963597Y1065000D01*
X2960403D01*
X2958611Y1065743D01*
X2956000Y1066086D01*
X2953390Y1065743D01*
X2951597Y1065000D01*
X2948403D01*
X2946610Y1065743D01*
X2944000Y1066086D01*
X2941389Y1065743D01*
X2939597Y1065000D01*
X2936403D01*
X2934611Y1065743D01*
X2932000Y1066086D01*
X2929390Y1065743D01*
X2927597Y1065000D01*
X2924403D01*
X2922610Y1065743D01*
X2920000Y1066086D01*
X2917390Y1065743D01*
X2915597Y1065000D01*
X2912403D01*
X2910610Y1065743D01*
X2908000Y1066086D01*
X2905389Y1065743D01*
X2903597Y1065000D01*
X2900403D01*
X2898611Y1065743D01*
X2896000Y1066086D01*
X2893390Y1065743D01*
X2891597Y1065000D01*
X2888403D01*
X2886610Y1065743D01*
X2884000Y1066086D01*
X2881389Y1065743D01*
X2879597Y1065000D01*
X2876403D01*
X2874611Y1065743D01*
X2872000Y1066086D01*
X2869390Y1065743D01*
X2867597Y1065000D01*
X2864403D01*
X2862610Y1065743D01*
X2860000Y1066086D01*
X2857390Y1065743D01*
X2855597Y1065000D01*
X2852403D01*
X2850610Y1065743D01*
X2848000Y1066086D01*
X2845389Y1065743D01*
X2843597Y1065000D01*
X2840403D01*
X2838611Y1065743D01*
X2836000Y1066086D01*
X2833390Y1065743D01*
X2831597Y1065000D01*
X2828403D01*
X2826610Y1065743D01*
X2824000Y1066086D01*
X2821389Y1065743D01*
X2819597Y1065000D01*
X2816403D01*
X2814611Y1065743D01*
X2812000Y1066086D01*
X2810955Y1065949D01*
X2810000Y1066786D01*
Y1067345D01*
X2810086Y1068000D01*
X2810000Y1068655D01*
Y1079345D01*
X2810086Y1080000D01*
X2810000Y1080655D01*
Y1091345D01*
X2810086Y1092000D01*
X2810000Y1092655D01*
Y1103345D01*
X2810086Y1104000D01*
X2810000Y1104655D01*
Y1115345D01*
X2810086Y1116000D01*
X2810000Y1116655D01*
Y1127345D01*
X2810086Y1128000D01*
X2810000Y1128655D01*
Y1139345D01*
X2810086Y1140000D01*
X2810000Y1140655D01*
Y1151345D01*
X2810086Y1152000D01*
X2810000Y1152655D01*
Y1163345D01*
X2810086Y1164000D01*
X2810000Y1164655D01*
Y1175345D01*
X2810086Y1176000D01*
X2810000Y1176655D01*
Y1187345D01*
X2810086Y1188000D01*
X2810000Y1188655D01*
Y1199345D01*
X2810086Y1200000D01*
X2810000Y1200655D01*
Y1211345D01*
X2810086Y1212000D01*
X2810000Y1212655D01*
Y1223345D01*
X2810086Y1224000D01*
X2810000Y1224655D01*
Y1235345D01*
X2810086Y1236000D01*
X2810000Y1236655D01*
Y1247345D01*
X2810086Y1248000D01*
X2810000Y1248655D01*
Y1259345D01*
X2810086Y1260000D01*
X2810000Y1260655D01*
Y1271345D01*
X2810086Y1272000D01*
X2810000Y1272655D01*
Y1283345D01*
X2810086Y1284000D01*
X2810000Y1284655D01*
Y1295345D01*
X2810086Y1296000D01*
X2810000Y1296655D01*
Y1307345D01*
X2810086Y1308000D01*
X2810000Y1308655D01*
Y1319345D01*
X2810086Y1320000D01*
X2810000Y1320655D01*
Y1331345D01*
X2810086Y1332000D01*
X2810000Y1332655D01*
Y1343345D01*
X2810086Y1344000D01*
X2810000Y1344655D01*
Y1355345D01*
X2810086Y1356000D01*
X2810000Y1356655D01*
Y1367345D01*
X2810086Y1368000D01*
X2810000Y1368655D01*
Y1379345D01*
X2810086Y1380000D01*
X2810000Y1380655D01*
Y1391345D01*
X2810086Y1392000D01*
X2810000Y1392655D01*
Y1403345D01*
X2810086Y1404000D01*
X2810000Y1404655D01*
Y1415345D01*
X2810086Y1416000D01*
X2810000Y1416655D01*
Y1427345D01*
X2810086Y1428000D01*
X2810000Y1428655D01*
Y1439345D01*
X2810086Y1440000D01*
X2810000Y1440655D01*
Y1451345D01*
X2810086Y1452000D01*
X2810000Y1452655D01*
Y1463345D01*
X2810086Y1464000D01*
X2810000Y1464655D01*
Y1475345D01*
X2810086Y1476000D01*
X2810000Y1476655D01*
Y1487345D01*
X2810086Y1488000D01*
X2810000Y1488655D01*
Y1499345D01*
X2810086Y1500000D01*
X2810000Y1500655D01*
Y1511345D01*
X2810086Y1512000D01*
X2810000Y1512655D01*
Y1523345D01*
X2810086Y1524000D01*
X2810000Y1524655D01*
Y1535345D01*
X2810086Y1536000D01*
X2810000Y1536655D01*
Y1547345D01*
X2810086Y1548000D01*
X2810000Y1548655D01*
Y1559345D01*
X2810086Y1560000D01*
X2810000Y1560655D01*
Y1571345D01*
X2810086Y1572000D01*
X2810000Y1572655D01*
Y1583345D01*
X2810086Y1584000D01*
X2810000Y1584655D01*
Y1595345D01*
X2810086Y1596000D01*
X2810000Y1596655D01*
Y1607345D01*
X2810086Y1608000D01*
X2810000Y1608655D01*
Y1619345D01*
X2810086Y1620000D01*
X2990000D01*
Y1174054D01*
D02*
G37*
G36*
X2790000Y1619015D02*
Y1608985D01*
X2789804Y1608000D01*
X2790000Y1607015D01*
Y1596985D01*
X2789804Y1596000D01*
X2790000Y1595015D01*
Y1584985D01*
X2789804Y1584000D01*
X2790000Y1583015D01*
Y1572985D01*
X2789804Y1572000D01*
X2790000Y1571015D01*
Y1560985D01*
X2789804Y1560000D01*
X2790000Y1559015D01*
Y1548985D01*
X2789804Y1548000D01*
X2790000Y1547015D01*
Y1536985D01*
X2789804Y1536000D01*
X2790000Y1535015D01*
Y1524985D01*
X2789804Y1524000D01*
X2790000Y1523015D01*
Y1512985D01*
X2789804Y1512000D01*
X2790000Y1511015D01*
Y1500985D01*
X2789804Y1500000D01*
X2790000Y1499015D01*
Y1488985D01*
X2789804Y1488000D01*
X2790000Y1487015D01*
Y1476985D01*
X2789804Y1476000D01*
X2790000Y1475015D01*
Y1464985D01*
X2789804Y1464000D01*
X2790000Y1463015D01*
Y1452985D01*
X2789804Y1452000D01*
X2790000Y1451015D01*
Y1440985D01*
X2789804Y1440000D01*
X2790000Y1439015D01*
Y1428985D01*
X2789804Y1428000D01*
X2790000Y1427015D01*
Y1416985D01*
X2789804Y1416000D01*
X2790000Y1415015D01*
Y1404985D01*
X2789804Y1404000D01*
X2790000Y1403015D01*
Y1392985D01*
X2789804Y1392000D01*
X2790000Y1391015D01*
Y1380985D01*
X2789804Y1380000D01*
X2790000Y1379015D01*
Y1368985D01*
X2789804Y1368000D01*
X2790000Y1367015D01*
Y1356985D01*
X2789804Y1356000D01*
X2790000Y1355015D01*
Y1344985D01*
X2789804Y1344000D01*
X2790000Y1343015D01*
Y1332985D01*
X2789804Y1332000D01*
X2790000Y1331015D01*
Y1320985D01*
X2789804Y1320000D01*
X2790000Y1319015D01*
Y1308985D01*
X2789804Y1308000D01*
X2790000Y1307015D01*
Y1296985D01*
X2789804Y1296000D01*
X2790000Y1295015D01*
Y1284985D01*
X2789804Y1284000D01*
X2790000Y1283015D01*
Y1272985D01*
X2789804Y1272000D01*
X2790000Y1271015D01*
Y1260985D01*
X2789804Y1260000D01*
X2790000Y1259015D01*
Y1248985D01*
X2789804Y1248000D01*
X2790000Y1247015D01*
Y1236985D01*
X2789804Y1236000D01*
X2790000Y1235015D01*
Y1224985D01*
X2789804Y1224000D01*
X2790000Y1223015D01*
Y1212985D01*
X2789804Y1212000D01*
X2790000Y1211015D01*
Y1200985D01*
X2789804Y1200000D01*
X2790000Y1199015D01*
Y1188985D01*
X2789804Y1188000D01*
X2790000Y1187015D01*
Y1176985D01*
X2789804Y1176000D01*
X2790000Y1175015D01*
Y1164985D01*
X2789804Y1164000D01*
X2790000Y1163015D01*
Y1152985D01*
X2789804Y1152000D01*
X2790000Y1151015D01*
Y1140985D01*
X2789804Y1140000D01*
X2790000Y1139015D01*
Y1128985D01*
X2789804Y1128000D01*
X2790000Y1127015D01*
Y1116985D01*
X2789804Y1116000D01*
X2790000Y1115015D01*
Y1104985D01*
X2789804Y1104000D01*
X2790000Y1103015D01*
Y1092985D01*
X2789804Y1092000D01*
X2790000Y1091015D01*
Y1080985D01*
X2789804Y1080000D01*
X2790000Y1079015D01*
Y1068985D01*
X2789804Y1068000D01*
X2790000Y1067015D01*
Y1056985D01*
X2789804Y1056000D01*
X2790000Y1055015D01*
Y1044985D01*
X2789804Y1044000D01*
X2790000Y1043015D01*
Y1032985D01*
X2789804Y1032000D01*
X2790000Y1031015D01*
Y1020985D01*
X2789804Y1020000D01*
X2790000Y1019015D01*
Y1008985D01*
X2789804Y1008000D01*
X2790000Y1007015D01*
Y996985D01*
X2789804Y996000D01*
X2790000Y995015D01*
Y984985D01*
X2789804Y984000D01*
X2790000Y983015D01*
Y972985D01*
X2789804Y972000D01*
X2790000Y971015D01*
Y960985D01*
X2789804Y960000D01*
X2790000Y959015D01*
Y948985D01*
X2789804Y948000D01*
X2790000Y947015D01*
Y936985D01*
X2789804Y936000D01*
X2790000Y935015D01*
Y924985D01*
X2789804Y924000D01*
X2790000Y923015D01*
Y912985D01*
X2789804Y912000D01*
X2790000Y911015D01*
Y900985D01*
X2789804Y900000D01*
X2790000Y899015D01*
Y888985D01*
X2789804Y888000D01*
X2790000Y887015D01*
Y876985D01*
X2789804Y876000D01*
X2790000Y875015D01*
Y864985D01*
X2789804Y864000D01*
X2790000Y863015D01*
Y852985D01*
X2789804Y852000D01*
X2790000Y851015D01*
Y840985D01*
X2789804Y840000D01*
X2790000Y839015D01*
Y828985D01*
X2789804Y828000D01*
X2790000Y827015D01*
Y816985D01*
X2789804Y816000D01*
X2790000Y815015D01*
Y804985D01*
X2789804Y804000D01*
X2790000Y803015D01*
Y792985D01*
X2789804Y792000D01*
X2790000Y791015D01*
Y780985D01*
X2789804Y780000D01*
X2790000Y779015D01*
Y768985D01*
X2789804Y768000D01*
X2790000Y767015D01*
Y756985D01*
X2789804Y756000D01*
X2790000Y755015D01*
Y744985D01*
X2789804Y744000D01*
X2790000Y743015D01*
Y732985D01*
X2789804Y732000D01*
X2790000Y731015D01*
Y720985D01*
X2789804Y720000D01*
X2790000Y719015D01*
Y708985D01*
X2789804Y708000D01*
X2790000Y707015D01*
Y696985D01*
X2789804Y696000D01*
X2790000Y695015D01*
Y684985D01*
X2789804Y684000D01*
X2790000Y683015D01*
Y672985D01*
X2789804Y672000D01*
X2790000Y671015D01*
Y660985D01*
X2789804Y660000D01*
X2790000Y659015D01*
Y648985D01*
X2789804Y648000D01*
X2790000Y647015D01*
Y640000D01*
X2242947D01*
X2242682Y642496D01*
X2246651Y645148D01*
X2249304Y649118D01*
X2249937Y652300D01*
X2238000D01*
X2226063D01*
X2226696Y649118D01*
X2229348Y645148D01*
X2233318Y642496D01*
X2233053Y640000D01*
X2196246D01*
X2195488Y642500D01*
X2197293Y643707D01*
X2200388Y648337D01*
X2201474Y653800D01*
X2200388Y659262D01*
X2197293Y663893D01*
X2192663Y666988D01*
X2187200Y668074D01*
X2181738Y666988D01*
X2177107Y663893D01*
X2174012Y659262D01*
X2172926Y653800D01*
X2174012Y648337D01*
X2177107Y643707D01*
X2178912Y642500D01*
X2178154Y640000D01*
X2125046D01*
X2124288Y642500D01*
X2126093Y643707D01*
X2129188Y648337D01*
X2130274Y653800D01*
X2129188Y659262D01*
X2126093Y663893D01*
X2121463Y666988D01*
X2116000Y668074D01*
X2110538Y666988D01*
X2105907Y663893D01*
X2102812Y659262D01*
X2101726Y653800D01*
X2102812Y648337D01*
X2105907Y643707D01*
X2107712Y642500D01*
X2106954Y640000D01*
X2074246D01*
X2073488Y642500D01*
X2075293Y643707D01*
X2078388Y648337D01*
X2079474Y653800D01*
X2078388Y659262D01*
X2075293Y663893D01*
X2070663Y666988D01*
X2065200Y668074D01*
X2059738Y666988D01*
X2055107Y663893D01*
X2052012Y659262D01*
X2050926Y653800D01*
X2052012Y648337D01*
X2055107Y643707D01*
X2056912Y642500D01*
X2056154Y640000D01*
X1410000D01*
Y1620000D01*
X2789804D01*
X2790000Y1619015D01*
D02*
G37*
%LPC*%
G36*
X2879500Y1575393D02*
Y1566500D01*
X2888393D01*
X2888230Y1567741D01*
X2887172Y1570295D01*
X2885489Y1572489D01*
X2883295Y1574172D01*
X2880741Y1575230D01*
X2879500Y1575393D01*
D02*
G37*
G36*
X2923500Y1575393D02*
Y1566500D01*
X2932393D01*
X2932230Y1567741D01*
X2931172Y1570295D01*
X2929489Y1572489D01*
X2927295Y1574172D01*
X2924741Y1575230D01*
X2923500Y1575393D01*
D02*
G37*
G36*
X2920500Y1575393D02*
X2919259Y1575230D01*
X2916705Y1574172D01*
X2914511Y1572489D01*
X2912828Y1570295D01*
X2911770Y1567741D01*
X2911607Y1566500D01*
X2920500D01*
Y1575393D01*
D02*
G37*
G36*
X2876500Y1575393D02*
X2875259Y1575230D01*
X2872705Y1574172D01*
X2870511Y1572489D01*
X2868828Y1570295D01*
X2867770Y1567741D01*
X2867607Y1566500D01*
X2876500D01*
Y1575393D01*
D02*
G37*
G36*
X2888393Y1563500D02*
X2879500D01*
Y1554607D01*
X2880741Y1554770D01*
X2883295Y1555828D01*
X2885489Y1557511D01*
X2887172Y1559705D01*
X2888230Y1562259D01*
X2888393Y1563500D01*
D02*
G37*
G36*
X2920500D02*
X2911607D01*
X2911770Y1562259D01*
X2912828Y1559705D01*
X2914511Y1557511D01*
X2916705Y1555828D01*
X2919259Y1554770D01*
X2920500Y1554607D01*
Y1563500D01*
D02*
G37*
G36*
X2932393D02*
X2923500D01*
Y1554607D01*
X2924741Y1554770D01*
X2927295Y1555828D01*
X2929489Y1557511D01*
X2931172Y1559705D01*
X2932230Y1562259D01*
X2932393Y1563500D01*
D02*
G37*
G36*
X2876500D02*
X2867607D01*
X2867770Y1562259D01*
X2868828Y1559705D01*
X2870511Y1557511D01*
X2872705Y1555828D01*
X2875259Y1554770D01*
X2876500Y1554607D01*
Y1563500D01*
D02*
G37*
G36*
X2900500Y1508833D02*
X2898842Y1508503D01*
X2897436Y1507564D01*
X2896936Y1507064D01*
X2895997Y1505658D01*
X2895667Y1504000D01*
X2895997Y1502342D01*
X2896936Y1500936D01*
X2898342Y1499997D01*
X2900000Y1499667D01*
X2901658Y1499997D01*
X2903064Y1500936D01*
X2903564Y1501436D01*
X2904503Y1502842D01*
X2904833Y1504500D01*
X2904503Y1506158D01*
X2903564Y1507564D01*
X2902158Y1508503D01*
X2900500Y1508833D01*
D02*
G37*
G36*
X2922997Y1469334D02*
X2921339Y1469004D01*
X2919933Y1468064D01*
X2918994Y1466659D01*
X2918664Y1465000D01*
Y1464003D01*
X2918994Y1462345D01*
X2919933Y1460939D01*
X2921339Y1460000D01*
X2922997Y1459670D01*
X2924655Y1460000D01*
X2926061Y1460939D01*
X2927000Y1462345D01*
X2927330Y1464003D01*
Y1465000D01*
X2927000Y1466659D01*
X2926061Y1468064D01*
X2924655Y1469004D01*
X2922997Y1469334D01*
D02*
G37*
G36*
X2891000Y1394069D02*
X2888912Y1393794D01*
X2886966Y1392988D01*
X2885294Y1391706D01*
X2884012Y1390034D01*
X2883206Y1388088D01*
X2882931Y1386000D01*
X2883157Y1384285D01*
X2878205Y1379333D01*
X2871759D01*
X2870706Y1380706D01*
X2869034Y1381988D01*
X2867088Y1382794D01*
X2865000Y1383069D01*
X2862912Y1382794D01*
X2860966Y1381988D01*
X2859294Y1380706D01*
X2858012Y1379034D01*
X2857206Y1377088D01*
X2856931Y1375000D01*
X2857206Y1372912D01*
X2858012Y1370966D01*
X2859294Y1369294D01*
X2860966Y1368012D01*
X2862912Y1367206D01*
X2865000Y1366931D01*
X2867088Y1367206D01*
X2869034Y1368012D01*
X2870706Y1369294D01*
X2871759Y1370667D01*
X2880000D01*
X2881658Y1370997D01*
X2883064Y1371936D01*
X2889285Y1378157D01*
X2891000Y1377931D01*
X2893088Y1378206D01*
X2895034Y1379012D01*
X2895528Y1379391D01*
X2895753Y1379321D01*
X2896482Y1377762D01*
X2896203Y1377089D01*
X2895928Y1375000D01*
X2896203Y1372912D01*
X2897009Y1370966D01*
X2898291Y1369295D01*
X2899962Y1368013D01*
X2901909Y1367206D01*
X2903997Y1366931D01*
X2906086Y1367206D01*
X2907397Y1367750D01*
X2908647Y1367000D01*
X2908667Y1366968D01*
Y1352798D01*
X2894933Y1339065D01*
X2893994Y1337659D01*
X2893664Y1336001D01*
Y1316003D01*
X2893994Y1314345D01*
X2894933Y1312939D01*
X2940657Y1267215D01*
X2940431Y1265500D01*
X2940706Y1263412D01*
X2941512Y1261466D01*
X2942794Y1259794D01*
X2944466Y1258512D01*
X2946412Y1257706D01*
X2948500Y1257431D01*
X2950588Y1257706D01*
X2952534Y1258512D01*
X2954206Y1259794D01*
X2955488Y1261466D01*
X2956294Y1263412D01*
X2956569Y1265500D01*
X2956294Y1267588D01*
X2955488Y1269535D01*
X2954206Y1271206D01*
X2952534Y1272488D01*
X2950588Y1273294D01*
X2948500Y1273569D01*
X2946785Y1273343D01*
X2902330Y1317798D01*
Y1334206D01*
X2916064Y1347939D01*
X2917003Y1349345D01*
X2917333Y1351004D01*
Y1370000D01*
X2917003Y1371658D01*
X2916064Y1373064D01*
X2911616Y1377513D01*
X2910985Y1379035D01*
X2909702Y1380706D01*
X2908032Y1381989D01*
X2906086Y1382795D01*
X2903997Y1383069D01*
X2901909Y1382795D01*
X2899962Y1381989D01*
X2899469Y1381610D01*
X2899244Y1381680D01*
X2898515Y1383239D01*
X2898794Y1383912D01*
X2899069Y1386000D01*
X2898794Y1388088D01*
X2897988Y1390034D01*
X2896706Y1391706D01*
X2895034Y1392988D01*
X2893088Y1393794D01*
X2891000Y1394069D01*
D02*
G37*
G36*
X2924050Y1231058D02*
X2920787Y1230628D01*
X2917746Y1229369D01*
X2915135Y1227365D01*
X2913131Y1224754D01*
X2912002Y1222027D01*
X2912000Y1222027D01*
X2910700D01*
X2910698Y1222027D01*
X2909569Y1224754D01*
X2907565Y1227365D01*
X2904954Y1229369D01*
X2901913Y1230628D01*
X2898650Y1231058D01*
X2895387Y1230628D01*
X2892346Y1229369D01*
X2889735Y1227365D01*
X2887731Y1224754D01*
X2886602Y1222027D01*
X2886600Y1222027D01*
X2885300D01*
X2885298Y1222027D01*
X2884169Y1224754D01*
X2882165Y1227365D01*
X2879554Y1229369D01*
X2876513Y1230628D01*
X2873250Y1231058D01*
X2869987Y1230628D01*
X2866946Y1229369D01*
X2864335Y1227365D01*
X2862331Y1224754D01*
X2861072Y1221713D01*
X2860642Y1218450D01*
X2861072Y1215187D01*
X2862331Y1212146D01*
X2864335Y1209535D01*
X2866946Y1207531D01*
X2868663Y1206820D01*
X2868411Y1205550D01*
X2848050D01*
Y1180550D01*
X2873050D01*
Y1188211D01*
X2874320Y1188463D01*
X2875031Y1186746D01*
X2877035Y1184135D01*
X2879646Y1182131D01*
X2882687Y1180872D01*
X2885950Y1180442D01*
X2889213Y1180872D01*
X2892254Y1182131D01*
X2894865Y1184135D01*
X2896869Y1186746D01*
X2897998Y1189473D01*
X2898000Y1189473D01*
X2899300D01*
X2899302Y1189473D01*
X2900431Y1186746D01*
X2902435Y1184135D01*
X2905046Y1182131D01*
X2908087Y1180872D01*
X2911350Y1180442D01*
X2914613Y1180872D01*
X2917654Y1182131D01*
X2920265Y1184135D01*
X2922269Y1186746D01*
X2923528Y1189787D01*
X2923958Y1193050D01*
X2923528Y1196313D01*
X2922269Y1199354D01*
X2920265Y1201965D01*
X2917654Y1203969D01*
X2914613Y1205228D01*
X2911350Y1205658D01*
X2908087Y1205228D01*
X2905046Y1203969D01*
X2902435Y1201965D01*
X2900431Y1199354D01*
X2899302Y1196627D01*
X2899300Y1196627D01*
X2898000D01*
X2897998Y1196627D01*
X2896869Y1199354D01*
X2894865Y1201965D01*
X2892254Y1203969D01*
X2889213Y1205228D01*
X2885950Y1205658D01*
X2882687Y1205228D01*
X2879646Y1203969D01*
X2877035Y1201965D01*
X2875031Y1199354D01*
X2874320Y1197637D01*
X2873050Y1197889D01*
Y1204587D01*
X2873213Y1205611D01*
X2874150Y1205961D01*
X2876513Y1206272D01*
X2879554Y1207531D01*
X2882165Y1209535D01*
X2884169Y1212146D01*
X2885298Y1214873D01*
X2885300Y1214873D01*
X2886600D01*
X2886602Y1214873D01*
X2887731Y1212146D01*
X2889735Y1209535D01*
X2892346Y1207531D01*
X2895387Y1206272D01*
X2898650Y1205842D01*
X2901913Y1206272D01*
X2904954Y1207531D01*
X2907565Y1209535D01*
X2909569Y1212146D01*
X2910698Y1214873D01*
X2910700Y1214873D01*
X2912000D01*
X2912002Y1214873D01*
X2913131Y1212146D01*
X2915135Y1209535D01*
X2917746Y1207531D01*
X2920787Y1206272D01*
X2924050Y1205842D01*
X2927313Y1206272D01*
X2930354Y1207531D01*
X2932965Y1209535D01*
X2934969Y1212146D01*
X2936228Y1215187D01*
X2936658Y1218450D01*
X2936228Y1221713D01*
X2934969Y1224754D01*
X2932965Y1227365D01*
X2930354Y1229369D01*
X2927313Y1230628D01*
X2924050Y1231058D01*
D02*
G37*
G36*
X2950950Y1228843D02*
Y1219950D01*
X2959843D01*
X2959680Y1221191D01*
X2958622Y1223745D01*
X2956939Y1225939D01*
X2954745Y1227622D01*
X2952191Y1228680D01*
X2950950Y1228843D01*
D02*
G37*
G36*
X2947950Y1228843D02*
X2946709Y1228680D01*
X2944155Y1227622D01*
X2941961Y1225939D01*
X2940278Y1223745D01*
X2939220Y1221191D01*
X2939057Y1219950D01*
X2947950D01*
Y1228843D01*
D02*
G37*
G36*
X2959843Y1216950D02*
X2950950D01*
Y1208057D01*
X2952191Y1208220D01*
X2954745Y1209278D01*
X2956939Y1210961D01*
X2958622Y1213155D01*
X2959680Y1215709D01*
X2959843Y1216950D01*
D02*
G37*
G36*
X2947950D02*
X2939057D01*
X2939220Y1215709D01*
X2940278Y1213155D01*
X2941961Y1210961D01*
X2944155Y1209278D01*
X2946709Y1208220D01*
X2947950Y1208057D01*
Y1216950D01*
D02*
G37*
G36*
X2938250Y1203443D02*
Y1194550D01*
X2947143D01*
X2946980Y1195791D01*
X2945922Y1198345D01*
X2944239Y1200539D01*
X2942045Y1202222D01*
X2939491Y1203280D01*
X2938250Y1203443D01*
D02*
G37*
G36*
X2935250Y1203443D02*
X2934009Y1203280D01*
X2931455Y1202222D01*
X2929261Y1200539D01*
X2927578Y1198345D01*
X2926520Y1195791D01*
X2926357Y1194550D01*
X2935250D01*
Y1203443D01*
D02*
G37*
G36*
X2947143Y1191550D02*
X2938250D01*
Y1182657D01*
X2939491Y1182820D01*
X2942045Y1183878D01*
X2944239Y1185561D01*
X2945922Y1187755D01*
X2946980Y1190309D01*
X2947143Y1191550D01*
D02*
G37*
G36*
X2935250D02*
X2926357D01*
X2926520Y1190309D01*
X2927578Y1187755D01*
X2929261Y1185561D01*
X2931455Y1183878D01*
X2934009Y1182820D01*
X2935250Y1182657D01*
Y1191550D01*
D02*
G37*
G36*
X2828500Y1174427D02*
Y1160500D01*
X2842427D01*
X2842276Y1162038D01*
X2841389Y1164960D01*
X2839950Y1167653D01*
X2838013Y1170013D01*
X2835653Y1171950D01*
X2832960Y1173389D01*
X2830038Y1174276D01*
X2828500Y1174427D01*
D02*
G37*
G36*
X2825500D02*
X2823961Y1174276D01*
X2821040Y1173389D01*
X2818347Y1171950D01*
X2815987Y1170013D01*
X2814050Y1167653D01*
X2812610Y1164960D01*
X2811724Y1162038D01*
X2811573Y1160500D01*
X2825500D01*
Y1174427D01*
D02*
G37*
G36*
X2981500D02*
X2979962Y1174276D01*
X2977040Y1173389D01*
X2974347Y1171950D01*
X2971987Y1170013D01*
X2970050Y1167653D01*
X2968611Y1164960D01*
X2967724Y1162038D01*
X2967573Y1160500D01*
X2981500D01*
Y1174427D01*
D02*
G37*
G36*
X2842427Y1157500D02*
X2811573D01*
X2811724Y1155962D01*
X2812610Y1153040D01*
X2814050Y1150347D01*
X2815987Y1147987D01*
X2818347Y1146050D01*
X2821040Y1144611D01*
X2823961Y1143724D01*
X2826632Y1143461D01*
X2827247Y1142646D01*
X2827392Y1142187D01*
X2825569Y1138779D01*
X2824197Y1134255D01*
X2823734Y1129550D01*
X2824197Y1124845D01*
X2825569Y1120321D01*
X2827798Y1116152D01*
X2830797Y1112497D01*
X2834452Y1109498D01*
X2838621Y1107270D01*
X2843145Y1105897D01*
X2847850Y1105434D01*
X2852555Y1105897D01*
X2857079Y1107270D01*
X2861248Y1109498D01*
X2864903Y1112497D01*
X2867902Y1116152D01*
X2870130Y1120321D01*
X2871503Y1124845D01*
X2871966Y1129550D01*
X2871503Y1134255D01*
X2870130Y1138779D01*
X2867902Y1142948D01*
X2864903Y1146603D01*
X2861248Y1149602D01*
X2857079Y1151830D01*
X2852555Y1153203D01*
X2847850Y1153666D01*
X2843145Y1153203D01*
X2842728Y1153076D01*
X2841709Y1154094D01*
X2842276Y1155962D01*
X2842427Y1157500D01*
D02*
G37*
G36*
X1811650Y1591646D02*
Y1578150D01*
X1825146D01*
X1824280Y1582503D01*
X1820964Y1587464D01*
X1816003Y1590780D01*
X1811650Y1591646D01*
D02*
G37*
G36*
X1760850D02*
Y1578150D01*
X1774346D01*
X1773480Y1582503D01*
X1770164Y1587464D01*
X1765203Y1590780D01*
X1760850Y1591646D01*
D02*
G37*
G36*
X1808650Y1591646D02*
X1804297Y1590780D01*
X1799336Y1587464D01*
X1796020Y1582503D01*
X1795155Y1578150D01*
X1808650D01*
Y1591646D01*
D02*
G37*
G36*
X1757850D02*
X1753497Y1590780D01*
X1748536Y1587464D01*
X1745220Y1582503D01*
X1744355Y1578150D01*
X1757850D01*
Y1591646D01*
D02*
G37*
G36*
X2759000Y1606411D02*
X2750806Y1604781D01*
X2743860Y1600140D01*
X2739218Y1593194D01*
X2737588Y1585000D01*
X2739218Y1576806D01*
X2743860Y1569860D01*
X2750806Y1565218D01*
X2759000Y1563589D01*
X2767193Y1565218D01*
X2774140Y1569860D01*
X2778781Y1576806D01*
X2780411Y1585000D01*
X2778781Y1593194D01*
X2774140Y1600140D01*
X2767193Y1604781D01*
X2759000Y1606411D01*
D02*
G37*
G36*
X2659000D02*
X2650806Y1604781D01*
X2643860Y1600140D01*
X2639218Y1593194D01*
X2637588Y1585000D01*
X2639218Y1576806D01*
X2643860Y1569860D01*
X2650806Y1565218D01*
X2659000Y1563589D01*
X2667193Y1565218D01*
X2674140Y1569860D01*
X2678781Y1576806D01*
X2680411Y1585000D01*
X2678781Y1593194D01*
X2674140Y1600140D01*
X2667193Y1604781D01*
X2659000Y1606411D01*
D02*
G37*
G36*
X1441000D02*
X1432806Y1604781D01*
X1425860Y1600140D01*
X1421218Y1593194D01*
X1419588Y1585000D01*
X1421218Y1576806D01*
X1425860Y1569860D01*
X1432806Y1565218D01*
X1441000Y1563589D01*
X1449194Y1565218D01*
X1456140Y1569860D01*
X1460781Y1576806D01*
X1462411Y1585000D01*
X1460781Y1593194D01*
X1456140Y1600140D01*
X1449194Y1604781D01*
X1441000Y1606411D01*
D02*
G37*
G36*
X1808650Y1575150D02*
X1795155D01*
X1796020Y1570797D01*
X1799336Y1565836D01*
X1804297Y1562520D01*
X1808650Y1561655D01*
Y1575150D01*
D02*
G37*
G36*
X1757850D02*
X1744355D01*
X1745220Y1570797D01*
X1748536Y1565836D01*
X1753497Y1562520D01*
X1757850Y1561655D01*
Y1575150D01*
D02*
G37*
G36*
X1825146D02*
X1811650D01*
Y1561654D01*
X1816003Y1562520D01*
X1820964Y1565836D01*
X1824280Y1570797D01*
X1825146Y1575150D01*
D02*
G37*
G36*
X1774346D02*
X1760850D01*
Y1561654D01*
X1765203Y1562520D01*
X1770164Y1565836D01*
X1773480Y1570797D01*
X1774346Y1575150D01*
D02*
G37*
G36*
X2428500Y1571937D02*
Y1561500D01*
X2438937D01*
X2438304Y1564682D01*
X2435652Y1568651D01*
X2431682Y1571304D01*
X2428500Y1571937D01*
D02*
G37*
G36*
X2148500Y1571427D02*
Y1561500D01*
X2158427D01*
X2157833Y1564487D01*
X2155291Y1568291D01*
X2151487Y1570833D01*
X2148500Y1571427D01*
D02*
G37*
G36*
X2145500Y1571427D02*
X2142513Y1570833D01*
X2138709Y1568291D01*
X2136167Y1564487D01*
X2135573Y1561500D01*
X2145500D01*
Y1571427D01*
D02*
G37*
G36*
X2425500Y1571937D02*
X2422318Y1571304D01*
X2418349Y1568651D01*
X2415696Y1564682D01*
X2415063Y1561500D01*
X2425500D01*
Y1571937D01*
D02*
G37*
G36*
X2158427Y1558500D02*
X2148500D01*
Y1548573D01*
X2151487Y1549167D01*
X2155291Y1551709D01*
X2157833Y1555513D01*
X2158427Y1558500D01*
D02*
G37*
G36*
X2145500D02*
X2135573D01*
X2136167Y1555513D01*
X2138709Y1551709D01*
X2142513Y1549167D01*
X2145500Y1548573D01*
Y1558500D01*
D02*
G37*
G36*
X2438937D02*
X2428500D01*
Y1548063D01*
X2431682Y1548696D01*
X2435652Y1551349D01*
X2438304Y1555318D01*
X2438937Y1558500D01*
D02*
G37*
G36*
X2425500D02*
X2415063D01*
X2415696Y1555318D01*
X2418349Y1551349D01*
X2422318Y1548696D01*
X2425500Y1548063D01*
Y1558500D01*
D02*
G37*
G36*
X1784750Y1568073D02*
X1778312Y1566793D01*
X1772854Y1563146D01*
X1769207Y1557688D01*
X1767927Y1551250D01*
X1769207Y1544812D01*
X1772854Y1539354D01*
X1778312Y1535707D01*
X1784750Y1534427D01*
X1791188Y1535707D01*
X1796646Y1539354D01*
X1800293Y1544812D01*
X1801573Y1551250D01*
X1800293Y1557688D01*
X1796646Y1563146D01*
X1791188Y1566793D01*
X1784750Y1568073D01*
D02*
G37*
G36*
X1895750Y1563500D02*
X1870750D01*
Y1538500D01*
X1879456D01*
X1879702Y1536000D01*
X1879153Y1535891D01*
X1875680Y1533570D01*
X1873359Y1530097D01*
X1872843Y1527500D01*
X1893657D01*
X1893141Y1530097D01*
X1890820Y1533570D01*
X1887347Y1535891D01*
X1886798Y1536000D01*
X1887044Y1538500D01*
X1895750D01*
Y1563500D01*
D02*
G37*
G36*
X1811650Y1540845D02*
Y1527350D01*
X1825146D01*
X1824280Y1531703D01*
X1820964Y1536664D01*
X1816003Y1539980D01*
X1811650Y1540845D01*
D02*
G37*
G36*
X1760850D02*
Y1527350D01*
X1774346D01*
X1773480Y1531703D01*
X1770164Y1536664D01*
X1765203Y1539980D01*
X1760850Y1540845D01*
D02*
G37*
G36*
X1808650Y1540845D02*
X1804297Y1539980D01*
X1799336Y1536664D01*
X1796020Y1531703D01*
X1795155Y1527350D01*
X1808650D01*
Y1540845D01*
D02*
G37*
G36*
X1757850D02*
X1753497Y1539980D01*
X1748536Y1536664D01*
X1745220Y1531703D01*
X1744355Y1527350D01*
X1757850D01*
Y1540845D01*
D02*
G37*
G36*
X1808650Y1524350D02*
X1795155D01*
X1796020Y1519997D01*
X1799336Y1515036D01*
X1804297Y1511720D01*
X1808650Y1510854D01*
Y1524350D01*
D02*
G37*
G36*
X1757850D02*
X1744355D01*
X1745220Y1519997D01*
X1748536Y1515036D01*
X1753497Y1511720D01*
X1757850Y1510854D01*
Y1524350D01*
D02*
G37*
G36*
X1825146D02*
X1811650D01*
Y1510854D01*
X1816003Y1511720D01*
X1820964Y1515036D01*
X1824280Y1519997D01*
X1825146Y1524350D01*
D02*
G37*
G36*
X1774346D02*
X1760850D01*
Y1510854D01*
X1765203Y1511720D01*
X1770164Y1515036D01*
X1773480Y1519997D01*
X1774346Y1524350D01*
D02*
G37*
G36*
X2583000Y1419074D02*
X2577538Y1417988D01*
X2572906Y1414893D01*
X2569812Y1410262D01*
X2568726Y1404800D01*
X2569812Y1399337D01*
X2572906Y1394707D01*
X2577538Y1391612D01*
X2583000Y1390526D01*
X2588463Y1391612D01*
X2593093Y1394707D01*
X2596188Y1399337D01*
X2597274Y1404800D01*
X2596188Y1410262D01*
X2593093Y1414893D01*
X2588463Y1417988D01*
X2583000Y1419074D01*
D02*
G37*
G36*
X2506800D02*
X2501337Y1417988D01*
X2496707Y1414893D01*
X2493612Y1410262D01*
X2492526Y1404800D01*
X2493612Y1399337D01*
X2496707Y1394707D01*
X2501337Y1391612D01*
X2506800Y1390526D01*
X2512263Y1391612D01*
X2516893Y1394707D01*
X2519988Y1399337D01*
X2521074Y1404800D01*
X2519988Y1410262D01*
X2516893Y1414893D01*
X2512263Y1417988D01*
X2506800Y1419074D01*
D02*
G37*
G36*
X2046150Y1563745D02*
X2041273Y1562775D01*
X2037138Y1560012D01*
X2034375Y1555877D01*
X2033405Y1551000D01*
X2034375Y1546123D01*
X2034532Y1545888D01*
X2017747Y1529103D01*
X2016400Y1525850D01*
Y1306905D01*
X1994377Y1284883D01*
X1993000Y1285157D01*
X1989879Y1284536D01*
X1987232Y1282768D01*
X1985464Y1280121D01*
X1984843Y1277000D01*
X1985464Y1273879D01*
X1987232Y1271232D01*
X1989879Y1269464D01*
X1993000Y1268843D01*
X1996121Y1269464D01*
X1998768Y1271232D01*
X2000522Y1273857D01*
X2000626Y1273877D01*
X2003076Y1273832D01*
X2003464Y1271879D01*
X2005232Y1269232D01*
X2007879Y1267464D01*
X2011000Y1266843D01*
X2014121Y1267464D01*
X2016768Y1269232D01*
X2018536Y1271879D01*
X2019157Y1275000D01*
X2018883Y1276377D01*
X2033253Y1290747D01*
X2034600Y1294000D01*
Y1366480D01*
X2036992Y1367206D01*
X2037138Y1366988D01*
X2041273Y1364225D01*
X2046150Y1363255D01*
X2051027Y1364225D01*
X2055162Y1366988D01*
X2057925Y1371123D01*
X2058895Y1376000D01*
X2057925Y1380877D01*
X2055162Y1385012D01*
X2052070Y1387078D01*
Y1389922D01*
X2055162Y1391988D01*
X2057925Y1396123D01*
X2058895Y1401000D01*
X2057925Y1405877D01*
X2055162Y1410012D01*
X2052070Y1412078D01*
Y1414922D01*
X2055162Y1416988D01*
X2057925Y1421123D01*
X2058895Y1426000D01*
X2057925Y1430877D01*
X2055162Y1435012D01*
X2052070Y1437078D01*
Y1439922D01*
X2055162Y1441988D01*
X2057925Y1446123D01*
X2058895Y1451000D01*
X2057925Y1455877D01*
X2055162Y1460012D01*
X2052070Y1462078D01*
Y1464922D01*
X2055162Y1466988D01*
X2057925Y1471123D01*
X2058895Y1476000D01*
X2057925Y1480877D01*
X2055162Y1485012D01*
X2052070Y1487078D01*
Y1489922D01*
X2055162Y1491988D01*
X2057925Y1496123D01*
X2058895Y1501000D01*
X2057925Y1505877D01*
X2055162Y1510012D01*
X2052070Y1512078D01*
Y1514922D01*
X2055162Y1516988D01*
X2057925Y1521123D01*
X2058895Y1526000D01*
X2057925Y1530877D01*
X2055162Y1535012D01*
X2052070Y1537078D01*
Y1539922D01*
X2055162Y1541988D01*
X2057925Y1546123D01*
X2058895Y1551000D01*
X2057925Y1555877D01*
X2055162Y1560012D01*
X2051027Y1562775D01*
X2046150Y1563745D01*
D02*
G37*
G36*
X2595000Y1366000D02*
X2584500D01*
Y1355500D01*
X2595000D01*
Y1366000D01*
D02*
G37*
G36*
X2508300Y1365937D02*
Y1355500D01*
X2518737D01*
X2518104Y1358682D01*
X2515452Y1362652D01*
X2511482Y1365304D01*
X2508300Y1365937D01*
D02*
G37*
G36*
X2505300D02*
X2502118Y1365304D01*
X2498148Y1362652D01*
X2495496Y1358682D01*
X2494863Y1355500D01*
X2505300D01*
Y1365937D01*
D02*
G37*
G36*
X2581500Y1366000D02*
X2571000D01*
Y1355500D01*
X2581500D01*
Y1366000D01*
D02*
G37*
G36*
X2178000Y1407157D02*
X2174879Y1406536D01*
X2172232Y1404768D01*
X2170464Y1402121D01*
X2169843Y1399000D01*
X2170464Y1395879D01*
X2172232Y1393232D01*
X2174879Y1391464D01*
X2178000Y1390843D01*
X2181121Y1391464D01*
X2183768Y1393232D01*
X2184548Y1394400D01*
X2238094D01*
X2279394Y1353100D01*
X2278359Y1350600D01*
X2274880D01*
X2274768Y1350768D01*
X2272121Y1352536D01*
X2269000Y1353157D01*
X2265879Y1352536D01*
X2263232Y1350768D01*
X2261464Y1348121D01*
X2260843Y1345000D01*
X2261464Y1341879D01*
X2263232Y1339232D01*
X2265879Y1337464D01*
X2269000Y1336843D01*
X2272121Y1337464D01*
X2274768Y1339232D01*
X2276216Y1341400D01*
X2305452D01*
X2306232Y1340232D01*
X2308879Y1338464D01*
X2312000Y1337843D01*
X2315121Y1338464D01*
X2317768Y1340232D01*
X2319536Y1342879D01*
X2320157Y1346000D01*
X2319536Y1349121D01*
X2318167Y1351169D01*
X2319970Y1352972D01*
X2321178Y1352164D01*
X2324300Y1351543D01*
X2327421Y1352164D01*
X2330068Y1353932D01*
X2331836Y1356579D01*
X2332457Y1359700D01*
X2331836Y1362821D01*
X2330068Y1365468D01*
X2327421Y1367236D01*
X2324300Y1367857D01*
X2321178Y1367236D01*
X2318532Y1365468D01*
X2317752Y1364300D01*
X2309700D01*
X2309700Y1364300D01*
X2306447Y1362953D01*
X2306447Y1362953D01*
X2302095Y1358600D01*
X2286906D01*
X2243253Y1402253D01*
X2240000Y1403600D01*
X2184548D01*
X2183768Y1404768D01*
X2181121Y1406536D01*
X2178000Y1407157D01*
D02*
G37*
G36*
X2239000Y1360157D02*
X2235879Y1359536D01*
X2233232Y1357768D01*
X2232243Y1356286D01*
X2229747Y1355253D01*
X2220094Y1345600D01*
X2108000D01*
X2108000Y1345600D01*
X2107934Y1345573D01*
X2105000Y1346157D01*
X2101879Y1345536D01*
X2099232Y1343768D01*
X2098555Y1342755D01*
X2095901Y1343283D01*
X2095536Y1345121D01*
X2093768Y1347768D01*
X2091121Y1349536D01*
X2088000Y1350157D01*
X2084879Y1349536D01*
X2082232Y1347768D01*
X2080464Y1345121D01*
X2079843Y1342000D01*
X2080464Y1338879D01*
X2082232Y1336232D01*
X2083400Y1335452D01*
Y1267907D01*
X2074044Y1258552D01*
X2070999Y1259157D01*
X2067877Y1258537D01*
X2065231Y1256768D01*
X2063463Y1254122D01*
X2062842Y1251001D01*
X2063463Y1247879D01*
X2065231Y1245233D01*
X2067877Y1243465D01*
X2070999Y1242844D01*
X2074120Y1243465D01*
X2076766Y1245233D01*
X2078535Y1247879D01*
X2079069Y1250564D01*
X2091253Y1262749D01*
X2091253Y1262749D01*
X2092600Y1266002D01*
X2092600Y1266002D01*
Y1335452D01*
X2093768Y1336232D01*
X2094444Y1337245D01*
X2097098Y1336717D01*
X2097464Y1334879D01*
X2099232Y1332232D01*
X2101879Y1330464D01*
X2105000Y1329843D01*
X2108121Y1330464D01*
X2110768Y1332232D01*
X2112536Y1334879D01*
X2112838Y1336400D01*
X2222000D01*
X2225253Y1337747D01*
X2225490Y1337984D01*
X2227221Y1337260D01*
X2227876Y1336835D01*
X2228464Y1333879D01*
X2230232Y1331232D01*
X2231400Y1330452D01*
Y1308905D01*
X2224095Y1301600D01*
X2207548D01*
X2206768Y1302768D01*
X2204121Y1304536D01*
X2201000Y1305157D01*
X2197879Y1304536D01*
X2195232Y1302768D01*
X2193464Y1300121D01*
X2192843Y1297000D01*
X2193464Y1293879D01*
X2195232Y1291232D01*
X2197879Y1289464D01*
X2201000Y1288843D01*
X2204121Y1289464D01*
X2206768Y1291232D01*
X2207548Y1292400D01*
X2226000D01*
X2229253Y1293747D01*
X2239253Y1303747D01*
X2239253Y1303747D01*
X2240600Y1307000D01*
Y1330452D01*
X2241768Y1331232D01*
X2243536Y1333879D01*
X2244157Y1337000D01*
X2243536Y1340121D01*
X2242312Y1341953D01*
X2242189Y1343580D01*
X2242925Y1345001D01*
X2244768Y1346232D01*
X2246536Y1348879D01*
X2247157Y1352000D01*
X2246536Y1355121D01*
X2244768Y1357768D01*
X2242121Y1359536D01*
X2239000Y1360157D01*
D02*
G37*
G36*
X2518737Y1352500D02*
X2508300D01*
Y1342063D01*
X2511482Y1342696D01*
X2515452Y1345349D01*
X2518104Y1349318D01*
X2518737Y1352500D01*
D02*
G37*
G36*
X2505300D02*
X2494863D01*
X2495496Y1349318D01*
X2498148Y1345349D01*
X2502118Y1342696D01*
X2505300Y1342063D01*
Y1352500D01*
D02*
G37*
G36*
X2595000D02*
X2584500D01*
Y1342000D01*
X2595000D01*
Y1352500D01*
D02*
G37*
G36*
X2581500D02*
X2571000D01*
Y1342000D01*
X2581500D01*
Y1352500D01*
D02*
G37*
G36*
X1879000Y1353157D02*
X1875879Y1352536D01*
X1873232Y1350768D01*
X1871464Y1348121D01*
X1870843Y1345000D01*
X1871117Y1343623D01*
X1847747Y1320253D01*
X1846400Y1317000D01*
Y1282548D01*
X1845232Y1281768D01*
X1843464Y1279121D01*
X1842843Y1276000D01*
X1843464Y1272879D01*
X1845232Y1270232D01*
X1847879Y1268464D01*
X1851000Y1267843D01*
X1854121Y1268464D01*
X1856768Y1270232D01*
X1858536Y1272879D01*
X1859157Y1276000D01*
X1858536Y1279121D01*
X1856768Y1281768D01*
X1855600Y1282548D01*
Y1315094D01*
X1865987Y1325481D01*
X1868291Y1324250D01*
X1867843Y1322000D01*
X1868117Y1320623D01*
X1865747Y1318253D01*
X1864400Y1315000D01*
Y1277548D01*
X1863232Y1276768D01*
X1861464Y1274121D01*
X1860843Y1271000D01*
X1861464Y1267879D01*
X1863232Y1265232D01*
X1865879Y1263464D01*
X1869000Y1262843D01*
X1872121Y1263464D01*
X1874768Y1265232D01*
X1876536Y1267879D01*
X1877157Y1271000D01*
X1876536Y1274121D01*
X1874768Y1276768D01*
X1873600Y1277548D01*
Y1312023D01*
X1875771Y1313889D01*
X1876000Y1313843D01*
X1879121Y1314464D01*
X1881505Y1316057D01*
X1882613Y1315686D01*
X1883868Y1314876D01*
X1884464Y1311879D01*
X1886232Y1309232D01*
X1887400Y1308452D01*
Y1279548D01*
X1886232Y1278768D01*
X1884464Y1276121D01*
X1883843Y1273000D01*
X1884464Y1269879D01*
X1886232Y1267232D01*
X1888879Y1265464D01*
X1892000Y1264843D01*
X1895121Y1265464D01*
X1897768Y1267232D01*
X1899536Y1269879D01*
X1900157Y1273000D01*
X1899536Y1276121D01*
X1897768Y1278768D01*
X1896600Y1279548D01*
Y1308452D01*
X1897768Y1309232D01*
X1899536Y1311879D01*
X1900157Y1315000D01*
X1899536Y1318121D01*
X1897768Y1320768D01*
X1895121Y1322536D01*
X1892000Y1323157D01*
X1888879Y1322536D01*
X1886496Y1320943D01*
X1885387Y1321314D01*
X1884132Y1322124D01*
X1883536Y1325121D01*
X1881768Y1327768D01*
X1879121Y1329536D01*
X1876000Y1330157D01*
X1873750Y1329709D01*
X1872519Y1332013D01*
X1877623Y1337117D01*
X1879000Y1336843D01*
X1882121Y1337464D01*
X1884768Y1339232D01*
X1886536Y1341879D01*
X1887157Y1345000D01*
X1886536Y1348121D01*
X1884768Y1350768D01*
X1882121Y1352536D01*
X1879000Y1353157D01*
D02*
G37*
G36*
X2583170Y1326144D02*
X2577708Y1325058D01*
X2573076Y1321963D01*
X2569982Y1317332D01*
X2568896Y1311870D01*
X2569982Y1306407D01*
X2573076Y1301777D01*
X2577708Y1298682D01*
X2583170Y1297596D01*
X2588633Y1298682D01*
X2593264Y1301777D01*
X2596358Y1306407D01*
X2597444Y1311870D01*
X2596358Y1317332D01*
X2593264Y1321963D01*
X2588633Y1325058D01*
X2583170Y1326144D01*
D02*
G37*
G36*
X2506970D02*
X2501508Y1325058D01*
X2496877Y1321963D01*
X2493782Y1317332D01*
X2492696Y1311870D01*
X2493782Y1306407D01*
X2496877Y1301777D01*
X2501508Y1298682D01*
X2506970Y1297596D01*
X2512433Y1298682D01*
X2517063Y1301777D01*
X2520158Y1306407D01*
X2521244Y1311870D01*
X2520158Y1317332D01*
X2517063Y1321963D01*
X2512433Y1325058D01*
X2506970Y1326144D01*
D02*
G37*
G36*
X2449000Y1355157D02*
X2445879Y1354536D01*
X2443232Y1352768D01*
X2441464Y1350121D01*
X2440843Y1347000D01*
X2441464Y1343879D01*
X2443232Y1341232D01*
X2443588Y1340995D01*
Y1292412D01*
X2303803D01*
X2302121Y1293536D01*
X2299000Y1294157D01*
X2295879Y1293536D01*
X2293232Y1291768D01*
X2292995Y1291412D01*
X2251000D01*
X2251000Y1291412D01*
X2247173Y1289827D01*
X2159420Y1202073D01*
X2159000Y1202157D01*
X2155879Y1201536D01*
X2153232Y1199768D01*
X2152995Y1199412D01*
X2133000D01*
X2133000Y1199412D01*
X2129173Y1197827D01*
X2129173Y1197827D01*
X2122758Y1191412D01*
X2064242D01*
X2048061Y1207593D01*
X2048407Y1209331D01*
X2047786Y1212453D01*
X2046018Y1215099D01*
X2043371Y1216867D01*
X2040250Y1217488D01*
X2037128Y1216867D01*
X2034482Y1215099D01*
X2032714Y1212453D01*
X2032093Y1209331D01*
X2032714Y1206210D01*
X2034482Y1203564D01*
X2037128Y1201796D01*
X2038904Y1201442D01*
X2058173Y1182173D01*
X2058173Y1182173D01*
X2062000Y1180588D01*
X2062000Y1180588D01*
X2125000D01*
X2125000Y1180588D01*
X2128827Y1182173D01*
X2135242Y1188588D01*
X2152995D01*
X2153232Y1188232D01*
X2155879Y1186464D01*
X2159000Y1185843D01*
X2162121Y1186464D01*
X2164768Y1188232D01*
X2166536Y1190879D01*
X2167157Y1194000D01*
X2167073Y1194420D01*
X2177426Y1204772D01*
X2179545Y1203356D01*
X2179398Y1203002D01*
Y1203001D01*
X2180746Y1199748D01*
X2183998Y1198401D01*
X2187251Y1199748D01*
X2188599Y1203001D01*
Y1203002D01*
X2187251Y1206254D01*
X2183998Y1207602D01*
X2183644Y1207455D01*
X2182228Y1209574D01*
X2253242Y1280588D01*
X2292995D01*
X2293232Y1280232D01*
X2295879Y1278464D01*
X2299000Y1277843D01*
X2302121Y1278464D01*
X2304768Y1280232D01*
X2305674Y1281588D01*
X2443588D01*
Y1262307D01*
X2443464Y1262121D01*
X2442843Y1259000D01*
X2442927Y1258580D01*
X2425673Y1241327D01*
X2424088Y1237500D01*
X2424088Y1237500D01*
Y1188505D01*
X2423732Y1188268D01*
X2421964Y1185621D01*
X2421343Y1182500D01*
X2421964Y1179379D01*
X2423732Y1176732D01*
X2424088Y1176495D01*
Y1094339D01*
X2423232Y1093768D01*
X2421464Y1091121D01*
X2420843Y1088000D01*
X2421464Y1084879D01*
X2423232Y1082232D01*
X2425879Y1080464D01*
X2429000Y1079843D01*
X2432121Y1080464D01*
X2434768Y1082232D01*
X2436536Y1084879D01*
X2437157Y1088000D01*
X2436536Y1091121D01*
X2434912Y1093552D01*
Y1176495D01*
X2435268Y1176732D01*
X2437036Y1179379D01*
X2437657Y1182500D01*
X2437036Y1185621D01*
X2435268Y1188268D01*
X2434912Y1188505D01*
Y1235258D01*
X2450580Y1250927D01*
X2451000Y1250843D01*
X2454121Y1251464D01*
X2456768Y1253232D01*
X2458536Y1255879D01*
X2459157Y1259000D01*
X2458536Y1262121D01*
X2456768Y1264768D01*
X2454412Y1266342D01*
Y1287000D01*
Y1340995D01*
X2454768Y1341232D01*
X2456536Y1343879D01*
X2457157Y1347000D01*
X2456536Y1350121D01*
X2454768Y1352768D01*
X2452121Y1354536D01*
X2449000Y1355157D01*
D02*
G37*
G36*
X1499000Y1294255D02*
Y1280250D01*
X1513005D01*
X1512101Y1284798D01*
X1508675Y1289925D01*
X1503548Y1293351D01*
X1499000Y1294255D01*
D02*
G37*
G36*
X1496000Y1294255D02*
X1491452Y1293351D01*
X1486325Y1289925D01*
X1482899Y1284798D01*
X1482030Y1280430D01*
X1479253Y1279279D01*
X1477414Y1280508D01*
X1468050Y1282370D01*
X1458686Y1280508D01*
X1450747Y1275203D01*
X1445443Y1267264D01*
X1443580Y1257900D01*
X1445443Y1248536D01*
X1450747Y1240597D01*
X1458686Y1235293D01*
X1468050Y1233430D01*
X1477414Y1235293D01*
X1485353Y1240597D01*
X1490658Y1248536D01*
X1492520Y1257900D01*
X1491798Y1261532D01*
X1493924Y1263658D01*
X1496000Y1263245D01*
Y1278750D01*
Y1294255D01*
D02*
G37*
G36*
X1893657Y1524500D02*
X1872843D01*
X1873359Y1521903D01*
X1875680Y1518430D01*
X1879153Y1516109D01*
X1880737Y1515794D01*
Y1513245D01*
X1878373Y1512775D01*
X1874238Y1510012D01*
X1871475Y1505877D01*
X1870505Y1501000D01*
X1871475Y1496123D01*
X1874238Y1491988D01*
X1877330Y1489922D01*
Y1487078D01*
X1874238Y1485012D01*
X1871475Y1480877D01*
X1870505Y1476000D01*
X1871475Y1471123D01*
X1874238Y1466988D01*
X1877330Y1464922D01*
Y1462078D01*
X1874238Y1460012D01*
X1871475Y1455877D01*
X1870505Y1451000D01*
X1871475Y1446123D01*
X1874238Y1441988D01*
X1877330Y1439922D01*
Y1437078D01*
X1874238Y1435012D01*
X1871475Y1430877D01*
X1870505Y1426000D01*
X1871475Y1421123D01*
X1874238Y1416988D01*
X1877330Y1414922D01*
Y1412078D01*
X1874238Y1410012D01*
X1871475Y1405877D01*
X1870505Y1401000D01*
X1871475Y1396123D01*
X1874238Y1391988D01*
X1877330Y1389922D01*
Y1387078D01*
X1874238Y1385012D01*
X1871475Y1380877D01*
X1870505Y1376000D01*
X1871475Y1371123D01*
X1874238Y1366988D01*
X1878373Y1364225D01*
X1883250Y1363255D01*
X1888127Y1364225D01*
X1892262Y1366988D01*
X1895025Y1371123D01*
X1895995Y1376000D01*
X1895025Y1380877D01*
X1892262Y1385012D01*
X1889170Y1387078D01*
Y1389922D01*
X1892262Y1391988D01*
X1895025Y1396123D01*
X1895995Y1401000D01*
X1895025Y1405877D01*
X1892262Y1410012D01*
X1889170Y1412078D01*
Y1414922D01*
X1892262Y1416988D01*
X1895025Y1421123D01*
X1895080Y1421400D01*
X1916095D01*
X1953990Y1383505D01*
X1953167Y1380792D01*
X1951879Y1380536D01*
X1949232Y1378768D01*
X1947464Y1376121D01*
X1946843Y1373000D01*
X1947464Y1369879D01*
X1949232Y1367232D01*
X1951879Y1365464D01*
X1955000Y1364843D01*
X1956377Y1365117D01*
X1960400Y1361095D01*
Y1271738D01*
X1959673Y1271062D01*
X1959232Y1270768D01*
X1959030Y1270464D01*
X1958538Y1270007D01*
X1955831Y1270177D01*
X1954768Y1271768D01*
X1953600Y1272548D01*
Y1351000D01*
X1952253Y1354253D01*
X1952253Y1354253D01*
X1936600Y1369905D01*
Y1372452D01*
X1937768Y1373232D01*
X1939536Y1375879D01*
X1940157Y1379000D01*
X1939536Y1382121D01*
X1937768Y1384768D01*
X1935121Y1386536D01*
X1932000Y1387157D01*
X1928879Y1386536D01*
X1926232Y1384768D01*
X1924464Y1382121D01*
X1923843Y1379000D01*
X1924464Y1375879D01*
X1926232Y1373232D01*
X1927400Y1372452D01*
Y1368000D01*
X1928747Y1364747D01*
X1944400Y1349095D01*
Y1272548D01*
X1943232Y1271768D01*
X1941464Y1269121D01*
X1940843Y1266000D01*
X1941464Y1262879D01*
X1943232Y1260232D01*
X1945879Y1258464D01*
X1949000Y1257843D01*
X1952121Y1258464D01*
X1954768Y1260232D01*
X1955277Y1260995D01*
X1955298Y1261003D01*
X1958169Y1260823D01*
X1959232Y1259232D01*
X1961879Y1257464D01*
X1965000Y1256843D01*
X1967900Y1257420D01*
X1968530Y1257334D01*
X1970400Y1256335D01*
Y1224750D01*
X1971747Y1221497D01*
X2030867Y1162377D01*
X2030593Y1161000D01*
X2031214Y1157879D01*
X2032982Y1155232D01*
X2035629Y1153464D01*
X2038750Y1152843D01*
X2041871Y1153464D01*
X2044518Y1155232D01*
X2046286Y1157879D01*
X2046907Y1161000D01*
X2046286Y1164121D01*
X2044518Y1166768D01*
X2041871Y1168536D01*
X2038750Y1169157D01*
X2037373Y1168883D01*
X1979600Y1226656D01*
Y1369000D01*
X1978253Y1372253D01*
X1921253Y1429253D01*
X1918000Y1430600D01*
X1895080D01*
X1895025Y1430877D01*
X1892262Y1435012D01*
X1889170Y1437078D01*
Y1439922D01*
X1892262Y1441988D01*
X1895025Y1446123D01*
X1895995Y1451000D01*
X1895025Y1455877D01*
X1892262Y1460012D01*
X1889170Y1462078D01*
Y1464922D01*
X1892262Y1466988D01*
X1895025Y1471123D01*
X1895995Y1476000D01*
X1895025Y1480877D01*
X1892262Y1485012D01*
X1889170Y1487078D01*
Y1489922D01*
X1892262Y1491988D01*
X1895025Y1496123D01*
X1895995Y1501000D01*
X1895025Y1505877D01*
X1892262Y1510012D01*
X1888127Y1512775D01*
X1885762Y1513245D01*
Y1515794D01*
X1887347Y1516109D01*
X1890820Y1518430D01*
X1893141Y1521903D01*
X1893657Y1524500D01*
D02*
G37*
G36*
X1513005Y1277250D02*
X1499000D01*
Y1263245D01*
X1503548Y1264149D01*
X1508675Y1267575D01*
X1512101Y1272702D01*
X1513005Y1277250D01*
D02*
G37*
G36*
X2595170Y1273070D02*
X2584670D01*
Y1262570D01*
X2595170D01*
Y1273070D01*
D02*
G37*
G36*
X2508470Y1273007D02*
Y1262570D01*
X2518907D01*
X2518274Y1265752D01*
X2515621Y1269722D01*
X2511652Y1272374D01*
X2508470Y1273007D01*
D02*
G37*
G36*
X2505470Y1273007D02*
X2502288Y1272374D01*
X2498318Y1269722D01*
X2495666Y1265752D01*
X2495033Y1262570D01*
X2505470D01*
Y1273007D01*
D02*
G37*
G36*
X2581670Y1273070D02*
X2571170D01*
Y1262570D01*
X2581670D01*
Y1273070D01*
D02*
G37*
G36*
X2518907Y1259570D02*
X2508470D01*
Y1249133D01*
X2511652Y1249766D01*
X2515621Y1252419D01*
X2518274Y1256388D01*
X2518907Y1259570D01*
D02*
G37*
G36*
X2505470D02*
X2495033D01*
X2495666Y1256388D01*
X2498318Y1252419D01*
X2502288Y1249766D01*
X2505470Y1249133D01*
Y1259570D01*
D02*
G37*
G36*
X2595170D02*
X2584670D01*
Y1249070D01*
X2595170D01*
Y1259570D01*
D02*
G37*
G36*
X2581670D02*
X2571170D01*
Y1249070D01*
X2581670D01*
Y1259570D01*
D02*
G37*
G36*
X2267000Y1231157D02*
X2263879Y1230536D01*
X2261232Y1228768D01*
X2259464Y1226121D01*
X2258843Y1223000D01*
X2259464Y1219879D01*
X2259975Y1219114D01*
X2258472Y1216864D01*
X2257000Y1217157D01*
X2253879Y1216536D01*
X2251232Y1214768D01*
X2249464Y1212121D01*
X2248986Y1209719D01*
X2248667Y1208913D01*
X2246522Y1207854D01*
X2245000Y1208157D01*
X2241879Y1207536D01*
X2239232Y1205768D01*
X2237464Y1203121D01*
X2236843Y1200000D01*
X2237464Y1196879D01*
X2235854Y1194788D01*
X2234000Y1195157D01*
X2230879Y1194536D01*
X2228232Y1192768D01*
X2226464Y1190121D01*
X2225843Y1187000D01*
X2226464Y1183879D01*
X2228232Y1181232D01*
X2230879Y1179464D01*
X2234000Y1178843D01*
X2235377Y1179117D01*
X2262400Y1152094D01*
Y1136537D01*
X2259900Y1136291D01*
X2259536Y1138121D01*
X2257768Y1140768D01*
X2255121Y1142536D01*
X2252000Y1143157D01*
X2248879Y1142536D01*
X2246232Y1140768D01*
X2244464Y1138121D01*
X2243843Y1135000D01*
X2243887Y1134783D01*
X2242301Y1132850D01*
X2221169D01*
X2217916Y1131503D01*
X2217916Y1131503D01*
X2202497Y1116084D01*
X2201150Y1112831D01*
Y1096655D01*
X2197377Y1092883D01*
X2196000Y1093157D01*
X2192879Y1092536D01*
X2190232Y1090768D01*
X2188464Y1088121D01*
X2187843Y1085000D01*
X2188464Y1081879D01*
X2190232Y1079232D01*
X2192879Y1077464D01*
X2196000Y1076843D01*
X2199121Y1077464D01*
X2201768Y1079232D01*
X2203536Y1081879D01*
X2204157Y1085000D01*
X2203883Y1086377D01*
X2209003Y1091497D01*
X2209186Y1091939D01*
X2211578Y1092665D01*
X2211879Y1092464D01*
X2215000Y1091843D01*
X2218121Y1092464D01*
X2220768Y1094232D01*
X2222536Y1096879D01*
X2222639Y1097400D01*
X2244383D01*
X2245508Y1094923D01*
X2245018Y1094037D01*
X2241988Y1092012D01*
X2239225Y1087877D01*
X2238255Y1083000D01*
X2239225Y1078123D01*
X2241988Y1073988D01*
X2246123Y1071225D01*
X2251000Y1070255D01*
X2255877Y1071225D01*
X2260012Y1073988D01*
X2262775Y1078123D01*
X2263445Y1081493D01*
X2265994D01*
X2266509Y1078903D01*
X2268830Y1075430D01*
X2272303Y1073109D01*
X2274900Y1072593D01*
Y1083000D01*
Y1093407D01*
X2272303Y1092891D01*
X2268830Y1090570D01*
X2266509Y1087097D01*
X2265994Y1084507D01*
X2263445D01*
X2262775Y1087877D01*
X2260012Y1092012D01*
X2259099Y1092622D01*
X2258758Y1095531D01*
X2261232Y1096232D01*
X2263879Y1094464D01*
X2267000Y1093843D01*
X2270121Y1094464D01*
X2272768Y1096232D01*
X2274536Y1098878D01*
X2275157Y1102000D01*
X2274864Y1103472D01*
X2277114Y1104975D01*
X2277879Y1104464D01*
X2281000Y1103843D01*
X2284121Y1104464D01*
X2286768Y1106232D01*
X2288536Y1108879D01*
X2289157Y1112000D01*
X2288536Y1115121D01*
X2286768Y1117768D01*
X2285600Y1118548D01*
Y1164000D01*
X2284253Y1167253D01*
X2253708Y1197797D01*
X2254268Y1200549D01*
X2255478Y1201146D01*
X2257000Y1200843D01*
X2258377Y1201117D01*
X2292400Y1167094D01*
Y1129548D01*
X2291232Y1128768D01*
X2289464Y1126121D01*
X2288843Y1123000D01*
X2289464Y1119879D01*
X2291232Y1117232D01*
X2293879Y1115464D01*
X2297000Y1114843D01*
X2300121Y1115464D01*
X2302768Y1117232D01*
X2304536Y1119879D01*
X2305157Y1123000D01*
X2305017Y1123701D01*
X2305957Y1124592D01*
X2307229Y1125394D01*
X2310000Y1124843D01*
X2313121Y1125464D01*
X2315768Y1127232D01*
X2317536Y1129879D01*
X2318157Y1133000D01*
X2317536Y1136121D01*
X2315768Y1138768D01*
X2314600Y1139548D01*
Y1180000D01*
X2313253Y1183253D01*
X2274883Y1221623D01*
X2275157Y1223000D01*
X2274536Y1226121D01*
X2272768Y1228768D01*
X2270121Y1230536D01*
X2267000Y1231157D01*
D02*
G37*
G36*
X2582170Y1232894D02*
X2576707Y1231807D01*
X2572077Y1228713D01*
X2568982Y1224082D01*
X2567896Y1218620D01*
X2568982Y1213157D01*
X2572077Y1208526D01*
X2576707Y1205432D01*
X2582170Y1204346D01*
X2587632Y1205432D01*
X2592263Y1208526D01*
X2595358Y1213157D01*
X2596444Y1218620D01*
X2595358Y1224082D01*
X2592263Y1228713D01*
X2587632Y1231807D01*
X2582170Y1232894D01*
D02*
G37*
G36*
X2505970D02*
X2500508Y1231807D01*
X2495877Y1228713D01*
X2492782Y1224082D01*
X2491696Y1218620D01*
X2492782Y1213157D01*
X2495877Y1208526D01*
X2500508Y1205432D01*
X2505970Y1204346D01*
X2511432Y1205432D01*
X2516063Y1208526D01*
X2519158Y1213157D01*
X2520244Y1218620D01*
X2519158Y1224082D01*
X2516063Y1228713D01*
X2511432Y1231807D01*
X2505970Y1232894D01*
D02*
G37*
G36*
X2594170Y1179820D02*
X2583670D01*
Y1169320D01*
X2594170D01*
Y1179820D01*
D02*
G37*
G36*
X2507470Y1179756D02*
Y1169320D01*
X2517907D01*
X2517274Y1172502D01*
X2514621Y1176471D01*
X2510652Y1179124D01*
X2507470Y1179756D01*
D02*
G37*
G36*
X2504470Y1179756D02*
X2501288Y1179124D01*
X2497319Y1176471D01*
X2494666Y1172502D01*
X2494033Y1169320D01*
X2504470D01*
Y1179756D01*
D02*
G37*
G36*
X2580670Y1179820D02*
X2570170D01*
Y1169320D01*
X2580670D01*
Y1179820D01*
D02*
G37*
G36*
X1541957Y1167500D02*
X1533050D01*
Y1158593D01*
X1535647Y1159109D01*
X1539120Y1161430D01*
X1541441Y1164903D01*
X1541957Y1167500D01*
D02*
G37*
G36*
X1530050D02*
X1521143D01*
X1521659Y1164903D01*
X1523980Y1161430D01*
X1527453Y1159109D01*
X1530050Y1158593D01*
Y1167500D01*
D02*
G37*
G36*
X1544050Y1257700D02*
X1519050D01*
Y1232700D01*
X1523857D01*
X1524615Y1230200D01*
X1522538Y1228812D01*
X1519775Y1224677D01*
X1518805Y1219800D01*
X1519775Y1214923D01*
X1522538Y1210788D01*
X1525979Y1208489D01*
X1526091Y1208115D01*
Y1206085D01*
X1525979Y1205711D01*
X1522538Y1203412D01*
X1519775Y1199277D01*
X1518805Y1194400D01*
X1519775Y1189523D01*
X1522538Y1185388D01*
X1526673Y1182625D01*
X1530043Y1181955D01*
Y1179406D01*
X1527453Y1178891D01*
X1523980Y1176570D01*
X1521659Y1173097D01*
X1521143Y1170500D01*
X1531550D01*
X1541957D01*
X1541441Y1173097D01*
X1539120Y1176570D01*
X1535647Y1178891D01*
X1533057Y1179406D01*
Y1181955D01*
X1536427Y1182625D01*
X1540562Y1185388D01*
X1543325Y1189523D01*
X1544295Y1194400D01*
X1543325Y1199277D01*
X1540562Y1203412D01*
X1537121Y1205711D01*
X1537009Y1206085D01*
Y1208115D01*
X1537121Y1208489D01*
X1540562Y1210788D01*
X1543325Y1214923D01*
X1544295Y1219800D01*
X1543325Y1224677D01*
X1540562Y1228812D01*
X1538485Y1230200D01*
X1539243Y1232700D01*
X1541810D01*
X1544098Y1232509D01*
X1544616Y1230434D01*
X1545175Y1227623D01*
X1547938Y1223488D01*
X1551379Y1221189D01*
X1551491Y1220815D01*
Y1218785D01*
X1551379Y1218411D01*
X1547938Y1216112D01*
X1545175Y1211977D01*
X1544205Y1207100D01*
X1545175Y1202223D01*
X1547938Y1198088D01*
X1551379Y1195789D01*
X1551491Y1195415D01*
Y1193385D01*
X1551379Y1193011D01*
X1547938Y1190712D01*
X1545175Y1186577D01*
X1544205Y1181700D01*
X1545175Y1176823D01*
X1547938Y1172688D01*
X1552073Y1169925D01*
X1555443Y1169255D01*
Y1166706D01*
X1552853Y1166191D01*
X1549380Y1163870D01*
X1547059Y1160397D01*
X1546543Y1157800D01*
X1556950D01*
X1567357D01*
X1566841Y1160397D01*
X1564520Y1163870D01*
X1561047Y1166191D01*
X1558457Y1166706D01*
Y1169255D01*
X1561827Y1169925D01*
X1565962Y1172688D01*
X1568725Y1176823D01*
X1569695Y1181700D01*
X1568725Y1186577D01*
X1565962Y1190712D01*
X1562521Y1193011D01*
X1562409Y1193385D01*
Y1195415D01*
X1562521Y1195789D01*
X1565962Y1198088D01*
X1568725Y1202223D01*
X1569695Y1207100D01*
X1568725Y1211977D01*
X1565962Y1216112D01*
X1562521Y1218411D01*
X1562409Y1218785D01*
Y1220815D01*
X1562521Y1221189D01*
X1565962Y1223488D01*
X1568725Y1227623D01*
X1569695Y1232500D01*
X1568725Y1237377D01*
X1565962Y1241512D01*
X1561827Y1244275D01*
X1556950Y1245245D01*
X1552073Y1244275D01*
X1547938Y1241512D01*
X1546550Y1239435D01*
X1544050Y1240193D01*
Y1257700D01*
D02*
G37*
G36*
X2517907Y1166320D02*
X2507470D01*
Y1155883D01*
X2510652Y1156516D01*
X2514621Y1159168D01*
X2517274Y1163138D01*
X2517907Y1166320D01*
D02*
G37*
G36*
X2504470D02*
X2494033D01*
X2494666Y1163138D01*
X2497319Y1159168D01*
X2501288Y1156516D01*
X2504470Y1155883D01*
Y1166320D01*
D02*
G37*
G36*
X2594170D02*
X2583670D01*
Y1155820D01*
X2594170D01*
Y1166320D01*
D02*
G37*
G36*
X2580670D02*
X2570170D01*
Y1155820D01*
X2580670D01*
Y1166320D01*
D02*
G37*
G36*
X1933500Y1173245D02*
X1928623Y1172275D01*
X1924488Y1169512D01*
X1921725Y1165377D01*
X1920755Y1160500D01*
X1921725Y1155623D01*
X1924488Y1151488D01*
X1928623Y1148725D01*
X1933500Y1147755D01*
X1938377Y1148725D01*
X1942512Y1151488D01*
X1945275Y1155623D01*
X1946245Y1160500D01*
X1945275Y1165377D01*
X1942512Y1169512D01*
X1938377Y1172275D01*
X1933500Y1173245D01*
D02*
G37*
G36*
X1567357Y1154800D02*
X1558450D01*
Y1145893D01*
X1561047Y1146409D01*
X1564520Y1148730D01*
X1566841Y1152203D01*
X1567357Y1154800D01*
D02*
G37*
G36*
X1555450D02*
X1546543D01*
X1547059Y1152203D01*
X1549380Y1148730D01*
X1552853Y1146409D01*
X1555450Y1145893D01*
Y1154800D01*
D02*
G37*
G36*
X2106000Y1162157D02*
X2102879Y1161536D01*
X2100232Y1159768D01*
X2098464Y1157121D01*
X2097843Y1154000D01*
X2098117Y1152623D01*
X2087747Y1142253D01*
X2086400Y1139000D01*
Y1103831D01*
X2083900Y1103073D01*
X2082768Y1104768D01*
X2080121Y1106536D01*
X2077000Y1107157D01*
X2073879Y1106536D01*
X2071232Y1104768D01*
X2070452Y1103600D01*
X2043548D01*
X2042768Y1104768D01*
X2040121Y1106536D01*
X2037000Y1107157D01*
X2033879Y1106536D01*
X2031232Y1104768D01*
X2029464Y1102121D01*
X2028843Y1099000D01*
X2029464Y1095879D01*
X2031232Y1093232D01*
X2033879Y1091464D01*
X2037000Y1090843D01*
X2040121Y1091464D01*
X2042768Y1093232D01*
X2043548Y1094400D01*
X2070452D01*
X2071232Y1093232D01*
X2073879Y1091464D01*
X2077000Y1090843D01*
X2080121Y1091464D01*
X2082768Y1093232D01*
X2083900Y1094927D01*
X2086400Y1094168D01*
Y1064000D01*
X2087747Y1060747D01*
X2154350Y994145D01*
X2152934Y992025D01*
X2152000Y992412D01*
X2140242D01*
X2058827Y1073827D01*
X2055000Y1075412D01*
X2055000Y1075412D01*
X2041000D01*
X2041000Y1075412D01*
X2037173Y1073827D01*
X2037173Y1073827D01*
X2033173Y1069827D01*
X2032599Y1068442D01*
X2029650Y1067855D01*
X2025600Y1071905D01*
Y1108452D01*
X2026768Y1109232D01*
X2028536Y1111879D01*
X2029157Y1115000D01*
X2028536Y1118121D01*
X2026768Y1120768D01*
X2024121Y1122536D01*
X2021000Y1123157D01*
X2017879Y1122536D01*
X2015232Y1120768D01*
X2013464Y1118121D01*
X2012843Y1115000D01*
X2013464Y1111879D01*
X2015232Y1109232D01*
X2016400Y1108452D01*
Y1070000D01*
X2017747Y1066747D01*
X2025322Y1059173D01*
X2025045Y1056959D01*
X2024879Y1056536D01*
X2022232Y1054768D01*
X2020464Y1052121D01*
X2019843Y1049000D01*
X2020464Y1045879D01*
X2022232Y1043232D01*
X2023400Y1042452D01*
Y1035412D01*
X2011000D01*
X2007173Y1033827D01*
X2007173Y1033827D01*
X1983380Y1010033D01*
X1980879Y1009536D01*
X1978232Y1007768D01*
X1976464Y1005121D01*
X1975967Y1002620D01*
X1966173Y992827D01*
X1964588Y989000D01*
X1964588Y989000D01*
Y958673D01*
X1963232Y957768D01*
X1961464Y955121D01*
X1960843Y952000D01*
X1961176Y950327D01*
X1959482Y948413D01*
X1816454D01*
X1816000Y948602D01*
X1815546Y948413D01*
X1775005D01*
X1774767Y948769D01*
X1772121Y950537D01*
X1768999Y951158D01*
X1765878Y950537D01*
X1763232Y948769D01*
X1761463Y946123D01*
X1760843Y943001D01*
X1761463Y939880D01*
X1763232Y937234D01*
X1765878Y935466D01*
X1768999Y934845D01*
X1772121Y935466D01*
X1774767Y937234D01*
X1775005Y937589D01*
X1962001D01*
X1962001Y937589D01*
X1965828Y939174D01*
X1970869Y944215D01*
X1972121Y944464D01*
X1974768Y946232D01*
X1976536Y948879D01*
X1977157Y952000D01*
X1976536Y955121D01*
X1975412Y956803D01*
Y986758D01*
X1982746Y994093D01*
X1984000Y993843D01*
X1987121Y994464D01*
X1989768Y996232D01*
X1991536Y998879D01*
X1992157Y1002000D01*
X1991907Y1003254D01*
X2013242Y1024588D01*
X2038000D01*
X2038000Y1024588D01*
X2039900Y1025375D01*
X2042400Y1023705D01*
Y991000D01*
X2043747Y987747D01*
X2053400Y978094D01*
Y878082D01*
X2054747Y874829D01*
X2072650Y856926D01*
Y840155D01*
X2043068Y810573D01*
X2042879Y810536D01*
X2040232Y808768D01*
X2038464Y806121D01*
X2037843Y803000D01*
X2038464Y799879D01*
X2040232Y797232D01*
X2042879Y795464D01*
X2046000Y794843D01*
X2049121Y795464D01*
X2051768Y797232D01*
X2053536Y799879D01*
X2054157Y803000D01*
X2053536Y806121D01*
X2052771Y807266D01*
X2080503Y834997D01*
X2080503Y834997D01*
X2081850Y838250D01*
X2081850Y838250D01*
Y858831D01*
X2080503Y862084D01*
X2062600Y879987D01*
Y980000D01*
X2062600Y980000D01*
X2061253Y983253D01*
X2051600Y992906D01*
Y1048452D01*
X2052768Y1049232D01*
X2054536Y1051879D01*
X2055157Y1055000D01*
X2054536Y1058121D01*
X2052768Y1060768D01*
X2053346Y1063388D01*
X2053836Y1063511D01*
X2134173Y983173D01*
X2134173Y983173D01*
X2138000Y981588D01*
X2138000Y981588D01*
X2146588D01*
Y955005D01*
X2146232Y954768D01*
X2144464Y952121D01*
X2143843Y949000D01*
X2144464Y945879D01*
X2146232Y943232D01*
X2146588Y942995D01*
Y822242D01*
X2145173Y820827D01*
X2143588Y817000D01*
X2143588Y817000D01*
Y811005D01*
X2143232Y810768D01*
X2141464Y808121D01*
X2140843Y805000D01*
X2141464Y801879D01*
X2143232Y799232D01*
X2145879Y797464D01*
X2149000Y796843D01*
X2152121Y797464D01*
X2154768Y799232D01*
X2155005Y799588D01*
X2160758D01*
X2163173Y797173D01*
X2163173Y797173D01*
X2167000Y795588D01*
X2222588D01*
Y777803D01*
X2221464Y776121D01*
X2220843Y773000D01*
X2221464Y769879D01*
X2223232Y767232D01*
X2225879Y765464D01*
X2229000Y764843D01*
X2232121Y765464D01*
X2234768Y767232D01*
X2236536Y769879D01*
X2237157Y773000D01*
X2236536Y776121D01*
X2234768Y778768D01*
X2233412Y779673D01*
Y795588D01*
X2264995D01*
X2265232Y795232D01*
X2267879Y793464D01*
X2271000Y792843D01*
X2274121Y793464D01*
X2276768Y795232D01*
X2278536Y797879D01*
X2279157Y801000D01*
X2278536Y804121D01*
X2276768Y806768D01*
X2274121Y808536D01*
X2271000Y809157D01*
X2267879Y808536D01*
X2265232Y806768D01*
X2264995Y806412D01*
X2169242D01*
X2166827Y808827D01*
X2163000Y810412D01*
X2163000Y810412D01*
X2155005D01*
X2154768Y810768D01*
X2154412Y811005D01*
Y814758D01*
X2155827Y816173D01*
X2155827Y816173D01*
X2157412Y820000D01*
X2157412Y820000D01*
Y942995D01*
X2157768Y943232D01*
X2159536Y945879D01*
X2160157Y949000D01*
X2159536Y952121D01*
X2157768Y954768D01*
X2157412Y955005D01*
Y987000D01*
X2157025Y987934D01*
X2159145Y989350D01*
X2162400Y986095D01*
Y966000D01*
X2163747Y962747D01*
X2191454Y935040D01*
X2191231Y932769D01*
X2189463Y930123D01*
X2188842Y927001D01*
X2189463Y923880D01*
X2191231Y921234D01*
X2193877Y919466D01*
X2196998Y918845D01*
X2200120Y919466D01*
X2202766Y921234D01*
X2204534Y923880D01*
X2205155Y927001D01*
X2204534Y930123D01*
X2202766Y932769D01*
X2202600Y932880D01*
Y935000D01*
X2201253Y938253D01*
X2201253Y938253D01*
X2171600Y967906D01*
Y982628D01*
X2173910Y983585D01*
X2199117Y958377D01*
X2198843Y957000D01*
X2199464Y953879D01*
X2201232Y951232D01*
X2203879Y949464D01*
X2207000Y948843D01*
X2210121Y949464D01*
X2212768Y951232D01*
X2214536Y953879D01*
X2215157Y957000D01*
X2214536Y960121D01*
X2212768Y962768D01*
X2210121Y964536D01*
X2207000Y965157D01*
X2205623Y964883D01*
X2103600Y1066906D01*
Y1074628D01*
X2104431Y1075061D01*
X2106100Y1075394D01*
X2210426Y971068D01*
X2210464Y970879D01*
X2212232Y968232D01*
X2214879Y966464D01*
X2218000Y965843D01*
X2221121Y966464D01*
X2223768Y968232D01*
X2224900Y969927D01*
X2227400Y969168D01*
Y951548D01*
X2226232Y950768D01*
X2224464Y948121D01*
X2223843Y945000D01*
X2224464Y941879D01*
X2226232Y939232D01*
X2228879Y937464D01*
X2232000Y936843D01*
X2235121Y937464D01*
X2236900Y938652D01*
X2239400Y937518D01*
Y906548D01*
X2238232Y905768D01*
X2236464Y903121D01*
X2235843Y900000D01*
X2236464Y896879D01*
X2238232Y894232D01*
X2240879Y892464D01*
X2244000Y891843D01*
X2247121Y892464D01*
X2249768Y894232D01*
X2251536Y896879D01*
X2252157Y900000D01*
X2251536Y903121D01*
X2249768Y905768D01*
X2248600Y906548D01*
Y980000D01*
X2247253Y983253D01*
X2247253Y983253D01*
X2142883Y1087623D01*
X2143157Y1089000D01*
X2142536Y1092121D01*
X2140768Y1094768D01*
X2138121Y1096536D01*
X2135000Y1097157D01*
X2132189Y1096598D01*
X2131596Y1096657D01*
X2129140Y1097713D01*
X2127768Y1099768D01*
X2125121Y1101536D01*
X2122000Y1102157D01*
X2118879Y1101536D01*
X2116788Y1103146D01*
X2117157Y1105000D01*
X2116536Y1108121D01*
X2114768Y1110768D01*
X2112121Y1112536D01*
X2109000Y1113157D01*
X2106100Y1112580D01*
X2105470Y1112666D01*
X2103600Y1113665D01*
Y1122094D01*
X2120905Y1139400D01*
X2124452D01*
X2125232Y1138232D01*
X2127879Y1136464D01*
X2131000Y1135843D01*
X2134121Y1136464D01*
X2136768Y1138232D01*
X2138536Y1140879D01*
X2139157Y1144000D01*
X2138536Y1147121D01*
X2136768Y1149768D01*
X2134121Y1151536D01*
X2131000Y1152157D01*
X2127879Y1151536D01*
X2125232Y1149768D01*
X2124452Y1148600D01*
X2119000D01*
X2119000Y1148600D01*
X2115747Y1147253D01*
X2115747Y1147253D01*
X2098100Y1129606D01*
X2095600Y1130641D01*
Y1137094D01*
X2104623Y1146117D01*
X2106000Y1145843D01*
X2109121Y1146464D01*
X2111768Y1148232D01*
X2113536Y1150879D01*
X2114157Y1154000D01*
X2113536Y1157121D01*
X2111768Y1159768D01*
X2109121Y1161536D01*
X2106000Y1162157D01*
D02*
G37*
G36*
X1499000Y1138255D02*
Y1124250D01*
X1513005D01*
X1512101Y1128798D01*
X1508675Y1133925D01*
X1503548Y1137351D01*
X1499000Y1138255D01*
D02*
G37*
G36*
X1602110Y1169445D02*
X1597233Y1168475D01*
X1593098Y1165712D01*
X1590335Y1161577D01*
X1589365Y1156700D01*
X1590335Y1151823D01*
X1593098Y1147688D01*
X1596539Y1145389D01*
X1596651Y1145015D01*
Y1142985D01*
X1596539Y1142611D01*
X1593098Y1140312D01*
X1590335Y1136177D01*
X1589365Y1131300D01*
X1590335Y1126423D01*
X1593098Y1122288D01*
X1597233Y1119525D01*
X1602110Y1118555D01*
X1606987Y1119525D01*
X1611122Y1122288D01*
X1613885Y1126423D01*
X1614855Y1131300D01*
X1613885Y1136177D01*
X1611122Y1140312D01*
X1607681Y1142611D01*
X1607569Y1142985D01*
Y1145015D01*
X1607681Y1145389D01*
X1611122Y1147688D01*
X1613885Y1151823D01*
X1614855Y1156700D01*
X1613885Y1161577D01*
X1611122Y1165712D01*
X1606987Y1168475D01*
X1602110Y1169445D01*
D02*
G37*
G36*
X2037000Y1135157D02*
X2033879Y1134536D01*
X2031232Y1132768D01*
X2029464Y1130121D01*
X2028843Y1127000D01*
X2029464Y1123878D01*
X2031232Y1121232D01*
X2033879Y1119464D01*
X2037000Y1118843D01*
X2040121Y1119464D01*
X2042768Y1121232D01*
X2043548Y1122400D01*
X2067162D01*
X2067464Y1120879D01*
X2069232Y1118232D01*
X2071879Y1116464D01*
X2075000Y1115843D01*
X2078121Y1116464D01*
X2080768Y1118232D01*
X2082536Y1120879D01*
X2083157Y1124000D01*
X2082536Y1127121D01*
X2080768Y1129768D01*
X2078121Y1131536D01*
X2075000Y1132157D01*
X2072065Y1131573D01*
X2072000Y1131600D01*
X2043548D01*
X2042768Y1132768D01*
X2040121Y1134536D01*
X2037000Y1135157D01*
D02*
G37*
G36*
X1934500Y1141245D02*
X1929623Y1140275D01*
X1925488Y1137512D01*
X1922725Y1133377D01*
X1921755Y1128500D01*
X1922725Y1123623D01*
X1925488Y1119488D01*
X1929623Y1116725D01*
X1934500Y1115755D01*
X1939377Y1116725D01*
X1943512Y1119488D01*
X1946275Y1123623D01*
X1947245Y1128500D01*
X1946275Y1133377D01*
X1943512Y1137512D01*
X1939377Y1140275D01*
X1934500Y1141245D01*
D02*
G37*
G36*
X1468050Y1168070D02*
X1458686Y1166208D01*
X1450747Y1160903D01*
X1445443Y1152964D01*
X1443580Y1143600D01*
X1445443Y1134236D01*
X1450747Y1126297D01*
X1458686Y1120993D01*
X1468050Y1119130D01*
X1477414Y1120993D01*
X1479253Y1122221D01*
X1482030Y1121070D01*
X1482899Y1116702D01*
X1486325Y1111575D01*
X1491452Y1108149D01*
X1496000Y1107245D01*
Y1122750D01*
Y1138255D01*
X1493924Y1137842D01*
X1491798Y1139968D01*
X1492520Y1143600D01*
X1490658Y1152964D01*
X1485353Y1160903D01*
X1477414Y1166208D01*
X1468050Y1168070D01*
D02*
G37*
G36*
X1513005Y1121250D02*
X1499000D01*
Y1107245D01*
X1503548Y1108149D01*
X1508675Y1111575D01*
X1512101Y1116702D01*
X1513005Y1121250D01*
D02*
G37*
G36*
X2301800Y1095745D02*
X2296923Y1094775D01*
X2292788Y1092012D01*
X2290025Y1087877D01*
X2289355Y1084507D01*
X2286806D01*
X2286291Y1087097D01*
X2283970Y1090570D01*
X2280497Y1092891D01*
X2277900Y1093407D01*
Y1083000D01*
Y1072593D01*
X2280497Y1073109D01*
X2283970Y1075430D01*
X2286291Y1078903D01*
X2286806Y1081493D01*
X2289355D01*
X2290025Y1078123D01*
X2292788Y1073988D01*
X2296923Y1071225D01*
X2301800Y1070255D01*
X2306677Y1071225D01*
X2310812Y1073988D01*
X2313575Y1078123D01*
X2314545Y1083000D01*
X2313575Y1087877D01*
X2310812Y1092012D01*
X2306677Y1094775D01*
X2301800Y1095745D01*
D02*
G37*
G36*
X1687700Y1077855D02*
X1682823Y1076885D01*
X1678688Y1074122D01*
X1676389Y1070681D01*
X1676015Y1070569D01*
X1673985D01*
X1673611Y1070681D01*
X1671312Y1074122D01*
X1667177Y1076885D01*
X1662300Y1077855D01*
X1657423Y1076885D01*
X1653288Y1074122D01*
X1650525Y1069987D01*
X1649555Y1065110D01*
X1650525Y1060233D01*
X1653288Y1056098D01*
X1657423Y1053335D01*
X1659689Y1052885D01*
Y1050335D01*
X1657423Y1049885D01*
X1653288Y1047122D01*
X1650525Y1042987D01*
X1649555Y1038110D01*
X1650525Y1033233D01*
X1653288Y1029098D01*
X1657423Y1026335D01*
X1662300Y1025365D01*
X1667177Y1026335D01*
X1671312Y1029098D01*
X1673611Y1032539D01*
X1673985Y1032651D01*
X1676015D01*
X1676389Y1032539D01*
X1678688Y1029098D01*
X1682823Y1026335D01*
X1687700Y1025365D01*
X1692577Y1026335D01*
X1696712Y1029098D01*
X1699475Y1033233D01*
X1700445Y1038110D01*
X1699475Y1042987D01*
X1696712Y1047122D01*
X1692577Y1049885D01*
X1690311Y1050335D01*
Y1052885D01*
X1692577Y1053335D01*
X1696712Y1056098D01*
X1699475Y1060233D01*
X1700445Y1065110D01*
X1699475Y1069987D01*
X1696712Y1074122D01*
X1692577Y1076885D01*
X1687700Y1077855D01*
D02*
G37*
G36*
X1471500Y1062407D02*
Y1053500D01*
X1480407D01*
X1479891Y1056097D01*
X1477570Y1059570D01*
X1474097Y1061891D01*
X1471500Y1062407D01*
D02*
G37*
G36*
X1468500D02*
X1465903Y1061891D01*
X1462430Y1059570D01*
X1460109Y1056097D01*
X1459593Y1053500D01*
X1468500D01*
Y1062407D01*
D02*
G37*
G36*
X1480407Y1050500D02*
X1471500D01*
Y1041593D01*
X1474097Y1042109D01*
X1477570Y1044430D01*
X1479891Y1047903D01*
X1480407Y1050500D01*
D02*
G37*
G36*
X1468500D02*
X1459593D01*
X1460109Y1047903D01*
X1462430Y1044430D01*
X1465903Y1042109D01*
X1468500Y1041593D01*
Y1050500D01*
D02*
G37*
G36*
X1876500Y1059745D02*
X1871623Y1058775D01*
X1867488Y1056012D01*
X1864725Y1051877D01*
X1863755Y1047000D01*
X1864725Y1042123D01*
X1867488Y1037988D01*
X1871623Y1035225D01*
X1876500Y1034255D01*
X1881377Y1035225D01*
X1885512Y1037988D01*
X1888275Y1042123D01*
X1889245Y1047000D01*
X1888275Y1051877D01*
X1885512Y1056012D01*
X1881377Y1058775D01*
X1876500Y1059745D01*
D02*
G37*
G36*
X2314300Y1025500D02*
X2289300D01*
Y1014783D01*
X2286800Y1014537D01*
X2286291Y1017097D01*
X2283970Y1020570D01*
X2280497Y1022891D01*
X2277900Y1023407D01*
Y1013000D01*
Y1002593D01*
X2280497Y1003109D01*
X2283970Y1005430D01*
X2286291Y1008903D01*
X2286800Y1011463D01*
X2289300Y1011217D01*
Y1000500D01*
X2314300D01*
Y1025500D01*
D02*
G37*
G36*
X1689200Y1021517D02*
Y1012610D01*
X1698107D01*
X1697591Y1015207D01*
X1695270Y1018680D01*
X1691797Y1021001D01*
X1689200Y1021517D01*
D02*
G37*
G36*
X1686200D02*
X1683603Y1021001D01*
X1680130Y1018680D01*
X1677809Y1015207D01*
X1677293Y1012610D01*
X1686200D01*
Y1021517D01*
D02*
G37*
G36*
X1663800D02*
Y1012610D01*
X1672707D01*
X1672191Y1015207D01*
X1669870Y1018680D01*
X1666397Y1021001D01*
X1663800Y1021517D01*
D02*
G37*
G36*
X1660800D02*
X1658203Y1021001D01*
X1654730Y1018680D01*
X1652409Y1015207D01*
X1651893Y1012610D01*
X1660800D01*
Y1021517D01*
D02*
G37*
G36*
X1471500Y1018407D02*
Y1009500D01*
X1480407D01*
X1479891Y1012097D01*
X1477570Y1015570D01*
X1474097Y1017891D01*
X1471500Y1018407D01*
D02*
G37*
G36*
X1468500D02*
X1465903Y1017891D01*
X1462430Y1015570D01*
X1460109Y1012097D01*
X1459593Y1009500D01*
X1468500D01*
Y1018407D01*
D02*
G37*
G36*
X2251000Y1025745D02*
X2246123Y1024775D01*
X2241988Y1022012D01*
X2239225Y1017877D01*
X2238255Y1013000D01*
X2239225Y1008123D01*
X2241988Y1003988D01*
X2246123Y1001225D01*
X2251000Y1000255D01*
X2255877Y1001225D01*
X2260012Y1003988D01*
X2262775Y1008123D01*
X2263445Y1011493D01*
X2265994D01*
X2266509Y1008903D01*
X2268830Y1005430D01*
X2272303Y1003109D01*
X2274900Y1002593D01*
Y1013000D01*
Y1023407D01*
X2272303Y1022891D01*
X2268830Y1020570D01*
X2266509Y1017097D01*
X2265994Y1014507D01*
X2263445D01*
X2262775Y1017877D01*
X2260012Y1022012D01*
X2255877Y1024775D01*
X2251000Y1025745D01*
D02*
G37*
G36*
X1698107Y1009610D02*
X1689200D01*
Y1000703D01*
X1691797Y1001219D01*
X1695270Y1003540D01*
X1697591Y1007013D01*
X1698107Y1009610D01*
D02*
G37*
G36*
X1686200D02*
X1677293D01*
X1677809Y1007013D01*
X1680130Y1003540D01*
X1683603Y1001219D01*
X1686200Y1000703D01*
Y1009610D01*
D02*
G37*
G36*
X1672707D02*
X1663800D01*
Y1000703D01*
X1666397Y1001219D01*
X1669870Y1003540D01*
X1672191Y1007013D01*
X1672707Y1009610D01*
D02*
G37*
G36*
X1660800D02*
X1651893D01*
X1652409Y1007013D01*
X1654730Y1003540D01*
X1658203Y1001219D01*
X1660800Y1000703D01*
Y1009610D01*
D02*
G37*
G36*
X1480407Y1006500D02*
X1471500D01*
Y997593D01*
X1474097Y998109D01*
X1477570Y1000430D01*
X1479891Y1003903D01*
X1480407Y1006500D01*
D02*
G37*
G36*
X1468500D02*
X1459593D01*
X1460109Y1003903D01*
X1462430Y1000430D01*
X1465903Y998109D01*
X1468500Y997593D01*
Y1006500D01*
D02*
G37*
G36*
X1876500Y1010745D02*
X1871623Y1009775D01*
X1867488Y1007012D01*
X1864725Y1002877D01*
X1863755Y998000D01*
X1864725Y993123D01*
X1867488Y988988D01*
X1871623Y986225D01*
X1876500Y985255D01*
X1881377Y986225D01*
X1885512Y988988D01*
X1888275Y993123D01*
X1889245Y998000D01*
X1888275Y1002877D01*
X1885512Y1007012D01*
X1881377Y1009775D01*
X1876500Y1010745D01*
D02*
G37*
G36*
X1657500Y1444657D02*
X1654379Y1444036D01*
X1651732Y1442268D01*
X1649964Y1439621D01*
X1649343Y1436500D01*
X1649964Y1433379D01*
X1651547Y1431010D01*
Y1409500D01*
X1653291Y1405291D01*
X1683790Y1374790D01*
X1688000Y1373047D01*
X1721534D01*
X1759047Y1335534D01*
Y1014466D01*
X1726673Y982092D01*
X1723879Y981536D01*
X1721232Y979768D01*
X1719464Y977121D01*
X1718843Y974000D01*
X1719464Y970879D01*
X1721232Y968232D01*
X1723879Y966464D01*
X1727000Y965843D01*
X1730121Y966464D01*
X1732768Y968232D01*
X1734536Y970879D01*
X1735092Y973672D01*
X1769209Y1007791D01*
X1770953Y1012000D01*
Y1338000D01*
X1769209Y1342209D01*
X1728210Y1383210D01*
X1724000Y1384953D01*
X1690466D01*
X1663453Y1411966D01*
Y1431010D01*
X1665036Y1433379D01*
X1665657Y1436500D01*
X1665036Y1439621D01*
X1663268Y1442268D01*
X1660621Y1444036D01*
X1657500Y1444657D01*
D02*
G37*
G36*
X2548000Y940235D02*
X2543318Y939304D01*
X2539348Y936652D01*
X2536696Y932682D01*
X2535765Y928000D01*
X2536696Y923318D01*
X2539348Y919349D01*
X2543318Y916696D01*
X2548000Y915765D01*
X2552682Y916696D01*
X2556651Y919349D01*
X2559304Y923318D01*
X2560235Y928000D01*
X2559304Y932682D01*
X2556651Y936652D01*
X2552682Y939304D01*
X2548000Y940235D01*
D02*
G37*
G36*
X1451000Y934274D02*
X1445538Y933188D01*
X1440907Y930093D01*
X1437812Y925462D01*
X1436726Y920000D01*
X1437812Y914538D01*
X1440907Y909907D01*
X1445538Y906812D01*
X1451000Y905726D01*
X1456463Y906812D01*
X1461093Y909907D01*
X1464188Y914538D01*
X1465274Y920000D01*
X1464188Y925462D01*
X1461093Y930093D01*
X1456463Y933188D01*
X1451000Y934274D01*
D02*
G37*
G36*
X1452500Y881137D02*
Y870700D01*
X1462937D01*
X1462304Y873882D01*
X1459651Y877851D01*
X1455682Y880504D01*
X1452500Y881137D01*
D02*
G37*
G36*
X1449500D02*
X1446318Y880504D01*
X1442348Y877851D01*
X1439696Y873882D01*
X1439063Y870700D01*
X1449500D01*
Y881137D01*
D02*
G37*
G36*
X1462937Y867700D02*
X1452500D01*
Y857263D01*
X1455682Y857896D01*
X1459651Y860548D01*
X1462304Y864518D01*
X1462937Y867700D01*
D02*
G37*
G36*
X1449500D02*
X1439063D01*
X1439696Y864518D01*
X1442348Y860548D01*
X1446318Y857896D01*
X1449500Y857263D01*
Y867700D01*
D02*
G37*
G36*
X1537110Y894445D02*
X1532233Y893475D01*
X1528098Y890712D01*
X1525335Y886577D01*
X1524365Y881700D01*
X1524849Y879268D01*
X1457791Y812209D01*
X1456047Y808000D01*
Y783456D01*
X1452988Y781412D01*
X1450225Y777277D01*
X1449255Y772400D01*
X1450225Y767523D01*
X1452988Y763388D01*
X1456429Y761089D01*
X1456541Y760715D01*
Y758685D01*
X1456429Y758311D01*
X1452988Y756012D01*
X1450225Y751877D01*
X1449255Y747000D01*
X1450225Y742123D01*
X1452988Y737988D01*
X1457123Y735225D01*
X1462000Y734255D01*
X1466877Y735225D01*
X1471012Y737988D01*
X1473311Y741429D01*
X1473685Y741541D01*
X1475715D01*
X1476089Y741429D01*
X1478388Y737988D01*
X1482523Y735225D01*
X1487400Y734255D01*
X1492277Y735225D01*
X1496412Y737988D01*
X1498711Y741429D01*
X1499085Y741541D01*
X1501115D01*
X1501489Y741429D01*
X1503788Y737988D01*
X1507923Y735225D01*
X1512800Y734255D01*
X1517677Y735225D01*
X1521812Y737988D01*
X1524575Y742123D01*
X1525545Y747000D01*
X1524575Y751877D01*
X1521812Y756012D01*
X1518371Y758311D01*
X1518259Y758685D01*
Y760715D01*
X1518371Y761089D01*
X1521812Y763388D01*
X1524575Y767523D01*
X1525545Y772400D01*
X1524575Y777277D01*
X1521812Y781412D01*
X1517677Y784175D01*
X1512800Y785145D01*
X1507923Y784175D01*
X1503788Y781412D01*
X1501489Y777971D01*
X1501115Y777859D01*
X1499085D01*
X1498711Y777971D01*
X1496412Y781412D01*
X1492277Y784175D01*
X1487400Y785145D01*
X1482523Y784175D01*
X1478388Y781412D01*
X1476089Y777971D01*
X1475715Y777859D01*
X1473685D01*
X1473311Y777971D01*
X1471012Y781412D01*
X1467953Y783456D01*
Y805534D01*
X1522585Y860166D01*
X1524889Y858935D01*
X1524365Y856300D01*
X1525335Y851423D01*
X1528098Y847288D01*
X1532233Y844525D01*
X1537110Y843555D01*
X1541987Y844525D01*
X1546122Y847288D01*
X1548885Y851423D01*
X1549855Y856300D01*
X1548885Y861177D01*
X1546122Y865312D01*
X1542681Y867611D01*
X1542569Y867985D01*
Y870015D01*
X1542681Y870389D01*
X1546122Y872688D01*
X1548885Y876823D01*
X1549855Y881700D01*
X1548885Y886577D01*
X1546122Y890712D01*
X1541987Y893475D01*
X1537110Y894445D01*
D02*
G37*
G36*
X2250000Y742000D02*
X2239500D01*
Y731500D01*
X2250000D01*
Y742000D01*
D02*
G37*
G36*
X2236500D02*
X2226000D01*
Y731500D01*
X2236500D01*
Y742000D01*
D02*
G37*
G36*
X2250000Y728500D02*
X2239500D01*
Y718000D01*
X2250000D01*
Y728500D01*
D02*
G37*
G36*
X2236500D02*
X2226000D01*
Y718000D01*
X2236500D01*
Y728500D01*
D02*
G37*
G36*
X2130000Y744000D02*
X2102000D01*
Y716000D01*
X2130000D01*
Y744000D01*
D02*
G37*
G36*
X2187200Y744274D02*
X2181738Y743188D01*
X2177107Y740093D01*
X2174012Y735462D01*
X2172926Y730000D01*
X2174012Y724538D01*
X2177107Y719907D01*
X2181738Y716812D01*
X2187200Y715726D01*
X2192663Y716812D01*
X2197293Y719907D01*
X2200388Y724538D01*
X2201474Y730000D01*
X2200388Y735462D01*
X2197293Y740093D01*
X2192663Y743188D01*
X2187200Y744274D01*
D02*
G37*
G36*
X2065200D02*
X2059738Y743188D01*
X2055107Y740093D01*
X2052012Y735462D01*
X2050926Y730000D01*
X2052012Y724538D01*
X2055107Y719907D01*
X2059738Y716812D01*
X2065200Y715726D01*
X2070663Y716812D01*
X2075293Y719907D01*
X2078388Y724538D01*
X2079474Y730000D01*
X2078388Y735462D01*
X2075293Y740093D01*
X2070663Y743188D01*
X2065200Y744274D01*
D02*
G37*
G36*
X1624000Y726157D02*
X1620879Y725536D01*
X1618232Y723768D01*
X1616464Y721121D01*
X1615843Y718000D01*
X1616464Y714879D01*
X1618232Y712232D01*
X1620879Y710464D01*
X1624000Y709843D01*
X1626934Y710427D01*
X1627000Y710400D01*
X1627000Y710400D01*
X1647452D01*
X1648232Y709232D01*
X1650879Y707464D01*
X1654000Y706843D01*
X1657121Y707464D01*
X1659768Y709232D01*
X1661536Y711879D01*
X1662157Y715000D01*
X1661536Y718121D01*
X1659768Y720768D01*
X1657121Y722536D01*
X1654000Y723157D01*
X1650879Y722536D01*
X1648232Y720768D01*
X1647452Y719600D01*
X1631838D01*
X1631536Y721121D01*
X1629768Y723768D01*
X1627121Y725536D01*
X1624000Y726157D01*
D02*
G37*
G36*
X2412400Y672235D02*
X2407718Y671304D01*
X2403748Y668652D01*
X2401500Y665286D01*
X2399000Y665983D01*
Y672000D01*
X2375000D01*
Y648000D01*
X2399000D01*
Y654017D01*
X2401500Y654714D01*
X2403748Y651348D01*
X2407718Y648696D01*
X2412400Y647765D01*
X2417082Y648696D01*
X2421051Y651348D01*
X2423704Y655318D01*
X2424635Y660000D01*
X2423704Y664682D01*
X2421051Y668652D01*
X2417082Y671304D01*
X2412400Y672235D01*
D02*
G37*
G36*
X2514000D02*
X2509318Y671304D01*
X2505349Y668652D01*
X2502696Y664682D01*
X2502574Y664070D01*
X2500025D01*
X2499904Y664682D01*
X2497251Y668652D01*
X2493282Y671304D01*
X2488600Y672235D01*
X2483918Y671304D01*
X2479948Y668652D01*
X2477296Y664682D01*
X2477175Y664070D01*
X2474626D01*
X2474504Y664682D01*
X2471852Y668652D01*
X2467882Y671304D01*
X2463200Y672235D01*
X2458518Y671304D01*
X2454548Y668652D01*
X2451896Y664682D01*
X2450965Y660000D01*
X2451896Y655318D01*
X2454548Y651348D01*
X2458518Y648696D01*
X2463200Y647765D01*
X2467882Y648696D01*
X2471852Y651348D01*
X2474504Y655318D01*
X2474626Y655930D01*
X2477175D01*
X2477296Y655318D01*
X2479948Y651348D01*
X2483918Y648696D01*
X2488600Y647765D01*
X2493282Y648696D01*
X2497251Y651348D01*
X2499904Y655318D01*
X2500025Y655930D01*
X2502574D01*
X2502696Y655318D01*
X2505349Y651348D01*
X2509318Y648696D01*
X2514000Y647765D01*
X2518682Y648696D01*
X2522652Y651348D01*
X2525304Y655318D01*
X2526235Y660000D01*
X2525304Y664682D01*
X2522652Y668652D01*
X2518682Y671304D01*
X2514000Y672235D01*
D02*
G37*
G36*
X2439300Y669898D02*
Y661500D01*
X2447697D01*
X2447220Y663902D01*
X2445010Y667210D01*
X2441702Y669420D01*
X2439300Y669898D01*
D02*
G37*
G36*
X2436300D02*
X2433898Y669420D01*
X2430590Y667210D01*
X2428380Y663902D01*
X2427903Y661500D01*
X2436300D01*
Y669898D01*
D02*
G37*
G36*
X2239500Y665737D02*
Y655300D01*
X2249937D01*
X2249304Y658482D01*
X2246651Y662451D01*
X2242682Y665104D01*
X2239500Y665737D01*
D02*
G37*
G36*
X2236500Y665737D02*
X2233318Y665104D01*
X2229348Y662451D01*
X2226696Y658482D01*
X2226063Y655300D01*
X2236500D01*
Y665737D01*
D02*
G37*
G36*
X2759000Y696411D02*
X2750806Y694781D01*
X2743860Y690140D01*
X2739218Y683194D01*
X2737588Y675000D01*
X2739218Y666806D01*
X2743860Y659860D01*
X2750806Y655219D01*
X2759000Y653589D01*
X2767193Y655219D01*
X2774140Y659860D01*
X2778781Y666806D01*
X2780411Y675000D01*
X2778781Y683194D01*
X2774140Y690140D01*
X2767193Y694781D01*
X2759000Y696411D01*
D02*
G37*
G36*
X2659000D02*
X2650806Y694781D01*
X2643860Y690140D01*
X2639218Y683194D01*
X2637588Y675000D01*
X2639218Y666806D01*
X2643860Y659860D01*
X2650806Y655219D01*
X2659000Y653589D01*
X2667193Y655219D01*
X2674140Y659860D01*
X2678781Y666806D01*
X2680411Y675000D01*
X2678781Y683194D01*
X2674140Y690140D01*
X2667193Y694781D01*
X2659000Y696411D01*
D02*
G37*
G36*
X1441000D02*
X1432806Y694781D01*
X1425860Y690140D01*
X1421218Y683194D01*
X1419588Y675000D01*
X1421218Y666806D01*
X1425860Y659860D01*
X1432806Y655219D01*
X1441000Y653589D01*
X1449194Y655219D01*
X1456140Y659860D01*
X1460781Y666806D01*
X1462411Y675000D01*
X1460781Y683194D01*
X1456140Y690140D01*
X1449194Y694781D01*
X1441000Y696411D01*
D02*
G37*
G36*
X2447697Y658500D02*
X2439300D01*
Y650102D01*
X2441702Y650580D01*
X2445010Y652790D01*
X2447220Y656098D01*
X2447697Y658500D01*
D02*
G37*
G36*
X2436300D02*
X2427903D01*
X2428380Y656098D01*
X2430590Y652790D01*
X2433898Y650580D01*
X2436300Y650102D01*
Y658500D01*
D02*
G37*
%LPD*%
D39*
X1932000Y1368000D02*
Y1379000D01*
Y1368000D02*
X1949000Y1351000D01*
Y1266000D02*
Y1351000D01*
X1955000Y1373000D02*
X1965000Y1363000D01*
Y1265000D02*
Y1363000D01*
X2030000Y1434850D02*
X2046150Y1451000D01*
X2030000Y1294000D02*
Y1434850D01*
X2011000Y1275000D02*
X2030000Y1294000D01*
X1975000Y1224750D02*
X2038750Y1161000D01*
X1883250Y1426000D02*
X1918000D01*
X1975000Y1369000D01*
Y1224750D02*
Y1369000D01*
X1851000Y1317000D02*
X1879000Y1345000D01*
X1851000Y1276000D02*
Y1317000D01*
X1869000Y1315000D02*
X1876000Y1322000D01*
X1869000Y1271000D02*
Y1315000D01*
X1892000Y1273000D02*
Y1315000D01*
X2021000Y1525850D02*
X2046150Y1551000D01*
X2021000Y1305000D02*
Y1525850D01*
X1993000Y1277000D02*
X2021000Y1305000D01*
X2922997Y1464003D02*
Y1465000D01*
X2900000Y1504000D02*
X2900500Y1504500D01*
X2183998Y1203001D02*
Y1203002D01*
X2046000Y803000D02*
Y807000D01*
X2077250Y838250D01*
Y858831D01*
X2058000Y878082D02*
X2077250Y858831D01*
X2058000Y878082D02*
Y980000D01*
X2047000Y991000D02*
X2058000Y980000D01*
X2205750Y1094750D02*
Y1112831D01*
X2196000Y1085000D02*
X2205750Y1094750D01*
X2880000Y1375000D02*
X2891000Y1386000D01*
X2865000Y1375000D02*
X2880000D01*
X2897997Y1316003D02*
Y1336001D01*
Y1316003D02*
X2948500Y1265500D01*
X2903997Y1375000D02*
X2908000D01*
X2913000Y1370000D01*
Y1351004D02*
Y1370000D01*
X2897997Y1336001D02*
X2913000Y1351004D01*
X2309700Y1359700D02*
X2324300D01*
X2304000Y1354000D02*
X2309700Y1359700D01*
X2285000Y1354000D02*
X2304000D01*
X2240000Y1399000D02*
X2285000Y1354000D01*
X2178000Y1399000D02*
X2240000D01*
X2233000Y1352000D02*
X2239000D01*
X2222000Y1341000D02*
X2233000Y1352000D01*
X2108000Y1341000D02*
X2222000D01*
X2270000Y1346000D02*
X2312000D01*
X2269000Y1345000D02*
X2270000Y1346000D01*
X2201000Y1297000D02*
X2226000D01*
X2236000Y1307000D01*
Y1337000D01*
X2029000Y1062000D02*
X2037000D01*
X2021000Y1070000D02*
X2029000Y1062000D01*
X2021000Y1070000D02*
Y1115000D01*
X1983500Y1002500D02*
X1984000Y1002000D01*
X2028000Y1030000D02*
Y1049000D01*
X1624000Y718000D02*
X1627000Y715000D01*
X1654000D01*
X2310000Y1133000D02*
Y1180000D01*
X2267000Y1223000D02*
X2310000Y1180000D01*
X2297000Y1123000D02*
Y1169000D01*
X2257000Y1209000D02*
X2297000Y1169000D01*
X2281000Y1112000D02*
Y1164000D01*
X2245000Y1200000D02*
X2281000Y1164000D01*
X2267000Y1102000D02*
Y1154000D01*
X2234000Y1187000D02*
X2267000Y1154000D01*
X2247250Y1128250D02*
X2253000Y1134000D01*
X2252000Y1135000D02*
X2253000Y1134000D01*
X2221169Y1128250D02*
X2247250D01*
X2205750Y1112831D02*
X2221169Y1128250D01*
X2245000Y1114000D02*
X2250000Y1119000D01*
X2220000Y1114000D02*
X2245000D01*
X2217000Y1102000D02*
X2252000D01*
X2215000Y1100000D02*
X2217000Y1102000D01*
X2119000Y1144000D02*
X2131000D01*
X2099000Y1124000D02*
X2119000Y1144000D01*
X2167000Y966000D02*
X2198000Y935000D01*
X2196998Y927001D02*
X2198000Y928003D01*
Y935000D01*
X2167000Y966000D02*
Y988000D01*
X2091000Y1064000D02*
X2167000Y988000D01*
X2091000Y1064000D02*
Y1139000D01*
X2106000Y1154000D01*
X2099000Y1065000D02*
Y1124000D01*
Y1065000D02*
X2207000Y957000D01*
X2244000Y900000D02*
Y980000D01*
X2135000Y1089000D02*
X2244000Y980000D01*
X2232000Y945000D02*
Y973081D01*
X2221831Y983250D02*
X2232000Y973081D01*
X2220750Y983250D02*
X2221831D01*
X2122000Y1082000D02*
X2220750Y983250D01*
X2122000Y1082000D02*
Y1094000D01*
X2214000Y974000D02*
X2218000D01*
X2109000Y1079000D02*
X2214000Y974000D01*
X2109000Y1079000D02*
Y1105000D01*
X2037000Y1099000D02*
X2077000D01*
X2072000Y1127000D02*
X2075000Y1124000D01*
X2037000Y1127000D02*
X2072000D01*
X2088000Y1266002D02*
Y1342000D01*
X2072999Y1251001D02*
X2088000Y1266002D01*
X2070999Y1251001D02*
X2072999D01*
X2047000Y991000D02*
Y1055000D01*
X2105000Y1338000D02*
X2108000Y1341000D01*
X1816000Y944001D02*
X1817000Y943001D01*
D40*
X1535700Y881700D02*
X1537110D01*
X1462000Y808000D02*
X1535700Y881700D01*
X1462000Y772400D02*
Y808000D01*
X1657500Y1409500D02*
Y1436500D01*
Y1409500D02*
X1688000Y1379000D01*
X1724000D01*
X1765000Y1338000D01*
Y1012000D02*
Y1338000D01*
X1727000Y974000D02*
X1765000Y1012000D01*
D43*
X2429000Y1088000D02*
X2429500Y1088500D01*
Y1182500D01*
Y1237500D02*
X2451000Y1259000D01*
X2429500Y1182500D02*
Y1237500D01*
X2449000Y1261000D02*
Y1287000D01*
Y1261000D02*
X2451000Y1259000D01*
X2449000Y1287000D02*
Y1347000D01*
X2228000Y801000D02*
X2271000D01*
X2167000D02*
X2228000D01*
Y774000D02*
Y801000D01*
Y774000D02*
X2229000Y773000D01*
X2152000Y820000D02*
Y949000D01*
X2149000Y817000D02*
X2152000Y820000D01*
X2149000Y805000D02*
Y817000D01*
X2152000Y805000D02*
X2163000D01*
X2167000Y801000D01*
X1817000Y943001D02*
X1962001D01*
X1768999D02*
X1817000D01*
X2040250Y1207750D02*
Y1209331D01*
Y1207750D02*
X2062000Y1186000D01*
X2125000D01*
X2133000Y1194000D01*
X2159000D01*
X2251000Y1286000D01*
X2299000D01*
X2037000Y1062000D02*
Y1066000D01*
Y1031000D02*
Y1062000D01*
X1962001Y943001D02*
X1970000Y951000D01*
Y989000D01*
X1969000Y952000D02*
X1970000Y951000D01*
Y989000D02*
X1983500Y1002500D01*
X2028000Y1030000D02*
X2038000D01*
X2152000Y949000D02*
Y987000D01*
X2299000Y1286000D02*
X2300000Y1287000D01*
X2449000D01*
X2138000Y987000D02*
X2152000D01*
X2055000Y1070000D02*
X2138000Y987000D01*
X2041000Y1070000D02*
X2055000D01*
X2037000Y1066000D02*
X2041000Y1070000D01*
X2037000Y1031000D02*
X2038000Y1030000D01*
X1983500Y1002500D02*
X2011000Y1030000D01*
X2028000D01*
D47*
X2022000Y1170000D02*
G03*
X2022000Y1170000I-5000J0D01*
G01*
X1702000Y738000D02*
G03*
X1702000Y738000I-5000J0D01*
G01*
X1636500Y1045000D02*
G03*
X1636500Y1045000I-5000J0D01*
G01*
X1953500Y1151500D02*
G03*
X1953500Y1151500I-5000J0D01*
G01*
X2861500Y1431000D02*
G03*
X2861500Y1431000I-5000J0D01*
G01*
X2940000Y1341000D02*
G03*
X2940000Y1341000I-5000J0D01*
G01*
X1702500Y1163750D02*
G03*
X1702500Y1163750I-5000J0D01*
G01*
X1604650Y1132600D02*
Y1155400D01*
X1617350Y1132600D02*
Y1155400D01*
X1604650Y1132600D02*
X1617350D01*
X1604650Y1155400D02*
X1617350D01*
X2820750Y1354000D02*
Y1374000D01*
X2833250Y1354000D02*
Y1374000D01*
X2820750Y1354000D02*
X2833250D01*
X2820750Y1374000D02*
X2833250D01*
X2833350Y1430600D02*
Y1453400D01*
X2820650Y1430600D02*
Y1453400D01*
X2833350D01*
X2820650Y1430600D02*
X2833350D01*
X2820650Y1311600D02*
Y1334400D01*
X2833350Y1311600D02*
Y1334400D01*
X2820650Y1311600D02*
X2833350D01*
X2820650Y1334400D02*
X2833350D01*
X2833250Y1392000D02*
Y1412000D01*
X2820750Y1392000D02*
Y1412000D01*
X2833250D01*
X2820750Y1392000D02*
X2833250D01*
X2880200Y753600D02*
X2917800D01*
X2880200Y706400D02*
X2917800D01*
X2880200D02*
Y753600D01*
X2917800Y706400D02*
Y753600D01*
X2963750Y707950D02*
X2978250D01*
X2963750Y730050D02*
X2978250D01*
X2963750Y707950D02*
Y730050D01*
X2978250Y707950D02*
Y730050D01*
X2887950Y680750D02*
Y695250D01*
X2910050Y680750D02*
Y695250D01*
X2887950D02*
X2910050D01*
X2887950Y680750D02*
X2910050D01*
X1663600Y1013650D02*
X1686400D01*
X1663600Y1026350D02*
X1686400D01*
Y1013650D02*
Y1026350D01*
X1663600Y1013650D02*
Y1026350D01*
Y1040650D02*
X1686400D01*
X1663600Y1053350D02*
X1686400D01*
Y1040650D02*
Y1053350D01*
X1663600Y1040650D02*
Y1053350D01*
Y1067650D02*
X1686400D01*
X1663600Y1080350D02*
X1686400D01*
Y1067650D02*
Y1080350D01*
X1663600Y1067650D02*
Y1080350D01*
X2316950Y1275750D02*
Y1290250D01*
X2339050Y1275750D02*
Y1290250D01*
X2316950D02*
X2339050D01*
X2316950Y1275750D02*
X2339050D01*
X2283050D02*
Y1290250D01*
X2260950Y1275750D02*
Y1290250D01*
Y1275750D02*
X2283050D01*
X2260950Y1290250D02*
X2283050D01*
X1539650Y880400D02*
X1552350D01*
X1539650Y857600D02*
X1552350D01*
Y880400D01*
X1539650Y857600D02*
Y880400D01*
X2168950Y782250D02*
X2191050D01*
X2168950Y767750D02*
X2191050D01*
X2168950D02*
Y782250D01*
X2191050Y767750D02*
Y782250D01*
X2468750Y1181950D02*
Y1204050D01*
X2483250Y1181950D02*
Y1204050D01*
X2468750Y1181950D02*
X2483250D01*
X2468750Y1204050D02*
X2483250D01*
X2470750Y1276950D02*
Y1299050D01*
X2485250Y1276950D02*
Y1299050D01*
X2470750Y1276950D02*
X2485250D01*
X2470750Y1299050D02*
X2485250D01*
X2470750Y1366950D02*
Y1389050D01*
X2485250Y1366950D02*
Y1389050D01*
X2470750Y1366950D02*
X2485250D01*
X2470750Y1389050D02*
X2485250D01*
X1829250Y1051450D02*
Y1073550D01*
X1843750Y1051450D02*
Y1073550D01*
X1829250Y1051450D02*
X1843750D01*
X1829250Y1073550D02*
X1843750D01*
Y971450D02*
Y993550D01*
X1829250Y971450D02*
Y993550D01*
X1843750D01*
X1829250Y971450D02*
X1843750D01*
X1883950Y1109250D02*
X1906050D01*
X1883950Y1094750D02*
X1906050D01*
X1883950D02*
Y1109250D01*
X1906050Y1094750D02*
Y1109250D01*
X2157750Y966950D02*
Y989050D01*
X2172250Y966950D02*
Y989050D01*
X2157750Y966950D02*
X2172250D01*
X2157750Y989050D02*
X2172250D01*
X2190250Y1169950D02*
Y1192050D01*
X2175750Y1169950D02*
Y1192050D01*
X2190250D01*
X2175750Y1169950D02*
X2190250D01*
X2033250Y1219950D02*
Y1242050D01*
X2018750Y1219950D02*
Y1242050D01*
X2033250D01*
X2018750Y1219950D02*
X2033250D01*
X2050750Y952950D02*
Y975050D01*
X2065250Y952950D02*
Y975050D01*
X2050750Y952950D02*
X2065250D01*
X2050750Y975050D02*
X2065250D01*
X2001950Y994750D02*
X2024050D01*
X2001950Y1009250D02*
X2024050D01*
Y994750D02*
Y1009250D01*
X2001950Y994750D02*
Y1009250D01*
X2061250Y1219950D02*
Y1242050D01*
X2046750Y1219950D02*
Y1242050D01*
X2061250D01*
X2046750Y1219950D02*
X2061250D01*
X2154250Y1222950D02*
Y1245050D01*
X2139750Y1222950D02*
Y1245050D01*
X2154250D01*
X2139750Y1222950D02*
X2154250D01*
X1921950Y990250D02*
X1944050D01*
X1921950Y975750D02*
X1944050D01*
X1921950D02*
Y990250D01*
X1944050Y975750D02*
Y990250D01*
X1921950Y1017250D02*
X1944050D01*
X1921950Y1002750D02*
X1944050D01*
X1921950D02*
Y1017250D01*
X1944050Y1002750D02*
Y1017250D01*
X2186250Y1222950D02*
Y1245050D01*
X2171750Y1222950D02*
Y1245050D01*
X2186250D01*
X2171750Y1222950D02*
X2186250D01*
X2130750Y966950D02*
Y989050D01*
X2145250Y966950D02*
Y989050D01*
X2130750Y966950D02*
X2145250D01*
X2130750Y989050D02*
X2145250D01*
X2011250Y952950D02*
Y975050D01*
X1996750Y952950D02*
Y975050D01*
X2011250D01*
X1996750Y952950D02*
X2011250D01*
X2039250Y952950D02*
Y975050D01*
X2024750Y952950D02*
Y975050D01*
X2039250D01*
X2024750Y952950D02*
X2039250D01*
X1928950Y1227250D02*
X1951050D01*
X1928950Y1212750D02*
X1951050D01*
X1928950D02*
Y1227250D01*
X1951050Y1212750D02*
Y1227250D01*
X1928950Y1194250D02*
X1951050D01*
X1928950Y1179750D02*
X1951050D01*
X1928950D02*
Y1194250D01*
X1951050Y1179750D02*
Y1194250D01*
X1928950Y1109250D02*
X1951050D01*
X1928950Y1094750D02*
X1951050D01*
X1928950D02*
Y1109250D01*
X1951050Y1094750D02*
Y1109250D01*
X2356750Y1046950D02*
Y1069050D01*
X2371250Y1046950D02*
Y1069050D01*
X2356750Y1046950D02*
X2371250D01*
X2356750Y1069050D02*
X2371250D01*
X2386750Y1046950D02*
Y1069050D01*
X2401250Y1046950D02*
Y1069050D01*
X2386750Y1046950D02*
X2401250D01*
X2386750Y1069050D02*
X2401250D01*
X2444750Y1046950D02*
Y1069050D01*
X2459250Y1046950D02*
Y1069050D01*
X2444750Y1046950D02*
X2459250D01*
X2444750Y1069050D02*
X2459250D01*
X2415750Y1046950D02*
Y1069050D01*
X2430250Y1046950D02*
Y1069050D01*
X2415750Y1046950D02*
X2430250D01*
X2415750Y1069050D02*
X2430250D01*
X1567500Y852000D02*
X1602500D01*
X1567500Y786000D02*
X1602500D01*
Y852000D01*
X1567500Y786000D02*
Y852000D01*
X1723500Y642000D02*
X1796500D01*
X1723500Y688000D02*
X1796500D01*
Y642000D02*
Y688000D01*
X1723500Y642000D02*
Y688000D01*
X1630750Y679950D02*
Y702050D01*
X1645250Y679950D02*
Y702050D01*
X1630750Y679950D02*
X1645250D01*
X1630750Y702050D02*
X1645250D01*
X1603750Y679950D02*
Y702050D01*
X1618250Y679950D02*
Y702050D01*
X1603750Y679950D02*
X1618250D01*
X1603750Y702050D02*
X1618250D01*
X1626250Y931950D02*
Y954050D01*
X1611750Y931950D02*
Y954050D01*
X1626250D01*
X1611750Y931950D02*
X1626250D01*
X1654250D02*
Y954050D01*
X1639750Y931950D02*
Y954050D01*
X1654250D01*
X1639750Y931950D02*
X1654250D01*
X1782950Y861750D02*
X1805050D01*
X1782950Y876250D02*
X1805050D01*
Y861750D02*
Y876250D01*
X1782950Y861750D02*
Y876250D01*
Y890750D02*
X1805050D01*
X1782950Y905250D02*
X1805050D01*
Y890750D02*
Y905250D01*
X1782950Y890750D02*
Y905250D01*
Y919750D02*
X1805050D01*
X1782950Y934250D02*
X1805050D01*
Y919750D02*
Y934250D01*
X1782950Y919750D02*
Y934250D01*
X2689000Y1280250D02*
X2709000D01*
X2689000Y1267750D02*
X2709000D01*
X2689000D02*
Y1280250D01*
X2709000Y1267750D02*
Y1280250D01*
X2709000Y1301750D02*
Y1314250D01*
X2689000Y1301750D02*
Y1314250D01*
Y1301750D02*
X2709000D01*
X2689000Y1314250D02*
X2709000D01*
X2690000Y1346250D02*
X2710000D01*
X2690000Y1333750D02*
X2710000D01*
X2690000D02*
Y1346250D01*
X2710000Y1333750D02*
Y1346250D01*
X2711000Y1365750D02*
Y1378250D01*
X2691000Y1365750D02*
Y1378250D01*
Y1365750D02*
X2711000D01*
X2691000Y1378250D02*
X2711000D01*
X1738000Y728250D02*
X1784000D01*
X1738000Y767750D02*
X1784000D01*
Y728250D02*
Y767750D01*
X1738000Y728250D02*
Y767750D01*
X1695750Y947000D02*
Y967000D01*
X1708250Y947000D02*
Y967000D01*
X1695750Y947000D02*
X1708250D01*
X1695750Y967000D02*
X1708250D01*
X1962750Y968000D02*
X1975250D01*
X1962750Y988000D02*
X1975250D01*
X1962750Y968000D02*
Y988000D01*
X1975250Y968000D02*
Y988000D01*
X1626500Y907500D02*
X1751500D01*
X1626500Y782500D02*
X1751500D01*
X1626500D02*
Y907500D01*
X1751500Y782500D02*
Y907500D01*
X2095600Y757650D02*
Y770350D01*
X2118400Y757650D02*
Y770350D01*
X2095600D02*
X2118400D01*
X2095600Y757650D02*
X2118400D01*
X2455350Y1181600D02*
Y1204400D01*
X2442650Y1181600D02*
Y1204400D01*
X2455350D01*
X2442650Y1181600D02*
X2455350D01*
X1944400Y1064150D02*
Y1076850D01*
X1921600Y1064150D02*
Y1076850D01*
Y1064150D02*
X1944400D01*
X1921600Y1076850D02*
X1944400D01*
X1921600Y1051350D02*
X1944400D01*
X1921600Y1038650D02*
X1944400D01*
X1921600D02*
Y1051350D01*
X1944400Y1038650D02*
Y1051350D01*
X1990650Y1242400D02*
X2003350D01*
X1990650Y1219600D02*
X2003350D01*
Y1242400D01*
X1990650Y1219600D02*
Y1242400D01*
X2457350Y1276600D02*
Y1299400D01*
X2444650Y1276600D02*
Y1299400D01*
X2457350D01*
X2444650Y1276600D02*
X2457350D01*
X2168600Y794650D02*
Y807350D01*
X2191400Y794650D02*
Y807350D01*
X2168600D02*
X2191400D01*
X2168600Y794650D02*
X2191400D01*
X2457350Y1366600D02*
Y1389400D01*
X2444650Y1366600D02*
Y1389400D01*
X2457350D01*
X2444650Y1366600D02*
X2457350D01*
X2641600Y1267650D02*
Y1280350D01*
X2664400Y1267650D02*
Y1280350D01*
X2641600D02*
X2664400D01*
X2641600Y1267650D02*
X2664400D01*
X2641600Y1300650D02*
X2664400D01*
X2641600Y1313350D02*
X2664400D01*
Y1300650D02*
Y1313350D01*
X2641600Y1300650D02*
Y1313350D01*
X2642600Y1332650D02*
Y1345350D01*
X2665400Y1332650D02*
Y1345350D01*
X2642600D02*
X2665400D01*
X2642600Y1332650D02*
X2665400D01*
X1975350Y1014600D02*
Y1037400D01*
X1962650Y1014600D02*
Y1037400D01*
X1975350D01*
X1962650Y1014600D02*
X1975350D01*
X2643600Y1364650D02*
Y1377350D01*
X2666400Y1364650D02*
Y1377350D01*
X2643600D02*
X2666400D01*
X2643600Y1364650D02*
X2666400D01*
X2110350Y960600D02*
Y983400D01*
X2097650Y960600D02*
Y983400D01*
X2110350D01*
X2097650Y960600D02*
X2110350D01*
X1667650Y954400D02*
X1680350D01*
X1667650Y931600D02*
X1680350D01*
Y954400D01*
X1667650Y931600D02*
Y954400D01*
X1617350Y732600D02*
Y755400D01*
X1604650Y732600D02*
Y755400D01*
X1617350D01*
X1604650Y732600D02*
X1617350D01*
X1630650Y755400D02*
X1643350D01*
X1630650Y732600D02*
X1643350D01*
Y755400D01*
X1630650Y732600D02*
Y755400D01*
X1665600Y669650D02*
X1688400D01*
X1665600Y682350D02*
X1688400D01*
Y669650D02*
Y682350D01*
X1665600Y669650D02*
Y682350D01*
X2008000Y1039000D02*
X2148000D01*
X2008000Y1179000D02*
X2148000D01*
Y1039000D02*
Y1179000D01*
X2008000Y1039000D02*
Y1179000D01*
X1656000Y747000D02*
X1706000D01*
X1656000Y707000D02*
X1706000D01*
Y747000D01*
X1656000Y707000D02*
Y747000D01*
X1732250Y920750D02*
X1749750D01*
X1732250Y951250D02*
X1749750D01*
Y920750D02*
Y951250D01*
X1732250Y920750D02*
Y951250D01*
X1535500Y1054000D02*
X1640500D01*
X1535500Y998000D02*
X1640500D01*
Y1054000D01*
X1535500Y998000D02*
Y1054000D01*
X1900000Y965750D02*
Y1079250D01*
X1853000Y965750D02*
Y1079250D01*
X1900000D01*
X1853000Y965750D02*
X1900000D01*
X1877500Y1160500D02*
X1957500D01*
X1877500Y1128500D02*
X1957500D01*
Y1160500D01*
X1877500Y1128500D02*
Y1160500D01*
X1730950Y701750D02*
X1753050D01*
X1730950Y716250D02*
X1753050D01*
Y701750D02*
Y716250D01*
X1730950Y701750D02*
Y716250D01*
X2038600Y756650D02*
Y769350D01*
X2061400Y756650D02*
Y769350D01*
X2038600D02*
X2061400D01*
X2038600Y756650D02*
X2061400D01*
X1566250Y1086950D02*
Y1109050D01*
X1551750Y1086950D02*
Y1109050D01*
X1566250D01*
X1551750Y1086950D02*
X1566250D01*
X2343950Y805250D02*
X2366050D01*
X2343950Y790750D02*
X2366050D01*
X2343950D02*
Y805250D01*
X2366050Y790750D02*
Y805250D01*
X2343950Y782250D02*
X2366050D01*
X2343950Y767750D02*
X2366050D01*
X2343950D02*
Y782250D01*
X2366050Y767750D02*
Y782250D01*
X2545750Y876950D02*
Y899050D01*
X2560250Y876950D02*
Y899050D01*
X2545750Y876950D02*
X2560250D01*
X2545750Y899050D02*
X2560250D01*
X1706900Y1255400D02*
Y1268100D01*
X1684100Y1255400D02*
Y1268100D01*
Y1255400D02*
X1706900D01*
X1684100Y1268100D02*
X1706900D01*
X1614950Y1432250D02*
X1637050D01*
X1614950Y1417750D02*
X1637050D01*
X1614950D02*
Y1432250D01*
X1637050Y1417750D02*
Y1432250D01*
X1614700Y1462250D02*
X1636800D01*
X1614700Y1447750D02*
X1636800D01*
X1614700D02*
Y1462250D01*
X1636800Y1447750D02*
Y1462250D01*
X1732250Y1425450D02*
Y1447550D01*
X1746750Y1425450D02*
Y1447550D01*
X1732250Y1425450D02*
X1746750D01*
X1732250Y1447550D02*
X1746750D01*
X1760250Y1425450D02*
Y1447550D01*
X1774750Y1425450D02*
Y1447550D01*
X1760250Y1425450D02*
X1774750D01*
X1760250Y1447550D02*
X1774750D01*
X1788250Y1425450D02*
Y1447550D01*
X1802750Y1425450D02*
Y1447550D01*
X1788250Y1425450D02*
X1802750D01*
X1788250Y1447550D02*
X1802750D01*
X1676950Y1115750D02*
X1699050D01*
X1676950Y1130250D02*
X1699050D01*
Y1115750D02*
Y1130250D01*
X1676950Y1115750D02*
Y1130250D01*
X2987250Y1438950D02*
Y1461050D01*
X2972750Y1438950D02*
Y1461050D01*
X2987250D01*
X2972750Y1438950D02*
X2987250D01*
Y1483950D02*
Y1506050D01*
X2972750Y1483950D02*
Y1506050D01*
X2987250D01*
X2972750Y1483950D02*
X2987250D01*
X2866650Y1245600D02*
X2879350D01*
X2866650Y1268400D02*
X2879350D01*
X2866650Y1245600D02*
Y1268400D01*
X2879350Y1245600D02*
Y1268400D01*
X1604650Y1180600D02*
X1617350D01*
X1604650Y1203400D02*
X1617350D01*
X1604650Y1180600D02*
Y1203400D01*
X1617350Y1180600D02*
Y1203400D01*
X2963650Y1287400D02*
X2976350D01*
X2963650Y1264600D02*
X2976350D01*
Y1287400D01*
X2963650Y1264600D02*
Y1287400D01*
Y1379400D02*
X2976350D01*
X2963650Y1356600D02*
X2976350D01*
Y1379400D01*
X2963650Y1356600D02*
Y1379400D01*
X1679750Y1421250D02*
X1697250D01*
X1679750Y1451750D02*
X1697250D01*
Y1421250D02*
Y1451750D01*
X1679750Y1421250D02*
Y1451750D01*
X2847500Y1422000D02*
X2952500D01*
X2847500Y1478000D02*
X2952500D01*
X2847500Y1422000D02*
Y1478000D01*
X2952500Y1422000D02*
Y1478000D01*
X2963650Y1311600D02*
X2976350D01*
X2963650Y1334400D02*
X2976350D01*
X2963650Y1311600D02*
Y1334400D01*
X2976350Y1311600D02*
Y1334400D01*
X1817750Y1425950D02*
Y1448050D01*
X1832250Y1425950D02*
Y1448050D01*
X1817750Y1425950D02*
X1832250D01*
X1817750Y1448050D02*
X1832250D01*
X2856000Y1310000D02*
Y1350000D01*
X2944000Y1310000D02*
Y1350000D01*
X2856000Y1310000D02*
X2944000D01*
X2856000Y1350000D02*
X2944000D01*
X1706500Y1154750D02*
Y1242750D01*
X1666500Y1154750D02*
Y1242750D01*
Y1154750D02*
X1706500D01*
X1666500Y1242750D02*
X1706500D01*
D48*
X3000000Y632540D02*
Y1680540D01*
X1400000Y1633810D02*
Y1680540D01*
X2258107Y1678000D02*
X3000000D01*
X1400000D02*
X2166186D01*
X2984760Y1683080D02*
X3000000Y1678000D01*
X2984760Y1672920D02*
X3000000Y1678000D01*
X1400000D02*
X1415240Y1672920D01*
X1400000Y1678000D02*
X1415240Y1683080D01*
X2803810Y1630000D02*
X3109790D01*
X2803810Y630000D02*
X3109790D01*
X3107250Y1171896D02*
Y1630000D01*
Y630000D02*
Y1079976D01*
X3102170Y1614760D02*
X3107250Y1630000D01*
X3112330Y1614760D01*
X3107250Y630000D02*
X3112330Y645240D01*
X3102170D02*
X3107250Y630000D01*
X2800000D02*
X3000000D01*
Y1630000D01*
X2800000D02*
X3000000D01*
X1400000Y630000D02*
Y1630000D01*
Y630000D02*
X2800000D01*
Y1630000D01*
X1400000D02*
X2800000D01*
D49*
X2170250Y1677750D02*
X2175328D01*
X2172789D01*
Y1692985D01*
X2170250Y1690446D01*
X2193103Y1692985D02*
X2188024Y1690446D01*
X2182946Y1685367D01*
Y1680289D01*
X2185485Y1677750D01*
X2190563D01*
X2193103Y1680289D01*
Y1682828D01*
X2190563Y1685367D01*
X2182946D01*
X2198181Y1690446D02*
X2200720Y1692985D01*
X2205798D01*
X2208338Y1690446D01*
Y1680289D01*
X2205798Y1677750D01*
X2200720D01*
X2198181Y1680289D01*
Y1690446D01*
X2215955Y1675211D02*
X2218494Y1677750D01*
Y1680289D01*
X2215955D01*
Y1677750D01*
X2218494D01*
X2215955Y1675211D01*
X2213416Y1672672D01*
X2228651Y1690446D02*
X2231190Y1692985D01*
X2236269D01*
X2238808Y1690446D01*
Y1680289D01*
X2236269Y1677750D01*
X2231190D01*
X2228651Y1680289D01*
Y1690446D01*
X2243886D02*
X2246425Y1692985D01*
X2251504D01*
X2254043Y1690446D01*
Y1680289D01*
X2251504Y1677750D01*
X2246425D01*
X2243886Y1680289D01*
Y1690446D01*
X3118931Y1084040D02*
Y1089118D01*
Y1086579D01*
X3103696D01*
X3106235Y1084040D01*
Y1096735D02*
X3103696Y1099275D01*
Y1104353D01*
X3106235Y1106892D01*
X3116392D01*
X3118931Y1104353D01*
Y1099275D01*
X3116392Y1096735D01*
X3106235D01*
Y1111971D02*
X3103696Y1114510D01*
Y1119588D01*
X3106235Y1122127D01*
X3116392D01*
X3118931Y1119588D01*
Y1114510D01*
X3116392Y1111971D01*
X3106235D01*
X3121470Y1129745D02*
X3118931Y1132284D01*
X3116392D01*
Y1129745D01*
X3118931D01*
Y1132284D01*
X3121470Y1129745D01*
X3124009Y1127206D01*
X3106235Y1142441D02*
X3103696Y1144980D01*
Y1150058D01*
X3106235Y1152597D01*
X3116392D01*
X3118931Y1150058D01*
Y1144980D01*
X3116392Y1142441D01*
X3106235D01*
Y1157676D02*
X3103696Y1160215D01*
Y1165293D01*
X3106235Y1167832D01*
X3116392D01*
X3118931Y1165293D01*
Y1160215D01*
X3116392Y1157676D01*
X3106235D01*
D50*
X1585000Y847561D02*
D03*
D51*
X1728409Y665000D02*
D03*
D52*
X2251000Y1083000D02*
D03*
X2276400D02*
D03*
X2301800D02*
D03*
X2276400Y1013000D02*
D03*
X2251000D02*
D03*
X2860000Y753000D02*
D03*
Y727600D02*
D03*
X2930000Y702200D02*
D03*
Y727600D02*
D03*
Y753000D02*
D03*
X1462000Y747000D02*
D03*
X1487400D02*
D03*
X1512800D02*
D03*
X1462000Y772400D02*
D03*
X1487400D02*
D03*
X1512800D02*
D03*
X1602110Y1131300D02*
D03*
Y1156700D02*
D03*
X1883250Y1526000D02*
D03*
Y1501000D02*
D03*
Y1476000D02*
D03*
Y1451000D02*
D03*
Y1426000D02*
D03*
Y1401000D02*
D03*
Y1376000D02*
D03*
X2046150Y1551000D02*
D03*
Y1526000D02*
D03*
Y1501000D02*
D03*
Y1476000D02*
D03*
Y1451000D02*
D03*
Y1426000D02*
D03*
Y1401000D02*
D03*
Y1376000D02*
D03*
X1687700Y1011110D02*
D03*
X1662300D02*
D03*
X1687700Y1038110D02*
D03*
X1662300D02*
D03*
X1687700Y1065110D02*
D03*
X1662300D02*
D03*
X1537110Y881700D02*
D03*
Y856300D02*
D03*
X1876500Y998000D02*
D03*
Y1047000D02*
D03*
X1470000Y1052000D02*
D03*
Y1008000D02*
D03*
X1933500Y1160500D02*
D03*
X1934500Y1128500D02*
D03*
X2922000Y1565000D02*
D03*
X2878000D02*
D03*
D53*
X2301800Y1013000D02*
D03*
D54*
X2860000Y702200D02*
D03*
X1883250Y1551000D02*
D03*
D55*
X1784750Y1551250D02*
D03*
D56*
X1759350Y1525850D02*
D03*
Y1576650D02*
D03*
X1810150D02*
D03*
Y1525850D02*
D03*
D57*
X2812000Y828000D02*
D03*
X2824000D02*
D03*
X2836000D02*
D03*
X2848000D02*
D03*
X2860000D02*
D03*
X2872000D02*
D03*
X2884000D02*
D03*
X2896000D02*
D03*
X2908000D02*
D03*
X2920000D02*
D03*
X2932000D02*
D03*
X2944000D02*
D03*
X2992000D02*
D03*
X2980000D02*
D03*
X2968000D02*
D03*
X2956000D02*
D03*
Y1056000D02*
D03*
X2968000D02*
D03*
X2980000D02*
D03*
X2992000D02*
D03*
X2800000Y684000D02*
D03*
Y660000D02*
D03*
Y672000D02*
D03*
Y648000D02*
D03*
Y696000D02*
D03*
Y708000D02*
D03*
Y732000D02*
D03*
Y720000D02*
D03*
Y744000D02*
D03*
Y756000D02*
D03*
Y780000D02*
D03*
Y768000D02*
D03*
Y792000D02*
D03*
Y804000D02*
D03*
Y828000D02*
D03*
Y816000D02*
D03*
Y840000D02*
D03*
Y852000D02*
D03*
Y876000D02*
D03*
Y864000D02*
D03*
Y888000D02*
D03*
Y900000D02*
D03*
Y924000D02*
D03*
Y912000D02*
D03*
Y936000D02*
D03*
Y948000D02*
D03*
Y972000D02*
D03*
Y960000D02*
D03*
Y984000D02*
D03*
Y996000D02*
D03*
Y1008000D02*
D03*
Y1020000D02*
D03*
Y1044000D02*
D03*
Y1032000D02*
D03*
Y1056000D02*
D03*
Y1068000D02*
D03*
Y1092000D02*
D03*
Y1080000D02*
D03*
Y1104000D02*
D03*
Y1116000D02*
D03*
Y1140000D02*
D03*
Y1128000D02*
D03*
Y1152000D02*
D03*
Y1164000D02*
D03*
Y1188000D02*
D03*
Y1176000D02*
D03*
Y1200000D02*
D03*
Y1212000D02*
D03*
Y1236000D02*
D03*
Y1224000D02*
D03*
Y1248000D02*
D03*
Y1260000D02*
D03*
Y1284000D02*
D03*
Y1272000D02*
D03*
Y1296000D02*
D03*
Y1308000D02*
D03*
X2944000Y1056000D02*
D03*
X2932000D02*
D03*
X2920000D02*
D03*
X2908000D02*
D03*
X2896000D02*
D03*
X2884000D02*
D03*
X2872000D02*
D03*
X2860000D02*
D03*
X2848000D02*
D03*
X2836000D02*
D03*
X2824000D02*
D03*
X2812000D02*
D03*
X2800000Y1620000D02*
D03*
Y1608000D02*
D03*
Y1584000D02*
D03*
Y1596000D02*
D03*
Y1572000D02*
D03*
Y1560000D02*
D03*
Y1536000D02*
D03*
Y1548000D02*
D03*
Y1524000D02*
D03*
Y1512000D02*
D03*
Y1488000D02*
D03*
Y1500000D02*
D03*
Y1476000D02*
D03*
Y1464000D02*
D03*
Y1440000D02*
D03*
Y1452000D02*
D03*
Y1428000D02*
D03*
Y1416000D02*
D03*
Y1392000D02*
D03*
Y1404000D02*
D03*
Y1380000D02*
D03*
Y1368000D02*
D03*
Y1344000D02*
D03*
Y1356000D02*
D03*
Y1332000D02*
D03*
Y1320000D02*
D03*
X2161500Y1243500D02*
D03*
X1913000Y1123000D02*
D03*
X2768600Y1524000D02*
D03*
X2743200Y1473200D02*
D03*
X2768600Y1422400D02*
D03*
X2743200Y1371600D02*
D03*
X2768600Y1320800D02*
D03*
X2743200Y1270000D02*
D03*
X2768600Y1219200D02*
D03*
X2743200Y1168400D02*
D03*
X2768600Y1117600D02*
D03*
X2743200Y1066800D02*
D03*
X2768600Y1016000D02*
D03*
X2743200Y965200D02*
D03*
X2768600Y914400D02*
D03*
X2743200Y863600D02*
D03*
X2768600Y812800D02*
D03*
X2743200Y762000D02*
D03*
X2768600Y711200D02*
D03*
X2692400Y1574800D02*
D03*
X2717800Y1524000D02*
D03*
X2692400Y1473200D02*
D03*
X2717800Y1422400D02*
D03*
Y1219200D02*
D03*
X2692400Y1168400D02*
D03*
X2717800Y1117600D02*
D03*
X2692400Y1066800D02*
D03*
X2717800Y1016000D02*
D03*
X2692400Y965200D02*
D03*
X2717800Y914400D02*
D03*
X2692400Y863600D02*
D03*
X2717800Y812800D02*
D03*
X2692400Y762000D02*
D03*
X2717800Y711200D02*
D03*
X2692400Y660400D02*
D03*
X2667000Y1524000D02*
D03*
X2641600Y1473200D02*
D03*
X2667000Y1422400D02*
D03*
Y1219200D02*
D03*
Y1117600D02*
D03*
X2641600Y1066800D02*
D03*
X2667000Y1016000D02*
D03*
X2641600Y965200D02*
D03*
X2667000Y914400D02*
D03*
X2641600Y863600D02*
D03*
X2667000Y812800D02*
D03*
X2641600Y762000D02*
D03*
X2667000Y711200D02*
D03*
X2590800Y1574800D02*
D03*
X2616200Y1524000D02*
D03*
X2590800Y1473200D02*
D03*
X2616200Y1422400D02*
D03*
X2590800Y1371600D02*
D03*
Y1066800D02*
D03*
X2616200Y1016000D02*
D03*
X2590800Y965200D02*
D03*
X2616200Y914400D02*
D03*
X2590800Y863600D02*
D03*
X2616200Y812800D02*
D03*
X2590800Y762000D02*
D03*
X2616200Y711200D02*
D03*
X2590800Y660400D02*
D03*
X2540000Y1574800D02*
D03*
X2565400Y1524000D02*
D03*
X2540000Y1473200D02*
D03*
X2565400Y1422400D02*
D03*
X2540000Y1371600D02*
D03*
Y1270000D02*
D03*
Y1168400D02*
D03*
Y1066800D02*
D03*
X2565400Y1016000D02*
D03*
X2540000Y965200D02*
D03*
Y762000D02*
D03*
X2565400Y711200D02*
D03*
X2540000Y660400D02*
D03*
X2489200Y1574800D02*
D03*
X2514600Y1524000D02*
D03*
X2489200Y1473200D02*
D03*
X2514600Y1422400D02*
D03*
Y1016000D02*
D03*
X2489200Y863600D02*
D03*
Y762000D02*
D03*
X2514600Y711200D02*
D03*
X2438400Y1574800D02*
D03*
X2463800Y1524000D02*
D03*
X2438400Y1473200D02*
D03*
X2463800Y1422400D02*
D03*
Y1320800D02*
D03*
Y1016000D02*
D03*
X2438400Y863600D02*
D03*
X2463800Y812800D02*
D03*
X2438400Y762000D02*
D03*
X2387600Y1574800D02*
D03*
Y1473200D02*
D03*
Y1371600D02*
D03*
X2413000Y1320800D02*
D03*
Y1016000D02*
D03*
X2387600Y965200D02*
D03*
Y762000D02*
D03*
X2336800Y1574800D02*
D03*
Y1473200D02*
D03*
X2362200Y1219200D02*
D03*
Y1016000D02*
D03*
X2336800Y965200D02*
D03*
X2362200Y914400D02*
D03*
X2286000Y1574800D02*
D03*
Y1473200D02*
D03*
X2311400Y1422400D02*
D03*
X2286000Y1371600D02*
D03*
X2311400Y1219200D02*
D03*
X2286000Y965200D02*
D03*
X2311400Y914400D02*
D03*
X2286000Y863600D02*
D03*
X2311400Y812800D02*
D03*
X2235200Y1574800D02*
D03*
Y1473200D02*
D03*
X2260600Y1422400D02*
D03*
X2235200Y1371600D02*
D03*
Y1066800D02*
D03*
X2260600Y812800D02*
D03*
X2184400Y1574800D02*
D03*
X2209800Y1524000D02*
D03*
X2184400Y1473200D02*
D03*
X2209800Y1422400D02*
D03*
X2184400Y1371600D02*
D03*
X2209800Y711200D02*
D03*
X2133600Y1574800D02*
D03*
X2159000Y1524000D02*
D03*
X2133600Y1473200D02*
D03*
X2159000Y1320800D02*
D03*
X2133600Y863600D02*
D03*
X2159000Y711200D02*
D03*
X2082800Y1574800D02*
D03*
X2108200Y1524000D02*
D03*
X2082800Y1473200D02*
D03*
X2108200Y1422400D02*
D03*
X2082800Y1371600D02*
D03*
X2032000Y1574800D02*
D03*
X2057400Y1320800D02*
D03*
X2032000Y863600D02*
D03*
Y660400D02*
D03*
X1981200Y1574800D02*
D03*
X2006600Y1320800D02*
D03*
X1981200Y863600D02*
D03*
X2006600Y812800D02*
D03*
X1981200Y762000D02*
D03*
X2006600Y711200D02*
D03*
X1981200Y660400D02*
D03*
X1930400Y1574800D02*
D03*
X1955800Y1524000D02*
D03*
X1930400Y863600D02*
D03*
X1955800Y812800D02*
D03*
X1930400Y762000D02*
D03*
X1955800Y711200D02*
D03*
X1930400Y660400D02*
D03*
X1879600Y1574800D02*
D03*
X1905000Y1524000D02*
D03*
Y1219200D02*
D03*
X1879600Y863600D02*
D03*
X1905000Y812800D02*
D03*
X1879600Y762000D02*
D03*
X1905000Y711200D02*
D03*
X1879600Y660400D02*
D03*
X1854200Y1524000D02*
D03*
X1828800Y1473200D02*
D03*
X1854200Y1422400D02*
D03*
X1828800Y1371600D02*
D03*
Y1168400D02*
D03*
X1854200Y1117600D02*
D03*
Y1016000D02*
D03*
X1828800Y863600D02*
D03*
X1854200Y812800D02*
D03*
X1828800Y762000D02*
D03*
X1854200Y711200D02*
D03*
X1828800Y660400D02*
D03*
X1778000Y1473200D02*
D03*
Y1371600D02*
D03*
X1803400Y1320800D02*
D03*
Y812800D02*
D03*
Y711200D02*
D03*
X1727200Y1574800D02*
D03*
Y1473200D02*
D03*
X1752600Y1320800D02*
D03*
Y1117600D02*
D03*
X1727200Y1066800D02*
D03*
X1676400Y1574800D02*
D03*
X1701800Y1524000D02*
D03*
X1676400Y1473200D02*
D03*
X1701800Y1320800D02*
D03*
X1676400Y863600D02*
D03*
X1701800Y812800D02*
D03*
X1625600Y1574800D02*
D03*
X1651000Y1524000D02*
D03*
X1625600Y1473200D02*
D03*
Y1371600D02*
D03*
Y1270000D02*
D03*
X1651000Y1117600D02*
D03*
Y914400D02*
D03*
X1574800Y1574800D02*
D03*
X1600200Y1524000D02*
D03*
X1574800Y1473200D02*
D03*
X1600200Y1422400D02*
D03*
X1574800Y1371600D02*
D03*
X1600200Y1320800D02*
D03*
X1574800Y1270000D02*
D03*
X1600200Y1016000D02*
D03*
Y914400D02*
D03*
X1574800Y762000D02*
D03*
X1524000Y1574800D02*
D03*
X1549400Y1524000D02*
D03*
X1524000Y1473200D02*
D03*
X1549400Y1422400D02*
D03*
X1524000Y1371600D02*
D03*
X1549400Y1320800D02*
D03*
X1524000Y1270000D02*
D03*
Y965200D02*
D03*
Y660400D02*
D03*
X1473200Y1574800D02*
D03*
X1498600Y1524000D02*
D03*
X1473200Y1473200D02*
D03*
X1498600Y1422400D02*
D03*
X1473200Y1371600D02*
D03*
X1498600Y1320800D02*
D03*
Y1219200D02*
D03*
Y914400D02*
D03*
Y812800D02*
D03*
Y711200D02*
D03*
X1473200Y660400D02*
D03*
X1447800Y1524000D02*
D03*
X1422400Y1473200D02*
D03*
X1447800Y1422400D02*
D03*
X1422400Y1371600D02*
D03*
X1447800Y1320800D02*
D03*
X1422400Y1270000D02*
D03*
X1447800Y1219200D02*
D03*
X1422400Y1168400D02*
D03*
X1447800Y1117600D02*
D03*
X1422400Y965200D02*
D03*
Y863600D02*
D03*
X1447800Y812800D02*
D03*
Y711200D02*
D03*
X1932000Y1379000D02*
D03*
X1949000Y1266000D02*
D03*
X1955000Y1373000D02*
D03*
X1965000Y1265000D02*
D03*
X2011000Y1275000D02*
D03*
X1879000Y1345000D02*
D03*
X1851000Y1276000D02*
D03*
X1876000Y1322000D02*
D03*
X1869000Y1271000D02*
D03*
X1892000Y1315000D02*
D03*
Y1273000D02*
D03*
X1993000Y1277000D02*
D03*
X1858750Y1102000D02*
D03*
X1690000Y722000D02*
D03*
X1672000D02*
D03*
X1681000Y732500D02*
D03*
X1688000Y1436500D02*
D03*
X1657500Y1436500D02*
D03*
X2038750Y1161000D02*
D03*
X2922997Y1465000D02*
D03*
X2896750Y1436250D02*
D03*
X2874600Y1337600D02*
D03*
X2970000Y1396000D02*
D03*
X2948500Y1286500D02*
D03*
X2959500Y1459500D02*
D03*
X2959997Y1501000D02*
D03*
X2900500Y1504500D02*
D03*
X2427000Y799000D02*
D03*
X2345500Y817500D02*
D03*
X1739400Y1236850D02*
D03*
X1729500Y1261750D02*
D03*
X1836500Y1020500D02*
D03*
X2026000Y1273000D02*
D03*
X2183998Y1203001D02*
D03*
X2148000Y775000D02*
D03*
X1822000Y912000D02*
D03*
X1727000Y974000D02*
D03*
X2046000Y803000D02*
D03*
X2429000Y1088000D02*
D03*
X2196000Y1085000D02*
D03*
X2046000Y941000D02*
D03*
X2891000Y1386000D02*
D03*
X2865000Y1375000D02*
D03*
X2948500Y1265500D02*
D03*
X2903997Y1375000D02*
D03*
X2324300Y1359700D02*
D03*
X2178000Y1399000D02*
D03*
X2239000Y1352000D02*
D03*
X2269000Y1345000D02*
D03*
X2312000Y1346000D02*
D03*
X2201000Y1297000D02*
D03*
X2236000Y1337000D02*
D03*
X2139000Y1160000D02*
D03*
X2020999Y1206001D02*
D03*
Y1129001D02*
D03*
X1983250Y1079000D02*
D03*
X2018999Y1014001D02*
D03*
X2104000Y946000D02*
D03*
X2429500Y1182500D02*
D03*
X2451000Y1259000D02*
D03*
X2449000Y1347000D02*
D03*
X2229000Y773000D02*
D03*
X2149000Y805000D02*
D03*
X2040250Y1209331D02*
D03*
X2159000Y1194000D02*
D03*
X2021000Y1115000D02*
D03*
X1969000Y952000D02*
D03*
X1984000Y1002000D02*
D03*
X2028000Y1049000D02*
D03*
X2152000Y949000D02*
D03*
X2299000Y1286000D02*
D03*
X2271000Y801000D02*
D03*
X1768999Y943001D02*
D03*
X1624000Y718000D02*
D03*
X1654000Y715000D02*
D03*
X2310000Y1133000D02*
D03*
X2267000Y1223000D02*
D03*
X2297000Y1123000D02*
D03*
X2257000Y1209000D02*
D03*
X2281000Y1112000D02*
D03*
X2245000Y1200000D02*
D03*
X2267000Y1102000D02*
D03*
X2234000Y1187000D02*
D03*
X2252000Y1135000D02*
D03*
X2250000Y1119000D02*
D03*
X2220000Y1114000D02*
D03*
X2252000Y1102000D02*
D03*
X2215000Y1100000D02*
D03*
X2131000Y1144000D02*
D03*
X2196998Y927001D02*
D03*
X2106000Y1154000D02*
D03*
X2207000Y957000D02*
D03*
X2244000Y900000D02*
D03*
X2135000Y1089000D02*
D03*
X2232000Y945000D02*
D03*
X2122000Y1094000D02*
D03*
X2218000Y974000D02*
D03*
X2109000Y1105000D02*
D03*
X2077000Y1099000D02*
D03*
X2037000D02*
D03*
X2075000Y1124000D02*
D03*
X2037000Y1127000D02*
D03*
X2088000Y1342000D02*
D03*
X2070999Y1251001D02*
D03*
X2047000Y1055000D02*
D03*
X2105000Y1338000D02*
D03*
X1567625Y968375D02*
D03*
X1590935Y1048250D02*
D03*
X1713064Y935500D02*
D03*
D58*
X2548000Y928000D02*
D03*
X2437800Y660000D02*
D03*
X2412400D02*
D03*
X2463200D02*
D03*
X2488600D02*
D03*
X2514000D02*
D03*
D59*
X2116000Y653800D02*
D03*
X2065200D02*
D03*
Y730000D02*
D03*
X2187200D02*
D03*
Y653800D02*
D03*
X2238000D02*
D03*
X2505970Y1167820D02*
D03*
Y1218620D02*
D03*
X2582170D02*
D03*
X2583170Y1311870D02*
D03*
X2506970D02*
D03*
Y1261070D02*
D03*
X2506800Y1354000D02*
D03*
Y1404800D02*
D03*
X2583000D02*
D03*
X1451000Y869200D02*
D03*
Y920000D02*
D03*
X2427000Y1560000D02*
D03*
D60*
X2116000Y730000D02*
D03*
X2238000D02*
D03*
D61*
X2582170Y1167820D02*
D03*
X2583170Y1261070D02*
D03*
X2583000Y1354000D02*
D03*
D62*
X2387000Y660000D02*
D03*
D63*
X2147000Y1560000D02*
D03*
D64*
X2659000Y675000D02*
D03*
Y1585000D02*
D03*
X1441000Y675000D02*
D03*
X2759000D02*
D03*
Y1585000D02*
D03*
X1441000D02*
D03*
D65*
X2827000Y1159000D02*
D03*
X2983000D02*
D03*
X1497500Y1122750D02*
D03*
Y1278750D02*
D03*
D66*
X2962150Y1129550D02*
D03*
X2847850D02*
D03*
X1468050Y1257900D02*
D03*
Y1143600D02*
D03*
D67*
X2885950Y1193050D02*
D03*
X2911350D02*
D03*
X2898650Y1218450D02*
D03*
X2924050D02*
D03*
X2936750Y1193050D02*
D03*
X2873250Y1218450D02*
D03*
X2949450D02*
D03*
X1556950Y1156300D02*
D03*
Y1232500D02*
D03*
X1531550Y1169000D02*
D03*
X1556950Y1181700D02*
D03*
Y1207100D02*
D03*
X1531550Y1194400D02*
D03*
Y1219800D02*
D03*
D68*
X2860550Y1193050D02*
D03*
D69*
X1531550Y1245200D02*
D03*
M02*
