M48
;Layer_Color=9474304
;FILE_FORMAT=4:4
METRIC,LZ
;TYPE=PLATED
T1F00S00C0.5000
T2F00S00C0.9000
T3F00S00C1.0000
T4F00S00C1.1000
T5F00S00C1.3000
T6F00S00C1.5000
T7F00S00C1.7000
T8F00S00C1.8000
T9F00S00C3.2000
%
T01
X023876Y00762
X024384
X024892
X0254
X025908
X026416
X026924
X027432
X027178Y007112
X02667
X026162
X025654
X025146
X0254Y006604
X025908
X026924
X027686Y007112
X022098
X02159
X02148Y00775
X02229Y00773
X020066Y007112
X02032Y006604
X019812
X019304
X018796
X018288
X018034Y007112
X018542
X01905
X019558
X019304Y00762
X018796
X018288
X019812
X01681Y007325
X01672Y00722
X0169
X01654Y00715
X01624Y00718
X015748Y00762
X014986Y007112
X014478
X014732Y006604
X01524
X014986Y008128
X014478
X014224Y008636
Y009652
X01524
X01567625Y00968375
X014986Y009144
X014478Y011176
X014224Y011684
X01651Y011176
X017526
X017272Y010668
X01727Y00974
X01713064Y009355
X01768999Y00943001
X01822Y00912
X018288Y008636
X018796
X019304
X019812
X019558Y008128
X01905
X018542
X018034
X017018
X016764Y008636
X01651Y009144
X016002
Y01016
X01590935Y0104825
X018365Y010205
X018542Y01016
X0185875Y01102
X018542Y011176
X01913Y01123
X0198325Y01079
X01984Y01002
X01969Y00952
X018288Y011684
X0203875Y01161
X02037Y01127
X02020999Y01129001
X02021Y01115
X02037Y01099
X02077
X02075Y01124
X02109Y01105
X02122Y01094
X02135Y01089
X02131Y01144
X02139Y0116
X02106Y01154
X0222Y01114
X02215Y011
X02196Y01085
X022352Y010668
X02252Y01102
X02267
X02281Y01112
X02297Y01123
X0231Y01133
X02252Y01135
X0225Y01119
X02234Y01187
X02218Y00974
X02207Y00957
X02232Y00945
X02196998Y00927001
X02152Y00949
X02104Y00946
X02046Y00941
X02032Y008636
X02046Y00803
X020066Y008128
X02149Y00805
X021336Y008636
X02244Y009
X02286Y008636
X022606Y008128
X02271Y00801
X023114Y008128
X023455Y008175
X023622Y009144
X023114
X02286Y009652
X023368
X023622Y01016
X02018999Y01014001
X02028Y01049
X02047Y01055
X02413Y01016
X024638
X025146
X025654
X026162
X02667
X027178
X027686
X027432Y009652
X026924
X026416
X025908
X0254
Y010668
X025908
X026416
X026924
X027432
X027178Y011176
X02667
X026924Y011684
X027432
X027686Y011176
Y009144
X027178
X02667
X026162
X025908Y008636
X026416
X026924
X027432
X027178Y008128
X02667
X026162
X024638
X02427Y00799
X024384Y008636
X024892
X023876Y009652
X02429Y01088
X024295Y011825
X0254Y011684
X027686Y008128
X028746Y013376
X02865Y01375
X02891Y01386
X02903997Y01375
X0289675Y0143625
X02922997Y01465
X029595Y014595
X02959997Y01501
X029005Y015045
X0297Y01396
X029485Y012865
Y012655
X027432Y0127
X027178Y012192
X02667
X027686
Y013208
X027432Y013716
X027178Y014224
X02667
X026162
X025654
X025146
X024638
X024384Y014732
X023876
Y013716
X02413Y013208
X024638
X02449Y01347
X02451Y01259
X0254Y0127
Y013716
X025908
Y014732
X0254
X024892
X024638Y01524
X025146
X025654
X026162
X02667
X027178
X027686
X027432Y014732
X026924
X026416
X025908Y015748
X0254
X024892
X024384
X023876
X026924
X027686Y014224
X023114
X022606
X022098
X02178Y01399
X021844Y013716
X022352
X02239Y01352
X02236Y01337
X02269Y01345
X02286Y013716
X023243Y013597
X02312Y01346
X02299Y01286
X023114Y012192
X02267Y01223
X02257Y01209
X02245Y012
X02183998Y01203001
X02159Y01194
X021615Y012435
X02159Y013208
X02201Y01297
X02105Y01338
X02088Y01342
X020828Y013716
X020574Y013208
X020066
X02011Y01275
X02026Y01273
X01993Y01277
X02020999Y01206001
X0204025Y01209331
X02070999Y01251001
X021082Y014224
X020828Y014732
X021336
X021844
X022352
X02286
X023368
Y015748
X02286
X022352
X021844
X021336
X020828
X02032
X021082Y01524
X02159
X022098
X023622Y012192
X01965Y01265
X01949Y01266
X01892Y01273
X01869Y01271
X01851Y01276
X01876Y01322
X01892Y01315
X01879Y01345
X018288Y013716
X01778
X017526Y013208
X017018
X017295Y0126175
X017394Y0123685
X016256Y0127
X016002Y013208
X016256Y013716
X016002Y014224
X016575Y014365
X01688Y014365
X016764Y014732
X016256
X016002Y01524
X01651
X017018
X016764Y015748
X016256
X017272
Y014732
X01778
X018288
X018542Y014224
Y01524
X01905
X019558
X019304Y015748
X018796
X019812
X01955Y01373
X01932Y01379
X018034Y013208
X01905Y012192
X015748Y0127
X01524
X014986Y012192
X014478
X014224Y0127
X014478Y013208
X014986
X015494
X01524Y013716
X014732
X014224
X014478Y014224
X014986
X015494
X01524Y014732
X014732
X014224
X014478Y01524
X014986
X015494
X01524Y015748
X014732
X015748
Y014732
Y013716
T02
X0286Y007022
Y007276
Y00753
X0293
Y007276
Y007022
X0155695Y011563
Y011817
X0153155Y01169
X019335Y011605
X019345Y011285
X018765Y01047
Y00998
X02251Y01013
X022764
X023018
Y01083
X022764
X02251
X0286055Y0119305
X0288595
X0291135
X0293675
X0294945Y0121845
X0292405
X0289865
X0287325
X0204615Y01376
Y01401
Y01426
Y01451
Y01476
Y01501
Y01526
Y01551
X0188325
Y01526
Y01501
Y01476
Y01451
Y01426
Y01401
Y01376
X0155695Y012325
Y012071
X0153155Y012198
Y011944
Y012452
T03
X028Y00648
Y0066
Y00672
Y00684
Y00696
Y00708
Y0072
Y00732
Y00744
Y00756
Y00768
Y0078
Y00792
X02514Y0066
X024886
X024632
X024378
X024124
X02387
X015128Y00747
Y007724
X014874
X01462
Y00747
X014874
X0153711Y008563
Y008817
X0147Y01008
Y01052
X016623Y0106511
X016877
Y0103811
X016623
Y0101111
X016877
X0160211Y011313
Y011567
X02548Y00928
X028Y00924
Y00936
Y00948
Y0096
Y00972
Y00984
Y00996
Y01008
Y0102
Y01032
Y01044
Y01056
Y01068
Y0108
Y01092
Y01104
Y01116
Y01128
Y0114
Y01152
Y01164
Y01176
Y01188
X02812Y01056
X02824
X02836
X02848
X0286
X02872
X02884
X02896
X02908
X0292
X02932
X02944
X02956
X02968
X0298
X02992
Y00828
X0298
X02968
X02956
X02944
X02932
X0292
X02908
X02896
X02884
X02872
X0286
X02848
X02836
X02824
X02812
X028
Y0084
Y00852
Y00864
Y00876
Y00888
Y009
Y00912
Y00816
Y00804
Y012
Y01212
Y01224
Y01236
Y01248
Y0126
Y01272
Y01284
Y01296
Y01308
Y0132
Y01332
Y01344
Y01356
Y01368
Y0138
Y01392
Y01404
Y01416
Y01428
Y0144
Y01452
Y01464
Y01476
Y01488
Y015
Y01512
Y01524
Y01536
Y01548
Y0156
Y01572
Y01584
X02878Y01565
X02922
X028Y01596
Y01608
Y0162
T04
X020652Y006538
X02116
X021872
X02238
Y0073
X021872
X02116
X020652
X0250597Y0116782
X0258217
Y0121862
X0258317Y0126107
Y0131187
X02583Y01354
Y014048
X025068
Y01354
X0250697Y0131187
Y0126107
X0250597Y0121862
T05
X01451Y008692
Y0092
X02427Y0156
X02147
T06
X0178475Y0155125
T07
X014975Y0112275
X02827Y01159
X02983
X014975Y0127875
T08
X0175935Y0152585
X0181015
Y0157665
X0175935
T09
X02659Y00675
X02759
X01441
X0146805Y011436
X0284785Y0112955
X0296215
X02759Y01585
X02659
X01441
X0146805Y012579
M30
