G04 Layer_Color=8388736*
%FSLAX44Y44*%
%MOMM*%
G71*
G01*
G75*
%ADD69O,1.6000X0.7500*%
%ADD70O,0.7500X1.6000*%
%ADD71R,1.7000X1.5500*%
%ADD72R,1.6000X1.5000*%
G04:AMPARAMS|DCode=73|XSize=2.15mm|YSize=2.65mm|CornerRadius=0.575mm|HoleSize=0mm|Usage=FLASHONLY|Rotation=180.000|XOffset=0mm|YOffset=0mm|HoleType=Round|Shape=RoundedRectangle|*
%AMROUNDEDRECTD73*
21,1,2.1500,1.5000,0,0,180.0*
21,1,1.0000,2.6500,0,0,180.0*
1,1,1.1500,-0.5000,0.7500*
1,1,1.1500,0.5000,0.7500*
1,1,1.1500,0.5000,-0.7500*
1,1,1.1500,-0.5000,-0.7500*
%
%ADD73ROUNDEDRECTD73*%
%ADD74O,0.6500X2.6500*%
%ADD75O,0.4500X2.0000*%
%ADD76R,1.3500X0.8000*%
%ADD77R,1.5500X1.7000*%
%ADD78R,1.5000X1.6000*%
%ADD79R,1.4500X2.0500*%
G04:AMPARAMS|DCode=80|XSize=2.15mm|YSize=2.65mm|CornerRadius=0.575mm|HoleSize=0mm|Usage=FLASHONLY|Rotation=270.000|XOffset=0mm|YOffset=0mm|HoleType=Round|Shape=RoundedRectangle|*
%AMROUNDEDRECTD80*
21,1,2.1500,1.5000,0,0,270.0*
21,1,1.0000,2.6500,0,0,270.0*
1,1,1.1500,-0.7500,-0.5000*
1,1,1.1500,-0.7500,0.5000*
1,1,1.1500,0.7500,0.5000*
1,1,1.1500,0.7500,-0.5000*
%
%ADD80ROUNDEDRECTD80*%
%ADD81O,2.6500X0.6500*%
%ADD82R,2.1500X1.1500*%
%ADD83R,1.7000X1.1500*%
%ADD84R,2.1500X1.3500*%
%ADD85R,1.1500X1.7500*%
%ADD86R,0.8000X4.1500*%
%ADD87R,3.3500X2.6600*%
G04:AMPARAMS|DCode=88|XSize=0.95mm|YSize=1.95mm|CornerRadius=0.175mm|HoleSize=0mm|Usage=FLASHONLY|Rotation=270.000|XOffset=0mm|YOffset=0mm|HoleType=Round|Shape=RoundedRectangle|*
%AMROUNDEDRECTD88*
21,1,0.9500,1.6000,0,0,270.0*
21,1,0.6000,1.9500,0,0,270.0*
1,1,0.3500,-0.8000,-0.3000*
1,1,0.3500,-0.8000,0.3000*
1,1,0.3500,0.8000,0.3000*
1,1,0.3500,0.8000,-0.3000*
%
%ADD88ROUNDEDRECTD88*%
%ADD89O,1.8000X0.5000*%
%ADD90O,0.5000X1.8000*%
%ADD91R,4.1000X5.6500*%
%ADD92R,1.5500X1.1500*%
%ADD93R,2.1000X2.4000*%
%ADD94R,1.1500X1.5500*%
%ADD95R,2.3000X3.7000*%
%ADD96R,2.6000X2.5500*%
%ADD97C,1.0600*%
%ADD98C,2.6500*%
%ADD99C,3.9500*%
%ADD100C,1.6500*%
%ADD101R,1.6500X1.6500*%
%ADD102R,1.6500X1.6500*%
%ADD103C,3.3500*%
%ADD104C,1.6500*%
%ADD105C,1.9500*%
%ADD106C,1.8500*%
%ADD107C,1.5500*%
%ADD108R,1.5500X1.5500*%
%ADD109R,1.9500X1.9500*%
%ADD110R,1.9500X1.9500*%
%ADD111R,1.6500X1.6500*%
%ADD112C,2.5500*%
%ADD113C,2.4500*%
%ADD114R,1.6500X1.6500*%
%ADD115C,1.1500*%
D69*
X1659250Y1236850D02*
D03*
Y1224150D02*
D03*
Y1211450D02*
D03*
Y1198750D02*
D03*
Y1186050D02*
D03*
Y1173350D02*
D03*
Y1160650D02*
D03*
X1713750Y1236850D02*
D03*
Y1224150D02*
D03*
Y1211450D02*
D03*
Y1198750D02*
D03*
Y1186050D02*
D03*
Y1173350D02*
D03*
Y1160650D02*
D03*
D70*
X2938100Y1357250D02*
D03*
X2925400D02*
D03*
X2912700D02*
D03*
X2900000D02*
D03*
X2887300D02*
D03*
X2874600D02*
D03*
X2861900D02*
D03*
X2938100Y1302750D02*
D03*
X2925400D02*
D03*
X2912700D02*
D03*
X2900000D02*
D03*
X2887300D02*
D03*
X2874600D02*
D03*
X2861900D02*
D03*
X1661950Y699750D02*
D03*
X1674650D02*
D03*
X1687350D02*
D03*
X1700050D02*
D03*
X1661950Y754250D02*
D03*
X1674650D02*
D03*
X1687350D02*
D03*
X1700050D02*
D03*
D71*
X1825000Y1446500D02*
D03*
Y1427500D02*
D03*
X2980000Y1485500D02*
D03*
Y1504500D02*
D03*
Y1440500D02*
D03*
Y1459500D02*
D03*
X1795500Y1446000D02*
D03*
Y1427000D02*
D03*
X1767500Y1446000D02*
D03*
Y1427000D02*
D03*
X1739500Y1446000D02*
D03*
Y1427000D02*
D03*
X2553000Y897500D02*
D03*
Y878500D02*
D03*
X1559000Y1088500D02*
D03*
Y1107500D02*
D03*
X1647000Y933500D02*
D03*
Y952500D02*
D03*
X1619000Y933500D02*
D03*
Y952500D02*
D03*
X1611000Y700500D02*
D03*
Y681500D02*
D03*
X1638000Y700500D02*
D03*
Y681500D02*
D03*
X2423000Y1067500D02*
D03*
Y1048500D02*
D03*
X2452000Y1067500D02*
D03*
Y1048500D02*
D03*
X2394000Y1067500D02*
D03*
Y1048500D02*
D03*
X2364000Y1067500D02*
D03*
Y1048500D02*
D03*
X2032000Y954500D02*
D03*
Y973500D02*
D03*
X2004000Y954500D02*
D03*
Y973500D02*
D03*
X2138000Y987500D02*
D03*
Y968500D02*
D03*
X2179000Y1224500D02*
D03*
Y1243500D02*
D03*
X2147000Y1224500D02*
D03*
Y1243500D02*
D03*
X2054000Y1221500D02*
D03*
Y1240500D02*
D03*
X2058000Y973500D02*
D03*
Y954500D02*
D03*
X2026000Y1221500D02*
D03*
Y1240500D02*
D03*
X2183000Y1171500D02*
D03*
Y1190500D02*
D03*
X2165000Y987500D02*
D03*
Y968500D02*
D03*
X1836500Y973000D02*
D03*
Y992000D02*
D03*
Y1072000D02*
D03*
Y1053000D02*
D03*
X2478000Y1387500D02*
D03*
Y1368500D02*
D03*
X2478000Y1297500D02*
D03*
Y1278500D02*
D03*
X2476000Y1202500D02*
D03*
Y1183500D02*
D03*
X2971000Y728500D02*
D03*
Y709500D02*
D03*
D72*
X2970000Y1333500D02*
D03*
Y1312500D02*
D03*
Y1357500D02*
D03*
Y1378500D02*
D03*
Y1265500D02*
D03*
Y1286500D02*
D03*
X1611000Y1202500D02*
D03*
Y1181500D02*
D03*
X2873000Y1267500D02*
D03*
Y1246500D02*
D03*
X1637000Y733500D02*
D03*
Y754500D02*
D03*
X1611000Y733500D02*
D03*
Y754500D02*
D03*
X1674000Y932500D02*
D03*
Y953500D02*
D03*
X2104000Y961500D02*
D03*
Y982500D02*
D03*
X1969000Y1015500D02*
D03*
Y1036500D02*
D03*
X2451000Y1367500D02*
D03*
Y1388500D02*
D03*
X2451000Y1277500D02*
D03*
Y1298500D02*
D03*
X1997000Y1220500D02*
D03*
Y1241500D02*
D03*
X2449000Y1182500D02*
D03*
Y1203500D02*
D03*
X1546000Y858500D02*
D03*
Y879500D02*
D03*
X2827000Y1333500D02*
D03*
Y1312500D02*
D03*
Y1431500D02*
D03*
Y1452500D02*
D03*
X1611000Y1154500D02*
D03*
Y1133500D02*
D03*
D73*
X2855500Y1595000D02*
D03*
X2944500D02*
D03*
X2855500Y1540000D02*
D03*
X2944500D02*
D03*
D74*
X2916000Y1537000D02*
D03*
X2908000D02*
D03*
X2900000D02*
D03*
X2892000D02*
D03*
X2884000D02*
D03*
D75*
X2942250Y1487250D02*
D03*
X2935750D02*
D03*
X2929250D02*
D03*
X2922750D02*
D03*
X2916250D02*
D03*
X2909750D02*
D03*
X2903250D02*
D03*
X2896750D02*
D03*
X2890250D02*
D03*
X2883750D02*
D03*
X2877250D02*
D03*
X2870750D02*
D03*
X2864250D02*
D03*
X2857750D02*
D03*
X2942250Y1412750D02*
D03*
X2935750D02*
D03*
X2929250D02*
D03*
X2922750D02*
D03*
X2916250D02*
D03*
X2909750D02*
D03*
X2903250D02*
D03*
X2896750D02*
D03*
X2890250D02*
D03*
X2883750D02*
D03*
X2877250D02*
D03*
X2870750D02*
D03*
X2864250D02*
D03*
X2857750D02*
D03*
X1545750Y988750D02*
D03*
X1552250D02*
D03*
X1558750D02*
D03*
X1565250D02*
D03*
X1571750D02*
D03*
X1578250D02*
D03*
X1584750D02*
D03*
X1591250D02*
D03*
X1597750D02*
D03*
X1604250D02*
D03*
X1610750D02*
D03*
X1617250D02*
D03*
X1623750D02*
D03*
X1630250D02*
D03*
X1545750Y1063250D02*
D03*
X1552250D02*
D03*
X1558750D02*
D03*
X1565250D02*
D03*
X1571750D02*
D03*
X1578250D02*
D03*
X1584750D02*
D03*
X1591250D02*
D03*
X1597750D02*
D03*
X1604250D02*
D03*
X1610750D02*
D03*
X1617250D02*
D03*
X1623750D02*
D03*
X1630250D02*
D03*
D76*
X1673750Y1446000D02*
D03*
Y1436500D02*
D03*
Y1427000D02*
D03*
X1703250D02*
D03*
Y1446000D02*
D03*
X1726250Y945500D02*
D03*
Y936000D02*
D03*
Y926500D02*
D03*
X1755750D02*
D03*
Y945500D02*
D03*
D77*
X1678500Y1123000D02*
D03*
X1697500D02*
D03*
X1635250Y1455000D02*
D03*
X1616250D02*
D03*
X1635500Y1425000D02*
D03*
X1616500D02*
D03*
X2364500Y775000D02*
D03*
X2345500D02*
D03*
X2364500Y798000D02*
D03*
X2345500D02*
D03*
X1732500Y709000D02*
D03*
X1751500D02*
D03*
X1784500Y927000D02*
D03*
X1803500D02*
D03*
X1784500Y898000D02*
D03*
X1803500D02*
D03*
X1784500Y869000D02*
D03*
X1803500D02*
D03*
X1949500Y1102000D02*
D03*
X1930500D02*
D03*
X1949500Y1187000D02*
D03*
X1930500D02*
D03*
X1949500Y1220000D02*
D03*
X1930500D02*
D03*
X1942500Y1010000D02*
D03*
X1923500D02*
D03*
X1942500Y983000D02*
D03*
X1923500D02*
D03*
X2003500Y1002000D02*
D03*
X2022500D02*
D03*
X1904500Y1102000D02*
D03*
X1885500D02*
D03*
X2189500Y775000D02*
D03*
X2170500D02*
D03*
X2262500Y1283000D02*
D03*
X2281500D02*
D03*
X2337500D02*
D03*
X2318500D02*
D03*
X2908500Y688000D02*
D03*
X2889500D02*
D03*
D78*
X1685000Y1261750D02*
D03*
X1706000D02*
D03*
X2060500Y763000D02*
D03*
X2039500D02*
D03*
X1666500Y676000D02*
D03*
X1687500D02*
D03*
X2665500Y1371000D02*
D03*
X2644500D02*
D03*
X2664500Y1339000D02*
D03*
X2643500D02*
D03*
X2642500Y1307000D02*
D03*
X2663500D02*
D03*
X2663500Y1274000D02*
D03*
X2642500D02*
D03*
X2190500Y801000D02*
D03*
X2169500D02*
D03*
X1943500Y1045000D02*
D03*
X1922500D02*
D03*
Y1070500D02*
D03*
X1943500D02*
D03*
X2117500Y764000D02*
D03*
X2096500D02*
D03*
X1664500Y1074000D02*
D03*
X1685500D02*
D03*
X1664500Y1047000D02*
D03*
X1685500D02*
D03*
X1664500Y1020000D02*
D03*
X1685500D02*
D03*
D79*
X1890000Y1128500D02*
D03*
X1945000D02*
D03*
X1890000Y1160500D02*
D03*
X1945000D02*
D03*
D80*
X1440000Y985500D02*
D03*
Y1074500D02*
D03*
X1495000Y985500D02*
D03*
Y1074500D02*
D03*
D81*
X1498000Y1046000D02*
D03*
Y1038000D02*
D03*
Y1030000D02*
D03*
Y1022000D02*
D03*
Y1014000D02*
D03*
D82*
X2423000Y1519000D02*
D03*
D83*
X2425000Y1532000D02*
D03*
D84*
Y1430000D02*
D03*
D85*
X2224200Y1318000D02*
D03*
X2249200D02*
D03*
X2274200D02*
D03*
X2299300D02*
D03*
X2324300D02*
D03*
X2349300D02*
D03*
X2374300D02*
D03*
X2390800D02*
D03*
X2199200D02*
D03*
D86*
X1876500Y978000D02*
D03*
Y1067000D02*
D03*
D87*
X1681000Y727000D02*
D03*
D88*
X2520000Y799000D02*
D03*
Y810000D02*
D03*
Y821000D02*
D03*
Y832000D02*
D03*
Y843000D02*
D03*
Y854000D02*
D03*
Y865000D02*
D03*
Y895000D02*
D03*
Y906000D02*
D03*
Y917000D02*
D03*
Y928000D02*
D03*
Y939000D02*
D03*
X2404000D02*
D03*
Y928000D02*
D03*
Y917000D02*
D03*
Y906000D02*
D03*
Y895000D02*
D03*
Y865000D02*
D03*
Y854000D02*
D03*
Y843000D02*
D03*
Y832000D02*
D03*
Y821000D02*
D03*
Y810000D02*
D03*
Y799000D02*
D03*
D89*
X1999750Y1169000D02*
D03*
Y1164000D02*
D03*
Y1159000D02*
D03*
Y1154000D02*
D03*
Y1149000D02*
D03*
Y1144000D02*
D03*
Y1139000D02*
D03*
Y1134000D02*
D03*
Y1129000D02*
D03*
Y1124000D02*
D03*
Y1119000D02*
D03*
Y1114000D02*
D03*
Y1109000D02*
D03*
Y1104000D02*
D03*
Y1099000D02*
D03*
Y1094000D02*
D03*
Y1089000D02*
D03*
Y1084000D02*
D03*
Y1079000D02*
D03*
Y1074000D02*
D03*
Y1069000D02*
D03*
Y1064000D02*
D03*
Y1059000D02*
D03*
Y1054000D02*
D03*
Y1049000D02*
D03*
X2156250D02*
D03*
Y1054000D02*
D03*
Y1059000D02*
D03*
Y1064000D02*
D03*
Y1069000D02*
D03*
Y1074000D02*
D03*
Y1079000D02*
D03*
Y1084000D02*
D03*
Y1089000D02*
D03*
Y1094000D02*
D03*
Y1099000D02*
D03*
Y1104000D02*
D03*
Y1109000D02*
D03*
Y1114000D02*
D03*
Y1119000D02*
D03*
Y1124000D02*
D03*
Y1129000D02*
D03*
Y1134000D02*
D03*
Y1139000D02*
D03*
Y1144000D02*
D03*
Y1149000D02*
D03*
Y1154000D02*
D03*
Y1159000D02*
D03*
Y1164000D02*
D03*
Y1169000D02*
D03*
D90*
X2018000Y1030750D02*
D03*
X2023000D02*
D03*
X2028000D02*
D03*
X2033000D02*
D03*
X2038000D02*
D03*
X2043000D02*
D03*
X2048000D02*
D03*
X2053000D02*
D03*
X2058000D02*
D03*
X2063000D02*
D03*
X2068000D02*
D03*
X2073000D02*
D03*
X2078000D02*
D03*
X2083000D02*
D03*
X2088000D02*
D03*
X2093000D02*
D03*
X2098000D02*
D03*
X2103000D02*
D03*
X2108000D02*
D03*
X2113000D02*
D03*
X2118000D02*
D03*
X2123000D02*
D03*
X2128000D02*
D03*
X2133000D02*
D03*
X2138000D02*
D03*
Y1187250D02*
D03*
X2133000D02*
D03*
X2128000D02*
D03*
X2123000D02*
D03*
X2118000D02*
D03*
X2113000D02*
D03*
X2108000D02*
D03*
X2103000D02*
D03*
X2098000D02*
D03*
X2093000D02*
D03*
X2088000D02*
D03*
X2083000D02*
D03*
X2078000D02*
D03*
X2073000D02*
D03*
X2068000D02*
D03*
X2063000D02*
D03*
X2058000D02*
D03*
X2053000D02*
D03*
X2048000D02*
D03*
X2043000D02*
D03*
X2038000D02*
D03*
X2033000D02*
D03*
X2028000D02*
D03*
X2023000D02*
D03*
X2018000D02*
D03*
D91*
X1742750Y845000D02*
D03*
X1635250D02*
D03*
D92*
X1969000Y987250D02*
D03*
Y968750D02*
D03*
X1702000Y966250D02*
D03*
Y947750D02*
D03*
X2827000Y1392750D02*
D03*
Y1411250D02*
D03*
Y1373250D02*
D03*
Y1354750D02*
D03*
D93*
X1740750Y748000D02*
D03*
X1781250D02*
D03*
D94*
X2691750Y1372000D02*
D03*
X2710250D02*
D03*
X2709250Y1340000D02*
D03*
X2690750D02*
D03*
X2689750Y1308000D02*
D03*
X2708250D02*
D03*
X2708250Y1274000D02*
D03*
X2689750D02*
D03*
D95*
X1729000Y665000D02*
D03*
X1791000D02*
D03*
D96*
X1585000Y793000D02*
D03*
Y845000D02*
D03*
D97*
X2907250Y713500D02*
D03*
X2890000Y714000D02*
D03*
X2907250Y730000D02*
D03*
X2890750D02*
D03*
X2907250Y746500D02*
D03*
X2890750D02*
D03*
X2888000Y712000D02*
D03*
D98*
X1497500Y1278750D02*
D03*
Y1122750D02*
D03*
X2983000Y1159000D02*
D03*
X2827000D02*
D03*
D99*
X1468050Y1143600D02*
D03*
Y1257900D02*
D03*
X2847850Y1129550D02*
D03*
X2962150D02*
D03*
D100*
X1531550Y1219800D02*
D03*
Y1194400D02*
D03*
X1556950Y1207100D02*
D03*
Y1181700D02*
D03*
X1531550Y1169000D02*
D03*
X1556950Y1232500D02*
D03*
Y1156300D02*
D03*
X2949450Y1218450D02*
D03*
X2873250D02*
D03*
X2936750Y1193050D02*
D03*
X2924050Y1218450D02*
D03*
X2898650D02*
D03*
X2911350Y1193050D02*
D03*
X2885950D02*
D03*
D101*
X1531550Y1245200D02*
D03*
D102*
X2860550Y1193050D02*
D03*
D103*
X1441000Y1585000D02*
D03*
X2759000D02*
D03*
Y675000D02*
D03*
X1441000D02*
D03*
X2659000Y1585000D02*
D03*
Y675000D02*
D03*
D104*
X2878000Y1565000D02*
D03*
X2922000D02*
D03*
X1934500Y1128500D02*
D03*
X1933500Y1160500D02*
D03*
X1470000Y1008000D02*
D03*
Y1052000D02*
D03*
X1876500Y1047000D02*
D03*
Y998000D02*
D03*
X1537110Y856300D02*
D03*
Y881700D02*
D03*
X1662300Y1065110D02*
D03*
X1687700D02*
D03*
X1662300Y1038110D02*
D03*
X1687700D02*
D03*
X1662300Y1011110D02*
D03*
X1687700D02*
D03*
X2046150Y1376000D02*
D03*
Y1401000D02*
D03*
Y1426000D02*
D03*
Y1451000D02*
D03*
Y1476000D02*
D03*
Y1501000D02*
D03*
Y1526000D02*
D03*
Y1551000D02*
D03*
X1883250Y1376000D02*
D03*
Y1401000D02*
D03*
Y1426000D02*
D03*
Y1451000D02*
D03*
Y1476000D02*
D03*
Y1501000D02*
D03*
Y1526000D02*
D03*
X1602110Y1156700D02*
D03*
Y1131300D02*
D03*
X1512800Y772400D02*
D03*
X1487400D02*
D03*
X1462000D02*
D03*
X1512800Y747000D02*
D03*
X1487400D02*
D03*
X1462000D02*
D03*
X2930000Y753000D02*
D03*
Y727600D02*
D03*
Y702200D02*
D03*
X2860000Y727600D02*
D03*
Y753000D02*
D03*
X2251000Y1013000D02*
D03*
X2276400D02*
D03*
X2301800Y1083000D02*
D03*
X2276400D02*
D03*
X2251000D02*
D03*
D105*
X2427000Y1560000D02*
D03*
X1451000Y920000D02*
D03*
Y869200D02*
D03*
X2583000Y1404800D02*
D03*
X2506800D02*
D03*
Y1354000D02*
D03*
X2506970Y1261070D02*
D03*
Y1311870D02*
D03*
X2583170D02*
D03*
X2582170Y1218620D02*
D03*
X2505970D02*
D03*
Y1167820D02*
D03*
X2238000Y653800D02*
D03*
X2187200D02*
D03*
Y730000D02*
D03*
X2065200D02*
D03*
Y653800D02*
D03*
X2116000D02*
D03*
D106*
X2147000Y1560000D02*
D03*
D107*
X2514000Y660000D02*
D03*
X2488600D02*
D03*
X2463200D02*
D03*
X2412400D02*
D03*
X2437800D02*
D03*
X2548000Y928000D02*
D03*
D108*
X2387000Y660000D02*
D03*
D109*
X2583000Y1354000D02*
D03*
X2583170Y1261070D02*
D03*
X2582170Y1167820D02*
D03*
D110*
X2238000Y730000D02*
D03*
X2116000D02*
D03*
D111*
X1883250Y1551000D02*
D03*
X2860000Y702200D02*
D03*
D112*
X1810150Y1525850D02*
D03*
Y1576650D02*
D03*
X1759350D02*
D03*
Y1525850D02*
D03*
D113*
X1784750Y1551250D02*
D03*
D114*
X2301800Y1013000D02*
D03*
D115*
X1447800Y711200D02*
D03*
Y812800D02*
D03*
X1422400Y863600D02*
D03*
Y965200D02*
D03*
X1447800Y1117600D02*
D03*
X1422400Y1168400D02*
D03*
X1447800Y1219200D02*
D03*
X1422400Y1270000D02*
D03*
X1447800Y1320800D02*
D03*
X1422400Y1371600D02*
D03*
X1447800Y1422400D02*
D03*
X1422400Y1473200D02*
D03*
X1447800Y1524000D02*
D03*
X1473200Y660400D02*
D03*
X1498600Y711200D02*
D03*
Y812800D02*
D03*
Y914400D02*
D03*
Y1219200D02*
D03*
Y1320800D02*
D03*
X1473200Y1371600D02*
D03*
X1498600Y1422400D02*
D03*
X1473200Y1473200D02*
D03*
X1498600Y1524000D02*
D03*
X1473200Y1574800D02*
D03*
X1524000Y660400D02*
D03*
Y965200D02*
D03*
Y1270000D02*
D03*
X1549400Y1320800D02*
D03*
X1524000Y1371600D02*
D03*
X1549400Y1422400D02*
D03*
X1524000Y1473200D02*
D03*
X1549400Y1524000D02*
D03*
X1524000Y1574800D02*
D03*
X1574800Y762000D02*
D03*
X1600200Y914400D02*
D03*
Y1016000D02*
D03*
X1574800Y1270000D02*
D03*
X1600200Y1320800D02*
D03*
X1574800Y1371600D02*
D03*
X1600200Y1422400D02*
D03*
X1574800Y1473200D02*
D03*
X1600200Y1524000D02*
D03*
X1574800Y1574800D02*
D03*
X1651000Y914400D02*
D03*
Y1117600D02*
D03*
X1625600Y1270000D02*
D03*
Y1371600D02*
D03*
Y1473200D02*
D03*
X1651000Y1524000D02*
D03*
X1625600Y1574800D02*
D03*
X1701800Y812800D02*
D03*
X1676400Y863600D02*
D03*
X1701800Y1320800D02*
D03*
X1676400Y1473200D02*
D03*
X1701800Y1524000D02*
D03*
X1676400Y1574800D02*
D03*
X1727200Y1066800D02*
D03*
X1752600Y1117600D02*
D03*
Y1320800D02*
D03*
X1727200Y1473200D02*
D03*
Y1574800D02*
D03*
X1803400Y711200D02*
D03*
Y812800D02*
D03*
Y1320800D02*
D03*
X1778000Y1371600D02*
D03*
Y1473200D02*
D03*
X1828800Y660400D02*
D03*
X1854200Y711200D02*
D03*
X1828800Y762000D02*
D03*
X1854200Y812800D02*
D03*
X1828800Y863600D02*
D03*
X1854200Y1016000D02*
D03*
Y1117600D02*
D03*
X1828800Y1168400D02*
D03*
Y1371600D02*
D03*
X1854200Y1422400D02*
D03*
X1828800Y1473200D02*
D03*
X1854200Y1524000D02*
D03*
X1879600Y660400D02*
D03*
X1905000Y711200D02*
D03*
X1879600Y762000D02*
D03*
X1905000Y812800D02*
D03*
X1879600Y863600D02*
D03*
X1905000Y1219200D02*
D03*
Y1524000D02*
D03*
X1879600Y1574800D02*
D03*
X1930400Y660400D02*
D03*
X1955800Y711200D02*
D03*
X1930400Y762000D02*
D03*
X1955800Y812800D02*
D03*
X1930400Y863600D02*
D03*
X1955800Y1524000D02*
D03*
X1930400Y1574800D02*
D03*
X1981200Y660400D02*
D03*
X2006600Y711200D02*
D03*
X1981200Y762000D02*
D03*
X2006600Y812800D02*
D03*
X1981200Y863600D02*
D03*
X2006600Y1320800D02*
D03*
X1981200Y1574800D02*
D03*
X2032000Y660400D02*
D03*
Y863600D02*
D03*
X2057400Y1320800D02*
D03*
X2032000Y1574800D02*
D03*
X2082800Y1371600D02*
D03*
X2108200Y1422400D02*
D03*
X2082800Y1473200D02*
D03*
X2108200Y1524000D02*
D03*
X2082800Y1574800D02*
D03*
X2159000Y711200D02*
D03*
X2133600Y863600D02*
D03*
X2159000Y1320800D02*
D03*
X2133600Y1473200D02*
D03*
X2159000Y1524000D02*
D03*
X2133600Y1574800D02*
D03*
X2209800Y711200D02*
D03*
X2184400Y1371600D02*
D03*
X2209800Y1422400D02*
D03*
X2184400Y1473200D02*
D03*
X2209800Y1524000D02*
D03*
X2184400Y1574800D02*
D03*
X2260600Y812800D02*
D03*
X2235200Y1066800D02*
D03*
Y1371600D02*
D03*
X2260600Y1422400D02*
D03*
X2235200Y1473200D02*
D03*
Y1574800D02*
D03*
X2311400Y812800D02*
D03*
X2286000Y863600D02*
D03*
X2311400Y914400D02*
D03*
X2286000Y965200D02*
D03*
X2311400Y1219200D02*
D03*
X2286000Y1371600D02*
D03*
X2311400Y1422400D02*
D03*
X2286000Y1473200D02*
D03*
Y1574800D02*
D03*
X2362200Y914400D02*
D03*
X2336800Y965200D02*
D03*
X2362200Y1016000D02*
D03*
Y1219200D02*
D03*
X2336800Y1473200D02*
D03*
Y1574800D02*
D03*
X2387600Y762000D02*
D03*
Y965200D02*
D03*
X2413000Y1016000D02*
D03*
Y1320800D02*
D03*
X2387600Y1371600D02*
D03*
Y1473200D02*
D03*
Y1574800D02*
D03*
X2438400Y762000D02*
D03*
X2463800Y812800D02*
D03*
X2438400Y863600D02*
D03*
X2463800Y1016000D02*
D03*
Y1320800D02*
D03*
Y1422400D02*
D03*
X2438400Y1473200D02*
D03*
X2463800Y1524000D02*
D03*
X2438400Y1574800D02*
D03*
X2514600Y711200D02*
D03*
X2489200Y762000D02*
D03*
Y863600D02*
D03*
X2514600Y1016000D02*
D03*
Y1422400D02*
D03*
X2489200Y1473200D02*
D03*
X2514600Y1524000D02*
D03*
X2489200Y1574800D02*
D03*
X2540000Y660400D02*
D03*
X2565400Y711200D02*
D03*
X2540000Y762000D02*
D03*
Y965200D02*
D03*
X2565400Y1016000D02*
D03*
X2540000Y1066800D02*
D03*
Y1168400D02*
D03*
Y1270000D02*
D03*
Y1371600D02*
D03*
X2565400Y1422400D02*
D03*
X2540000Y1473200D02*
D03*
X2565400Y1524000D02*
D03*
X2540000Y1574800D02*
D03*
X2590800Y660400D02*
D03*
X2616200Y711200D02*
D03*
X2590800Y762000D02*
D03*
X2616200Y812800D02*
D03*
X2590800Y863600D02*
D03*
X2616200Y914400D02*
D03*
X2590800Y965200D02*
D03*
X2616200Y1016000D02*
D03*
X2590800Y1066800D02*
D03*
Y1371600D02*
D03*
X2616200Y1422400D02*
D03*
X2590800Y1473200D02*
D03*
X2616200Y1524000D02*
D03*
X2590800Y1574800D02*
D03*
X2667000Y711200D02*
D03*
X2641600Y762000D02*
D03*
X2667000Y812800D02*
D03*
X2641600Y863600D02*
D03*
X2667000Y914400D02*
D03*
X2641600Y965200D02*
D03*
X2667000Y1016000D02*
D03*
X2641600Y1066800D02*
D03*
X2667000Y1117600D02*
D03*
Y1219200D02*
D03*
Y1422400D02*
D03*
X2641600Y1473200D02*
D03*
X2667000Y1524000D02*
D03*
X2692400Y660400D02*
D03*
X2717800Y711200D02*
D03*
X2692400Y762000D02*
D03*
X2717800Y812800D02*
D03*
X2692400Y863600D02*
D03*
X2717800Y914400D02*
D03*
X2692400Y965200D02*
D03*
X2717800Y1016000D02*
D03*
X2692400Y1066800D02*
D03*
X2717800Y1117600D02*
D03*
X2692400Y1168400D02*
D03*
X2717800Y1219200D02*
D03*
Y1422400D02*
D03*
X2692400Y1473200D02*
D03*
X2717800Y1524000D02*
D03*
X2692400Y1574800D02*
D03*
X2768600Y711200D02*
D03*
X2743200Y762000D02*
D03*
X2768600Y812800D02*
D03*
X2743200Y863600D02*
D03*
X2768600Y914400D02*
D03*
X2743200Y965200D02*
D03*
X2768600Y1016000D02*
D03*
X2743200Y1066800D02*
D03*
X2768600Y1117600D02*
D03*
X2743200Y1168400D02*
D03*
X2768600Y1219200D02*
D03*
X2743200Y1270000D02*
D03*
X2768600Y1320800D02*
D03*
X2743200Y1371600D02*
D03*
X2768600Y1422400D02*
D03*
X2743200Y1473200D02*
D03*
X2768600Y1524000D02*
D03*
M02*
