G04 Layer_Color=8421504*
%FSLAX44Y44*%
%MOMM*%
G71*
G01*
G75*
%ADD10O,1.4500X0.6000*%
%ADD11O,0.6000X1.4500*%
%ADD12R,1.5500X1.4000*%
%ADD13R,1.4500X1.3500*%
G04:AMPARAMS|DCode=14|XSize=2mm|YSize=2.5mm|CornerRadius=0.5mm|HoleSize=0mm|Usage=FLASHONLY|Rotation=180.000|XOffset=0mm|YOffset=0mm|HoleType=Round|Shape=RoundedRectangle|*
%AMROUNDEDRECTD14*
21,1,2.0000,1.5000,0,0,180.0*
21,1,1.0000,2.5000,0,0,180.0*
1,1,1.0000,-0.5000,0.7500*
1,1,1.0000,0.5000,0.7500*
1,1,1.0000,0.5000,-0.7500*
1,1,1.0000,-0.5000,-0.7500*
%
%ADD14ROUNDEDRECTD14*%
%ADD15O,0.5000X2.5000*%
%ADD16O,0.3000X1.8500*%
%ADD17R,1.2000X0.6500*%
%ADD18R,1.4000X1.5500*%
%ADD19R,1.3500X1.4500*%
%ADD20R,1.3000X1.9000*%
G04:AMPARAMS|DCode=21|XSize=2mm|YSize=2.5mm|CornerRadius=0.5mm|HoleSize=0mm|Usage=FLASHONLY|Rotation=270.000|XOffset=0mm|YOffset=0mm|HoleType=Round|Shape=RoundedRectangle|*
%AMROUNDEDRECTD21*
21,1,2.0000,1.5000,0,0,270.0*
21,1,1.0000,2.5000,0,0,270.0*
1,1,1.0000,-0.7500,-0.5000*
1,1,1.0000,-0.7500,0.5000*
1,1,1.0000,0.7500,0.5000*
1,1,1.0000,0.7500,-0.5000*
%
%ADD21ROUNDEDRECTD21*%
%ADD22O,2.5000X0.5000*%
%ADD23R,2.0000X1.0000*%
%ADD24R,1.5500X1.0000*%
%ADD25R,2.0000X1.2000*%
%ADD26R,1.0000X1.6000*%
%ADD27R,0.6500X4.0000*%
%ADD28R,3.2000X2.5100*%
G04:AMPARAMS|DCode=29|XSize=0.8mm|YSize=1.8mm|CornerRadius=0.1mm|HoleSize=0mm|Usage=FLASHONLY|Rotation=270.000|XOffset=0mm|YOffset=0mm|HoleType=Round|Shape=RoundedRectangle|*
%AMROUNDEDRECTD29*
21,1,0.8000,1.6000,0,0,270.0*
21,1,0.6000,1.8000,0,0,270.0*
1,1,0.2000,-0.8000,-0.3000*
1,1,0.2000,-0.8000,0.3000*
1,1,0.2000,0.8000,0.3000*
1,1,0.2000,0.8000,-0.3000*
%
%ADD29ROUNDEDRECTD29*%
%ADD30O,1.6500X0.3500*%
%ADD31O,0.3500X1.6500*%
%ADD32R,3.9500X5.5000*%
%ADD33R,1.4000X1.0000*%
%ADD34R,1.9500X2.2500*%
%ADD35R,1.0000X1.4000*%
%ADD36R,2.1500X3.5500*%
%ADD37R,2.4500X2.4000*%
%ADD38C,0.9100*%
D10*
X1659250Y1236850D02*
D03*
Y1224150D02*
D03*
Y1211450D02*
D03*
Y1198750D02*
D03*
Y1186050D02*
D03*
Y1173350D02*
D03*
Y1160650D02*
D03*
X1713750Y1236850D02*
D03*
Y1224150D02*
D03*
Y1211450D02*
D03*
Y1198750D02*
D03*
Y1186050D02*
D03*
Y1173350D02*
D03*
Y1160650D02*
D03*
D11*
X2938100Y1357250D02*
D03*
X2925400D02*
D03*
X2912700D02*
D03*
X2900000D02*
D03*
X2887300D02*
D03*
X2874600D02*
D03*
X2861900D02*
D03*
X2938100Y1302750D02*
D03*
X2925400D02*
D03*
X2912700D02*
D03*
X2900000D02*
D03*
X2887300D02*
D03*
X2874600D02*
D03*
X2861900D02*
D03*
X1661950Y699750D02*
D03*
X1674650D02*
D03*
X1687350D02*
D03*
X1700050D02*
D03*
X1661950Y754250D02*
D03*
X1674650D02*
D03*
X1687350D02*
D03*
X1700050D02*
D03*
D12*
X1825000Y1446500D02*
D03*
Y1427500D02*
D03*
X2980000Y1485500D02*
D03*
Y1504500D02*
D03*
Y1440500D02*
D03*
Y1459500D02*
D03*
X1795500Y1446000D02*
D03*
Y1427000D02*
D03*
X1767500Y1446000D02*
D03*
Y1427000D02*
D03*
X1739500Y1446000D02*
D03*
Y1427000D02*
D03*
X2553000Y897500D02*
D03*
Y878500D02*
D03*
X1559000Y1088500D02*
D03*
Y1107500D02*
D03*
X1647000Y933500D02*
D03*
Y952500D02*
D03*
X1619000Y933500D02*
D03*
Y952500D02*
D03*
X1611000Y700500D02*
D03*
Y681500D02*
D03*
X1638000Y700500D02*
D03*
Y681500D02*
D03*
X2423000Y1067500D02*
D03*
Y1048500D02*
D03*
X2452000Y1067500D02*
D03*
Y1048500D02*
D03*
X2394000Y1067500D02*
D03*
Y1048500D02*
D03*
X2364000Y1067500D02*
D03*
Y1048500D02*
D03*
X2032000Y954500D02*
D03*
Y973500D02*
D03*
X2004000Y954500D02*
D03*
Y973500D02*
D03*
X2138000Y987500D02*
D03*
Y968500D02*
D03*
X2179000Y1224500D02*
D03*
Y1243500D02*
D03*
X2147000Y1224500D02*
D03*
Y1243500D02*
D03*
X2054000Y1221500D02*
D03*
Y1240500D02*
D03*
X2058000Y973500D02*
D03*
Y954500D02*
D03*
X2026000Y1221500D02*
D03*
Y1240500D02*
D03*
X2183000Y1171500D02*
D03*
Y1190500D02*
D03*
X2165000Y987500D02*
D03*
Y968500D02*
D03*
X1836500Y973000D02*
D03*
Y992000D02*
D03*
Y1072000D02*
D03*
Y1053000D02*
D03*
X2478000Y1387500D02*
D03*
Y1368500D02*
D03*
X2478000Y1297500D02*
D03*
Y1278500D02*
D03*
X2476000Y1202500D02*
D03*
Y1183500D02*
D03*
X2971000Y728500D02*
D03*
Y709500D02*
D03*
D13*
X2970000Y1333500D02*
D03*
Y1312500D02*
D03*
Y1357500D02*
D03*
Y1378500D02*
D03*
Y1265500D02*
D03*
Y1286500D02*
D03*
X1611000Y1202500D02*
D03*
Y1181500D02*
D03*
X2873000Y1267500D02*
D03*
Y1246500D02*
D03*
X1637000Y733500D02*
D03*
Y754500D02*
D03*
X1611000Y733500D02*
D03*
Y754500D02*
D03*
X1674000Y932500D02*
D03*
Y953500D02*
D03*
X2104000Y961500D02*
D03*
Y982500D02*
D03*
X1969000Y1015500D02*
D03*
Y1036500D02*
D03*
X2451000Y1367500D02*
D03*
Y1388500D02*
D03*
X2451000Y1277500D02*
D03*
Y1298500D02*
D03*
X1997000Y1220500D02*
D03*
Y1241500D02*
D03*
X2449000Y1182500D02*
D03*
Y1203500D02*
D03*
X1546000Y858500D02*
D03*
Y879500D02*
D03*
X2827000Y1333500D02*
D03*
Y1312500D02*
D03*
Y1431500D02*
D03*
Y1452500D02*
D03*
X1611000Y1154500D02*
D03*
Y1133500D02*
D03*
D14*
X2855500Y1595000D02*
D03*
X2944500D02*
D03*
X2855500Y1540000D02*
D03*
X2944500D02*
D03*
D15*
X2916000Y1537000D02*
D03*
X2908000D02*
D03*
X2900000D02*
D03*
X2892000D02*
D03*
X2884000D02*
D03*
D16*
X2942250Y1487250D02*
D03*
X2935750D02*
D03*
X2929250D02*
D03*
X2922750D02*
D03*
X2916250D02*
D03*
X2909750D02*
D03*
X2903250D02*
D03*
X2896750D02*
D03*
X2890250D02*
D03*
X2883750D02*
D03*
X2877250D02*
D03*
X2870750D02*
D03*
X2864250D02*
D03*
X2857750D02*
D03*
X2942250Y1412750D02*
D03*
X2935750D02*
D03*
X2929250D02*
D03*
X2922750D02*
D03*
X2916250D02*
D03*
X2909750D02*
D03*
X2903250D02*
D03*
X2896750D02*
D03*
X2890250D02*
D03*
X2883750D02*
D03*
X2877250D02*
D03*
X2870750D02*
D03*
X2864250D02*
D03*
X2857750D02*
D03*
X1545750Y988750D02*
D03*
X1552250D02*
D03*
X1558750D02*
D03*
X1565250D02*
D03*
X1571750D02*
D03*
X1578250D02*
D03*
X1584750D02*
D03*
X1591250D02*
D03*
X1597750D02*
D03*
X1604250D02*
D03*
X1610750D02*
D03*
X1617250D02*
D03*
X1623750D02*
D03*
X1630250D02*
D03*
X1545750Y1063250D02*
D03*
X1552250D02*
D03*
X1558750D02*
D03*
X1565250D02*
D03*
X1571750D02*
D03*
X1578250D02*
D03*
X1584750D02*
D03*
X1591250D02*
D03*
X1597750D02*
D03*
X1604250D02*
D03*
X1610750D02*
D03*
X1617250D02*
D03*
X1623750D02*
D03*
X1630250D02*
D03*
D17*
X1673750Y1446000D02*
D03*
Y1436500D02*
D03*
Y1427000D02*
D03*
X1703250D02*
D03*
Y1446000D02*
D03*
X1726250Y945500D02*
D03*
Y936000D02*
D03*
Y926500D02*
D03*
X1755750D02*
D03*
Y945500D02*
D03*
D18*
X1678500Y1123000D02*
D03*
X1697500D02*
D03*
X1635250Y1455000D02*
D03*
X1616250D02*
D03*
X1635500Y1425000D02*
D03*
X1616500D02*
D03*
X2364500Y775000D02*
D03*
X2345500D02*
D03*
X2364500Y798000D02*
D03*
X2345500D02*
D03*
X1732500Y709000D02*
D03*
X1751500D02*
D03*
X1784500Y927000D02*
D03*
X1803500D02*
D03*
X1784500Y898000D02*
D03*
X1803500D02*
D03*
X1784500Y869000D02*
D03*
X1803500D02*
D03*
X1949500Y1102000D02*
D03*
X1930500D02*
D03*
X1949500Y1187000D02*
D03*
X1930500D02*
D03*
X1949500Y1220000D02*
D03*
X1930500D02*
D03*
X1942500Y1010000D02*
D03*
X1923500D02*
D03*
X1942500Y983000D02*
D03*
X1923500D02*
D03*
X2003500Y1002000D02*
D03*
X2022500D02*
D03*
X1904500Y1102000D02*
D03*
X1885500D02*
D03*
X2189500Y775000D02*
D03*
X2170500D02*
D03*
X2262500Y1283000D02*
D03*
X2281500D02*
D03*
X2337500D02*
D03*
X2318500D02*
D03*
X2908500Y688000D02*
D03*
X2889500D02*
D03*
D19*
X1685000Y1261750D02*
D03*
X1706000D02*
D03*
X2060500Y763000D02*
D03*
X2039500D02*
D03*
X1666500Y676000D02*
D03*
X1687500D02*
D03*
X2665500Y1371000D02*
D03*
X2644500D02*
D03*
X2664500Y1339000D02*
D03*
X2643500D02*
D03*
X2642500Y1307000D02*
D03*
X2663500D02*
D03*
X2663500Y1274000D02*
D03*
X2642500D02*
D03*
X2190500Y801000D02*
D03*
X2169500D02*
D03*
X1943500Y1045000D02*
D03*
X1922500D02*
D03*
Y1070500D02*
D03*
X1943500D02*
D03*
X2117500Y764000D02*
D03*
X2096500D02*
D03*
X1664500Y1074000D02*
D03*
X1685500D02*
D03*
X1664500Y1047000D02*
D03*
X1685500D02*
D03*
X1664500Y1020000D02*
D03*
X1685500D02*
D03*
D20*
X1890000Y1128500D02*
D03*
X1945000D02*
D03*
X1890000Y1160500D02*
D03*
X1945000D02*
D03*
D21*
X1440000Y985500D02*
D03*
Y1074500D02*
D03*
X1495000Y985500D02*
D03*
Y1074500D02*
D03*
D22*
X1498000Y1046000D02*
D03*
Y1038000D02*
D03*
Y1030000D02*
D03*
Y1022000D02*
D03*
Y1014000D02*
D03*
D23*
X2423000Y1519000D02*
D03*
D24*
X2425000Y1532000D02*
D03*
D25*
Y1430000D02*
D03*
D26*
X2224200Y1318000D02*
D03*
X2249200D02*
D03*
X2274200D02*
D03*
X2299300D02*
D03*
X2324300D02*
D03*
X2349300D02*
D03*
X2374300D02*
D03*
X2390800D02*
D03*
X2199200D02*
D03*
D27*
X1876500Y978000D02*
D03*
Y1067000D02*
D03*
D28*
X1681000Y727000D02*
D03*
D29*
X2520000Y799000D02*
D03*
Y810000D02*
D03*
Y821000D02*
D03*
Y832000D02*
D03*
Y843000D02*
D03*
Y854000D02*
D03*
Y865000D02*
D03*
Y895000D02*
D03*
Y906000D02*
D03*
Y917000D02*
D03*
Y928000D02*
D03*
Y939000D02*
D03*
X2404000D02*
D03*
Y928000D02*
D03*
Y917000D02*
D03*
Y906000D02*
D03*
Y895000D02*
D03*
Y865000D02*
D03*
Y854000D02*
D03*
Y843000D02*
D03*
Y832000D02*
D03*
Y821000D02*
D03*
Y810000D02*
D03*
Y799000D02*
D03*
D30*
X1999750Y1169000D02*
D03*
Y1164000D02*
D03*
Y1159000D02*
D03*
Y1154000D02*
D03*
Y1149000D02*
D03*
Y1144000D02*
D03*
Y1139000D02*
D03*
Y1134000D02*
D03*
Y1129000D02*
D03*
Y1124000D02*
D03*
Y1119000D02*
D03*
Y1114000D02*
D03*
Y1109000D02*
D03*
Y1104000D02*
D03*
Y1099000D02*
D03*
Y1094000D02*
D03*
Y1089000D02*
D03*
Y1084000D02*
D03*
Y1079000D02*
D03*
Y1074000D02*
D03*
Y1069000D02*
D03*
Y1064000D02*
D03*
Y1059000D02*
D03*
Y1054000D02*
D03*
Y1049000D02*
D03*
X2156250D02*
D03*
Y1054000D02*
D03*
Y1059000D02*
D03*
Y1064000D02*
D03*
Y1069000D02*
D03*
Y1074000D02*
D03*
Y1079000D02*
D03*
Y1084000D02*
D03*
Y1089000D02*
D03*
Y1094000D02*
D03*
Y1099000D02*
D03*
Y1104000D02*
D03*
Y1109000D02*
D03*
Y1114000D02*
D03*
Y1119000D02*
D03*
Y1124000D02*
D03*
Y1129000D02*
D03*
Y1134000D02*
D03*
Y1139000D02*
D03*
Y1144000D02*
D03*
Y1149000D02*
D03*
Y1154000D02*
D03*
Y1159000D02*
D03*
Y1164000D02*
D03*
Y1169000D02*
D03*
D31*
X2018000Y1030750D02*
D03*
X2023000D02*
D03*
X2028000D02*
D03*
X2033000D02*
D03*
X2038000D02*
D03*
X2043000D02*
D03*
X2048000D02*
D03*
X2053000D02*
D03*
X2058000D02*
D03*
X2063000D02*
D03*
X2068000D02*
D03*
X2073000D02*
D03*
X2078000D02*
D03*
X2083000D02*
D03*
X2088000D02*
D03*
X2093000D02*
D03*
X2098000D02*
D03*
X2103000D02*
D03*
X2108000D02*
D03*
X2113000D02*
D03*
X2118000D02*
D03*
X2123000D02*
D03*
X2128000D02*
D03*
X2133000D02*
D03*
X2138000D02*
D03*
Y1187250D02*
D03*
X2133000D02*
D03*
X2128000D02*
D03*
X2123000D02*
D03*
X2118000D02*
D03*
X2113000D02*
D03*
X2108000D02*
D03*
X2103000D02*
D03*
X2098000D02*
D03*
X2093000D02*
D03*
X2088000D02*
D03*
X2083000D02*
D03*
X2078000D02*
D03*
X2073000D02*
D03*
X2068000D02*
D03*
X2063000D02*
D03*
X2058000D02*
D03*
X2053000D02*
D03*
X2048000D02*
D03*
X2043000D02*
D03*
X2038000D02*
D03*
X2033000D02*
D03*
X2028000D02*
D03*
X2023000D02*
D03*
X2018000D02*
D03*
D32*
X1742750Y845000D02*
D03*
X1635250D02*
D03*
D33*
X1969000Y987250D02*
D03*
Y968750D02*
D03*
X1702000Y966250D02*
D03*
Y947750D02*
D03*
X2827000Y1392750D02*
D03*
Y1411250D02*
D03*
Y1373250D02*
D03*
Y1354750D02*
D03*
D34*
X1740750Y748000D02*
D03*
X1781250D02*
D03*
D35*
X2691750Y1372000D02*
D03*
X2710250D02*
D03*
X2709250Y1340000D02*
D03*
X2690750D02*
D03*
X2689750Y1308000D02*
D03*
X2708250D02*
D03*
X2708250Y1274000D02*
D03*
X2689750D02*
D03*
D36*
X1729000Y665000D02*
D03*
X1791000D02*
D03*
D37*
X1585000Y793000D02*
D03*
Y845000D02*
D03*
D38*
X2907250Y713500D02*
D03*
X2890000Y714000D02*
D03*
X2907250Y730000D02*
D03*
X2890750D02*
D03*
X2907250Y746500D02*
D03*
X2890750D02*
D03*
X2888000Y712000D02*
D03*
M02*
